%TF.GenerationSoftware,KiCad,Pcbnew,10.0.4*%
%TF.CreationDate,2026-08-22T17:59:32+02:00*%
%TF.ProjectId,dongle,646f6e67-6c65-42e6-9b69-6361645f7063,rev?*%
%TF.SameCoordinates,Original*%
%TF.FileFunction,Copper,L4,Bot*%
%TF.FilePolarity,Positive*%
%FSLAX46Y46*%
G04 Gerber Fmt 4.6, Leading zero omitted, Abs format (unit mm)*
G04 Created by KiCad (PCBNEW 10.0.4) date 2026-08-22 17:59:32*
%MOMM*%
%LPD*%
G01*
G04 APERTURE LIST*
G04 Aperture macros list*
%AMRoundRect*
0 Rectangle with rounded corners*
0 $1 Rounding radius*
0 $2 $3 $4 $5 $6 $7 $8 $9 X,Y pos of 4 corners*
0 Add a 4 corners polygon primitive as box body*
4,1,4,$2,$3,$4,$5,$6,$7,$8,$9,$2,$3,0*
0 Add four circle primitives for the rounded corners*
1,1,$1+$1,$2,$3*
1,1,$1+$1,$4,$5*
1,1,$1+$1,$6,$7*
1,1,$1+$1,$8,$9*
0 Add four rect primitives between the rounded corners*
20,1,$1+$1,$2,$3,$4,$5,0*
20,1,$1+$1,$4,$5,$6,$7,0*
20,1,$1+$1,$6,$7,$8,$9,0*
20,1,$1+$1,$8,$9,$2,$3,0*%
G04 Aperture macros list end*
%TA.AperFunction,ConnectorPad*%
%ADD10RoundRect,0.070000X0.105000X0.930000X-0.105000X0.930000X-0.105000X-0.930000X0.105000X-0.930000X0*%
%TD*%
%TA.AperFunction,ComponentPad*%
%ADD11C,1.350000*%
%TD*%
%TA.AperFunction,ComponentPad*%
%ADD12R,1.350000X1.350000*%
%TD*%
%TA.AperFunction,SMDPad,CuDef*%
%ADD13R,1.000000X2.000000*%
%TD*%
%TA.AperFunction,SMDPad,CuDef*%
%ADD14RoundRect,0.250000X-0.625000X0.312500X-0.625000X-0.312500X0.625000X-0.312500X0.625000X0.312500X0*%
%TD*%
%TA.AperFunction,ViaPad*%
%ADD15C,0.600000*%
%TD*%
%TA.AperFunction,Conductor*%
%ADD16C,0.200000*%
%TD*%
%TA.AperFunction,Conductor*%
%ADD17C,0.300000*%
%TD*%
%TA.AperFunction,Conductor*%
%ADD18C,1.000000*%
%TD*%
G04 APERTURE END LIST*
D10*
%TO.P,J2,74,3.3V_74*%
%TO.N,+3.3V*%
X175500000Y-49700000D03*
%TO.P,J2,72,3.3V_72*%
X175000000Y-49700000D03*
%TO.P,J2,70,3.3V_70*%
X174500000Y-49700000D03*
%TO.P,J2,68,SUSCLK_68*%
%TO.N,unconnected-(J2-SUSCLK-Pad68)*%
X174000000Y-49700000D03*
%TO.P,J2,66,SIM_DETECT_66*%
%TO.N,unconnected-(J2-SIM_DETECT-Pad66)*%
X173500000Y-49700000D03*
%TO.P,J2,64,COEX1_64*%
%TO.N,unconnected-(J2-COEX1-Pad64)*%
X173000000Y-49700000D03*
%TO.P,J2,62,COEX2_62*%
%TO.N,unconnected-(J2-COEX2-Pad62)*%
X172500000Y-49700000D03*
%TO.P,J2,60,COEX3_60*%
%TO.N,unconnected-(J2-COEX3-Pad60)*%
X172000000Y-49700000D03*
%TO.P,J2,58,NC_58*%
%TO.N,unconnected-(J2-NC-Pad58)*%
X171500000Y-49700000D03*
%TO.P,J2,56,NC_56*%
%TO.N,unconnected-(J2-NC-Pad56)*%
X171000000Y-49700000D03*
%TO.P,J2,54,~{PEWAKE}_54*%
%TO.N,unconnected-(J2-~{PEWAKE}-Pad54)*%
X170500000Y-49700000D03*
%TO.P,J2,52,~{CLKREQ}_52*%
%TO.N,unconnected-(J2-~{CLKREQ}-Pad52)*%
X170000000Y-49700000D03*
%TO.P,J2,50,~{PERST}_50*%
%TO.N,unconnected-(J2-~{PERST}-Pad50)*%
X169500000Y-49700000D03*
%TO.P,J2,48,GPIO_4_48*%
%TO.N,unconnected-(J2-GPIO_4-Pad48)*%
X169000000Y-49700000D03*
%TO.P,J2,46,GPIO_3_46*%
%TO.N,unconnected-(J2-GPIO_3-Pad46)*%
X168500000Y-49700000D03*
%TO.P,J2,44,GPIO_2_44*%
%TO.N,unconnected-(J2-GPIO_2-Pad44)*%
X168000000Y-49700000D03*
%TO.P,J2,42,GPIO_1_42*%
%TO.N,unconnected-(J2-GPIO_1-Pad42)*%
X167500000Y-49700000D03*
%TO.P,J2,40,GPIO_0_40*%
%TO.N,unconnected-(J2-GPIO_0-Pad40)*%
X167000000Y-49700000D03*
%TO.P,J2,38,DEVSLP_38*%
%TO.N,unconnected-(J2-DEVSLP-Pad38)*%
X166500000Y-49700000D03*
%TO.P,J2,36,UIM-PWR_36*%
%TO.N,unconnected-(J2-UIM-PWR-Pad36)*%
X166000000Y-49700000D03*
%TO.P,J2,34,UIM-DATA_34*%
%TO.N,unconnected-(J2-UIM-DATA-Pad34)*%
X165500000Y-49700000D03*
%TO.P,J2,32,UIM-CLK_32*%
%TO.N,unconnected-(J2-UIM-CLK-Pad32)*%
X165000000Y-49700000D03*
%TO.P,J2,30,UIM-RESET_30*%
%TO.N,unconnected-(J2-UIM-RESET-Pad30)*%
X164500000Y-49700000D03*
%TO.P,J2,28,GPIO_8_28*%
%TO.N,unconnected-(J2-GPIO_8-Pad28)*%
X164000000Y-49700000D03*
%TO.P,J2,26,GPIO_10_26*%
%TO.N,unconnected-(J2-GPIO_10-Pad26)*%
X163500000Y-49700000D03*
%TO.P,J2,24,GPIO_7_24*%
%TO.N,unconnected-(J2-GPIO_7-Pad24)*%
X163000000Y-49700000D03*
%TO.P,J2,22,GPIO_6_22*%
%TO.N,unconnected-(J2-GPIO_6-Pad22)*%
X162500000Y-49700000D03*
%TO.P,J2,20,GPIO_5_20*%
%TO.N,unconnected-(J2-GPIO_5-Pad20)*%
X162000000Y-49700000D03*
%TO.P,J2,10,GPIO_9/DAS/~{DSS}/~{LED1}_10*%
%TO.N,unconnected-(J2-GPIO_9{slash}DAS{slash}~{DSS}{slash}~{LED1}-Pad10)*%
X159500000Y-49700000D03*
%TO.P,J2,8,~{W_DISABLE1}_8*%
%TO.N,Net-(J2-~{W_DISABLE1})*%
X159000000Y-49700000D03*
%TO.P,J2,6,~{FULL_CARD_POWER_OFF}_6*%
%TO.N,Net-(J2-~{FULL_CARD_POWER_OFF})*%
X158500000Y-49700000D03*
%TO.P,J2,4,3.3V_4*%
%TO.N,+3.3V*%
X158000000Y-49700000D03*
%TO.P,J2,2,3.3V_2*%
X157500000Y-49700000D03*
%TD*%
D11*
%TO.P,J1,4,Pin_4_4*%
%TO.N,+3.3V*%
X180000000Y-65050000D03*
%TO.P,J1,3,Pin_3_3*%
%TO.N,/D+_EXTEND2*%
X180000000Y-63050000D03*
%TO.P,J1,2,Pin_2_2*%
%TO.N,/D-_EXTEND2*%
X180000000Y-61050000D03*
D12*
%TO.P,J1,1,Pin_1_1*%
%TO.N,GND*%
X180000000Y-59050000D03*
%TD*%
D13*
%TO.P,U2,8,IRQ_8*%
%TO.N,Net-(U2-IRQ)*%
X162190000Y-72100000D03*
%TO.P,U2,7,MISO_7*%
%TO.N,/MISO*%
X160920000Y-72100000D03*
%TO.P,U2,6,MOSI_6*%
%TO.N,/MOSI*%
X159650000Y-72100000D03*
%TO.P,U2,5,SCK_5*%
%TO.N,/SCK*%
X158380000Y-72100000D03*
%TO.P,U2,4,~{CSN}_4*%
%TO.N,Net-(U2-~{CSN})*%
X157110000Y-72100000D03*
%TO.P,U2,3,CE_3*%
%TO.N,Net-(U2-CE)*%
X155840000Y-72100000D03*
%TO.P,U2,2,VCC_2*%
%TO.N,+3.3V*%
X153300000Y-72100000D03*
%TO.P,U2,1,GND_1*%
%TO.N,GND*%
X154570000Y-72100000D03*
%TD*%
%TO.P,U3,8,IRQ_8*%
%TO.N,Net-(U3-IRQ)*%
X179890000Y-72062500D03*
%TO.P,U3,7,MISO_7*%
%TO.N,/MISO*%
X178620000Y-72062500D03*
%TO.P,U3,6,MOSI_6*%
%TO.N,/MOSI*%
X177350000Y-72062500D03*
%TO.P,U3,5,SCK_5*%
%TO.N,/SCK*%
X176080000Y-72062500D03*
%TO.P,U3,4,~{CSN}_4*%
%TO.N,Net-(U3-~{CSN})*%
X174810000Y-72062500D03*
%TO.P,U3,3,CE_3*%
%TO.N,Net-(U3-CE)*%
X173540000Y-72062500D03*
%TO.P,U3,2,VCC_2*%
%TO.N,+3.3V*%
X171000000Y-72062500D03*
%TO.P,U3,1,GND_1*%
%TO.N,GND*%
X172270000Y-72062500D03*
%TD*%
D14*
%TO.P,C11,2*%
%TO.N,+3.3V*%
X154600000Y-69262500D03*
%TO.P,C11,1*%
%TO.N,GND*%
X154600000Y-66337500D03*
%TD*%
D11*
%TO.P,J3,4,Pin_4_4*%
%TO.N,+3.3V*%
X179925000Y-81425000D03*
%TO.P,J3,3,Pin_3_3*%
%TO.N,/D+_EXTEND1*%
X179925000Y-79425000D03*
%TO.P,J3,2,Pin_2_2*%
%TO.N,/D-_EXTEND1*%
X179925000Y-77425000D03*
D12*
%TO.P,J3,1,Pin_1_1*%
%TO.N,GND*%
X179925000Y-75425000D03*
%TD*%
D15*
%TO.N,GND*%
X164400000Y-69800000D03*
X160600000Y-70500000D03*
%TO.N,+3.3V*%
X156400000Y-56617500D03*
X155000000Y-76400000D03*
X171000000Y-70575000D03*
X178500000Y-53637500D03*
X176100000Y-53637500D03*
%TO.N,GND*%
X163800000Y-51600000D03*
%TO.N,/D+_EXTEND1*%
X156500000Y-61600000D03*
%TO.N,GND*%
X180700000Y-82700000D03*
%TO.N,/IO0*%
X154400000Y-81100000D03*
%TO.N,GND*%
X176100000Y-56562500D03*
%TO.N,/IRQ_2*%
X176600000Y-82300000D03*
%TO.N,GND*%
X172200000Y-74100000D03*
%TO.N,/MISO*%
X167800000Y-77900000D03*
%TO.N,GND*%
X160200000Y-60500000D03*
%TO.N,/MOSI*%
X168144773Y-77178103D03*
%TO.N,GND*%
X170300000Y-57300000D03*
%TO.N,/IRQ_2*%
X168425000Y-81075000D03*
%TO.N,/TX*%
X165300000Y-78193800D03*
%TO.N,GND*%
X165200000Y-51700000D03*
%TO.N,/MOSI*%
X159650000Y-73500000D03*
%TO.N,GND*%
X152900000Y-63800000D03*
X171925000Y-82025000D03*
%TO.N,Net-(U3-~{CSN})*%
X174419102Y-70714401D03*
%TO.N,/D-_EXTEND1*%
X155682500Y-61225302D03*
%TO.N,GND*%
X155000000Y-78700000D03*
%TO.N,/D-_EXTEND2*%
X155500000Y-58300000D03*
%TO.N,GND*%
X166800000Y-51700000D03*
X155092559Y-56458712D03*
%TO.N,/SCK*%
X175900000Y-70800000D03*
%TO.N,Net-(J2-~{W_DISABLE1})*%
X153627500Y-56900000D03*
%TO.N,/CSN_2*%
X169675000Y-80975000D03*
%TO.N,GND*%
X168300000Y-51800000D03*
%TO.N,+3.3V*%
X175500000Y-51700000D03*
%TO.N,GND*%
X159900000Y-55700000D03*
%TO.N,+3.3V*%
X173750000Y-63200000D03*
%TO.N,Net-(J2-~{FULL_CARD_POWER_OFF})*%
X174000000Y-58900000D03*
%TO.N,GND*%
X178400000Y-62400000D03*
%TO.N,/TX*%
X164075000Y-63275000D03*
%TO.N,GND*%
X165200000Y-63100000D03*
%TO.N,/CSN_1*%
X164800000Y-76100000D03*
%TO.N,+3.3V*%
X174859620Y-51759620D03*
%TO.N,Net-(U2-IRQ)*%
X162300000Y-76292157D03*
%TO.N,Net-(U3-CE)*%
X173540000Y-70800000D03*
%TO.N,+3.3V*%
X165500000Y-61500000D03*
%TO.N,/IO0*%
X168400000Y-57900000D03*
%TO.N,Net-(U2-~{CSN})*%
X157700000Y-68800000D03*
%TO.N,/RX*%
X162900000Y-63225000D03*
%TO.N,GND*%
X159900000Y-53400000D03*
%TO.N,/MISO*%
X160325735Y-75325735D03*
%TO.N,GND*%
X156200000Y-76000000D03*
X175500000Y-52500003D03*
%TO.N,Net-(U2-CE)*%
X158796128Y-76058872D03*
%TO.N,/SCK*%
X168900000Y-76900000D03*
X158375000Y-70650000D03*
%TO.N,GND*%
X175700000Y-64800000D03*
%TO.N,/IO0*%
X177300000Y-57600000D03*
%TO.N,GND*%
X152600000Y-53200000D03*
%TO.N,Net-(U3-IRQ)*%
X179950000Y-73375000D03*
%TO.N,+3.3V*%
X157375000Y-50800000D03*
%TO.N,/CSN_2*%
X175000000Y-82100000D03*
%TO.N,/MISO*%
X179217321Y-70593263D03*
%TO.N,GND*%
X156400000Y-70200000D03*
%TO.N,/MOSI*%
X177350000Y-70850000D03*
%TO.N,+3.3V*%
X169700000Y-63300000D03*
%TO.N,GND*%
X171900000Y-62000000D03*
X169800000Y-51800000D03*
%TO.N,/CSN_1*%
X168105637Y-75094363D03*
%TO.N,/D+_EXTEND2*%
X156200000Y-58700000D03*
%TO.N,/RX*%
X164500000Y-78300000D03*
%TO.N,GND*%
X170920000Y-64700000D03*
X163900000Y-56700000D03*
X171200000Y-51800000D03*
%TD*%
%TO.N,Net-(U3-~{CSN})*%
D16*
X174810000Y-72062500D02*
X174810000Y-71105299D01*
X174810000Y-71105299D02*
X174419102Y-70714401D01*
%TO.N,/IO0*%
X155065686Y-57700000D02*
X168200000Y-57700000D01*
X152425000Y-60625000D02*
X153575000Y-59475000D01*
X152425000Y-60900000D02*
X152425000Y-60625000D01*
X153575000Y-59190686D02*
X155065686Y-57700000D01*
X153575000Y-59475000D02*
X153575000Y-59190686D01*
X152250000Y-61075000D02*
X152425000Y-60900000D01*
X153400000Y-81100000D02*
X152400000Y-80100000D01*
X152400000Y-65500000D02*
X152250000Y-65350000D01*
X154400000Y-81100000D02*
X153400000Y-81100000D01*
X168200000Y-57700000D02*
X168400000Y-57900000D01*
X152250000Y-65350000D02*
X152250000Y-61075000D01*
X152400000Y-80100000D02*
X152400000Y-65500000D01*
%TO.N,+3.3V*%
D17*
X175500000Y-49700000D02*
X175500000Y-51700000D01*
X175500000Y-49700000D02*
X174525000Y-49700000D01*
X175000000Y-49700000D02*
X175000000Y-51619240D01*
X175000000Y-51619240D02*
X174859620Y-51759620D01*
X157500000Y-49700000D02*
X157500000Y-50675000D01*
X157500000Y-50675000D02*
X157375000Y-50800000D01*
X157500000Y-49700000D02*
X157975000Y-49700000D01*
X153300000Y-72100000D02*
X153300000Y-74700000D01*
D18*
X153300000Y-69400000D02*
X153300000Y-72100000D01*
D17*
X153300000Y-74700000D02*
X155000000Y-76400000D01*
D18*
X153437500Y-69262500D02*
X153300000Y-69400000D01*
X154600000Y-69262500D02*
X153437500Y-69262500D01*
D16*
X171000000Y-72062500D02*
X171000000Y-70575000D01*
X171000000Y-70575000D02*
X171000000Y-70500000D01*
X171000000Y-70500000D02*
X170975000Y-70475000D01*
%TO.N,/D+_EXTEND1*%
X161008312Y-66908312D02*
G75*
G03*
X160668900Y-66908312I-169706J-169701D01*
G01*
%TO.N,GND*%
X172270000Y-72062500D02*
X172270000Y-74030000D01*
%TO.N,/IRQ_2*%
X174400000Y-82800000D02*
X168980000Y-82800000D01*
%TO.N,/MISO*%
X177493407Y-74389093D02*
X176789093Y-74389093D01*
%TO.N,Net-(U2-CE)*%
X158796128Y-76058872D02*
X158458872Y-76058872D01*
%TO.N,/D+_EXTEND1*%
X159876940Y-66851742D02*
X160244634Y-66484045D01*
%TO.N,/IRQ_2*%
X174500000Y-82700000D02*
X174400000Y-82800000D01*
%TO.N,Net-(J2-~{FULL_CARD_POWER_OFF})*%
X153528971Y-57650000D02*
X153027500Y-57148529D01*
%TO.N,/MISO*%
X172773871Y-77700000D02*
X172673874Y-77799999D01*
%TO.N,Net-(U3-IRQ)*%
X179890000Y-72062500D02*
X179890000Y-73315000D01*
%TO.N,/MOSI*%
X172508186Y-77400000D02*
X172608185Y-77300000D01*
%TO.N,Net-(U2-~{CSN})*%
X157110000Y-70990000D02*
X157110000Y-72100000D01*
%TO.N,/D+_EXTEND2*%
X156400000Y-58500000D02*
X156200000Y-58700000D01*
%TO.N,/TX*%
X164200000Y-73400000D02*
X165900000Y-71700000D01*
%TO.N,/D+_EXTEND2*%
X177725000Y-60775000D02*
X168509314Y-60775000D01*
%TO.N,Net-(J2-~{FULL_CARD_POWER_OFF})*%
X173000000Y-57900000D02*
X169800000Y-57900000D01*
X156300000Y-53100000D02*
X158500000Y-50900000D01*
%TO.N,/MISO*%
X160660000Y-73640000D02*
X160920000Y-73380000D01*
%TO.N,/D-_EXTEND2*%
X168675000Y-60375000D02*
X179325000Y-60375000D01*
%TO.N,/IO0*%
X168400000Y-57900000D02*
X169000000Y-58500000D01*
%TO.N,/MISO*%
X176789093Y-74389093D02*
X173478186Y-77700000D01*
%TO.N,/IO0*%
X175100000Y-59800000D02*
X177300000Y-57600000D01*
%TO.N,/RX*%
X165500000Y-65265686D02*
X164359314Y-64125000D01*
%TO.N,/SCK*%
X169000000Y-77000000D02*
X172342500Y-77000000D01*
%TO.N,Net-(J2-~{W_DISABLE1})*%
X153627500Y-56900000D02*
X154000000Y-56527500D01*
%TO.N,/D+_EXTEND1*%
X160159783Y-66059783D02*
X159539683Y-65439683D01*
%TO.N,/RX*%
X163800000Y-77400000D02*
X163800000Y-73234314D01*
%TO.N,GND*%
X172270000Y-74030000D02*
X172200000Y-74100000D01*
%TO.N,/RX*%
X164359314Y-64125000D02*
X163800000Y-64125000D01*
%TO.N,/D+_EXTEND1*%
X159961793Y-67276007D02*
X159876940Y-67191154D01*
%TO.N,Net-(U2-IRQ)*%
X162300000Y-76292157D02*
X162300000Y-75600000D01*
%TO.N,/TX*%
X165900000Y-65100000D02*
X164075000Y-63275000D01*
%TO.N,Net-(J2-~{FULL_CARD_POWER_OFF})*%
X165300000Y-57300000D02*
X165400000Y-57200000D01*
X158500000Y-50900000D02*
X158500000Y-49700000D01*
%TO.N,/SCK*%
X158380000Y-70655000D02*
X158375000Y-70650000D01*
%TO.N,/MOSI*%
X177350000Y-72062500D02*
X177350000Y-70850000D01*
%TO.N,/CSN_1*%
X165461270Y-76100000D02*
X164800000Y-76100000D01*
%TO.N,/MOSI*%
X177350000Y-73262500D02*
X177350000Y-72062500D01*
%TO.N,/MISO*%
X169864215Y-77800000D02*
X169764215Y-77900000D01*
%TO.N,/MOSI*%
X169598529Y-77500000D02*
X169698529Y-77400000D01*
%TO.N,/MISO*%
X173478186Y-77700000D02*
X172773871Y-77700000D01*
X178620000Y-73262500D02*
X177493407Y-74389093D01*
%TO.N,/IRQ_2*%
X168425000Y-82245000D02*
X168425000Y-81075000D01*
%TO.N,Net-(J2-~{W_DISABLE1})*%
X154600000Y-53500000D02*
X156465685Y-53500000D01*
%TO.N,/TX*%
X164200000Y-77093800D02*
X164200000Y-73400000D01*
%TO.N,Net-(U2-~{CSN})*%
X157400000Y-70700000D02*
X157110000Y-70990000D01*
%TO.N,Net-(J2-~{FULL_CARD_POWER_OFF})*%
X169100000Y-57200000D02*
X165400000Y-57200000D01*
%TO.N,/D-_EXTEND1*%
X157450000Y-61550000D02*
X157450000Y-62550000D01*
%TO.N,Net-(U3-IRQ)*%
X179890000Y-73315000D02*
X179950000Y-73375000D01*
%TO.N,/MOSI*%
X168466670Y-77500000D02*
X169598529Y-77500000D01*
%TO.N,Net-(U2-~{CSN})*%
X157400000Y-69100000D02*
X157400000Y-70700000D01*
%TO.N,/SCK*%
X176080000Y-70980000D02*
X175900000Y-70800000D01*
%TO.N,/D+_EXTEND1*%
X162990000Y-78204214D02*
X162990000Y-68890000D01*
X160244634Y-66484045D02*
G75*
G03*
X160244675Y-66144596I-169734J169745D01*
G01*
%TO.N,/CSN_1*%
X165607843Y-75953427D02*
X165461270Y-76100000D01*
%TO.N,/D+_EXTEND2*%
X168509314Y-60775000D02*
X166234314Y-58500000D01*
%TO.N,/D+_EXTEND1*%
X156500000Y-62400000D02*
X156500000Y-61600000D01*
X162990000Y-68890000D02*
X161008312Y-66908312D01*
%TO.N,/CSN_1*%
X168105637Y-75094363D02*
X167491422Y-75094363D01*
%TO.N,/D-_EXTEND1*%
X178124265Y-79225735D02*
X179925000Y-77425000D01*
X157450000Y-62550000D02*
X163400000Y-68500000D01*
%TO.N,/MISO*%
X179217321Y-70593263D02*
X178620000Y-71190584D01*
X169764215Y-77900000D02*
X167800000Y-77900000D01*
%TO.N,Net-(J2-~{FULL_CARD_POWER_OFF})*%
X153528971Y-57650000D02*
X154550000Y-57650000D01*
%TO.N,/CSN_1*%
X166632358Y-75953427D02*
X165607843Y-75953427D01*
%TO.N,/SCK*%
X176080000Y-72062500D02*
X176080000Y-70980000D01*
%TO.N,/MISO*%
X178620000Y-71190584D02*
X178620000Y-73262500D01*
%TO.N,/SCK*%
X172342500Y-77000000D02*
X176080000Y-73262500D01*
%TO.N,/IO0*%
X170800000Y-58500000D02*
X172100000Y-59800000D01*
%TO.N,Net-(J2-~{W_DISABLE1})*%
X159000000Y-50965686D02*
X159000000Y-49700000D01*
%TO.N,/MISO*%
X160660000Y-74991470D02*
X160660000Y-73640000D01*
%TO.N,/D+_EXTEND1*%
X179724265Y-79625735D02*
X164411521Y-79625735D01*
%TO.N,/MISO*%
X160325735Y-75325735D02*
X160660000Y-74991470D01*
%TO.N,/D-_EXTEND1*%
X163400000Y-68500000D02*
X163400000Y-78048529D01*
%TO.N,/D+_EXTEND2*%
X166234314Y-58500000D02*
X156400000Y-58500000D01*
%TO.N,/D-_EXTEND1*%
X155800000Y-61000000D02*
X156900000Y-61000000D01*
%TO.N,Net-(J2-~{W_DISABLE1})*%
X154000000Y-56527500D02*
X154000000Y-54100000D01*
%TO.N,GND*%
D18*
X156400000Y-66900000D02*
X156400000Y-70200000D01*
%TO.N,/IO0*%
D16*
X172100000Y-59800000D02*
X175100000Y-59800000D01*
%TO.N,/D-_EXTEND1*%
X155726579Y-61181223D02*
X155726579Y-61073421D01*
%TO.N,/D+_EXTEND1*%
X160301203Y-67276006D02*
G75*
G02*
X159961795Y-67276005I-169703J169706D01*
G01*
%TO.N,/D-_EXTEND2*%
X166400000Y-58100000D02*
X168675000Y-60375000D01*
%TO.N,/MOSI*%
X172608185Y-77300000D02*
X173312500Y-77300000D01*
%TO.N,Net-(J2-~{FULL_CARD_POWER_OFF})*%
X174000000Y-58900000D02*
X173000000Y-57900000D01*
%TO.N,/MOSI*%
X173312500Y-77300000D02*
X177350000Y-73262500D01*
%TO.N,/SCK*%
X176080000Y-73262500D02*
X176080000Y-72062500D01*
%TO.N,/D-_EXTEND1*%
X164577206Y-79225735D02*
X178124265Y-79225735D01*
%TO.N,Net-(U2-IRQ)*%
X162300000Y-75600000D02*
X162190000Y-75490000D01*
%TO.N,/TX*%
X165300000Y-78193800D02*
X164200000Y-77093800D01*
%TO.N,/RX*%
X163800000Y-64125000D02*
X162900000Y-63225000D01*
%TO.N,/D+_EXTEND2*%
X180000000Y-63050000D02*
X177725000Y-60775000D01*
%TO.N,Net-(J2-~{FULL_CARD_POWER_OFF})*%
X154300000Y-53100000D02*
X156300000Y-53100000D01*
%TO.N,/CSN_2*%
X172375000Y-80975000D02*
X169675000Y-80975000D01*
%TO.N,Net-(J2-~{FULL_CARD_POWER_OFF})*%
X154900000Y-57300000D02*
X165300000Y-57300000D01*
%TO.N,/MISO*%
X160920000Y-73380000D02*
X160920000Y-72100000D01*
%TO.N,Net-(U2-CE)*%
X155840000Y-73440000D02*
X155840000Y-72100000D01*
%TO.N,/D-_EXTEND2*%
X179325000Y-60375000D02*
X180000000Y-61050000D01*
%TO.N,/MOSI*%
X169698529Y-77400000D02*
X172508186Y-77400000D01*
%TO.N,/IRQ_2*%
X176600000Y-82300000D02*
X176200000Y-82700000D01*
%TO.N,Net-(J2-~{FULL_CARD_POWER_OFF})*%
X153027500Y-57148529D02*
X153027500Y-54372500D01*
%TO.N,Net-(U3-CE)*%
X173540000Y-72062500D02*
X173540000Y-70800000D01*
%TO.N,/D-_EXTEND1*%
X155726579Y-61073421D02*
X155800000Y-61000000D01*
X156900000Y-61000000D02*
X157450000Y-61550000D01*
%TO.N,Net-(U2-CE)*%
X158458872Y-76058872D02*
X155840000Y-73440000D01*
%TO.N,Net-(J2-~{W_DISABLE1})*%
X154000000Y-54100000D02*
X154600000Y-53500000D01*
%TO.N,/D-_EXTEND1*%
X163400000Y-78048529D02*
X164577206Y-79225735D01*
%TO.N,/D+_EXTEND1*%
X160244635Y-66144635D02*
X160159783Y-66059783D01*
%TO.N,/CSN_2*%
X173500000Y-82100000D02*
X172375000Y-80975000D01*
%TO.N,/D+_EXTEND1*%
X159539683Y-65439683D02*
X156500000Y-62400000D01*
%TO.N,/MISO*%
X172673874Y-77799999D02*
X169864215Y-77800000D01*
%TO.N,/D-_EXTEND1*%
X155682500Y-61225302D02*
X155726579Y-61181223D01*
%TO.N,/D+_EXTEND1*%
X164411521Y-79625735D02*
X162990000Y-78204214D01*
%TO.N,/D-_EXTEND1*%
X155682500Y-61225302D02*
X155726579Y-61269381D01*
%TO.N,/RX*%
X165500000Y-71534314D02*
X165500000Y-65265686D01*
%TO.N,/SCK*%
X158380000Y-72100000D02*
X158380000Y-70655000D01*
%TO.N,/MOSI*%
X159650000Y-72100000D02*
X159650000Y-73500000D01*
%TO.N,GND*%
D18*
X154600000Y-66337500D02*
X155837500Y-66337500D01*
%TO.N,/RX*%
D16*
X164500000Y-78300000D02*
X164500000Y-78100000D01*
%TO.N,/IRQ_2*%
X168980000Y-82800000D02*
X168425000Y-82245000D01*
%TO.N,/CSN_2*%
X175000000Y-82100000D02*
X173500000Y-82100000D01*
%TO.N,/RX*%
X164500000Y-78100000D02*
X163800000Y-77400000D01*
%TO.N,/D+_EXTEND1*%
X179925000Y-79425000D02*
X179724265Y-79625735D01*
%TO.N,/TX*%
X165900000Y-71700000D02*
X165900000Y-65100000D01*
%TO.N,/IO0*%
X169000000Y-58500000D02*
X170800000Y-58500000D01*
%TO.N,Net-(U2-IRQ)*%
X162190000Y-75490000D02*
X162190000Y-72100000D01*
%TO.N,/D+_EXTEND1*%
X159876940Y-67191154D02*
G75*
G02*
X159876892Y-66851694I169660J169754D01*
G01*
%TO.N,/SCK*%
X168900000Y-76900000D02*
X169000000Y-77000000D01*
%TO.N,/D-_EXTEND2*%
X155700000Y-58100000D02*
X166400000Y-58100000D01*
%TO.N,Net-(J2-~{FULL_CARD_POWER_OFF})*%
X169800000Y-57900000D02*
X169100000Y-57200000D01*
X154550000Y-57650000D02*
X154900000Y-57300000D01*
%TO.N,/RX*%
X163800000Y-73234314D02*
X165500000Y-71534314D01*
%TO.N,/IRQ_2*%
X176200000Y-82700000D02*
X174500000Y-82700000D01*
%TO.N,Net-(U2-~{CSN})*%
X157700000Y-68800000D02*
X157400000Y-69100000D01*
%TO.N,/MOSI*%
X168144773Y-77178103D02*
X168466670Y-77500000D01*
%TO.N,/D-_EXTEND2*%
X155500000Y-58300000D02*
X155700000Y-58100000D01*
%TO.N,/D+_EXTEND1*%
X160668900Y-66908312D02*
X160301203Y-67276006D01*
%TO.N,/CSN_1*%
X167491422Y-75094363D02*
X166632358Y-75953427D01*
%TO.N,GND*%
D18*
X155837500Y-66337500D02*
X156400000Y-66900000D01*
%TO.N,Net-(J2-~{W_DISABLE1})*%
D16*
X156465685Y-53500000D02*
X159000000Y-50965686D01*
%TO.N,Net-(J2-~{FULL_CARD_POWER_OFF})*%
X153027500Y-54372500D02*
X154300000Y-53100000D01*
%TD*%
%TA.AperFunction,Conductor*%
%TO.N,GND*%
G36*
X154884753Y-58832679D02*
G01*
X154929101Y-58861180D01*
X154989707Y-58921786D01*
X154989711Y-58921789D01*
X155120814Y-59009390D01*
X155120827Y-59009397D01*
X155241974Y-59059577D01*
X155266503Y-59069737D01*
X155421153Y-59100499D01*
X155421156Y-59100500D01*
X155421158Y-59100500D01*
X155438573Y-59100500D01*
X155505612Y-59120185D01*
X155541675Y-59155610D01*
X155578207Y-59210284D01*
X155578213Y-59210292D01*
X155689707Y-59321786D01*
X155689711Y-59321789D01*
X155820814Y-59409390D01*
X155820827Y-59409397D01*
X155966498Y-59469735D01*
X155966503Y-59469737D01*
X156072298Y-59490781D01*
X156121153Y-59500499D01*
X156121156Y-59500500D01*
X156121158Y-59500500D01*
X156278844Y-59500500D01*
X156278845Y-59500499D01*
X156433497Y-59469737D01*
X156579179Y-59409394D01*
X156710289Y-59321789D01*
X156821789Y-59210289D01*
X156858325Y-59155610D01*
X156911937Y-59110804D01*
X156961427Y-59100500D01*
X165934217Y-59100500D01*
X166001256Y-59120185D01*
X166021898Y-59136819D01*
X168024453Y-61139374D01*
X168024463Y-61139385D01*
X168028793Y-61143715D01*
X168028794Y-61143716D01*
X168140598Y-61255520D01*
X168203564Y-61291873D01*
X168277529Y-61334577D01*
X168430257Y-61375501D01*
X168430260Y-61375501D01*
X168595967Y-61375501D01*
X168595983Y-61375500D01*
X177424903Y-61375500D01*
X177491942Y-61395185D01*
X177512584Y-61411819D01*
X178811784Y-62711019D01*
X178845269Y-62772342D01*
X178846576Y-62818097D01*
X178830308Y-62920814D01*
X178824500Y-62957486D01*
X178824500Y-63142514D01*
X178833106Y-63196847D01*
X178853445Y-63325265D01*
X178910619Y-63501232D01*
X178910620Y-63501235D01*
X178994622Y-63666096D01*
X179103379Y-63815787D01*
X179234213Y-63946621D01*
X179238432Y-63949686D01*
X179281094Y-64005019D01*
X179287069Y-64074633D01*
X179254459Y-64136426D01*
X179238432Y-64150314D01*
X179234210Y-64153381D01*
X179103381Y-64284210D01*
X179103381Y-64284211D01*
X179103379Y-64284213D01*
X179056672Y-64348499D01*
X178994622Y-64433903D01*
X178910620Y-64598764D01*
X178910619Y-64598767D01*
X178853445Y-64774734D01*
X178853445Y-64774736D01*
X178824500Y-64957486D01*
X178824500Y-65142514D01*
X178831870Y-65189047D01*
X178853445Y-65325265D01*
X178910619Y-65501232D01*
X178910620Y-65501235D01*
X178994622Y-65666096D01*
X179103379Y-65815787D01*
X179234213Y-65946621D01*
X179383904Y-66055378D01*
X179446947Y-66087500D01*
X179548764Y-66139379D01*
X179548767Y-66139380D01*
X179636750Y-66167967D01*
X179724736Y-66196555D01*
X179907486Y-66225500D01*
X179907487Y-66225500D01*
X180092513Y-66225500D01*
X180092514Y-66225500D01*
X180275264Y-66196555D01*
X180451235Y-66139379D01*
X180616096Y-66055378D01*
X180765787Y-65946621D01*
X180787819Y-65924589D01*
X180849142Y-65891104D01*
X180918834Y-65896088D01*
X180974767Y-65937960D01*
X180999184Y-66003424D01*
X180999500Y-66012270D01*
X180999500Y-70668964D01*
X180979815Y-70736003D01*
X180927011Y-70781758D01*
X180857853Y-70791702D01*
X180794297Y-70762677D01*
X180776234Y-70743276D01*
X180747548Y-70704957D01*
X180747546Y-70704954D01*
X180747544Y-70704953D01*
X180747544Y-70704952D01*
X180632335Y-70618706D01*
X180632328Y-70618702D01*
X180497482Y-70568408D01*
X180497483Y-70568408D01*
X180437883Y-70562001D01*
X180437881Y-70562000D01*
X180437873Y-70562000D01*
X180437865Y-70562000D01*
X180129049Y-70562000D01*
X180062010Y-70542315D01*
X180016255Y-70489511D01*
X180007432Y-70462191D01*
X179987059Y-70359773D01*
X179987058Y-70359766D01*
X179972381Y-70324332D01*
X179926718Y-70214090D01*
X179926711Y-70214077D01*
X179839110Y-70082974D01*
X179839107Y-70082970D01*
X179727613Y-69971476D01*
X179727609Y-69971473D01*
X179596506Y-69883872D01*
X179596493Y-69883865D01*
X179450822Y-69823527D01*
X179450810Y-69823524D01*
X179296166Y-69792763D01*
X179296163Y-69792763D01*
X179138479Y-69792763D01*
X179138476Y-69792763D01*
X178983831Y-69823524D01*
X178983819Y-69823527D01*
X178838148Y-69883865D01*
X178838135Y-69883872D01*
X178707032Y-69971473D01*
X178707028Y-69971476D01*
X178595534Y-70082970D01*
X178595531Y-70082974D01*
X178507930Y-70214077D01*
X178507923Y-70214090D01*
X178447585Y-70359761D01*
X178447582Y-70359773D01*
X178427210Y-70462191D01*
X178412499Y-70490314D01*
X178399306Y-70519203D01*
X178396416Y-70521060D01*
X178394825Y-70524102D01*
X178367242Y-70539808D01*
X178340528Y-70556977D01*
X178335933Y-70557637D01*
X178334110Y-70558676D01*
X178305593Y-70562000D01*
X178180015Y-70562000D01*
X178112976Y-70542315D01*
X178067221Y-70489511D01*
X178065453Y-70485450D01*
X178059392Y-70470817D01*
X177971789Y-70339711D01*
X177971786Y-70339707D01*
X177860292Y-70228213D01*
X177860288Y-70228210D01*
X177729185Y-70140609D01*
X177729172Y-70140602D01*
X177583501Y-70080264D01*
X177583489Y-70080261D01*
X177428845Y-70049500D01*
X177428842Y-70049500D01*
X177271158Y-70049500D01*
X177271155Y-70049500D01*
X177116510Y-70080261D01*
X177116498Y-70080264D01*
X176970827Y-70140602D01*
X176970814Y-70140609D01*
X176839711Y-70228210D01*
X176731336Y-70336585D01*
X176670013Y-70370069D01*
X176600321Y-70365085D01*
X176544388Y-70323213D01*
X176540552Y-70317792D01*
X176521790Y-70289712D01*
X176521786Y-70289707D01*
X176410292Y-70178213D01*
X176410288Y-70178210D01*
X176279185Y-70090609D01*
X176279172Y-70090602D01*
X176133501Y-70030264D01*
X176133489Y-70030261D01*
X175978845Y-69999500D01*
X175978842Y-69999500D01*
X175821158Y-69999500D01*
X175821155Y-69999500D01*
X175666510Y-70030261D01*
X175666498Y-70030264D01*
X175520827Y-70090602D01*
X175520814Y-70090609D01*
X175389711Y-70178210D01*
X175277073Y-70290848D01*
X175215750Y-70324332D01*
X175146058Y-70319348D01*
X175090125Y-70277476D01*
X175086302Y-70272075D01*
X175040891Y-70204112D01*
X175040889Y-70204109D01*
X174929394Y-70092614D01*
X174929390Y-70092611D01*
X174798287Y-70005010D01*
X174798274Y-70005003D01*
X174652603Y-69944665D01*
X174652591Y-69944662D01*
X174497947Y-69913901D01*
X174497944Y-69913901D01*
X174340260Y-69913901D01*
X174340257Y-69913901D01*
X174185612Y-69944662D01*
X174185600Y-69944665D01*
X174039929Y-70005003D01*
X174039918Y-70005009D01*
X173969740Y-70051901D01*
X173903063Y-70072778D01*
X173853399Y-70063359D01*
X173773497Y-70030263D01*
X173773489Y-70030261D01*
X173618845Y-69999500D01*
X173618842Y-69999500D01*
X173461158Y-69999500D01*
X173461155Y-69999500D01*
X173306510Y-70030261D01*
X173306498Y-70030264D01*
X173160827Y-70090602D01*
X173160814Y-70090609D01*
X173029711Y-70178210D01*
X173029707Y-70178213D01*
X172918213Y-70289707D01*
X172918210Y-70289711D01*
X172830609Y-70420814D01*
X172830602Y-70420827D01*
X172770263Y-70566500D01*
X172770262Y-70566505D01*
X172762536Y-70605344D01*
X172730150Y-70667254D01*
X172715233Y-70680414D01*
X172682454Y-70704953D01*
X172682452Y-70704955D01*
X172596206Y-70820164D01*
X172596202Y-70820171D01*
X172545908Y-70955017D01*
X172541877Y-70992517D01*
X172539501Y-71014623D01*
X172539500Y-71014635D01*
X172539500Y-73110370D01*
X172539501Y-73110376D01*
X172545908Y-73169983D01*
X172596202Y-73304828D01*
X172596206Y-73304835D01*
X172682452Y-73420044D01*
X172682455Y-73420047D01*
X172797664Y-73506293D01*
X172797671Y-73506297D01*
X172932517Y-73556591D01*
X172932516Y-73556591D01*
X172939444Y-73557335D01*
X172992127Y-73563000D01*
X174087872Y-73562999D01*
X174135759Y-73557851D01*
X174155197Y-73555762D01*
X174155311Y-73556830D01*
X174194688Y-73556829D01*
X174194803Y-73555761D01*
X174202514Y-73556589D01*
X174202517Y-73556591D01*
X174262127Y-73563000D01*
X174630903Y-73562999D01*
X174697941Y-73582683D01*
X174743696Y-73635487D01*
X174753640Y-73704646D01*
X174724615Y-73768201D01*
X174718583Y-73774680D01*
X172130084Y-76363181D01*
X172068761Y-76396666D01*
X172042403Y-76399500D01*
X169582940Y-76399500D01*
X169515901Y-76379815D01*
X169495263Y-76363185D01*
X169410289Y-76278211D01*
X169410288Y-76278210D01*
X169410287Y-76278209D01*
X169279185Y-76190609D01*
X169279172Y-76190602D01*
X169133501Y-76130264D01*
X169133489Y-76130261D01*
X168978845Y-76099500D01*
X168978842Y-76099500D01*
X168821158Y-76099500D01*
X168821155Y-76099500D01*
X168666510Y-76130261D01*
X168666498Y-76130264D01*
X168520827Y-76190602D01*
X168520814Y-76190609D01*
X168389714Y-76278208D01*
X168325806Y-76342115D01*
X168264482Y-76375599D01*
X168225976Y-76377835D01*
X168223620Y-76377603D01*
X168223615Y-76377603D01*
X168065931Y-76377603D01*
X168065928Y-76377603D01*
X167911283Y-76408364D01*
X167911271Y-76408367D01*
X167765600Y-76468705D01*
X167765587Y-76468712D01*
X167634484Y-76556313D01*
X167634480Y-76556316D01*
X167522986Y-76667810D01*
X167522983Y-76667814D01*
X167435382Y-76798917D01*
X167435375Y-76798930D01*
X167375037Y-76944601D01*
X167375034Y-76944613D01*
X167344273Y-77099256D01*
X167344273Y-77175474D01*
X167324588Y-77242513D01*
X167293917Y-77273739D01*
X167294417Y-77274349D01*
X167289705Y-77278215D01*
X167178213Y-77389707D01*
X167178210Y-77389711D01*
X167090609Y-77520814D01*
X167090602Y-77520827D01*
X167030264Y-77666498D01*
X167030261Y-77666510D01*
X166999500Y-77821153D01*
X166999500Y-77978846D01*
X167030261Y-78133489D01*
X167030264Y-78133501D01*
X167090602Y-78279172D01*
X167090609Y-78279185D01*
X167178210Y-78410288D01*
X167178213Y-78410292D01*
X167181475Y-78413554D01*
X167214960Y-78474877D01*
X167209976Y-78544569D01*
X167168104Y-78600502D01*
X167102640Y-78624919D01*
X167093794Y-78625235D01*
X166173327Y-78625235D01*
X166106288Y-78605550D01*
X166060533Y-78552746D01*
X166050589Y-78483588D01*
X166058763Y-78453788D01*
X166069737Y-78427297D01*
X166100500Y-78272642D01*
X166100500Y-78114958D01*
X166100500Y-78114955D01*
X166100499Y-78114953D01*
X166073425Y-77978846D01*
X166069737Y-77960303D01*
X166012100Y-77821153D01*
X166009397Y-77814627D01*
X166009390Y-77814614D01*
X165921789Y-77683511D01*
X165921786Y-77683507D01*
X165810292Y-77572013D01*
X165810288Y-77572010D01*
X165679185Y-77484409D01*
X165679172Y-77484402D01*
X165533501Y-77424064D01*
X165533491Y-77424061D01*
X165378149Y-77393161D01*
X165316238Y-77360776D01*
X165314660Y-77359225D01*
X165017413Y-77061978D01*
X164983928Y-77000655D01*
X164988912Y-76930963D01*
X165030784Y-76875030D01*
X165057642Y-76859736D01*
X165179172Y-76809397D01*
X165179172Y-76809396D01*
X165179179Y-76809394D01*
X165189579Y-76802445D01*
X165310873Y-76721399D01*
X165377550Y-76700521D01*
X165379764Y-76700501D01*
X165540324Y-76700501D01*
X165540327Y-76700501D01*
X165693055Y-76659577D01*
X165764290Y-76618449D01*
X165829986Y-76580520D01*
X165832977Y-76577528D01*
X165843287Y-76571389D01*
X165870349Y-76564434D01*
X165896416Y-76554357D01*
X165906735Y-76553927D01*
X166545689Y-76553927D01*
X166545705Y-76553928D01*
X166553301Y-76553928D01*
X166711412Y-76553928D01*
X166711415Y-76553928D01*
X166864143Y-76513004D01*
X166923313Y-76478842D01*
X167001074Y-76433947D01*
X167112878Y-76322143D01*
X167112878Y-76322141D01*
X167123082Y-76311938D01*
X167123086Y-76311933D01*
X167600559Y-75834459D01*
X167661880Y-75800976D01*
X167731572Y-75805960D01*
X167735671Y-75807573D01*
X167872140Y-75864100D01*
X168026790Y-75894862D01*
X168026793Y-75894863D01*
X168026795Y-75894863D01*
X168184481Y-75894863D01*
X168184482Y-75894862D01*
X168339134Y-75864100D01*
X168475584Y-75807581D01*
X168484809Y-75803760D01*
X168484809Y-75803759D01*
X168484816Y-75803757D01*
X168615926Y-75716152D01*
X168727426Y-75604652D01*
X168815031Y-75473542D01*
X168875374Y-75327860D01*
X168906137Y-75173205D01*
X168906137Y-75015521D01*
X168906137Y-75015518D01*
X168906136Y-75015516D01*
X168900980Y-74989594D01*
X168875374Y-74860866D01*
X168832687Y-74757809D01*
X168815034Y-74715190D01*
X168815027Y-74715177D01*
X168727426Y-74584074D01*
X168727423Y-74584070D01*
X168615929Y-74472576D01*
X168615925Y-74472573D01*
X168484822Y-74384972D01*
X168484809Y-74384965D01*
X168339138Y-74324627D01*
X168339126Y-74324624D01*
X168184482Y-74293863D01*
X168184479Y-74293863D01*
X168026795Y-74293863D01*
X168026792Y-74293863D01*
X167872147Y-74324624D01*
X167872135Y-74324627D01*
X167726464Y-74384965D01*
X167726451Y-74384972D01*
X167594764Y-74472964D01*
X167528087Y-74493842D01*
X167525873Y-74493862D01*
X167412365Y-74493862D01*
X167305009Y-74522628D01*
X167259632Y-74534787D01*
X167259631Y-74534788D01*
X167222898Y-74555997D01*
X167222896Y-74555998D01*
X167122712Y-74613838D01*
X167122704Y-74613844D01*
X167032604Y-74703945D01*
X167010902Y-74725647D01*
X167010900Y-74725649D01*
X166710638Y-75025912D01*
X166419942Y-75316608D01*
X166358619Y-75350093D01*
X166332261Y-75352927D01*
X165694513Y-75352927D01*
X165694497Y-75352926D01*
X165686901Y-75352926D01*
X165528786Y-75352926D01*
X165452422Y-75373388D01*
X165376057Y-75393850D01*
X165376056Y-75393851D01*
X165339819Y-75414772D01*
X165271919Y-75431242D01*
X165208933Y-75410486D01*
X165179187Y-75390611D01*
X165179183Y-75390609D01*
X165179179Y-75390606D01*
X165179175Y-75390604D01*
X165179171Y-75390602D01*
X165033501Y-75330264D01*
X165033491Y-75330261D01*
X164900308Y-75303769D01*
X164838397Y-75271384D01*
X164803823Y-75210668D01*
X164800500Y-75182152D01*
X164800500Y-73700096D01*
X164820185Y-73633057D01*
X164836814Y-73612420D01*
X166268713Y-72180521D01*
X166268716Y-72180520D01*
X166380520Y-72068716D01*
X166430639Y-71981904D01*
X166459577Y-71931785D01*
X166500500Y-71779057D01*
X166500500Y-71620943D01*
X166500500Y-71014635D01*
X169999500Y-71014635D01*
X169999500Y-73110370D01*
X169999501Y-73110376D01*
X170005908Y-73169983D01*
X170056202Y-73304828D01*
X170056206Y-73304835D01*
X170142452Y-73420044D01*
X170142455Y-73420047D01*
X170257664Y-73506293D01*
X170257671Y-73506297D01*
X170392517Y-73556591D01*
X170392516Y-73556591D01*
X170399444Y-73557335D01*
X170452127Y-73563000D01*
X171547872Y-73562999D01*
X171607483Y-73556591D01*
X171742331Y-73506296D01*
X171857546Y-73420046D01*
X171943796Y-73304831D01*
X171994091Y-73169983D01*
X172000500Y-73110373D01*
X172000499Y-71014628D01*
X171994091Y-70955017D01*
X171943796Y-70820169D01*
X171943795Y-70820168D01*
X171943793Y-70820164D01*
X171857548Y-70704957D01*
X171857546Y-70704954D01*
X171857542Y-70704951D01*
X171857540Y-70704949D01*
X171850187Y-70699444D01*
X171808317Y-70643509D01*
X171800500Y-70600179D01*
X171800500Y-70496155D01*
X171800499Y-70496153D01*
X171794688Y-70466940D01*
X171769737Y-70341503D01*
X171758759Y-70314999D01*
X171709397Y-70195827D01*
X171709390Y-70195814D01*
X171621789Y-70064711D01*
X171621786Y-70064707D01*
X171510292Y-69953213D01*
X171510288Y-69953210D01*
X171379185Y-69865609D01*
X171379172Y-69865602D01*
X171233501Y-69805264D01*
X171233489Y-69805261D01*
X171078845Y-69774500D01*
X171078842Y-69774500D01*
X170921158Y-69774500D01*
X170921155Y-69774500D01*
X170766510Y-69805261D01*
X170766498Y-69805264D01*
X170620827Y-69865602D01*
X170620814Y-69865609D01*
X170489711Y-69953210D01*
X170489707Y-69953213D01*
X170378213Y-70064707D01*
X170378210Y-70064711D01*
X170290609Y-70195814D01*
X170290602Y-70195827D01*
X170230264Y-70341498D01*
X170230261Y-70341510D01*
X170199500Y-70496153D01*
X170199500Y-70600180D01*
X170179815Y-70667219D01*
X170149813Y-70699445D01*
X170142453Y-70704954D01*
X170142452Y-70704955D01*
X170056206Y-70820164D01*
X170056202Y-70820171D01*
X170005908Y-70955017D01*
X170001877Y-70992517D01*
X169999501Y-71014623D01*
X169999500Y-71014635D01*
X166500500Y-71014635D01*
X166500500Y-65189060D01*
X166500501Y-65189047D01*
X166500501Y-65020944D01*
X166459576Y-64868214D01*
X166459573Y-64868209D01*
X166380524Y-64731290D01*
X166380518Y-64731282D01*
X164909573Y-63260337D01*
X164888177Y-63221153D01*
X168899500Y-63221153D01*
X168899500Y-63378846D01*
X168930261Y-63533489D01*
X168930264Y-63533501D01*
X168990602Y-63679172D01*
X168990609Y-63679185D01*
X169078210Y-63810288D01*
X169078213Y-63810292D01*
X169189707Y-63921786D01*
X169189711Y-63921789D01*
X169320814Y-64009390D01*
X169320827Y-64009397D01*
X169441967Y-64059574D01*
X169466503Y-64069737D01*
X169621153Y-64100499D01*
X169621156Y-64100500D01*
X169621158Y-64100500D01*
X169778844Y-64100500D01*
X169778845Y-64100499D01*
X169933497Y-64069737D01*
X170079179Y-64009394D01*
X170210289Y-63921789D01*
X170321789Y-63810289D01*
X170409394Y-63679179D01*
X170469737Y-63533497D01*
X170500500Y-63378842D01*
X170500500Y-63221158D01*
X170500500Y-63221155D01*
X170484209Y-63139258D01*
X170484209Y-63139257D01*
X170480608Y-63121153D01*
X172949500Y-63121153D01*
X172949500Y-63278846D01*
X172980261Y-63433489D01*
X172980264Y-63433501D01*
X173040602Y-63579172D01*
X173040609Y-63579185D01*
X173128210Y-63710288D01*
X173128213Y-63710292D01*
X173239707Y-63821786D01*
X173239711Y-63821789D01*
X173370814Y-63909390D01*
X173370827Y-63909397D01*
X173468095Y-63949686D01*
X173516503Y-63969737D01*
X173642176Y-63994735D01*
X173671153Y-64000499D01*
X173671156Y-64000500D01*
X173671158Y-64000500D01*
X173828844Y-64000500D01*
X173828845Y-64000499D01*
X173983497Y-63969737D01*
X174129179Y-63909394D01*
X174260289Y-63821789D01*
X174371789Y-63710289D01*
X174459394Y-63579179D01*
X174519737Y-63433497D01*
X174550500Y-63278842D01*
X174550500Y-63121158D01*
X174550500Y-63121155D01*
X174550499Y-63121153D01*
X174534657Y-63041510D01*
X174519737Y-62966503D01*
X174500812Y-62920814D01*
X174459397Y-62820827D01*
X174459390Y-62820814D01*
X174371789Y-62689711D01*
X174371786Y-62689707D01*
X174260292Y-62578213D01*
X174260288Y-62578210D01*
X174129185Y-62490609D01*
X174129172Y-62490602D01*
X173983501Y-62430264D01*
X173983489Y-62430261D01*
X173828845Y-62399500D01*
X173828842Y-62399500D01*
X173671158Y-62399500D01*
X173671155Y-62399500D01*
X173516510Y-62430261D01*
X173516498Y-62430264D01*
X173370827Y-62490602D01*
X173370814Y-62490609D01*
X173239711Y-62578210D01*
X173239707Y-62578213D01*
X173128213Y-62689707D01*
X173128210Y-62689711D01*
X173040609Y-62820814D01*
X173040602Y-62820827D01*
X172980264Y-62966498D01*
X172980261Y-62966510D01*
X172949500Y-63121153D01*
X170480608Y-63121153D01*
X170469738Y-63066510D01*
X170469737Y-63066503D01*
X170438674Y-62991510D01*
X170409397Y-62920827D01*
X170409390Y-62920814D01*
X170321789Y-62789711D01*
X170321786Y-62789707D01*
X170210292Y-62678213D01*
X170210288Y-62678210D01*
X170079185Y-62590609D01*
X170079172Y-62590602D01*
X169933501Y-62530264D01*
X169933489Y-62530261D01*
X169778845Y-62499500D01*
X169778842Y-62499500D01*
X169621158Y-62499500D01*
X169621155Y-62499500D01*
X169466510Y-62530261D01*
X169466498Y-62530264D01*
X169320827Y-62590602D01*
X169320814Y-62590609D01*
X169189711Y-62678210D01*
X169189707Y-62678213D01*
X169078213Y-62789707D01*
X169078210Y-62789711D01*
X168990609Y-62920814D01*
X168990602Y-62920827D01*
X168930264Y-63066498D01*
X168930261Y-63066510D01*
X168899500Y-63221153D01*
X164888177Y-63221153D01*
X164876088Y-63199014D01*
X164875637Y-63196847D01*
X164864182Y-63139258D01*
X164844737Y-63041503D01*
X164844735Y-63041498D01*
X164784397Y-62895827D01*
X164784390Y-62895814D01*
X164696789Y-62764711D01*
X164696786Y-62764707D01*
X164585292Y-62653213D01*
X164585288Y-62653210D01*
X164454185Y-62565609D01*
X164454172Y-62565602D01*
X164308501Y-62505264D01*
X164308489Y-62505261D01*
X164153845Y-62474500D01*
X164153842Y-62474500D01*
X163996158Y-62474500D01*
X163996155Y-62474500D01*
X163841510Y-62505261D01*
X163841498Y-62505264D01*
X163695827Y-62565602D01*
X163695816Y-62565608D01*
X163586727Y-62638499D01*
X163520050Y-62659376D01*
X163452670Y-62640891D01*
X163430156Y-62623077D01*
X163410292Y-62603213D01*
X163410288Y-62603210D01*
X163279185Y-62515609D01*
X163279172Y-62515602D01*
X163133501Y-62455264D01*
X163133489Y-62455261D01*
X162978845Y-62424500D01*
X162978842Y-62424500D01*
X162821158Y-62424500D01*
X162821155Y-62424500D01*
X162666510Y-62455261D01*
X162666498Y-62455264D01*
X162520827Y-62515602D01*
X162520814Y-62515609D01*
X162389711Y-62603210D01*
X162389707Y-62603213D01*
X162278213Y-62714707D01*
X162278210Y-62714711D01*
X162190609Y-62845814D01*
X162190602Y-62845827D01*
X162130264Y-62991498D01*
X162130261Y-62991510D01*
X162099500Y-63146153D01*
X162099500Y-63303846D01*
X162130261Y-63458489D01*
X162130264Y-63458501D01*
X162190602Y-63604172D01*
X162190609Y-63604185D01*
X162278210Y-63735288D01*
X162278213Y-63735292D01*
X162389707Y-63846786D01*
X162389711Y-63846789D01*
X162520814Y-63934390D01*
X162520827Y-63934397D01*
X162666498Y-63994735D01*
X162666503Y-63994737D01*
X162718194Y-64005019D01*
X162821849Y-64025638D01*
X162883760Y-64058023D01*
X162885339Y-64059574D01*
X163315139Y-64489374D01*
X163315149Y-64489385D01*
X163319479Y-64493715D01*
X163319480Y-64493716D01*
X163431284Y-64605520D01*
X163518095Y-64655639D01*
X163518097Y-64655641D01*
X163568213Y-64684576D01*
X163568215Y-64684577D01*
X163720942Y-64725500D01*
X163720943Y-64725500D01*
X164059217Y-64725500D01*
X164126256Y-64745185D01*
X164146898Y-64761819D01*
X164863181Y-65478102D01*
X164896666Y-65539425D01*
X164899500Y-65565783D01*
X164899500Y-71234217D01*
X164879815Y-71301256D01*
X164863181Y-71321898D01*
X164212181Y-71972898D01*
X164150858Y-72006383D01*
X164081166Y-72001399D01*
X164025233Y-71959527D01*
X164000816Y-71894063D01*
X164000500Y-71885217D01*
X164000500Y-68589060D01*
X164000501Y-68589047D01*
X164000501Y-68420944D01*
X164000466Y-68420814D01*
X163959577Y-68268216D01*
X163955988Y-68262000D01*
X163880524Y-68131290D01*
X163880518Y-68131282D01*
X158086819Y-62337583D01*
X158053334Y-62276260D01*
X158050500Y-62249902D01*
X158050500Y-61470943D01*
X158047454Y-61459577D01*
X158047453Y-61459572D01*
X158044127Y-61447159D01*
X158037159Y-61421153D01*
X164699500Y-61421153D01*
X164699500Y-61578846D01*
X164730261Y-61733489D01*
X164730264Y-61733501D01*
X164790602Y-61879172D01*
X164790609Y-61879185D01*
X164878210Y-62010288D01*
X164878213Y-62010292D01*
X164989707Y-62121786D01*
X164989711Y-62121789D01*
X165120814Y-62209390D01*
X165120827Y-62209397D01*
X165266498Y-62269735D01*
X165266503Y-62269737D01*
X165421153Y-62300499D01*
X165421156Y-62300500D01*
X165421158Y-62300500D01*
X165578844Y-62300500D01*
X165578845Y-62300499D01*
X165733497Y-62269737D01*
X165879179Y-62209394D01*
X166010289Y-62121789D01*
X166121789Y-62010289D01*
X166209394Y-61879179D01*
X166269737Y-61733497D01*
X166300500Y-61578842D01*
X166300500Y-61421158D01*
X166300500Y-61421155D01*
X166300499Y-61421153D01*
X166291338Y-61375098D01*
X166269737Y-61266503D01*
X166234441Y-61181290D01*
X166209397Y-61120827D01*
X166209390Y-61120814D01*
X166121789Y-60989711D01*
X166121786Y-60989707D01*
X166010292Y-60878213D01*
X166010288Y-60878210D01*
X165879185Y-60790609D01*
X165879172Y-60790602D01*
X165733501Y-60730264D01*
X165733489Y-60730261D01*
X165578845Y-60699500D01*
X165578842Y-60699500D01*
X165421158Y-60699500D01*
X165421155Y-60699500D01*
X165266510Y-60730261D01*
X165266498Y-60730264D01*
X165120827Y-60790602D01*
X165120814Y-60790609D01*
X164989711Y-60878210D01*
X164989707Y-60878213D01*
X164878213Y-60989707D01*
X164878210Y-60989711D01*
X164790609Y-61120814D01*
X164790602Y-61120827D01*
X164730264Y-61266498D01*
X164730261Y-61266510D01*
X164699500Y-61421153D01*
X158037159Y-61421153D01*
X158022515Y-61366504D01*
X158022515Y-61366502D01*
X158009578Y-61318217D01*
X158009576Y-61318213D01*
X157930524Y-61181290D01*
X157930521Y-61181286D01*
X157930520Y-61181284D01*
X157818716Y-61069480D01*
X157818715Y-61069479D01*
X157814385Y-61065149D01*
X157814374Y-61065139D01*
X157387590Y-60638355D01*
X157387588Y-60638352D01*
X157268717Y-60519481D01*
X157268716Y-60519480D01*
X157158012Y-60455565D01*
X157158010Y-60455564D01*
X157131785Y-60440423D01*
X157131784Y-60440422D01*
X157131783Y-60440422D01*
X157075881Y-60425443D01*
X156979057Y-60399499D01*
X156820943Y-60399499D01*
X156813347Y-60399499D01*
X156813331Y-60399500D01*
X155886669Y-60399500D01*
X155886653Y-60399499D01*
X155879057Y-60399499D01*
X155720943Y-60399499D01*
X155642279Y-60420577D01*
X155610186Y-60424802D01*
X155603655Y-60424802D01*
X155449010Y-60455563D01*
X155448998Y-60455566D01*
X155303327Y-60515904D01*
X155303314Y-60515911D01*
X155172211Y-60603512D01*
X155172207Y-60603515D01*
X155060713Y-60715009D01*
X155060710Y-60715013D01*
X154973109Y-60846116D01*
X154973102Y-60846129D01*
X154912764Y-60991800D01*
X154912761Y-60991812D01*
X154882000Y-61146455D01*
X154882000Y-61304148D01*
X154912761Y-61458791D01*
X154912764Y-61458803D01*
X154973102Y-61604474D01*
X154973109Y-61604487D01*
X155060710Y-61735590D01*
X155060713Y-61735594D01*
X155172207Y-61847088D01*
X155172211Y-61847091D01*
X155303314Y-61934692D01*
X155303327Y-61934699D01*
X155448998Y-61995037D01*
X155449003Y-61995039D01*
X155603653Y-62025801D01*
X155603656Y-62025802D01*
X155755479Y-62025802D01*
X155763095Y-62028038D01*
X155770931Y-62026769D01*
X155796138Y-62037741D01*
X155822518Y-62045487D01*
X155829348Y-62052196D01*
X155834995Y-62054654D01*
X155858578Y-62080907D01*
X155878211Y-62110289D01*
X155878213Y-62110291D01*
X155878602Y-62110873D01*
X155899480Y-62177551D01*
X155899500Y-62179765D01*
X155899500Y-62313330D01*
X155899499Y-62313348D01*
X155899499Y-62479054D01*
X155899498Y-62479054D01*
X155940424Y-62631789D01*
X155940425Y-62631790D01*
X155959843Y-62665422D01*
X155959844Y-62665423D01*
X156019477Y-62768712D01*
X156019481Y-62768717D01*
X156138349Y-62887585D01*
X156138355Y-62887590D01*
X159477424Y-66226659D01*
X159481760Y-66234601D01*
X159489007Y-66240025D01*
X159498245Y-66264790D01*
X159510909Y-66287982D01*
X159510263Y-66297007D01*
X159513427Y-66305488D01*
X159507810Y-66331313D01*
X159505925Y-66357674D01*
X159500108Y-66366724D01*
X159498578Y-66373762D01*
X159477428Y-66402017D01*
X159455439Y-66424008D01*
X159455421Y-66424026D01*
X159452329Y-66427116D01*
X159452330Y-66427117D01*
X159393787Y-66485658D01*
X159301811Y-66623306D01*
X159301807Y-66623314D01*
X159238444Y-66776283D01*
X159238443Y-66776285D01*
X159206144Y-66938662D01*
X159206144Y-66938665D01*
X159206144Y-67104231D01*
X159206144Y-67104233D01*
X159206143Y-67104233D01*
X159238443Y-67266610D01*
X159238444Y-67266612D01*
X159238445Y-67266616D01*
X159301806Y-67419580D01*
X159301807Y-67419581D01*
X159301811Y-67419589D01*
X159393787Y-67557237D01*
X159393788Y-67557238D01*
X159393791Y-67557242D01*
X159452329Y-67615778D01*
X159537167Y-67700616D01*
X159537171Y-67700620D01*
X159595704Y-67759154D01*
X159595708Y-67759158D01*
X159733364Y-67851139D01*
X159733366Y-67851140D01*
X159733369Y-67851142D01*
X159886332Y-67914502D01*
X160048712Y-67946801D01*
X160048716Y-67946802D01*
X160048717Y-67946802D01*
X160214284Y-67946802D01*
X160376663Y-67914501D01*
X160376663Y-67914500D01*
X160376668Y-67914500D01*
X160376670Y-67914498D01*
X160376674Y-67914498D01*
X160469563Y-67876020D01*
X160529630Y-67851139D01*
X160667292Y-67759154D01*
X160725827Y-67700617D01*
X160725828Y-67700617D01*
X160750924Y-67675521D01*
X160812247Y-67642036D01*
X160881939Y-67647020D01*
X160926286Y-67675521D01*
X162353181Y-69102416D01*
X162386666Y-69163739D01*
X162389500Y-69190097D01*
X162389500Y-70475500D01*
X162369815Y-70542539D01*
X162317011Y-70588294D01*
X162265500Y-70599500D01*
X161642129Y-70599500D01*
X161642123Y-70599501D01*
X161574804Y-70606738D01*
X161574690Y-70605674D01*
X161535310Y-70605674D01*
X161535196Y-70606738D01*
X161467883Y-70599501D01*
X161467881Y-70599500D01*
X161467873Y-70599500D01*
X161467864Y-70599500D01*
X160372129Y-70599500D01*
X160372123Y-70599501D01*
X160304804Y-70606738D01*
X160304690Y-70605674D01*
X160265310Y-70605674D01*
X160265196Y-70606738D01*
X160197883Y-70599501D01*
X160197881Y-70599500D01*
X160197873Y-70599500D01*
X160197865Y-70599500D01*
X159282902Y-70599500D01*
X159215863Y-70579815D01*
X159170108Y-70527011D01*
X159161285Y-70499692D01*
X159144738Y-70416508D01*
X159144737Y-70416507D01*
X159144737Y-70416503D01*
X159113674Y-70341510D01*
X159084397Y-70270827D01*
X159084390Y-70270814D01*
X158996789Y-70139711D01*
X158996786Y-70139707D01*
X158885292Y-70028213D01*
X158885288Y-70028210D01*
X158754185Y-69940609D01*
X158754172Y-69940602D01*
X158608501Y-69880264D01*
X158608489Y-69880261D01*
X158453845Y-69849500D01*
X158453842Y-69849500D01*
X158296158Y-69849500D01*
X158296153Y-69849500D01*
X158148691Y-69878832D01*
X158127707Y-69876954D01*
X158106853Y-69879953D01*
X158093605Y-69873903D01*
X158079099Y-69872605D01*
X158062460Y-69859679D01*
X158043297Y-69850928D01*
X158035423Y-69838676D01*
X158023922Y-69829742D01*
X158016912Y-69809873D01*
X158005523Y-69792150D01*
X158001988Y-69767566D01*
X158000678Y-69763852D01*
X158000500Y-69757215D01*
X158000500Y-69624837D01*
X158020185Y-69557798D01*
X158072989Y-69512043D01*
X158076986Y-69510302D01*
X158079179Y-69509394D01*
X158210289Y-69421789D01*
X158321789Y-69310289D01*
X158409394Y-69179179D01*
X158469737Y-69033497D01*
X158500500Y-68878842D01*
X158500500Y-68721158D01*
X158500500Y-68721155D01*
X158500499Y-68721153D01*
X158469738Y-68566510D01*
X158469737Y-68566503D01*
X158469735Y-68566498D01*
X158409397Y-68420827D01*
X158409390Y-68420814D01*
X158321789Y-68289711D01*
X158321786Y-68289707D01*
X158210292Y-68178213D01*
X158210288Y-68178210D01*
X158079185Y-68090609D01*
X158079172Y-68090602D01*
X157933501Y-68030264D01*
X157933489Y-68030261D01*
X157778845Y-67999500D01*
X157778842Y-67999500D01*
X157621158Y-67999500D01*
X157621155Y-67999500D01*
X157466510Y-68030261D01*
X157466498Y-68030264D01*
X157320827Y-68090602D01*
X157320814Y-68090609D01*
X157189711Y-68178210D01*
X157189707Y-68178213D01*
X157078213Y-68289707D01*
X157078210Y-68289711D01*
X156990609Y-68420814D01*
X156990602Y-68420827D01*
X156930264Y-68566498D01*
X156930261Y-68566510D01*
X156899500Y-68721153D01*
X156899500Y-68732665D01*
X156882887Y-68794665D01*
X156840424Y-68868211D01*
X156840423Y-68868215D01*
X156799499Y-69020943D01*
X156799499Y-69020945D01*
X156799499Y-69189046D01*
X156799500Y-69189059D01*
X156799500Y-70399901D01*
X156790855Y-70429341D01*
X156784332Y-70459328D01*
X156780577Y-70464343D01*
X156779815Y-70466940D01*
X156763181Y-70487582D01*
X156741284Y-70509479D01*
X156741283Y-70509481D01*
X156687579Y-70563183D01*
X156626255Y-70596667D01*
X156599902Y-70599500D01*
X156562131Y-70599500D01*
X156562123Y-70599501D01*
X156494804Y-70606738D01*
X156494690Y-70605674D01*
X156455310Y-70605674D01*
X156455196Y-70606738D01*
X156387883Y-70599501D01*
X156387881Y-70599500D01*
X156387873Y-70599500D01*
X156387864Y-70599500D01*
X155292129Y-70599500D01*
X155292125Y-70599501D01*
X155232510Y-70605909D01*
X155232412Y-70605933D01*
X155232294Y-70605933D01*
X155224806Y-70606738D01*
X155224719Y-70605933D01*
X155185226Y-70605935D01*
X155185087Y-70607231D01*
X155117844Y-70600000D01*
X154820000Y-70600000D01*
X154820000Y-73600000D01*
X155117828Y-73600000D01*
X155117841Y-73599999D01*
X155152729Y-73596248D01*
X155172642Y-73599840D01*
X155192830Y-73598478D01*
X155206323Y-73605916D01*
X155221489Y-73608652D01*
X155236299Y-73622440D01*
X155254018Y-73632208D01*
X155265779Y-73649886D01*
X155272627Y-73656262D01*
X155275056Y-73660547D01*
X155279725Y-73669180D01*
X155280423Y-73671785D01*
X155290792Y-73689744D01*
X155291651Y-73691232D01*
X155291663Y-73691254D01*
X155359477Y-73808712D01*
X155359481Y-73808717D01*
X155478349Y-73927585D01*
X155478355Y-73927590D01*
X157974011Y-76423246D01*
X157974021Y-76423257D01*
X157978351Y-76427587D01*
X157978352Y-76427588D01*
X158090156Y-76539392D01*
X158141717Y-76569160D01*
X158176967Y-76589511D01*
X158176968Y-76589512D01*
X158204762Y-76605559D01*
X158230439Y-76625261D01*
X158264388Y-76659210D01*
X158285840Y-76680662D01*
X158416942Y-76768262D01*
X158416955Y-76768269D01*
X158562626Y-76828607D01*
X158562631Y-76828609D01*
X158717281Y-76859371D01*
X158717284Y-76859372D01*
X158717286Y-76859372D01*
X158874972Y-76859372D01*
X158874973Y-76859371D01*
X159029625Y-76828609D01*
X159148946Y-76779185D01*
X159175300Y-76768269D01*
X159175300Y-76768268D01*
X159175307Y-76768266D01*
X159306417Y-76680661D01*
X159417917Y-76569161D01*
X159505522Y-76438051D01*
X159513156Y-76419622D01*
X159525545Y-76389711D01*
X159565865Y-76292369D01*
X159596628Y-76137714D01*
X159596628Y-76028069D01*
X159616313Y-75961030D01*
X159669117Y-75915275D01*
X159738275Y-75905331D01*
X159801831Y-75934356D01*
X159808309Y-75940388D01*
X159815442Y-75947521D01*
X159815446Y-75947524D01*
X159946549Y-76035125D01*
X159946562Y-76035132D01*
X160092233Y-76095470D01*
X160092238Y-76095472D01*
X160246888Y-76126234D01*
X160246891Y-76126235D01*
X160246893Y-76126235D01*
X160404579Y-76126235D01*
X160404580Y-76126234D01*
X160559232Y-76095472D01*
X160704914Y-76035129D01*
X160836024Y-75947524D01*
X160947524Y-75836024D01*
X161035129Y-75704914D01*
X161095472Y-75559232D01*
X161119769Y-75437083D01*
X161127424Y-75398603D01*
X161128733Y-75398863D01*
X161129175Y-75397486D01*
X161128841Y-75390459D01*
X161141959Y-75357693D01*
X161144712Y-75352926D01*
X161199302Y-75258372D01*
X161219577Y-75223255D01*
X161260500Y-75070527D01*
X161260500Y-74912413D01*
X161260500Y-73940098D01*
X161269144Y-73910657D01*
X161275668Y-73880671D01*
X161279422Y-73875655D01*
X161280185Y-73873059D01*
X161296819Y-73852417D01*
X161377819Y-73771417D01*
X161439142Y-73737932D01*
X161508834Y-73742916D01*
X161564767Y-73784788D01*
X161589184Y-73850252D01*
X161589500Y-73859098D01*
X161589500Y-75403330D01*
X161589499Y-75403348D01*
X161589499Y-75569054D01*
X161589498Y-75569054D01*
X161630423Y-75721786D01*
X161630424Y-75721787D01*
X161632629Y-75725606D01*
X161633509Y-75729236D01*
X161633534Y-75729295D01*
X161633524Y-75729298D01*
X161649102Y-75793506D01*
X161628345Y-75856495D01*
X161590611Y-75912969D01*
X161590602Y-75912985D01*
X161530264Y-76058655D01*
X161530261Y-76058667D01*
X161499500Y-76213310D01*
X161499500Y-76371003D01*
X161530261Y-76525646D01*
X161530264Y-76525658D01*
X161590602Y-76671329D01*
X161590609Y-76671342D01*
X161678210Y-76802445D01*
X161678213Y-76802449D01*
X161789707Y-76913943D01*
X161789711Y-76913946D01*
X161920814Y-77001547D01*
X161920827Y-77001554D01*
X162066498Y-77061892D01*
X162066503Y-77061894D01*
X162210495Y-77090536D01*
X162221153Y-77092656D01*
X162221156Y-77092657D01*
X162265500Y-77092657D01*
X162332539Y-77112342D01*
X162378294Y-77165146D01*
X162389500Y-77216657D01*
X162389500Y-78117544D01*
X162389499Y-78117562D01*
X162389499Y-78283268D01*
X162389498Y-78283268D01*
X162430423Y-78436000D01*
X162430424Y-78436001D01*
X162453786Y-78476465D01*
X162509481Y-78572931D01*
X162628349Y-78691799D01*
X162628355Y-78691804D01*
X163926660Y-79990109D01*
X163926670Y-79990120D01*
X163931000Y-79994450D01*
X163931001Y-79994451D01*
X164042805Y-80106255D01*
X164129616Y-80156374D01*
X164129618Y-80156376D01*
X164179734Y-80185311D01*
X164179736Y-80185312D01*
X164332463Y-80226235D01*
X164332464Y-80226235D01*
X167845631Y-80226235D01*
X167912670Y-80245920D01*
X167958425Y-80298724D01*
X167968369Y-80367882D01*
X167939344Y-80431438D01*
X167919261Y-80449155D01*
X167919419Y-80449347D01*
X167914707Y-80453213D01*
X167803213Y-80564707D01*
X167803210Y-80564711D01*
X167715609Y-80695814D01*
X167715602Y-80695827D01*
X167655264Y-80841498D01*
X167655261Y-80841510D01*
X167624500Y-80996153D01*
X167624500Y-81153846D01*
X167655261Y-81308489D01*
X167655264Y-81308501D01*
X167715602Y-81454172D01*
X167715609Y-81454185D01*
X167766444Y-81530264D01*
X167800024Y-81580520D01*
X167803602Y-81585874D01*
X167824480Y-81652551D01*
X167824500Y-81654765D01*
X167824500Y-82158330D01*
X167824499Y-82158348D01*
X167824499Y-82324054D01*
X167824498Y-82324054D01*
X167865423Y-82476785D01*
X167872905Y-82489744D01*
X167944477Y-82613712D01*
X167944479Y-82613715D01*
X167944480Y-82613716D01*
X168056284Y-82725520D01*
X168056285Y-82725521D01*
X168611284Y-83280520D01*
X168611286Y-83280521D01*
X168611290Y-83280524D01*
X168696879Y-83329938D01*
X168748216Y-83359577D01*
X168748223Y-83359579D01*
X168752710Y-83361438D01*
X168807114Y-83405278D01*
X168829180Y-83471572D01*
X168811902Y-83539272D01*
X168760765Y-83586883D01*
X168705259Y-83600000D01*
X152124500Y-83600000D01*
X152057461Y-83580315D01*
X152011706Y-83527511D01*
X152000500Y-83476000D01*
X152000500Y-80849097D01*
X152020185Y-80782058D01*
X152072989Y-80736303D01*
X152142147Y-80726359D01*
X152205703Y-80755384D01*
X152212178Y-80761413D01*
X153031284Y-81580520D01*
X153031286Y-81580521D01*
X153031290Y-81580524D01*
X153156046Y-81652551D01*
X153168216Y-81659577D01*
X153320943Y-81700501D01*
X153320945Y-81700501D01*
X153486654Y-81700501D01*
X153486670Y-81700500D01*
X153820234Y-81700500D01*
X153887273Y-81720185D01*
X153889125Y-81721398D01*
X154020814Y-81809390D01*
X154020827Y-81809397D01*
X154099940Y-81842166D01*
X154166503Y-81869737D01*
X154321153Y-81900499D01*
X154321156Y-81900500D01*
X154321158Y-81900500D01*
X154478844Y-81900500D01*
X154478845Y-81900499D01*
X154633497Y-81869737D01*
X154779179Y-81809394D01*
X154910289Y-81721789D01*
X155021789Y-81610289D01*
X155109394Y-81479179D01*
X155169737Y-81333497D01*
X155200500Y-81178842D01*
X155200500Y-81021158D01*
X155200500Y-81021155D01*
X155200499Y-81021153D01*
X155169738Y-80866510D01*
X155169737Y-80866503D01*
X155145879Y-80808904D01*
X155109397Y-80720827D01*
X155109390Y-80720814D01*
X155021789Y-80589711D01*
X155021786Y-80589707D01*
X154910292Y-80478213D01*
X154910288Y-80478210D01*
X154779185Y-80390609D01*
X154779172Y-80390602D01*
X154633501Y-80330264D01*
X154633489Y-80330261D01*
X154478845Y-80299500D01*
X154478842Y-80299500D01*
X154321158Y-80299500D01*
X154321155Y-80299500D01*
X154166510Y-80330261D01*
X154166498Y-80330264D01*
X154020827Y-80390602D01*
X154020814Y-80390609D01*
X153889125Y-80478602D01*
X153871078Y-80484252D01*
X153855169Y-80494477D01*
X153824207Y-80498928D01*
X153822447Y-80499480D01*
X153820234Y-80499500D01*
X153700098Y-80499500D01*
X153633059Y-80479815D01*
X153612417Y-80463181D01*
X153036819Y-79887583D01*
X153003334Y-79826260D01*
X153000500Y-79799902D01*
X153000500Y-75619808D01*
X153020185Y-75552769D01*
X153072989Y-75507014D01*
X153142147Y-75497070D01*
X153205703Y-75526095D01*
X153212181Y-75532127D01*
X154182984Y-76502930D01*
X154216469Y-76564253D01*
X154216920Y-76566420D01*
X154230261Y-76633489D01*
X154230264Y-76633501D01*
X154290602Y-76779172D01*
X154290609Y-76779185D01*
X154378210Y-76910288D01*
X154378213Y-76910292D01*
X154489707Y-77021786D01*
X154489711Y-77021789D01*
X154620814Y-77109390D01*
X154620827Y-77109397D01*
X154755419Y-77165146D01*
X154766503Y-77169737D01*
X154921153Y-77200499D01*
X154921156Y-77200500D01*
X154921158Y-77200500D01*
X155078844Y-77200500D01*
X155078845Y-77200499D01*
X155233497Y-77169737D01*
X155379179Y-77109394D01*
X155510289Y-77021789D01*
X155621789Y-76910289D01*
X155709394Y-76779179D01*
X155769737Y-76633497D01*
X155800500Y-76478842D01*
X155800500Y-76321158D01*
X155800500Y-76321155D01*
X155800499Y-76321153D01*
X155786246Y-76249500D01*
X155769737Y-76166503D01*
X155757812Y-76137714D01*
X155709397Y-76020827D01*
X155709390Y-76020814D01*
X155621789Y-75889711D01*
X155621786Y-75889707D01*
X155510292Y-75778213D01*
X155510288Y-75778210D01*
X155379185Y-75690609D01*
X155379172Y-75690602D01*
X155233501Y-75630264D01*
X155233489Y-75630261D01*
X155166420Y-75616920D01*
X155104509Y-75584535D01*
X155102930Y-75582984D01*
X153986819Y-74466873D01*
X153953334Y-74405550D01*
X153950500Y-74379192D01*
X153950500Y-73724000D01*
X153970185Y-73656961D01*
X154022989Y-73611206D01*
X154074500Y-73600000D01*
X154320000Y-73600000D01*
X154320000Y-70586017D01*
X154303334Y-70555496D01*
X154300500Y-70529138D01*
X154300500Y-70449499D01*
X154320185Y-70382460D01*
X154372989Y-70336705D01*
X154424500Y-70325499D01*
X155275002Y-70325499D01*
X155275008Y-70325499D01*
X155377797Y-70314999D01*
X155544334Y-70259814D01*
X155693656Y-70167712D01*
X155817712Y-70043656D01*
X155909814Y-69894334D01*
X155964999Y-69727797D01*
X155975500Y-69625009D01*
X155975499Y-68899992D01*
X155964999Y-68797203D01*
X155909814Y-68630666D01*
X155817712Y-68481344D01*
X155693656Y-68357288D01*
X155584089Y-68289707D01*
X155544336Y-68265187D01*
X155544331Y-68265185D01*
X155500787Y-68250756D01*
X155377797Y-68210001D01*
X155377795Y-68210000D01*
X155275010Y-68199500D01*
X153924998Y-68199500D01*
X153924981Y-68199501D01*
X153822203Y-68210000D01*
X153822200Y-68210001D01*
X153684275Y-68255706D01*
X153645271Y-68262000D01*
X153338954Y-68262000D01*
X153148691Y-68299846D01*
X153079100Y-68293619D01*
X153023922Y-68250756D01*
X153000678Y-68184866D01*
X153000500Y-68178229D01*
X153000500Y-66861956D01*
X153020185Y-66794917D01*
X153072989Y-66749162D01*
X153142147Y-66739218D01*
X153205703Y-66768243D01*
X153242206Y-66822952D01*
X153290641Y-66969119D01*
X153290643Y-66969124D01*
X153382684Y-67118345D01*
X153506654Y-67242315D01*
X153655875Y-67334356D01*
X153655880Y-67334358D01*
X153822302Y-67389505D01*
X153822309Y-67389506D01*
X153925019Y-67399999D01*
X154349999Y-67399999D01*
X154850000Y-67399999D01*
X155274972Y-67399999D01*
X155274986Y-67399998D01*
X155377697Y-67389505D01*
X155544119Y-67334358D01*
X155544124Y-67334356D01*
X155693345Y-67242315D01*
X155817315Y-67118345D01*
X155909356Y-66969124D01*
X155909358Y-66969119D01*
X155964505Y-66802697D01*
X155964506Y-66802690D01*
X155974999Y-66699986D01*
X155975000Y-66699973D01*
X155975000Y-66587500D01*
X154850000Y-66587500D01*
X154850000Y-67399999D01*
X154349999Y-67399999D01*
X154350000Y-67399998D01*
X154350000Y-66087500D01*
X154850000Y-66087500D01*
X155974999Y-66087500D01*
X155974999Y-65975028D01*
X155974998Y-65975013D01*
X155964505Y-65872302D01*
X155909358Y-65705880D01*
X155909356Y-65705875D01*
X155817315Y-65556654D01*
X155693345Y-65432684D01*
X155544124Y-65340643D01*
X155544119Y-65340641D01*
X155377697Y-65285494D01*
X155377690Y-65285493D01*
X155274986Y-65275000D01*
X154850000Y-65275000D01*
X154850000Y-66087500D01*
X154350000Y-66087500D01*
X154350000Y-65275000D01*
X153925028Y-65275000D01*
X153925012Y-65275001D01*
X153822302Y-65285494D01*
X153655880Y-65340641D01*
X153655875Y-65340643D01*
X153506654Y-65432684D01*
X153382684Y-65556654D01*
X153290643Y-65705875D01*
X153290641Y-65705880D01*
X153242206Y-65852049D01*
X153233247Y-65864987D01*
X153228815Y-65880084D01*
X153213768Y-65893121D01*
X153202433Y-65909494D01*
X153187902Y-65915535D01*
X153176011Y-65925839D01*
X153156303Y-65928672D01*
X153137917Y-65936317D01*
X153122428Y-65933543D01*
X153106853Y-65935783D01*
X153088740Y-65927511D01*
X153069142Y-65924002D01*
X153057611Y-65913295D01*
X153043297Y-65906758D01*
X153032531Y-65890006D01*
X153017942Y-65876459D01*
X153013540Y-65860454D01*
X153005523Y-65847980D01*
X153000500Y-65813045D01*
X153000500Y-65589059D01*
X153000501Y-65589046D01*
X153000501Y-65420945D01*
X153000501Y-65420943D01*
X152959577Y-65268215D01*
X152908102Y-65179058D01*
X152880520Y-65131284D01*
X152876144Y-65126908D01*
X152868728Y-65114787D01*
X152861263Y-65087116D01*
X152850930Y-65060388D01*
X152850500Y-65050069D01*
X152850500Y-61375098D01*
X152870185Y-61308059D01*
X152886819Y-61287417D01*
X152905520Y-61268716D01*
X152984577Y-61131784D01*
X153020022Y-60999500D01*
X153025500Y-60979058D01*
X153025500Y-60919463D01*
X153026012Y-60913845D01*
X153036867Y-60886384D01*
X153045185Y-60858058D01*
X153050838Y-60851042D01*
X153051698Y-60848868D01*
X153053818Y-60847343D01*
X153061819Y-60837416D01*
X153499736Y-60399499D01*
X154055520Y-59843716D01*
X154134577Y-59706784D01*
X154175501Y-59554057D01*
X154175501Y-59490781D01*
X154195186Y-59423742D01*
X154211816Y-59403104D01*
X154753741Y-58861178D01*
X154815062Y-58827695D01*
X154884753Y-58832679D01*
G37*
%TD.AperFunction*%
%TA.AperFunction,Conductor*%
G36*
X179040666Y-80234516D02*
G01*
X179069522Y-80240142D01*
X179076272Y-80244971D01*
X179079504Y-80245920D01*
X179094562Y-80258054D01*
X179098227Y-80260676D01*
X179099194Y-80261602D01*
X179159213Y-80321621D01*
X179170225Y-80329622D01*
X179176302Y-80335441D01*
X179189684Y-80358736D01*
X179206094Y-80380019D01*
X179206828Y-80388577D01*
X179211107Y-80396025D01*
X179209771Y-80422860D01*
X179212069Y-80449633D01*
X179208060Y-80457229D01*
X179207633Y-80465808D01*
X179192000Y-80487661D01*
X179179459Y-80511426D01*
X179171979Y-80515649D01*
X179166982Y-80522635D01*
X179163432Y-80525314D01*
X179159210Y-80528381D01*
X179028381Y-80659210D01*
X179028381Y-80659211D01*
X179028379Y-80659213D01*
X178983623Y-80720814D01*
X178919622Y-80808903D01*
X178835620Y-80973764D01*
X178835619Y-80973767D01*
X178778445Y-81149734D01*
X178753299Y-81308501D01*
X178749500Y-81332486D01*
X178749500Y-81517514D01*
X178758684Y-81575500D01*
X178778445Y-81700265D01*
X178835619Y-81876232D01*
X178835620Y-81876235D01*
X178892476Y-81987819D01*
X178919622Y-82041096D01*
X179028379Y-82190787D01*
X179159213Y-82321621D01*
X179308904Y-82430378D01*
X179389763Y-82471577D01*
X179473764Y-82514379D01*
X179473767Y-82514380D01*
X179532617Y-82533501D01*
X179649736Y-82571555D01*
X179832486Y-82600500D01*
X179832487Y-82600500D01*
X180017513Y-82600500D01*
X180017514Y-82600500D01*
X180200264Y-82571555D01*
X180376235Y-82514379D01*
X180541096Y-82430378D01*
X180690787Y-82321621D01*
X180787819Y-82224589D01*
X180849142Y-82191104D01*
X180918834Y-82196088D01*
X180974767Y-82237960D01*
X180999184Y-82303424D01*
X180999500Y-82312270D01*
X180999500Y-83476000D01*
X180979815Y-83543039D01*
X180927011Y-83588794D01*
X180875500Y-83600000D01*
X174674743Y-83600000D01*
X174670501Y-83598754D01*
X174666186Y-83599704D01*
X174637281Y-83589000D01*
X174607704Y-83580315D01*
X174604809Y-83576974D01*
X174600665Y-83575440D01*
X174582132Y-83550803D01*
X174561949Y-83527511D01*
X174561320Y-83523137D01*
X174558663Y-83519605D01*
X174556392Y-83488866D01*
X174552005Y-83458353D01*
X174553841Y-83454331D01*
X174553516Y-83449925D01*
X174568222Y-83422840D01*
X174581030Y-83394797D01*
X174585342Y-83391313D01*
X174586857Y-83388524D01*
X174598212Y-83380917D01*
X174615062Y-83367307D01*
X174626618Y-83360961D01*
X174631785Y-83359577D01*
X174681904Y-83330639D01*
X174683103Y-83329946D01*
X174683119Y-83329938D01*
X174705336Y-83317112D01*
X174767334Y-83300500D01*
X176113331Y-83300500D01*
X176113347Y-83300501D01*
X176120943Y-83300501D01*
X176279054Y-83300501D01*
X176279057Y-83300501D01*
X176431785Y-83259577D01*
X176481904Y-83230639D01*
X176568716Y-83180520D01*
X176621450Y-83127785D01*
X176629185Y-83122134D01*
X176653397Y-83113420D01*
X176675983Y-83101088D01*
X176678152Y-83100637D01*
X176678841Y-83100500D01*
X176678842Y-83100500D01*
X176833497Y-83069737D01*
X176979179Y-83009394D01*
X177110289Y-82921789D01*
X177221789Y-82810289D01*
X177309394Y-82679179D01*
X177369737Y-82533497D01*
X177400500Y-82378842D01*
X177400500Y-82221158D01*
X177400500Y-82221155D01*
X177400499Y-82221153D01*
X177389516Y-82165939D01*
X177369737Y-82066503D01*
X177350955Y-82021158D01*
X177309397Y-81920827D01*
X177309390Y-81920814D01*
X177221789Y-81789711D01*
X177221786Y-81789707D01*
X177110292Y-81678213D01*
X177110288Y-81678210D01*
X176979185Y-81590609D01*
X176979172Y-81590602D01*
X176833501Y-81530264D01*
X176833489Y-81530261D01*
X176678845Y-81499500D01*
X176678842Y-81499500D01*
X176521158Y-81499500D01*
X176521155Y-81499500D01*
X176366510Y-81530261D01*
X176366498Y-81530264D01*
X176220827Y-81590602D01*
X176220814Y-81590609D01*
X176089711Y-81678210D01*
X176089707Y-81678213D01*
X175978213Y-81789707D01*
X175978209Y-81789712D01*
X175958763Y-81818814D01*
X175905149Y-81863618D01*
X175835824Y-81872323D01*
X175772797Y-81842166D01*
X175741102Y-81797373D01*
X175709394Y-81720821D01*
X175709390Y-81720814D01*
X175621789Y-81589711D01*
X175621786Y-81589707D01*
X175510292Y-81478213D01*
X175510288Y-81478210D01*
X175379185Y-81390609D01*
X175379172Y-81390602D01*
X175233501Y-81330264D01*
X175233489Y-81330261D01*
X175078845Y-81299500D01*
X175078842Y-81299500D01*
X174921158Y-81299500D01*
X174921155Y-81299500D01*
X174766510Y-81330261D01*
X174766498Y-81330264D01*
X174620827Y-81390602D01*
X174620814Y-81390609D01*
X174489125Y-81478602D01*
X174422447Y-81499480D01*
X174420234Y-81499500D01*
X173800097Y-81499500D01*
X173733058Y-81479815D01*
X173712416Y-81463181D01*
X172862590Y-80613355D01*
X172862588Y-80613352D01*
X172743717Y-80494481D01*
X172743712Y-80494477D01*
X172679876Y-80457622D01*
X172631661Y-80407056D01*
X172618437Y-80338449D01*
X172644405Y-80273584D01*
X172701319Y-80233055D01*
X172741876Y-80226235D01*
X179012465Y-80226235D01*
X179040666Y-80234516D01*
G37*
%TD.AperFunction*%
%TA.AperFunction,Conductor*%
G36*
X172141942Y-81595185D02*
G01*
X172162584Y-81611819D01*
X172538584Y-81987819D01*
X172572069Y-82049142D01*
X172567085Y-82118834D01*
X172525213Y-82174767D01*
X172459749Y-82199184D01*
X172450903Y-82199500D01*
X169280098Y-82199500D01*
X169213059Y-82179815D01*
X169192417Y-82163181D01*
X169061819Y-82032583D01*
X169028334Y-81971260D01*
X169025500Y-81944902D01*
X169025500Y-81735759D01*
X169045185Y-81668720D01*
X169097989Y-81622965D01*
X169167147Y-81613021D01*
X169218391Y-81632657D01*
X169295821Y-81684394D01*
X169295823Y-81684395D01*
X169295827Y-81684397D01*
X169386101Y-81721789D01*
X169441503Y-81744737D01*
X169596153Y-81775499D01*
X169596156Y-81775500D01*
X169596158Y-81775500D01*
X169753844Y-81775500D01*
X169753845Y-81775499D01*
X169908497Y-81744737D01*
X170054179Y-81684394D01*
X170098522Y-81654765D01*
X170185875Y-81596398D01*
X170252553Y-81575520D01*
X170254766Y-81575500D01*
X172074903Y-81575500D01*
X172141942Y-81595185D01*
G37*
%TD.AperFunction*%
%TA.AperFunction,Conductor*%
G36*
X180963208Y-73368379D02*
G01*
X180996674Y-73429713D01*
X180999500Y-73456034D01*
X180999500Y-76537730D01*
X180979815Y-76604769D01*
X180927011Y-76650524D01*
X180857853Y-76660468D01*
X180794297Y-76631443D01*
X180787819Y-76625411D01*
X180690789Y-76528381D01*
X180690787Y-76528379D01*
X180541096Y-76419622D01*
X180519001Y-76408364D01*
X180376235Y-76335620D01*
X180376232Y-76335619D01*
X180200265Y-76278445D01*
X180108889Y-76263972D01*
X180017514Y-76249500D01*
X179832486Y-76249500D01*
X179771569Y-76259148D01*
X179649734Y-76278445D01*
X179473767Y-76335619D01*
X179473764Y-76335620D01*
X179308903Y-76419622D01*
X179241337Y-76468712D01*
X179159213Y-76528379D01*
X179159211Y-76528381D01*
X179159210Y-76528381D01*
X179028381Y-76659210D01*
X179028381Y-76659211D01*
X179028379Y-76659213D01*
X178998367Y-76700521D01*
X178919622Y-76808903D01*
X178835620Y-76973764D01*
X178835619Y-76973767D01*
X178778445Y-77149734D01*
X178749500Y-77332486D01*
X178749500Y-77517514D01*
X178749499Y-77517514D01*
X178771576Y-77656901D01*
X178762621Y-77726194D01*
X178736784Y-77763979D01*
X177911849Y-78588916D01*
X177850526Y-78622401D01*
X177824168Y-78625235D01*
X172856077Y-78625235D01*
X172837593Y-78619807D01*
X172818337Y-78619352D01*
X172804762Y-78610167D01*
X172789038Y-78605550D01*
X172776425Y-78590994D01*
X172760469Y-78580198D01*
X172754014Y-78565130D01*
X172743283Y-78552746D01*
X172740541Y-78533680D01*
X172732956Y-78515973D01*
X172735671Y-78499810D01*
X172733339Y-78483588D01*
X172741341Y-78466065D01*
X172744533Y-78447069D01*
X172755555Y-78434940D01*
X172762364Y-78420032D01*
X172778569Y-78409617D01*
X172791524Y-78395363D01*
X172819188Y-78383513D01*
X172821142Y-78382258D01*
X172823967Y-78381465D01*
X172823976Y-78381462D01*
X172823980Y-78381461D01*
X172828603Y-78380222D01*
X172834783Y-78378566D01*
X172905658Y-78359576D01*
X172905662Y-78359573D01*
X172905664Y-78359573D01*
X172947150Y-78335621D01*
X172979207Y-78317112D01*
X173041207Y-78300500D01*
X173391517Y-78300500D01*
X173391533Y-78300501D01*
X173399129Y-78300501D01*
X173557240Y-78300501D01*
X173557243Y-78300501D01*
X173709971Y-78259577D01*
X173776514Y-78221158D01*
X173846902Y-78180520D01*
X173958706Y-78068716D01*
X173958706Y-78068714D01*
X173968910Y-78058511D01*
X173968913Y-78058506D01*
X177001510Y-75025912D01*
X177062833Y-74992427D01*
X177089191Y-74989593D01*
X177406738Y-74989593D01*
X177406754Y-74989594D01*
X177414350Y-74989594D01*
X177572461Y-74989594D01*
X177572464Y-74989594D01*
X177725192Y-74948670D01*
X177775311Y-74919732D01*
X177862123Y-74869613D01*
X177973927Y-74757809D01*
X177973927Y-74757807D01*
X177984135Y-74747600D01*
X177984137Y-74747597D01*
X178988713Y-73743021D01*
X178988716Y-73743020D01*
X179032341Y-73699394D01*
X179084531Y-73670898D01*
X179093658Y-73665914D01*
X179093659Y-73665914D01*
X179093661Y-73665913D01*
X179137552Y-73669053D01*
X179163349Y-73670898D01*
X179163350Y-73670898D01*
X179163353Y-73670899D01*
X179201420Y-73699397D01*
X179219283Y-73712769D01*
X179219285Y-73712771D01*
X179219286Y-73712775D01*
X179234578Y-73739626D01*
X179240606Y-73754179D01*
X179240609Y-73754185D01*
X179328210Y-73885288D01*
X179328213Y-73885292D01*
X179439707Y-73996786D01*
X179439711Y-73996789D01*
X179570814Y-74084390D01*
X179570827Y-74084397D01*
X179661101Y-74121789D01*
X179716503Y-74144737D01*
X179871153Y-74175499D01*
X179871156Y-74175500D01*
X179871158Y-74175500D01*
X180028844Y-74175500D01*
X180028845Y-74175499D01*
X180183497Y-74144737D01*
X180329179Y-74084394D01*
X180460289Y-73996789D01*
X180571789Y-73885289D01*
X180659394Y-73754179D01*
X180719737Y-73608497D01*
X180750500Y-73453842D01*
X180750500Y-73453835D01*
X180751097Y-73447782D01*
X180753252Y-73447994D01*
X180756743Y-73436106D01*
X180758331Y-73414000D01*
X180768930Y-73394602D01*
X180770185Y-73390330D01*
X180775227Y-73383068D01*
X180776258Y-73381690D01*
X180832202Y-73339839D01*
X180901895Y-73334876D01*
X180963208Y-73368379D01*
G37*
%TD.AperFunction*%
%TA.AperFunction,Conductor*%
G36*
X162242198Y-51188463D02*
G01*
X162266178Y-51188463D01*
X162357606Y-51200500D01*
X162357613Y-51200500D01*
X162642387Y-51200500D01*
X162642394Y-51200500D01*
X162733822Y-51188463D01*
X162766178Y-51188463D01*
X162857606Y-51200500D01*
X162857613Y-51200500D01*
X163142387Y-51200500D01*
X163142394Y-51200500D01*
X163233822Y-51188463D01*
X163266178Y-51188463D01*
X163357606Y-51200500D01*
X163357613Y-51200500D01*
X163642387Y-51200500D01*
X163642394Y-51200500D01*
X163733822Y-51188463D01*
X163766178Y-51188463D01*
X163857606Y-51200500D01*
X163857613Y-51200500D01*
X164142387Y-51200500D01*
X164142394Y-51200500D01*
X164233822Y-51188463D01*
X164266178Y-51188463D01*
X164357606Y-51200500D01*
X164357613Y-51200500D01*
X164642387Y-51200500D01*
X164642394Y-51200500D01*
X164733822Y-51188463D01*
X164766178Y-51188463D01*
X164857606Y-51200500D01*
X164857613Y-51200500D01*
X165142387Y-51200500D01*
X165142394Y-51200500D01*
X165233822Y-51188463D01*
X165266178Y-51188463D01*
X165357606Y-51200500D01*
X165357613Y-51200500D01*
X165642387Y-51200500D01*
X165642394Y-51200500D01*
X165733822Y-51188463D01*
X165766178Y-51188463D01*
X165857606Y-51200500D01*
X165857613Y-51200500D01*
X166142387Y-51200500D01*
X166142394Y-51200500D01*
X166233822Y-51188463D01*
X166266178Y-51188463D01*
X166357606Y-51200500D01*
X166357613Y-51200500D01*
X166642387Y-51200500D01*
X166642394Y-51200500D01*
X166733822Y-51188463D01*
X166766178Y-51188463D01*
X166857606Y-51200500D01*
X166857613Y-51200500D01*
X167142387Y-51200500D01*
X167142394Y-51200500D01*
X167233822Y-51188463D01*
X167266178Y-51188463D01*
X167357606Y-51200500D01*
X167357613Y-51200500D01*
X167642387Y-51200500D01*
X167642394Y-51200500D01*
X167733822Y-51188463D01*
X167766178Y-51188463D01*
X167857606Y-51200500D01*
X167857613Y-51200500D01*
X168142387Y-51200500D01*
X168142394Y-51200500D01*
X168233822Y-51188463D01*
X168266178Y-51188463D01*
X168357606Y-51200500D01*
X168357613Y-51200500D01*
X168642387Y-51200500D01*
X168642394Y-51200500D01*
X168733822Y-51188463D01*
X168766178Y-51188463D01*
X168857606Y-51200500D01*
X168857613Y-51200500D01*
X169142387Y-51200500D01*
X169142394Y-51200500D01*
X169233822Y-51188463D01*
X169266178Y-51188463D01*
X169357606Y-51200500D01*
X169357613Y-51200500D01*
X169642387Y-51200500D01*
X169642394Y-51200500D01*
X169733822Y-51188463D01*
X169766178Y-51188463D01*
X169857606Y-51200500D01*
X169857613Y-51200500D01*
X170142387Y-51200500D01*
X170142394Y-51200500D01*
X170233822Y-51188463D01*
X170266178Y-51188463D01*
X170357606Y-51200500D01*
X170357613Y-51200500D01*
X170642387Y-51200500D01*
X170642394Y-51200500D01*
X170733822Y-51188463D01*
X170766178Y-51188463D01*
X170857606Y-51200500D01*
X170857613Y-51200500D01*
X171142387Y-51200500D01*
X171142394Y-51200500D01*
X171233822Y-51188463D01*
X171266178Y-51188463D01*
X171357606Y-51200500D01*
X171357613Y-51200500D01*
X171642387Y-51200500D01*
X171642394Y-51200500D01*
X171733822Y-51188463D01*
X171766178Y-51188463D01*
X171857606Y-51200500D01*
X171857613Y-51200500D01*
X172142387Y-51200500D01*
X172142394Y-51200500D01*
X172233822Y-51188463D01*
X172266178Y-51188463D01*
X172357606Y-51200500D01*
X172357613Y-51200500D01*
X172642387Y-51200500D01*
X172642394Y-51200500D01*
X172733822Y-51188463D01*
X172766178Y-51188463D01*
X172857606Y-51200500D01*
X172857613Y-51200500D01*
X173142387Y-51200500D01*
X173142394Y-51200500D01*
X173233822Y-51188463D01*
X173266178Y-51188463D01*
X173357606Y-51200500D01*
X173357613Y-51200500D01*
X173642387Y-51200500D01*
X173642394Y-51200500D01*
X173733822Y-51188463D01*
X173766178Y-51188463D01*
X173857606Y-51200500D01*
X173857613Y-51200500D01*
X174039525Y-51200500D01*
X174106564Y-51220185D01*
X174152319Y-51272989D01*
X174162263Y-51342147D01*
X174151671Y-51374445D01*
X174152557Y-51374812D01*
X174089884Y-51526118D01*
X174089881Y-51526130D01*
X174059120Y-51680773D01*
X174059120Y-51838466D01*
X174089881Y-51993109D01*
X174089884Y-51993121D01*
X174150222Y-52138792D01*
X174150229Y-52138805D01*
X174237830Y-52269908D01*
X174237833Y-52269912D01*
X174349327Y-52381406D01*
X174349331Y-52381409D01*
X174480434Y-52469010D01*
X174480447Y-52469017D01*
X174610027Y-52522690D01*
X174626123Y-52529357D01*
X174780773Y-52560119D01*
X174780776Y-52560120D01*
X174780778Y-52560120D01*
X174938464Y-52560120D01*
X174938465Y-52560119D01*
X175093117Y-52529357D01*
X175211856Y-52480173D01*
X175281325Y-52472705D01*
X175283500Y-52473118D01*
X175421155Y-52500500D01*
X175421158Y-52500500D01*
X175578844Y-52500500D01*
X175578845Y-52500499D01*
X175733497Y-52469737D01*
X175846166Y-52423067D01*
X175879172Y-52409397D01*
X175879172Y-52409396D01*
X175879179Y-52409394D01*
X176001411Y-52327720D01*
X176068088Y-52306843D01*
X176135468Y-52325327D01*
X176165292Y-52351118D01*
X176214836Y-52410163D01*
X176348942Y-52522690D01*
X176348943Y-52522691D01*
X176348945Y-52522692D01*
X176500555Y-52610224D01*
X176665062Y-52670100D01*
X176837466Y-52700500D01*
X176859108Y-52700500D01*
X178052683Y-52700500D01*
X178119722Y-52720185D01*
X178165477Y-52772989D01*
X178175421Y-52842147D01*
X178146396Y-52905703D01*
X178121574Y-52927602D01*
X177989711Y-53015710D01*
X177989707Y-53015713D01*
X177878213Y-53127207D01*
X177878210Y-53127211D01*
X177790609Y-53258314D01*
X177790602Y-53258327D01*
X177730264Y-53403998D01*
X177730261Y-53404010D01*
X177699500Y-53558653D01*
X177699500Y-53716346D01*
X177730261Y-53870989D01*
X177730264Y-53871001D01*
X177790602Y-54016672D01*
X177790609Y-54016685D01*
X177878210Y-54147788D01*
X177878213Y-54147792D01*
X177989707Y-54259286D01*
X177989711Y-54259289D01*
X178120814Y-54346890D01*
X178120827Y-54346897D01*
X178249265Y-54400097D01*
X178266503Y-54407237D01*
X178421153Y-54437999D01*
X178421156Y-54438000D01*
X178421158Y-54438000D01*
X178578844Y-54438000D01*
X178578845Y-54437999D01*
X178733497Y-54407237D01*
X178846166Y-54360567D01*
X178879172Y-54346897D01*
X178879172Y-54346896D01*
X178879179Y-54346894D01*
X179010289Y-54259289D01*
X179121789Y-54147789D01*
X179209394Y-54016679D01*
X179269737Y-53870997D01*
X179300500Y-53716342D01*
X179300500Y-53558658D01*
X179300500Y-53558655D01*
X179300499Y-53558653D01*
X179269738Y-53404010D01*
X179269737Y-53404003D01*
X179269735Y-53403998D01*
X179209397Y-53258327D01*
X179209390Y-53258314D01*
X179121789Y-53127211D01*
X179121786Y-53127207D01*
X179010292Y-53015713D01*
X179010288Y-53015710D01*
X178878426Y-52927602D01*
X178833621Y-52873990D01*
X178824914Y-52804665D01*
X178855069Y-52741637D01*
X178914512Y-52704918D01*
X178947317Y-52700500D01*
X180875500Y-52700500D01*
X180942539Y-52720185D01*
X180988294Y-52772989D01*
X180999500Y-52824500D01*
X180999500Y-60087730D01*
X180979815Y-60154769D01*
X180927011Y-60200524D01*
X180857853Y-60210468D01*
X180794297Y-60181443D01*
X180787819Y-60175411D01*
X180765789Y-60153381D01*
X180765787Y-60153379D01*
X180616096Y-60044622D01*
X180451235Y-59960620D01*
X180451232Y-59960619D01*
X180275265Y-59903445D01*
X180183889Y-59888972D01*
X180092514Y-59874500D01*
X179907486Y-59874500D01*
X179855676Y-59882705D01*
X179755949Y-59898501D01*
X179686655Y-59889546D01*
X179674551Y-59883415D01*
X179605788Y-59843715D01*
X179585077Y-59831757D01*
X179556785Y-59815423D01*
X179404057Y-59774499D01*
X179245943Y-59774499D01*
X179238347Y-59774499D01*
X179238331Y-59774500D01*
X176274097Y-59774500D01*
X176207058Y-59754815D01*
X176161303Y-59702011D01*
X176151359Y-59632853D01*
X176180384Y-59569297D01*
X176186416Y-59562819D01*
X176739845Y-59009390D01*
X177314662Y-58434572D01*
X177375983Y-58401089D01*
X177378150Y-58400638D01*
X177436085Y-58389113D01*
X177533497Y-58369737D01*
X177679179Y-58309394D01*
X177810289Y-58221789D01*
X177921789Y-58110289D01*
X178009394Y-57979179D01*
X178069737Y-57833497D01*
X178100500Y-57678842D01*
X178100500Y-57521158D01*
X178100500Y-57521155D01*
X178100499Y-57521153D01*
X178080275Y-57419480D01*
X178069737Y-57366503D01*
X178069735Y-57366498D01*
X178009397Y-57220827D01*
X178009390Y-57220814D01*
X177921789Y-57089711D01*
X177921786Y-57089707D01*
X177810292Y-56978213D01*
X177810288Y-56978210D01*
X177679185Y-56890609D01*
X177679172Y-56890602D01*
X177533501Y-56830264D01*
X177533489Y-56830261D01*
X177378845Y-56799500D01*
X177378842Y-56799500D01*
X177221158Y-56799500D01*
X177221155Y-56799500D01*
X177066510Y-56830261D01*
X177066498Y-56830264D01*
X176920827Y-56890602D01*
X176920814Y-56890609D01*
X176789711Y-56978210D01*
X176789707Y-56978213D01*
X176678213Y-57089707D01*
X176678210Y-57089711D01*
X176590609Y-57220814D01*
X176590602Y-57220827D01*
X176530264Y-57366498D01*
X176530261Y-57366508D01*
X176499361Y-57521850D01*
X176466976Y-57583761D01*
X176465425Y-57585339D01*
X175012181Y-59038584D01*
X174950858Y-59072069D01*
X174881166Y-59067085D01*
X174825233Y-59025213D01*
X174800816Y-58959749D01*
X174800500Y-58950903D01*
X174800500Y-58821155D01*
X174800499Y-58821153D01*
X174778422Y-58710166D01*
X174769737Y-58666503D01*
X174716021Y-58536819D01*
X174709397Y-58520827D01*
X174709390Y-58520814D01*
X174621789Y-58389711D01*
X174621786Y-58389707D01*
X174510292Y-58278213D01*
X174510288Y-58278210D01*
X174379185Y-58190609D01*
X174379172Y-58190602D01*
X174233501Y-58130264D01*
X174233491Y-58130261D01*
X174078151Y-58099362D01*
X174016241Y-58066977D01*
X174014662Y-58065426D01*
X173487590Y-57538355D01*
X173487588Y-57538352D01*
X173368717Y-57419481D01*
X173368716Y-57419480D01*
X173276956Y-57366503D01*
X173276955Y-57366502D01*
X173231783Y-57340422D01*
X173175881Y-57325443D01*
X173079057Y-57299499D01*
X172920943Y-57299499D01*
X172913347Y-57299499D01*
X172913331Y-57299500D01*
X170100097Y-57299500D01*
X170033058Y-57279815D01*
X170012416Y-57263181D01*
X169587590Y-56838355D01*
X169587588Y-56838352D01*
X169468717Y-56719481D01*
X169468716Y-56719480D01*
X169376956Y-56666503D01*
X169376955Y-56666502D01*
X169331783Y-56640422D01*
X169275881Y-56625443D01*
X169179057Y-56599499D01*
X169020943Y-56599499D01*
X169013347Y-56599499D01*
X169013331Y-56599500D01*
X165479057Y-56599500D01*
X165320942Y-56599500D01*
X165312527Y-56601754D01*
X165300996Y-56604844D01*
X165300989Y-56604846D01*
X165294606Y-56606557D01*
X165168216Y-56640423D01*
X165086310Y-56687711D01*
X165077318Y-56691182D01*
X165057606Y-56692817D01*
X165032666Y-56699500D01*
X157324500Y-56699500D01*
X157257461Y-56679815D01*
X157211706Y-56627011D01*
X157200500Y-56575500D01*
X157200500Y-56538655D01*
X157200499Y-56538653D01*
X157182554Y-56448438D01*
X157169737Y-56384003D01*
X157169735Y-56383998D01*
X157109397Y-56238327D01*
X157109390Y-56238314D01*
X157021789Y-56107211D01*
X157021786Y-56107207D01*
X156910292Y-55995713D01*
X156910288Y-55995710D01*
X156779185Y-55908109D01*
X156779172Y-55908102D01*
X156633501Y-55847764D01*
X156633489Y-55847761D01*
X156478845Y-55817000D01*
X156478842Y-55817000D01*
X156321158Y-55817000D01*
X156321155Y-55817000D01*
X156166510Y-55847761D01*
X156166498Y-55847764D01*
X156020827Y-55908102D01*
X156020814Y-55908109D01*
X155889711Y-55995710D01*
X155889707Y-55995713D01*
X155778213Y-56107207D01*
X155778210Y-56107211D01*
X155690609Y-56238314D01*
X155690602Y-56238327D01*
X155630264Y-56383998D01*
X155630261Y-56384010D01*
X155599500Y-56538653D01*
X155599500Y-56575500D01*
X155579815Y-56642539D01*
X155527011Y-56688294D01*
X155475500Y-56699500D01*
X154986670Y-56699500D01*
X154986654Y-56699499D01*
X154979058Y-56699499D01*
X154820943Y-56699499D01*
X154820942Y-56699499D01*
X154756594Y-56716741D01*
X154731600Y-56716145D01*
X154706855Y-56719704D01*
X154697274Y-56715328D01*
X154686744Y-56715078D01*
X154666038Y-56701063D01*
X154643299Y-56690679D01*
X154637604Y-56681818D01*
X154628882Y-56675915D01*
X154619041Y-56652934D01*
X154605524Y-56631902D01*
X154603244Y-56616044D01*
X154601378Y-56611687D01*
X154600501Y-56596967D01*
X154600501Y-56538653D01*
X154600501Y-56448442D01*
X154600500Y-56448438D01*
X154600500Y-54400097D01*
X154620185Y-54333058D01*
X154636819Y-54312416D01*
X154812416Y-54136819D01*
X154873739Y-54103334D01*
X154900097Y-54100500D01*
X156379016Y-54100500D01*
X156379032Y-54100501D01*
X156386628Y-54100501D01*
X156544739Y-54100501D01*
X156544742Y-54100501D01*
X156697470Y-54059577D01*
X156747589Y-54030639D01*
X156834401Y-53980520D01*
X156946205Y-53868716D01*
X156946205Y-53868714D01*
X156956413Y-53858507D01*
X156956414Y-53858504D01*
X157256265Y-53558653D01*
X175299500Y-53558653D01*
X175299500Y-53716346D01*
X175330261Y-53870989D01*
X175330264Y-53871001D01*
X175390602Y-54016672D01*
X175390609Y-54016685D01*
X175478210Y-54147788D01*
X175478213Y-54147792D01*
X175589707Y-54259286D01*
X175589711Y-54259289D01*
X175720814Y-54346890D01*
X175720827Y-54346897D01*
X175849265Y-54400097D01*
X175866503Y-54407237D01*
X176021153Y-54437999D01*
X176021156Y-54438000D01*
X176021158Y-54438000D01*
X176178844Y-54438000D01*
X176178845Y-54437999D01*
X176333497Y-54407237D01*
X176446166Y-54360567D01*
X176479172Y-54346897D01*
X176479172Y-54346896D01*
X176479179Y-54346894D01*
X176610289Y-54259289D01*
X176721789Y-54147789D01*
X176809394Y-54016679D01*
X176869737Y-53870997D01*
X176900500Y-53716342D01*
X176900500Y-53558658D01*
X176900500Y-53558655D01*
X176900499Y-53558653D01*
X176869738Y-53404010D01*
X176869737Y-53404003D01*
X176869735Y-53403998D01*
X176809397Y-53258327D01*
X176809390Y-53258314D01*
X176721789Y-53127211D01*
X176721786Y-53127207D01*
X176610292Y-53015713D01*
X176610288Y-53015710D01*
X176479185Y-52928109D01*
X176479172Y-52928102D01*
X176333501Y-52867764D01*
X176333489Y-52867761D01*
X176178845Y-52837000D01*
X176178842Y-52837000D01*
X176021158Y-52837000D01*
X176021155Y-52837000D01*
X175866510Y-52867761D01*
X175866498Y-52867764D01*
X175720827Y-52928102D01*
X175720814Y-52928109D01*
X175589711Y-53015710D01*
X175589707Y-53015713D01*
X175478213Y-53127207D01*
X175478210Y-53127211D01*
X175390609Y-53258314D01*
X175390602Y-53258327D01*
X175330264Y-53403998D01*
X175330261Y-53404010D01*
X175299500Y-53558653D01*
X157256265Y-53558653D01*
X159358505Y-51456414D01*
X159358511Y-51456410D01*
X159368714Y-51446206D01*
X159368716Y-51446206D01*
X159480520Y-51334402D01*
X159522032Y-51262499D01*
X159530155Y-51254754D01*
X159534689Y-51244486D01*
X159554989Y-51231074D01*
X159572598Y-51214285D01*
X159585135Y-51211159D01*
X159592986Y-51205973D01*
X159625581Y-51201076D01*
X159627854Y-51200510D01*
X159628647Y-51200500D01*
X159642394Y-51200500D01*
X159643851Y-51200308D01*
X159648935Y-51200244D01*
X159679535Y-51208811D01*
X159710553Y-51215746D01*
X159712943Y-51218164D01*
X159716218Y-51219081D01*
X159737329Y-51242833D01*
X159759673Y-51265436D01*
X159760565Y-51268975D01*
X159762635Y-51271304D01*
X159765067Y-51286829D01*
X159774500Y-51324234D01*
X159774500Y-51634107D01*
X159774500Y-51634108D01*
X159774500Y-51700000D01*
X159774500Y-51801976D01*
X159811976Y-52002456D01*
X159848814Y-52097546D01*
X159885651Y-52192635D01*
X159885655Y-52192642D01*
X159993017Y-52366039D01*
X159993019Y-52366041D01*
X160130418Y-52516762D01*
X160147097Y-52529357D01*
X160293179Y-52639673D01*
X160354285Y-52670100D01*
X160475739Y-52730577D01*
X160475743Y-52730578D01*
X160475750Y-52730582D01*
X160671917Y-52786397D01*
X160874999Y-52805215D01*
X160875000Y-52805215D01*
X160875001Y-52805215D01*
X160976541Y-52795806D01*
X161078083Y-52786397D01*
X161274250Y-52730582D01*
X161456821Y-52639673D01*
X161619579Y-52516764D01*
X161634407Y-52500499D01*
X161652935Y-52480174D01*
X161756981Y-52366041D01*
X161864348Y-52192637D01*
X161938024Y-52002456D01*
X161975500Y-51801976D01*
X161975500Y-51700000D01*
X161975500Y-51634108D01*
X161975500Y-51634107D01*
X161975500Y-51324500D01*
X161976511Y-51321056D01*
X161975694Y-51317561D01*
X161986284Y-51287771D01*
X161995185Y-51257461D01*
X161997895Y-51255111D01*
X161999099Y-51251728D01*
X162024115Y-51232392D01*
X162047989Y-51211706D01*
X162052375Y-51210550D01*
X162054381Y-51209000D01*
X162067992Y-51206435D01*
X162088749Y-51200967D01*
X162094115Y-51200500D01*
X162142394Y-51200500D01*
X162236547Y-51188104D01*
X162239249Y-51187869D01*
X162242198Y-51188463D01*
G37*
%TD.AperFunction*%
%TA.AperFunction,Conductor*%
G36*
X153617941Y-52720185D02*
G01*
X153663696Y-52772989D01*
X153673640Y-52842147D01*
X153644615Y-52905703D01*
X153638583Y-52912181D01*
X152546981Y-54003782D01*
X152546979Y-54003785D01*
X152496861Y-54090594D01*
X152496859Y-54090596D01*
X152467925Y-54140709D01*
X152467924Y-54140710D01*
X152452044Y-54199972D01*
X152426999Y-54293443D01*
X152426999Y-54293445D01*
X152426999Y-54461546D01*
X152427000Y-54461559D01*
X152427000Y-57061859D01*
X152426999Y-57061877D01*
X152426999Y-57227583D01*
X152426998Y-57227583D01*
X152426999Y-57227586D01*
X152467923Y-57380314D01*
X152489806Y-57418216D01*
X152546979Y-57517243D01*
X152546981Y-57517246D01*
X152665849Y-57636114D01*
X152665855Y-57636119D01*
X153044110Y-58014374D01*
X153044120Y-58014385D01*
X153048450Y-58018715D01*
X153048451Y-58018716D01*
X153160255Y-58130520D01*
X153239835Y-58176465D01*
X153297186Y-58209577D01*
X153418764Y-58242153D01*
X153424485Y-58244310D01*
X153447684Y-58261803D01*
X153472500Y-58276929D01*
X153475249Y-58282588D01*
X153480272Y-58286376D01*
X153490331Y-58313635D01*
X153503030Y-58339776D01*
X153502283Y-58346023D01*
X153504461Y-58351925D01*
X153498186Y-58380293D01*
X153494736Y-58409152D01*
X153490378Y-58415589D01*
X153489371Y-58420146D01*
X153483038Y-58426434D01*
X153468428Y-58448021D01*
X153206286Y-58710164D01*
X153094481Y-58821968D01*
X153094479Y-58821970D01*
X153088297Y-58832679D01*
X153064153Y-58874499D01*
X153015423Y-58958901D01*
X152974499Y-59111629D01*
X152974499Y-59111631D01*
X152974499Y-59174903D01*
X152954814Y-59241942D01*
X152938180Y-59262584D01*
X152212181Y-59988583D01*
X152150858Y-60022068D01*
X152081166Y-60017084D01*
X152025233Y-59975212D01*
X152000816Y-59909748D01*
X152000500Y-59900902D01*
X152000500Y-52824500D01*
X152020185Y-52757461D01*
X152072989Y-52711706D01*
X152124500Y-52700500D01*
X153550902Y-52700500D01*
X153617941Y-52720185D01*
G37*
%TD.AperFunction*%
%TD*%
M02*
