%TF.GenerationSoftware,KiCad,Pcbnew,10.0.4*%
%TF.CreationDate,2026-08-22T17:59:32+02:00*%
%TF.ProjectId,dongle,646f6e67-6c65-42e6-9b69-6361645f7063,rev?*%
%TF.SameCoordinates,Original*%
%TF.FileFunction,Copper,L3,Inr*%
%TF.FilePolarity,Positive*%
%FSLAX46Y46*%
G04 Gerber Fmt 4.6, Leading zero omitted, Abs format (unit mm)*
G04 Created by KiCad (PCBNEW 10.0.4) date 2026-08-22 17:59:32*
%MOMM*%
%LPD*%
G01*
G04 APERTURE LIST*
%TA.AperFunction,ComponentPad*%
%ADD10C,1.350000*%
%TD*%
%TA.AperFunction,ComponentPad*%
%ADD11R,1.350000X1.350000*%
%TD*%
%TA.AperFunction,ViaPad*%
%ADD12C,0.600000*%
%TD*%
G04 APERTURE END LIST*
D10*
%TO.N,+3.3V*%
%TO.C,J1*%
X180000000Y-65050000D03*
%TO.N,/D+_EXTEND2*%
X180000000Y-63050000D03*
%TO.N,/D-_EXTEND2*%
X180000000Y-61050000D03*
D11*
%TO.N,GND*%
X180000000Y-59050000D03*
%TD*%
D10*
%TO.N,+3.3V*%
%TO.C,J3*%
X179925000Y-81425000D03*
%TO.N,/D+_EXTEND1*%
X179925000Y-79425000D03*
%TO.N,/D-_EXTEND1*%
X179925000Y-77425000D03*
D11*
%TO.N,GND*%
X179925000Y-75425000D03*
%TD*%
D12*
%TO.N,GND*%
X164400000Y-69800000D03*
X160600000Y-70500000D03*
%TO.N,+3.3V*%
X156400000Y-56617500D03*
X155000000Y-76400000D03*
X171000000Y-70575000D03*
X178500000Y-53637500D03*
X176100000Y-53637500D03*
%TO.N,GND*%
X163800000Y-51600000D03*
%TO.N,/D+_EXTEND1*%
X156500000Y-61600000D03*
%TO.N,GND*%
X180700000Y-82700000D03*
%TO.N,/IO0*%
X154400000Y-81100000D03*
%TO.N,GND*%
X176100000Y-56562500D03*
%TO.N,/IRQ_2*%
X176600000Y-82300000D03*
%TO.N,GND*%
X172200000Y-74100000D03*
%TO.N,/MISO*%
X167800000Y-77900000D03*
%TO.N,GND*%
X160200000Y-60500000D03*
%TO.N,/MOSI*%
X168144773Y-77178103D03*
%TO.N,GND*%
X170300000Y-57300000D03*
%TO.N,/IRQ_2*%
X168425000Y-81075000D03*
%TO.N,/TX*%
X165300000Y-78193800D03*
%TO.N,GND*%
X165200000Y-51700000D03*
%TO.N,/MOSI*%
X159650000Y-73500000D03*
%TO.N,GND*%
X152900000Y-63800000D03*
X171925000Y-82025000D03*
%TO.N,Net-(U3-~{CSN})*%
X174419102Y-70714401D03*
%TO.N,/D-_EXTEND1*%
X155682500Y-61225302D03*
%TO.N,GND*%
X155000000Y-78700000D03*
%TO.N,/D-_EXTEND2*%
X155500000Y-58300000D03*
%TO.N,GND*%
X166800000Y-51700000D03*
X155092559Y-56458712D03*
%TO.N,/SCK*%
X175900000Y-70800000D03*
%TO.N,Net-(J2-~{W_DISABLE1})*%
X153627500Y-56900000D03*
%TO.N,/CSN_2*%
X169675000Y-80975000D03*
%TO.N,GND*%
X168300000Y-51800000D03*
%TO.N,+3.3V*%
X175500000Y-51700000D03*
%TO.N,GND*%
X159900000Y-55700000D03*
%TO.N,+3.3V*%
X173750000Y-63200000D03*
%TO.N,Net-(J2-~{FULL_CARD_POWER_OFF})*%
X174000000Y-58900000D03*
%TO.N,GND*%
X178400000Y-62400000D03*
%TO.N,/TX*%
X164075000Y-63275000D03*
%TO.N,GND*%
X165200000Y-63100000D03*
%TO.N,/CSN_1*%
X164800000Y-76100000D03*
%TO.N,+3.3V*%
X174859620Y-51759620D03*
%TO.N,Net-(U2-IRQ)*%
X162300000Y-76292157D03*
%TO.N,Net-(U3-CE)*%
X173540000Y-70800000D03*
%TO.N,+3.3V*%
X165500000Y-61500000D03*
%TO.N,/IO0*%
X168400000Y-57900000D03*
%TO.N,Net-(U2-~{CSN})*%
X157700000Y-68800000D03*
%TO.N,/RX*%
X162900000Y-63225000D03*
%TO.N,GND*%
X159900000Y-53400000D03*
%TO.N,/MISO*%
X160325735Y-75325735D03*
%TO.N,GND*%
X156200000Y-76000000D03*
X175500000Y-52500003D03*
%TO.N,Net-(U2-CE)*%
X158796128Y-76058872D03*
%TO.N,/SCK*%
X168900000Y-76900000D03*
X158375000Y-70650000D03*
%TO.N,GND*%
X175700000Y-64800000D03*
%TO.N,/IO0*%
X177300000Y-57600000D03*
%TO.N,GND*%
X152600000Y-53200000D03*
%TO.N,Net-(U3-IRQ)*%
X179950000Y-73375000D03*
%TO.N,+3.3V*%
X157375000Y-50800000D03*
%TO.N,/CSN_2*%
X175000000Y-82100000D03*
%TO.N,/MISO*%
X179217321Y-70593263D03*
%TO.N,GND*%
X156400000Y-70200000D03*
%TO.N,/MOSI*%
X177350000Y-70850000D03*
%TO.N,+3.3V*%
X169700000Y-63300000D03*
%TO.N,GND*%
X171900000Y-62000000D03*
X169800000Y-51800000D03*
%TO.N,/CSN_1*%
X168105637Y-75094363D03*
%TO.N,/D+_EXTEND2*%
X156200000Y-58700000D03*
%TO.N,/RX*%
X164500000Y-78300000D03*
%TO.N,GND*%
X170920000Y-64700000D03*
X163900000Y-56700000D03*
X171200000Y-51800000D03*
%TD*%
%TA.AperFunction,Conductor*%
%TO.N,+3.3V*%
G36*
X159717539Y-49419685D02*
G01*
X159763294Y-49472489D01*
X159774500Y-49524000D01*
X159774500Y-51634107D01*
X159774500Y-51634108D01*
X159774500Y-51700000D01*
X159774500Y-51801976D01*
X159811976Y-52002456D01*
X159822771Y-52030321D01*
X159885651Y-52192635D01*
X159885655Y-52192642D01*
X159993016Y-52366037D01*
X159993017Y-52366038D01*
X159993019Y-52366041D01*
X160016649Y-52391962D01*
X160047266Y-52454765D01*
X160039069Y-52524152D01*
X159994659Y-52578093D01*
X159928137Y-52599461D01*
X159925012Y-52599500D01*
X159821155Y-52599500D01*
X159666510Y-52630261D01*
X159666498Y-52630264D01*
X159520827Y-52690602D01*
X159520814Y-52690609D01*
X159389711Y-52778210D01*
X159389707Y-52778213D01*
X159278213Y-52889707D01*
X159278210Y-52889711D01*
X159190609Y-53020814D01*
X159190602Y-53020827D01*
X159130264Y-53166498D01*
X159130261Y-53166510D01*
X159099500Y-53321153D01*
X159099500Y-53478846D01*
X159130261Y-53633489D01*
X159130264Y-53633501D01*
X159190602Y-53779172D01*
X159190609Y-53779185D01*
X159278210Y-53910288D01*
X159278213Y-53910292D01*
X159389707Y-54021786D01*
X159389711Y-54021789D01*
X159520814Y-54109390D01*
X159520827Y-54109397D01*
X159666498Y-54169735D01*
X159666503Y-54169737D01*
X159821153Y-54200499D01*
X159821156Y-54200500D01*
X159821158Y-54200500D01*
X159978844Y-54200500D01*
X159978845Y-54200499D01*
X160133497Y-54169737D01*
X160279179Y-54109394D01*
X160410289Y-54021789D01*
X160521789Y-53910289D01*
X160609394Y-53779179D01*
X160669737Y-53633497D01*
X160700500Y-53478842D01*
X160700500Y-53321158D01*
X160700500Y-53321155D01*
X160700499Y-53321153D01*
X160696391Y-53300502D01*
X160669737Y-53166503D01*
X160650955Y-53121158D01*
X160609397Y-53020827D01*
X160609390Y-53020814D01*
X160582868Y-52981121D01*
X160561990Y-52914443D01*
X160580475Y-52847063D01*
X160632454Y-52800373D01*
X160697409Y-52788759D01*
X160834669Y-52801477D01*
X160874999Y-52805215D01*
X160875000Y-52805215D01*
X160875001Y-52805215D01*
X161052592Y-52788759D01*
X161078083Y-52786397D01*
X161274250Y-52730582D01*
X161456821Y-52639673D01*
X161619579Y-52516764D01*
X161634407Y-52500499D01*
X161662450Y-52469737D01*
X161756981Y-52366041D01*
X161864348Y-52192637D01*
X161938024Y-52002456D01*
X161975500Y-51801976D01*
X161975500Y-51700000D01*
X161975500Y-51634108D01*
X161975500Y-51634107D01*
X161975500Y-51521153D01*
X162999500Y-51521153D01*
X162999500Y-51678846D01*
X163030261Y-51833489D01*
X163030264Y-51833501D01*
X163090602Y-51979172D01*
X163090609Y-51979185D01*
X163178210Y-52110288D01*
X163178213Y-52110292D01*
X163289707Y-52221786D01*
X163289711Y-52221789D01*
X163420814Y-52309390D01*
X163420827Y-52309397D01*
X163557570Y-52366037D01*
X163566503Y-52369737D01*
X163678230Y-52391961D01*
X163721153Y-52400499D01*
X163721156Y-52400500D01*
X163721158Y-52400500D01*
X163878844Y-52400500D01*
X163878845Y-52400499D01*
X164033497Y-52369737D01*
X164177021Y-52310288D01*
X164179172Y-52309397D01*
X164179172Y-52309396D01*
X164179179Y-52309394D01*
X164310289Y-52221789D01*
X164368664Y-52163413D01*
X164429985Y-52129930D01*
X164499677Y-52134914D01*
X164555611Y-52176785D01*
X164559447Y-52182206D01*
X164578212Y-52210291D01*
X164689707Y-52321786D01*
X164689711Y-52321789D01*
X164820814Y-52409390D01*
X164820827Y-52409397D01*
X164930357Y-52454765D01*
X164966503Y-52469737D01*
X165121153Y-52500499D01*
X165121156Y-52500500D01*
X165121158Y-52500500D01*
X165278844Y-52500500D01*
X165278845Y-52500499D01*
X165433497Y-52469737D01*
X165550783Y-52421156D01*
X165579172Y-52409397D01*
X165579172Y-52409396D01*
X165579179Y-52409394D01*
X165710289Y-52321789D01*
X165821789Y-52210289D01*
X165896898Y-52097881D01*
X165950510Y-52053076D01*
X166019835Y-52044369D01*
X166082863Y-52074523D01*
X166103102Y-52097881D01*
X166178210Y-52210288D01*
X166178213Y-52210292D01*
X166289707Y-52321786D01*
X166289711Y-52321789D01*
X166420814Y-52409390D01*
X166420827Y-52409397D01*
X166530357Y-52454765D01*
X166566503Y-52469737D01*
X166721153Y-52500499D01*
X166721156Y-52500500D01*
X166721158Y-52500500D01*
X166878844Y-52500500D01*
X166878845Y-52500499D01*
X167033497Y-52469737D01*
X167150783Y-52421156D01*
X167179172Y-52409397D01*
X167179172Y-52409396D01*
X167179179Y-52409394D01*
X167310289Y-52321789D01*
X167365577Y-52266501D01*
X167426097Y-52205982D01*
X167427414Y-52207299D01*
X167477949Y-52172859D01*
X167547793Y-52170970D01*
X167607571Y-52207142D01*
X167619189Y-52221957D01*
X167678210Y-52310288D01*
X167678213Y-52310292D01*
X167789707Y-52421786D01*
X167789711Y-52421789D01*
X167920814Y-52509390D01*
X167920827Y-52509397D01*
X168066498Y-52569735D01*
X168066503Y-52569737D01*
X168215935Y-52599461D01*
X168221153Y-52600499D01*
X168221156Y-52600500D01*
X168221158Y-52600500D01*
X168378844Y-52600500D01*
X168378845Y-52600499D01*
X168533497Y-52569737D01*
X168679179Y-52509394D01*
X168810289Y-52421789D01*
X168921789Y-52310289D01*
X168929145Y-52299279D01*
X168946898Y-52272712D01*
X169000510Y-52227906D01*
X169069835Y-52219199D01*
X169132862Y-52249353D01*
X169153102Y-52272712D01*
X169178207Y-52310284D01*
X169178213Y-52310292D01*
X169289707Y-52421786D01*
X169289711Y-52421789D01*
X169420814Y-52509390D01*
X169420827Y-52509397D01*
X169566498Y-52569735D01*
X169566503Y-52569737D01*
X169715935Y-52599461D01*
X169721153Y-52600499D01*
X169721156Y-52600500D01*
X169721158Y-52600500D01*
X169878844Y-52600500D01*
X169878845Y-52600499D01*
X170033497Y-52569737D01*
X170179179Y-52509394D01*
X170310289Y-52421789D01*
X170340117Y-52391961D01*
X170412319Y-52319760D01*
X170473642Y-52286275D01*
X170543334Y-52291259D01*
X170587681Y-52319760D01*
X170689707Y-52421786D01*
X170689711Y-52421789D01*
X170820814Y-52509390D01*
X170820827Y-52509397D01*
X170966498Y-52569735D01*
X170966503Y-52569737D01*
X171115935Y-52599461D01*
X171121153Y-52600499D01*
X171121156Y-52600500D01*
X171121158Y-52600500D01*
X171278844Y-52600500D01*
X171278845Y-52600499D01*
X171433497Y-52569737D01*
X171579179Y-52509394D01*
X171710289Y-52421789D01*
X171821789Y-52310289D01*
X171909394Y-52179179D01*
X171969737Y-52033497D01*
X172000500Y-51878842D01*
X172000500Y-51721158D01*
X172000500Y-51721155D01*
X172000499Y-51721153D01*
X171996291Y-51700000D01*
X171969737Y-51566503D01*
X171928316Y-51466503D01*
X171909397Y-51420827D01*
X171909390Y-51420814D01*
X171821789Y-51289711D01*
X171821786Y-51289707D01*
X171710292Y-51178213D01*
X171710288Y-51178210D01*
X171579185Y-51090609D01*
X171579172Y-51090602D01*
X171433501Y-51030264D01*
X171433489Y-51030261D01*
X171278845Y-50999500D01*
X171278842Y-50999500D01*
X171121158Y-50999500D01*
X171121155Y-50999500D01*
X170966510Y-51030261D01*
X170966498Y-51030264D01*
X170820827Y-51090602D01*
X170820814Y-51090609D01*
X170689711Y-51178210D01*
X170689707Y-51178213D01*
X170587681Y-51280240D01*
X170526358Y-51313725D01*
X170456666Y-51308741D01*
X170412319Y-51280240D01*
X170310292Y-51178213D01*
X170310288Y-51178210D01*
X170179185Y-51090609D01*
X170179172Y-51090602D01*
X170033501Y-51030264D01*
X170033489Y-51030261D01*
X169878845Y-50999500D01*
X169878842Y-50999500D01*
X169721158Y-50999500D01*
X169721155Y-50999500D01*
X169566510Y-51030261D01*
X169566498Y-51030264D01*
X169420827Y-51090602D01*
X169420814Y-51090609D01*
X169289711Y-51178210D01*
X169289707Y-51178213D01*
X169178213Y-51289707D01*
X169153102Y-51327289D01*
X169099489Y-51372093D01*
X169030164Y-51380800D01*
X168967137Y-51350645D01*
X168946898Y-51327289D01*
X168924667Y-51294018D01*
X168921789Y-51289711D01*
X168921788Y-51289710D01*
X168921786Y-51289707D01*
X168810292Y-51178213D01*
X168810288Y-51178210D01*
X168679185Y-51090609D01*
X168679172Y-51090602D01*
X168533501Y-51030264D01*
X168533489Y-51030261D01*
X168378845Y-50999500D01*
X168378842Y-50999500D01*
X168221158Y-50999500D01*
X168221155Y-50999500D01*
X168066510Y-51030261D01*
X168066498Y-51030264D01*
X167920827Y-51090602D01*
X167920814Y-51090609D01*
X167789711Y-51178210D01*
X167789707Y-51178213D01*
X167673903Y-51294018D01*
X167672591Y-51292706D01*
X167622004Y-51327155D01*
X167552159Y-51329017D01*
X167492396Y-51292822D01*
X167480810Y-51278042D01*
X167421789Y-51189710D01*
X167310292Y-51078213D01*
X167310288Y-51078210D01*
X167179185Y-50990609D01*
X167179172Y-50990602D01*
X167033501Y-50930264D01*
X167033489Y-50930261D01*
X166878845Y-50899500D01*
X166878842Y-50899500D01*
X166721158Y-50899500D01*
X166721155Y-50899500D01*
X166566510Y-50930261D01*
X166566498Y-50930264D01*
X166420827Y-50990602D01*
X166420814Y-50990609D01*
X166289711Y-51078210D01*
X166289707Y-51078213D01*
X166178213Y-51189707D01*
X166178210Y-51189711D01*
X166103102Y-51302118D01*
X166049490Y-51346923D01*
X165980165Y-51355630D01*
X165917137Y-51325475D01*
X165896898Y-51302118D01*
X165821789Y-51189711D01*
X165821786Y-51189707D01*
X165710292Y-51078213D01*
X165710288Y-51078210D01*
X165579185Y-50990609D01*
X165579172Y-50990602D01*
X165433501Y-50930264D01*
X165433489Y-50930261D01*
X165278845Y-50899500D01*
X165278842Y-50899500D01*
X165121158Y-50899500D01*
X165121155Y-50899500D01*
X164966510Y-50930261D01*
X164966498Y-50930264D01*
X164820827Y-50990602D01*
X164820814Y-50990609D01*
X164689711Y-51078210D01*
X164631336Y-51136585D01*
X164570012Y-51170069D01*
X164500321Y-51165084D01*
X164444387Y-51123213D01*
X164440552Y-51117792D01*
X164421790Y-51089712D01*
X164421786Y-51089707D01*
X164310292Y-50978213D01*
X164310288Y-50978210D01*
X164179185Y-50890609D01*
X164179172Y-50890602D01*
X164033501Y-50830264D01*
X164033489Y-50830261D01*
X163878845Y-50799500D01*
X163878842Y-50799500D01*
X163721158Y-50799500D01*
X163721155Y-50799500D01*
X163566510Y-50830261D01*
X163566498Y-50830264D01*
X163420827Y-50890602D01*
X163420814Y-50890609D01*
X163289711Y-50978210D01*
X163289707Y-50978213D01*
X163178213Y-51089707D01*
X163178210Y-51089711D01*
X163090609Y-51220814D01*
X163090602Y-51220827D01*
X163030264Y-51366498D01*
X163030261Y-51366510D01*
X162999500Y-51521153D01*
X161975500Y-51521153D01*
X161975500Y-49524000D01*
X161995185Y-49456961D01*
X162047989Y-49411206D01*
X162099500Y-49400000D01*
X175800500Y-49400000D01*
X175867539Y-49419685D01*
X175913294Y-49472489D01*
X175924500Y-49524000D01*
X175924500Y-51623802D01*
X175904815Y-51690841D01*
X175852011Y-51736596D01*
X175782853Y-51746540D01*
X175753051Y-51738365D01*
X175741565Y-51733608D01*
X175733497Y-51730266D01*
X175733493Y-51730265D01*
X175733489Y-51730264D01*
X175578845Y-51699503D01*
X175578842Y-51699503D01*
X175421158Y-51699503D01*
X175421155Y-51699503D01*
X175266510Y-51730264D01*
X175266498Y-51730267D01*
X175120827Y-51790605D01*
X175120814Y-51790612D01*
X174989711Y-51878213D01*
X174989707Y-51878216D01*
X174878213Y-51989710D01*
X174878210Y-51989714D01*
X174790609Y-52120817D01*
X174790602Y-52120830D01*
X174730264Y-52266501D01*
X174730261Y-52266513D01*
X174699500Y-52421156D01*
X174699500Y-52578849D01*
X174730261Y-52733492D01*
X174730264Y-52733504D01*
X174790602Y-52879175D01*
X174790609Y-52879188D01*
X174878210Y-53010291D01*
X174878213Y-53010295D01*
X174989707Y-53121789D01*
X174989711Y-53121792D01*
X175120814Y-53209393D01*
X175120827Y-53209400D01*
X175266498Y-53269738D01*
X175266503Y-53269740D01*
X175421153Y-53300502D01*
X175421156Y-53300503D01*
X175421158Y-53300503D01*
X175578844Y-53300503D01*
X175578845Y-53300502D01*
X175733497Y-53269740D01*
X175879179Y-53209397D01*
X176010289Y-53121792D01*
X176121789Y-53010292D01*
X176209394Y-52879182D01*
X176269737Y-52733500D01*
X176281751Y-52673104D01*
X176314136Y-52611193D01*
X176374851Y-52576619D01*
X176444621Y-52580358D01*
X176465365Y-52589907D01*
X176500555Y-52610224D01*
X176665062Y-52670100D01*
X176837466Y-52700500D01*
X176859108Y-52700500D01*
X180875500Y-52700500D01*
X180942539Y-52720185D01*
X180988294Y-52772989D01*
X180999500Y-52824500D01*
X180999500Y-57783257D01*
X180979815Y-57850296D01*
X180927011Y-57896051D01*
X180857853Y-57905995D01*
X180832168Y-57899439D01*
X180782485Y-57880909D01*
X180782483Y-57880908D01*
X180722883Y-57874501D01*
X180722881Y-57874500D01*
X180722873Y-57874500D01*
X180722864Y-57874500D01*
X179277129Y-57874500D01*
X179277123Y-57874501D01*
X179217516Y-57880908D01*
X179082671Y-57931202D01*
X179082664Y-57931206D01*
X178967455Y-58017452D01*
X178967452Y-58017455D01*
X178881206Y-58132664D01*
X178881202Y-58132671D01*
X178830908Y-58267517D01*
X178824501Y-58327116D01*
X178824500Y-58327135D01*
X178824500Y-59772870D01*
X178824501Y-59772876D01*
X178830908Y-59832483D01*
X178881202Y-59967328D01*
X178881206Y-59967335D01*
X178967452Y-60082544D01*
X178967453Y-60082544D01*
X178967454Y-60082546D01*
X179000500Y-60107284D01*
X179052539Y-60146241D01*
X179094409Y-60202175D01*
X179099393Y-60271867D01*
X179078545Y-60318392D01*
X178994624Y-60433900D01*
X178910620Y-60598764D01*
X178910619Y-60598767D01*
X178853445Y-60774734D01*
X178824500Y-60957486D01*
X178824500Y-61142513D01*
X178853445Y-61325265D01*
X178910619Y-61501232D01*
X178910622Y-61501240D01*
X178915489Y-61510790D01*
X178928386Y-61579459D01*
X178902110Y-61644200D01*
X178845004Y-61684458D01*
X178775198Y-61687450D01*
X178757553Y-61681648D01*
X178720006Y-61666096D01*
X178633497Y-61630263D01*
X178633492Y-61630262D01*
X178633489Y-61630261D01*
X178478845Y-61599500D01*
X178478842Y-61599500D01*
X178321158Y-61599500D01*
X178321155Y-61599500D01*
X178166510Y-61630261D01*
X178166498Y-61630264D01*
X178020827Y-61690602D01*
X178020814Y-61690609D01*
X177889711Y-61778210D01*
X177889707Y-61778213D01*
X177778213Y-61889707D01*
X177778210Y-61889711D01*
X177690609Y-62020814D01*
X177690602Y-62020827D01*
X177630264Y-62166498D01*
X177630261Y-62166510D01*
X177599500Y-62321153D01*
X177599500Y-62478846D01*
X177630261Y-62633489D01*
X177630264Y-62633501D01*
X177690602Y-62779172D01*
X177690609Y-62779185D01*
X177778210Y-62910288D01*
X177778213Y-62910292D01*
X177889707Y-63021786D01*
X177889711Y-63021789D01*
X178020814Y-63109390D01*
X178020827Y-63109397D01*
X178128532Y-63154009D01*
X178166503Y-63169737D01*
X178321153Y-63200499D01*
X178321156Y-63200500D01*
X178321158Y-63200500D01*
X178478844Y-63200500D01*
X178478845Y-63200499D01*
X178633497Y-63169737D01*
X178671468Y-63154008D01*
X178740936Y-63146540D01*
X178803416Y-63177815D01*
X178839068Y-63237904D01*
X178841393Y-63249172D01*
X178853445Y-63325265D01*
X178910619Y-63501232D01*
X178910620Y-63501235D01*
X178966186Y-63610288D01*
X178994622Y-63666096D01*
X179103379Y-63815787D01*
X179234213Y-63946621D01*
X179383904Y-64055378D01*
X179453035Y-64090602D01*
X179548764Y-64139379D01*
X179548767Y-64139380D01*
X179636750Y-64167967D01*
X179724736Y-64196555D01*
X179907486Y-64225500D01*
X179907487Y-64225500D01*
X180092513Y-64225500D01*
X180092514Y-64225500D01*
X180275264Y-64196555D01*
X180451235Y-64139379D01*
X180616096Y-64055378D01*
X180765787Y-63946621D01*
X180787819Y-63924589D01*
X180849142Y-63891104D01*
X180918834Y-63896088D01*
X180974767Y-63937960D01*
X180999184Y-64003424D01*
X180999500Y-64012270D01*
X180999500Y-74186230D01*
X180979815Y-74253269D01*
X180927011Y-74299024D01*
X180857853Y-74308968D01*
X180832168Y-74302412D01*
X180707485Y-74255909D01*
X180707483Y-74255908D01*
X180647883Y-74249501D01*
X180647881Y-74249500D01*
X180647873Y-74249500D01*
X180647865Y-74249500D01*
X180490853Y-74249500D01*
X180423814Y-74229815D01*
X180378059Y-74177011D01*
X180368115Y-74107853D01*
X180397140Y-74044297D01*
X180421959Y-74022399D01*
X180460289Y-73996789D01*
X180571789Y-73885289D01*
X180659394Y-73754179D01*
X180719737Y-73608497D01*
X180750500Y-73453842D01*
X180750500Y-73296158D01*
X180750500Y-73296155D01*
X180750499Y-73296153D01*
X180719738Y-73141510D01*
X180719737Y-73141503D01*
X180711170Y-73120821D01*
X180659397Y-72995827D01*
X180659390Y-72995814D01*
X180571789Y-72864711D01*
X180571786Y-72864707D01*
X180460292Y-72753213D01*
X180460288Y-72753210D01*
X180329185Y-72665609D01*
X180329172Y-72665602D01*
X180183501Y-72605264D01*
X180183489Y-72605261D01*
X180028845Y-72574500D01*
X180028842Y-72574500D01*
X179871158Y-72574500D01*
X179871155Y-72574500D01*
X179716510Y-72605261D01*
X179716498Y-72605264D01*
X179570827Y-72665602D01*
X179570814Y-72665609D01*
X179439711Y-72753210D01*
X179439707Y-72753213D01*
X179328213Y-72864707D01*
X179328210Y-72864711D01*
X179240609Y-72995814D01*
X179240602Y-72995827D01*
X179180264Y-73141498D01*
X179180261Y-73141510D01*
X179149500Y-73296153D01*
X179149500Y-73453846D01*
X179180261Y-73608489D01*
X179180264Y-73608501D01*
X179240602Y-73754172D01*
X179240609Y-73754185D01*
X179328210Y-73885288D01*
X179328213Y-73885292D01*
X179439708Y-73996787D01*
X179439711Y-73996789D01*
X179478038Y-74022398D01*
X179522842Y-74076009D01*
X179531551Y-74145334D01*
X179501396Y-74208362D01*
X179441954Y-74245081D01*
X179409148Y-74249500D01*
X179202130Y-74249500D01*
X179202123Y-74249501D01*
X179142516Y-74255908D01*
X179007671Y-74306202D01*
X179007664Y-74306206D01*
X178892455Y-74392452D01*
X178892452Y-74392455D01*
X178806206Y-74507664D01*
X178806202Y-74507671D01*
X178755908Y-74642517D01*
X178749501Y-74702116D01*
X178749500Y-74702135D01*
X178749500Y-76147870D01*
X178749501Y-76147876D01*
X178755908Y-76207483D01*
X178806202Y-76342328D01*
X178806206Y-76342335D01*
X178892452Y-76457544D01*
X178892453Y-76457544D01*
X178892454Y-76457546D01*
X178907366Y-76468709D01*
X178977539Y-76521241D01*
X179019409Y-76577175D01*
X179024393Y-76646867D01*
X179003545Y-76693392D01*
X178919624Y-76808900D01*
X178835620Y-76973764D01*
X178835619Y-76973767D01*
X178778445Y-77149734D01*
X178778445Y-77149736D01*
X178749500Y-77332486D01*
X178749500Y-77517514D01*
X178752309Y-77535249D01*
X178778445Y-77700265D01*
X178835619Y-77876232D01*
X178835620Y-77876235D01*
X178919622Y-78041096D01*
X179028379Y-78190787D01*
X179159213Y-78321621D01*
X179163432Y-78324686D01*
X179206094Y-78380019D01*
X179212069Y-78449633D01*
X179179459Y-78511426D01*
X179163432Y-78525314D01*
X179159210Y-78528381D01*
X179028381Y-78659210D01*
X179028381Y-78659211D01*
X179028379Y-78659213D01*
X178981672Y-78723499D01*
X178919622Y-78808903D01*
X178835620Y-78973764D01*
X178835619Y-78973767D01*
X178778445Y-79149734D01*
X178749500Y-79332486D01*
X178749500Y-79517513D01*
X178778445Y-79700265D01*
X178835619Y-79876232D01*
X178835620Y-79876235D01*
X178919622Y-80041096D01*
X179028379Y-80190787D01*
X179159213Y-80321621D01*
X179308904Y-80430378D01*
X179389763Y-80471577D01*
X179473764Y-80514379D01*
X179473767Y-80514380D01*
X179561750Y-80542967D01*
X179649736Y-80571555D01*
X179832486Y-80600500D01*
X179832487Y-80600500D01*
X180017513Y-80600500D01*
X180017514Y-80600500D01*
X180200264Y-80571555D01*
X180376235Y-80514379D01*
X180541096Y-80430378D01*
X180690787Y-80321621D01*
X180787819Y-80224589D01*
X180849142Y-80191104D01*
X180918834Y-80196088D01*
X180974767Y-80237960D01*
X180999184Y-80303424D01*
X180999500Y-80312270D01*
X180999500Y-81792297D01*
X180979815Y-81859336D01*
X180927011Y-81905091D01*
X180857853Y-81915035D01*
X180851309Y-81913914D01*
X180778845Y-81899500D01*
X180778842Y-81899500D01*
X180621158Y-81899500D01*
X180621155Y-81899500D01*
X180466510Y-81930261D01*
X180466498Y-81930264D01*
X180320827Y-81990602D01*
X180320814Y-81990609D01*
X180189711Y-82078210D01*
X180189707Y-82078213D01*
X180078213Y-82189707D01*
X180078210Y-82189711D01*
X179990609Y-82320814D01*
X179990602Y-82320827D01*
X179930264Y-82466498D01*
X179930261Y-82466510D01*
X179899500Y-82621153D01*
X179899500Y-82778846D01*
X179930261Y-82933489D01*
X179930264Y-82933501D01*
X179990602Y-83079172D01*
X179990609Y-83079185D01*
X180078210Y-83210288D01*
X180078213Y-83210292D01*
X180189707Y-83321786D01*
X180189711Y-83321789D01*
X180266200Y-83372898D01*
X180311005Y-83426510D01*
X180319712Y-83495835D01*
X180289557Y-83558863D01*
X180230114Y-83595582D01*
X180197309Y-83600000D01*
X152124500Y-83600000D01*
X152057461Y-83580315D01*
X152011706Y-83527511D01*
X152000500Y-83476000D01*
X152000500Y-81946153D01*
X171124500Y-81946153D01*
X171124500Y-82103846D01*
X171155261Y-82258489D01*
X171155264Y-82258501D01*
X171215602Y-82404172D01*
X171215609Y-82404185D01*
X171303210Y-82535288D01*
X171303213Y-82535292D01*
X171414707Y-82646786D01*
X171414711Y-82646789D01*
X171545814Y-82734390D01*
X171545827Y-82734397D01*
X171653138Y-82778846D01*
X171691503Y-82794737D01*
X171846153Y-82825499D01*
X171846156Y-82825500D01*
X171846158Y-82825500D01*
X172003844Y-82825500D01*
X172003845Y-82825499D01*
X172158497Y-82794737D01*
X172304179Y-82734394D01*
X172435289Y-82646789D01*
X172546789Y-82535289D01*
X172634394Y-82404179D01*
X172694737Y-82258497D01*
X172725500Y-82103842D01*
X172725500Y-82021153D01*
X174199500Y-82021153D01*
X174199500Y-82178846D01*
X174230261Y-82333489D01*
X174230264Y-82333501D01*
X174290602Y-82479172D01*
X174290609Y-82479185D01*
X174378210Y-82610288D01*
X174378213Y-82610292D01*
X174489707Y-82721786D01*
X174489711Y-82721789D01*
X174620814Y-82809390D01*
X174620827Y-82809397D01*
X174766498Y-82869735D01*
X174766503Y-82869737D01*
X174921153Y-82900499D01*
X174921156Y-82900500D01*
X174921158Y-82900500D01*
X175078844Y-82900500D01*
X175078845Y-82900499D01*
X175233497Y-82869737D01*
X175379179Y-82809394D01*
X175510289Y-82721789D01*
X175621789Y-82610289D01*
X175641234Y-82581188D01*
X175694846Y-82536383D01*
X175764171Y-82527676D01*
X175827198Y-82557830D01*
X175858897Y-82602627D01*
X175890602Y-82679172D01*
X175890609Y-82679185D01*
X175978210Y-82810288D01*
X175978213Y-82810292D01*
X176089707Y-82921786D01*
X176089711Y-82921789D01*
X176220814Y-83009390D01*
X176220827Y-83009397D01*
X176366498Y-83069735D01*
X176366503Y-83069737D01*
X176521153Y-83100499D01*
X176521156Y-83100500D01*
X176521158Y-83100500D01*
X176678844Y-83100500D01*
X176678845Y-83100499D01*
X176833497Y-83069737D01*
X176979179Y-83009394D01*
X177110289Y-82921789D01*
X177221789Y-82810289D01*
X177309394Y-82679179D01*
X177369737Y-82533497D01*
X177400500Y-82378842D01*
X177400500Y-82221158D01*
X177400500Y-82221155D01*
X177400499Y-82221153D01*
X177394244Y-82189707D01*
X177369737Y-82066503D01*
X177319887Y-81946153D01*
X177309397Y-81920827D01*
X177309390Y-81920814D01*
X177221789Y-81789711D01*
X177221786Y-81789707D01*
X177110292Y-81678213D01*
X177110288Y-81678210D01*
X176979185Y-81590609D01*
X176979172Y-81590602D01*
X176833501Y-81530264D01*
X176833489Y-81530261D01*
X176678845Y-81499500D01*
X176678842Y-81499500D01*
X176521158Y-81499500D01*
X176521155Y-81499500D01*
X176366510Y-81530261D01*
X176366498Y-81530264D01*
X176220827Y-81590602D01*
X176220814Y-81590609D01*
X176089711Y-81678210D01*
X176089707Y-81678213D01*
X175978213Y-81789707D01*
X175978209Y-81789712D01*
X175958763Y-81818814D01*
X175905149Y-81863618D01*
X175835824Y-81872323D01*
X175772797Y-81842166D01*
X175741102Y-81797373D01*
X175709394Y-81720821D01*
X175709390Y-81720814D01*
X175621789Y-81589711D01*
X175621786Y-81589707D01*
X175510292Y-81478213D01*
X175510288Y-81478210D01*
X175379185Y-81390609D01*
X175379172Y-81390602D01*
X175233501Y-81330264D01*
X175233489Y-81330261D01*
X175078845Y-81299500D01*
X175078842Y-81299500D01*
X174921158Y-81299500D01*
X174921155Y-81299500D01*
X174766510Y-81330261D01*
X174766498Y-81330264D01*
X174620827Y-81390602D01*
X174620814Y-81390609D01*
X174489711Y-81478210D01*
X174489707Y-81478213D01*
X174378213Y-81589707D01*
X174378210Y-81589711D01*
X174290609Y-81720814D01*
X174290602Y-81720827D01*
X174230264Y-81866498D01*
X174230261Y-81866510D01*
X174199500Y-82021153D01*
X172725500Y-82021153D01*
X172725500Y-81946158D01*
X172725500Y-81946155D01*
X172725499Y-81946153D01*
X172709657Y-81866510D01*
X172694737Y-81791503D01*
X172691791Y-81784390D01*
X172634397Y-81645827D01*
X172634390Y-81645814D01*
X172546789Y-81514711D01*
X172546786Y-81514707D01*
X172435292Y-81403213D01*
X172435288Y-81403210D01*
X172304185Y-81315609D01*
X172304172Y-81315602D01*
X172158501Y-81255264D01*
X172158489Y-81255261D01*
X172003845Y-81224500D01*
X172003842Y-81224500D01*
X171846158Y-81224500D01*
X171846155Y-81224500D01*
X171691510Y-81255261D01*
X171691498Y-81255264D01*
X171545827Y-81315602D01*
X171545814Y-81315609D01*
X171414711Y-81403210D01*
X171414707Y-81403213D01*
X171303213Y-81514707D01*
X171303210Y-81514711D01*
X171215609Y-81645814D01*
X171215602Y-81645827D01*
X171155264Y-81791498D01*
X171155261Y-81791510D01*
X171124500Y-81946153D01*
X152000500Y-81946153D01*
X152000500Y-81021153D01*
X153599500Y-81021153D01*
X153599500Y-81178846D01*
X153630261Y-81333489D01*
X153630264Y-81333501D01*
X153690602Y-81479172D01*
X153690609Y-81479185D01*
X153778210Y-81610288D01*
X153778213Y-81610292D01*
X153889707Y-81721786D01*
X153889711Y-81721789D01*
X154020814Y-81809390D01*
X154020827Y-81809397D01*
X154151730Y-81863618D01*
X154166503Y-81869737D01*
X154316131Y-81899500D01*
X154321153Y-81900499D01*
X154321156Y-81900500D01*
X154321158Y-81900500D01*
X154478844Y-81900500D01*
X154478845Y-81900499D01*
X154633497Y-81869737D01*
X154779179Y-81809394D01*
X154910289Y-81721789D01*
X155021789Y-81610289D01*
X155109394Y-81479179D01*
X155169737Y-81333497D01*
X155200500Y-81178842D01*
X155200500Y-81021158D01*
X155200500Y-81021155D01*
X155200499Y-81021153D01*
X155199128Y-81014257D01*
X155195527Y-80996153D01*
X167624500Y-80996153D01*
X167624500Y-81153846D01*
X167655261Y-81308489D01*
X167655264Y-81308501D01*
X167715602Y-81454172D01*
X167715609Y-81454185D01*
X167803210Y-81585288D01*
X167803213Y-81585292D01*
X167914707Y-81696786D01*
X167914711Y-81696789D01*
X168045814Y-81784390D01*
X168045827Y-81784397D01*
X168145070Y-81825504D01*
X168191503Y-81844737D01*
X168300963Y-81866510D01*
X168346153Y-81875499D01*
X168346156Y-81875500D01*
X168346158Y-81875500D01*
X168503844Y-81875500D01*
X168503845Y-81875499D01*
X168658497Y-81844737D01*
X168804179Y-81784394D01*
X168935289Y-81696789D01*
X169015170Y-81616907D01*
X169076490Y-81583423D01*
X169146182Y-81588407D01*
X169171741Y-81601487D01*
X169295814Y-81684390D01*
X169295827Y-81684397D01*
X169386101Y-81721789D01*
X169441503Y-81744737D01*
X169596153Y-81775499D01*
X169596156Y-81775500D01*
X169596158Y-81775500D01*
X169753844Y-81775500D01*
X169753845Y-81775499D01*
X169908497Y-81744737D01*
X170054179Y-81684394D01*
X170185289Y-81596789D01*
X170296789Y-81485289D01*
X170384394Y-81354179D01*
X170444737Y-81208497D01*
X170475500Y-81053842D01*
X170475500Y-80896158D01*
X170475500Y-80896155D01*
X170475499Y-80896153D01*
X170444738Y-80741510D01*
X170444737Y-80741503D01*
X170436170Y-80720821D01*
X170384397Y-80595827D01*
X170384390Y-80595814D01*
X170296789Y-80464711D01*
X170296786Y-80464707D01*
X170185292Y-80353213D01*
X170185288Y-80353210D01*
X170054185Y-80265609D01*
X170054172Y-80265602D01*
X169908501Y-80205264D01*
X169908489Y-80205261D01*
X169753845Y-80174500D01*
X169753842Y-80174500D01*
X169596158Y-80174500D01*
X169596155Y-80174500D01*
X169441510Y-80205261D01*
X169441498Y-80205264D01*
X169295827Y-80265602D01*
X169295814Y-80265609D01*
X169164711Y-80353210D01*
X169084829Y-80433092D01*
X169023505Y-80466576D01*
X168953814Y-80461592D01*
X168928257Y-80448512D01*
X168804185Y-80365609D01*
X168804172Y-80365602D01*
X168658501Y-80305264D01*
X168658489Y-80305261D01*
X168503845Y-80274500D01*
X168503842Y-80274500D01*
X168346158Y-80274500D01*
X168346155Y-80274500D01*
X168191510Y-80305261D01*
X168191498Y-80305264D01*
X168045827Y-80365602D01*
X168045814Y-80365609D01*
X167914711Y-80453210D01*
X167914707Y-80453213D01*
X167803213Y-80564707D01*
X167803210Y-80564711D01*
X167715609Y-80695814D01*
X167715602Y-80695827D01*
X167655264Y-80841498D01*
X167655261Y-80841510D01*
X167624500Y-80996153D01*
X155195527Y-80996153D01*
X155169738Y-80866508D01*
X155169737Y-80866507D01*
X155169737Y-80866503D01*
X155117959Y-80741498D01*
X155109397Y-80720827D01*
X155109390Y-80720814D01*
X155021789Y-80589711D01*
X155021786Y-80589707D01*
X154910292Y-80478213D01*
X154910288Y-80478210D01*
X154779185Y-80390609D01*
X154779172Y-80390602D01*
X154633501Y-80330264D01*
X154633489Y-80330261D01*
X154478845Y-80299500D01*
X154478842Y-80299500D01*
X154321158Y-80299500D01*
X154321155Y-80299500D01*
X154166510Y-80330261D01*
X154166498Y-80330264D01*
X154020827Y-80390602D01*
X154020814Y-80390609D01*
X153889711Y-80478210D01*
X153889707Y-80478213D01*
X153778213Y-80589707D01*
X153778210Y-80589711D01*
X153690609Y-80720814D01*
X153690602Y-80720827D01*
X153630264Y-80866498D01*
X153630261Y-80866510D01*
X153599500Y-81021153D01*
X152000500Y-81021153D01*
X152000500Y-78621153D01*
X154199500Y-78621153D01*
X154199500Y-78778846D01*
X154230261Y-78933489D01*
X154230264Y-78933501D01*
X154290602Y-79079172D01*
X154290609Y-79079185D01*
X154378210Y-79210288D01*
X154378213Y-79210292D01*
X154489707Y-79321786D01*
X154489711Y-79321789D01*
X154620814Y-79409390D01*
X154620827Y-79409397D01*
X154766498Y-79469735D01*
X154766503Y-79469737D01*
X154921153Y-79500499D01*
X154921156Y-79500500D01*
X154921158Y-79500500D01*
X155078844Y-79500500D01*
X155078845Y-79500499D01*
X155233497Y-79469737D01*
X155379179Y-79409394D01*
X155510289Y-79321789D01*
X155621789Y-79210289D01*
X155709394Y-79079179D01*
X155769737Y-78933497D01*
X155800500Y-78778842D01*
X155800500Y-78621158D01*
X155800500Y-78621155D01*
X155800499Y-78621153D01*
X155790918Y-78572985D01*
X155769737Y-78466503D01*
X155753499Y-78427301D01*
X155709397Y-78320827D01*
X155709390Y-78320814D01*
X155684763Y-78283957D01*
X155642798Y-78221153D01*
X163699500Y-78221153D01*
X163699500Y-78378846D01*
X163730261Y-78533489D01*
X163730264Y-78533501D01*
X163790602Y-78679172D01*
X163790609Y-78679185D01*
X163878210Y-78810288D01*
X163878213Y-78810292D01*
X163989707Y-78921786D01*
X163989711Y-78921789D01*
X164120814Y-79009390D01*
X164120827Y-79009397D01*
X164266498Y-79069735D01*
X164266503Y-79069737D01*
X164421153Y-79100499D01*
X164421156Y-79100500D01*
X164421158Y-79100500D01*
X164578844Y-79100500D01*
X164578845Y-79100499D01*
X164733497Y-79069737D01*
X164879179Y-79009394D01*
X164938123Y-78970008D01*
X165004798Y-78949131D01*
X165054464Y-78958550D01*
X165066503Y-78963537D01*
X165221153Y-78994299D01*
X165221156Y-78994300D01*
X165221158Y-78994300D01*
X165378844Y-78994300D01*
X165378845Y-78994299D01*
X165533497Y-78963537D01*
X165679179Y-78903194D01*
X165810289Y-78815589D01*
X165921789Y-78704089D01*
X166009394Y-78572979D01*
X166069737Y-78427297D01*
X166100500Y-78272642D01*
X166100500Y-78114958D01*
X166100500Y-78114955D01*
X166100499Y-78114953D01*
X166093191Y-78078213D01*
X166069737Y-77960303D01*
X166057294Y-77930263D01*
X166029234Y-77862518D01*
X166012100Y-77821153D01*
X166999500Y-77821153D01*
X166999500Y-77978846D01*
X167030261Y-78133489D01*
X167030264Y-78133501D01*
X167090602Y-78279172D01*
X167090609Y-78279185D01*
X167178210Y-78410288D01*
X167178213Y-78410292D01*
X167289707Y-78521786D01*
X167289711Y-78521789D01*
X167420814Y-78609390D01*
X167420827Y-78609397D01*
X167566498Y-78669735D01*
X167566503Y-78669737D01*
X167721153Y-78700499D01*
X167721156Y-78700500D01*
X167721158Y-78700500D01*
X167878844Y-78700500D01*
X167878845Y-78700499D01*
X168033497Y-78669737D01*
X168179179Y-78609394D01*
X168310289Y-78521789D01*
X168421789Y-78410289D01*
X168509394Y-78279179D01*
X168569737Y-78133497D01*
X168600500Y-77978842D01*
X168600500Y-77902628D01*
X168620185Y-77835589D01*
X168638570Y-77813230D01*
X168646482Y-77805624D01*
X168655062Y-77799892D01*
X168719849Y-77735104D01*
X168720715Y-77734272D01*
X168750640Y-77718691D01*
X168780285Y-77702504D01*
X168781914Y-77702409D01*
X168782689Y-77702006D01*
X168785087Y-77702225D01*
X168818808Y-77700268D01*
X168821154Y-77700499D01*
X168821158Y-77700500D01*
X168821162Y-77700500D01*
X168978844Y-77700500D01*
X168978845Y-77700499D01*
X169133497Y-77669737D01*
X169279179Y-77609394D01*
X169410289Y-77521789D01*
X169521789Y-77410289D01*
X169609394Y-77279179D01*
X169669737Y-77133497D01*
X169700500Y-76978842D01*
X169700500Y-76821158D01*
X169700500Y-76821155D01*
X169700499Y-76821153D01*
X169698159Y-76809390D01*
X169669737Y-76666503D01*
X169634228Y-76580775D01*
X169609397Y-76520827D01*
X169609390Y-76520814D01*
X169521789Y-76389711D01*
X169521786Y-76389707D01*
X169410292Y-76278213D01*
X169410288Y-76278210D01*
X169279185Y-76190609D01*
X169279172Y-76190602D01*
X169133501Y-76130264D01*
X169133489Y-76130261D01*
X168978845Y-76099500D01*
X168978842Y-76099500D01*
X168821158Y-76099500D01*
X168821155Y-76099500D01*
X168666510Y-76130261D01*
X168666498Y-76130264D01*
X168520827Y-76190602D01*
X168520814Y-76190609D01*
X168389714Y-76278208D01*
X168325806Y-76342115D01*
X168264482Y-76375599D01*
X168225976Y-76377835D01*
X168223620Y-76377603D01*
X168223615Y-76377603D01*
X168065931Y-76377603D01*
X168065928Y-76377603D01*
X167911283Y-76408364D01*
X167911271Y-76408367D01*
X167765600Y-76468705D01*
X167765587Y-76468712D01*
X167634484Y-76556313D01*
X167634480Y-76556316D01*
X167522986Y-76667810D01*
X167522983Y-76667814D01*
X167435382Y-76798917D01*
X167435375Y-76798930D01*
X167375037Y-76944601D01*
X167375034Y-76944613D01*
X167344273Y-77099256D01*
X167344273Y-77175474D01*
X167324588Y-77242513D01*
X167293917Y-77273739D01*
X167294417Y-77274349D01*
X167289705Y-77278215D01*
X167178213Y-77389707D01*
X167178210Y-77389711D01*
X167090609Y-77520814D01*
X167090602Y-77520827D01*
X167030264Y-77666498D01*
X167030261Y-77666510D01*
X166999500Y-77821153D01*
X166012100Y-77821153D01*
X166009397Y-77814627D01*
X166009390Y-77814614D01*
X165921789Y-77683511D01*
X165921786Y-77683507D01*
X165810292Y-77572013D01*
X165810288Y-77572010D01*
X165679185Y-77484409D01*
X165679172Y-77484402D01*
X165533501Y-77424064D01*
X165533489Y-77424061D01*
X165378845Y-77393300D01*
X165378842Y-77393300D01*
X165221158Y-77393300D01*
X165221155Y-77393300D01*
X165066510Y-77424061D01*
X165066498Y-77424064D01*
X164920822Y-77484404D01*
X164920820Y-77484405D01*
X164861875Y-77523791D01*
X164795198Y-77544668D01*
X164745534Y-77535249D01*
X164733498Y-77530263D01*
X164733488Y-77530260D01*
X164578845Y-77499500D01*
X164578842Y-77499500D01*
X164421158Y-77499500D01*
X164421155Y-77499500D01*
X164266510Y-77530261D01*
X164266498Y-77530264D01*
X164120827Y-77590602D01*
X164120814Y-77590609D01*
X163989711Y-77678210D01*
X163989707Y-77678213D01*
X163878213Y-77789707D01*
X163878210Y-77789711D01*
X163790609Y-77920814D01*
X163790602Y-77920827D01*
X163730264Y-78066498D01*
X163730261Y-78066510D01*
X163699500Y-78221153D01*
X155642798Y-78221153D01*
X155621789Y-78189711D01*
X155621786Y-78189707D01*
X155510292Y-78078213D01*
X155510288Y-78078210D01*
X155379185Y-77990609D01*
X155379172Y-77990602D01*
X155233501Y-77930264D01*
X155233489Y-77930261D01*
X155078845Y-77899500D01*
X155078842Y-77899500D01*
X154921158Y-77899500D01*
X154921155Y-77899500D01*
X154766510Y-77930261D01*
X154766498Y-77930264D01*
X154620827Y-77990602D01*
X154620814Y-77990609D01*
X154489711Y-78078210D01*
X154489707Y-78078213D01*
X154378213Y-78189707D01*
X154378210Y-78189711D01*
X154290609Y-78320814D01*
X154290602Y-78320827D01*
X154230264Y-78466498D01*
X154230261Y-78466510D01*
X154199500Y-78621153D01*
X152000500Y-78621153D01*
X152000500Y-75921153D01*
X155399500Y-75921153D01*
X155399500Y-76078846D01*
X155430261Y-76233489D01*
X155430264Y-76233501D01*
X155490602Y-76379172D01*
X155490609Y-76379185D01*
X155578210Y-76510288D01*
X155578213Y-76510292D01*
X155689707Y-76621786D01*
X155689711Y-76621789D01*
X155820814Y-76709390D01*
X155820827Y-76709397D01*
X155962959Y-76768269D01*
X155966503Y-76769737D01*
X156113200Y-76798917D01*
X156121153Y-76800499D01*
X156121156Y-76800500D01*
X156121158Y-76800500D01*
X156278844Y-76800500D01*
X156278845Y-76800499D01*
X156433497Y-76769737D01*
X156579179Y-76709394D01*
X156710289Y-76621789D01*
X156821789Y-76510289D01*
X156909394Y-76379179D01*
X156969737Y-76233497D01*
X157000500Y-76078842D01*
X157000500Y-75980025D01*
X157995628Y-75980025D01*
X157995628Y-76137718D01*
X158026389Y-76292361D01*
X158026392Y-76292373D01*
X158086730Y-76438044D01*
X158086737Y-76438057D01*
X158174338Y-76569160D01*
X158174341Y-76569164D01*
X158285835Y-76680658D01*
X158285839Y-76680661D01*
X158416942Y-76768262D01*
X158416955Y-76768269D01*
X158562626Y-76828607D01*
X158562631Y-76828609D01*
X158717281Y-76859371D01*
X158717284Y-76859372D01*
X158717286Y-76859372D01*
X158874972Y-76859372D01*
X158874973Y-76859371D01*
X159029625Y-76828609D01*
X159171756Y-76769737D01*
X159175300Y-76768269D01*
X159175300Y-76768268D01*
X159175307Y-76768266D01*
X159306417Y-76680661D01*
X159417917Y-76569161D01*
X159505522Y-76438051D01*
X159565865Y-76292369D01*
X159581591Y-76213310D01*
X161499500Y-76213310D01*
X161499500Y-76371003D01*
X161530261Y-76525646D01*
X161530264Y-76525658D01*
X161590602Y-76671329D01*
X161590609Y-76671342D01*
X161678210Y-76802445D01*
X161678213Y-76802449D01*
X161789707Y-76913943D01*
X161789711Y-76913946D01*
X161920814Y-77001547D01*
X161920827Y-77001554D01*
X162066498Y-77061892D01*
X162066503Y-77061894D01*
X162221153Y-77092656D01*
X162221156Y-77092657D01*
X162221158Y-77092657D01*
X162378844Y-77092657D01*
X162378845Y-77092656D01*
X162533497Y-77061894D01*
X162679179Y-77001551D01*
X162810289Y-76913946D01*
X162921789Y-76802446D01*
X163009394Y-76671336D01*
X163014416Y-76659213D01*
X163048396Y-76577175D01*
X163069737Y-76525654D01*
X163100500Y-76370999D01*
X163100500Y-76213315D01*
X163100500Y-76213312D01*
X163100499Y-76213310D01*
X163083979Y-76130261D01*
X163069737Y-76058660D01*
X163069735Y-76058655D01*
X163054201Y-76021153D01*
X163999500Y-76021153D01*
X163999500Y-76178846D01*
X164030261Y-76333489D01*
X164030264Y-76333501D01*
X164090602Y-76479172D01*
X164090609Y-76479185D01*
X164178210Y-76610288D01*
X164178213Y-76610292D01*
X164289707Y-76721786D01*
X164289711Y-76721789D01*
X164420814Y-76809390D01*
X164420827Y-76809397D01*
X164541477Y-76859371D01*
X164566503Y-76869737D01*
X164721153Y-76900499D01*
X164721156Y-76900500D01*
X164721158Y-76900500D01*
X164878844Y-76900500D01*
X164878845Y-76900499D01*
X165033497Y-76869737D01*
X165179179Y-76809394D01*
X165310289Y-76721789D01*
X165421789Y-76610289D01*
X165509394Y-76479179D01*
X165513733Y-76468705D01*
X165538726Y-76408364D01*
X165569737Y-76333497D01*
X165600500Y-76178842D01*
X165600500Y-76021158D01*
X165600500Y-76021155D01*
X165600499Y-76021153D01*
X165585853Y-75947524D01*
X165569737Y-75866503D01*
X165552704Y-75825382D01*
X165509397Y-75720827D01*
X165509390Y-75720814D01*
X165421789Y-75589711D01*
X165421786Y-75589707D01*
X165310292Y-75478213D01*
X165310288Y-75478210D01*
X165179185Y-75390609D01*
X165179172Y-75390602D01*
X165033501Y-75330264D01*
X165033489Y-75330261D01*
X164878845Y-75299500D01*
X164878842Y-75299500D01*
X164721158Y-75299500D01*
X164721155Y-75299500D01*
X164566510Y-75330261D01*
X164566498Y-75330264D01*
X164420827Y-75390602D01*
X164420814Y-75390609D01*
X164289711Y-75478210D01*
X164289707Y-75478213D01*
X164178213Y-75589707D01*
X164178210Y-75589711D01*
X164090609Y-75720814D01*
X164090602Y-75720827D01*
X164030264Y-75866498D01*
X164030261Y-75866510D01*
X163999500Y-76021153D01*
X163054201Y-76021153D01*
X163009397Y-75912984D01*
X163009390Y-75912971D01*
X162921789Y-75781868D01*
X162921786Y-75781864D01*
X162810292Y-75670370D01*
X162810288Y-75670367D01*
X162679185Y-75582766D01*
X162679172Y-75582759D01*
X162533501Y-75522421D01*
X162533489Y-75522418D01*
X162378845Y-75491657D01*
X162378842Y-75491657D01*
X162221158Y-75491657D01*
X162221155Y-75491657D01*
X162066510Y-75522418D01*
X162066498Y-75522421D01*
X161920827Y-75582759D01*
X161920814Y-75582766D01*
X161789711Y-75670367D01*
X161789707Y-75670370D01*
X161678213Y-75781864D01*
X161678210Y-75781868D01*
X161590609Y-75912971D01*
X161590602Y-75912984D01*
X161530264Y-76058655D01*
X161530261Y-76058667D01*
X161499500Y-76213310D01*
X159581591Y-76213310D01*
X159596628Y-76137714D01*
X159596628Y-76028069D01*
X159616313Y-75961030D01*
X159669117Y-75915275D01*
X159738275Y-75905331D01*
X159801831Y-75934356D01*
X159808309Y-75940388D01*
X159815442Y-75947521D01*
X159815446Y-75947524D01*
X159946549Y-76035125D01*
X159946562Y-76035132D01*
X160092233Y-76095470D01*
X160092238Y-76095472D01*
X160246888Y-76126234D01*
X160246891Y-76126235D01*
X160246893Y-76126235D01*
X160404579Y-76126235D01*
X160404580Y-76126234D01*
X160559232Y-76095472D01*
X160704914Y-76035129D01*
X160836024Y-75947524D01*
X160947524Y-75836024D01*
X161035129Y-75704914D01*
X161095472Y-75559232D01*
X161126235Y-75404577D01*
X161126235Y-75246893D01*
X161126235Y-75246890D01*
X161126234Y-75246888D01*
X161095473Y-75092245D01*
X161095472Y-75092238D01*
X161063693Y-75015516D01*
X167305137Y-75015516D01*
X167305137Y-75173209D01*
X167335898Y-75327852D01*
X167335901Y-75327864D01*
X167396239Y-75473535D01*
X167396246Y-75473548D01*
X167483847Y-75604651D01*
X167483850Y-75604655D01*
X167595344Y-75716149D01*
X167595348Y-75716152D01*
X167726451Y-75803753D01*
X167726464Y-75803760D01*
X167804365Y-75836027D01*
X167872140Y-75864100D01*
X168026790Y-75894862D01*
X168026793Y-75894863D01*
X168026795Y-75894863D01*
X168184481Y-75894863D01*
X168184482Y-75894862D01*
X168339134Y-75864100D01*
X168484816Y-75803757D01*
X168615926Y-75716152D01*
X168727426Y-75604652D01*
X168815031Y-75473542D01*
X168875374Y-75327860D01*
X168906137Y-75173205D01*
X168906137Y-75015521D01*
X168906137Y-75015518D01*
X168906136Y-75015516D01*
X168892419Y-74946556D01*
X168875374Y-74860866D01*
X168817766Y-74721786D01*
X168815034Y-74715190D01*
X168815027Y-74715177D01*
X168727426Y-74584074D01*
X168727423Y-74584070D01*
X168615929Y-74472576D01*
X168615925Y-74472573D01*
X168484822Y-74384972D01*
X168484809Y-74384965D01*
X168339138Y-74324627D01*
X168339126Y-74324624D01*
X168184482Y-74293863D01*
X168184479Y-74293863D01*
X168026795Y-74293863D01*
X168026792Y-74293863D01*
X167872147Y-74324624D01*
X167872135Y-74324627D01*
X167726464Y-74384965D01*
X167726451Y-74384972D01*
X167595348Y-74472573D01*
X167595344Y-74472576D01*
X167483850Y-74584070D01*
X167483847Y-74584074D01*
X167396246Y-74715177D01*
X167396239Y-74715190D01*
X167335901Y-74860861D01*
X167335898Y-74860873D01*
X167305137Y-75015516D01*
X161063693Y-75015516D01*
X161035132Y-74946562D01*
X161035125Y-74946549D01*
X160947524Y-74815446D01*
X160947521Y-74815442D01*
X160836027Y-74703948D01*
X160836023Y-74703945D01*
X160704920Y-74616344D01*
X160704907Y-74616337D01*
X160559236Y-74555999D01*
X160559224Y-74555996D01*
X160404580Y-74525235D01*
X160404577Y-74525235D01*
X160246893Y-74525235D01*
X160246890Y-74525235D01*
X160092245Y-74555996D01*
X160092233Y-74555999D01*
X159946562Y-74616337D01*
X159946549Y-74616344D01*
X159815446Y-74703945D01*
X159815442Y-74703948D01*
X159703948Y-74815442D01*
X159703945Y-74815446D01*
X159616344Y-74946549D01*
X159616337Y-74946562D01*
X159555999Y-75092233D01*
X159555996Y-75092245D01*
X159525235Y-75246888D01*
X159525235Y-75356538D01*
X159505550Y-75423577D01*
X159452746Y-75469332D01*
X159383588Y-75479276D01*
X159320032Y-75450251D01*
X159313554Y-75444219D01*
X159306420Y-75437085D01*
X159306416Y-75437082D01*
X159175313Y-75349481D01*
X159175300Y-75349474D01*
X159029629Y-75289136D01*
X159029617Y-75289133D01*
X158874973Y-75258372D01*
X158874970Y-75258372D01*
X158717286Y-75258372D01*
X158717283Y-75258372D01*
X158562638Y-75289133D01*
X158562626Y-75289136D01*
X158416955Y-75349474D01*
X158416942Y-75349481D01*
X158285839Y-75437082D01*
X158285835Y-75437085D01*
X158174341Y-75548579D01*
X158174338Y-75548583D01*
X158086737Y-75679686D01*
X158086730Y-75679699D01*
X158026392Y-75825370D01*
X158026389Y-75825382D01*
X157995628Y-75980025D01*
X157000500Y-75980025D01*
X157000500Y-75921158D01*
X157000500Y-75921155D01*
X157000499Y-75921153D01*
X156997352Y-75905331D01*
X156969737Y-75766503D01*
X156944226Y-75704914D01*
X156909397Y-75620827D01*
X156909390Y-75620814D01*
X156821789Y-75489711D01*
X156821786Y-75489707D01*
X156710292Y-75378213D01*
X156710288Y-75378210D01*
X156579185Y-75290609D01*
X156579172Y-75290602D01*
X156433501Y-75230264D01*
X156433489Y-75230261D01*
X156278845Y-75199500D01*
X156278842Y-75199500D01*
X156121158Y-75199500D01*
X156121155Y-75199500D01*
X155966510Y-75230261D01*
X155966498Y-75230264D01*
X155820827Y-75290602D01*
X155820814Y-75290609D01*
X155689711Y-75378210D01*
X155689707Y-75378213D01*
X155578213Y-75489707D01*
X155578210Y-75489711D01*
X155490609Y-75620814D01*
X155490602Y-75620827D01*
X155430264Y-75766498D01*
X155430261Y-75766510D01*
X155399500Y-75921153D01*
X152000500Y-75921153D01*
X152000500Y-73421153D01*
X158849500Y-73421153D01*
X158849500Y-73578846D01*
X158880261Y-73733489D01*
X158880264Y-73733501D01*
X158940602Y-73879172D01*
X158940609Y-73879185D01*
X159028210Y-74010288D01*
X159028213Y-74010292D01*
X159139707Y-74121786D01*
X159139711Y-74121789D01*
X159270814Y-74209390D01*
X159270827Y-74209397D01*
X159383119Y-74255909D01*
X159416503Y-74269737D01*
X159537792Y-74293863D01*
X159571153Y-74300499D01*
X159571156Y-74300500D01*
X159571158Y-74300500D01*
X159728844Y-74300500D01*
X159728845Y-74300499D01*
X159883497Y-74269737D01*
X160029179Y-74209394D01*
X160160289Y-74121789D01*
X160260925Y-74021153D01*
X171399500Y-74021153D01*
X171399500Y-74178846D01*
X171430261Y-74333489D01*
X171430264Y-74333501D01*
X171490602Y-74479172D01*
X171490609Y-74479185D01*
X171578210Y-74610288D01*
X171578213Y-74610292D01*
X171689707Y-74721786D01*
X171689711Y-74721789D01*
X171820814Y-74809390D01*
X171820827Y-74809397D01*
X171945074Y-74860861D01*
X171966503Y-74869737D01*
X172121153Y-74900499D01*
X172121156Y-74900500D01*
X172121158Y-74900500D01*
X172278844Y-74900500D01*
X172278845Y-74900499D01*
X172433497Y-74869737D01*
X172579179Y-74809394D01*
X172710289Y-74721789D01*
X172821789Y-74610289D01*
X172909394Y-74479179D01*
X172969737Y-74333497D01*
X173000500Y-74178842D01*
X173000500Y-74021158D01*
X173000500Y-74021155D01*
X173000499Y-74021153D01*
X172973474Y-73885292D01*
X172969737Y-73866503D01*
X172923214Y-73754185D01*
X172909397Y-73720827D01*
X172909390Y-73720814D01*
X172821789Y-73589711D01*
X172821786Y-73589707D01*
X172710292Y-73478213D01*
X172710288Y-73478210D01*
X172579185Y-73390609D01*
X172579172Y-73390602D01*
X172433501Y-73330264D01*
X172433489Y-73330261D01*
X172278845Y-73299500D01*
X172278842Y-73299500D01*
X172121158Y-73299500D01*
X172121155Y-73299500D01*
X171966510Y-73330261D01*
X171966498Y-73330264D01*
X171820827Y-73390602D01*
X171820814Y-73390609D01*
X171689711Y-73478210D01*
X171689707Y-73478213D01*
X171578213Y-73589707D01*
X171578210Y-73589711D01*
X171490609Y-73720814D01*
X171490602Y-73720827D01*
X171430264Y-73866498D01*
X171430261Y-73866510D01*
X171399500Y-74021153D01*
X160260925Y-74021153D01*
X160271789Y-74010289D01*
X160359394Y-73879179D01*
X160419737Y-73733497D01*
X160450500Y-73578842D01*
X160450500Y-73421158D01*
X160450500Y-73421155D01*
X160450499Y-73421153D01*
X160432419Y-73330261D01*
X160419737Y-73266503D01*
X160367959Y-73141498D01*
X160359397Y-73120827D01*
X160359390Y-73120814D01*
X160271789Y-72989711D01*
X160271786Y-72989707D01*
X160160292Y-72878213D01*
X160160288Y-72878210D01*
X160029185Y-72790609D01*
X160029172Y-72790602D01*
X159883501Y-72730264D01*
X159883489Y-72730261D01*
X159728845Y-72699500D01*
X159728842Y-72699500D01*
X159571158Y-72699500D01*
X159571155Y-72699500D01*
X159416510Y-72730261D01*
X159416498Y-72730264D01*
X159270827Y-72790602D01*
X159270814Y-72790609D01*
X159139711Y-72878210D01*
X159139707Y-72878213D01*
X159028213Y-72989707D01*
X159028210Y-72989711D01*
X158940609Y-73120814D01*
X158940602Y-73120827D01*
X158880264Y-73266498D01*
X158880261Y-73266510D01*
X158849500Y-73421153D01*
X152000500Y-73421153D01*
X152000500Y-70121153D01*
X155599500Y-70121153D01*
X155599500Y-70278846D01*
X155630261Y-70433489D01*
X155630264Y-70433501D01*
X155690602Y-70579172D01*
X155690609Y-70579185D01*
X155778210Y-70710288D01*
X155778213Y-70710292D01*
X155889707Y-70821786D01*
X155889711Y-70821789D01*
X156020814Y-70909390D01*
X156020827Y-70909397D01*
X156166498Y-70969735D01*
X156166503Y-70969737D01*
X156321153Y-71000499D01*
X156321156Y-71000500D01*
X156321158Y-71000500D01*
X156478844Y-71000500D01*
X156478845Y-71000499D01*
X156633497Y-70969737D01*
X156779179Y-70909394D01*
X156910289Y-70821789D01*
X157021789Y-70710289D01*
X157109394Y-70579179D01*
X157109395Y-70579176D01*
X157109397Y-70579173D01*
X157112719Y-70571153D01*
X157574500Y-70571153D01*
X157574500Y-70728846D01*
X157605261Y-70883489D01*
X157605264Y-70883501D01*
X157665602Y-71029172D01*
X157665609Y-71029185D01*
X157753210Y-71160288D01*
X157753213Y-71160292D01*
X157864707Y-71271786D01*
X157864711Y-71271789D01*
X157995814Y-71359390D01*
X157995827Y-71359397D01*
X158141498Y-71419735D01*
X158141503Y-71419737D01*
X158251526Y-71441622D01*
X158296153Y-71450499D01*
X158296156Y-71450500D01*
X158296158Y-71450500D01*
X158453844Y-71450500D01*
X158453845Y-71450499D01*
X158608497Y-71419737D01*
X158752011Y-71360292D01*
X158754172Y-71359397D01*
X158754172Y-71359396D01*
X158754179Y-71359394D01*
X158885289Y-71271789D01*
X158996789Y-71160289D01*
X159084394Y-71029179D01*
X159144737Y-70883497D01*
X159175500Y-70728842D01*
X159175500Y-70571158D01*
X159175500Y-70571155D01*
X159175499Y-70571153D01*
X159149264Y-70439257D01*
X159145662Y-70421153D01*
X159799500Y-70421153D01*
X159799500Y-70578846D01*
X159830261Y-70733489D01*
X159830264Y-70733501D01*
X159890602Y-70879172D01*
X159890609Y-70879185D01*
X159978210Y-71010288D01*
X159978213Y-71010292D01*
X160089707Y-71121786D01*
X160089711Y-71121789D01*
X160220814Y-71209390D01*
X160220827Y-71209397D01*
X160366498Y-71269735D01*
X160366503Y-71269737D01*
X160521153Y-71300499D01*
X160521156Y-71300500D01*
X160521158Y-71300500D01*
X160678844Y-71300500D01*
X160678845Y-71300499D01*
X160833497Y-71269737D01*
X160979179Y-71209394D01*
X161110289Y-71121789D01*
X161221789Y-71010289D01*
X161309394Y-70879179D01*
X161369737Y-70733497D01*
X161372192Y-70721153D01*
X172739500Y-70721153D01*
X172739500Y-70878846D01*
X172770261Y-71033489D01*
X172770264Y-71033501D01*
X172830602Y-71179172D01*
X172830609Y-71179185D01*
X172918210Y-71310288D01*
X172918213Y-71310292D01*
X173029707Y-71421786D01*
X173029711Y-71421789D01*
X173160814Y-71509390D01*
X173160827Y-71509397D01*
X173306498Y-71569735D01*
X173306503Y-71569737D01*
X173461153Y-71600499D01*
X173461156Y-71600500D01*
X173461158Y-71600500D01*
X173618844Y-71600500D01*
X173618845Y-71600499D01*
X173773497Y-71569737D01*
X173919179Y-71509394D01*
X173989360Y-71462499D01*
X174056036Y-71441622D01*
X174105701Y-71451040D01*
X174185605Y-71484138D01*
X174312555Y-71509390D01*
X174340255Y-71514900D01*
X174340258Y-71514901D01*
X174340260Y-71514901D01*
X174497946Y-71514901D01*
X174497947Y-71514900D01*
X174652599Y-71484138D01*
X174765268Y-71437468D01*
X174798274Y-71423798D01*
X174798274Y-71423797D01*
X174798281Y-71423795D01*
X174929391Y-71336190D01*
X175040891Y-71224690D01*
X175040893Y-71224686D01*
X175042027Y-71223553D01*
X175103350Y-71190068D01*
X175173042Y-71195052D01*
X175228976Y-71236923D01*
X175232811Y-71242344D01*
X175278207Y-71310284D01*
X175278213Y-71310292D01*
X175389707Y-71421786D01*
X175389711Y-71421789D01*
X175520814Y-71509390D01*
X175520827Y-71509397D01*
X175666498Y-71569735D01*
X175666503Y-71569737D01*
X175821153Y-71600499D01*
X175821156Y-71600500D01*
X175821158Y-71600500D01*
X175978844Y-71600500D01*
X175978845Y-71600499D01*
X176133497Y-71569737D01*
X176279179Y-71509394D01*
X176410289Y-71421789D01*
X176518664Y-71313413D01*
X176579985Y-71279930D01*
X176649677Y-71284914D01*
X176705611Y-71326785D01*
X176709438Y-71332193D01*
X176720497Y-71348745D01*
X176728212Y-71360291D01*
X176839707Y-71471786D01*
X176839711Y-71471789D01*
X176970814Y-71559390D01*
X176970827Y-71559397D01*
X177070060Y-71600500D01*
X177116503Y-71619737D01*
X177271153Y-71650499D01*
X177271156Y-71650500D01*
X177271158Y-71650500D01*
X177428844Y-71650500D01*
X177428845Y-71650499D01*
X177583497Y-71619737D01*
X177729179Y-71559394D01*
X177860289Y-71471789D01*
X177971789Y-71360289D01*
X178059394Y-71229179D01*
X178119737Y-71083497D01*
X178150500Y-70928842D01*
X178150500Y-70771158D01*
X178150500Y-70771155D01*
X178150499Y-70771153D01*
X178119737Y-70616503D01*
X178119735Y-70616498D01*
X178094586Y-70555781D01*
X178077452Y-70514416D01*
X178416821Y-70514416D01*
X178416821Y-70672109D01*
X178447582Y-70826752D01*
X178447585Y-70826764D01*
X178507923Y-70972435D01*
X178507930Y-70972448D01*
X178595531Y-71103551D01*
X178595534Y-71103555D01*
X178707028Y-71215049D01*
X178707032Y-71215052D01*
X178838135Y-71302653D01*
X178838148Y-71302660D01*
X178977279Y-71360289D01*
X178983824Y-71363000D01*
X179138474Y-71393762D01*
X179138477Y-71393763D01*
X179138479Y-71393763D01*
X179296165Y-71393763D01*
X179296166Y-71393762D01*
X179450818Y-71363000D01*
X179596500Y-71302657D01*
X179727610Y-71215052D01*
X179839110Y-71103552D01*
X179926715Y-70972442D01*
X179927836Y-70969737D01*
X179965343Y-70879185D01*
X179987058Y-70826760D01*
X180017821Y-70672105D01*
X180017821Y-70514421D01*
X180017821Y-70514418D01*
X180017820Y-70514416D01*
X180009147Y-70470814D01*
X179987058Y-70359766D01*
X179972381Y-70324332D01*
X179926718Y-70214090D01*
X179926711Y-70214077D01*
X179839110Y-70082974D01*
X179839107Y-70082970D01*
X179727613Y-69971476D01*
X179727609Y-69971473D01*
X179596506Y-69883872D01*
X179596493Y-69883865D01*
X179450822Y-69823527D01*
X179450810Y-69823524D01*
X179296166Y-69792763D01*
X179296163Y-69792763D01*
X179138479Y-69792763D01*
X179138476Y-69792763D01*
X178983831Y-69823524D01*
X178983819Y-69823527D01*
X178838148Y-69883865D01*
X178838135Y-69883872D01*
X178707032Y-69971473D01*
X178707028Y-69971476D01*
X178595534Y-70082970D01*
X178595531Y-70082974D01*
X178507930Y-70214077D01*
X178507923Y-70214090D01*
X178447585Y-70359761D01*
X178447582Y-70359773D01*
X178416821Y-70514416D01*
X178077452Y-70514416D01*
X178059395Y-70470823D01*
X178059390Y-70470814D01*
X177971789Y-70339711D01*
X177971786Y-70339707D01*
X177860292Y-70228213D01*
X177860288Y-70228210D01*
X177729185Y-70140609D01*
X177729172Y-70140602D01*
X177583501Y-70080264D01*
X177583489Y-70080261D01*
X177428845Y-70049500D01*
X177428842Y-70049500D01*
X177271158Y-70049500D01*
X177271155Y-70049500D01*
X177116510Y-70080261D01*
X177116498Y-70080264D01*
X176970827Y-70140602D01*
X176970814Y-70140609D01*
X176839711Y-70228210D01*
X176731336Y-70336585D01*
X176670013Y-70370069D01*
X176600321Y-70365085D01*
X176544388Y-70323213D01*
X176540552Y-70317792D01*
X176521790Y-70289712D01*
X176521786Y-70289707D01*
X176410292Y-70178213D01*
X176410288Y-70178210D01*
X176279185Y-70090609D01*
X176279172Y-70090602D01*
X176133501Y-70030264D01*
X176133489Y-70030261D01*
X175978845Y-69999500D01*
X175978842Y-69999500D01*
X175821158Y-69999500D01*
X175821155Y-69999500D01*
X175666510Y-70030261D01*
X175666498Y-70030264D01*
X175520827Y-70090602D01*
X175520814Y-70090609D01*
X175389711Y-70178210D01*
X175277073Y-70290848D01*
X175215750Y-70324332D01*
X175146058Y-70319348D01*
X175090125Y-70277476D01*
X175086302Y-70272075D01*
X175040891Y-70204112D01*
X175040889Y-70204109D01*
X174929394Y-70092614D01*
X174929390Y-70092611D01*
X174798287Y-70005010D01*
X174798274Y-70005003D01*
X174652603Y-69944665D01*
X174652591Y-69944662D01*
X174497947Y-69913901D01*
X174497944Y-69913901D01*
X174340260Y-69913901D01*
X174340257Y-69913901D01*
X174185612Y-69944662D01*
X174185600Y-69944665D01*
X174039929Y-70005003D01*
X174039918Y-70005009D01*
X173969740Y-70051901D01*
X173903063Y-70072778D01*
X173853399Y-70063359D01*
X173773497Y-70030263D01*
X173773489Y-70030261D01*
X173618845Y-69999500D01*
X173618842Y-69999500D01*
X173461158Y-69999500D01*
X173461155Y-69999500D01*
X173306510Y-70030261D01*
X173306498Y-70030264D01*
X173160827Y-70090602D01*
X173160814Y-70090609D01*
X173029711Y-70178210D01*
X173029707Y-70178213D01*
X172918213Y-70289707D01*
X172918210Y-70289711D01*
X172830609Y-70420814D01*
X172830602Y-70420827D01*
X172770264Y-70566498D01*
X172770261Y-70566510D01*
X172739500Y-70721153D01*
X161372192Y-70721153D01*
X161400500Y-70578842D01*
X161400500Y-70421158D01*
X161400500Y-70421155D01*
X161400499Y-70421153D01*
X161381017Y-70323213D01*
X161369737Y-70266503D01*
X161333569Y-70179185D01*
X161309397Y-70120827D01*
X161309390Y-70120814D01*
X161221789Y-69989711D01*
X161221786Y-69989707D01*
X161110292Y-69878213D01*
X161110288Y-69878210D01*
X161020429Y-69818168D01*
X160979185Y-69790609D01*
X160979172Y-69790602D01*
X160833501Y-69730264D01*
X160833489Y-69730261D01*
X160787701Y-69721153D01*
X163599500Y-69721153D01*
X163599500Y-69878846D01*
X163630261Y-70033489D01*
X163630264Y-70033501D01*
X163690602Y-70179172D01*
X163690609Y-70179185D01*
X163778210Y-70310288D01*
X163778213Y-70310292D01*
X163889707Y-70421786D01*
X163889711Y-70421789D01*
X164020814Y-70509390D01*
X164020827Y-70509397D01*
X164132810Y-70555781D01*
X164166503Y-70569737D01*
X164321153Y-70600499D01*
X164321156Y-70600500D01*
X164321158Y-70600500D01*
X164478844Y-70600500D01*
X164478845Y-70600499D01*
X164489179Y-70598443D01*
X164514287Y-70593450D01*
X164514292Y-70593449D01*
X164599800Y-70576439D01*
X164633497Y-70569737D01*
X164759334Y-70517614D01*
X164779172Y-70509397D01*
X164779172Y-70509396D01*
X164779179Y-70509394D01*
X164910289Y-70421789D01*
X165021789Y-70310289D01*
X165109394Y-70179179D01*
X165169737Y-70033497D01*
X165200500Y-69878842D01*
X165200500Y-69721158D01*
X165200500Y-69721155D01*
X165200499Y-69721153D01*
X165172066Y-69578211D01*
X165169737Y-69566503D01*
X165138298Y-69490602D01*
X165109397Y-69420827D01*
X165109390Y-69420814D01*
X165021789Y-69289711D01*
X165021786Y-69289707D01*
X164910292Y-69178213D01*
X164910288Y-69178210D01*
X164779185Y-69090609D01*
X164779172Y-69090602D01*
X164633501Y-69030264D01*
X164633489Y-69030261D01*
X164478845Y-68999500D01*
X164478842Y-68999500D01*
X164321158Y-68999500D01*
X164321155Y-68999500D01*
X164166510Y-69030261D01*
X164166498Y-69030264D01*
X164020827Y-69090602D01*
X164020814Y-69090609D01*
X163889711Y-69178210D01*
X163889707Y-69178213D01*
X163778213Y-69289707D01*
X163778210Y-69289711D01*
X163690609Y-69420814D01*
X163690602Y-69420827D01*
X163630264Y-69566498D01*
X163630261Y-69566510D01*
X163599500Y-69721153D01*
X160787701Y-69721153D01*
X160678845Y-69699500D01*
X160678842Y-69699500D01*
X160521158Y-69699500D01*
X160521155Y-69699500D01*
X160366510Y-69730261D01*
X160366498Y-69730264D01*
X160220827Y-69790602D01*
X160220814Y-69790609D01*
X160089711Y-69878210D01*
X160089707Y-69878213D01*
X159978213Y-69989707D01*
X159978210Y-69989711D01*
X159890609Y-70120814D01*
X159890602Y-70120827D01*
X159830264Y-70266498D01*
X159830261Y-70266510D01*
X159799500Y-70421153D01*
X159145662Y-70421153D01*
X159144738Y-70416507D01*
X159144735Y-70416498D01*
X159084397Y-70270827D01*
X159084390Y-70270814D01*
X158996789Y-70139711D01*
X158996786Y-70139707D01*
X158885292Y-70028213D01*
X158885288Y-70028210D01*
X158754185Y-69940609D01*
X158754172Y-69940602D01*
X158608501Y-69880264D01*
X158608489Y-69880261D01*
X158453845Y-69849500D01*
X158453842Y-69849500D01*
X158296158Y-69849500D01*
X158296155Y-69849500D01*
X158141510Y-69880261D01*
X158141498Y-69880264D01*
X157995827Y-69940602D01*
X157995814Y-69940609D01*
X157864711Y-70028210D01*
X157864707Y-70028213D01*
X157753213Y-70139707D01*
X157753210Y-70139711D01*
X157665609Y-70270814D01*
X157665602Y-70270827D01*
X157605264Y-70416498D01*
X157605261Y-70416510D01*
X157574500Y-70571153D01*
X157112719Y-70571153D01*
X157134895Y-70517614D01*
X157134895Y-70517613D01*
X157136217Y-70514421D01*
X157169737Y-70433497D01*
X157200500Y-70278842D01*
X157200500Y-70121158D01*
X157200500Y-70121155D01*
X157200499Y-70121153D01*
X157192365Y-70080261D01*
X157169737Y-69966503D01*
X157169735Y-69966498D01*
X157109397Y-69820827D01*
X157109390Y-69820814D01*
X157021789Y-69689711D01*
X157021786Y-69689707D01*
X156910292Y-69578213D01*
X156910288Y-69578210D01*
X156779185Y-69490609D01*
X156779172Y-69490602D01*
X156633501Y-69430264D01*
X156633489Y-69430261D01*
X156478845Y-69399500D01*
X156478842Y-69399500D01*
X156321158Y-69399500D01*
X156321155Y-69399500D01*
X156166510Y-69430261D01*
X156166498Y-69430264D01*
X156020827Y-69490602D01*
X156020814Y-69490609D01*
X155889711Y-69578210D01*
X155889707Y-69578213D01*
X155778213Y-69689707D01*
X155778210Y-69689711D01*
X155690609Y-69820814D01*
X155690602Y-69820827D01*
X155630264Y-69966498D01*
X155630261Y-69966510D01*
X155599500Y-70121153D01*
X152000500Y-70121153D01*
X152000500Y-68721153D01*
X156899500Y-68721153D01*
X156899500Y-68878846D01*
X156930261Y-69033489D01*
X156930264Y-69033501D01*
X156990602Y-69179172D01*
X156990609Y-69179185D01*
X157078210Y-69310288D01*
X157078213Y-69310292D01*
X157189707Y-69421786D01*
X157189711Y-69421789D01*
X157320814Y-69509390D01*
X157320827Y-69509397D01*
X157458683Y-69566498D01*
X157466503Y-69569737D01*
X157621153Y-69600499D01*
X157621156Y-69600500D01*
X157621158Y-69600500D01*
X157778844Y-69600500D01*
X157778845Y-69600499D01*
X157933497Y-69569737D01*
X158079179Y-69509394D01*
X158210289Y-69421789D01*
X158321789Y-69310289D01*
X158409394Y-69179179D01*
X158469737Y-69033497D01*
X158500500Y-68878842D01*
X158500500Y-68721158D01*
X158500500Y-68721155D01*
X158500499Y-68721153D01*
X158469738Y-68566510D01*
X158469737Y-68566503D01*
X158469735Y-68566498D01*
X158409397Y-68420827D01*
X158409390Y-68420814D01*
X158321789Y-68289711D01*
X158321786Y-68289707D01*
X158210292Y-68178213D01*
X158210288Y-68178210D01*
X158079185Y-68090609D01*
X158079172Y-68090602D01*
X157933501Y-68030264D01*
X157933489Y-68030261D01*
X157778845Y-67999500D01*
X157778842Y-67999500D01*
X157621158Y-67999500D01*
X157621155Y-67999500D01*
X157466510Y-68030261D01*
X157466498Y-68030264D01*
X157320827Y-68090602D01*
X157320814Y-68090609D01*
X157189711Y-68178210D01*
X157189707Y-68178213D01*
X157078213Y-68289707D01*
X157078210Y-68289711D01*
X156990609Y-68420814D01*
X156990602Y-68420827D01*
X156930264Y-68566498D01*
X156930261Y-68566510D01*
X156899500Y-68721153D01*
X152000500Y-68721153D01*
X152000500Y-64621153D01*
X170119500Y-64621153D01*
X170119500Y-64778846D01*
X170150261Y-64933489D01*
X170150264Y-64933501D01*
X170210602Y-65079172D01*
X170210609Y-65079185D01*
X170298210Y-65210288D01*
X170298213Y-65210292D01*
X170409707Y-65321786D01*
X170409711Y-65321789D01*
X170540814Y-65409390D01*
X170540827Y-65409397D01*
X170686498Y-65469735D01*
X170686503Y-65469737D01*
X170841153Y-65500499D01*
X170841156Y-65500500D01*
X170841158Y-65500500D01*
X170998844Y-65500500D01*
X170998845Y-65500499D01*
X171153497Y-65469737D01*
X171299179Y-65409394D01*
X171430289Y-65321789D01*
X171541789Y-65210289D01*
X171629394Y-65079179D01*
X171689737Y-64933497D01*
X171720500Y-64778842D01*
X171720500Y-64721153D01*
X174899500Y-64721153D01*
X174899500Y-64878846D01*
X174930261Y-65033489D01*
X174930264Y-65033501D01*
X174990602Y-65179172D01*
X174990609Y-65179185D01*
X175078210Y-65310288D01*
X175078213Y-65310292D01*
X175189707Y-65421786D01*
X175189711Y-65421789D01*
X175320814Y-65509390D01*
X175320827Y-65509397D01*
X175466498Y-65569735D01*
X175466503Y-65569737D01*
X175621153Y-65600499D01*
X175621156Y-65600500D01*
X175621158Y-65600500D01*
X175778844Y-65600500D01*
X175778845Y-65600499D01*
X175933497Y-65569737D01*
X176079179Y-65509394D01*
X176210289Y-65421789D01*
X176321789Y-65310289D01*
X176409394Y-65179179D01*
X176469737Y-65033497D01*
X176500500Y-64878842D01*
X176500500Y-64721158D01*
X176500500Y-64721155D01*
X176500499Y-64721153D01*
X176469737Y-64566503D01*
X176409794Y-64421786D01*
X176409397Y-64420827D01*
X176409390Y-64420814D01*
X176321789Y-64289711D01*
X176321786Y-64289707D01*
X176210292Y-64178213D01*
X176210288Y-64178210D01*
X176079185Y-64090609D01*
X176079172Y-64090602D01*
X175933501Y-64030264D01*
X175933489Y-64030261D01*
X175778845Y-63999500D01*
X175778842Y-63999500D01*
X175621158Y-63999500D01*
X175621155Y-63999500D01*
X175466510Y-64030261D01*
X175466498Y-64030264D01*
X175320827Y-64090602D01*
X175320814Y-64090609D01*
X175189711Y-64178210D01*
X175189707Y-64178213D01*
X175078213Y-64289707D01*
X175078210Y-64289711D01*
X174990609Y-64420814D01*
X174990602Y-64420827D01*
X174930264Y-64566498D01*
X174930261Y-64566510D01*
X174899500Y-64721153D01*
X171720500Y-64721153D01*
X171720500Y-64621158D01*
X171720500Y-64621155D01*
X171720499Y-64621153D01*
X171698269Y-64509397D01*
X171689737Y-64466503D01*
X171670812Y-64420814D01*
X171629397Y-64320827D01*
X171629390Y-64320814D01*
X171541789Y-64189711D01*
X171541786Y-64189707D01*
X171430292Y-64078213D01*
X171430288Y-64078210D01*
X171299185Y-63990609D01*
X171299172Y-63990602D01*
X171153501Y-63930264D01*
X171153489Y-63930261D01*
X170998845Y-63899500D01*
X170998842Y-63899500D01*
X170841158Y-63899500D01*
X170841155Y-63899500D01*
X170686510Y-63930261D01*
X170686498Y-63930264D01*
X170540827Y-63990602D01*
X170540814Y-63990609D01*
X170409711Y-64078210D01*
X170409707Y-64078213D01*
X170298213Y-64189707D01*
X170298210Y-64189711D01*
X170210609Y-64320814D01*
X170210602Y-64320827D01*
X170150264Y-64466498D01*
X170150261Y-64466510D01*
X170119500Y-64621153D01*
X152000500Y-64621153D01*
X152000500Y-64303439D01*
X152020185Y-64236400D01*
X152072989Y-64190645D01*
X152142147Y-64180701D01*
X152205703Y-64209726D01*
X152227602Y-64234548D01*
X152278210Y-64310288D01*
X152278213Y-64310292D01*
X152389707Y-64421786D01*
X152389711Y-64421789D01*
X152520814Y-64509390D01*
X152520827Y-64509397D01*
X152658683Y-64566498D01*
X152666503Y-64569737D01*
X152821153Y-64600499D01*
X152821156Y-64600500D01*
X152821158Y-64600500D01*
X152978844Y-64600500D01*
X152978845Y-64600499D01*
X153133497Y-64569737D01*
X153279179Y-64509394D01*
X153410289Y-64421789D01*
X153521789Y-64310289D01*
X153609394Y-64179179D01*
X153669737Y-64033497D01*
X153700500Y-63878842D01*
X153700500Y-63721158D01*
X153700500Y-63721155D01*
X153700499Y-63721153D01*
X153678447Y-63610292D01*
X153669737Y-63566503D01*
X153669735Y-63566498D01*
X153609397Y-63420827D01*
X153609390Y-63420814D01*
X153521789Y-63289711D01*
X153521786Y-63289707D01*
X153410292Y-63178213D01*
X153410288Y-63178210D01*
X153362312Y-63146153D01*
X162099500Y-63146153D01*
X162099500Y-63303846D01*
X162130261Y-63458489D01*
X162130264Y-63458501D01*
X162190602Y-63604172D01*
X162190609Y-63604185D01*
X162278210Y-63735288D01*
X162278213Y-63735292D01*
X162389707Y-63846786D01*
X162389711Y-63846789D01*
X162520814Y-63934390D01*
X162520827Y-63934397D01*
X162656520Y-63990602D01*
X162666503Y-63994737D01*
X162821153Y-64025499D01*
X162821156Y-64025500D01*
X162821158Y-64025500D01*
X162978844Y-64025500D01*
X162978845Y-64025499D01*
X163133497Y-63994737D01*
X163279179Y-63934394D01*
X163388271Y-63861501D01*
X163454948Y-63840623D01*
X163522328Y-63859107D01*
X163544843Y-63876922D01*
X163564707Y-63896786D01*
X163564711Y-63896789D01*
X163695814Y-63984390D01*
X163695827Y-63984397D01*
X163841498Y-64044735D01*
X163841503Y-64044737D01*
X163996153Y-64075499D01*
X163996156Y-64075500D01*
X163996158Y-64075500D01*
X164153844Y-64075500D01*
X164153845Y-64075499D01*
X164308497Y-64044737D01*
X164439182Y-63990606D01*
X164454172Y-63984397D01*
X164454172Y-63984396D01*
X164454179Y-63984394D01*
X164585289Y-63896789D01*
X164660062Y-63822015D01*
X164721383Y-63788532D01*
X164791075Y-63793516D01*
X164816635Y-63806598D01*
X164820811Y-63809388D01*
X164820815Y-63809390D01*
X164820821Y-63809394D01*
X164820823Y-63809395D01*
X164820827Y-63809397D01*
X164946619Y-63861501D01*
X164966503Y-63869737D01*
X165098978Y-63896088D01*
X165121153Y-63900499D01*
X165121156Y-63900500D01*
X165121158Y-63900500D01*
X165278844Y-63900500D01*
X165278845Y-63900499D01*
X165433497Y-63869737D01*
X165563740Y-63815789D01*
X165579172Y-63809397D01*
X165579172Y-63809396D01*
X165579179Y-63809394D01*
X165710289Y-63721789D01*
X165821789Y-63610289D01*
X165909394Y-63479179D01*
X165969737Y-63333497D01*
X166000500Y-63178842D01*
X166000500Y-63021158D01*
X166000500Y-63021155D01*
X166000499Y-63021153D01*
X165978447Y-62910292D01*
X165969737Y-62866503D01*
X165961170Y-62845821D01*
X165909397Y-62720827D01*
X165909390Y-62720814D01*
X165821789Y-62589711D01*
X165821786Y-62589707D01*
X165710292Y-62478213D01*
X165710288Y-62478210D01*
X165579185Y-62390609D01*
X165579172Y-62390602D01*
X165433501Y-62330264D01*
X165433489Y-62330261D01*
X165278845Y-62299500D01*
X165278842Y-62299500D01*
X165121158Y-62299500D01*
X165121155Y-62299500D01*
X164966510Y-62330261D01*
X164966498Y-62330264D01*
X164820827Y-62390602D01*
X164820814Y-62390609D01*
X164689711Y-62478210D01*
X164689707Y-62478213D01*
X164614938Y-62552983D01*
X164553615Y-62586468D01*
X164483923Y-62581484D01*
X164458364Y-62568402D01*
X164454179Y-62565605D01*
X164454177Y-62565604D01*
X164308501Y-62505264D01*
X164308489Y-62505261D01*
X164153845Y-62474500D01*
X164153842Y-62474500D01*
X163996158Y-62474500D01*
X163996155Y-62474500D01*
X163841510Y-62505261D01*
X163841498Y-62505264D01*
X163695827Y-62565602D01*
X163695816Y-62565608D01*
X163586727Y-62638499D01*
X163520050Y-62659376D01*
X163452670Y-62640891D01*
X163430156Y-62623077D01*
X163410292Y-62603213D01*
X163410288Y-62603210D01*
X163279185Y-62515609D01*
X163279172Y-62515602D01*
X163133501Y-62455264D01*
X163133489Y-62455261D01*
X162978845Y-62424500D01*
X162978842Y-62424500D01*
X162821158Y-62424500D01*
X162821155Y-62424500D01*
X162666510Y-62455261D01*
X162666498Y-62455264D01*
X162520827Y-62515602D01*
X162520814Y-62515609D01*
X162389711Y-62603210D01*
X162389707Y-62603213D01*
X162278213Y-62714707D01*
X162278210Y-62714711D01*
X162190609Y-62845814D01*
X162190602Y-62845827D01*
X162130264Y-62991498D01*
X162130261Y-62991510D01*
X162099500Y-63146153D01*
X153362312Y-63146153D01*
X153279185Y-63090609D01*
X153279172Y-63090602D01*
X153133501Y-63030264D01*
X153133489Y-63030261D01*
X152978845Y-62999500D01*
X152978842Y-62999500D01*
X152821158Y-62999500D01*
X152821155Y-62999500D01*
X152666510Y-63030261D01*
X152666498Y-63030264D01*
X152520827Y-63090602D01*
X152520814Y-63090609D01*
X152389711Y-63178210D01*
X152389707Y-63178213D01*
X152278213Y-63289707D01*
X152278210Y-63289711D01*
X152227602Y-63365451D01*
X152173989Y-63410256D01*
X152104664Y-63418963D01*
X152041637Y-63388808D01*
X152004918Y-63329365D01*
X152000500Y-63296560D01*
X152000500Y-61146455D01*
X154882000Y-61146455D01*
X154882000Y-61304148D01*
X154912761Y-61458791D01*
X154912764Y-61458803D01*
X154973102Y-61604474D01*
X154973109Y-61604487D01*
X155060710Y-61735590D01*
X155060713Y-61735594D01*
X155172207Y-61847088D01*
X155172211Y-61847091D01*
X155303314Y-61934692D01*
X155303327Y-61934699D01*
X155448998Y-61995037D01*
X155449003Y-61995039D01*
X155578582Y-62020814D01*
X155603653Y-62025801D01*
X155603656Y-62025802D01*
X155755479Y-62025802D01*
X155822518Y-62045487D01*
X155858581Y-62080911D01*
X155878210Y-62110289D01*
X155989707Y-62221786D01*
X155989711Y-62221789D01*
X156120814Y-62309390D01*
X156120827Y-62309397D01*
X156266498Y-62369735D01*
X156266503Y-62369737D01*
X156421153Y-62400499D01*
X156421156Y-62400500D01*
X156421158Y-62400500D01*
X156578844Y-62400500D01*
X156578845Y-62400499D01*
X156733497Y-62369737D01*
X156879179Y-62309394D01*
X157010289Y-62221789D01*
X157121789Y-62110289D01*
X157209394Y-61979179D01*
X157227818Y-61934699D01*
X157233429Y-61921153D01*
X171099500Y-61921153D01*
X171099500Y-62078846D01*
X171130261Y-62233489D01*
X171130264Y-62233501D01*
X171190602Y-62379172D01*
X171190609Y-62379185D01*
X171278210Y-62510288D01*
X171278213Y-62510292D01*
X171389707Y-62621786D01*
X171389711Y-62621789D01*
X171520814Y-62709390D01*
X171520827Y-62709397D01*
X171666498Y-62769735D01*
X171666503Y-62769737D01*
X171821153Y-62800499D01*
X171821156Y-62800500D01*
X171821158Y-62800500D01*
X171978844Y-62800500D01*
X171978845Y-62800499D01*
X172133497Y-62769737D01*
X172251592Y-62720821D01*
X172279172Y-62709397D01*
X172279172Y-62709396D01*
X172279179Y-62709394D01*
X172410289Y-62621789D01*
X172521789Y-62510289D01*
X172609394Y-62379179D01*
X172669737Y-62233497D01*
X172700500Y-62078842D01*
X172700500Y-61921158D01*
X172700500Y-61921155D01*
X172700499Y-61921153D01*
X172672066Y-61778211D01*
X172669737Y-61766503D01*
X172638298Y-61690602D01*
X172609397Y-61620827D01*
X172609390Y-61620814D01*
X172521789Y-61489711D01*
X172521786Y-61489707D01*
X172410292Y-61378213D01*
X172410288Y-61378210D01*
X172279185Y-61290609D01*
X172279172Y-61290602D01*
X172133501Y-61230264D01*
X172133489Y-61230261D01*
X171978845Y-61199500D01*
X171978842Y-61199500D01*
X171821158Y-61199500D01*
X171821155Y-61199500D01*
X171666510Y-61230261D01*
X171666498Y-61230264D01*
X171520827Y-61290602D01*
X171520814Y-61290609D01*
X171389711Y-61378210D01*
X171389707Y-61378213D01*
X171278213Y-61489707D01*
X171278210Y-61489711D01*
X171190609Y-61620814D01*
X171190602Y-61620827D01*
X171130264Y-61766498D01*
X171130261Y-61766510D01*
X171099500Y-61921153D01*
X157233429Y-61921153D01*
X157255603Y-61867621D01*
X157255605Y-61867614D01*
X157269737Y-61833497D01*
X157300500Y-61678842D01*
X157300500Y-61521158D01*
X157300500Y-61521155D01*
X157300499Y-61521153D01*
X157272066Y-61378211D01*
X157269737Y-61366503D01*
X157252656Y-61325265D01*
X157209397Y-61220827D01*
X157209390Y-61220814D01*
X157121789Y-61089711D01*
X157121786Y-61089707D01*
X157010292Y-60978213D01*
X157010288Y-60978210D01*
X156879185Y-60890609D01*
X156879172Y-60890602D01*
X156733501Y-60830264D01*
X156733489Y-60830261D01*
X156578845Y-60799500D01*
X156578842Y-60799500D01*
X156427021Y-60799500D01*
X156359982Y-60779815D01*
X156323919Y-60744391D01*
X156304289Y-60715012D01*
X156192792Y-60603515D01*
X156192788Y-60603512D01*
X156065062Y-60518168D01*
X156065060Y-60518167D01*
X156061681Y-60515909D01*
X156061672Y-60515904D01*
X155916001Y-60455566D01*
X155915989Y-60455563D01*
X155761345Y-60424802D01*
X155761342Y-60424802D01*
X155603658Y-60424802D01*
X155603655Y-60424802D01*
X155449010Y-60455563D01*
X155448998Y-60455566D01*
X155303327Y-60515904D01*
X155303314Y-60515911D01*
X155172211Y-60603512D01*
X155172207Y-60603515D01*
X155060713Y-60715009D01*
X155060710Y-60715013D01*
X154973109Y-60846116D01*
X154973102Y-60846129D01*
X154912764Y-60991800D01*
X154912761Y-60991812D01*
X154882000Y-61146455D01*
X152000500Y-61146455D01*
X152000500Y-60421153D01*
X159399500Y-60421153D01*
X159399500Y-60578846D01*
X159430261Y-60733489D01*
X159430264Y-60733501D01*
X159490602Y-60879172D01*
X159490609Y-60879185D01*
X159578210Y-61010288D01*
X159578213Y-61010292D01*
X159689707Y-61121786D01*
X159689711Y-61121789D01*
X159820814Y-61209390D01*
X159820827Y-61209397D01*
X159966498Y-61269735D01*
X159966503Y-61269737D01*
X160121153Y-61300499D01*
X160121156Y-61300500D01*
X160121158Y-61300500D01*
X160278844Y-61300500D01*
X160278845Y-61300499D01*
X160433497Y-61269737D01*
X160551592Y-61220821D01*
X160579172Y-61209397D01*
X160579172Y-61209396D01*
X160579179Y-61209394D01*
X160710289Y-61121789D01*
X160821789Y-61010289D01*
X160909394Y-60879179D01*
X160969737Y-60733497D01*
X161000500Y-60578842D01*
X161000500Y-60421158D01*
X161000500Y-60421155D01*
X161000499Y-60421153D01*
X160980058Y-60318392D01*
X160969737Y-60266503D01*
X160929266Y-60168796D01*
X160909397Y-60120827D01*
X160909390Y-60120814D01*
X160821789Y-59989711D01*
X160821786Y-59989707D01*
X160710292Y-59878213D01*
X160710288Y-59878210D01*
X160579185Y-59790609D01*
X160579172Y-59790602D01*
X160433501Y-59730264D01*
X160433489Y-59730261D01*
X160278845Y-59699500D01*
X160278842Y-59699500D01*
X160121158Y-59699500D01*
X160121155Y-59699500D01*
X159966510Y-59730261D01*
X159966498Y-59730264D01*
X159820827Y-59790602D01*
X159820814Y-59790609D01*
X159689711Y-59878210D01*
X159689707Y-59878213D01*
X159578213Y-59989707D01*
X159578210Y-59989711D01*
X159490609Y-60120814D01*
X159490602Y-60120827D01*
X159430264Y-60266498D01*
X159430261Y-60266510D01*
X159399500Y-60421153D01*
X152000500Y-60421153D01*
X152000500Y-58221153D01*
X154699500Y-58221153D01*
X154699500Y-58378846D01*
X154730261Y-58533489D01*
X154730264Y-58533501D01*
X154790602Y-58679172D01*
X154790609Y-58679185D01*
X154878210Y-58810288D01*
X154878213Y-58810292D01*
X154989707Y-58921786D01*
X154989711Y-58921789D01*
X155120814Y-59009390D01*
X155120827Y-59009397D01*
X155266498Y-59069735D01*
X155266503Y-59069737D01*
X155421153Y-59100499D01*
X155421156Y-59100500D01*
X155421158Y-59100500D01*
X155438573Y-59100500D01*
X155505612Y-59120185D01*
X155541675Y-59155610D01*
X155578207Y-59210284D01*
X155578213Y-59210292D01*
X155689707Y-59321786D01*
X155689711Y-59321789D01*
X155820814Y-59409390D01*
X155820827Y-59409397D01*
X155966498Y-59469735D01*
X155966503Y-59469737D01*
X156121153Y-59500499D01*
X156121156Y-59500500D01*
X156121158Y-59500500D01*
X156278844Y-59500500D01*
X156278845Y-59500499D01*
X156433497Y-59469737D01*
X156579179Y-59409394D01*
X156710289Y-59321789D01*
X156821789Y-59210289D01*
X156909394Y-59079179D01*
X156969737Y-58933497D01*
X156992084Y-58821153D01*
X173199500Y-58821153D01*
X173199500Y-58978846D01*
X173230261Y-59133489D01*
X173230264Y-59133501D01*
X173290602Y-59279172D01*
X173290609Y-59279185D01*
X173378210Y-59410288D01*
X173378213Y-59410292D01*
X173489707Y-59521786D01*
X173489711Y-59521789D01*
X173620814Y-59609390D01*
X173620827Y-59609397D01*
X173766498Y-59669735D01*
X173766503Y-59669737D01*
X173916131Y-59699500D01*
X173921153Y-59700499D01*
X173921156Y-59700500D01*
X173921158Y-59700500D01*
X174078844Y-59700500D01*
X174078845Y-59700499D01*
X174233497Y-59669737D01*
X174379179Y-59609394D01*
X174510289Y-59521789D01*
X174621789Y-59410289D01*
X174709394Y-59279179D01*
X174769737Y-59133497D01*
X174800500Y-58978842D01*
X174800500Y-58821158D01*
X174800500Y-58821155D01*
X174800499Y-58821153D01*
X174798338Y-58810288D01*
X174769737Y-58666503D01*
X174750955Y-58621158D01*
X174709397Y-58520827D01*
X174709390Y-58520814D01*
X174621789Y-58389711D01*
X174621786Y-58389707D01*
X174510292Y-58278213D01*
X174510288Y-58278210D01*
X174379185Y-58190609D01*
X174379172Y-58190602D01*
X174233501Y-58130264D01*
X174233489Y-58130261D01*
X174078845Y-58099500D01*
X174078842Y-58099500D01*
X173921158Y-58099500D01*
X173921155Y-58099500D01*
X173766510Y-58130261D01*
X173766498Y-58130264D01*
X173620827Y-58190602D01*
X173620814Y-58190609D01*
X173489711Y-58278210D01*
X173489707Y-58278213D01*
X173378213Y-58389707D01*
X173378210Y-58389711D01*
X173290609Y-58520814D01*
X173290602Y-58520827D01*
X173230264Y-58666498D01*
X173230261Y-58666510D01*
X173199500Y-58821153D01*
X156992084Y-58821153D01*
X157000500Y-58778842D01*
X157000500Y-58621158D01*
X157000500Y-58621155D01*
X157000499Y-58621153D01*
X156980734Y-58521789D01*
X156969737Y-58466503D01*
X156942398Y-58400500D01*
X156909397Y-58320827D01*
X156909390Y-58320814D01*
X156821789Y-58189711D01*
X156821786Y-58189707D01*
X156710292Y-58078213D01*
X156710288Y-58078210D01*
X156579185Y-57990609D01*
X156579172Y-57990602D01*
X156444220Y-57934704D01*
X156444217Y-57934703D01*
X156433497Y-57930263D01*
X156278842Y-57899500D01*
X156250262Y-57899500D01*
X156239282Y-57897507D01*
X156217627Y-57886639D01*
X156194388Y-57879815D01*
X156184313Y-57869919D01*
X156176836Y-57866166D01*
X156171755Y-57857583D01*
X156158325Y-57844390D01*
X156142798Y-57821153D01*
X167599500Y-57821153D01*
X167599500Y-57978846D01*
X167630261Y-58133489D01*
X167630264Y-58133501D01*
X167690602Y-58279172D01*
X167690609Y-58279185D01*
X167778210Y-58410288D01*
X167778213Y-58410292D01*
X167889707Y-58521786D01*
X167889711Y-58521789D01*
X168020814Y-58609390D01*
X168020827Y-58609397D01*
X168158683Y-58666498D01*
X168166503Y-58669737D01*
X168321153Y-58700499D01*
X168321156Y-58700500D01*
X168321158Y-58700500D01*
X168478844Y-58700500D01*
X168478845Y-58700499D01*
X168489179Y-58698443D01*
X168514287Y-58693450D01*
X168514292Y-58693449D01*
X168599800Y-58676439D01*
X168633497Y-58669737D01*
X168779179Y-58609394D01*
X168910289Y-58521789D01*
X169021789Y-58410289D01*
X169109394Y-58279179D01*
X169169737Y-58133497D01*
X169200500Y-57978842D01*
X169200500Y-57821158D01*
X169200500Y-57821155D01*
X169200499Y-57821153D01*
X169198338Y-57810288D01*
X169169737Y-57666503D01*
X169138298Y-57590602D01*
X169109397Y-57520827D01*
X169109390Y-57520814D01*
X169021789Y-57389711D01*
X169021786Y-57389707D01*
X168910292Y-57278213D01*
X168910288Y-57278210D01*
X168824897Y-57221153D01*
X169499500Y-57221153D01*
X169499500Y-57378846D01*
X169530261Y-57533489D01*
X169530264Y-57533501D01*
X169590602Y-57679172D01*
X169590609Y-57679185D01*
X169678210Y-57810288D01*
X169678213Y-57810292D01*
X169789707Y-57921786D01*
X169789711Y-57921789D01*
X169920814Y-58009390D01*
X169920827Y-58009397D01*
X170058683Y-58066498D01*
X170066503Y-58069737D01*
X170216131Y-58099500D01*
X170221153Y-58100499D01*
X170221156Y-58100500D01*
X170221158Y-58100500D01*
X170378844Y-58100500D01*
X170378845Y-58100499D01*
X170533497Y-58069737D01*
X170679179Y-58009394D01*
X170810289Y-57921789D01*
X170921789Y-57810289D01*
X171009394Y-57679179D01*
X171069737Y-57533497D01*
X171100500Y-57378842D01*
X171100500Y-57221158D01*
X171100500Y-57221155D01*
X171100499Y-57221153D01*
X171093166Y-57184286D01*
X171069737Y-57066503D01*
X171033427Y-56978842D01*
X171009397Y-56920827D01*
X171009390Y-56920814D01*
X170921789Y-56789711D01*
X170921786Y-56789707D01*
X170810292Y-56678213D01*
X170810288Y-56678210D01*
X170679185Y-56590609D01*
X170679174Y-56590603D01*
X170533501Y-56530264D01*
X170533489Y-56530261D01*
X170378845Y-56499500D01*
X170378842Y-56499500D01*
X170221158Y-56499500D01*
X170221155Y-56499500D01*
X170066510Y-56530261D01*
X170066498Y-56530264D01*
X169920827Y-56590602D01*
X169920814Y-56590609D01*
X169789711Y-56678210D01*
X169789707Y-56678213D01*
X169678213Y-56789707D01*
X169678210Y-56789711D01*
X169590609Y-56920814D01*
X169590602Y-56920827D01*
X169530264Y-57066498D01*
X169530261Y-57066510D01*
X169499500Y-57221153D01*
X168824897Y-57221153D01*
X168779185Y-57190609D01*
X168779172Y-57190602D01*
X168633501Y-57130264D01*
X168633489Y-57130261D01*
X168478845Y-57099500D01*
X168478842Y-57099500D01*
X168321158Y-57099500D01*
X168321155Y-57099500D01*
X168166510Y-57130261D01*
X168166498Y-57130264D01*
X168020827Y-57190602D01*
X168020814Y-57190609D01*
X167889711Y-57278210D01*
X167889707Y-57278213D01*
X167778213Y-57389707D01*
X167778210Y-57389711D01*
X167690609Y-57520814D01*
X167690602Y-57520827D01*
X167630264Y-57666498D01*
X167630261Y-57666510D01*
X167599500Y-57821153D01*
X156142798Y-57821153D01*
X156121792Y-57789715D01*
X156121786Y-57789707D01*
X156010292Y-57678213D01*
X156010288Y-57678210D01*
X155879185Y-57590609D01*
X155879172Y-57590602D01*
X155733501Y-57530264D01*
X155733489Y-57530261D01*
X155578845Y-57499500D01*
X155578842Y-57499500D01*
X155421158Y-57499500D01*
X155421155Y-57499500D01*
X155266510Y-57530261D01*
X155266498Y-57530264D01*
X155120827Y-57590602D01*
X155120814Y-57590609D01*
X154989711Y-57678210D01*
X154989707Y-57678213D01*
X154878213Y-57789707D01*
X154878210Y-57789711D01*
X154790609Y-57920814D01*
X154790602Y-57920827D01*
X154730264Y-58066498D01*
X154730261Y-58066510D01*
X154699500Y-58221153D01*
X152000500Y-58221153D01*
X152000500Y-56821153D01*
X152827000Y-56821153D01*
X152827000Y-56978846D01*
X152857761Y-57133489D01*
X152857764Y-57133501D01*
X152918102Y-57279172D01*
X152918109Y-57279185D01*
X153005710Y-57410288D01*
X153005713Y-57410292D01*
X153117207Y-57521786D01*
X153117211Y-57521789D01*
X153248314Y-57609390D01*
X153248327Y-57609397D01*
X153386183Y-57666498D01*
X153394003Y-57669737D01*
X153548653Y-57700499D01*
X153548656Y-57700500D01*
X153548658Y-57700500D01*
X153706344Y-57700500D01*
X153706345Y-57700499D01*
X153860997Y-57669737D01*
X154006679Y-57609394D01*
X154137789Y-57521789D01*
X154249289Y-57410289D01*
X154336894Y-57279179D01*
X154396720Y-57134743D01*
X154440558Y-57080345D01*
X154506852Y-57058279D01*
X154574551Y-57075558D01*
X154580170Y-57079098D01*
X154713373Y-57168102D01*
X154713386Y-57168109D01*
X154841460Y-57221158D01*
X154859062Y-57228449D01*
X155013712Y-57259211D01*
X155013715Y-57259212D01*
X155013717Y-57259212D01*
X155171403Y-57259212D01*
X155171404Y-57259211D01*
X155326056Y-57228449D01*
X155471738Y-57168106D01*
X155602848Y-57080501D01*
X155714348Y-56969001D01*
X155801953Y-56837891D01*
X155805114Y-56830261D01*
X155838572Y-56749484D01*
X155862296Y-56692209D01*
X155876430Y-56621153D01*
X163099500Y-56621153D01*
X163099500Y-56778846D01*
X163130261Y-56933489D01*
X163130264Y-56933501D01*
X163190602Y-57079172D01*
X163190609Y-57079185D01*
X163278210Y-57210288D01*
X163278213Y-57210292D01*
X163389707Y-57321786D01*
X163389711Y-57321789D01*
X163520814Y-57409390D01*
X163520827Y-57409397D01*
X163661991Y-57467868D01*
X163666503Y-57469737D01*
X163816131Y-57499500D01*
X163821153Y-57500499D01*
X163821156Y-57500500D01*
X163821158Y-57500500D01*
X163978844Y-57500500D01*
X163978845Y-57500499D01*
X164133497Y-57469737D01*
X164279179Y-57409394D01*
X164410289Y-57321789D01*
X164521789Y-57210289D01*
X164609394Y-57079179D01*
X164669737Y-56933497D01*
X164700500Y-56778842D01*
X164700500Y-56621158D01*
X164700500Y-56621155D01*
X164700499Y-56621153D01*
X164680543Y-56520827D01*
X164673148Y-56483653D01*
X175299500Y-56483653D01*
X175299500Y-56641346D01*
X175330261Y-56795989D01*
X175330264Y-56796001D01*
X175390602Y-56941672D01*
X175390609Y-56941685D01*
X175478210Y-57072788D01*
X175478213Y-57072792D01*
X175589707Y-57184286D01*
X175589711Y-57184289D01*
X175720814Y-57271890D01*
X175720827Y-57271897D01*
X175840934Y-57321646D01*
X175866503Y-57332237D01*
X175970468Y-57352917D01*
X176021153Y-57362999D01*
X176021156Y-57363000D01*
X176021158Y-57363000D01*
X176178844Y-57363000D01*
X176178845Y-57362999D01*
X176333497Y-57332237D01*
X176341025Y-57329118D01*
X176410491Y-57321646D01*
X176472972Y-57352917D01*
X176508628Y-57413004D01*
X176510100Y-57467868D01*
X176499569Y-57520814D01*
X176499500Y-57521159D01*
X176499500Y-57678846D01*
X176530261Y-57833489D01*
X176530264Y-57833501D01*
X176590602Y-57979172D01*
X176590609Y-57979185D01*
X176678210Y-58110288D01*
X176678213Y-58110292D01*
X176789707Y-58221786D01*
X176789711Y-58221789D01*
X176920814Y-58309390D01*
X176920827Y-58309397D01*
X177066498Y-58369735D01*
X177066503Y-58369737D01*
X177221153Y-58400499D01*
X177221156Y-58400500D01*
X177221158Y-58400500D01*
X177378844Y-58400500D01*
X177378845Y-58400499D01*
X177533497Y-58369737D01*
X177651592Y-58320821D01*
X177679172Y-58309397D01*
X177679172Y-58309396D01*
X177679179Y-58309394D01*
X177810289Y-58221789D01*
X177921789Y-58110289D01*
X178009394Y-57979179D01*
X178069737Y-57833497D01*
X178100500Y-57678842D01*
X178100500Y-57521158D01*
X178100500Y-57521155D01*
X178100499Y-57521153D01*
X178089900Y-57467868D01*
X178069737Y-57366503D01*
X178033569Y-57279185D01*
X178009397Y-57220827D01*
X178009390Y-57220814D01*
X177921789Y-57089711D01*
X177921786Y-57089707D01*
X177810292Y-56978213D01*
X177810288Y-56978210D01*
X177679185Y-56890609D01*
X177679172Y-56890602D01*
X177533501Y-56830264D01*
X177533489Y-56830261D01*
X177378845Y-56799500D01*
X177378842Y-56799500D01*
X177221158Y-56799500D01*
X177221155Y-56799500D01*
X177066510Y-56830261D01*
X177066494Y-56830265D01*
X177058966Y-56833384D01*
X176989497Y-56840851D01*
X176927018Y-56809574D01*
X176891368Y-56749484D01*
X176889900Y-56694629D01*
X176890382Y-56692209D01*
X176900500Y-56641342D01*
X176900500Y-56483658D01*
X176900500Y-56483655D01*
X176900499Y-56483653D01*
X176897731Y-56469737D01*
X176869737Y-56329003D01*
X176866748Y-56321786D01*
X176809397Y-56183327D01*
X176809390Y-56183314D01*
X176721789Y-56052211D01*
X176721786Y-56052207D01*
X176610292Y-55940713D01*
X176610288Y-55940710D01*
X176479185Y-55853109D01*
X176479172Y-55853102D01*
X176333501Y-55792764D01*
X176333489Y-55792761D01*
X176178845Y-55762000D01*
X176178842Y-55762000D01*
X176021158Y-55762000D01*
X176021155Y-55762000D01*
X175866510Y-55792761D01*
X175866498Y-55792764D01*
X175720827Y-55853102D01*
X175720814Y-55853109D01*
X175589711Y-55940710D01*
X175589707Y-55940713D01*
X175478213Y-56052207D01*
X175478210Y-56052211D01*
X175390609Y-56183314D01*
X175390602Y-56183327D01*
X175330264Y-56328998D01*
X175330261Y-56329010D01*
X175299500Y-56483653D01*
X164673148Y-56483653D01*
X164669737Y-56466503D01*
X164637929Y-56389711D01*
X164609397Y-56320827D01*
X164609390Y-56320814D01*
X164521789Y-56189711D01*
X164521786Y-56189707D01*
X164410292Y-56078213D01*
X164410288Y-56078210D01*
X164279185Y-55990609D01*
X164279172Y-55990602D01*
X164133501Y-55930264D01*
X164133489Y-55930261D01*
X163978845Y-55899500D01*
X163978842Y-55899500D01*
X163821158Y-55899500D01*
X163821155Y-55899500D01*
X163666510Y-55930261D01*
X163666498Y-55930264D01*
X163520827Y-55990602D01*
X163520814Y-55990609D01*
X163389711Y-56078210D01*
X163389707Y-56078213D01*
X163278213Y-56189707D01*
X163278210Y-56189711D01*
X163190609Y-56320814D01*
X163190602Y-56320827D01*
X163130264Y-56466498D01*
X163130261Y-56466510D01*
X163099500Y-56621153D01*
X155876430Y-56621153D01*
X155893059Y-56537554D01*
X155893059Y-56379870D01*
X155893059Y-56379867D01*
X155893058Y-56379865D01*
X155881505Y-56321786D01*
X155862296Y-56225215D01*
X155856115Y-56210292D01*
X155801956Y-56079539D01*
X155801949Y-56079526D01*
X155714348Y-55948423D01*
X155714345Y-55948419D01*
X155602851Y-55836925D01*
X155602847Y-55836922D01*
X155471744Y-55749321D01*
X155471732Y-55749314D01*
X155424200Y-55729627D01*
X155326060Y-55688976D01*
X155326048Y-55688973D01*
X155171404Y-55658212D01*
X155171401Y-55658212D01*
X155013717Y-55658212D01*
X155013714Y-55658212D01*
X154859069Y-55688973D01*
X154859057Y-55688976D01*
X154713386Y-55749314D01*
X154713373Y-55749321D01*
X154582270Y-55836922D01*
X154582266Y-55836925D01*
X154470772Y-55948419D01*
X154470769Y-55948423D01*
X154383168Y-56079526D01*
X154383161Y-56079539D01*
X154323340Y-56223963D01*
X154279499Y-56278367D01*
X154213205Y-56300432D01*
X154145506Y-56283153D01*
X154139888Y-56279613D01*
X154006685Y-56190609D01*
X154006672Y-56190602D01*
X153861001Y-56130264D01*
X153860989Y-56130261D01*
X153706345Y-56099500D01*
X153706342Y-56099500D01*
X153548658Y-56099500D01*
X153548655Y-56099500D01*
X153394010Y-56130261D01*
X153393998Y-56130264D01*
X153248327Y-56190602D01*
X153248314Y-56190609D01*
X153117211Y-56278210D01*
X153117207Y-56278213D01*
X153005713Y-56389707D01*
X153005710Y-56389711D01*
X152918109Y-56520814D01*
X152918102Y-56520827D01*
X152857764Y-56666498D01*
X152857761Y-56666510D01*
X152827000Y-56821153D01*
X152000500Y-56821153D01*
X152000500Y-55621153D01*
X159099500Y-55621153D01*
X159099500Y-55778846D01*
X159130261Y-55933489D01*
X159130264Y-55933501D01*
X159190602Y-56079172D01*
X159190609Y-56079185D01*
X159278210Y-56210288D01*
X159278213Y-56210292D01*
X159389707Y-56321786D01*
X159389711Y-56321789D01*
X159520814Y-56409390D01*
X159520827Y-56409397D01*
X159627834Y-56453720D01*
X159666503Y-56469737D01*
X159816131Y-56499500D01*
X159821153Y-56500499D01*
X159821156Y-56500500D01*
X159821158Y-56500500D01*
X159978844Y-56500500D01*
X159978845Y-56500499D01*
X159989179Y-56498443D01*
X160014287Y-56493450D01*
X160014292Y-56493449D01*
X160099800Y-56476439D01*
X160133497Y-56469737D01*
X160279179Y-56409394D01*
X160410289Y-56321789D01*
X160521789Y-56210289D01*
X160609394Y-56079179D01*
X160669737Y-55933497D01*
X160700500Y-55778842D01*
X160700500Y-55621158D01*
X160700500Y-55621155D01*
X160700499Y-55621153D01*
X160669738Y-55466510D01*
X160669737Y-55466503D01*
X160669735Y-55466498D01*
X160609397Y-55320827D01*
X160609390Y-55320814D01*
X160521789Y-55189711D01*
X160521786Y-55189707D01*
X160410292Y-55078213D01*
X160410288Y-55078210D01*
X160279185Y-54990609D01*
X160279172Y-54990602D01*
X160133501Y-54930264D01*
X160133489Y-54930261D01*
X159978845Y-54899500D01*
X159978842Y-54899500D01*
X159821158Y-54899500D01*
X159821155Y-54899500D01*
X159666510Y-54930261D01*
X159666498Y-54930264D01*
X159520827Y-54990602D01*
X159520814Y-54990609D01*
X159389711Y-55078210D01*
X159389707Y-55078213D01*
X159278213Y-55189707D01*
X159278210Y-55189711D01*
X159190609Y-55320814D01*
X159190602Y-55320827D01*
X159130264Y-55466498D01*
X159130261Y-55466510D01*
X159099500Y-55621153D01*
X152000500Y-55621153D01*
X152000500Y-53994168D01*
X152020185Y-53927129D01*
X152072989Y-53881374D01*
X152142147Y-53871430D01*
X152193392Y-53891067D01*
X152220812Y-53909389D01*
X152220827Y-53909397D01*
X152366498Y-53969735D01*
X152366503Y-53969737D01*
X152521153Y-54000499D01*
X152521156Y-54000500D01*
X152521158Y-54000500D01*
X152678844Y-54000500D01*
X152678845Y-54000499D01*
X152833497Y-53969737D01*
X152979179Y-53909394D01*
X153110289Y-53821789D01*
X153221789Y-53710289D01*
X153309394Y-53579179D01*
X153369737Y-53433497D01*
X153400500Y-53278842D01*
X153400500Y-53121158D01*
X153400500Y-53121155D01*
X153400499Y-53121153D01*
X153380543Y-53020827D01*
X153369737Y-52966503D01*
X153330572Y-52871951D01*
X153323104Y-52802483D01*
X153354379Y-52740004D01*
X153414468Y-52704352D01*
X153445134Y-52700500D01*
X156162532Y-52700500D01*
X156162534Y-52700500D01*
X156334938Y-52670100D01*
X156499445Y-52610224D01*
X156651055Y-52522692D01*
X156785163Y-52410163D01*
X156897692Y-52276055D01*
X156985224Y-52124445D01*
X157045100Y-51959938D01*
X157075500Y-51787534D01*
X157075500Y-51700001D01*
X157075500Y-51634109D01*
X157075500Y-51634108D01*
X157075500Y-49524000D01*
X157095185Y-49456961D01*
X157147989Y-49411206D01*
X157199500Y-49400000D01*
X159650500Y-49400000D01*
X159717539Y-49419685D01*
G37*
%TD.AperFunction*%
%TD*%
M02*
