M48
; DRILL file KiCad 10.0.4 date 2026-09-22T22:30:39
; FORMAT={-:-/ absolute / inch / decimal}
; #@! TF.CreationDate,2026-09-22T22:30:39+02:00
; #@! TF.GenerationSoftware,Kicad,Pcbnew,10.0.4
; #@! TF.FileFunction,Plated,1,4,PTH
FMAT,2
INCH
; #@! TA.AperFunction,Plated,PTH,ViaDrill
T1C0.0118
%
G90
G05
T1
X6.0197Y-2.5118
X6.0787Y-3.1929
X6.1024Y-3.0079
X6.1024Y-3.0984
X6.1496Y-2.9921
X6.1575Y-2.7638
X6.1795Y-2.0791
X6.1885Y-2.1093
X6.1959Y-2.0335
X6.2087Y-2.7087
X6.2352Y-2.7815
X6.2518Y-2.9944
X6.2657Y-2.1496
X6.2854Y-2.8937
X6.2953Y-2.1024
X6.3071Y-2.3819
X6.312Y-2.9656
X6.3228Y-2.7756
X6.3302Y-2.2249
X6.3484Y-2.0866
X6.3898Y-3.0036
X6.4134Y-2.4892
X6.4183Y-2.0846
X6.4488Y-2.0315
X6.4528Y-2.2323
X6.4606Y-2.4872
X6.4724Y-2.748
X6.4764Y-3.0827
X6.4882Y-2.9961
X6.5039Y-2.0354
X6.5039Y-2.4843
X6.5079Y-3.0817
X6.5157Y-2.4213
X6.5482Y-2.2992
X6.5669Y-2.0354
X6.5974Y-2.2982
X6.6063Y-3.0669
X6.6183Y-2.9565
X6.6199Y-3.0385
X6.626Y-2.0394
X6.6299Y-2.2795
X6.6309Y-3.1919
X6.6486Y-2.8371
X6.6496Y-3.0276
X6.6801Y-3.188
X6.6811Y-2.4921
X6.685Y-2.0394
X6.6939Y-2.8371
X6.7047Y-2.2559
X6.7313Y-2.4931
X6.7402Y-2.0394
X6.7677Y-2.4409
X6.7687Y-3.2293
X6.7795Y-2.9173
X6.8209Y-2.0472
X6.8323Y-2.7874
X6.8406Y-2.4882
X6.8504Y-2.3189
X6.8528Y-2.0361
X6.8669Y-2.784
X6.8673Y-2.0641
X6.8898Y-3.2323
X6.8957Y-2.0305
X6.9173Y-2.5512
X6.918Y-2.0543
X6.9252Y-2.7874
X6.9331Y-2.1117
X6.9331Y-2.2269
X6.9528Y-3.2402
X6.9803Y-2.2677
X6.9823Y-2.7894
X7.0276Y-2.1117
X7.0411Y-2.4037
X7.0472Y-2.4537
X7.0492Y-2.9951
X7.0541Y-2.3415
X7.0558Y-2.7793
X7.0846Y-2.8888
X7.1063Y-2.6486
X7.1063Y-2.6841
M30
