%TF.GenerationSoftware,KiCad,Pcbnew,10.0.4*%
%TF.CreationDate,2026-09-22T22:30:39+02:00*%
%TF.ProjectId,dongle,646f6e67-6c65-42e6-9b69-6361645f7063,rev?*%
%TF.SameCoordinates,Original*%
%TF.FileFunction,Copper,L1,Top*%
%TF.FilePolarity,Positive*%
%FSLAX46Y46*%
G04 Gerber Fmt 4.6, Leading zero omitted, Abs format (unit mm)*
G04 Created by KiCad (PCBNEW 10.0.4) date 2026-09-22 22:30:39*
%MOMM*%
%LPD*%
G01*
G04 APERTURE LIST*
G04 Aperture macros list*
%AMRoundRect*
0 Rectangle with rounded corners*
0 $1 Rounding radius*
0 $2 $3 $4 $5 $6 $7 $8 $9 X,Y pos of 4 corners*
0 Add a 4 corners polygon primitive as box body*
4,1,4,$2,$3,$4,$5,$6,$7,$8,$9,$2,$3,0*
0 Add four circle primitives for the rounded corners*
1,1,$1+$1,$2,$3*
1,1,$1+$1,$4,$5*
1,1,$1+$1,$6,$7*
1,1,$1+$1,$8,$9*
0 Add four rect primitives between the rounded corners*
20,1,$1+$1,$2,$3,$4,$5,0*
20,1,$1+$1,$4,$5,$6,$7,0*
20,1,$1+$1,$6,$7,$8,$9,0*
20,1,$1+$1,$8,$9,$2,$3,0*%
G04 Aperture macros list end*
%TA.AperFunction,Conductor*%
%ADD10C,0.200000*%
%TD*%
%TA.AperFunction,SMDPad,CuDef*%
%ADD11RoundRect,0.250000X0.312500X0.625000X-0.312500X0.625000X-0.312500X-0.625000X0.312500X-0.625000X0*%
%TD*%
%TA.AperFunction,SMDPad,CuDef*%
%ADD12RoundRect,0.250000X0.625000X-0.312500X0.625000X0.312500X-0.625000X0.312500X-0.625000X-0.312500X0*%
%TD*%
%TA.AperFunction,SMDPad,CuDef*%
%ADD13RoundRect,0.200000X0.200000X0.275000X-0.200000X0.275000X-0.200000X-0.275000X0.200000X-0.275000X0*%
%TD*%
%TA.AperFunction,SMDPad,CuDef*%
%ADD14RoundRect,0.200000X-0.275000X0.200000X-0.275000X-0.200000X0.275000X-0.200000X0.275000X0.200000X0*%
%TD*%
%TA.AperFunction,ConnectorPad*%
%ADD15RoundRect,0.070000X0.105000X0.680000X-0.105000X0.680000X-0.105000X-0.680000X0.105000X-0.680000X0*%
%TD*%
%TA.AperFunction,SMDPad,CuDef*%
%ADD16RoundRect,0.225000X0.225000X0.250000X-0.225000X0.250000X-0.225000X-0.250000X0.225000X-0.250000X0*%
%TD*%
%TA.AperFunction,SMDPad,CuDef*%
%ADD17R,0.900000X1.500000*%
%TD*%
%TA.AperFunction,SMDPad,CuDef*%
%ADD18R,1.500000X0.900000*%
%TD*%
%TA.AperFunction,SMDPad,CuDef*%
%ADD19R,0.900000X0.900000*%
%TD*%
%TA.AperFunction,SMDPad,CuDef*%
%ADD20RoundRect,0.200000X0.275000X-0.200000X0.275000X0.200000X-0.275000X0.200000X-0.275000X-0.200000X0*%
%TD*%
%TA.AperFunction,SMDPad,CuDef*%
%ADD21RoundRect,0.200000X-0.200000X-0.275000X0.200000X-0.275000X0.200000X0.275000X-0.200000X0.275000X0*%
%TD*%
%TA.AperFunction,SMDPad,CuDef*%
%ADD22RoundRect,0.225000X0.250000X-0.225000X0.250000X0.225000X-0.250000X0.225000X-0.250000X-0.225000X0*%
%TD*%
%TA.AperFunction,SMDPad,CuDef*%
%ADD23RoundRect,0.250000X-0.520000X0.520000X-0.520000X-0.520000X0.520000X-0.520000X0.520000X0.520000X0*%
%TD*%
%TA.AperFunction,SMDPad,CuDef*%
%ADD24C,1.540000*%
%TD*%
%TA.AperFunction,SMDPad,CuDef*%
%ADD25RoundRect,0.087500X-0.087500X0.425000X-0.087500X-0.425000X0.087500X-0.425000X0.087500X0.425000X0*%
%TD*%
%TA.AperFunction,SMDPad,CuDef*%
%ADD26RoundRect,0.150000X0.150000X-0.825000X0.150000X0.825000X-0.150000X0.825000X-0.150000X-0.825000X0*%
%TD*%
%TA.AperFunction,ViaPad*%
%ADD27C,0.600000*%
%TD*%
%TA.AperFunction,Conductor*%
%ADD28C,0.300000*%
%TD*%
%TA.AperFunction,Conductor*%
%ADD29C,1.000000*%
%TD*%
G04 APERTURE END LIST*
%TO.N,GND*%
D10*
X159675000Y-49950000D02*
X159825000Y-49950000D01*
X159825000Y-50500000D01*
X159675000Y-50500000D01*
X159675000Y-49950000D01*
%TD*%
D11*
%TO.P,C12,1*%
%TO.N,GND*%
X176662500Y-64800000D03*
%TO.P,C12,2*%
%TO.N,+3.3V*%
X173737500Y-64800000D03*
%TD*%
D12*
%TO.P,C9,1*%
%TO.N,GND*%
X177300000Y-56562500D03*
%TO.P,C9,2*%
%TO.N,+3.3V*%
X177300000Y-53637500D03*
%TD*%
D13*
%TO.P,R22,1*%
%TO.N,Net-(J2-~{RESET})*%
X177425000Y-60000000D03*
%TO.P,R22,2*%
%TO.N,/EN*%
X175775000Y-60000000D03*
%TD*%
D14*
%TO.P,R16,1*%
%TO.N,Net-(U7-GPIO6{slash}TOUCH6{slash}ADC1_CH5)*%
X175200000Y-68375000D03*
%TO.P,R16,2*%
%TO.N,/SCK*%
X175200000Y-70025000D03*
%TD*%
D15*
%TO.P,J2,1,CONFIG_3_1*%
%TO.N,Net-(J2-CONFIG_3)*%
X157250000Y-49450000D03*
%TO.P,J2,3,GND_3*%
%TO.N,GND*%
X157750000Y-49450000D03*
%TO.P,J2,5,GND_5*%
X158250000Y-49450000D03*
%TO.P,J2,7,USB_D+_7*%
%TO.N,/D+_ESP32*%
X158750000Y-49450000D03*
%TO.P,J2,9,USB_D-_9*%
%TO.N,/D-_ESP32*%
X159250000Y-49450000D03*
%TO.P,J2,11,GND_11*%
%TO.N,GND*%
X159750000Y-49450000D03*
%TO.P,J2,21,CONFIG_0_21*%
%TO.N,Net-(J2-CONFIG_0)*%
X162250000Y-49450000D03*
%TO.P,J2,23,GPIO_11_23*%
%TO.N,unconnected-(J2-GPIO_11-Pad23)*%
X162750000Y-49450000D03*
%TO.P,J2,25,DPR_25*%
%TO.N,unconnected-(J2-DPR-Pad25)*%
X163250000Y-49450000D03*
%TO.P,J2,27,GND_27*%
%TO.N,GND*%
X163750000Y-49450000D03*
%TO.P,J2,29,PERn1/USB3.0-Rx-/SSIC-RxN_29*%
%TO.N,unconnected-(J2-PERn1{slash}USB3.0-Rx-{slash}SSIC-RxN-Pad29)*%
X164250000Y-49450000D03*
%TO.P,J2,31,PERp1/USB3.0-Rx+/SSIC-RxP_31*%
%TO.N,unconnected-(J2-PERp1{slash}USB3.0-Rx+{slash}SSIC-RxP-Pad31)*%
X164750000Y-49450000D03*
%TO.P,J2,33,GND_33*%
%TO.N,GND*%
X165250000Y-49450000D03*
%TO.P,J2,35,PETn1/USB3.0-Tx-/SSIC-TxN_35*%
%TO.N,unconnected-(J2-PETn1{slash}USB3.0-Tx-{slash}SSIC-TxN-Pad35)*%
X165750000Y-49450000D03*
%TO.P,J2,37,PETp1/USB3.0-Tx+/SSIC-TxP_37*%
%TO.N,unconnected-(J2-PETp1{slash}USB3.0-Tx+{slash}SSIC-TxP-Pad37)*%
X166250000Y-49450000D03*
%TO.P,J2,39,GND_39*%
%TO.N,GND*%
X166750000Y-49450000D03*
%TO.P,J2,41,PERn0/SATA-B+_41*%
%TO.N,unconnected-(J2-PERn0{slash}SATA-B+-Pad41)*%
X167250000Y-49450000D03*
%TO.P,J2,43,PERp0/SATA-B-_43*%
%TO.N,unconnected-(J2-PERp0{slash}SATA-B--Pad43)*%
X167750000Y-49450000D03*
%TO.P,J2,45,GND_45*%
%TO.N,GND*%
X168250000Y-49450000D03*
%TO.P,J2,47,PETn0/SATA-A-_47*%
%TO.N,unconnected-(J2-PETn0{slash}SATA-A--Pad47)*%
X168750000Y-49450000D03*
%TO.P,J2,49,PETp0/SATA-A+_49*%
%TO.N,unconnected-(J2-PETp0{slash}SATA-A+-Pad49)*%
X169250000Y-49450000D03*
%TO.P,J2,51,GND_51*%
%TO.N,GND*%
X169750000Y-49450000D03*
%TO.P,J2,53,REFCLKn_53*%
%TO.N,unconnected-(J2-REFCLKn-Pad53)*%
X170250000Y-49450000D03*
%TO.P,J2,55,REFCLKp_55*%
%TO.N,unconnected-(J2-REFCLKp-Pad55)*%
X170750000Y-49450000D03*
%TO.P,J2,57,GND_57*%
%TO.N,GND*%
X171250000Y-49450000D03*
%TO.P,J2,59,ANTCTL0_59*%
%TO.N,unconnected-(J2-ANTCTL0-Pad59)*%
X171750000Y-49450000D03*
%TO.P,J2,61,ANTCTL1_61*%
%TO.N,unconnected-(J2-ANTCTL1-Pad61)*%
X172250000Y-49450000D03*
%TO.P,J2,63,ANTCTL2_63*%
%TO.N,unconnected-(J2-ANTCTL2-Pad63)*%
X172750000Y-49450000D03*
%TO.P,J2,65,ANTCTL3_65*%
%TO.N,unconnected-(J2-ANTCTL3-Pad65)*%
X173250000Y-49450000D03*
%TO.P,J2,67,~{RESET}_67*%
%TO.N,Net-(J2-~{RESET})*%
X173750000Y-49450000D03*
%TO.P,J2,69,CONFIG_1_69*%
%TO.N,Net-(J2-CONFIG_1)*%
X174250000Y-49450000D03*
%TO.P,J2,71,GND_71*%
%TO.N,GND*%
X174750000Y-49450000D03*
%TO.P,J2,73,GND_73*%
X175250000Y-49450000D03*
%TO.P,J2,75,CONFIG_2_75*%
%TO.N,Net-(J2-CONFIG_2)*%
X175750000Y-49450000D03*
%TD*%
D13*
%TO.P,R1,1*%
%TO.N,Net-(U4-TXD)*%
X161325000Y-62000000D03*
%TO.P,R1,2*%
%TO.N,/RX*%
X159675000Y-62000000D03*
%TD*%
D16*
%TO.P,C4,1*%
%TO.N,GND*%
X171075000Y-62000000D03*
%TO.P,C4,2*%
%TO.N,+3.3V*%
X169525000Y-62000000D03*
%TD*%
D17*
%TO.P,U7,1,GND_1*%
%TO.N,GND*%
X170920000Y-64700000D03*
%TO.P,U7,2,3V3_2*%
%TO.N,+3.3V*%
X169650000Y-64700000D03*
%TO.P,U7,3,EN_3*%
%TO.N,/EN*%
X168380000Y-64700000D03*
%TO.P,U7,4,GPIO4/TOUCH4/ADC1_CH3_4*%
%TO.N,Net-(U7-GPIO4{slash}TOUCH4{slash}ADC1_CH3)*%
X167110000Y-64700000D03*
%TO.P,U7,5,GPIO5/TOUCH5/ADC1_CH4_5*%
%TO.N,Net-(U7-GPIO5{slash}TOUCH5{slash}ADC1_CH4)*%
X165840000Y-64700000D03*
%TO.P,U7,6,GPIO6/TOUCH6/ADC1_CH5_6*%
%TO.N,Net-(U7-GPIO6{slash}TOUCH6{slash}ADC1_CH5)*%
X164570000Y-64700000D03*
%TO.P,U7,7,GPIO7/TOUCH7/ADC1_CH6_7*%
%TO.N,/CE_2*%
X163300000Y-64700000D03*
%TO.P,U7,8,GPIO15/U0RTS/ADC2_CH4/XTAL_32K_P_8*%
%TO.N,unconnected-(U7-GPIO15{slash}U0RTS{slash}ADC2_CH4{slash}XTAL_32K_P-Pad8)*%
X162030000Y-64700000D03*
%TO.P,U7,9,GPIO16/U0CTS/ADC2_CH5/XTAL_32K_N_9*%
%TO.N,unconnected-(U7-GPIO16{slash}U0CTS{slash}ADC2_CH5{slash}XTAL_32K_N-Pad9)*%
X160760000Y-64700000D03*
%TO.P,U7,10,GPIO17/U1TXD/ADC2_CH6_10*%
%TO.N,unconnected-(U7-GPIO17{slash}U1TXD{slash}ADC2_CH6-Pad10)*%
X159490000Y-64700000D03*
%TO.P,U7,11,GPIO18/U1RXD/ADC2_CH7/CLK_OUT3_11*%
%TO.N,unconnected-(U7-GPIO18{slash}U1RXD{slash}ADC2_CH7{slash}CLK_OUT3-Pad11)*%
X158220000Y-64700000D03*
%TO.P,U7,12,GPIO8/TOUCH8/ADC1_CH7/SUBSPICS1_12*%
%TO.N,/IRQ_1*%
X156950000Y-64700000D03*
%TO.P,U7,13,GPIO19/U1RTS/ADC2_CH8/CLK_OUT2/USB_D-_13*%
%TO.N,/D-_ESP32*%
X155680000Y-64700000D03*
%TO.P,U7,14,GPIO20/U1CTS/ADC2_CH9/CLK_OUT1/USB_D+_14*%
%TO.N,/D+_ESP32*%
X154410000Y-64700000D03*
D18*
%TO.P,U7,15,GPIO3/TOUCH3/ADC1_CH2_15*%
%TO.N,unconnected-(U7-GPIO3{slash}TOUCH3{slash}ADC1_CH2-Pad15)*%
X153160000Y-66465000D03*
%TO.P,U7,16,GPIO46_16*%
%TO.N,Net-(U7-GPIO46)*%
X153160000Y-67735000D03*
%TO.P,U7,17,GPIO9/TOUCH9/ADC1_CH8/FSPIHD/SUBSPIHD_17*%
%TO.N,unconnected-(U7-GPIO9{slash}TOUCH9{slash}ADC1_CH8{slash}FSPIHD{slash}SUBSPIHD-Pad17)*%
X153160000Y-69005000D03*
%TO.P,U7,18,GPIO10/TOUCH10/ADC1_CH9/FSPICS0/FSPIIO4/SUBSPICS0_18*%
%TO.N,unconnected-(U7-GPIO10{slash}TOUCH10{slash}ADC1_CH9{slash}FSPICS0{slash}FSPIIO4{slash}SUBSPICS0-Pad18)*%
X153160000Y-70275000D03*
%TO.P,U7,19,GPIO11/TOUCH11/ADC2_CH0/FSPID/FSPIIO5/SUBSPID_19*%
%TO.N,unconnected-(U7-GPIO11{slash}TOUCH11{slash}ADC2_CH0{slash}FSPID{slash}FSPIIO5{slash}SUBSPID-Pad19)*%
X153160000Y-71545000D03*
%TO.P,U7,20,GPIO12/TOUCH12/ADC2_CH1/FSPICLK/FSPIIO6/SUBSPICLK_20*%
%TO.N,unconnected-(U7-GPIO12{slash}TOUCH12{slash}ADC2_CH1{slash}FSPICLK{slash}FSPIIO6{slash}SUBSPICLK-Pad20)*%
X153160000Y-72815000D03*
%TO.P,U7,21,GPIO13/TOUCH13/ADC2_CH2/FSPIQ/FSPIIO7/SUBSPIQ_21*%
%TO.N,/CSN_1*%
X153160000Y-74085000D03*
%TO.P,U7,22,GPIO14/TOUCH14/ADC2_CH3/FSPIWP/FSPIDQS/SUBSPIWP_22*%
%TO.N,/CE_1*%
X153160000Y-75355000D03*
%TO.P,U7,23,GPIO21_23*%
%TO.N,unconnected-(U7-GPIO21-Pad23)*%
X153160000Y-76625000D03*
%TO.P,U7,24,GPIO47/SPICLK_P/SUBSPICLK_P_DIFF_24*%
%TO.N,unconnected-(U7-GPIO47{slash}SPICLK_P{slash}SUBSPICLK_P_DIFF-Pad24)*%
X153160000Y-77895000D03*
%TO.P,U7,25,GPIO48/SPICLK_N/SUBSPICLK_N_DIFF_25*%
%TO.N,unconnected-(U7-GPIO48{slash}SPICLK_N{slash}SUBSPICLK_N_DIFF-Pad25)*%
X153160000Y-79165000D03*
%TO.P,U7,26,GPIO45_26*%
%TO.N,unconnected-(U7-GPIO45-Pad26)*%
X153160000Y-80435000D03*
D17*
%TO.P,U7,27,GPIO0/BOOT_27*%
%TO.N,/IO0*%
X154410000Y-82200000D03*
%TO.P,U7,28,SPIIO6/GPIO35/FSPID/SUBSPID_28*%
%TO.N,unconnected-(U7-SPIIO6{slash}GPIO35{slash}FSPID{slash}SUBSPID-Pad28)*%
X155680000Y-82200000D03*
%TO.P,U7,29,SPIIO7/GPIO36/FSPICLK/SUBSPICLK_29*%
%TO.N,unconnected-(U7-SPIIO7{slash}GPIO36{slash}FSPICLK{slash}SUBSPICLK-Pad29)*%
X156950000Y-82200000D03*
%TO.P,U7,30,SPIDQS/GPIO37/FSPIQ/SUBSPIQ_30*%
%TO.N,unconnected-(U7-SPIDQS{slash}GPIO37{slash}FSPIQ{slash}SUBSPIQ-Pad30)*%
X158220000Y-82200000D03*
%TO.P,U7,31,GPIO38/FSPIWP/SUBSPIWP_31*%
%TO.N,unconnected-(U7-GPIO38{slash}FSPIWP{slash}SUBSPIWP-Pad31)*%
X159490000Y-82200000D03*
%TO.P,U7,32,MTCK/GPIO39/CLK_OUT3/SUBSPICS1_32*%
%TO.N,unconnected-(U7-MTCK{slash}GPIO39{slash}CLK_OUT3{slash}SUBSPICS1-Pad32)*%
X160760000Y-82200000D03*
%TO.P,U7,33,MTDO/GPIO40/CLK_OUT2_33*%
%TO.N,unconnected-(U7-MTDO{slash}GPIO40{slash}CLK_OUT2-Pad33)*%
X162030000Y-82200000D03*
%TO.P,U7,34,MTDI/GPIO41/CLK_OUT1_34*%
%TO.N,unconnected-(U7-MTDI{slash}GPIO41{slash}CLK_OUT1-Pad34)*%
X163300000Y-82200000D03*
%TO.P,U7,35,MTMS/GPIO42_35*%
%TO.N,unconnected-(U7-MTMS{slash}GPIO42-Pad35)*%
X164570000Y-82200000D03*
%TO.P,U7,36,U0RXD/GPIO44/CLK_OUT2_36*%
%TO.N,/RX*%
X165840000Y-82200000D03*
%TO.P,U7,37,U0TXD/GPIO43/CLK_OUT1_37*%
%TO.N,/TX*%
X167110000Y-82200000D03*
%TO.P,U7,38,GPIO2/TOUCH2/ADC1_CH1_38*%
%TO.N,/IRQ_2*%
X168380000Y-82200000D03*
%TO.P,U7,39,GPIO1/TOUCH1/ADC1_CH0_39*%
%TO.N,/CSN_2*%
X169650000Y-82200000D03*
%TO.P,U7,40,GND_40*%
%TO.N,GND*%
X170920000Y-82200000D03*
D19*
%TO.P,U7,41,GND_41*%
X164600000Y-70550000D03*
X163200000Y-70550000D03*
X161800000Y-70550000D03*
X164600000Y-71950000D03*
X163200000Y-71950000D03*
X161800000Y-71950000D03*
X164600000Y-73350000D03*
X163200000Y-73350000D03*
X161800000Y-73350000D03*
%TD*%
D14*
%TO.P,R4,1*%
%TO.N,/CE_2*%
X173600000Y-68375000D03*
%TO.P,R4,2*%
%TO.N,Net-(U3-CE)*%
X173600000Y-70025000D03*
%TD*%
D20*
%TO.P,R5,1*%
%TO.N,/IRQ_2*%
X176700000Y-80725000D03*
%TO.P,R5,2*%
%TO.N,Net-(U3-IRQ)*%
X176700000Y-79075000D03*
%TD*%
D14*
%TO.P,R8,1*%
%TO.N,/IRQ_1*%
X176900000Y-74375000D03*
%TO.P,R8,2*%
%TO.N,Net-(U2-IRQ)*%
X176900000Y-76025000D03*
%TD*%
D21*
%TO.P,R2,1*%
%TO.N,Net-(U4-RXD)*%
X162875000Y-62000000D03*
%TO.P,R2,2*%
%TO.N,/TX*%
X164525000Y-62000000D03*
%TD*%
D20*
%TO.P,R3,1*%
%TO.N,/CSN_2*%
X175200000Y-80725000D03*
%TO.P,R3,2*%
%TO.N,Net-(U3-~{CSN})*%
X175200000Y-79075000D03*
%TD*%
D22*
%TO.P,C5,1*%
%TO.N,GND*%
X159300000Y-60300000D03*
%TO.P,C5,2*%
%TO.N,+3.3V*%
X159300000Y-58750000D03*
%TD*%
D23*
%TO.P,J1,1,Pin_1_1*%
%TO.N,GND*%
X180300000Y-58515000D03*
D24*
%TO.P,J1,2,Pin_2_2*%
%TO.N,/D-_CH340*%
X180300000Y-61055000D03*
%TO.P,J1,3,Pin_3_3*%
%TO.N,/D+_CH340*%
X180300000Y-63595000D03*
%TO.P,J1,4,Pin_4_4*%
%TO.N,Net-(D1-A)*%
X180300000Y-66135000D03*
%TD*%
D16*
%TO.P,C1,1*%
%TO.N,GND*%
X167975000Y-62000000D03*
%TO.P,C1,2*%
%TO.N,+3.3V*%
X166425000Y-62000000D03*
%TD*%
D14*
%TO.P,R19,1*%
%TO.N,/EN*%
X178300000Y-63675000D03*
%TO.P,R19,2*%
%TO.N,+3.3V*%
X178300000Y-65325000D03*
%TD*%
D12*
%TO.P,C10,1*%
%TO.N,GND*%
X174900000Y-56562500D03*
%TO.P,C10,2*%
%TO.N,+3.3V*%
X174900000Y-53637500D03*
%TD*%
D13*
%TO.P,R18,1*%
%TO.N,/IO0*%
X177425000Y-58500000D03*
%TO.P,R18,2*%
%TO.N,+3.3V*%
X175775000Y-58500000D03*
%TD*%
D16*
%TO.P,C7,1*%
%TO.N,GND*%
X177375000Y-62000000D03*
%TO.P,C7,2*%
%TO.N,/EN*%
X175825000Y-62000000D03*
%TD*%
D14*
%TO.P,R6,1*%
%TO.N,/CSN_1*%
X173700000Y-74375000D03*
%TO.P,R6,2*%
%TO.N,Net-(U2-~{CSN})*%
X173700000Y-76025000D03*
%TD*%
%TO.P,R7,1*%
%TO.N,/CE_1*%
X173700000Y-79075000D03*
%TO.P,R7,2*%
%TO.N,Net-(U2-CE)*%
X173700000Y-80725000D03*
%TD*%
D25*
%TO.P,Q1,1,E1_1*%
%TO.N,/RTS*%
X173050000Y-56562500D03*
%TO.P,Q1,2,B1_2*%
%TO.N,/DTR*%
X172400000Y-56562500D03*
%TO.P,Q1,3,C2_3*%
X171750000Y-56562500D03*
%TO.P,Q1,4,E2_4*%
%TO.N,/IO0*%
X171750000Y-58237500D03*
%TO.P,Q1,5,B2_5*%
%TO.N,/RTS*%
X172400000Y-58237500D03*
%TO.P,Q1,6,C1_6*%
%TO.N,/EN*%
X173050000Y-58237500D03*
%TD*%
D26*
%TO.P,U4,1,GND_1*%
%TO.N,GND*%
X161180000Y-59850000D03*
%TO.P,U4,2,TXD_2*%
%TO.N,Net-(U4-TXD)*%
X162450000Y-59850000D03*
%TO.P,U4,3,RXD_3*%
%TO.N,Net-(U4-RXD)*%
X163720000Y-59850000D03*
%TO.P,U4,4,V3_4*%
%TO.N,+3.3V*%
X164990000Y-59850000D03*
%TO.P,U4,5,UD+_5*%
%TO.N,/D+_CH340*%
X166260000Y-59850000D03*
%TO.P,U4,6,UD-_6*%
%TO.N,/D-_CH340*%
X167530000Y-59850000D03*
%TO.P,U4,7,NC_7*%
%TO.N,unconnected-(U4-NC-Pad7)*%
X168800000Y-59850000D03*
%TO.P,U4,8,NC_8*%
%TO.N,unconnected-(U4-NC-Pad8)*%
X170070000Y-59850000D03*
%TO.P,U4,9,~{CTS}_9*%
%TO.N,unconnected-(U4-~{CTS}-Pad9)*%
X170070000Y-54900000D03*
%TO.P,U4,10,~{DSR}_10*%
%TO.N,unconnected-(U4-~{DSR}-Pad10)*%
X168800000Y-54900000D03*
%TO.P,U4,11,~{RI}_11*%
%TO.N,unconnected-(U4-~{RI}-Pad11)*%
X167530000Y-54900000D03*
%TO.P,U4,12,~{DCD}_12*%
%TO.N,unconnected-(U4-~{DCD}-Pad12)*%
X166260000Y-54900000D03*
%TO.P,U4,13,~{DTR}_13*%
%TO.N,/DTR*%
X164990000Y-54900000D03*
%TO.P,U4,14,~{RTS}_14*%
%TO.N,/RTS*%
X163720000Y-54900000D03*
%TO.P,U4,15,R232_15*%
%TO.N,unconnected-(U4-R232-Pad15)*%
X162450000Y-54900000D03*
%TO.P,U4,16,VCC_16*%
%TO.N,+3.3V*%
X161180000Y-54900000D03*
%TD*%
D20*
%TO.P,R20,1*%
%TO.N,Net-(U7-GPIO46)*%
X175300000Y-76025000D03*
%TO.P,R20,2*%
%TO.N,GND*%
X175300000Y-74375000D03*
%TD*%
D14*
%TO.P,R17,1*%
%TO.N,Net-(U7-GPIO4{slash}TOUCH4{slash}ADC1_CH3)*%
X178400000Y-68375000D03*
%TO.P,R17,2*%
%TO.N,/MISO*%
X178400000Y-70025000D03*
%TD*%
%TO.P,R15,1*%
%TO.N,Net-(U7-GPIO5{slash}TOUCH5{slash}ADC1_CH4)*%
X176800000Y-68375000D03*
%TO.P,R15,2*%
%TO.N,/MOSI*%
X176800000Y-70025000D03*
%TD*%
D21*
%TO.P,R23,1*%
%TO.N,Net-(J2-~{FULL_CARD_POWER_OFF})*%
X172775000Y-60000000D03*
%TO.P,R23,2*%
%TO.N,+3.3V*%
X174425000Y-60000000D03*
%TD*%
D14*
%TO.P,R21,1*%
%TO.N,Net-(J2-~{W_DISABLE1})*%
X159300000Y-55650000D03*
%TO.P,R21,2*%
%TO.N,+3.3V*%
X159300000Y-57300000D03*
%TD*%
D12*
%TO.P,C8,1*%
%TO.N,GND*%
X179700000Y-56562500D03*
%TO.P,C8,2*%
%TO.N,+3.3V*%
X179700000Y-53637500D03*
%TD*%
D27*
%TO.N,GND*%
X163800000Y-51600000D03*
X176100000Y-56562500D03*
X172200000Y-74100000D03*
X160200000Y-60500000D03*
X170300000Y-57300000D03*
X165200000Y-51700000D03*
X152900000Y-63800000D03*
X171925000Y-82025000D03*
X155000000Y-78700000D03*
X166800000Y-51700000D03*
X168300000Y-51800000D03*
X165200000Y-63100000D03*
X164400000Y-69800000D03*
X159900000Y-53400000D03*
X156200000Y-76000000D03*
X160600000Y-70500000D03*
X174060717Y-51717690D03*
X179050000Y-76075000D03*
X175700000Y-64800000D03*
X157187500Y-53577134D03*
X179175000Y-59475000D03*
X156400000Y-70200000D03*
X171900000Y-62000000D03*
X169800000Y-51800000D03*
X170975000Y-63325000D03*
X163900000Y-56700000D03*
X171200000Y-51800000D03*
%TO.N,+3.3V*%
X178500000Y-53637500D03*
X155000000Y-76400000D03*
X176100000Y-53637500D03*
X175150000Y-51575000D03*
X173750000Y-63200000D03*
X174429280Y-52427735D03*
X168875000Y-72062500D03*
X165500000Y-61500000D03*
X156959947Y-52810179D03*
X169700000Y-63300000D03*
X160787500Y-56512500D03*
X170025000Y-72062500D03*
%TO.N,/SCK*%
X175900000Y-70800000D03*
X168900000Y-76900000D03*
X158375000Y-70650000D03*
%TO.N,Net-(J2-CONFIG_3)*%
X161250000Y-53000000D03*
X157375000Y-51650000D03*
%TO.N,Net-(J2-~{FULL_CARD_POWER_OFF})*%
X174000000Y-58900000D03*
%TO.N,Net-(J2-~{W_DISABLE1})*%
X159150000Y-54600000D03*
%TO.N,Net-(J2-CONFIG_0)*%
X163025000Y-52950000D03*
%TO.N,Net-(J2-CONFIG_1)*%
X173250000Y-52000000D03*
%TO.N,Net-(J2-CONFIG_2)*%
X175716250Y-52178464D03*
%TO.N,/RX*%
X162900000Y-63225000D03*
X164500000Y-78300000D03*
%TO.N,/CSN_1*%
X164800000Y-76100000D03*
X168105637Y-75094363D03*
%TO.N,/IO0*%
X154400000Y-81100000D03*
X168400000Y-57900000D03*
X177300000Y-57600000D03*
%TO.N,/TX*%
X165300000Y-78275000D03*
X164100000Y-63175000D03*
%TO.N,/IRQ_2*%
X176600000Y-82300000D03*
X168425000Y-81075000D03*
%TO.N,/CSN_2*%
X169675000Y-80975000D03*
X175000000Y-82100000D03*
%TO.N,Net-(U3-CE)*%
X173540000Y-70800000D03*
%TO.N,Net-(U3-IRQ)*%
X179950000Y-73375000D03*
%TO.N,Net-(U2-IRQ)*%
X162300000Y-76292157D03*
%TO.N,Net-(U3-~{CSN})*%
X174419102Y-70714401D03*
%TO.N,/D-_CH340*%
X167575000Y-58375000D03*
X178845000Y-61055000D03*
%TO.N,/D+_CH340*%
X179000000Y-62325000D03*
X166325000Y-58400000D03*
%TO.N,Net-(D1-A)*%
X180500000Y-68175000D03*
X180500000Y-67275000D03*
%TO.N,Net-(U2-~{CSN})*%
X157700000Y-68800000D03*
%TO.N,Net-(U2-CE)*%
X158796128Y-76058872D03*
%TO.N,/MISO*%
X167800000Y-77900000D03*
X160325735Y-75325735D03*
X179217321Y-70593263D03*
%TO.N,/MOSI*%
X168144773Y-77178103D03*
X159650000Y-73500000D03*
X177350000Y-70850000D03*
%TD*%
%TO.N,GND*%
D28*
X180135000Y-58515000D02*
X179175000Y-59475000D01*
D10*
X174750000Y-50950000D02*
X174750000Y-49450000D01*
X166750000Y-49450000D02*
X166750000Y-51650000D01*
X176837500Y-64625000D02*
X176662500Y-64800000D01*
X174200000Y-51500000D02*
X174750000Y-50950000D01*
X159300000Y-60300000D02*
X160000000Y-60300000D01*
X159690607Y-52038129D02*
X159685490Y-51959018D01*
X165250000Y-51650000D02*
X165200000Y-51700000D01*
X165250000Y-49450000D02*
X165250000Y-51650000D01*
X170920000Y-63380000D02*
X170975000Y-63325000D01*
X157387500Y-53231129D02*
X158250000Y-52368628D01*
X157387500Y-53296814D02*
X157387500Y-53231129D01*
X170920000Y-82200000D02*
X171750000Y-82200000D01*
X159675000Y-51948528D02*
X159675000Y-51796846D01*
X165200000Y-63100000D02*
X167600000Y-63100000D01*
X175300000Y-73600000D02*
X175100000Y-73400000D01*
X176662500Y-64800000D02*
X175700000Y-64800000D01*
X171075000Y-62000000D02*
X171900000Y-62000000D01*
X177375000Y-62000000D02*
X177812648Y-62000000D01*
X178537648Y-64625000D02*
X176837500Y-64625000D01*
X177300000Y-56562500D02*
X176100000Y-56562500D01*
X167975000Y-62725000D02*
X167975000Y-62000000D01*
X159675000Y-51796846D02*
X159655086Y-51488976D01*
X175300000Y-74375000D02*
X175300000Y-73600000D01*
X177812648Y-62000000D02*
X179075000Y-63262352D01*
X167600000Y-63100000D02*
X167975000Y-62725000D01*
X163750000Y-51550000D02*
X163800000Y-51600000D01*
X159750000Y-52141000D02*
X159690607Y-52038129D01*
X159655086Y-51488976D02*
X159675000Y-51466308D01*
X174750000Y-49450000D02*
X175250000Y-49450000D01*
X175700000Y-64800000D02*
X175600000Y-64800000D01*
X160000000Y-60300000D02*
X160200000Y-60500000D01*
D28*
X180300000Y-58515000D02*
X180135000Y-58515000D01*
D10*
X159675000Y-51466308D02*
X159675000Y-50335200D01*
X179075000Y-63262352D02*
X179075000Y-64087648D01*
X163750000Y-49450000D02*
X163750000Y-51550000D01*
X175100000Y-73400000D02*
X172900000Y-73400000D01*
X176100000Y-56562500D02*
X174900000Y-56562500D01*
X174060717Y-51717690D02*
X174200000Y-51578407D01*
X171250000Y-51750000D02*
X171200000Y-51800000D01*
X169750000Y-49450000D02*
X169750000Y-51750000D01*
X172800000Y-62000000D02*
X171900000Y-62000000D01*
X158250000Y-52368628D02*
X158250000Y-49450000D01*
X157187500Y-53496814D02*
X157387500Y-53296814D01*
X171750000Y-82200000D02*
X171925000Y-82025000D01*
X166750000Y-51650000D02*
X166800000Y-51700000D01*
X168250000Y-51750000D02*
X168300000Y-51800000D01*
X169750000Y-51750000D02*
X169800000Y-51800000D01*
X159900000Y-53400000D02*
X159750000Y-53250000D01*
X157187500Y-53577134D02*
X157187500Y-53496814D01*
X159685490Y-51959018D02*
X159675000Y-51948528D01*
X172900000Y-73400000D02*
X172200000Y-74100000D01*
X179075000Y-64087648D02*
X178537648Y-64625000D01*
X158250000Y-49450000D02*
X157750000Y-49450000D01*
X171250000Y-49450000D02*
X171250000Y-51750000D01*
X159750000Y-53250000D02*
X159750000Y-52141000D01*
X170920000Y-64700000D02*
X170920000Y-63380000D01*
X174200000Y-51578407D02*
X174200000Y-51500000D01*
X168250000Y-49450000D02*
X168250000Y-51750000D01*
%TO.N,+3.3V*%
D28*
X169825000Y-61175000D02*
X174275000Y-61175000D01*
X160750000Y-56475000D02*
X160787500Y-56512500D01*
D10*
X173737500Y-63212500D02*
X173750000Y-63200000D01*
D28*
X177507843Y-66117157D02*
X175054657Y-66117157D01*
D10*
X175375000Y-58900000D02*
X175775000Y-58500000D01*
D28*
X169525000Y-62000000D02*
X169525000Y-63125000D01*
D10*
X174450000Y-59975000D02*
X174450000Y-59450000D01*
D29*
X178500000Y-53637500D02*
X176100000Y-53637500D01*
D10*
X159300000Y-58750000D02*
X159300000Y-57300000D01*
X173737500Y-64800000D02*
X173737500Y-63212500D01*
D28*
X160150000Y-57300000D02*
X160750000Y-56700000D01*
X178300000Y-65325000D02*
X177507843Y-66117157D01*
X161180000Y-54900000D02*
X161180000Y-56120000D01*
X166000000Y-62000000D02*
X166425000Y-62000000D01*
X169700000Y-63300000D02*
X169700000Y-64650000D01*
X159300000Y-57300000D02*
X160150000Y-57300000D01*
X161180000Y-56120000D02*
X160787500Y-56512500D01*
X175054657Y-66117157D02*
X173737500Y-64800000D01*
D29*
X176100000Y-53637500D02*
X174900000Y-53637500D01*
D28*
X165500000Y-61500000D02*
X166000000Y-62000000D01*
X165500000Y-61500000D02*
X164990000Y-60990000D01*
X164990000Y-60990000D02*
X164990000Y-59850000D01*
X174350000Y-61250000D02*
X174350000Y-61400000D01*
X169700000Y-64650000D02*
X169650000Y-64700000D01*
X174350000Y-62600000D02*
X173750000Y-63200000D01*
X174275000Y-61175000D02*
X174350000Y-61250000D01*
D10*
X174425000Y-60000000D02*
X174450000Y-59975000D01*
D28*
X174350000Y-61400000D02*
X174350000Y-62000000D01*
X169525000Y-61475000D02*
X169825000Y-61175000D01*
X160787500Y-56512500D02*
X160682500Y-56617500D01*
D29*
X179700000Y-53637500D02*
X178500000Y-53637500D01*
D10*
X175000000Y-58900000D02*
X175375000Y-58900000D01*
D28*
X160750000Y-56700000D02*
X160750000Y-56475000D01*
X174350000Y-61400000D02*
X174425000Y-61325000D01*
X169525000Y-62000000D02*
X169525000Y-61475000D01*
X169525000Y-63125000D02*
X169700000Y-63300000D01*
X174425000Y-61325000D02*
X174425000Y-60000000D01*
D10*
X174450000Y-59450000D02*
X175000000Y-58900000D01*
D28*
X174350000Y-62000000D02*
X174350000Y-62600000D01*
%TO.N,Net-(J2-~{RESET})*%
D10*
X172325000Y-53625000D02*
X172325000Y-51850000D01*
X177425000Y-60000000D02*
X178025000Y-60000000D01*
X173750000Y-50425000D02*
X173750000Y-49450000D01*
X173900000Y-55200000D02*
X172325000Y-53625000D01*
X178525000Y-56025000D02*
X177700000Y-55200000D01*
X177700000Y-55200000D02*
X173900000Y-55200000D01*
X178025000Y-60000000D02*
X178525000Y-59500000D01*
X178525000Y-59500000D02*
X178525000Y-56025000D01*
X172325000Y-51850000D02*
X173750000Y-50425000D01*
%TO.N,/EN*%
X169400000Y-60900000D02*
X168924348Y-61375652D01*
X175825000Y-61225000D02*
X175825000Y-62000000D01*
X173050000Y-58237500D02*
X173862500Y-58237500D01*
X171274265Y-59174265D02*
X170600000Y-58500000D01*
X168725000Y-61526304D02*
X168725000Y-63175000D01*
X176600000Y-59600000D02*
X176200000Y-60000000D01*
X176200000Y-60000000D02*
X175775000Y-60000000D01*
X173050000Y-58237500D02*
X173050000Y-58898529D01*
X173050000Y-58898529D02*
X172774265Y-59174265D01*
X175775000Y-60000000D02*
X175775000Y-61175000D01*
X168380000Y-63520000D02*
X168380000Y-64700000D01*
X168924348Y-61375652D02*
X168875652Y-61375652D01*
X168875652Y-61375652D02*
X168725000Y-61526304D01*
X172774265Y-59174265D02*
X171274265Y-59174265D01*
X177875000Y-63775000D02*
X177200000Y-63100000D01*
X175775000Y-61175000D02*
X175825000Y-61225000D01*
X176162648Y-57700000D02*
X176600000Y-58137352D01*
X170600000Y-58500000D02*
X169804448Y-58500000D01*
X174400000Y-57700000D02*
X176162648Y-57700000D01*
X178400000Y-63775000D02*
X177875000Y-63775000D01*
X169804448Y-58500000D02*
X169400000Y-58904448D01*
X176600000Y-58137352D02*
X176600000Y-59600000D01*
X168725000Y-63175000D02*
X168380000Y-63520000D01*
X176400000Y-63100000D02*
X175825000Y-62525000D01*
X175825000Y-62525000D02*
X175825000Y-62000000D01*
X169400000Y-58904448D02*
X169400000Y-60900000D01*
X173862500Y-58237500D02*
X174400000Y-57700000D01*
X177200000Y-63100000D02*
X176400000Y-63100000D01*
%TO.N,Net-(U7-GPIO6{slash}TOUCH6{slash}ADC1_CH5)*%
X164570000Y-64700000D02*
X164570000Y-65900000D01*
X175200000Y-67600000D02*
X175200000Y-68375000D01*
X171984314Y-66984314D02*
X172400000Y-67400000D01*
X165654314Y-66984314D02*
X171984314Y-66984314D01*
X172400000Y-67400000D02*
X175000000Y-67400000D01*
X164570000Y-65900000D02*
X165654314Y-66984314D01*
X175000000Y-67400000D02*
X175200000Y-67600000D01*
%TO.N,/SCK*%
X168900000Y-76900000D02*
X168715199Y-76900000D01*
X175900000Y-70800000D02*
X175600000Y-70800000D01*
X175200000Y-70400000D02*
X175200000Y-70025000D01*
X167609475Y-76578103D02*
X165523528Y-74492157D01*
X160300000Y-71901471D02*
X159898529Y-71500000D01*
X159350000Y-70650000D02*
X158375000Y-70650000D01*
X160300000Y-73584314D02*
X160300000Y-71901471D01*
X168393302Y-76578103D02*
X167609475Y-76578103D01*
X175600000Y-70800000D02*
X175200000Y-70400000D01*
X165523528Y-74492157D02*
X161207843Y-74492157D01*
X159898529Y-71500000D02*
X159898529Y-71198529D01*
X159898529Y-71198529D02*
X159350000Y-70650000D01*
X168715199Y-76900000D02*
X168393302Y-76578103D01*
X161207843Y-74492157D02*
X160300000Y-73584314D01*
%TO.N,Net-(J2-CONFIG_3)*%
X157375000Y-51650000D02*
X157250000Y-51525000D01*
X157250000Y-51525000D02*
X157250000Y-49450000D01*
%TO.N,Net-(J2-~{FULL_CARD_POWER_OFF})*%
X172900000Y-60000000D02*
X174000000Y-58900000D01*
X172775000Y-60000000D02*
X172900000Y-60000000D01*
%TO.N,/D+_ESP32*%
X157552500Y-58372500D02*
X157787500Y-58137500D01*
X154410000Y-61515000D02*
X154410000Y-64750000D01*
X158750000Y-49450000D02*
X158750000Y-52434314D01*
X157552500Y-58372500D02*
X154410000Y-61515000D01*
X158750000Y-52434314D02*
X157787500Y-53396814D01*
X157787500Y-58137500D02*
X157787500Y-53396814D01*
%TO.N,Net-(J2-~{W_DISABLE1})*%
X159300000Y-55650000D02*
X159300000Y-54750000D01*
X159300000Y-54750000D02*
X159150000Y-54600000D01*
%TO.N,/D-_ESP32*%
X159250000Y-52500000D02*
X159250000Y-49450000D01*
X158187500Y-58303186D02*
X158187500Y-53562500D01*
X155680000Y-64750000D02*
X155680000Y-63790000D01*
X158187500Y-53562500D02*
X159250000Y-52500000D01*
X155680000Y-63790000D02*
X155680000Y-60810686D01*
X155680000Y-60810686D02*
X158187500Y-58303186D01*
X155670000Y-63800000D02*
X155680000Y-63790000D01*
%TO.N,Net-(J2-CONFIG_0)*%
X162250000Y-52175000D02*
X163025000Y-52950000D01*
X162250000Y-49450000D02*
X162250000Y-52175000D01*
%TO.N,Net-(J2-CONFIG_1)*%
X174250000Y-50679878D02*
X173250000Y-51679878D01*
X173250000Y-51679878D02*
X173250000Y-52000000D01*
X174250000Y-49450000D02*
X174250000Y-50679878D01*
%TO.N,Net-(J2-CONFIG_2)*%
X175750000Y-49450000D02*
X175750000Y-52144714D01*
X175750000Y-52144714D02*
X175716250Y-52178464D01*
%TO.N,Net-(U4-TXD)*%
X162450000Y-60850000D02*
X162450000Y-59850000D01*
X161325000Y-62000000D02*
X161325000Y-61975000D01*
X161325000Y-61975000D02*
X162450000Y-60850000D01*
%TO.N,/RX*%
X165840000Y-79740000D02*
X164500000Y-78400000D01*
X164500000Y-78400000D02*
X164500000Y-78300000D01*
X165840000Y-82200000D02*
X165840000Y-79740000D01*
X162650000Y-63475000D02*
X162900000Y-63225000D01*
X159675000Y-62000000D02*
X159675000Y-63100000D01*
X159675000Y-63100000D02*
X160050000Y-63475000D01*
X160050000Y-63475000D02*
X162650000Y-63475000D01*
%TO.N,Net-(U7-GPIO4{slash}TOUCH4{slash}ADC1_CH3)*%
X167110000Y-64700000D02*
X167110000Y-65650000D01*
X167644314Y-66184314D02*
X172315686Y-66184314D01*
X172698528Y-66567157D02*
X177767157Y-66567157D01*
X178400000Y-67200000D02*
X178400000Y-68375000D01*
X167110000Y-65650000D02*
X167644314Y-66184314D01*
X177767157Y-66567157D02*
X178400000Y-67200000D01*
X172315686Y-66184314D02*
X172698528Y-66567157D01*
%TO.N,Net-(U7-GPIO5{slash}TOUCH5{slash}ADC1_CH4)*%
X165840000Y-64700000D02*
X165840000Y-65824314D01*
X176367157Y-66967157D02*
X176800000Y-67400000D01*
X172532843Y-66967157D02*
X176367157Y-66967157D01*
X172150000Y-66584314D02*
X172532843Y-66967157D01*
X176800000Y-67400000D02*
X176800000Y-68375000D01*
X165840000Y-65824314D02*
X166600000Y-66584314D01*
X166600000Y-66584314D02*
X172150000Y-66584314D01*
%TO.N,/CE_2*%
X171484314Y-67384314D02*
X164850000Y-67384314D01*
X173600000Y-68375000D02*
X172475000Y-68375000D01*
X172475000Y-68375000D02*
X171484314Y-67384314D01*
X164850000Y-67384314D02*
X163300000Y-65834314D01*
X163300000Y-65834314D02*
X163300000Y-64700000D01*
%TO.N,/IRQ_1*%
X158020000Y-66300000D02*
X156950000Y-65230000D01*
X163200000Y-66300000D02*
X158020000Y-66300000D01*
X172600000Y-72300000D02*
X172600000Y-69800000D01*
X176900000Y-73400000D02*
X176500000Y-73000000D01*
X176500000Y-73000000D02*
X173300000Y-73000000D01*
X164684314Y-67784314D02*
X163200000Y-66300000D01*
X170584314Y-67784314D02*
X164684314Y-67784314D01*
X173300000Y-73000000D02*
X172600000Y-72300000D01*
X156950000Y-65230000D02*
X156950000Y-64700000D01*
X176900000Y-74375000D02*
X176900000Y-73400000D01*
X172600000Y-69800000D02*
X170584314Y-67784314D01*
%TO.N,Net-(U7-GPIO46)*%
X167697058Y-76100000D02*
X165350000Y-73752941D01*
X154400000Y-67735000D02*
X153160000Y-67735000D01*
X157451471Y-69400000D02*
X157251471Y-69200000D01*
X169900000Y-77000000D02*
X169000000Y-76100000D01*
X157251471Y-69200000D02*
X155865000Y-69200000D01*
X174900000Y-77000000D02*
X169900000Y-77000000D01*
X175300000Y-76025000D02*
X175300000Y-76600000D01*
X165350000Y-69800001D02*
X164750000Y-69200000D01*
X165350000Y-73752941D02*
X165350000Y-69800001D01*
X155865000Y-69200000D02*
X154400000Y-67735000D01*
X164750000Y-69200000D02*
X158148529Y-69200000D01*
X157948529Y-69400000D02*
X157451471Y-69400000D01*
X169000000Y-76100000D02*
X167697058Y-76100000D01*
X175300000Y-76600000D02*
X174900000Y-77000000D01*
X158148529Y-69200000D02*
X157948529Y-69400000D01*
%TO.N,/CSN_1*%
X169656372Y-75625000D02*
X171675000Y-75625000D01*
X169331372Y-75300000D02*
X169656372Y-75625000D01*
X162600000Y-75692157D02*
X160933578Y-75692157D01*
X163007843Y-76100000D02*
X162600000Y-75692157D01*
X160933578Y-75692157D02*
X160700000Y-75925735D01*
X169000000Y-75300000D02*
X169331372Y-75300000D01*
X168105637Y-75094363D02*
X168794363Y-75094363D01*
X171675000Y-75625000D02*
X172925000Y-74375000D01*
X164800000Y-76100000D02*
X163007843Y-76100000D01*
X158236471Y-74085000D02*
X153160000Y-74085000D01*
X160077206Y-75925735D02*
X158236471Y-74085000D01*
X160700000Y-75925735D02*
X160077206Y-75925735D01*
X168794363Y-75094363D02*
X169000000Y-75300000D01*
X172925000Y-74375000D02*
X173700000Y-74375000D01*
%TO.N,/CE_1*%
X167934315Y-79700000D02*
X166300000Y-78065685D01*
X158940785Y-75355000D02*
X153160000Y-75355000D01*
X171574999Y-79700000D02*
X167934315Y-79700000D01*
X173700000Y-79075000D02*
X172200000Y-79075000D01*
X166300000Y-77734313D02*
X165665686Y-77100000D01*
X166300000Y-78065685D02*
X166300000Y-77734313D01*
X172200000Y-79075000D02*
X171574999Y-79700000D01*
X160685784Y-77100000D02*
X158940785Y-75355000D01*
X165665686Y-77100000D02*
X160685784Y-77100000D01*
%TO.N,/IO0*%
X154410000Y-81110000D02*
X154400000Y-81100000D01*
X177425000Y-58500000D02*
X177425000Y-57725000D01*
X154410000Y-82200000D02*
X154410000Y-81110000D01*
X171337500Y-58237500D02*
X171750000Y-58237500D01*
X168400000Y-57900000D02*
X171000000Y-57900000D01*
X177425000Y-57725000D02*
X177300000Y-57600000D01*
X171000000Y-57900000D02*
X171337500Y-58237500D01*
%TO.N,/TX*%
X167110000Y-82200000D02*
X167110000Y-80335000D01*
X164525000Y-62000000D02*
X164525000Y-62750000D01*
X165300000Y-78525000D02*
X165300000Y-78275000D01*
X167110000Y-80335000D02*
X165300000Y-78525000D01*
X165300000Y-78275000D02*
X165300000Y-78125000D01*
X164525000Y-62750000D02*
X164100000Y-63175000D01*
%TO.N,/IRQ_2*%
X168380000Y-82200000D02*
X168380000Y-81120000D01*
X176700000Y-82200000D02*
X176600000Y-82300000D01*
X176700000Y-80725000D02*
X176700000Y-82200000D01*
X168380000Y-81120000D02*
X168425000Y-81075000D01*
%TO.N,/CSN_2*%
X175200000Y-80725000D02*
X175200000Y-81900000D01*
X169675000Y-80975000D02*
X169650000Y-81000000D01*
X175200000Y-81900000D02*
X175000000Y-82100000D01*
X169650000Y-81000000D02*
X169650000Y-81675000D01*
%TO.N,Net-(U3-CE)*%
X173540000Y-70085000D02*
X173600000Y-70025000D01*
X173540000Y-70800000D02*
X173540000Y-70085000D01*
%TO.N,Net-(U3-IRQ)*%
X176700000Y-78140686D02*
X176700000Y-79075000D01*
X178300000Y-76540686D02*
X176700000Y-78140686D01*
X178300000Y-75025000D02*
X178300000Y-76540686D01*
X179950000Y-73375000D02*
X178300000Y-75025000D01*
%TO.N,Net-(U2-IRQ)*%
X172177943Y-77400000D02*
X171077942Y-78500000D01*
X166699999Y-77568627D02*
X165831371Y-76700000D01*
X176900000Y-76500000D02*
X176000000Y-77400000D01*
X166700000Y-77899998D02*
X166699999Y-77568627D01*
X176900000Y-76025000D02*
X176900000Y-76500000D01*
X167300000Y-78500000D02*
X166700000Y-77899998D01*
X171077942Y-78500000D02*
X167300000Y-78500000D01*
X165831371Y-76700000D02*
X162707843Y-76700000D01*
X176000000Y-77400000D02*
X172177943Y-77400000D01*
X162707843Y-76700000D02*
X162300000Y-76292157D01*
%TO.N,Net-(U4-RXD)*%
X163720000Y-60880000D02*
X163400000Y-61200000D01*
X163000000Y-61200000D02*
X162875000Y-61325000D01*
X163720000Y-59850000D02*
X163720000Y-60880000D01*
X162875000Y-61325000D02*
X162875000Y-62000000D01*
X163400000Y-61200000D02*
X163000000Y-61200000D01*
%TO.N,Net-(U3-~{CSN})*%
X177900000Y-76375000D02*
X175200000Y-79075000D01*
X175300000Y-72600000D02*
X177300000Y-72600000D01*
X174419102Y-70714401D02*
X174810000Y-71105299D01*
X174810000Y-71105299D02*
X174810000Y-72110000D01*
X174810000Y-72110000D02*
X175300000Y-72600000D01*
X177300000Y-72600000D02*
X177900000Y-73200000D01*
X177900000Y-73200000D02*
X177900000Y-76375000D01*
%TO.N,/D-_CH340*%
D28*
X178845000Y-61055000D02*
X178800000Y-61100000D01*
X167530000Y-59850000D02*
X167530000Y-58420000D01*
X167530000Y-58420000D02*
X167575000Y-58375000D01*
X180300000Y-61055000D02*
X178845000Y-61055000D01*
%TO.N,/D+_CH340*%
X180300000Y-63595000D02*
X179030000Y-62325000D01*
X166260000Y-58465000D02*
X166325000Y-58400000D01*
X179030000Y-62325000D02*
X179000000Y-62325000D01*
X166260000Y-59850000D02*
X166260000Y-58465000D01*
%TO.N,Net-(D1-A)*%
D29*
X180500000Y-67275000D02*
X180500000Y-66335000D01*
X180500000Y-66335000D02*
X180300000Y-66135000D01*
X180500000Y-67275000D02*
X180500000Y-68175000D01*
%TO.N,Net-(U2-~{CSN})*%
D10*
X164915685Y-68800000D02*
X157700000Y-68800000D01*
X169490686Y-76025000D02*
X169165686Y-75700000D01*
X173700000Y-76025000D02*
X169490686Y-76025000D01*
X165750000Y-69634315D02*
X164915685Y-68800000D01*
X167862744Y-75700000D02*
X165750000Y-73587256D01*
X169165686Y-75700000D02*
X167862744Y-75700000D01*
X165750000Y-73587256D02*
X165750000Y-69634315D01*
%TO.N,Net-(U2-CE)*%
X172300000Y-80100000D02*
X172925000Y-80725000D01*
X167768629Y-80100000D02*
X172300000Y-80100000D01*
X160237256Y-77500000D02*
X165500001Y-77500000D01*
X158796128Y-76058872D02*
X160237256Y-77500000D01*
X165900000Y-77899999D02*
X165900000Y-78231370D01*
X165900000Y-78231370D02*
X167768629Y-80100000D01*
X172925000Y-80725000D02*
X173700000Y-80725000D01*
X165500001Y-77500000D02*
X165900000Y-77899999D01*
%TO.N,/RTS*%
X173050000Y-56562500D02*
X173050000Y-55450000D01*
X164020001Y-53625000D02*
X163720000Y-53925001D01*
X163720000Y-53925001D02*
X163720000Y-54900000D01*
X173050000Y-56562500D02*
X173050000Y-57050000D01*
X172400000Y-57700000D02*
X172400000Y-58237500D01*
X173050000Y-57050000D02*
X172400000Y-57700000D01*
X171225000Y-53625000D02*
X164020001Y-53625000D01*
X173050000Y-55450000D02*
X171225000Y-53625000D01*
%TO.N,/DTR*%
X165362500Y-56562500D02*
X171750000Y-56562500D01*
X164990000Y-54900000D02*
X164990000Y-56190000D01*
X171750000Y-56562500D02*
X172400000Y-56562500D01*
X164990000Y-56190000D02*
X165362500Y-56562500D01*
%TO.N,/MISO*%
X165192157Y-75292157D02*
X167800000Y-77900000D01*
X178968263Y-70593263D02*
X178400000Y-70025000D01*
X160325735Y-75325735D02*
X160359313Y-75292157D01*
X160359313Y-75292157D02*
X165192157Y-75292157D01*
X179217321Y-70593263D02*
X178968263Y-70593263D01*
%TO.N,/MOSI*%
X177350000Y-70850000D02*
X177150000Y-70850000D01*
X177150000Y-70850000D02*
X176800000Y-70500000D01*
X176800000Y-70500000D02*
X176800000Y-70025000D01*
X167643789Y-77178103D02*
X165357843Y-74892157D01*
X168144773Y-77178103D02*
X167643789Y-77178103D01*
X165357843Y-74892157D02*
X161042157Y-74892157D01*
X161042157Y-74892157D02*
X159650000Y-73500000D01*
%TD*%
%TA.AperFunction,Conductor*%
%TO.N,GND*%
G36*
X179528518Y-68569244D02*
G01*
X179534125Y-68569445D01*
X179558522Y-68586384D01*
X179584318Y-68601119D01*
X179588124Y-68606935D01*
X179591518Y-68609292D01*
X179609528Y-68639645D01*
X179613365Y-68648908D01*
X179613371Y-68648920D01*
X179722860Y-68812781D01*
X179722863Y-68812785D01*
X179862214Y-68952136D01*
X179862218Y-68952139D01*
X180026079Y-69061628D01*
X180026092Y-69061635D01*
X180208160Y-69137049D01*
X180208165Y-69137051D01*
X180208169Y-69137051D01*
X180208170Y-69137052D01*
X180401456Y-69175500D01*
X180401459Y-69175500D01*
X180598543Y-69175500D01*
X180728582Y-69149632D01*
X180791835Y-69137051D01*
X180828049Y-69122050D01*
X180897516Y-69114582D01*
X180959995Y-69145857D01*
X180995648Y-69205945D01*
X180999500Y-69236612D01*
X180999500Y-83476000D01*
X180979815Y-83543039D01*
X180927011Y-83588794D01*
X180875500Y-83600000D01*
X171708601Y-83600000D01*
X171641562Y-83580315D01*
X171595807Y-83527511D01*
X171585863Y-83458353D01*
X171614888Y-83394797D01*
X171634290Y-83376734D01*
X171727187Y-83307190D01*
X171727190Y-83307187D01*
X171813350Y-83192093D01*
X171813354Y-83192086D01*
X171863596Y-83057379D01*
X171863598Y-83057372D01*
X171869999Y-82997844D01*
X171870000Y-82997827D01*
X171870000Y-82450000D01*
X171044000Y-82450000D01*
X170976961Y-82430315D01*
X170931206Y-82377511D01*
X170920000Y-82326000D01*
X170920000Y-82200000D01*
X170794000Y-82200000D01*
X170726961Y-82180315D01*
X170681206Y-82127511D01*
X170670000Y-82076000D01*
X170670000Y-81950000D01*
X171170000Y-81950000D01*
X171870000Y-81950000D01*
X171870000Y-81402172D01*
X171869999Y-81402155D01*
X171863598Y-81342627D01*
X171863596Y-81342620D01*
X171813354Y-81207913D01*
X171813350Y-81207906D01*
X171727190Y-81092812D01*
X171727187Y-81092809D01*
X171612093Y-81006649D01*
X171612086Y-81006645D01*
X171477379Y-80956403D01*
X171477372Y-80956401D01*
X171417844Y-80950000D01*
X171170000Y-80950000D01*
X171170000Y-81950000D01*
X170670000Y-81950000D01*
X170670000Y-80986401D01*
X170546743Y-80942945D01*
X170534917Y-80934420D01*
X170520935Y-80930315D01*
X170507148Y-80914404D01*
X170490063Y-80902089D01*
X170484723Y-80888524D01*
X170475180Y-80877511D01*
X170466351Y-80850162D01*
X170466053Y-80848662D01*
X170466605Y-80842501D01*
X170464470Y-80837076D01*
X170469251Y-80813013D01*
X170472297Y-80779072D01*
X170477267Y-80772677D01*
X170478088Y-80768546D01*
X170490392Y-80755789D01*
X170515173Y-80723905D01*
X170524223Y-80720714D01*
X170526594Y-80718257D01*
X170540574Y-80714950D01*
X170581068Y-80700676D01*
X170587676Y-80700500D01*
X171999903Y-80700500D01*
X172066942Y-80720185D01*
X172087584Y-80736819D01*
X172440139Y-81089374D01*
X172440149Y-81089385D01*
X172444479Y-81093715D01*
X172444480Y-81093716D01*
X172556284Y-81205520D01*
X172556286Y-81205521D01*
X172556290Y-81205524D01*
X172693209Y-81284573D01*
X172693216Y-81284577D01*
X172782487Y-81308497D01*
X172801418Y-81313569D01*
X172826497Y-81328857D01*
X172861072Y-81349931D01*
X172861074Y-81349934D01*
X172861076Y-81349935D01*
X172861076Y-81349936D01*
X172866933Y-81356873D01*
X172869529Y-81360187D01*
X172989811Y-81480469D01*
X172989813Y-81480470D01*
X172989815Y-81480472D01*
X173135394Y-81568478D01*
X173297804Y-81619086D01*
X173368384Y-81625500D01*
X173368387Y-81625500D01*
X174031613Y-81625500D01*
X174031616Y-81625500D01*
X174102196Y-81619086D01*
X174114143Y-81615362D01*
X174184001Y-81614209D01*
X174243395Y-81651008D01*
X174273465Y-81714076D01*
X174265596Y-81781199D01*
X174230264Y-81866498D01*
X174230261Y-81866510D01*
X174199500Y-82021153D01*
X174199500Y-82178846D01*
X174230261Y-82333489D01*
X174230264Y-82333501D01*
X174290602Y-82479172D01*
X174290609Y-82479185D01*
X174378210Y-82610288D01*
X174378213Y-82610292D01*
X174489707Y-82721786D01*
X174489711Y-82721789D01*
X174620814Y-82809390D01*
X174620827Y-82809397D01*
X174766498Y-82869735D01*
X174766503Y-82869737D01*
X174921153Y-82900499D01*
X174921156Y-82900500D01*
X174921158Y-82900500D01*
X175078844Y-82900500D01*
X175078845Y-82900499D01*
X175233497Y-82869737D01*
X175379179Y-82809394D01*
X175510289Y-82721789D01*
X175621789Y-82610289D01*
X175641234Y-82581188D01*
X175694846Y-82536383D01*
X175764171Y-82527676D01*
X175827198Y-82557830D01*
X175858897Y-82602627D01*
X175890602Y-82679172D01*
X175890609Y-82679185D01*
X175978210Y-82810288D01*
X175978213Y-82810292D01*
X176089707Y-82921786D01*
X176089711Y-82921789D01*
X176220814Y-83009390D01*
X176220827Y-83009397D01*
X176336651Y-83057372D01*
X176366503Y-83069737D01*
X176521153Y-83100499D01*
X176521156Y-83100500D01*
X176521158Y-83100500D01*
X176678844Y-83100500D01*
X176678845Y-83100499D01*
X176833497Y-83069737D01*
X176979179Y-83009394D01*
X177110289Y-82921789D01*
X177221789Y-82810289D01*
X177309394Y-82679179D01*
X177369737Y-82533497D01*
X177400500Y-82378842D01*
X177400500Y-82221158D01*
X177400500Y-82221155D01*
X177400499Y-82221153D01*
X177392376Y-82180315D01*
X177369737Y-82066503D01*
X177350953Y-82021153D01*
X177309939Y-81922136D01*
X177300500Y-81874684D01*
X177300500Y-81616715D01*
X177320185Y-81549676D01*
X177360349Y-81510598D01*
X177410185Y-81480472D01*
X177530472Y-81360185D01*
X177618478Y-81214606D01*
X177669086Y-81052196D01*
X177675500Y-80981616D01*
X177675500Y-80468384D01*
X177669086Y-80397804D01*
X177618478Y-80235394D01*
X177530472Y-80089815D01*
X177530470Y-80089813D01*
X177530469Y-80089811D01*
X177428339Y-79987681D01*
X177394854Y-79926358D01*
X177399838Y-79856666D01*
X177428339Y-79812319D01*
X177530468Y-79710189D01*
X177530469Y-79710188D01*
X177530472Y-79710185D01*
X177618478Y-79564606D01*
X177669086Y-79402196D01*
X177675500Y-79331616D01*
X177675500Y-78818384D01*
X177669086Y-78747804D01*
X177618478Y-78585394D01*
X177530472Y-78439815D01*
X177530470Y-78439813D01*
X177530469Y-78439811D01*
X177530468Y-78439810D01*
X177477970Y-78387313D01*
X177444484Y-78325990D01*
X177449468Y-78256298D01*
X177477966Y-78211953D01*
X178780520Y-76909402D01*
X178859577Y-76772470D01*
X178900501Y-76619743D01*
X178900501Y-76461628D01*
X178900501Y-76454033D01*
X178900500Y-76454015D01*
X178900500Y-75325097D01*
X178920185Y-75258058D01*
X178936819Y-75237416D01*
X179433812Y-74740423D01*
X179964662Y-74209572D01*
X180025983Y-74176089D01*
X180028150Y-74175638D01*
X180086085Y-74164113D01*
X180183497Y-74144737D01*
X180329179Y-74084394D01*
X180460289Y-73996789D01*
X180571789Y-73885289D01*
X180659394Y-73754179D01*
X180719737Y-73608497D01*
X180750500Y-73453842D01*
X180750500Y-73296158D01*
X180750500Y-73296155D01*
X180750499Y-73296153D01*
X180744600Y-73266498D01*
X180719737Y-73141503D01*
X180711170Y-73120821D01*
X180659397Y-72995827D01*
X180659390Y-72995814D01*
X180571789Y-72864711D01*
X180571786Y-72864707D01*
X180460292Y-72753213D01*
X180460288Y-72753210D01*
X180329185Y-72665609D01*
X180329172Y-72665602D01*
X180183501Y-72605264D01*
X180183489Y-72605261D01*
X180028845Y-72574500D01*
X180028842Y-72574500D01*
X179871158Y-72574500D01*
X179871155Y-72574500D01*
X179716510Y-72605261D01*
X179716498Y-72605264D01*
X179570827Y-72665602D01*
X179570814Y-72665609D01*
X179439711Y-72753210D01*
X179439707Y-72753213D01*
X179328213Y-72864707D01*
X179328210Y-72864711D01*
X179240609Y-72995814D01*
X179240602Y-72995827D01*
X179180264Y-73141498D01*
X179180261Y-73141508D01*
X179149361Y-73296850D01*
X179116976Y-73358761D01*
X179115425Y-73360339D01*
X178712181Y-73763584D01*
X178650858Y-73797069D01*
X178581167Y-73792085D01*
X178525233Y-73750214D01*
X178500816Y-73684749D01*
X178500500Y-73675903D01*
X178500500Y-73120945D01*
X178500500Y-73120943D01*
X178474722Y-73024737D01*
X178459577Y-72968215D01*
X178430639Y-72918095D01*
X178380520Y-72831284D01*
X178268716Y-72719480D01*
X178268715Y-72719479D01*
X178264385Y-72715149D01*
X178264374Y-72715139D01*
X177787590Y-72238355D01*
X177787588Y-72238352D01*
X177668717Y-72119481D01*
X177668709Y-72119475D01*
X177536034Y-72042876D01*
X177536029Y-72042871D01*
X177536029Y-72042873D01*
X177531788Y-72040424D01*
X177531785Y-72040423D01*
X177379057Y-71999499D01*
X177220943Y-71999499D01*
X177213347Y-71999499D01*
X177213331Y-71999500D01*
X175600098Y-71999500D01*
X175570657Y-71990855D01*
X175540671Y-71984332D01*
X175535655Y-71980577D01*
X175533059Y-71979815D01*
X175512417Y-71963181D01*
X175446819Y-71897583D01*
X175413334Y-71836260D01*
X175410500Y-71809902D01*
X175410500Y-71649276D01*
X175430185Y-71582237D01*
X175482989Y-71536482D01*
X175552147Y-71526538D01*
X175581949Y-71534713D01*
X175666503Y-71569737D01*
X175821153Y-71600499D01*
X175821156Y-71600500D01*
X175821158Y-71600500D01*
X175978844Y-71600500D01*
X175978845Y-71600499D01*
X176133497Y-71569737D01*
X176279179Y-71509394D01*
X176410289Y-71421789D01*
X176518664Y-71313413D01*
X176579985Y-71279930D01*
X176649677Y-71284914D01*
X176705611Y-71326785D01*
X176709447Y-71332206D01*
X176728212Y-71360291D01*
X176839707Y-71471786D01*
X176839711Y-71471789D01*
X176970814Y-71559390D01*
X176970827Y-71559397D01*
X177070060Y-71600500D01*
X177116503Y-71619737D01*
X177265005Y-71649276D01*
X177271153Y-71650499D01*
X177271156Y-71650500D01*
X177271158Y-71650500D01*
X177428844Y-71650500D01*
X177428845Y-71650499D01*
X177583497Y-71619737D01*
X177729179Y-71559394D01*
X177860289Y-71471789D01*
X177971789Y-71360289D01*
X178059394Y-71229179D01*
X178119737Y-71083497D01*
X178126972Y-71047123D01*
X178131312Y-71025308D01*
X178146024Y-70997181D01*
X178159216Y-70968297D01*
X178162105Y-70966439D01*
X178163697Y-70963398D01*
X178191282Y-70947689D01*
X178217994Y-70930523D01*
X178222587Y-70929862D01*
X178224413Y-70928823D01*
X178252929Y-70925500D01*
X178399901Y-70925500D01*
X178466940Y-70945185D01*
X178487581Y-70961817D01*
X178487742Y-70961978D01*
X178487743Y-70961979D01*
X178518867Y-70993103D01*
X178534285Y-71011890D01*
X178595530Y-71103550D01*
X178595534Y-71103555D01*
X178707028Y-71215049D01*
X178707032Y-71215052D01*
X178838135Y-71302653D01*
X178838148Y-71302660D01*
X178977279Y-71360289D01*
X178983824Y-71363000D01*
X179138474Y-71393762D01*
X179138477Y-71393763D01*
X179138479Y-71393763D01*
X179296165Y-71393763D01*
X179296166Y-71393762D01*
X179450818Y-71363000D01*
X179596500Y-71302657D01*
X179727610Y-71215052D01*
X179839110Y-71103552D01*
X179839112Y-71103550D01*
X179926711Y-70972448D01*
X179926711Y-70972447D01*
X179926715Y-70972442D01*
X179987058Y-70826760D01*
X180017821Y-70672105D01*
X180017821Y-70514421D01*
X180017821Y-70514418D01*
X180017820Y-70514416D01*
X179998343Y-70416498D01*
X179987058Y-70359766D01*
X179970456Y-70319685D01*
X179926718Y-70214090D01*
X179926711Y-70214077D01*
X179839110Y-70082974D01*
X179839107Y-70082970D01*
X179727613Y-69971476D01*
X179727609Y-69971473D01*
X179596506Y-69883872D01*
X179596497Y-69883867D01*
X179447014Y-69821950D01*
X179392611Y-69778109D01*
X179370976Y-69718611D01*
X179369086Y-69697804D01*
X179318478Y-69535394D01*
X179230472Y-69389815D01*
X179230470Y-69389813D01*
X179230469Y-69389811D01*
X179128339Y-69287681D01*
X179094854Y-69226358D01*
X179099838Y-69156666D01*
X179128339Y-69112319D01*
X179230468Y-69010189D01*
X179230469Y-69010188D01*
X179230472Y-69010185D01*
X179318478Y-68864606D01*
X179369086Y-68702196D01*
X179371477Y-68675877D01*
X179373537Y-68670662D01*
X179372938Y-68665085D01*
X179386233Y-68638523D01*
X179397147Y-68610896D01*
X179401701Y-68607621D01*
X179404212Y-68602606D01*
X179429756Y-68587448D01*
X179453875Y-68570107D01*
X179459475Y-68569814D01*
X179464300Y-68566952D01*
X179493989Y-68568012D01*
X179523649Y-68566463D01*
X179528518Y-68569244D01*
G37*
%TD.AperFunction*%
%TA.AperFunction,Conductor*%
G36*
X157938667Y-75975185D02*
G01*
X157984422Y-76027989D01*
X157995628Y-76079500D01*
X157995628Y-76137718D01*
X158026389Y-76292361D01*
X158026392Y-76292373D01*
X158086730Y-76438044D01*
X158086737Y-76438057D01*
X158174338Y-76569160D01*
X158174341Y-76569164D01*
X158285835Y-76680658D01*
X158285839Y-76680661D01*
X158416942Y-76768262D01*
X158416955Y-76768269D01*
X158562626Y-76828607D01*
X158562631Y-76828609D01*
X158627275Y-76841467D01*
X158717977Y-76859510D01*
X158779888Y-76891895D01*
X158781465Y-76893444D01*
X159868540Y-77980520D01*
X159868542Y-77980521D01*
X159868546Y-77980524D01*
X160005465Y-78059573D01*
X160005472Y-78059577D01*
X160158199Y-78100501D01*
X160158201Y-78100501D01*
X160323910Y-78100501D01*
X160323926Y-78100500D01*
X163575500Y-78100500D01*
X163642539Y-78120185D01*
X163688294Y-78172989D01*
X163699500Y-78224500D01*
X163699500Y-78378846D01*
X163730261Y-78533489D01*
X163730264Y-78533501D01*
X163790602Y-78679172D01*
X163790609Y-78679185D01*
X163878210Y-78810288D01*
X163878213Y-78810292D01*
X163989707Y-78921786D01*
X163989711Y-78921789D01*
X164120814Y-79009390D01*
X164120827Y-79009397D01*
X164188961Y-79037618D01*
X164266503Y-79069737D01*
X164297018Y-79075806D01*
X164358929Y-79108191D01*
X164360508Y-79109743D01*
X165203181Y-79952416D01*
X165236666Y-80013739D01*
X165239500Y-80040097D01*
X165239500Y-80829906D01*
X165219815Y-80896945D01*
X165167011Y-80942700D01*
X165102247Y-80953195D01*
X165067873Y-80949500D01*
X165067865Y-80949500D01*
X164072129Y-80949500D01*
X164072123Y-80949501D01*
X164012518Y-80955908D01*
X163978331Y-80968659D01*
X163908639Y-80973642D01*
X163891669Y-80968659D01*
X163874140Y-80962121D01*
X163857483Y-80955909D01*
X163857482Y-80955908D01*
X163797883Y-80949501D01*
X163797881Y-80949500D01*
X163797873Y-80949500D01*
X163797864Y-80949500D01*
X162802129Y-80949500D01*
X162802123Y-80949501D01*
X162742518Y-80955908D01*
X162708331Y-80968659D01*
X162638639Y-80973642D01*
X162621669Y-80968659D01*
X162604140Y-80962121D01*
X162587483Y-80955909D01*
X162587482Y-80955908D01*
X162527883Y-80949501D01*
X162527881Y-80949500D01*
X162527873Y-80949500D01*
X162527864Y-80949500D01*
X161532129Y-80949500D01*
X161532123Y-80949501D01*
X161472518Y-80955908D01*
X161438331Y-80968659D01*
X161368639Y-80973642D01*
X161351669Y-80968659D01*
X161334140Y-80962121D01*
X161317483Y-80955909D01*
X161317482Y-80955908D01*
X161257883Y-80949501D01*
X161257881Y-80949500D01*
X161257873Y-80949500D01*
X161257864Y-80949500D01*
X160262129Y-80949500D01*
X160262123Y-80949501D01*
X160202518Y-80955908D01*
X160168331Y-80968659D01*
X160098639Y-80973642D01*
X160081669Y-80968659D01*
X160064140Y-80962121D01*
X160047483Y-80955909D01*
X160047482Y-80955908D01*
X159987883Y-80949501D01*
X159987881Y-80949500D01*
X159987873Y-80949500D01*
X159987864Y-80949500D01*
X158992129Y-80949500D01*
X158992123Y-80949501D01*
X158932518Y-80955908D01*
X158898331Y-80968659D01*
X158828639Y-80973642D01*
X158811669Y-80968659D01*
X158794140Y-80962121D01*
X158777483Y-80955909D01*
X158777482Y-80955908D01*
X158717883Y-80949501D01*
X158717881Y-80949500D01*
X158717873Y-80949500D01*
X158717864Y-80949500D01*
X157722129Y-80949500D01*
X157722123Y-80949501D01*
X157662518Y-80955908D01*
X157628331Y-80968659D01*
X157558639Y-80973642D01*
X157541669Y-80968659D01*
X157524140Y-80962121D01*
X157507483Y-80955909D01*
X157507482Y-80955908D01*
X157447883Y-80949501D01*
X157447881Y-80949500D01*
X157447873Y-80949500D01*
X157447864Y-80949500D01*
X156452129Y-80949500D01*
X156452123Y-80949501D01*
X156392518Y-80955908D01*
X156358331Y-80968659D01*
X156288639Y-80973642D01*
X156271669Y-80968659D01*
X156254140Y-80962121D01*
X156237483Y-80955909D01*
X156237482Y-80955908D01*
X156177883Y-80949501D01*
X156177881Y-80949500D01*
X156177873Y-80949500D01*
X156177865Y-80949500D01*
X155286878Y-80949500D01*
X155219839Y-80929815D01*
X155174084Y-80877011D01*
X155172215Y-80872069D01*
X155172068Y-80872131D01*
X155109397Y-80720827D01*
X155109390Y-80720814D01*
X155021789Y-80589711D01*
X155021786Y-80589707D01*
X154910292Y-80478213D01*
X154910288Y-80478210D01*
X154779185Y-80390609D01*
X154779172Y-80390602D01*
X154633501Y-80330264D01*
X154633491Y-80330261D01*
X154510307Y-80305758D01*
X154448396Y-80273373D01*
X154413822Y-80212657D01*
X154410499Y-80184141D01*
X154410499Y-79937129D01*
X154410498Y-79937123D01*
X154404091Y-79877518D01*
X154396314Y-79856666D01*
X154391340Y-79843332D01*
X154386357Y-79773642D01*
X154391338Y-79756672D01*
X154404091Y-79722483D01*
X154410500Y-79662873D01*
X154410499Y-78667128D01*
X154404091Y-78607517D01*
X154391340Y-78573332D01*
X154386357Y-78503642D01*
X154391338Y-78486672D01*
X154404091Y-78452483D01*
X154410500Y-78392873D01*
X154410499Y-77397128D01*
X154404091Y-77337517D01*
X154391340Y-77303332D01*
X154389696Y-77280344D01*
X154383537Y-77258135D01*
X154386849Y-77240531D01*
X154386357Y-77233642D01*
X154389085Y-77223280D01*
X154390120Y-77219938D01*
X154404091Y-77182483D01*
X154405342Y-77170842D01*
X154408906Y-77159349D01*
X154421840Y-77139873D01*
X154430786Y-77118271D01*
X154440808Y-77111310D01*
X154447560Y-77101145D01*
X154468971Y-77091753D01*
X154488175Y-77078418D01*
X154500370Y-77077981D01*
X154511545Y-77073080D01*
X154534633Y-77076754D01*
X154558000Y-77075918D01*
X154573886Y-77083002D01*
X154580546Y-77084062D01*
X154584815Y-77087875D01*
X154596234Y-77092967D01*
X154620809Y-77109387D01*
X154620818Y-77109392D01*
X154620821Y-77109394D01*
X154620823Y-77109394D01*
X154620827Y-77109397D01*
X154694404Y-77139873D01*
X154766503Y-77169737D01*
X154921153Y-77200499D01*
X154921156Y-77200500D01*
X154921158Y-77200500D01*
X155078844Y-77200500D01*
X155078845Y-77200499D01*
X155233497Y-77169737D01*
X155357748Y-77118271D01*
X155379172Y-77109397D01*
X155379172Y-77109396D01*
X155379179Y-77109394D01*
X155510289Y-77021789D01*
X155621789Y-76910289D01*
X155709394Y-76779179D01*
X155712171Y-76772476D01*
X155769735Y-76633501D01*
X155769737Y-76633497D01*
X155800500Y-76478842D01*
X155800500Y-76321158D01*
X155800500Y-76321155D01*
X155800499Y-76321153D01*
X155769738Y-76166510D01*
X155769737Y-76166503D01*
X155757814Y-76137718D01*
X155753355Y-76126952D01*
X155745886Y-76057483D01*
X155777162Y-75995004D01*
X155837251Y-75959352D01*
X155867916Y-75955500D01*
X157871628Y-75955500D01*
X157938667Y-75975185D01*
G37*
%TD.AperFunction*%
%TA.AperFunction,Conductor*%
G36*
X170351256Y-68404499D02*
G01*
X170371898Y-68421133D01*
X171963181Y-70012416D01*
X171996666Y-70073739D01*
X171999500Y-70100097D01*
X171999500Y-72213330D01*
X171999499Y-72213348D01*
X171999499Y-72379054D01*
X171999498Y-72379054D01*
X171999499Y-72379057D01*
X172040423Y-72531785D01*
X172061203Y-72567776D01*
X172091111Y-72619578D01*
X172119479Y-72668715D01*
X172238349Y-72787585D01*
X172238355Y-72787590D01*
X172819478Y-73368713D01*
X172819480Y-73368716D01*
X172931284Y-73480520D01*
X172934392Y-73482314D01*
X172942590Y-73490422D01*
X172955888Y-73514458D01*
X172972084Y-73536641D01*
X172972557Y-73544589D01*
X172976413Y-73551559D01*
X172974604Y-73578969D01*
X172976237Y-73606388D01*
X172972329Y-73613443D01*
X172971813Y-73621277D01*
X172956626Y-73641799D01*
X172943076Y-73666267D01*
X172869522Y-73739821D01*
X172866927Y-73743134D01*
X172864413Y-73744930D01*
X172864225Y-73745119D01*
X172864193Y-73745087D01*
X172810084Y-73783763D01*
X172801415Y-73786430D01*
X172693218Y-73815422D01*
X172693212Y-73815424D01*
X172686947Y-73819042D01*
X172686945Y-73819043D01*
X172556287Y-73894477D01*
X172556282Y-73894481D01*
X172444478Y-74006286D01*
X171462584Y-74988181D01*
X171401261Y-75021666D01*
X171374903Y-75024500D01*
X169956469Y-75024500D01*
X169927028Y-75015855D01*
X169897042Y-75009332D01*
X169892026Y-75005577D01*
X169889430Y-75004815D01*
X169868788Y-74988181D01*
X169818962Y-74938355D01*
X169818960Y-74938352D01*
X169700089Y-74819481D01*
X169700088Y-74819480D01*
X169613276Y-74769360D01*
X169613276Y-74769359D01*
X169613272Y-74769358D01*
X169563157Y-74740423D01*
X169410429Y-74699499D01*
X169300097Y-74699499D01*
X169233058Y-74679814D01*
X169228365Y-74676645D01*
X169219823Y-74670587D01*
X169163079Y-74613843D01*
X169042938Y-74544480D01*
X169026148Y-74534786D01*
X168873420Y-74493862D01*
X168715306Y-74493862D01*
X168707710Y-74493862D01*
X168707694Y-74493863D01*
X168685403Y-74493863D01*
X168618364Y-74474178D01*
X168616512Y-74472965D01*
X168484822Y-74384972D01*
X168484809Y-74384965D01*
X168339138Y-74324627D01*
X168339126Y-74324624D01*
X168184482Y-74293863D01*
X168184479Y-74293863D01*
X168026795Y-74293863D01*
X168026792Y-74293863D01*
X167872147Y-74324624D01*
X167872135Y-74324627D01*
X167726464Y-74384965D01*
X167726453Y-74384971D01*
X167613543Y-74460415D01*
X167546866Y-74481292D01*
X167479485Y-74462807D01*
X167456972Y-74444993D01*
X166386819Y-73374840D01*
X166353334Y-73313517D01*
X166350500Y-73287159D01*
X166350500Y-71983653D01*
X168074500Y-71983653D01*
X168074500Y-72141346D01*
X168105261Y-72295989D01*
X168105264Y-72296001D01*
X168165602Y-72441672D01*
X168165609Y-72441685D01*
X168253210Y-72572788D01*
X168253213Y-72572792D01*
X168364707Y-72684286D01*
X168364711Y-72684289D01*
X168495814Y-72771890D01*
X168495827Y-72771897D01*
X168641498Y-72832235D01*
X168641503Y-72832237D01*
X168796153Y-72862999D01*
X168796156Y-72863000D01*
X168796158Y-72863000D01*
X168953844Y-72863000D01*
X168953845Y-72862999D01*
X169108497Y-72832237D01*
X169221166Y-72785567D01*
X169254172Y-72771897D01*
X169254172Y-72771896D01*
X169254179Y-72771894D01*
X169381109Y-72687082D01*
X169447786Y-72666204D01*
X169515166Y-72684688D01*
X169518891Y-72687082D01*
X169645814Y-72771890D01*
X169645827Y-72771897D01*
X169791498Y-72832235D01*
X169791503Y-72832237D01*
X169946153Y-72862999D01*
X169946156Y-72863000D01*
X169946158Y-72863000D01*
X170103844Y-72863000D01*
X170103845Y-72862999D01*
X170258497Y-72832237D01*
X170371166Y-72785567D01*
X170404172Y-72771897D01*
X170404172Y-72771896D01*
X170404179Y-72771894D01*
X170535289Y-72684289D01*
X170646789Y-72572789D01*
X170734394Y-72441679D01*
X170794737Y-72295997D01*
X170825500Y-72141342D01*
X170825500Y-71983658D01*
X170825500Y-71983655D01*
X170825499Y-71983653D01*
X170821427Y-71963181D01*
X170794737Y-71829003D01*
X170754469Y-71731787D01*
X170734397Y-71683327D01*
X170734390Y-71683314D01*
X170646789Y-71552211D01*
X170646786Y-71552207D01*
X170535292Y-71440713D01*
X170535288Y-71440710D01*
X170404185Y-71353109D01*
X170404172Y-71353102D01*
X170258501Y-71292764D01*
X170258489Y-71292761D01*
X170103845Y-71262000D01*
X170103842Y-71262000D01*
X169946158Y-71262000D01*
X169946155Y-71262000D01*
X169791510Y-71292761D01*
X169791498Y-71292764D01*
X169645827Y-71353102D01*
X169645814Y-71353109D01*
X169518891Y-71437917D01*
X169452213Y-71458795D01*
X169384833Y-71440310D01*
X169381109Y-71437917D01*
X169254185Y-71353109D01*
X169254172Y-71353102D01*
X169108501Y-71292764D01*
X169108489Y-71292761D01*
X168953845Y-71262000D01*
X168953842Y-71262000D01*
X168796158Y-71262000D01*
X168796155Y-71262000D01*
X168641510Y-71292761D01*
X168641498Y-71292764D01*
X168495827Y-71353102D01*
X168495814Y-71353109D01*
X168364711Y-71440710D01*
X168364707Y-71440713D01*
X168253213Y-71552207D01*
X168253210Y-71552211D01*
X168165609Y-71683314D01*
X168165602Y-71683327D01*
X168105264Y-71828998D01*
X168105261Y-71829010D01*
X168074500Y-71983653D01*
X166350500Y-71983653D01*
X166350500Y-69723375D01*
X166350501Y-69723362D01*
X166350501Y-69555259D01*
X166336464Y-69502873D01*
X166309577Y-69402531D01*
X166309573Y-69402524D01*
X166230524Y-69265605D01*
X166230518Y-69265597D01*
X165917057Y-68952136D01*
X165561414Y-68596494D01*
X165527930Y-68535172D01*
X165532914Y-68465481D01*
X165574785Y-68409547D01*
X165640250Y-68385130D01*
X165649096Y-68384814D01*
X170284217Y-68384814D01*
X170351256Y-68404499D01*
G37*
%TD.AperFunction*%
%TA.AperFunction,Conductor*%
G36*
X154615702Y-68800383D02*
G01*
X154622180Y-68806415D01*
X155380139Y-69564374D01*
X155380149Y-69564385D01*
X155384479Y-69568715D01*
X155384480Y-69568716D01*
X155496284Y-69680520D01*
X155566301Y-69720944D01*
X155633215Y-69759577D01*
X155785943Y-69800501D01*
X155785946Y-69800501D01*
X155951653Y-69800501D01*
X155951669Y-69800500D01*
X156951373Y-69800500D01*
X157018412Y-69820185D01*
X157039054Y-69836819D01*
X157082755Y-69880520D01*
X157082757Y-69880521D01*
X157082761Y-69880524D01*
X157186828Y-69940606D01*
X157219687Y-69959577D01*
X157372414Y-70000501D01*
X157372416Y-70000501D01*
X157538125Y-70000501D01*
X157538141Y-70000500D01*
X157614241Y-70000500D01*
X157681280Y-70020185D01*
X157727035Y-70072989D01*
X157736979Y-70142147D01*
X157717343Y-70193391D01*
X157665609Y-70270815D01*
X157665602Y-70270827D01*
X157605264Y-70416498D01*
X157605261Y-70416510D01*
X157574500Y-70571153D01*
X157574500Y-70728846D01*
X157605261Y-70883489D01*
X157605264Y-70883501D01*
X157665602Y-71029172D01*
X157665609Y-71029185D01*
X157753210Y-71160288D01*
X157753213Y-71160292D01*
X157864707Y-71271786D01*
X157864711Y-71271789D01*
X157995814Y-71359390D01*
X157995827Y-71359397D01*
X158141498Y-71419735D01*
X158141503Y-71419737D01*
X158244930Y-71440310D01*
X158296153Y-71450499D01*
X158296156Y-71450500D01*
X158296158Y-71450500D01*
X158453844Y-71450500D01*
X158453845Y-71450499D01*
X158608497Y-71419737D01*
X158752011Y-71360292D01*
X158754172Y-71359397D01*
X158754172Y-71359396D01*
X158754179Y-71359394D01*
X158802982Y-71326785D01*
X158885875Y-71271398D01*
X158903921Y-71265747D01*
X158919831Y-71255523D01*
X158950792Y-71251071D01*
X158952553Y-71250520D01*
X158954766Y-71250500D01*
X159049903Y-71250500D01*
X159116942Y-71270185D01*
X159137584Y-71286819D01*
X159261709Y-71410944D01*
X159295194Y-71472267D01*
X159298028Y-71498625D01*
X159298028Y-71579054D01*
X159298027Y-71579054D01*
X159298028Y-71579057D01*
X159338952Y-71731785D01*
X159338953Y-71731787D01*
X159338952Y-71731787D01*
X159354146Y-71758102D01*
X159354148Y-71758104D01*
X159354149Y-71758106D01*
X159384053Y-71809902D01*
X159413706Y-71861264D01*
X159418009Y-71868716D01*
X159529813Y-71980520D01*
X159529814Y-71980521D01*
X159663182Y-72113888D01*
X159696666Y-72175209D01*
X159699500Y-72201568D01*
X159699500Y-72575500D01*
X159679815Y-72642539D01*
X159627011Y-72688294D01*
X159575500Y-72699500D01*
X159571155Y-72699500D01*
X159416510Y-72730261D01*
X159416498Y-72730264D01*
X159270827Y-72790602D01*
X159270814Y-72790609D01*
X159139711Y-72878210D01*
X159139707Y-72878213D01*
X159028213Y-72989707D01*
X159028210Y-72989711D01*
X158940609Y-73120814D01*
X158940602Y-73120827D01*
X158880264Y-73266498D01*
X158880261Y-73266510D01*
X158849500Y-73421153D01*
X158849500Y-73549431D01*
X158829815Y-73616470D01*
X158777011Y-73662225D01*
X158707853Y-73672169D01*
X158653984Y-73650730D01*
X158645320Y-73644613D01*
X158605187Y-73604480D01*
X158518375Y-73554360D01*
X158513476Y-73551531D01*
X158513474Y-73551530D01*
X158468256Y-73525423D01*
X158315528Y-73484499D01*
X158157414Y-73484499D01*
X158149818Y-73484499D01*
X158149802Y-73484500D01*
X154530094Y-73484500D01*
X154463055Y-73464815D01*
X154417300Y-73412011D01*
X154406804Y-73347246D01*
X154410500Y-73312873D01*
X154410499Y-72317128D01*
X154404091Y-72257517D01*
X154391340Y-72223332D01*
X154386357Y-72153642D01*
X154391338Y-72136672D01*
X154404091Y-72102483D01*
X154410500Y-72042873D01*
X154410499Y-71047128D01*
X154404091Y-70987517D01*
X154391340Y-70953332D01*
X154386357Y-70883642D01*
X154391338Y-70866672D01*
X154404091Y-70832483D01*
X154410500Y-70772873D01*
X154410499Y-69777128D01*
X154404091Y-69717517D01*
X154391340Y-69683332D01*
X154386357Y-69613642D01*
X154391338Y-69596672D01*
X154404091Y-69562483D01*
X154410500Y-69502873D01*
X154410499Y-68894094D01*
X154430183Y-68827057D01*
X154482987Y-68781302D01*
X154552146Y-68771358D01*
X154615702Y-68800383D01*
G37*
%TD.AperFunction*%
%TA.AperFunction,Conductor*%
G36*
X160816505Y-69820185D02*
G01*
X160862260Y-69872989D01*
X160872204Y-69942147D01*
X160865648Y-69967832D01*
X160856403Y-69992617D01*
X160856401Y-69992627D01*
X160850000Y-70052155D01*
X160850000Y-70300000D01*
X164476000Y-70300000D01*
X164543039Y-70319685D01*
X164588794Y-70372489D01*
X164600000Y-70424000D01*
X164600000Y-70550000D01*
X164625500Y-70550000D01*
X164692539Y-70569685D01*
X164738294Y-70622489D01*
X164749500Y-70674000D01*
X164749500Y-73226000D01*
X164729815Y-73293039D01*
X164677011Y-73338794D01*
X164625500Y-73350000D01*
X164600000Y-73350000D01*
X164600000Y-73476000D01*
X164580315Y-73543039D01*
X164527511Y-73588794D01*
X164476000Y-73600000D01*
X161924000Y-73600000D01*
X161856961Y-73580315D01*
X161811206Y-73527511D01*
X161800000Y-73476000D01*
X161800000Y-73350000D01*
X161674000Y-73350000D01*
X161606961Y-73330315D01*
X161561206Y-73277511D01*
X161550000Y-73226000D01*
X161550000Y-73100000D01*
X162050000Y-73100000D01*
X162950000Y-73100000D01*
X163450000Y-73100000D01*
X164350000Y-73100000D01*
X164350000Y-72200000D01*
X163450000Y-72200000D01*
X163450000Y-73100000D01*
X162950000Y-73100000D01*
X162950000Y-72200000D01*
X162050000Y-72200000D01*
X162050000Y-73100000D01*
X161550000Y-73100000D01*
X161550000Y-71700000D01*
X162050000Y-71700000D01*
X162950000Y-71700000D01*
X163450000Y-71700000D01*
X164350000Y-71700000D01*
X164350000Y-70800000D01*
X163450000Y-70800000D01*
X163450000Y-71700000D01*
X162950000Y-71700000D01*
X162950000Y-70800000D01*
X162050000Y-70800000D01*
X162050000Y-71700000D01*
X161550000Y-71700000D01*
X161550000Y-70800000D01*
X160850000Y-70800000D01*
X160850000Y-71047844D01*
X160856401Y-71107372D01*
X160856403Y-71107383D01*
X160893434Y-71206668D01*
X160895318Y-71233023D01*
X160900936Y-71258845D01*
X160898098Y-71271890D01*
X160898418Y-71276360D01*
X160893434Y-71293333D01*
X160865148Y-71369172D01*
X160823277Y-71425106D01*
X160757813Y-71449523D01*
X160689540Y-71434672D01*
X160661285Y-71413520D01*
X160535348Y-71287583D01*
X160501863Y-71226260D01*
X160499029Y-71199902D01*
X160499029Y-71119473D01*
X160499029Y-71119472D01*
X160494763Y-71103552D01*
X160458106Y-70966744D01*
X160455261Y-70961817D01*
X160421964Y-70904145D01*
X160421964Y-70904144D01*
X160379051Y-70829816D01*
X160379050Y-70829815D01*
X160379049Y-70829813D01*
X160267245Y-70718009D01*
X160267244Y-70718008D01*
X160262914Y-70713678D01*
X160262903Y-70713668D01*
X159837590Y-70288355D01*
X159837588Y-70288352D01*
X159718717Y-70169481D01*
X159718709Y-70169475D01*
X159620445Y-70112743D01*
X159620443Y-70112742D01*
X159581790Y-70090425D01*
X159581789Y-70090424D01*
X159553970Y-70082970D01*
X159429057Y-70049499D01*
X159270943Y-70049499D01*
X159263347Y-70049499D01*
X159263331Y-70049500D01*
X158954766Y-70049500D01*
X158936628Y-70044174D01*
X158917728Y-70043839D01*
X158889484Y-70030331D01*
X158887727Y-70029815D01*
X158885888Y-70028611D01*
X158884391Y-70027611D01*
X158839579Y-69974004D01*
X158830863Y-69904680D01*
X158861010Y-69841649D01*
X158920449Y-69804922D01*
X158953269Y-69800500D01*
X160749466Y-69800500D01*
X160816505Y-69820185D01*
G37*
%TD.AperFunction*%
%TA.AperFunction,Conductor*%
G36*
X173642539Y-61845185D02*
G01*
X173688294Y-61897989D01*
X173699500Y-61949500D01*
X173699500Y-62279192D01*
X173690853Y-62308637D01*
X173684330Y-62338622D01*
X173680577Y-62343634D01*
X173679815Y-62346231D01*
X173663183Y-62366870D01*
X173647067Y-62382987D01*
X173585742Y-62416470D01*
X173583580Y-62416920D01*
X173516508Y-62430261D01*
X173516498Y-62430264D01*
X173370827Y-62490602D01*
X173370814Y-62490609D01*
X173239711Y-62578210D01*
X173239707Y-62578213D01*
X173128213Y-62689707D01*
X173128210Y-62689711D01*
X173040609Y-62820814D01*
X173040602Y-62820827D01*
X172980264Y-62966498D01*
X172980261Y-62966510D01*
X172949500Y-63121153D01*
X172949500Y-63278846D01*
X172980260Y-63433488D01*
X172980261Y-63433489D01*
X172980263Y-63433497D01*
X172985131Y-63445250D01*
X172992599Y-63514717D01*
X172961323Y-63577196D01*
X172958251Y-63580380D01*
X172832287Y-63706345D01*
X172740187Y-63855663D01*
X172740186Y-63855666D01*
X172685001Y-64022203D01*
X172685001Y-64022204D01*
X172685000Y-64022204D01*
X172674500Y-64124983D01*
X172674500Y-65475001D01*
X172674501Y-65475009D01*
X172675524Y-65485024D01*
X172662751Y-65553717D01*
X172614868Y-65604599D01*
X172547078Y-65621517D01*
X172520075Y-65617396D01*
X172427268Y-65592529D01*
X172427268Y-65592528D01*
X172394744Y-65583814D01*
X172394742Y-65583813D01*
X172229034Y-65583813D01*
X172229018Y-65583814D01*
X171994000Y-65583814D01*
X171926961Y-65564129D01*
X171881206Y-65511325D01*
X171870000Y-65459814D01*
X171870000Y-64950000D01*
X171044000Y-64950000D01*
X170976961Y-64930315D01*
X170931206Y-64877511D01*
X170920000Y-64826000D01*
X170920000Y-64700000D01*
X170794000Y-64700000D01*
X170726961Y-64680315D01*
X170681206Y-64627511D01*
X170670000Y-64576000D01*
X170670000Y-64450000D01*
X171170000Y-64450000D01*
X171870000Y-64450000D01*
X171870000Y-63902172D01*
X171869999Y-63902155D01*
X171863598Y-63842627D01*
X171863596Y-63842620D01*
X171813354Y-63707913D01*
X171813350Y-63707906D01*
X171727190Y-63592812D01*
X171727187Y-63592809D01*
X171612093Y-63506649D01*
X171612086Y-63506645D01*
X171477379Y-63456403D01*
X171477372Y-63456401D01*
X171417844Y-63450000D01*
X171170000Y-63450000D01*
X171170000Y-64450000D01*
X170670000Y-64450000D01*
X170670000Y-63480405D01*
X170575657Y-63439975D01*
X170567549Y-63433277D01*
X170557461Y-63430315D01*
X170541079Y-63411409D01*
X170521791Y-63395475D01*
X170518591Y-63385457D01*
X170511706Y-63377511D01*
X170502418Y-63334817D01*
X170500534Y-63328918D01*
X170500865Y-63327681D01*
X170500500Y-63326000D01*
X170500500Y-63221155D01*
X170500499Y-63221153D01*
X170494235Y-63189661D01*
X170469737Y-63066503D01*
X170461472Y-63046549D01*
X170409397Y-62920827D01*
X170409395Y-62920823D01*
X170409394Y-62920821D01*
X170338845Y-62815238D01*
X170317968Y-62748562D01*
X170336409Y-62681252D01*
X170412003Y-62558697D01*
X170465349Y-62397708D01*
X170475500Y-62298345D01*
X170475499Y-61949499D01*
X170495183Y-61882461D01*
X170547987Y-61836706D01*
X170599499Y-61825500D01*
X173575500Y-61825500D01*
X173642539Y-61845185D01*
G37*
%TD.AperFunction*%
%TA.AperFunction,Conductor*%
G36*
X156102486Y-52720185D02*
G01*
X156148241Y-52772989D01*
X156159447Y-52824500D01*
X156159447Y-52889025D01*
X156190208Y-53043668D01*
X156190211Y-53043680D01*
X156250549Y-53189351D01*
X156250556Y-53189364D01*
X156338157Y-53320467D01*
X156338160Y-53320471D01*
X156449654Y-53431965D01*
X156449658Y-53431968D01*
X156580761Y-53519569D01*
X156580774Y-53519576D01*
X156726445Y-53579914D01*
X156726450Y-53579916D01*
X156845346Y-53603566D01*
X156881100Y-53610678D01*
X156881103Y-53610679D01*
X156881105Y-53610679D01*
X157038785Y-53610679D01*
X157038789Y-53610679D01*
X157038799Y-53610677D01*
X157038803Y-53610677D01*
X157044854Y-53610082D01*
X157044966Y-53611228D01*
X157108387Y-53616897D01*
X157163569Y-53659754D01*
X157186821Y-53725641D01*
X157187000Y-53732292D01*
X157187000Y-57837402D01*
X157167315Y-57904441D01*
X157150681Y-57925083D01*
X153929481Y-61146282D01*
X153929479Y-61146284D01*
X153926325Y-61151748D01*
X153902462Y-61193081D01*
X153850423Y-61283215D01*
X153809499Y-61435943D01*
X153809499Y-61435945D01*
X153809499Y-61604046D01*
X153809500Y-61604059D01*
X153809500Y-63385858D01*
X153789815Y-63452897D01*
X153737011Y-63498652D01*
X153728847Y-63502034D01*
X153717669Y-63506204D01*
X153717664Y-63506206D01*
X153602455Y-63592452D01*
X153602452Y-63592455D01*
X153516206Y-63707664D01*
X153516202Y-63707671D01*
X153465908Y-63842517D01*
X153459501Y-63902116D01*
X153459500Y-63902135D01*
X153459500Y-65390500D01*
X153439815Y-65457539D01*
X153387011Y-65503294D01*
X153335500Y-65514500D01*
X152362129Y-65514500D01*
X152362123Y-65514501D01*
X152302516Y-65520908D01*
X152167833Y-65571142D01*
X152098141Y-65576126D01*
X152036818Y-65542641D01*
X152003334Y-65481317D01*
X152000500Y-65454960D01*
X152000500Y-52824500D01*
X152020185Y-52757461D01*
X152072989Y-52711706D01*
X152124500Y-52700500D01*
X156035447Y-52700500D01*
X156102486Y-52720185D01*
G37*
%TD.AperFunction*%
%TA.AperFunction,Conductor*%
G36*
X175086895Y-62795097D02*
G01*
X175118957Y-62802072D01*
X175121405Y-62803904D01*
X175122801Y-62804261D01*
X175141226Y-62818574D01*
X175141293Y-62818490D01*
X175146959Y-62822970D01*
X175291294Y-62911998D01*
X175291297Y-62911999D01*
X175291303Y-62912003D01*
X175370287Y-62938175D01*
X175418963Y-62968199D01*
X175456284Y-63005520D01*
X175456285Y-63005521D01*
X176031284Y-63580520D01*
X176168215Y-63659577D01*
X176320943Y-63700501D01*
X176320946Y-63700501D01*
X176486654Y-63700501D01*
X176486670Y-63700500D01*
X176899903Y-63700500D01*
X176966942Y-63720185D01*
X176987584Y-63736819D01*
X177344587Y-64093822D01*
X177375291Y-64144611D01*
X177381522Y-64164606D01*
X177439726Y-64260887D01*
X177469530Y-64310188D01*
X177571661Y-64412319D01*
X177605146Y-64473642D01*
X177600162Y-64543334D01*
X177571661Y-64587681D01*
X177469531Y-64689810D01*
X177469530Y-64689811D01*
X177381522Y-64835393D01*
X177330913Y-64997807D01*
X177324500Y-65068386D01*
X177324500Y-65329192D01*
X177315855Y-65358632D01*
X177309332Y-65388619D01*
X177305577Y-65393634D01*
X177304815Y-65396231D01*
X177288181Y-65416873D01*
X177274716Y-65430338D01*
X177213393Y-65463823D01*
X177187035Y-65466657D01*
X175375465Y-65466657D01*
X175308426Y-65446972D01*
X175287784Y-65430338D01*
X174836818Y-64979372D01*
X174803333Y-64918049D01*
X174800499Y-64891691D01*
X174800499Y-64124998D01*
X174800498Y-64124981D01*
X174789999Y-64022203D01*
X174789998Y-64022200D01*
X174734814Y-63855666D01*
X174642712Y-63706344D01*
X174534427Y-63598059D01*
X174528560Y-63587315D01*
X174519150Y-63579484D01*
X174512128Y-63557222D01*
X174500942Y-63536736D01*
X174501298Y-63522885D01*
X174498133Y-63512850D01*
X174502097Y-63491823D01*
X174502458Y-63477822D01*
X174504528Y-63470214D01*
X174519737Y-63433497D01*
X174533919Y-63362192D01*
X174535046Y-63358053D01*
X174551180Y-63331811D01*
X174565462Y-63304508D01*
X174566899Y-63303044D01*
X174855276Y-63014669D01*
X174926465Y-62908127D01*
X174944970Y-62863450D01*
X174965555Y-62837904D01*
X174985220Y-62811637D01*
X174987367Y-62810835D01*
X174988807Y-62809050D01*
X175019942Y-62798685D01*
X175050684Y-62787220D01*
X175052924Y-62787707D01*
X175055101Y-62786983D01*
X175086895Y-62795097D01*
G37*
%TD.AperFunction*%
%TA.AperFunction,Conductor*%
G36*
X168041239Y-61259971D02*
G01*
X168063851Y-61262675D01*
X168073739Y-61270839D01*
X168085902Y-61274907D01*
X168100167Y-61292660D01*
X168117728Y-61307160D01*
X168121632Y-61319374D01*
X168129666Y-61329372D01*
X168132068Y-61352020D01*
X168139003Y-61373712D01*
X168136548Y-61394243D01*
X168137037Y-61398852D01*
X168134813Y-61408756D01*
X168124499Y-61447247D01*
X168124499Y-61615350D01*
X168124500Y-61615363D01*
X168124500Y-62874901D01*
X168104815Y-62941940D01*
X168088181Y-62962582D01*
X168004214Y-63046548D01*
X168004215Y-63046549D01*
X167899478Y-63151286D01*
X167883445Y-63179057D01*
X167849360Y-63238095D01*
X167820423Y-63288215D01*
X167798104Y-63371507D01*
X167795494Y-63378116D01*
X167778207Y-63400305D01*
X167763574Y-63424313D01*
X167757028Y-63427492D01*
X167752556Y-63433234D01*
X167726021Y-63442554D01*
X167700727Y-63454841D01*
X167690143Y-63455156D01*
X167686634Y-63456389D01*
X167682416Y-63455386D01*
X167666914Y-63455847D01*
X167607873Y-63449500D01*
X167607864Y-63449500D01*
X166612129Y-63449500D01*
X166612123Y-63449501D01*
X166552518Y-63455908D01*
X166518331Y-63468659D01*
X166448639Y-63473642D01*
X166431669Y-63468659D01*
X166414140Y-63462121D01*
X166397483Y-63455909D01*
X166397482Y-63455908D01*
X166337883Y-63449501D01*
X166337881Y-63449500D01*
X166337873Y-63449500D01*
X166337864Y-63449500D01*
X165342129Y-63449500D01*
X165342123Y-63449501D01*
X165282518Y-63455908D01*
X165248331Y-63468659D01*
X165187776Y-63475274D01*
X165174359Y-63473392D01*
X165127483Y-63455909D01*
X165067873Y-63449500D01*
X165004022Y-63449500D01*
X164995452Y-63448298D01*
X164971187Y-63437317D01*
X164945637Y-63429815D01*
X164939849Y-63423136D01*
X164931797Y-63419492D01*
X164917319Y-63397135D01*
X164899882Y-63377011D01*
X164898624Y-63368264D01*
X164893820Y-63360845D01*
X164893728Y-63334212D01*
X164889938Y-63307853D01*
X164891058Y-63301311D01*
X164895527Y-63278842D01*
X164900500Y-63253842D01*
X164900500Y-63253837D01*
X164900636Y-63253154D01*
X164933020Y-63191243D01*
X164934574Y-63189661D01*
X165005517Y-63118719D01*
X165005517Y-63118718D01*
X165005520Y-63118716D01*
X165084577Y-62981784D01*
X165105427Y-62903968D01*
X165141793Y-62844310D01*
X165156923Y-62833026D01*
X165160178Y-62830475D01*
X165160185Y-62830472D01*
X165280472Y-62710185D01*
X165349139Y-62596595D01*
X165400663Y-62549412D01*
X165469523Y-62537573D01*
X165533852Y-62564841D01*
X165560791Y-62595652D01*
X165627029Y-62703040D01*
X165627032Y-62703044D01*
X165746955Y-62822967D01*
X165746959Y-62822970D01*
X165891294Y-62911998D01*
X165891297Y-62911999D01*
X165891303Y-62912003D01*
X166052292Y-62965349D01*
X166151655Y-62975500D01*
X166698344Y-62975499D01*
X166698352Y-62975498D01*
X166698355Y-62975498D01*
X166752760Y-62969940D01*
X166797708Y-62965349D01*
X166958697Y-62912003D01*
X167103044Y-62822968D01*
X167222968Y-62703044D01*
X167312003Y-62558697D01*
X167365349Y-62397708D01*
X167375500Y-62298345D01*
X167375499Y-61701656D01*
X167372100Y-61668386D01*
X167365349Y-61602292D01*
X167362620Y-61594057D01*
X167327642Y-61488501D01*
X167325241Y-61418676D01*
X167360973Y-61358634D01*
X167423493Y-61327441D01*
X167445349Y-61325500D01*
X167745686Y-61325500D01*
X167745694Y-61325500D01*
X167782569Y-61322598D01*
X167782571Y-61322597D01*
X167782573Y-61322597D01*
X167829655Y-61308918D01*
X167940398Y-61276744D01*
X167951917Y-61269931D01*
X167973990Y-61264330D01*
X167994475Y-61254380D01*
X168007207Y-61255902D01*
X168019639Y-61252748D01*
X168041239Y-61259971D01*
G37*
%TD.AperFunction*%
%TA.AperFunction,Conductor*%
G36*
X163128274Y-56219104D02*
G01*
X163160695Y-56239940D01*
X163161969Y-56238298D01*
X163168132Y-56243078D01*
X163168135Y-56243081D01*
X163309602Y-56326744D01*
X163317997Y-56329183D01*
X163467426Y-56372597D01*
X163467429Y-56372597D01*
X163467431Y-56372598D01*
X163504306Y-56375500D01*
X163504314Y-56375500D01*
X163935686Y-56375500D01*
X163935694Y-56375500D01*
X163972569Y-56372598D01*
X163972571Y-56372597D01*
X163972573Y-56372597D01*
X164070266Y-56344214D01*
X164130398Y-56326744D01*
X164226787Y-56269739D01*
X164246550Y-56264725D01*
X164264524Y-56255098D01*
X164279725Y-56256308D01*
X164294510Y-56252557D01*
X164313847Y-56259024D01*
X164334173Y-56260642D01*
X164346308Y-56269880D01*
X164360772Y-56274717D01*
X164373543Y-56290611D01*
X164389768Y-56302962D01*
X164399156Y-56322488D01*
X164404536Y-56329183D01*
X164406433Y-56334074D01*
X164408282Y-56339158D01*
X164430423Y-56421785D01*
X164446424Y-56449499D01*
X164451848Y-56458895D01*
X164451851Y-56458901D01*
X164509475Y-56558709D01*
X164509479Y-56558714D01*
X164509480Y-56558716D01*
X164621284Y-56670520D01*
X164621285Y-56670521D01*
X164993784Y-57043020D01*
X164993786Y-57043021D01*
X164993790Y-57043024D01*
X165074649Y-57089707D01*
X165130716Y-57122077D01*
X165283443Y-57163001D01*
X165283445Y-57163001D01*
X165449154Y-57163001D01*
X165449170Y-57163000D01*
X167705559Y-57163000D01*
X167772598Y-57182685D01*
X167818353Y-57235489D01*
X167828297Y-57304647D01*
X167806371Y-57359201D01*
X167800440Y-57367481D01*
X167778211Y-57389711D01*
X167690606Y-57520821D01*
X167690588Y-57520862D01*
X167689272Y-57522701D01*
X167663272Y-57543033D01*
X167637950Y-57564196D01*
X167635578Y-57564689D01*
X167634233Y-57565742D01*
X167627545Y-57566362D01*
X167588460Y-57574500D01*
X167496155Y-57574500D01*
X167341510Y-57605261D01*
X167341498Y-57605264D01*
X167195827Y-57665602D01*
X167195814Y-57665609D01*
X167064711Y-57753210D01*
X167064706Y-57753214D01*
X167025179Y-57792741D01*
X166963856Y-57826226D01*
X166894164Y-57821240D01*
X166849817Y-57792739D01*
X166835289Y-57778211D01*
X166835288Y-57778210D01*
X166835287Y-57778209D01*
X166704185Y-57690609D01*
X166704172Y-57690602D01*
X166558501Y-57630264D01*
X166558489Y-57630261D01*
X166403845Y-57599500D01*
X166403842Y-57599500D01*
X166246158Y-57599500D01*
X166246155Y-57599500D01*
X166091510Y-57630261D01*
X166091498Y-57630264D01*
X165945827Y-57690602D01*
X165945814Y-57690609D01*
X165814711Y-57778210D01*
X165814707Y-57778213D01*
X165703213Y-57889707D01*
X165703210Y-57889711D01*
X165615609Y-58020814D01*
X165615602Y-58020827D01*
X165555264Y-58166498D01*
X165555261Y-58166508D01*
X165524897Y-58319157D01*
X165492512Y-58381068D01*
X165431796Y-58415642D01*
X165368686Y-58414042D01*
X165242567Y-58377401D01*
X165205701Y-58374500D01*
X165205694Y-58374500D01*
X164774306Y-58374500D01*
X164774298Y-58374500D01*
X164737432Y-58377401D01*
X164737426Y-58377402D01*
X164579606Y-58423254D01*
X164579603Y-58423255D01*
X164438137Y-58506917D01*
X164431969Y-58511702D01*
X164430072Y-58509256D01*
X164381358Y-58535857D01*
X164311666Y-58530873D01*
X164279296Y-58510069D01*
X164278031Y-58511702D01*
X164271862Y-58506917D01*
X164189213Y-58458039D01*
X164130398Y-58423256D01*
X164130397Y-58423255D01*
X164130396Y-58423255D01*
X164130393Y-58423254D01*
X163972573Y-58377402D01*
X163972567Y-58377401D01*
X163935701Y-58374500D01*
X163935694Y-58374500D01*
X163504306Y-58374500D01*
X163504298Y-58374500D01*
X163467432Y-58377401D01*
X163467426Y-58377402D01*
X163309606Y-58423254D01*
X163309603Y-58423255D01*
X163168137Y-58506917D01*
X163161969Y-58511702D01*
X163160072Y-58509256D01*
X163111358Y-58535857D01*
X163041666Y-58530873D01*
X163009296Y-58510069D01*
X163008031Y-58511702D01*
X163001862Y-58506917D01*
X162919213Y-58458039D01*
X162860398Y-58423256D01*
X162860397Y-58423255D01*
X162860396Y-58423255D01*
X162860393Y-58423254D01*
X162702573Y-58377402D01*
X162702567Y-58377401D01*
X162665701Y-58374500D01*
X162665694Y-58374500D01*
X162234306Y-58374500D01*
X162234298Y-58374500D01*
X162197432Y-58377401D01*
X162197426Y-58377402D01*
X162039606Y-58423254D01*
X162039603Y-58423255D01*
X161898137Y-58506917D01*
X161898129Y-58506923D01*
X161781923Y-58623129D01*
X161781917Y-58623137D01*
X161698255Y-58764603D01*
X161698254Y-58764606D01*
X161652402Y-58922426D01*
X161652401Y-58922432D01*
X161649500Y-58959298D01*
X161649500Y-60740686D01*
X161649596Y-60743132D01*
X161648973Y-60743156D01*
X161642171Y-60774429D01*
X161635065Y-60808243D01*
X161634713Y-60808716D01*
X161634649Y-60809011D01*
X161613497Y-60837266D01*
X161462582Y-60988182D01*
X161401262Y-61021666D01*
X161374903Y-61024500D01*
X161068384Y-61024500D01*
X161049145Y-61026248D01*
X160997807Y-61030913D01*
X160835393Y-61081522D01*
X160689811Y-61169530D01*
X160689810Y-61169531D01*
X160587681Y-61271661D01*
X160526358Y-61305146D01*
X160456666Y-61300162D01*
X160412319Y-61271661D01*
X160310188Y-61169530D01*
X160280773Y-61151748D01*
X160194426Y-61099549D01*
X160147241Y-61048023D01*
X160135402Y-60979164D01*
X160153040Y-60928336D01*
X160211544Y-60833488D01*
X160211547Y-60833481D01*
X160264855Y-60672606D01*
X160274999Y-60573322D01*
X160275000Y-60573309D01*
X160275000Y-60550000D01*
X158325001Y-60550000D01*
X158325001Y-60573322D01*
X158335144Y-60672607D01*
X158388452Y-60833481D01*
X158388457Y-60833492D01*
X158477424Y-60977728D01*
X158477427Y-60977732D01*
X158597267Y-61097572D01*
X158597271Y-61097575D01*
X158741507Y-61186542D01*
X158741520Y-61186548D01*
X158794326Y-61204046D01*
X158851771Y-61243818D01*
X158878595Y-61308334D01*
X158866280Y-61377110D01*
X158861441Y-61385900D01*
X158850000Y-61404827D01*
X158831522Y-61435394D01*
X158791046Y-61565289D01*
X158780913Y-61597807D01*
X158774500Y-61668386D01*
X158774500Y-62331613D01*
X158780913Y-62402192D01*
X158780913Y-62402194D01*
X158780914Y-62402196D01*
X158831522Y-62564606D01*
X158919528Y-62710185D01*
X159038182Y-62828839D01*
X159052888Y-62855770D01*
X159069477Y-62881584D01*
X159070368Y-62887783D01*
X159071666Y-62890160D01*
X159074500Y-62916519D01*
X159074500Y-63013330D01*
X159074499Y-63013348D01*
X159074499Y-63020943D01*
X159074499Y-63179057D01*
X159077764Y-63191243D01*
X159105188Y-63293589D01*
X159103525Y-63363438D01*
X159064362Y-63421301D01*
X159010368Y-63447145D01*
X158998900Y-63449500D01*
X158992128Y-63449501D01*
X158932517Y-63455909D01*
X158889349Y-63472008D01*
X158879955Y-63473939D01*
X158854310Y-63471806D01*
X158828639Y-63473642D01*
X158811669Y-63468659D01*
X158794140Y-63462121D01*
X158777483Y-63455909D01*
X158777482Y-63455908D01*
X158717883Y-63449501D01*
X158717881Y-63449500D01*
X158717873Y-63449500D01*
X158717864Y-63449500D01*
X157722129Y-63449500D01*
X157722123Y-63449501D01*
X157662518Y-63455908D01*
X157628331Y-63468659D01*
X157558639Y-63473642D01*
X157541669Y-63468659D01*
X157524140Y-63462121D01*
X157507483Y-63455909D01*
X157507482Y-63455908D01*
X157447883Y-63449501D01*
X157447881Y-63449500D01*
X157447873Y-63449500D01*
X157447864Y-63449500D01*
X156452129Y-63449500D01*
X156452123Y-63449501D01*
X156417753Y-63453196D01*
X156348994Y-63440789D01*
X156297857Y-63393178D01*
X156280500Y-63329906D01*
X156280500Y-61110782D01*
X156300185Y-61043743D01*
X156316814Y-61023106D01*
X158163270Y-59176649D01*
X158224591Y-59143166D01*
X158294283Y-59148150D01*
X158350216Y-59190022D01*
X158368654Y-59225327D01*
X158387993Y-59283688D01*
X158388001Y-59283705D01*
X158477029Y-59428040D01*
X158477032Y-59428044D01*
X158486660Y-59437672D01*
X158520145Y-59498995D01*
X158515161Y-59568687D01*
X158486663Y-59613031D01*
X158477428Y-59622265D01*
X158477424Y-59622271D01*
X158388457Y-59766507D01*
X158388452Y-59766518D01*
X158335144Y-59927393D01*
X158325000Y-60026677D01*
X158325000Y-60050000D01*
X160274999Y-60050000D01*
X160274999Y-60026692D01*
X160274998Y-60026677D01*
X160264855Y-59927392D01*
X160211547Y-59766518D01*
X160211542Y-59766507D01*
X160122575Y-59622271D01*
X160122572Y-59622267D01*
X160113339Y-59613034D01*
X160079854Y-59551711D01*
X160084838Y-59482019D01*
X160113343Y-59437668D01*
X160122968Y-59428044D01*
X160212003Y-59283697D01*
X160265349Y-59122708D01*
X160275500Y-59023345D01*
X160275499Y-58476656D01*
X160269266Y-58415642D01*
X160265349Y-58377292D01*
X160265348Y-58377289D01*
X160239903Y-58300500D01*
X160212003Y-58216303D01*
X160211999Y-58216297D01*
X160211998Y-58216294D01*
X160159887Y-58131810D01*
X160141446Y-58064418D01*
X160162368Y-57997754D01*
X160216010Y-57952985D01*
X160241230Y-57945097D01*
X160339744Y-57925501D01*
X160458127Y-57876465D01*
X160466189Y-57871077D01*
X160468219Y-57869722D01*
X160540778Y-57821240D01*
X160564669Y-57805277D01*
X161117441Y-57252502D01*
X161157671Y-57225624D01*
X161166679Y-57221894D01*
X161297789Y-57134289D01*
X161409289Y-57022789D01*
X161496894Y-56891679D01*
X161497339Y-56890606D01*
X161503967Y-56874602D01*
X161557237Y-56745997D01*
X161570579Y-56678918D01*
X161602963Y-56617010D01*
X161604516Y-56615429D01*
X161685277Y-56534669D01*
X161756465Y-56428127D01*
X161768323Y-56399500D01*
X161791224Y-56344211D01*
X161835063Y-56289811D01*
X161901357Y-56267745D01*
X161968904Y-56284933D01*
X162039602Y-56326744D01*
X162047997Y-56329183D01*
X162197426Y-56372597D01*
X162197429Y-56372597D01*
X162197431Y-56372598D01*
X162234306Y-56375500D01*
X162234314Y-56375500D01*
X162665686Y-56375500D01*
X162665694Y-56375500D01*
X162702569Y-56372598D01*
X162702571Y-56372597D01*
X162702573Y-56372597D01*
X162800266Y-56344214D01*
X162860398Y-56326744D01*
X163001865Y-56243081D01*
X163001870Y-56243075D01*
X163008031Y-56238298D01*
X163009933Y-56240750D01*
X163058579Y-56214155D01*
X163128274Y-56219104D01*
G37*
%TD.AperFunction*%
%TA.AperFunction,Conductor*%
G36*
X179238581Y-59592388D02*
G01*
X179267641Y-59595863D01*
X179273839Y-59600058D01*
X179278255Y-59601019D01*
X179306509Y-59622170D01*
X179311654Y-59627315D01*
X179460875Y-59719356D01*
X179460880Y-59719358D01*
X179585874Y-59760777D01*
X179643319Y-59800549D01*
X179670142Y-59865065D01*
X179657827Y-59933841D01*
X179619756Y-59978801D01*
X179472323Y-60085918D01*
X179330916Y-60227325D01*
X179297625Y-60273146D01*
X179242294Y-60315811D01*
X179172680Y-60321789D01*
X179149856Y-60314820D01*
X179078501Y-60285264D01*
X179078489Y-60285261D01*
X178923845Y-60254500D01*
X178923842Y-60254500D01*
X178919097Y-60254500D01*
X178852058Y-60234815D01*
X178806303Y-60182011D01*
X178796359Y-60112853D01*
X178825384Y-60049297D01*
X178831416Y-60042819D01*
X178895434Y-59978801D01*
X179005520Y-59868716D01*
X179084577Y-59731784D01*
X179099054Y-59677754D01*
X179102212Y-59672572D01*
X179102646Y-59666517D01*
X179120184Y-59643088D01*
X179135418Y-59618097D01*
X179140879Y-59615443D01*
X179144518Y-59610584D01*
X179171937Y-59600356D01*
X179198265Y-59587568D01*
X179204293Y-59588288D01*
X179209982Y-59586167D01*
X179238581Y-59592388D01*
G37*
%TD.AperFunction*%
%TA.AperFunction,Conductor*%
G36*
X180932025Y-54525710D02*
G01*
X180982721Y-54573789D01*
X180999500Y-54636077D01*
X180999500Y-57121120D01*
X180979815Y-57188159D01*
X180927011Y-57233914D01*
X180873136Y-57244211D01*
X180873136Y-57245000D01*
X180550000Y-57245000D01*
X180550000Y-58391000D01*
X180530315Y-58458039D01*
X180477511Y-58503794D01*
X180426000Y-58515000D01*
X180174000Y-58515000D01*
X180106961Y-58495315D01*
X180061206Y-58442511D01*
X180050000Y-58391000D01*
X180050000Y-57245000D01*
X179730028Y-57245000D01*
X179730012Y-57245001D01*
X179627302Y-57255494D01*
X179460880Y-57310641D01*
X179460875Y-57310643D01*
X179314597Y-57400869D01*
X179247204Y-57419309D01*
X179180541Y-57398386D01*
X179135771Y-57344744D01*
X179125500Y-57295330D01*
X179125500Y-55945945D01*
X179125498Y-55945936D01*
X179123869Y-55939856D01*
X179121368Y-55930520D01*
X179084577Y-55793215D01*
X179033837Y-55705331D01*
X179005520Y-55656284D01*
X178893716Y-55544480D01*
X178889385Y-55540149D01*
X178889374Y-55540139D01*
X178198916Y-54849681D01*
X178165431Y-54788358D01*
X178170415Y-54718666D01*
X178212287Y-54662733D01*
X178277751Y-54638316D01*
X178286597Y-54638000D01*
X178401459Y-54638000D01*
X178745271Y-54638000D01*
X178784274Y-54644293D01*
X178922203Y-54689999D01*
X179024991Y-54700500D01*
X180375008Y-54700499D01*
X180477797Y-54689999D01*
X180644334Y-54634814D01*
X180793656Y-54542712D01*
X180793663Y-54542704D01*
X180798587Y-54538812D01*
X180863382Y-54512671D01*
X180932025Y-54525710D01*
G37*
%TD.AperFunction*%
%TA.AperFunction,Conductor*%
G36*
X177466942Y-55820185D02*
G01*
X177487584Y-55836819D01*
X177888181Y-56237416D01*
X177921666Y-56298739D01*
X177924500Y-56325097D01*
X177924500Y-56822536D01*
X177904815Y-56889575D01*
X177852011Y-56935330D01*
X177782853Y-56945274D01*
X177731609Y-56925638D01*
X177679185Y-56890609D01*
X177679172Y-56890602D01*
X177533501Y-56830264D01*
X177533489Y-56830261D01*
X177378845Y-56799500D01*
X177378842Y-56799500D01*
X177221158Y-56799500D01*
X177221155Y-56799500D01*
X177066510Y-56830261D01*
X177066498Y-56830264D01*
X176920827Y-56890602D01*
X176920814Y-56890609D01*
X176789711Y-56978210D01*
X176789707Y-56978213D01*
X176678213Y-57089707D01*
X176639283Y-57147970D01*
X176585670Y-57192774D01*
X176516345Y-57201481D01*
X176474183Y-57186466D01*
X176433537Y-57163000D01*
X176413984Y-57151711D01*
X176394433Y-57140423D01*
X176394432Y-57140422D01*
X176394431Y-57140422D01*
X176322394Y-57121120D01*
X176241705Y-57099499D01*
X176083591Y-57099499D01*
X176075995Y-57099499D01*
X176075979Y-57099500D01*
X174486670Y-57099500D01*
X174486654Y-57099499D01*
X174479058Y-57099499D01*
X174320943Y-57099499D01*
X174191107Y-57134289D01*
X174168211Y-57140424D01*
X174031287Y-57219477D01*
X174031286Y-57219478D01*
X173868749Y-57382014D01*
X173807425Y-57415498D01*
X173737734Y-57410514D01*
X173681800Y-57368642D01*
X173657384Y-57303177D01*
X173666506Y-57246884D01*
X173710365Y-57140999D01*
X173725500Y-57026040D01*
X173725500Y-56098960D01*
X173710365Y-55984001D01*
X173705373Y-55971950D01*
X173697905Y-55902485D01*
X173729179Y-55840005D01*
X173789268Y-55804352D01*
X173819935Y-55800500D01*
X173820942Y-55800500D01*
X173820943Y-55800500D01*
X177399903Y-55800500D01*
X177466942Y-55820185D01*
G37*
%TD.AperFunction*%
%TA.AperFunction,Conductor*%
G36*
X160055704Y-52436074D02*
G01*
X160066138Y-52446249D01*
X160130421Y-52516764D01*
X160293179Y-52639673D01*
X160401524Y-52693622D01*
X160452759Y-52741123D01*
X160470181Y-52808786D01*
X160467868Y-52828812D01*
X160449500Y-52921153D01*
X160449500Y-53078843D01*
X160480261Y-53233489D01*
X160480264Y-53233501D01*
X160540602Y-53379172D01*
X160540609Y-53379184D01*
X160590320Y-53453581D01*
X160611198Y-53520258D01*
X160592714Y-53587638D01*
X160574900Y-53610153D01*
X160511920Y-53673133D01*
X160511917Y-53673137D01*
X160428255Y-53814603D01*
X160428254Y-53814606D01*
X160382402Y-53972426D01*
X160382401Y-53972432D01*
X160379500Y-54009298D01*
X160379500Y-54981948D01*
X160359815Y-55048987D01*
X160307011Y-55094742D01*
X160237853Y-55104686D01*
X160174297Y-55075661D01*
X160149384Y-55046099D01*
X160130471Y-55014814D01*
X160130468Y-55014810D01*
X160010188Y-54894530D01*
X160010185Y-54894528D01*
X159993043Y-54884165D01*
X159945857Y-54832639D01*
X159934019Y-54763779D01*
X159935578Y-54753858D01*
X159950500Y-54678844D01*
X159950500Y-54521155D01*
X159950499Y-54521153D01*
X159948812Y-54512671D01*
X159919737Y-54366503D01*
X159886415Y-54286055D01*
X159859397Y-54220827D01*
X159859390Y-54220814D01*
X159771789Y-54089711D01*
X159771786Y-54089707D01*
X159660292Y-53978213D01*
X159660288Y-53978210D01*
X159529185Y-53890609D01*
X159529172Y-53890602D01*
X159383501Y-53830264D01*
X159383489Y-53830261D01*
X159228845Y-53799500D01*
X159228842Y-53799500D01*
X159099097Y-53799500D01*
X159032058Y-53779815D01*
X158986303Y-53727011D01*
X158976359Y-53657853D01*
X159005384Y-53594297D01*
X159011416Y-53587819D01*
X159145654Y-53453581D01*
X159608506Y-52990727D01*
X159608511Y-52990724D01*
X159618714Y-52980520D01*
X159618716Y-52980520D01*
X159730520Y-52868716D01*
X159793139Y-52760256D01*
X159809577Y-52731785D01*
X159850501Y-52579057D01*
X159850501Y-52529787D01*
X159870186Y-52462748D01*
X159922990Y-52416993D01*
X159992148Y-52407049D01*
X160055704Y-52436074D01*
G37*
%TD.AperFunction*%
%TA.AperFunction,Conductor*%
G36*
X171308126Y-50592772D02*
G01*
X171325480Y-50603923D01*
X171357288Y-50628331D01*
X171357293Y-50628333D01*
X171362992Y-50631623D01*
X171411212Y-50682187D01*
X171411650Y-50683993D01*
X171425000Y-50695701D01*
X171481898Y-50688211D01*
X171514262Y-50688211D01*
X171607606Y-50700500D01*
X171607613Y-50700500D01*
X171892387Y-50700500D01*
X171892394Y-50700500D01*
X171983822Y-50688463D01*
X172016178Y-50688463D01*
X172107606Y-50700500D01*
X172107613Y-50700500D01*
X172325903Y-50700500D01*
X172392942Y-50720185D01*
X172438697Y-50772989D01*
X172448641Y-50842147D01*
X172419616Y-50905703D01*
X172413588Y-50912176D01*
X172054943Y-51270821D01*
X171956286Y-51369478D01*
X171844481Y-51481282D01*
X171844479Y-51481285D01*
X171794361Y-51568094D01*
X171794359Y-51568096D01*
X171765425Y-51618209D01*
X171765424Y-51618210D01*
X171761164Y-51634108D01*
X171724499Y-51770943D01*
X171724499Y-51770945D01*
X171724499Y-51939046D01*
X171724500Y-51939059D01*
X171724500Y-53005214D01*
X171704815Y-53072253D01*
X171652011Y-53118008D01*
X171582853Y-53127952D01*
X171538501Y-53112601D01*
X171480028Y-53078842D01*
X171480027Y-53078841D01*
X171463690Y-53069409D01*
X171456785Y-53065423D01*
X171304057Y-53024499D01*
X171145943Y-53024499D01*
X171138347Y-53024499D01*
X171138331Y-53024500D01*
X163949500Y-53024500D01*
X163882461Y-53004815D01*
X163836706Y-52952011D01*
X163825500Y-52900500D01*
X163825500Y-52871155D01*
X163825499Y-52871153D01*
X163805416Y-52770189D01*
X163794737Y-52716503D01*
X163791792Y-52709394D01*
X163734397Y-52570827D01*
X163734390Y-52570814D01*
X163646789Y-52439711D01*
X163646786Y-52439707D01*
X163535292Y-52328213D01*
X163535288Y-52328210D01*
X163404185Y-52240609D01*
X163404172Y-52240602D01*
X163258501Y-52180264D01*
X163258491Y-52180261D01*
X163103151Y-52149362D01*
X163086394Y-52140596D01*
X163067916Y-52136577D01*
X163042877Y-52117832D01*
X163041241Y-52116977D01*
X163039662Y-52115426D01*
X162886819Y-51962583D01*
X162853334Y-51901260D01*
X162850500Y-51874902D01*
X162850500Y-50814760D01*
X162870185Y-50747721D01*
X162922989Y-50701966D01*
X162958307Y-50691822D01*
X162983822Y-50688463D01*
X163016178Y-50688463D01*
X163107606Y-50700500D01*
X163107613Y-50700500D01*
X163392387Y-50700500D01*
X163392394Y-50700500D01*
X163503930Y-50685816D01*
X163642712Y-50628331D01*
X163674514Y-50603927D01*
X163739681Y-50578734D01*
X163808126Y-50592772D01*
X163825480Y-50603923D01*
X163857288Y-50628331D01*
X163857293Y-50628333D01*
X163862992Y-50631623D01*
X163911212Y-50682187D01*
X163911650Y-50683993D01*
X163925000Y-50695701D01*
X163981898Y-50688211D01*
X164014262Y-50688211D01*
X164107606Y-50700500D01*
X164107613Y-50700500D01*
X164392387Y-50700500D01*
X164392394Y-50700500D01*
X164483822Y-50688463D01*
X164516178Y-50688463D01*
X164607606Y-50700500D01*
X164607613Y-50700500D01*
X164892387Y-50700500D01*
X164892394Y-50700500D01*
X165003930Y-50685816D01*
X165142712Y-50628331D01*
X165174514Y-50603927D01*
X165239681Y-50578734D01*
X165308126Y-50592772D01*
X165325480Y-50603923D01*
X165357288Y-50628331D01*
X165357293Y-50628333D01*
X165362992Y-50631623D01*
X165411212Y-50682187D01*
X165411650Y-50683993D01*
X165425000Y-50695701D01*
X165481898Y-50688211D01*
X165514262Y-50688211D01*
X165607606Y-50700500D01*
X165607613Y-50700500D01*
X165892387Y-50700500D01*
X165892394Y-50700500D01*
X165983822Y-50688463D01*
X166016178Y-50688463D01*
X166107606Y-50700500D01*
X166107613Y-50700500D01*
X166392387Y-50700500D01*
X166392394Y-50700500D01*
X166503930Y-50685816D01*
X166642712Y-50628331D01*
X166674514Y-50603927D01*
X166739681Y-50578734D01*
X166808126Y-50592772D01*
X166825480Y-50603923D01*
X166857288Y-50628331D01*
X166857293Y-50628333D01*
X166862992Y-50631623D01*
X166911212Y-50682187D01*
X166911650Y-50683993D01*
X166925000Y-50695701D01*
X166981898Y-50688211D01*
X167014262Y-50688211D01*
X167107606Y-50700500D01*
X167107613Y-50700500D01*
X167392387Y-50700500D01*
X167392394Y-50700500D01*
X167483822Y-50688463D01*
X167516178Y-50688463D01*
X167607606Y-50700500D01*
X167607613Y-50700500D01*
X167892387Y-50700500D01*
X167892394Y-50700500D01*
X168003930Y-50685816D01*
X168142712Y-50628331D01*
X168174514Y-50603927D01*
X168239681Y-50578734D01*
X168308126Y-50592772D01*
X168325480Y-50603923D01*
X168357288Y-50628331D01*
X168357293Y-50628333D01*
X168362992Y-50631623D01*
X168411212Y-50682187D01*
X168411650Y-50683993D01*
X168425000Y-50695701D01*
X168481898Y-50688211D01*
X168514262Y-50688211D01*
X168607606Y-50700500D01*
X168607613Y-50700500D01*
X168892387Y-50700500D01*
X168892394Y-50700500D01*
X168983822Y-50688463D01*
X169016178Y-50688463D01*
X169107606Y-50700500D01*
X169107613Y-50700500D01*
X169392387Y-50700500D01*
X169392394Y-50700500D01*
X169503930Y-50685816D01*
X169642712Y-50628331D01*
X169674514Y-50603927D01*
X169739681Y-50578734D01*
X169808126Y-50592772D01*
X169825480Y-50603923D01*
X169857288Y-50628331D01*
X169857293Y-50628333D01*
X169862992Y-50631623D01*
X169911212Y-50682187D01*
X169911650Y-50683993D01*
X169925000Y-50695701D01*
X169981898Y-50688211D01*
X170014262Y-50688211D01*
X170107606Y-50700500D01*
X170107613Y-50700500D01*
X170392387Y-50700500D01*
X170392394Y-50700500D01*
X170483822Y-50688463D01*
X170516178Y-50688463D01*
X170607606Y-50700500D01*
X170607613Y-50700500D01*
X170892387Y-50700500D01*
X170892394Y-50700500D01*
X171003930Y-50685816D01*
X171142712Y-50628331D01*
X171174514Y-50603927D01*
X171239681Y-50578734D01*
X171308126Y-50592772D01*
G37*
%TD.AperFunction*%
%TD*%
M02*
