%TF.GenerationSoftware,KiCad,Pcbnew,10.0.4*%
%TF.CreationDate,2026-09-22T22:30:39+02:00*%
%TF.ProjectId,dongle,646f6e67-6c65-42e6-9b69-6361645f7063,rev?*%
%TF.SameCoordinates,Original*%
%TF.FileFunction,Legend,Bot*%
%TF.FilePolarity,Positive*%
%FSLAX46Y46*%
G04 Gerber Fmt 4.6, Leading zero omitted, Abs format (unit mm)*
G04 Created by KiCad (PCBNEW 10.0.4) date 2026-09-22 22:30:39*
%MOMM*%
%LPD*%
G01*
G04 APERTURE LIST*
G04 Aperture macros list*
%AMRoundRect*
0 Rectangle with rounded corners*
0 $1 Rounding radius*
0 $2 $3 $4 $5 $6 $7 $8 $9 X,Y pos of 4 corners*
0 Add a 4 corners polygon primitive as box body*
4,1,4,$2,$3,$4,$5,$6,$7,$8,$9,$2,$3,0*
0 Add four circle primitives for the rounded corners*
1,1,$1+$1,$2,$3*
1,1,$1+$1,$4,$5*
1,1,$1+$1,$6,$7*
1,1,$1+$1,$8,$9*
0 Add four rect primitives between the rounded corners*
20,1,$1+$1,$2,$3,$4,$5,0*
20,1,$1+$1,$4,$5,$6,$7,0*
20,1,$1+$1,$6,$7,$8,$9,0*
20,1,$1+$1,$8,$9,$2,$3,0*%
G04 Aperture macros list end*
%ADD10C,0.120000*%
%ADD11C,0.150000*%
%ADD12RoundRect,0.070000X0.105000X0.930000X-0.105000X0.930000X-0.105000X-0.930000X0.105000X-0.930000X0*%
%ADD13RoundRect,0.250000X-0.625000X0.312500X-0.625000X-0.312500X0.625000X-0.312500X0.625000X0.312500X0*%
%ADD14R,1.000000X2.000000*%
%ADD15RoundRect,0.250000X-0.312500X-0.625000X0.312500X-0.625000X0.312500X0.625000X-0.312500X0.625000X0*%
%ADD16R,1.143000X0.635000*%
%ADD17RoundRect,0.375000X0.625000X0.375000X-0.625000X0.375000X-0.625000X-0.375000X0.625000X-0.375000X0*%
%ADD18RoundRect,0.500000X0.500000X1.400000X-0.500000X1.400000X-0.500000X-1.400000X0.500000X-1.400000X0*%
%ADD19RoundRect,0.250000X0.650000X-1.000000X0.650000X1.000000X-0.650000X1.000000X-0.650000X-1.000000X0*%
G04 APERTURE END LIST*
%TO.C,C14*%
D10*
X174990000Y-67060436D02*
X174990000Y-68514564D01*
X176810000Y-67060436D02*
X176810000Y-68514564D01*
%TO.C,C13*%
X162672936Y-66065000D02*
X164127064Y-66065000D01*
X162672936Y-67885000D02*
X164127064Y-67885000D01*
%TO.C,JP6*%
D11*
X166175000Y-69625000D02*
X166175000Y-71911000D01*
X166175000Y-71911000D02*
X167953000Y-71911000D01*
X167953000Y-69625000D02*
X166175000Y-69625000D01*
X167953000Y-71911000D02*
X167953000Y-69625000D01*
%TO.C,U1*%
D10*
X168190000Y-63552500D02*
X168190000Y-64812500D01*
X168190000Y-70372500D02*
X168190000Y-69112500D01*
X171950000Y-63552500D02*
X168190000Y-63552500D01*
X171950000Y-70372500D02*
X168190000Y-70372500D01*
X173230000Y-63652500D02*
X173470000Y-63322500D01*
X172990000Y-63322500D01*
X173230000Y-63652500D01*
G36*
X173230000Y-63652500D02*
G01*
X172990000Y-63322500D01*
X173470000Y-63322500D01*
X173230000Y-63652500D01*
G37*
%TO.C,JP4*%
D11*
X165611000Y-53357000D02*
X165611000Y-55643000D01*
X165611000Y-55643000D02*
X167389000Y-55643000D01*
X167389000Y-53357000D02*
X165611000Y-53357000D01*
X167389000Y-55643000D02*
X167389000Y-53357000D01*
%TO.C,JP5*%
X160361000Y-53356620D02*
X160361000Y-55642620D01*
X160361000Y-55642620D02*
X162139000Y-55642620D01*
X162139000Y-53356620D02*
X160361000Y-53356620D01*
X162139000Y-55642620D02*
X162139000Y-53356620D01*
%TO.C,JP2*%
X162111000Y-53357000D02*
X162111000Y-55643000D01*
X162111000Y-55643000D02*
X163889000Y-55643000D01*
X163889000Y-53357000D02*
X162111000Y-53357000D01*
X163889000Y-55643000D02*
X163889000Y-53357000D01*
%TO.C,C11*%
D10*
X153690000Y-67072936D02*
X153690000Y-68527064D01*
X155510000Y-67072936D02*
X155510000Y-68527064D01*
%TO.C,D1*%
X177200000Y-70110000D02*
X177200000Y-64600000D01*
X180500000Y-70110000D02*
X177200000Y-70110000D01*
X180500000Y-70110000D02*
X180500000Y-64600000D01*
%TO.C,JP3*%
D11*
X163861000Y-53357000D02*
X163861000Y-55643000D01*
X163861000Y-55643000D02*
X165639000Y-55643000D01*
X165639000Y-53357000D02*
X163861000Y-53357000D01*
X165639000Y-55643000D02*
X165639000Y-53357000D01*
%TD*%
%LPC*%
D12*
%TO.C,J2*%
X157500000Y-49700000D03*
X158000000Y-49700000D03*
X158500000Y-49700000D03*
X159000000Y-49700000D03*
X159500000Y-49700000D03*
X162000000Y-49700000D03*
X162500000Y-49700000D03*
X163000000Y-49700000D03*
X163500000Y-49700000D03*
X164000000Y-49700000D03*
X164500000Y-49700000D03*
X165000000Y-49700000D03*
X165500000Y-49700000D03*
X166000000Y-49700000D03*
X166500000Y-49700000D03*
X167000000Y-49700000D03*
X167500000Y-49700000D03*
X168000000Y-49700000D03*
X168500000Y-49700000D03*
X169000000Y-49700000D03*
X169500000Y-49700000D03*
X170000000Y-49700000D03*
X170500000Y-49700000D03*
X171000000Y-49700000D03*
X171500000Y-49700000D03*
X172000000Y-49700000D03*
X172500000Y-49700000D03*
X173000000Y-49700000D03*
X173500000Y-49700000D03*
X174000000Y-49700000D03*
X174500000Y-49700000D03*
X175000000Y-49700000D03*
X175500000Y-49700000D03*
%TD*%
D13*
%TO.C,C14*%
X175900000Y-66325000D03*
X175900000Y-69250000D03*
%TD*%
D14*
%TO.C,U2*%
X154570000Y-72100000D03*
X153300000Y-72100000D03*
X155840000Y-72100000D03*
X157110000Y-72100000D03*
X158380000Y-72100000D03*
X159650000Y-72100000D03*
X160920000Y-72100000D03*
X162190000Y-72100000D03*
%TD*%
D15*
%TO.C,C13*%
X161937500Y-66975000D03*
X164862500Y-66975000D03*
%TD*%
D16*
%TO.C,JP6*%
X167064000Y-70267620D03*
X167064000Y-71268380D03*
%TD*%
D14*
%TO.C,U3*%
X172270000Y-72062500D03*
X171000000Y-72062500D03*
X173540000Y-72062500D03*
X174810000Y-72062500D03*
X176080000Y-72062500D03*
X177350000Y-72062500D03*
X178620000Y-72062500D03*
X179890000Y-72062500D03*
%TD*%
D17*
%TO.C,U1*%
X173250000Y-64662500D03*
X173250000Y-66962500D03*
D18*
X166950000Y-66962500D03*
D17*
X173250000Y-69262500D03*
%TD*%
D16*
%TO.C,JP4*%
X166500000Y-53999620D03*
X166500000Y-55000380D03*
%TD*%
%TO.C,JP5*%
X161250000Y-53999240D03*
X161250000Y-55000000D03*
%TD*%
%TO.C,JP2*%
X163000000Y-53999620D03*
X163000000Y-55000380D03*
%TD*%
D13*
%TO.C,C11*%
X154600000Y-66337500D03*
X154600000Y-69262500D03*
%TD*%
D19*
%TO.C,D1*%
X178850000Y-68600000D03*
X178850000Y-64600000D03*
%TD*%
D16*
%TO.C,JP3*%
X164750000Y-53999620D03*
X164750000Y-55000380D03*
%TD*%
%LPD*%
M02*
