%TF.GenerationSoftware,KiCad,Pcbnew,10.0.4*%
%TF.CreationDate,2026-09-22T22:30:39+02:00*%
%TF.ProjectId,dongle,646f6e67-6c65-42e6-9b69-6361645f7063,rev?*%
%TF.SameCoordinates,Original*%
%TF.FileFunction,Legend,Top*%
%TF.FilePolarity,Positive*%
%FSLAX46Y46*%
G04 Gerber Fmt 4.6, Leading zero omitted, Abs format (unit mm)*
G04 Created by KiCad (PCBNEW 10.0.4) date 2026-09-22 22:30:39*
%MOMM*%
%LPD*%
G01*
G04 APERTURE LIST*
G04 Aperture macros list*
%AMRoundRect*
0 Rectangle with rounded corners*
0 $1 Rounding radius*
0 $2 $3 $4 $5 $6 $7 $8 $9 X,Y pos of 4 corners*
0 Add a 4 corners polygon primitive as box body*
4,1,4,$2,$3,$4,$5,$6,$7,$8,$9,$2,$3,0*
0 Add four circle primitives for the rounded corners*
1,1,$1+$1,$2,$3*
1,1,$1+$1,$4,$5*
1,1,$1+$1,$6,$7*
1,1,$1+$1,$8,$9*
0 Add four rect primitives between the rounded corners*
20,1,$1+$1,$2,$3,$4,$5,0*
20,1,$1+$1,$4,$5,$6,$7,0*
20,1,$1+$1,$6,$7,$8,$9,0*
20,1,$1+$1,$8,$9,$2,$3,0*%
G04 Aperture macros list end*
%ADD10C,0.100000*%
%ADD11C,0.300000*%
%ADD12C,0.120000*%
%ADD13C,0.000000*%
%ADD14RoundRect,0.250000X0.312500X0.625000X-0.312500X0.625000X-0.312500X-0.625000X0.312500X-0.625000X0*%
%ADD15RoundRect,0.250000X0.625000X-0.312500X0.625000X0.312500X-0.625000X0.312500X-0.625000X-0.312500X0*%
%ADD16RoundRect,0.200000X0.200000X0.275000X-0.200000X0.275000X-0.200000X-0.275000X0.200000X-0.275000X0*%
%ADD17RoundRect,0.200000X-0.275000X0.200000X-0.275000X-0.200000X0.275000X-0.200000X0.275000X0.200000X0*%
%ADD18RoundRect,0.070000X0.105000X0.680000X-0.105000X0.680000X-0.105000X-0.680000X0.105000X-0.680000X0*%
%ADD19RoundRect,0.225000X0.225000X0.250000X-0.225000X0.250000X-0.225000X-0.250000X0.225000X-0.250000X0*%
%ADD20R,0.900000X1.500000*%
%ADD21R,1.500000X0.900000*%
%ADD22R,0.900000X0.900000*%
%ADD23RoundRect,0.200000X0.275000X-0.200000X0.275000X0.200000X-0.275000X0.200000X-0.275000X-0.200000X0*%
%ADD24RoundRect,0.200000X-0.200000X-0.275000X0.200000X-0.275000X0.200000X0.275000X-0.200000X0.275000X0*%
%ADD25RoundRect,0.225000X0.250000X-0.225000X0.250000X0.225000X-0.250000X0.225000X-0.250000X-0.225000X0*%
%ADD26RoundRect,0.250000X-0.520000X0.520000X-0.520000X-0.520000X0.520000X-0.520000X0.520000X0.520000X0*%
%ADD27C,1.540000*%
%ADD28RoundRect,0.087500X-0.087500X0.425000X-0.087500X-0.425000X0.087500X-0.425000X0.087500X0.425000X0*%
%ADD29RoundRect,0.150000X0.150000X-0.825000X0.150000X0.825000X-0.150000X0.825000X-0.150000X-0.825000X0*%
G04 APERTURE END LIST*
D10*
X174500000Y-58135000D02*
X173510000Y-59500000D01*
D11*
X156445489Y-84199171D02*
X156445489Y-85699171D01*
X156445489Y-85699171D02*
X155945489Y-84627742D01*
X155945489Y-84627742D02*
X155445489Y-85699171D01*
X155445489Y-85699171D02*
X155445489Y-84199171D01*
X154088346Y-84199171D02*
X154088346Y-84984885D01*
X154088346Y-84984885D02*
X154159774Y-85127742D01*
X154159774Y-85127742D02*
X154302631Y-85199171D01*
X154302631Y-85199171D02*
X154588346Y-85199171D01*
X154588346Y-85199171D02*
X154731203Y-85127742D01*
X154088346Y-84270600D02*
X154231203Y-84199171D01*
X154231203Y-84199171D02*
X154588346Y-84199171D01*
X154588346Y-84199171D02*
X154731203Y-84270600D01*
X154731203Y-84270600D02*
X154802631Y-84413457D01*
X154802631Y-84413457D02*
X154802631Y-84556314D01*
X154802631Y-84556314D02*
X154731203Y-84699171D01*
X154731203Y-84699171D02*
X154588346Y-84770600D01*
X154588346Y-84770600D02*
X154231203Y-84770600D01*
X154231203Y-84770600D02*
X154088346Y-84842028D01*
X152802631Y-84270600D02*
X152945488Y-84199171D01*
X152945488Y-84199171D02*
X153231203Y-84199171D01*
X153231203Y-84199171D02*
X153374060Y-84270600D01*
X153374060Y-84270600D02*
X153445488Y-84413457D01*
X153445488Y-84413457D02*
X153445488Y-84984885D01*
X153445488Y-84984885D02*
X153374060Y-85127742D01*
X153374060Y-85127742D02*
X153231203Y-85199171D01*
X153231203Y-85199171D02*
X152945488Y-85199171D01*
X152945488Y-85199171D02*
X152802631Y-85127742D01*
X152802631Y-85127742D02*
X152731203Y-84984885D01*
X152731203Y-84984885D02*
X152731203Y-84842028D01*
X152731203Y-84842028D02*
X153445488Y-84699171D01*
X156313346Y-87749171D02*
X156813346Y-88463457D01*
X157170489Y-87749171D02*
X157170489Y-89249171D01*
X157170489Y-89249171D02*
X156599060Y-89249171D01*
X156599060Y-89249171D02*
X156456203Y-89177742D01*
X156456203Y-89177742D02*
X156384774Y-89106314D01*
X156384774Y-89106314D02*
X156313346Y-88963457D01*
X156313346Y-88963457D02*
X156313346Y-88749171D01*
X156313346Y-88749171D02*
X156384774Y-88606314D01*
X156384774Y-88606314D02*
X156456203Y-88534885D01*
X156456203Y-88534885D02*
X156599060Y-88463457D01*
X156599060Y-88463457D02*
X157170489Y-88463457D01*
X155670489Y-88534885D02*
X155170489Y-88534885D01*
X154956203Y-87749171D02*
X155670489Y-87749171D01*
X155670489Y-87749171D02*
X155670489Y-89249171D01*
X155670489Y-89249171D02*
X154956203Y-89249171D01*
X154527631Y-89249171D02*
X154027631Y-87749171D01*
X154027631Y-87749171D02*
X153527631Y-89249171D01*
X153099060Y-89106314D02*
X153027632Y-89177742D01*
X153027632Y-89177742D02*
X152884775Y-89249171D01*
X152884775Y-89249171D02*
X152527632Y-89249171D01*
X152527632Y-89249171D02*
X152384775Y-89177742D01*
X152384775Y-89177742D02*
X152313346Y-89106314D01*
X152313346Y-89106314D02*
X152241917Y-88963457D01*
X152241917Y-88963457D02*
X152241917Y-88820600D01*
X152241917Y-88820600D02*
X152313346Y-88606314D01*
X152313346Y-88606314D02*
X153170489Y-87749171D01*
X153170489Y-87749171D02*
X152241917Y-87749171D01*
D10*
X159746428Y-52133609D02*
X159889285Y-52181228D01*
X159889285Y-52181228D02*
X159936904Y-52228847D01*
X159936904Y-52228847D02*
X159984523Y-52324085D01*
X159984523Y-52324085D02*
X159984523Y-52466942D01*
X159984523Y-52466942D02*
X159936904Y-52562180D01*
X159936904Y-52562180D02*
X159889285Y-52609800D01*
X159889285Y-52609800D02*
X159794047Y-52657419D01*
X159794047Y-52657419D02*
X159413095Y-52657419D01*
X159413095Y-52657419D02*
X159413095Y-51657419D01*
X159413095Y-51657419D02*
X159746428Y-51657419D01*
X159746428Y-51657419D02*
X159841666Y-51705038D01*
X159841666Y-51705038D02*
X159889285Y-51752657D01*
X159889285Y-51752657D02*
X159936904Y-51847895D01*
X159936904Y-51847895D02*
X159936904Y-51943133D01*
X159936904Y-51943133D02*
X159889285Y-52038371D01*
X159889285Y-52038371D02*
X159841666Y-52085990D01*
X159841666Y-52085990D02*
X159746428Y-52133609D01*
X159746428Y-52133609D02*
X159413095Y-52133609D01*
%TO.C,C12*%
D12*
X175927064Y-63890000D02*
X174472936Y-63890000D01*
X175927064Y-65710000D02*
X174472936Y-65710000D01*
%TO.C,C9*%
X176390000Y-55827064D02*
X176390000Y-54372936D01*
X178210000Y-55827064D02*
X178210000Y-54372936D01*
%TO.C,R22*%
X176837258Y-59477500D02*
X176362742Y-59477500D01*
X176837258Y-60522500D02*
X176362742Y-60522500D01*
%TO.C,R16*%
X174677500Y-68962742D02*
X174677500Y-69437258D01*
X175722500Y-68962742D02*
X175722500Y-69437258D01*
%TO.C,J2*%
X156850000Y-52200000D02*
X157250000Y-51400000D01*
X157250000Y-51400000D02*
X157650000Y-52200000D01*
X157650000Y-52200000D02*
X156850000Y-52200000D01*
%TO.C,R1*%
X160737258Y-61477500D02*
X160262742Y-61477500D01*
X160737258Y-62522500D02*
X160262742Y-62522500D01*
%TO.C,C4*%
X170440580Y-61490000D02*
X170159420Y-61490000D01*
X170440580Y-62510000D02*
X170159420Y-62510000D01*
%TO.C,U7*%
X152760000Y-64300000D02*
X152760000Y-65300000D01*
X152760000Y-64300000D02*
X153760000Y-64300000D01*
X152760000Y-82600000D02*
X152760000Y-81600000D01*
X152910000Y-64450000D02*
X152910000Y-65750000D01*
X152910000Y-82450000D02*
X152910000Y-81100000D01*
X153660000Y-82450000D02*
X152910000Y-82450000D01*
X153660000Y-82600000D02*
X152760000Y-82600000D01*
X153760000Y-64450000D02*
X152910000Y-64450000D01*
X171610000Y-82600000D02*
X172260000Y-82600000D01*
X172110000Y-64450000D02*
X171610000Y-64450000D01*
X172110000Y-82450000D02*
X171610000Y-82450000D01*
X172110000Y-82450000D02*
X172110000Y-64450000D01*
X172260000Y-64250000D02*
X172260000Y-65350000D01*
X172260000Y-82600000D02*
X172260000Y-81600000D01*
%TO.C,R4*%
X173077500Y-68962742D02*
X173077500Y-69437258D01*
X174122500Y-68962742D02*
X174122500Y-69437258D01*
%TO.C,R5*%
X176177500Y-80137258D02*
X176177500Y-79662742D01*
X177222500Y-80137258D02*
X177222500Y-79662742D01*
%TO.C,R8*%
X176377500Y-74962742D02*
X176377500Y-75437258D01*
X177422500Y-74962742D02*
X177422500Y-75437258D01*
%TO.C,R2*%
X163462742Y-61477500D02*
X163937258Y-61477500D01*
X163462742Y-62522500D02*
X163937258Y-62522500D01*
%TO.C,R3*%
X174677500Y-80137258D02*
X174677500Y-79662742D01*
X175722500Y-80137258D02*
X175722500Y-79662742D01*
%TO.C,C5*%
X158790000Y-59665580D02*
X158790000Y-59384420D01*
X159810000Y-59665580D02*
X159810000Y-59384420D01*
D13*
%TO.C,kibuzzard-69DE4944*%
G36*
X175925121Y-86801131D02*
G01*
X175881502Y-86878675D01*
X175811228Y-86931987D01*
X175710662Y-86951373D01*
X175608885Y-86930775D01*
X175541034Y-86876252D01*
X175502262Y-86799919D01*
X175490145Y-86711470D01*
X175945719Y-86711470D01*
X175925121Y-86801131D01*
G37*
G36*
X173377060Y-86275283D02*
G01*
X173454604Y-86306785D01*
X173454604Y-86931987D01*
X173389176Y-86938045D01*
X173316478Y-86941680D01*
X173208643Y-86917145D01*
X173132310Y-86843538D01*
X173086874Y-86731765D01*
X173071729Y-86592730D01*
X173084451Y-86453090D01*
X173122617Y-86349192D01*
X173187439Y-86284673D01*
X173280129Y-86263166D01*
X173377060Y-86275283D01*
G37*
G36*
X173454604Y-85027302D02*
G01*
X174554766Y-85027302D01*
X175628271Y-85027302D01*
X176692084Y-85027302D01*
X177431179Y-85027302D01*
X178036995Y-85027302D01*
X178191147Y-85034875D01*
X178343813Y-85057521D01*
X178493525Y-85095022D01*
X178638841Y-85147017D01*
X178778360Y-85213004D01*
X178910739Y-85292349D01*
X179034704Y-85384288D01*
X179149060Y-85487935D01*
X179252707Y-85602291D01*
X179344646Y-85726256D01*
X179423991Y-85858635D01*
X179489979Y-85998155D01*
X179541973Y-86143470D01*
X179579474Y-86293182D01*
X179602120Y-86445849D01*
X179609693Y-86600000D01*
X179602120Y-86754151D01*
X179579474Y-86906818D01*
X179541973Y-87056530D01*
X179489979Y-87201845D01*
X179423991Y-87341365D01*
X179344646Y-87473744D01*
X179252707Y-87597709D01*
X179149060Y-87712065D01*
X179034704Y-87815712D01*
X178910739Y-87907651D01*
X178778360Y-87986996D01*
X178638841Y-88052983D01*
X178493525Y-88104978D01*
X178343813Y-88142479D01*
X178191147Y-88165125D01*
X178036995Y-88172698D01*
X177431179Y-88172698D01*
X172768821Y-88172698D01*
X172163005Y-88172698D01*
X172008854Y-88165125D01*
X171856187Y-88142479D01*
X171706475Y-88104978D01*
X171561159Y-88052983D01*
X171421640Y-87986996D01*
X171289261Y-87907651D01*
X171165296Y-87815712D01*
X171050940Y-87712065D01*
X170947293Y-87597709D01*
X170855354Y-87473744D01*
X170776009Y-87341365D01*
X170710021Y-87201845D01*
X170658027Y-87056530D01*
X170620526Y-86906818D01*
X170597880Y-86754151D01*
X170590426Y-86602423D01*
X172768821Y-86602423D01*
X172784437Y-86772321D01*
X172831287Y-86916909D01*
X172909370Y-87036187D01*
X173016801Y-87125040D01*
X173151696Y-87178352D01*
X173314055Y-87196123D01*
X173431280Y-87191882D01*
X173550323Y-87179160D01*
X173660885Y-87159774D01*
X173752666Y-87135541D01*
X173752666Y-86442488D01*
X174002262Y-86442488D01*
X174012561Y-86555473D01*
X174043457Y-86647254D01*
X174148869Y-86782956D01*
X174289418Y-86870194D01*
X174436026Y-86929564D01*
X174529322Y-86965913D01*
X174614136Y-87010743D01*
X174675929Y-87068901D01*
X174700162Y-87145234D01*
X174673775Y-87240819D01*
X174594615Y-87298169D01*
X174462682Y-87317286D01*
X174291842Y-87293053D01*
X174157351Y-87234895D01*
X174070113Y-87465105D01*
X174243376Y-87535380D01*
X174355149Y-87559006D01*
X174484491Y-87566882D01*
X174632983Y-87553689D01*
X174758589Y-87514109D01*
X174861309Y-87448142D01*
X174963994Y-87306381D01*
X174998223Y-87118578D01*
X174959451Y-86940468D01*
X174861309Y-86820517D01*
X174729241Y-86740549D01*
X174588691Y-86684814D01*
X174486914Y-86642407D01*
X174440872Y-86616963D01*
X175201777Y-86616963D01*
X175216317Y-86792380D01*
X175259935Y-86937372D01*
X175332633Y-87051939D01*
X175433333Y-87134733D01*
X175560959Y-87184410D01*
X175715509Y-87200969D01*
X175816074Y-87191276D01*
X175914216Y-87162197D01*
X176005695Y-87114035D01*
X176086268Y-87047092D01*
X176154120Y-86961369D01*
X176207431Y-86856866D01*
X176241963Y-86733885D01*
X176253473Y-86592730D01*
X176242569Y-86456422D01*
X176209855Y-86338288D01*
X176156846Y-86238025D01*
X176085057Y-86155331D01*
X175995396Y-86090509D01*
X175888772Y-86043861D01*
X175841282Y-86032956D01*
X176355250Y-86032956D01*
X176394628Y-86141095D01*
X176444911Y-86252262D01*
X176503978Y-86363732D01*
X176569709Y-86472779D01*
X176640893Y-86577282D01*
X176716317Y-86675121D01*
X176793255Y-86764176D01*
X176868982Y-86842326D01*
X176795376Y-86931381D01*
X176724798Y-87024071D01*
X176657855Y-87117670D01*
X176595153Y-87209451D01*
X176537904Y-87298506D01*
X176487318Y-87383926D01*
X176406139Y-87532956D01*
X176742973Y-87532956D01*
X176815670Y-87387561D01*
X176911389Y-87225202D01*
X177021648Y-87060420D01*
X177133118Y-86910178D01*
X177133118Y-87532956D01*
X177431179Y-87532956D01*
X177431179Y-86032956D01*
X177133118Y-86032956D01*
X177133118Y-86718740D01*
X177005897Y-86581826D01*
X176940771Y-86497617D01*
X176878675Y-86407351D01*
X176820820Y-86312843D01*
X176768417Y-86215913D01*
X176692084Y-86032956D01*
X176355250Y-86032956D01*
X175841282Y-86032956D01*
X175766095Y-86015691D01*
X175628271Y-86006300D01*
X175431987Y-86024475D01*
X175267205Y-86069305D01*
X175308401Y-86323748D01*
X175445315Y-86284976D01*
X175616155Y-86265590D01*
X175748223Y-86281644D01*
X175853635Y-86329806D01*
X175922698Y-86405836D01*
X175945719Y-86505493D01*
X175206624Y-86505493D01*
X175202989Y-86556381D01*
X175201777Y-86616963D01*
X174440872Y-86616963D01*
X174394830Y-86591519D01*
X174326979Y-86527302D01*
X174300323Y-86444911D01*
X174311228Y-86373425D01*
X174351212Y-86310420D01*
X174429968Y-86266801D01*
X174554766Y-86251050D01*
X174675626Y-86259532D01*
X174776494Y-86284976D01*
X174932795Y-86357674D01*
X175020032Y-86115347D01*
X174852827Y-86041438D01*
X174722577Y-86011450D01*
X174554766Y-86001454D01*
X174384733Y-86014243D01*
X174246204Y-86052612D01*
X174139176Y-86116559D01*
X174036490Y-86255594D01*
X174002262Y-86442488D01*
X173752666Y-86442488D01*
X173752666Y-85633118D01*
X173454604Y-85633118D01*
X173454604Y-86062036D01*
X173335258Y-86020234D01*
X173219548Y-86006300D01*
X173114742Y-86017205D01*
X173023263Y-86049919D01*
X172882714Y-86172294D01*
X172833643Y-86258926D01*
X172797900Y-86361309D01*
X172776090Y-86476716D01*
X172768821Y-86602423D01*
X170590426Y-86602423D01*
X170590307Y-86600000D01*
X170597880Y-86445849D01*
X170620526Y-86293182D01*
X170658027Y-86143470D01*
X170710021Y-85998155D01*
X170776009Y-85858635D01*
X170855354Y-85726256D01*
X170947293Y-85602291D01*
X171050940Y-85487935D01*
X171165296Y-85384288D01*
X171289261Y-85292349D01*
X171421640Y-85213004D01*
X171561159Y-85147017D01*
X171706475Y-85095022D01*
X171856187Y-85057521D01*
X172008854Y-85034875D01*
X172163005Y-85027302D01*
X172768821Y-85027302D01*
X173454604Y-85027302D01*
G37*
%TO.C,C1*%
D12*
X167340580Y-61490000D02*
X167059420Y-61490000D01*
X167340580Y-62510000D02*
X167059420Y-62510000D01*
%TO.C,R19*%
X177777500Y-64262742D02*
X177777500Y-64737258D01*
X178822500Y-64262742D02*
X178822500Y-64737258D01*
%TO.C,C10*%
X173990000Y-55827064D02*
X173990000Y-54372936D01*
X175810000Y-55827064D02*
X175810000Y-54372936D01*
%TO.C,R18*%
X176837258Y-57977500D02*
X176362742Y-57977500D01*
X176837258Y-59022500D02*
X176362742Y-59022500D01*
%TO.C,C7*%
X176740580Y-61490000D02*
X176459420Y-61490000D01*
X176740580Y-62510000D02*
X176459420Y-62510000D01*
%TO.C,R6*%
X173177500Y-74962742D02*
X173177500Y-75437258D01*
X174222500Y-74962742D02*
X174222500Y-75437258D01*
%TO.C,R7*%
X173177500Y-79662742D02*
X173177500Y-80137258D01*
X174222500Y-79662742D02*
X174222500Y-80137258D01*
%TO.C,Q1*%
X171290000Y-56665000D02*
X171315000Y-56665000D01*
X171290000Y-58135000D02*
X171290000Y-56665000D01*
X171315000Y-58135000D02*
X171290000Y-58135000D01*
X173485000Y-56665000D02*
X173510000Y-56665000D01*
X173510000Y-56665000D02*
X173510000Y-58135000D01*
X173510000Y-58135000D02*
X173485000Y-58135000D01*
X173490000Y-56220000D02*
X173680000Y-56080000D01*
X173680000Y-56360000D01*
X173490000Y-56220000D01*
G36*
X173680000Y-56360000D02*
G01*
X173490000Y-56220000D01*
X173680000Y-56080000D01*
X173680000Y-56360000D01*
G37*
%TO.C,U4*%
X160565000Y-55315000D02*
X160620000Y-55315000D01*
X160565000Y-59435000D02*
X160565000Y-55315000D01*
X160620000Y-59435000D02*
X160565000Y-59435000D01*
X170630000Y-55315000D02*
X170685000Y-55315000D01*
X170685000Y-55315000D02*
X170685000Y-59435000D01*
X170685000Y-59435000D02*
X170630000Y-59435000D01*
X160615000Y-59975000D02*
X160285000Y-60215000D01*
X160285000Y-59735000D01*
X160615000Y-59975000D01*
G36*
X160615000Y-59975000D02*
G01*
X160285000Y-60215000D01*
X160285000Y-59735000D01*
X160615000Y-59975000D01*
G37*
%TO.C,R20*%
X174777500Y-75437258D02*
X174777500Y-74962742D01*
X175822500Y-75437258D02*
X175822500Y-74962742D01*
%TO.C,R17*%
X177877500Y-68962742D02*
X177877500Y-69437258D01*
X178922500Y-68962742D02*
X178922500Y-69437258D01*
%TO.C,R15*%
X176277500Y-68962742D02*
X176277500Y-69437258D01*
X177322500Y-68962742D02*
X177322500Y-69437258D01*
%TO.C,R23*%
X173362742Y-59477500D02*
X173837258Y-59477500D01*
X173362742Y-60522500D02*
X173837258Y-60522500D01*
%TO.C,R21*%
X158777500Y-56237742D02*
X158777500Y-56712258D01*
X159822500Y-56237742D02*
X159822500Y-56712258D01*
%TO.C,C8*%
X178790000Y-55827064D02*
X178790000Y-54372936D01*
X180610000Y-55827064D02*
X180610000Y-54372936D01*
%TD*%
%LPC*%
D14*
%TO.C,C12*%
X176662500Y-64800000D03*
X173737500Y-64800000D03*
%TD*%
D15*
%TO.C,C9*%
X177300000Y-56562500D03*
X177300000Y-53637500D03*
%TD*%
D16*
%TO.C,R22*%
X177425000Y-60000000D03*
X175775000Y-60000000D03*
%TD*%
D17*
%TO.C,R16*%
X175200000Y-68375000D03*
X175200000Y-70025000D03*
%TD*%
D18*
%TO.C,J2*%
X157250000Y-49450000D03*
X157750000Y-49450000D03*
X158250000Y-49450000D03*
X158750000Y-49450000D03*
X159250000Y-49450000D03*
X159750000Y-49450000D03*
X162250000Y-49450000D03*
X162750000Y-49450000D03*
X163250000Y-49450000D03*
X163750000Y-49450000D03*
X164250000Y-49450000D03*
X164750000Y-49450000D03*
X165250000Y-49450000D03*
X165750000Y-49450000D03*
X166250000Y-49450000D03*
X166750000Y-49450000D03*
X167250000Y-49450000D03*
X167750000Y-49450000D03*
X168250000Y-49450000D03*
X168750000Y-49450000D03*
X169250000Y-49450000D03*
X169750000Y-49450000D03*
X170250000Y-49450000D03*
X170750000Y-49450000D03*
X171250000Y-49450000D03*
X171750000Y-49450000D03*
X172250000Y-49450000D03*
X172750000Y-49450000D03*
X173250000Y-49450000D03*
X173750000Y-49450000D03*
X174250000Y-49450000D03*
X174750000Y-49450000D03*
X175250000Y-49450000D03*
X175750000Y-49450000D03*
%TD*%
D16*
%TO.C,R1*%
X161325000Y-62000000D03*
X159675000Y-62000000D03*
%TD*%
D19*
%TO.C,C4*%
X171075000Y-62000000D03*
X169525000Y-62000000D03*
%TD*%
D20*
%TO.C,U7*%
X170920000Y-64700000D03*
X169650000Y-64700000D03*
X168380000Y-64700000D03*
X167110000Y-64700000D03*
X165840000Y-64700000D03*
X164570000Y-64700000D03*
X163300000Y-64700000D03*
X162030000Y-64700000D03*
X160760000Y-64700000D03*
X159490000Y-64700000D03*
X158220000Y-64700000D03*
X156950000Y-64700000D03*
X155680000Y-64700000D03*
X154410000Y-64700000D03*
D21*
X153160000Y-66465000D03*
X153160000Y-67735000D03*
X153160000Y-69005000D03*
X153160000Y-70275000D03*
X153160000Y-71545000D03*
X153160000Y-72815000D03*
X153160000Y-74085000D03*
X153160000Y-75355000D03*
X153160000Y-76625000D03*
X153160000Y-77895000D03*
X153160000Y-79165000D03*
X153160000Y-80435000D03*
D20*
X154410000Y-82200000D03*
X155680000Y-82200000D03*
X156950000Y-82200000D03*
X158220000Y-82200000D03*
X159490000Y-82200000D03*
X160760000Y-82200000D03*
X162030000Y-82200000D03*
X163300000Y-82200000D03*
X164570000Y-82200000D03*
X165840000Y-82200000D03*
X167110000Y-82200000D03*
X168380000Y-82200000D03*
X169650000Y-82200000D03*
X170920000Y-82200000D03*
D22*
X164600000Y-70550000D03*
X163200000Y-70550000D03*
X161800000Y-70550000D03*
X164600000Y-71950000D03*
X163200000Y-71950000D03*
X161800000Y-71950000D03*
X164600000Y-73350000D03*
X163200000Y-73350000D03*
X161800000Y-73350000D03*
%TD*%
D17*
%TO.C,R4*%
X173600000Y-68375000D03*
X173600000Y-70025000D03*
%TD*%
D23*
%TO.C,R5*%
X176700000Y-80725000D03*
X176700000Y-79075000D03*
%TD*%
D17*
%TO.C,R8*%
X176900000Y-74375000D03*
X176900000Y-76025000D03*
%TD*%
D24*
%TO.C,R2*%
X162875000Y-62000000D03*
X164525000Y-62000000D03*
%TD*%
D23*
%TO.C,R3*%
X175200000Y-80725000D03*
X175200000Y-79075000D03*
%TD*%
D25*
%TO.C,C5*%
X159300000Y-60300000D03*
X159300000Y-58750000D03*
%TD*%
D26*
%TO.C,J1*%
X180300000Y-58515000D03*
D27*
X180300000Y-61055000D03*
X180300000Y-63595000D03*
X180300000Y-66135000D03*
%TD*%
D19*
%TO.C,C1*%
X167975000Y-62000000D03*
X166425000Y-62000000D03*
%TD*%
D17*
%TO.C,R19*%
X178300000Y-63675000D03*
X178300000Y-65325000D03*
%TD*%
D15*
%TO.C,C10*%
X174900000Y-56562500D03*
X174900000Y-53637500D03*
%TD*%
D16*
%TO.C,R18*%
X177425000Y-58500000D03*
X175775000Y-58500000D03*
%TD*%
D19*
%TO.C,C7*%
X177375000Y-62000000D03*
X175825000Y-62000000D03*
%TD*%
D17*
%TO.C,R6*%
X173700000Y-74375000D03*
X173700000Y-76025000D03*
%TD*%
%TO.C,R7*%
X173700000Y-79075000D03*
X173700000Y-80725000D03*
%TD*%
D28*
%TO.C,Q1*%
X173050000Y-56562500D03*
X172400000Y-56562500D03*
X171750000Y-56562500D03*
X171750000Y-58237500D03*
X172400000Y-58237500D03*
X173050000Y-58237500D03*
%TD*%
D29*
%TO.C,U4*%
X161180000Y-59850000D03*
X162450000Y-59850000D03*
X163720000Y-59850000D03*
X164990000Y-59850000D03*
X166260000Y-59850000D03*
X167530000Y-59850000D03*
X168800000Y-59850000D03*
X170070000Y-59850000D03*
X170070000Y-54900000D03*
X168800000Y-54900000D03*
X167530000Y-54900000D03*
X166260000Y-54900000D03*
X164990000Y-54900000D03*
X163720000Y-54900000D03*
X162450000Y-54900000D03*
X161180000Y-54900000D03*
%TD*%
D23*
%TO.C,R20*%
X175300000Y-76025000D03*
X175300000Y-74375000D03*
%TD*%
D17*
%TO.C,R17*%
X178400000Y-68375000D03*
X178400000Y-70025000D03*
%TD*%
%TO.C,R15*%
X176800000Y-68375000D03*
X176800000Y-70025000D03*
%TD*%
D24*
%TO.C,R23*%
X172775000Y-60000000D03*
X174425000Y-60000000D03*
%TD*%
D17*
%TO.C,R21*%
X159300000Y-55650000D03*
X159300000Y-57300000D03*
%TD*%
D15*
%TO.C,C8*%
X179700000Y-56562500D03*
X179700000Y-53637500D03*
%TD*%
%LPD*%
M02*
