%TF.GenerationSoftware,KiCad,Pcbnew,10.0.4*%
%TF.CreationDate,2026-09-22T22:30:39+02:00*%
%TF.ProjectId,dongle,646f6e67-6c65-42e6-9b69-6361645f7063,rev?*%
%TF.SameCoordinates,Original*%
%TF.FileFunction,Copper,L3,Inr*%
%TF.FilePolarity,Positive*%
%FSLAX46Y46*%
G04 Gerber Fmt 4.6, Leading zero omitted, Abs format (unit mm)*
G04 Created by KiCad (PCBNEW 10.0.4) date 2026-09-22 22:30:39*
%MOMM*%
%LPD*%
G01*
G04 APERTURE LIST*
%TA.AperFunction,ViaPad*%
%ADD10C,0.600000*%
%TD*%
%TA.AperFunction,Conductor*%
%ADD11C,0.200000*%
%TD*%
G04 APERTURE END LIST*
D10*
%TO.N,GND*%
X163800000Y-51600000D03*
X176100000Y-56562500D03*
X172200000Y-74100000D03*
X160200000Y-60500000D03*
X170300000Y-57300000D03*
X165200000Y-51700000D03*
X152900000Y-63800000D03*
X171925000Y-82025000D03*
X155000000Y-78700000D03*
X166800000Y-51700000D03*
X168300000Y-51800000D03*
X165200000Y-63100000D03*
X164400000Y-69800000D03*
X159900000Y-53400000D03*
X156200000Y-76000000D03*
X160600000Y-70500000D03*
X174060717Y-51717690D03*
X179050000Y-76075000D03*
X175700000Y-64800000D03*
X157187500Y-53577134D03*
X179175000Y-59475000D03*
X156400000Y-70200000D03*
X171900000Y-62000000D03*
X169800000Y-51800000D03*
X170975000Y-63325000D03*
X163900000Y-56700000D03*
X171200000Y-51800000D03*
%TO.N,+3.3V*%
X178500000Y-53637500D03*
X155000000Y-76400000D03*
X176100000Y-53637500D03*
X175150000Y-51575000D03*
X173750000Y-63200000D03*
X174429280Y-52427735D03*
X168875000Y-72062500D03*
X165500000Y-61500000D03*
X156959947Y-52810179D03*
X169700000Y-63300000D03*
X160787500Y-56512500D03*
X170025000Y-72062500D03*
%TO.N,/SCK*%
X175900000Y-70800000D03*
X168900000Y-76900000D03*
X158375000Y-70650000D03*
%TO.N,Net-(J2-CONFIG_3)*%
X161250000Y-53000000D03*
X157375000Y-51650000D03*
%TO.N,Net-(J2-~{FULL_CARD_POWER_OFF})*%
X174000000Y-58900000D03*
%TO.N,Net-(J2-~{W_DISABLE1})*%
X159150000Y-54600000D03*
%TO.N,Net-(J2-CONFIG_0)*%
X163025000Y-52950000D03*
%TO.N,Net-(J2-CONFIG_1)*%
X173250000Y-52000000D03*
%TO.N,Net-(J2-CONFIG_2)*%
X175716250Y-52178464D03*
%TO.N,/RX*%
X162900000Y-63225000D03*
X164500000Y-78300000D03*
%TO.N,/CSN_1*%
X164800000Y-76100000D03*
X168105637Y-75094363D03*
%TO.N,/IO0*%
X154400000Y-81100000D03*
X168400000Y-57900000D03*
X177300000Y-57600000D03*
%TO.N,/TX*%
X165300000Y-78275000D03*
X164100000Y-63175000D03*
%TO.N,/IRQ_2*%
X176600000Y-82300000D03*
X168425000Y-81075000D03*
%TO.N,/CSN_2*%
X169675000Y-80975000D03*
X175000000Y-82100000D03*
%TO.N,Net-(U3-CE)*%
X173540000Y-70800000D03*
%TO.N,Net-(U3-IRQ)*%
X179950000Y-73375000D03*
%TO.N,Net-(U2-IRQ)*%
X162300000Y-76292157D03*
%TO.N,Net-(U3-~{CSN})*%
X174419102Y-70714401D03*
%TO.N,/D-_CH340*%
X167575000Y-58375000D03*
X178845000Y-61055000D03*
%TO.N,/D+_CH340*%
X179000000Y-62325000D03*
X166325000Y-58400000D03*
%TO.N,Net-(D1-A)*%
X180500000Y-68175000D03*
X180500000Y-67275000D03*
%TO.N,Net-(U2-~{CSN})*%
X157700000Y-68800000D03*
%TO.N,Net-(U2-CE)*%
X158796128Y-76058872D03*
%TO.N,/MISO*%
X167800000Y-77900000D03*
X160325735Y-75325735D03*
X179217321Y-70593263D03*
%TO.N,/MOSI*%
X168144773Y-77178103D03*
X159650000Y-73500000D03*
X177350000Y-70850000D03*
%TD*%
%TO.N,Net-(J2-CONFIG_3)*%
D11*
X160175000Y-54075000D02*
X161250000Y-53000000D01*
X158825000Y-53250000D02*
X159650000Y-54075000D01*
X157375000Y-51650000D02*
X158825000Y-53100000D01*
X159650000Y-54075000D02*
X160175000Y-54075000D01*
X158825000Y-53100000D02*
X158825000Y-53250000D01*
%TD*%
%TA.AperFunction,Conductor*%
%TO.N,+3.3V*%
G36*
X175867539Y-49419685D02*
G01*
X175913294Y-49472489D01*
X175924500Y-49524000D01*
X175924500Y-51253964D01*
X175904815Y-51321003D01*
X175852011Y-51366758D01*
X175800500Y-51377964D01*
X175637405Y-51377964D01*
X175482760Y-51408725D01*
X175482748Y-51408728D01*
X175337077Y-51469066D01*
X175337064Y-51469073D01*
X175205961Y-51556674D01*
X175205957Y-51556677D01*
X175094463Y-51668171D01*
X175094459Y-51668176D01*
X175085533Y-51681535D01*
X175031920Y-51726338D01*
X174962594Y-51735044D01*
X174899568Y-51704887D01*
X174862850Y-51645443D01*
X174860816Y-51636832D01*
X174853741Y-51601264D01*
X174830454Y-51484193D01*
X174799195Y-51408727D01*
X174770114Y-51338517D01*
X174770107Y-51338504D01*
X174682506Y-51207401D01*
X174682503Y-51207397D01*
X174571009Y-51095903D01*
X174571005Y-51095900D01*
X174439902Y-51008299D01*
X174439889Y-51008292D01*
X174294218Y-50947954D01*
X174294206Y-50947951D01*
X174139562Y-50917190D01*
X174139559Y-50917190D01*
X173981875Y-50917190D01*
X173981872Y-50917190D01*
X173827227Y-50947951D01*
X173827215Y-50947954D01*
X173681544Y-51008292D01*
X173681531Y-51008299D01*
X173550428Y-51095900D01*
X173550424Y-51095903D01*
X173474120Y-51172208D01*
X173412797Y-51205693D01*
X173362249Y-51206145D01*
X173328842Y-51199500D01*
X173171158Y-51199500D01*
X173171155Y-51199500D01*
X173016510Y-51230261D01*
X173016498Y-51230264D01*
X172870827Y-51290602D01*
X172870814Y-51290609D01*
X172739711Y-51378210D01*
X172739707Y-51378213D01*
X172628213Y-51489707D01*
X172628210Y-51489711D01*
X172540609Y-51620814D01*
X172540602Y-51620827D01*
X172480264Y-51766498D01*
X172480261Y-51766510D01*
X172449500Y-51921153D01*
X172449500Y-52078846D01*
X172480261Y-52233489D01*
X172480264Y-52233501D01*
X172540602Y-52379172D01*
X172540609Y-52379185D01*
X172628210Y-52510288D01*
X172628213Y-52510292D01*
X172739707Y-52621786D01*
X172739711Y-52621789D01*
X172870814Y-52709390D01*
X172870827Y-52709397D01*
X173008695Y-52766503D01*
X173016503Y-52769737D01*
X173142558Y-52794811D01*
X173171153Y-52800499D01*
X173171156Y-52800500D01*
X173171158Y-52800500D01*
X173328844Y-52800500D01*
X173328845Y-52800499D01*
X173483497Y-52769737D01*
X173629179Y-52709394D01*
X173760289Y-52621789D01*
X173836597Y-52545480D01*
X173897917Y-52511996D01*
X173948469Y-52511545D01*
X173950737Y-52511996D01*
X173981874Y-52518190D01*
X173981875Y-52518190D01*
X174139561Y-52518190D01*
X174139562Y-52518189D01*
X174294214Y-52487427D01*
X174408704Y-52440004D01*
X174439889Y-52427087D01*
X174439889Y-52427086D01*
X174439896Y-52427084D01*
X174571006Y-52339479D01*
X174682506Y-52227979D01*
X174691429Y-52214625D01*
X174745039Y-52169818D01*
X174814364Y-52161108D01*
X174877393Y-52191261D01*
X174914114Y-52250703D01*
X174916150Y-52259320D01*
X174946511Y-52411955D01*
X174946514Y-52411965D01*
X175006852Y-52557636D01*
X175006859Y-52557649D01*
X175094460Y-52688752D01*
X175094463Y-52688756D01*
X175205957Y-52800250D01*
X175205961Y-52800253D01*
X175337064Y-52887854D01*
X175337077Y-52887861D01*
X175482748Y-52948199D01*
X175482753Y-52948201D01*
X175637403Y-52978963D01*
X175637406Y-52978964D01*
X175637408Y-52978964D01*
X175795094Y-52978964D01*
X175795095Y-52978963D01*
X175949747Y-52948201D01*
X176095429Y-52887858D01*
X176226539Y-52800253D01*
X176338039Y-52688753D01*
X176357972Y-52658920D01*
X176411580Y-52614117D01*
X176480905Y-52605407D01*
X176503473Y-52611286D01*
X176665062Y-52670100D01*
X176837466Y-52700500D01*
X176859108Y-52700500D01*
X180875500Y-52700500D01*
X180942539Y-52720185D01*
X180988294Y-52772989D01*
X180999500Y-52824500D01*
X180999500Y-66429865D01*
X180979815Y-66496904D01*
X180927011Y-66542659D01*
X180857853Y-66552603D01*
X180828048Y-66544427D01*
X180823780Y-66542659D01*
X180733497Y-66505263D01*
X180733494Y-66505262D01*
X180733491Y-66505261D01*
X180578845Y-66474500D01*
X180578842Y-66474500D01*
X180421158Y-66474500D01*
X180421155Y-66474500D01*
X180266510Y-66505261D01*
X180266498Y-66505264D01*
X180120827Y-66565602D01*
X180120814Y-66565609D01*
X179989711Y-66653210D01*
X179989707Y-66653213D01*
X179878213Y-66764707D01*
X179878210Y-66764711D01*
X179790609Y-66895814D01*
X179790602Y-66895827D01*
X179730264Y-67041498D01*
X179730261Y-67041510D01*
X179699500Y-67196153D01*
X179699500Y-67353846D01*
X179730261Y-67508489D01*
X179730264Y-67508501D01*
X179790604Y-67654177D01*
X179790605Y-67654179D01*
X179791899Y-67656115D01*
X179792264Y-67657282D01*
X179793476Y-67659549D01*
X179793045Y-67659778D01*
X179812773Y-67722794D01*
X179794285Y-67790173D01*
X179791899Y-67793885D01*
X179790605Y-67795820D01*
X179790604Y-67795822D01*
X179730264Y-67941498D01*
X179730261Y-67941510D01*
X179699500Y-68096153D01*
X179699500Y-68253846D01*
X179730261Y-68408489D01*
X179730264Y-68408501D01*
X179790602Y-68554172D01*
X179790609Y-68554185D01*
X179878210Y-68685288D01*
X179878213Y-68685292D01*
X179989707Y-68796786D01*
X179989711Y-68796789D01*
X180120814Y-68884390D01*
X180120827Y-68884397D01*
X180229425Y-68929379D01*
X180266503Y-68944737D01*
X180421153Y-68975499D01*
X180421156Y-68975500D01*
X180421158Y-68975500D01*
X180578844Y-68975500D01*
X180578845Y-68975499D01*
X180733497Y-68944737D01*
X180828048Y-68905572D01*
X180897517Y-68898104D01*
X180959996Y-68929379D01*
X180995648Y-68989468D01*
X180999500Y-69020134D01*
X180999500Y-83476000D01*
X180979815Y-83543039D01*
X180927011Y-83588794D01*
X180875500Y-83600000D01*
X152124500Y-83600000D01*
X152057461Y-83580315D01*
X152011706Y-83527511D01*
X152000500Y-83476000D01*
X152000500Y-81946153D01*
X171124500Y-81946153D01*
X171124500Y-82103846D01*
X171155261Y-82258489D01*
X171155264Y-82258501D01*
X171215602Y-82404172D01*
X171215609Y-82404185D01*
X171303210Y-82535288D01*
X171303213Y-82535292D01*
X171414707Y-82646786D01*
X171414711Y-82646789D01*
X171545814Y-82734390D01*
X171545827Y-82734397D01*
X171691498Y-82794735D01*
X171691503Y-82794737D01*
X171846153Y-82825499D01*
X171846156Y-82825500D01*
X171846158Y-82825500D01*
X172003844Y-82825500D01*
X172003845Y-82825499D01*
X172158497Y-82794737D01*
X172304179Y-82734394D01*
X172435289Y-82646789D01*
X172546789Y-82535289D01*
X172634394Y-82404179D01*
X172694737Y-82258497D01*
X172725500Y-82103842D01*
X172725500Y-82021153D01*
X174199500Y-82021153D01*
X174199500Y-82178846D01*
X174230261Y-82333489D01*
X174230264Y-82333501D01*
X174290602Y-82479172D01*
X174290609Y-82479185D01*
X174378210Y-82610288D01*
X174378213Y-82610292D01*
X174489707Y-82721786D01*
X174489711Y-82721789D01*
X174620814Y-82809390D01*
X174620827Y-82809397D01*
X174766498Y-82869735D01*
X174766503Y-82869737D01*
X174921153Y-82900499D01*
X174921156Y-82900500D01*
X174921158Y-82900500D01*
X175078844Y-82900500D01*
X175078845Y-82900499D01*
X175233497Y-82869737D01*
X175379179Y-82809394D01*
X175510289Y-82721789D01*
X175621789Y-82610289D01*
X175641234Y-82581188D01*
X175694846Y-82536383D01*
X175764171Y-82527676D01*
X175827198Y-82557830D01*
X175858897Y-82602627D01*
X175890602Y-82679172D01*
X175890609Y-82679185D01*
X175978210Y-82810288D01*
X175978213Y-82810292D01*
X176089707Y-82921786D01*
X176089711Y-82921789D01*
X176220814Y-83009390D01*
X176220827Y-83009397D01*
X176366498Y-83069735D01*
X176366503Y-83069737D01*
X176521153Y-83100499D01*
X176521156Y-83100500D01*
X176521158Y-83100500D01*
X176678844Y-83100500D01*
X176678845Y-83100499D01*
X176833497Y-83069737D01*
X176979179Y-83009394D01*
X177110289Y-82921789D01*
X177221789Y-82810289D01*
X177309394Y-82679179D01*
X177369737Y-82533497D01*
X177400500Y-82378842D01*
X177400500Y-82221158D01*
X177400500Y-82221155D01*
X177400499Y-82221153D01*
X177369737Y-82066503D01*
X177319887Y-81946153D01*
X177309397Y-81920827D01*
X177309390Y-81920814D01*
X177221789Y-81789711D01*
X177221786Y-81789707D01*
X177110292Y-81678213D01*
X177110288Y-81678210D01*
X176979185Y-81590609D01*
X176979172Y-81590602D01*
X176833501Y-81530264D01*
X176833489Y-81530261D01*
X176678845Y-81499500D01*
X176678842Y-81499500D01*
X176521158Y-81499500D01*
X176521155Y-81499500D01*
X176366510Y-81530261D01*
X176366498Y-81530264D01*
X176220827Y-81590602D01*
X176220814Y-81590609D01*
X176089711Y-81678210D01*
X176089707Y-81678213D01*
X175978213Y-81789707D01*
X175978209Y-81789712D01*
X175958763Y-81818814D01*
X175905149Y-81863618D01*
X175835824Y-81872323D01*
X175772797Y-81842166D01*
X175741102Y-81797373D01*
X175709394Y-81720821D01*
X175709390Y-81720814D01*
X175621789Y-81589711D01*
X175621786Y-81589707D01*
X175510292Y-81478213D01*
X175510288Y-81478210D01*
X175379185Y-81390609D01*
X175379172Y-81390602D01*
X175233501Y-81330264D01*
X175233489Y-81330261D01*
X175078845Y-81299500D01*
X175078842Y-81299500D01*
X174921158Y-81299500D01*
X174921155Y-81299500D01*
X174766510Y-81330261D01*
X174766498Y-81330264D01*
X174620827Y-81390602D01*
X174620814Y-81390609D01*
X174489711Y-81478210D01*
X174489707Y-81478213D01*
X174378213Y-81589707D01*
X174378210Y-81589711D01*
X174290609Y-81720814D01*
X174290602Y-81720827D01*
X174230264Y-81866498D01*
X174230261Y-81866510D01*
X174199500Y-82021153D01*
X172725500Y-82021153D01*
X172725500Y-81946158D01*
X172725500Y-81946155D01*
X172725499Y-81946153D01*
X172709657Y-81866510D01*
X172694737Y-81791503D01*
X172691791Y-81784390D01*
X172634397Y-81645827D01*
X172634390Y-81645814D01*
X172546789Y-81514711D01*
X172546786Y-81514707D01*
X172435292Y-81403213D01*
X172435288Y-81403210D01*
X172304185Y-81315609D01*
X172304172Y-81315602D01*
X172158501Y-81255264D01*
X172158489Y-81255261D01*
X172003845Y-81224500D01*
X172003842Y-81224500D01*
X171846158Y-81224500D01*
X171846155Y-81224500D01*
X171691510Y-81255261D01*
X171691498Y-81255264D01*
X171545827Y-81315602D01*
X171545814Y-81315609D01*
X171414711Y-81403210D01*
X171414707Y-81403213D01*
X171303213Y-81514707D01*
X171303210Y-81514711D01*
X171215609Y-81645814D01*
X171215602Y-81645827D01*
X171155264Y-81791498D01*
X171155261Y-81791510D01*
X171124500Y-81946153D01*
X152000500Y-81946153D01*
X152000500Y-81021153D01*
X153599500Y-81021153D01*
X153599500Y-81178846D01*
X153630261Y-81333489D01*
X153630264Y-81333501D01*
X153690602Y-81479172D01*
X153690609Y-81479185D01*
X153778210Y-81610288D01*
X153778213Y-81610292D01*
X153889707Y-81721786D01*
X153889711Y-81721789D01*
X154020814Y-81809390D01*
X154020827Y-81809397D01*
X154151730Y-81863618D01*
X154166503Y-81869737D01*
X154321153Y-81900499D01*
X154321156Y-81900500D01*
X154321158Y-81900500D01*
X154478844Y-81900500D01*
X154478845Y-81900499D01*
X154633497Y-81869737D01*
X154779179Y-81809394D01*
X154910289Y-81721789D01*
X155021789Y-81610289D01*
X155109394Y-81479179D01*
X155169737Y-81333497D01*
X155200500Y-81178842D01*
X155200500Y-81021158D01*
X155200500Y-81021155D01*
X155200499Y-81021153D01*
X155199128Y-81014257D01*
X155195527Y-80996153D01*
X167624500Y-80996153D01*
X167624500Y-81153846D01*
X167655261Y-81308489D01*
X167655264Y-81308501D01*
X167715602Y-81454172D01*
X167715609Y-81454185D01*
X167803210Y-81585288D01*
X167803213Y-81585292D01*
X167914707Y-81696786D01*
X167914711Y-81696789D01*
X168045814Y-81784390D01*
X168045827Y-81784397D01*
X168145070Y-81825504D01*
X168191503Y-81844737D01*
X168300963Y-81866510D01*
X168346153Y-81875499D01*
X168346156Y-81875500D01*
X168346158Y-81875500D01*
X168503844Y-81875500D01*
X168503845Y-81875499D01*
X168658497Y-81844737D01*
X168804179Y-81784394D01*
X168935289Y-81696789D01*
X169015170Y-81616907D01*
X169076490Y-81583423D01*
X169146182Y-81588407D01*
X169171741Y-81601487D01*
X169295814Y-81684390D01*
X169295827Y-81684397D01*
X169386101Y-81721789D01*
X169441503Y-81744737D01*
X169596153Y-81775499D01*
X169596156Y-81775500D01*
X169596158Y-81775500D01*
X169753844Y-81775500D01*
X169753845Y-81775499D01*
X169908497Y-81744737D01*
X170054179Y-81684394D01*
X170185289Y-81596789D01*
X170296789Y-81485289D01*
X170384394Y-81354179D01*
X170444737Y-81208497D01*
X170475500Y-81053842D01*
X170475500Y-80896158D01*
X170475500Y-80896155D01*
X170475499Y-80896153D01*
X170444738Y-80741510D01*
X170444737Y-80741503D01*
X170436170Y-80720821D01*
X170384397Y-80595827D01*
X170384390Y-80595814D01*
X170296789Y-80464711D01*
X170296786Y-80464707D01*
X170185292Y-80353213D01*
X170185288Y-80353210D01*
X170054185Y-80265609D01*
X170054172Y-80265602D01*
X169908501Y-80205264D01*
X169908489Y-80205261D01*
X169753845Y-80174500D01*
X169753842Y-80174500D01*
X169596158Y-80174500D01*
X169596155Y-80174500D01*
X169441510Y-80205261D01*
X169441498Y-80205264D01*
X169295827Y-80265602D01*
X169295814Y-80265609D01*
X169164711Y-80353210D01*
X169084829Y-80433092D01*
X169023505Y-80466576D01*
X168953814Y-80461592D01*
X168928257Y-80448512D01*
X168804185Y-80365609D01*
X168804172Y-80365602D01*
X168658501Y-80305264D01*
X168658489Y-80305261D01*
X168503845Y-80274500D01*
X168503842Y-80274500D01*
X168346158Y-80274500D01*
X168346155Y-80274500D01*
X168191510Y-80305261D01*
X168191498Y-80305264D01*
X168045827Y-80365602D01*
X168045814Y-80365609D01*
X167914711Y-80453210D01*
X167914707Y-80453213D01*
X167803213Y-80564707D01*
X167803210Y-80564711D01*
X167715609Y-80695814D01*
X167715602Y-80695827D01*
X167655264Y-80841498D01*
X167655261Y-80841510D01*
X167624500Y-80996153D01*
X155195527Y-80996153D01*
X155169738Y-80866508D01*
X155169737Y-80866507D01*
X155169737Y-80866503D01*
X155117959Y-80741498D01*
X155109397Y-80720827D01*
X155109390Y-80720814D01*
X155021789Y-80589711D01*
X155021786Y-80589707D01*
X154910292Y-80478213D01*
X154910288Y-80478210D01*
X154779185Y-80390609D01*
X154779172Y-80390602D01*
X154633501Y-80330264D01*
X154633489Y-80330261D01*
X154478845Y-80299500D01*
X154478842Y-80299500D01*
X154321158Y-80299500D01*
X154321155Y-80299500D01*
X154166510Y-80330261D01*
X154166498Y-80330264D01*
X154020827Y-80390602D01*
X154020814Y-80390609D01*
X153889711Y-80478210D01*
X153889707Y-80478213D01*
X153778213Y-80589707D01*
X153778210Y-80589711D01*
X153690609Y-80720814D01*
X153690602Y-80720827D01*
X153630264Y-80866498D01*
X153630261Y-80866510D01*
X153599500Y-81021153D01*
X152000500Y-81021153D01*
X152000500Y-78621153D01*
X154199500Y-78621153D01*
X154199500Y-78778846D01*
X154230261Y-78933489D01*
X154230264Y-78933501D01*
X154290602Y-79079172D01*
X154290609Y-79079185D01*
X154378210Y-79210288D01*
X154378213Y-79210292D01*
X154489707Y-79321786D01*
X154489711Y-79321789D01*
X154620814Y-79409390D01*
X154620827Y-79409397D01*
X154766498Y-79469735D01*
X154766503Y-79469737D01*
X154921153Y-79500499D01*
X154921156Y-79500500D01*
X154921158Y-79500500D01*
X155078844Y-79500500D01*
X155078845Y-79500499D01*
X155233497Y-79469737D01*
X155379179Y-79409394D01*
X155510289Y-79321789D01*
X155621789Y-79210289D01*
X155709394Y-79079179D01*
X155769737Y-78933497D01*
X155800500Y-78778842D01*
X155800500Y-78621158D01*
X155800500Y-78621155D01*
X155800499Y-78621153D01*
X155780734Y-78521789D01*
X155769737Y-78466503D01*
X155733427Y-78378842D01*
X155709397Y-78320827D01*
X155709390Y-78320814D01*
X155684763Y-78283957D01*
X155642798Y-78221153D01*
X163699500Y-78221153D01*
X163699500Y-78378846D01*
X163730261Y-78533489D01*
X163730264Y-78533501D01*
X163790602Y-78679172D01*
X163790609Y-78679185D01*
X163878210Y-78810288D01*
X163878213Y-78810292D01*
X163989707Y-78921786D01*
X163989711Y-78921789D01*
X164120814Y-79009390D01*
X164120827Y-79009397D01*
X164266498Y-79069735D01*
X164266503Y-79069737D01*
X164421153Y-79100499D01*
X164421156Y-79100500D01*
X164421158Y-79100500D01*
X164578844Y-79100500D01*
X164578845Y-79100499D01*
X164733497Y-79069737D01*
X164879179Y-79009394D01*
X164879178Y-79009394D01*
X164882726Y-79007925D01*
X164952195Y-79000456D01*
X164977628Y-79007924D01*
X165066503Y-79044737D01*
X165192176Y-79069735D01*
X165221153Y-79075499D01*
X165221156Y-79075500D01*
X165221158Y-79075500D01*
X165378844Y-79075500D01*
X165378845Y-79075499D01*
X165533497Y-79044737D01*
X165679179Y-78984394D01*
X165810289Y-78896789D01*
X165921789Y-78785289D01*
X166009394Y-78654179D01*
X166069737Y-78508497D01*
X166100500Y-78353842D01*
X166100500Y-78196158D01*
X166100500Y-78196155D01*
X166100499Y-78196153D01*
X166077039Y-78078213D01*
X166069737Y-78041503D01*
X166048655Y-77990606D01*
X166009397Y-77895827D01*
X166009389Y-77895813D01*
X166001468Y-77883958D01*
X166001467Y-77883957D01*
X165959503Y-77821153D01*
X166999500Y-77821153D01*
X166999500Y-77978846D01*
X167030261Y-78133489D01*
X167030264Y-78133501D01*
X167090602Y-78279172D01*
X167090609Y-78279185D01*
X167178210Y-78410288D01*
X167178213Y-78410292D01*
X167289707Y-78521786D01*
X167289711Y-78521789D01*
X167420814Y-78609390D01*
X167420827Y-78609397D01*
X167566498Y-78669735D01*
X167566503Y-78669737D01*
X167721153Y-78700499D01*
X167721156Y-78700500D01*
X167721158Y-78700500D01*
X167878844Y-78700500D01*
X167878845Y-78700499D01*
X168033497Y-78669737D01*
X168179179Y-78609394D01*
X168310289Y-78521789D01*
X168421789Y-78410289D01*
X168509394Y-78279179D01*
X168569737Y-78133497D01*
X168600500Y-77978842D01*
X168600500Y-77902628D01*
X168620185Y-77835589D01*
X168638570Y-77813230D01*
X168646482Y-77805624D01*
X168655062Y-77799892D01*
X168719849Y-77735104D01*
X168720715Y-77734272D01*
X168750640Y-77718691D01*
X168780285Y-77702504D01*
X168781914Y-77702409D01*
X168782689Y-77702006D01*
X168785087Y-77702225D01*
X168818808Y-77700268D01*
X168821154Y-77700499D01*
X168821158Y-77700500D01*
X168821162Y-77700500D01*
X168978844Y-77700500D01*
X168978845Y-77700499D01*
X169133497Y-77669737D01*
X169279179Y-77609394D01*
X169410289Y-77521789D01*
X169521789Y-77410289D01*
X169609394Y-77279179D01*
X169669737Y-77133497D01*
X169700500Y-76978842D01*
X169700500Y-76821158D01*
X169700500Y-76821155D01*
X169700499Y-76821153D01*
X169698159Y-76809390D01*
X169669737Y-76666503D01*
X169636099Y-76585292D01*
X169609397Y-76520827D01*
X169609390Y-76520814D01*
X169521789Y-76389711D01*
X169521786Y-76389707D01*
X169410292Y-76278213D01*
X169410288Y-76278210D01*
X169279185Y-76190609D01*
X169279172Y-76190602D01*
X169133501Y-76130264D01*
X169133491Y-76130261D01*
X169040092Y-76111683D01*
X169040091Y-76111682D01*
X168978845Y-76099500D01*
X168978842Y-76099500D01*
X168821158Y-76099500D01*
X168821155Y-76099500D01*
X168666510Y-76130261D01*
X168666498Y-76130264D01*
X168520827Y-76190602D01*
X168520814Y-76190609D01*
X168389714Y-76278208D01*
X168325806Y-76342115D01*
X168264482Y-76375599D01*
X168225976Y-76377835D01*
X168223620Y-76377603D01*
X168223615Y-76377603D01*
X168065931Y-76377603D01*
X168065928Y-76377603D01*
X167911283Y-76408364D01*
X167911271Y-76408367D01*
X167765600Y-76468705D01*
X167765587Y-76468712D01*
X167634484Y-76556313D01*
X167634480Y-76556316D01*
X167522986Y-76667810D01*
X167522983Y-76667814D01*
X167435382Y-76798917D01*
X167435375Y-76798930D01*
X167375037Y-76944601D01*
X167375034Y-76944613D01*
X167344273Y-77099256D01*
X167344273Y-77175474D01*
X167324588Y-77242513D01*
X167293917Y-77273739D01*
X167294417Y-77274349D01*
X167289705Y-77278215D01*
X167178213Y-77389707D01*
X167178210Y-77389711D01*
X167090609Y-77520814D01*
X167090602Y-77520827D01*
X167030264Y-77666498D01*
X167030261Y-77666510D01*
X166999500Y-77821153D01*
X165959503Y-77821153D01*
X165921789Y-77764711D01*
X165921786Y-77764707D01*
X165810292Y-77653213D01*
X165810288Y-77653210D01*
X165679185Y-77565609D01*
X165679172Y-77565602D01*
X165533501Y-77505264D01*
X165533489Y-77505261D01*
X165378845Y-77474500D01*
X165378842Y-77474500D01*
X165221158Y-77474500D01*
X165221155Y-77474500D01*
X165066510Y-77505261D01*
X165066498Y-77505264D01*
X164917274Y-77567075D01*
X164847805Y-77574544D01*
X164822371Y-77567075D01*
X164733497Y-77530263D01*
X164733489Y-77530261D01*
X164578845Y-77499500D01*
X164578842Y-77499500D01*
X164421158Y-77499500D01*
X164421155Y-77499500D01*
X164266510Y-77530261D01*
X164266498Y-77530264D01*
X164120827Y-77590602D01*
X164120814Y-77590609D01*
X163989711Y-77678210D01*
X163989707Y-77678213D01*
X163878213Y-77789707D01*
X163878210Y-77789711D01*
X163790609Y-77920814D01*
X163790602Y-77920827D01*
X163730264Y-78066498D01*
X163730261Y-78066510D01*
X163699500Y-78221153D01*
X155642798Y-78221153D01*
X155621789Y-78189711D01*
X155621786Y-78189707D01*
X155510292Y-78078213D01*
X155510288Y-78078210D01*
X155379185Y-77990609D01*
X155379172Y-77990602D01*
X155233501Y-77930264D01*
X155233489Y-77930261D01*
X155078845Y-77899500D01*
X155078842Y-77899500D01*
X154921158Y-77899500D01*
X154921155Y-77899500D01*
X154766510Y-77930261D01*
X154766498Y-77930264D01*
X154620827Y-77990602D01*
X154620814Y-77990609D01*
X154489711Y-78078210D01*
X154489707Y-78078213D01*
X154378213Y-78189707D01*
X154378210Y-78189711D01*
X154290609Y-78320814D01*
X154290602Y-78320827D01*
X154230264Y-78466498D01*
X154230261Y-78466510D01*
X154199500Y-78621153D01*
X152000500Y-78621153D01*
X152000500Y-75921153D01*
X155399500Y-75921153D01*
X155399500Y-76078846D01*
X155430261Y-76233489D01*
X155430264Y-76233501D01*
X155490602Y-76379172D01*
X155490609Y-76379185D01*
X155578210Y-76510288D01*
X155578213Y-76510292D01*
X155689707Y-76621786D01*
X155689711Y-76621789D01*
X155820814Y-76709390D01*
X155820827Y-76709397D01*
X155962959Y-76768269D01*
X155966503Y-76769737D01*
X156113200Y-76798917D01*
X156121153Y-76800499D01*
X156121156Y-76800500D01*
X156121158Y-76800500D01*
X156278844Y-76800500D01*
X156278845Y-76800499D01*
X156433497Y-76769737D01*
X156579179Y-76709394D01*
X156710289Y-76621789D01*
X156821789Y-76510289D01*
X156909394Y-76379179D01*
X156969737Y-76233497D01*
X157000500Y-76078842D01*
X157000500Y-75980025D01*
X157995628Y-75980025D01*
X157995628Y-76137718D01*
X158026389Y-76292361D01*
X158026392Y-76292373D01*
X158086730Y-76438044D01*
X158086737Y-76438057D01*
X158174338Y-76569160D01*
X158174341Y-76569164D01*
X158285835Y-76680658D01*
X158285839Y-76680661D01*
X158416942Y-76768262D01*
X158416955Y-76768269D01*
X158562626Y-76828607D01*
X158562631Y-76828609D01*
X158717281Y-76859371D01*
X158717284Y-76859372D01*
X158717286Y-76859372D01*
X158874972Y-76859372D01*
X158874973Y-76859371D01*
X159029625Y-76828609D01*
X159171756Y-76769737D01*
X159175300Y-76768269D01*
X159175300Y-76768268D01*
X159175307Y-76768266D01*
X159306417Y-76680661D01*
X159417917Y-76569161D01*
X159505522Y-76438051D01*
X159565865Y-76292369D01*
X159581591Y-76213310D01*
X161499500Y-76213310D01*
X161499500Y-76371003D01*
X161530261Y-76525646D01*
X161530264Y-76525658D01*
X161590602Y-76671329D01*
X161590609Y-76671342D01*
X161678210Y-76802445D01*
X161678213Y-76802449D01*
X161789707Y-76913943D01*
X161789711Y-76913946D01*
X161920814Y-77001547D01*
X161920827Y-77001554D01*
X162066498Y-77061892D01*
X162066503Y-77061894D01*
X162221153Y-77092656D01*
X162221156Y-77092657D01*
X162221158Y-77092657D01*
X162378844Y-77092657D01*
X162378845Y-77092656D01*
X162533497Y-77061894D01*
X162679179Y-77001551D01*
X162810289Y-76913946D01*
X162921789Y-76802446D01*
X163009394Y-76671336D01*
X163069737Y-76525654D01*
X163100500Y-76370999D01*
X163100500Y-76213315D01*
X163100500Y-76213312D01*
X163100499Y-76213310D01*
X163083979Y-76130261D01*
X163069737Y-76058660D01*
X163069735Y-76058655D01*
X163054201Y-76021153D01*
X163999500Y-76021153D01*
X163999500Y-76178846D01*
X164030261Y-76333489D01*
X164030264Y-76333501D01*
X164090602Y-76479172D01*
X164090609Y-76479185D01*
X164178210Y-76610288D01*
X164178213Y-76610292D01*
X164289707Y-76721786D01*
X164289711Y-76721789D01*
X164420814Y-76809390D01*
X164420827Y-76809397D01*
X164541477Y-76859371D01*
X164566503Y-76869737D01*
X164721153Y-76900499D01*
X164721156Y-76900500D01*
X164721158Y-76900500D01*
X164878844Y-76900500D01*
X164878845Y-76900499D01*
X165033497Y-76869737D01*
X165179179Y-76809394D01*
X165310289Y-76721789D01*
X165421789Y-76610289D01*
X165509394Y-76479179D01*
X165513733Y-76468705D01*
X165538726Y-76408364D01*
X165569737Y-76333497D01*
X165600500Y-76178842D01*
X165600500Y-76021158D01*
X165600500Y-76021155D01*
X165600499Y-76021153D01*
X165595527Y-75996158D01*
X165595526Y-75996153D01*
X178249500Y-75996153D01*
X178249500Y-76153846D01*
X178280261Y-76308489D01*
X178280264Y-76308501D01*
X178340602Y-76454172D01*
X178340609Y-76454185D01*
X178428210Y-76585288D01*
X178428213Y-76585292D01*
X178539707Y-76696786D01*
X178539711Y-76696789D01*
X178670814Y-76784390D01*
X178670827Y-76784397D01*
X178816498Y-76844735D01*
X178816503Y-76844737D01*
X178942176Y-76869735D01*
X178971153Y-76875499D01*
X178971156Y-76875500D01*
X178971158Y-76875500D01*
X179128844Y-76875500D01*
X179128845Y-76875499D01*
X179283497Y-76844737D01*
X179429179Y-76784394D01*
X179560289Y-76696789D01*
X179671789Y-76585289D01*
X179759394Y-76454179D01*
X179819737Y-76308497D01*
X179850500Y-76153842D01*
X179850500Y-75996158D01*
X179850500Y-75996155D01*
X179850499Y-75996153D01*
X179847291Y-75980025D01*
X179819737Y-75841503D01*
X179813055Y-75825370D01*
X179759397Y-75695827D01*
X179759390Y-75695814D01*
X179671789Y-75564711D01*
X179671786Y-75564707D01*
X179560292Y-75453213D01*
X179560288Y-75453210D01*
X179429185Y-75365609D01*
X179429172Y-75365602D01*
X179283501Y-75305264D01*
X179283489Y-75305261D01*
X179128845Y-75274500D01*
X179128842Y-75274500D01*
X178971158Y-75274500D01*
X178971155Y-75274500D01*
X178816510Y-75305261D01*
X178816498Y-75305264D01*
X178670827Y-75365602D01*
X178670814Y-75365609D01*
X178539711Y-75453210D01*
X178539707Y-75453213D01*
X178428213Y-75564707D01*
X178428210Y-75564711D01*
X178340609Y-75695814D01*
X178340602Y-75695827D01*
X178280264Y-75841498D01*
X178280261Y-75841510D01*
X178249500Y-75996153D01*
X165595526Y-75996153D01*
X165569737Y-75866503D01*
X165552704Y-75825382D01*
X165509397Y-75720827D01*
X165509390Y-75720814D01*
X165421789Y-75589711D01*
X165421786Y-75589707D01*
X165310292Y-75478213D01*
X165310288Y-75478210D01*
X165179185Y-75390609D01*
X165179172Y-75390602D01*
X165033501Y-75330264D01*
X165033489Y-75330261D01*
X164878845Y-75299500D01*
X164878842Y-75299500D01*
X164721158Y-75299500D01*
X164721155Y-75299500D01*
X164566510Y-75330261D01*
X164566498Y-75330264D01*
X164420827Y-75390602D01*
X164420814Y-75390609D01*
X164289711Y-75478210D01*
X164289707Y-75478213D01*
X164178213Y-75589707D01*
X164178210Y-75589711D01*
X164090609Y-75720814D01*
X164090602Y-75720827D01*
X164030264Y-75866498D01*
X164030261Y-75866510D01*
X163999500Y-76021153D01*
X163054201Y-76021153D01*
X163009397Y-75912984D01*
X163009390Y-75912971D01*
X162921789Y-75781868D01*
X162921786Y-75781864D01*
X162810292Y-75670370D01*
X162810288Y-75670367D01*
X162679185Y-75582766D01*
X162679172Y-75582759D01*
X162533501Y-75522421D01*
X162533489Y-75522418D01*
X162378845Y-75491657D01*
X162378842Y-75491657D01*
X162221158Y-75491657D01*
X162221155Y-75491657D01*
X162066510Y-75522418D01*
X162066498Y-75522421D01*
X161920827Y-75582759D01*
X161920814Y-75582766D01*
X161789711Y-75670367D01*
X161789707Y-75670370D01*
X161678213Y-75781864D01*
X161678210Y-75781868D01*
X161590609Y-75912971D01*
X161590602Y-75912984D01*
X161530264Y-76058655D01*
X161530261Y-76058667D01*
X161499500Y-76213310D01*
X159581591Y-76213310D01*
X159596628Y-76137714D01*
X159596628Y-76028069D01*
X159616313Y-75961030D01*
X159669117Y-75915275D01*
X159738275Y-75905331D01*
X159801831Y-75934356D01*
X159808309Y-75940388D01*
X159815442Y-75947521D01*
X159815446Y-75947524D01*
X159946549Y-76035125D01*
X159946562Y-76035132D01*
X160092233Y-76095470D01*
X160092238Y-76095472D01*
X160246888Y-76126234D01*
X160246891Y-76126235D01*
X160246893Y-76126235D01*
X160404579Y-76126235D01*
X160404580Y-76126234D01*
X160559232Y-76095472D01*
X160704914Y-76035129D01*
X160836024Y-75947524D01*
X160947524Y-75836024D01*
X161035129Y-75704914D01*
X161095472Y-75559232D01*
X161126235Y-75404577D01*
X161126235Y-75246893D01*
X161126235Y-75246890D01*
X161126234Y-75246888D01*
X161095473Y-75092245D01*
X161095472Y-75092238D01*
X161063693Y-75015516D01*
X167305137Y-75015516D01*
X167305137Y-75173209D01*
X167335898Y-75327852D01*
X167335901Y-75327864D01*
X167396239Y-75473535D01*
X167396246Y-75473548D01*
X167483847Y-75604651D01*
X167483850Y-75604655D01*
X167595344Y-75716149D01*
X167595348Y-75716152D01*
X167726451Y-75803753D01*
X167726464Y-75803760D01*
X167817602Y-75841510D01*
X167872140Y-75864100D01*
X168026790Y-75894862D01*
X168026793Y-75894863D01*
X168026795Y-75894863D01*
X168184481Y-75894863D01*
X168184482Y-75894862D01*
X168339134Y-75864100D01*
X168484816Y-75803757D01*
X168615926Y-75716152D01*
X168727426Y-75604652D01*
X168815031Y-75473542D01*
X168823452Y-75453213D01*
X168849384Y-75390606D01*
X168875374Y-75327860D01*
X168906137Y-75173205D01*
X168906137Y-75015521D01*
X168906137Y-75015518D01*
X168906136Y-75015516D01*
X168892419Y-74946556D01*
X168875374Y-74860866D01*
X168817766Y-74721786D01*
X168815034Y-74715190D01*
X168815027Y-74715177D01*
X168727426Y-74584074D01*
X168727423Y-74584070D01*
X168615929Y-74472576D01*
X168615925Y-74472573D01*
X168484822Y-74384972D01*
X168484809Y-74384965D01*
X168339138Y-74324627D01*
X168339126Y-74324624D01*
X168184482Y-74293863D01*
X168184479Y-74293863D01*
X168026795Y-74293863D01*
X168026792Y-74293863D01*
X167872147Y-74324624D01*
X167872135Y-74324627D01*
X167726464Y-74384965D01*
X167726451Y-74384972D01*
X167595348Y-74472573D01*
X167595344Y-74472576D01*
X167483850Y-74584070D01*
X167483847Y-74584074D01*
X167396246Y-74715177D01*
X167396239Y-74715190D01*
X167335901Y-74860861D01*
X167335898Y-74860873D01*
X167305137Y-75015516D01*
X161063693Y-75015516D01*
X161035132Y-74946562D01*
X161035125Y-74946549D01*
X160947524Y-74815446D01*
X160947521Y-74815442D01*
X160836027Y-74703948D01*
X160836023Y-74703945D01*
X160704920Y-74616344D01*
X160704907Y-74616337D01*
X160559236Y-74555999D01*
X160559224Y-74555996D01*
X160404580Y-74525235D01*
X160404577Y-74525235D01*
X160246893Y-74525235D01*
X160246890Y-74525235D01*
X160092245Y-74555996D01*
X160092233Y-74555999D01*
X159946562Y-74616337D01*
X159946549Y-74616344D01*
X159815446Y-74703945D01*
X159815442Y-74703948D01*
X159703948Y-74815442D01*
X159703945Y-74815446D01*
X159616344Y-74946549D01*
X159616337Y-74946562D01*
X159555999Y-75092233D01*
X159555996Y-75092245D01*
X159525235Y-75246888D01*
X159525235Y-75356538D01*
X159505550Y-75423577D01*
X159452746Y-75469332D01*
X159383588Y-75479276D01*
X159320032Y-75450251D01*
X159313554Y-75444219D01*
X159306420Y-75437085D01*
X159306416Y-75437082D01*
X159175313Y-75349481D01*
X159175300Y-75349474D01*
X159029629Y-75289136D01*
X159029617Y-75289133D01*
X158874973Y-75258372D01*
X158874970Y-75258372D01*
X158717286Y-75258372D01*
X158717283Y-75258372D01*
X158562638Y-75289133D01*
X158562626Y-75289136D01*
X158416955Y-75349474D01*
X158416942Y-75349481D01*
X158285839Y-75437082D01*
X158285835Y-75437085D01*
X158174341Y-75548579D01*
X158174338Y-75548583D01*
X158086737Y-75679686D01*
X158086730Y-75679699D01*
X158026392Y-75825370D01*
X158026389Y-75825382D01*
X157995628Y-75980025D01*
X157000500Y-75980025D01*
X157000500Y-75921158D01*
X157000500Y-75921155D01*
X157000499Y-75921153D01*
X156997352Y-75905331D01*
X156969737Y-75766503D01*
X156944226Y-75704914D01*
X156909397Y-75620827D01*
X156909390Y-75620814D01*
X156821789Y-75489711D01*
X156821786Y-75489707D01*
X156710292Y-75378213D01*
X156710288Y-75378210D01*
X156579185Y-75290609D01*
X156579172Y-75290602D01*
X156433501Y-75230264D01*
X156433489Y-75230261D01*
X156278845Y-75199500D01*
X156278842Y-75199500D01*
X156121158Y-75199500D01*
X156121155Y-75199500D01*
X155966510Y-75230261D01*
X155966498Y-75230264D01*
X155820827Y-75290602D01*
X155820814Y-75290609D01*
X155689711Y-75378210D01*
X155689707Y-75378213D01*
X155578213Y-75489707D01*
X155578210Y-75489711D01*
X155490609Y-75620814D01*
X155490602Y-75620827D01*
X155430264Y-75766498D01*
X155430261Y-75766510D01*
X155399500Y-75921153D01*
X152000500Y-75921153D01*
X152000500Y-73421153D01*
X158849500Y-73421153D01*
X158849500Y-73578846D01*
X158880261Y-73733489D01*
X158880264Y-73733501D01*
X158940602Y-73879172D01*
X158940609Y-73879185D01*
X159028210Y-74010288D01*
X159028213Y-74010292D01*
X159139707Y-74121786D01*
X159139711Y-74121789D01*
X159270814Y-74209390D01*
X159270827Y-74209397D01*
X159416498Y-74269735D01*
X159416503Y-74269737D01*
X159537792Y-74293863D01*
X159571153Y-74300499D01*
X159571156Y-74300500D01*
X159571158Y-74300500D01*
X159728844Y-74300500D01*
X159728845Y-74300499D01*
X159883497Y-74269737D01*
X160029179Y-74209394D01*
X160160289Y-74121789D01*
X160260925Y-74021153D01*
X171399500Y-74021153D01*
X171399500Y-74178846D01*
X171430261Y-74333489D01*
X171430264Y-74333501D01*
X171490602Y-74479172D01*
X171490609Y-74479185D01*
X171578210Y-74610288D01*
X171578213Y-74610292D01*
X171689707Y-74721786D01*
X171689711Y-74721789D01*
X171820814Y-74809390D01*
X171820827Y-74809397D01*
X171945074Y-74860861D01*
X171966503Y-74869737D01*
X172121153Y-74900499D01*
X172121156Y-74900500D01*
X172121158Y-74900500D01*
X172278844Y-74900500D01*
X172278845Y-74900499D01*
X172433497Y-74869737D01*
X172579179Y-74809394D01*
X172710289Y-74721789D01*
X172821789Y-74610289D01*
X172909394Y-74479179D01*
X172969737Y-74333497D01*
X173000500Y-74178842D01*
X173000500Y-74021158D01*
X173000500Y-74021155D01*
X173000499Y-74021153D01*
X172973474Y-73885292D01*
X172969737Y-73866503D01*
X172923214Y-73754185D01*
X172909397Y-73720827D01*
X172909390Y-73720814D01*
X172821789Y-73589711D01*
X172821786Y-73589707D01*
X172710292Y-73478213D01*
X172710288Y-73478210D01*
X172583014Y-73393168D01*
X172583013Y-73393167D01*
X172579186Y-73390610D01*
X172579172Y-73390602D01*
X172433501Y-73330264D01*
X172433489Y-73330261D01*
X172278845Y-73299500D01*
X172278842Y-73299500D01*
X172121158Y-73299500D01*
X172121155Y-73299500D01*
X171966510Y-73330261D01*
X171966498Y-73330264D01*
X171820827Y-73390602D01*
X171820814Y-73390609D01*
X171689711Y-73478210D01*
X171689707Y-73478213D01*
X171578213Y-73589707D01*
X171578210Y-73589711D01*
X171490609Y-73720814D01*
X171490602Y-73720827D01*
X171430264Y-73866498D01*
X171430261Y-73866510D01*
X171399500Y-74021153D01*
X160260925Y-74021153D01*
X160271789Y-74010289D01*
X160359394Y-73879179D01*
X160419737Y-73733497D01*
X160450500Y-73578842D01*
X160450500Y-73421158D01*
X160450500Y-73421155D01*
X160450499Y-73421153D01*
X160432419Y-73330261D01*
X160425635Y-73296153D01*
X179149500Y-73296153D01*
X179149500Y-73453846D01*
X179180261Y-73608489D01*
X179180264Y-73608501D01*
X179240602Y-73754172D01*
X179240609Y-73754185D01*
X179328210Y-73885288D01*
X179328213Y-73885292D01*
X179439707Y-73996786D01*
X179439711Y-73996789D01*
X179570814Y-74084390D01*
X179570827Y-74084397D01*
X179661101Y-74121789D01*
X179716503Y-74144737D01*
X179871153Y-74175499D01*
X179871156Y-74175500D01*
X179871158Y-74175500D01*
X180028844Y-74175500D01*
X180028845Y-74175499D01*
X180183497Y-74144737D01*
X180329179Y-74084394D01*
X180460289Y-73996789D01*
X180571789Y-73885289D01*
X180659394Y-73754179D01*
X180719737Y-73608497D01*
X180750500Y-73453842D01*
X180750500Y-73296158D01*
X180750500Y-73296155D01*
X180750499Y-73296153D01*
X180719738Y-73141510D01*
X180719737Y-73141503D01*
X180711170Y-73120821D01*
X180659397Y-72995827D01*
X180659390Y-72995814D01*
X180571789Y-72864711D01*
X180571786Y-72864707D01*
X180460292Y-72753213D01*
X180460288Y-72753210D01*
X180329185Y-72665609D01*
X180329172Y-72665602D01*
X180183501Y-72605264D01*
X180183489Y-72605261D01*
X180028845Y-72574500D01*
X180028842Y-72574500D01*
X179871158Y-72574500D01*
X179871155Y-72574500D01*
X179716510Y-72605261D01*
X179716498Y-72605264D01*
X179570827Y-72665602D01*
X179570814Y-72665609D01*
X179439711Y-72753210D01*
X179439707Y-72753213D01*
X179328213Y-72864707D01*
X179328210Y-72864711D01*
X179240609Y-72995814D01*
X179240602Y-72995827D01*
X179180264Y-73141498D01*
X179180261Y-73141510D01*
X179149500Y-73296153D01*
X160425635Y-73296153D01*
X160419737Y-73266503D01*
X160367959Y-73141498D01*
X160359397Y-73120827D01*
X160359390Y-73120814D01*
X160271789Y-72989711D01*
X160271786Y-72989707D01*
X160160292Y-72878213D01*
X160160288Y-72878210D01*
X160029185Y-72790609D01*
X160029172Y-72790602D01*
X159883501Y-72730264D01*
X159883489Y-72730261D01*
X159728845Y-72699500D01*
X159728842Y-72699500D01*
X159571158Y-72699500D01*
X159571155Y-72699500D01*
X159416510Y-72730261D01*
X159416498Y-72730264D01*
X159270827Y-72790602D01*
X159270814Y-72790609D01*
X159139711Y-72878210D01*
X159139707Y-72878213D01*
X159028213Y-72989707D01*
X159028210Y-72989711D01*
X158940609Y-73120814D01*
X158940602Y-73120827D01*
X158880264Y-73266498D01*
X158880261Y-73266510D01*
X158849500Y-73421153D01*
X152000500Y-73421153D01*
X152000500Y-70121153D01*
X155599500Y-70121153D01*
X155599500Y-70278846D01*
X155630261Y-70433489D01*
X155630264Y-70433501D01*
X155690602Y-70579172D01*
X155690609Y-70579185D01*
X155778210Y-70710288D01*
X155778213Y-70710292D01*
X155889707Y-70821786D01*
X155889711Y-70821789D01*
X156020814Y-70909390D01*
X156020827Y-70909397D01*
X156166498Y-70969735D01*
X156166503Y-70969737D01*
X156321153Y-71000499D01*
X156321156Y-71000500D01*
X156321158Y-71000500D01*
X156478844Y-71000500D01*
X156478845Y-71000499D01*
X156633497Y-70969737D01*
X156779179Y-70909394D01*
X156910289Y-70821789D01*
X157021789Y-70710289D01*
X157109394Y-70579179D01*
X157109395Y-70579176D01*
X157109397Y-70579173D01*
X157112719Y-70571153D01*
X157574500Y-70571153D01*
X157574500Y-70728846D01*
X157605261Y-70883489D01*
X157605264Y-70883501D01*
X157665602Y-71029172D01*
X157665609Y-71029185D01*
X157753210Y-71160288D01*
X157753213Y-71160292D01*
X157864707Y-71271786D01*
X157864711Y-71271789D01*
X157995814Y-71359390D01*
X157995827Y-71359397D01*
X158141498Y-71419735D01*
X158141503Y-71419737D01*
X158251526Y-71441622D01*
X158296153Y-71450499D01*
X158296156Y-71450500D01*
X158296158Y-71450500D01*
X158453844Y-71450500D01*
X158453845Y-71450499D01*
X158608497Y-71419737D01*
X158752011Y-71360292D01*
X158754172Y-71359397D01*
X158754172Y-71359396D01*
X158754179Y-71359394D01*
X158885289Y-71271789D01*
X158996789Y-71160289D01*
X159084394Y-71029179D01*
X159144737Y-70883497D01*
X159175500Y-70728842D01*
X159175500Y-70571158D01*
X159175500Y-70571155D01*
X159175499Y-70571153D01*
X159149264Y-70439257D01*
X159145662Y-70421153D01*
X159799500Y-70421153D01*
X159799500Y-70578846D01*
X159830261Y-70733489D01*
X159830264Y-70733501D01*
X159890602Y-70879172D01*
X159890609Y-70879185D01*
X159978210Y-71010288D01*
X159978213Y-71010292D01*
X160089707Y-71121786D01*
X160089711Y-71121789D01*
X160220814Y-71209390D01*
X160220827Y-71209397D01*
X160366498Y-71269735D01*
X160366503Y-71269737D01*
X160521153Y-71300499D01*
X160521156Y-71300500D01*
X160521158Y-71300500D01*
X160678844Y-71300500D01*
X160678845Y-71300499D01*
X160833497Y-71269737D01*
X160979179Y-71209394D01*
X161110289Y-71121789D01*
X161221789Y-71010289D01*
X161309394Y-70879179D01*
X161369737Y-70733497D01*
X161372192Y-70721153D01*
X172739500Y-70721153D01*
X172739500Y-70878846D01*
X172770261Y-71033489D01*
X172770264Y-71033501D01*
X172830602Y-71179172D01*
X172830609Y-71179185D01*
X172918210Y-71310288D01*
X172918213Y-71310292D01*
X173029707Y-71421786D01*
X173029711Y-71421789D01*
X173160814Y-71509390D01*
X173160827Y-71509397D01*
X173306498Y-71569735D01*
X173306503Y-71569737D01*
X173461153Y-71600499D01*
X173461156Y-71600500D01*
X173461158Y-71600500D01*
X173618844Y-71600500D01*
X173618845Y-71600499D01*
X173773497Y-71569737D01*
X173919179Y-71509394D01*
X173989360Y-71462499D01*
X174056036Y-71441622D01*
X174105701Y-71451040D01*
X174185605Y-71484138D01*
X174312555Y-71509390D01*
X174340255Y-71514900D01*
X174340258Y-71514901D01*
X174340260Y-71514901D01*
X174497946Y-71514901D01*
X174497947Y-71514900D01*
X174652599Y-71484138D01*
X174765268Y-71437468D01*
X174798274Y-71423798D01*
X174798274Y-71423797D01*
X174798281Y-71423795D01*
X174929391Y-71336190D01*
X175040891Y-71224690D01*
X175040893Y-71224686D01*
X175042027Y-71223553D01*
X175103350Y-71190068D01*
X175173042Y-71195052D01*
X175228976Y-71236923D01*
X175232811Y-71242344D01*
X175278207Y-71310284D01*
X175278213Y-71310292D01*
X175389707Y-71421786D01*
X175389711Y-71421789D01*
X175520814Y-71509390D01*
X175520827Y-71509397D01*
X175666498Y-71569735D01*
X175666503Y-71569737D01*
X175821153Y-71600499D01*
X175821156Y-71600500D01*
X175821158Y-71600500D01*
X175978844Y-71600500D01*
X175978845Y-71600499D01*
X176133497Y-71569737D01*
X176279179Y-71509394D01*
X176410289Y-71421789D01*
X176518664Y-71313413D01*
X176579985Y-71279930D01*
X176649677Y-71284914D01*
X176705611Y-71326785D01*
X176709438Y-71332193D01*
X176720497Y-71348745D01*
X176728212Y-71360291D01*
X176839707Y-71471786D01*
X176839711Y-71471789D01*
X176970814Y-71559390D01*
X176970827Y-71559397D01*
X177070060Y-71600500D01*
X177116503Y-71619737D01*
X177271153Y-71650499D01*
X177271156Y-71650500D01*
X177271158Y-71650500D01*
X177428844Y-71650500D01*
X177428845Y-71650499D01*
X177583497Y-71619737D01*
X177729179Y-71559394D01*
X177860289Y-71471789D01*
X177971789Y-71360289D01*
X178059394Y-71229179D01*
X178119737Y-71083497D01*
X178150500Y-70928842D01*
X178150500Y-70771158D01*
X178150500Y-70771155D01*
X178150499Y-70771153D01*
X178119737Y-70616503D01*
X178119735Y-70616498D01*
X178094586Y-70555781D01*
X178077452Y-70514416D01*
X178416821Y-70514416D01*
X178416821Y-70672109D01*
X178447582Y-70826752D01*
X178447585Y-70826764D01*
X178507923Y-70972435D01*
X178507930Y-70972448D01*
X178595531Y-71103551D01*
X178595534Y-71103555D01*
X178707028Y-71215049D01*
X178707032Y-71215052D01*
X178838135Y-71302653D01*
X178838148Y-71302660D01*
X178977279Y-71360289D01*
X178983824Y-71363000D01*
X179138474Y-71393762D01*
X179138477Y-71393763D01*
X179138479Y-71393763D01*
X179296165Y-71393763D01*
X179296166Y-71393762D01*
X179450818Y-71363000D01*
X179596500Y-71302657D01*
X179727610Y-71215052D01*
X179839110Y-71103552D01*
X179926715Y-70972442D01*
X179927836Y-70969737D01*
X179965343Y-70879185D01*
X179987058Y-70826760D01*
X180017821Y-70672105D01*
X180017821Y-70514421D01*
X180017821Y-70514418D01*
X180017820Y-70514416D01*
X180009147Y-70470814D01*
X179987058Y-70359766D01*
X179972381Y-70324332D01*
X179926718Y-70214090D01*
X179926711Y-70214077D01*
X179839110Y-70082974D01*
X179839107Y-70082970D01*
X179727613Y-69971476D01*
X179727609Y-69971473D01*
X179596506Y-69883872D01*
X179596493Y-69883865D01*
X179450822Y-69823527D01*
X179450810Y-69823524D01*
X179296166Y-69792763D01*
X179296163Y-69792763D01*
X179138479Y-69792763D01*
X179138476Y-69792763D01*
X178983831Y-69823524D01*
X178983819Y-69823527D01*
X178838148Y-69883865D01*
X178838135Y-69883872D01*
X178707032Y-69971473D01*
X178707028Y-69971476D01*
X178595534Y-70082970D01*
X178595531Y-70082974D01*
X178507930Y-70214077D01*
X178507923Y-70214090D01*
X178447585Y-70359761D01*
X178447582Y-70359773D01*
X178416821Y-70514416D01*
X178077452Y-70514416D01*
X178059395Y-70470823D01*
X178059390Y-70470814D01*
X177971789Y-70339711D01*
X177971786Y-70339707D01*
X177860292Y-70228213D01*
X177860288Y-70228210D01*
X177729185Y-70140609D01*
X177729172Y-70140602D01*
X177583501Y-70080264D01*
X177583489Y-70080261D01*
X177428845Y-70049500D01*
X177428842Y-70049500D01*
X177271158Y-70049500D01*
X177271155Y-70049500D01*
X177116510Y-70080261D01*
X177116498Y-70080264D01*
X176970827Y-70140602D01*
X176970814Y-70140609D01*
X176839711Y-70228210D01*
X176731336Y-70336585D01*
X176670013Y-70370069D01*
X176600321Y-70365085D01*
X176544388Y-70323213D01*
X176540552Y-70317792D01*
X176521790Y-70289712D01*
X176521786Y-70289707D01*
X176410292Y-70178213D01*
X176410288Y-70178210D01*
X176279185Y-70090609D01*
X176279172Y-70090602D01*
X176133501Y-70030264D01*
X176133489Y-70030261D01*
X175978845Y-69999500D01*
X175978842Y-69999500D01*
X175821158Y-69999500D01*
X175821155Y-69999500D01*
X175666510Y-70030261D01*
X175666498Y-70030264D01*
X175520827Y-70090602D01*
X175520814Y-70090609D01*
X175389711Y-70178210D01*
X175277073Y-70290848D01*
X175215750Y-70324332D01*
X175146058Y-70319348D01*
X175090125Y-70277476D01*
X175086302Y-70272075D01*
X175040891Y-70204112D01*
X175040889Y-70204109D01*
X174929394Y-70092614D01*
X174929390Y-70092611D01*
X174798287Y-70005010D01*
X174798274Y-70005003D01*
X174652603Y-69944665D01*
X174652591Y-69944662D01*
X174497947Y-69913901D01*
X174497944Y-69913901D01*
X174340260Y-69913901D01*
X174340257Y-69913901D01*
X174185612Y-69944662D01*
X174185600Y-69944665D01*
X174039929Y-70005003D01*
X174039918Y-70005009D01*
X173969740Y-70051901D01*
X173903063Y-70072778D01*
X173853399Y-70063359D01*
X173773497Y-70030263D01*
X173773489Y-70030261D01*
X173618845Y-69999500D01*
X173618842Y-69999500D01*
X173461158Y-69999500D01*
X173461155Y-69999500D01*
X173306510Y-70030261D01*
X173306498Y-70030264D01*
X173160827Y-70090602D01*
X173160814Y-70090609D01*
X173029711Y-70178210D01*
X173029707Y-70178213D01*
X172918213Y-70289707D01*
X172918210Y-70289711D01*
X172830609Y-70420814D01*
X172830602Y-70420827D01*
X172770264Y-70566498D01*
X172770261Y-70566510D01*
X172739500Y-70721153D01*
X161372192Y-70721153D01*
X161400500Y-70578842D01*
X161400500Y-70421158D01*
X161400500Y-70421155D01*
X161400499Y-70421153D01*
X161381017Y-70323213D01*
X161369737Y-70266503D01*
X161333569Y-70179185D01*
X161309397Y-70120827D01*
X161309390Y-70120814D01*
X161221789Y-69989711D01*
X161221786Y-69989707D01*
X161110292Y-69878213D01*
X161110288Y-69878210D01*
X161020429Y-69818168D01*
X160979185Y-69790609D01*
X160979172Y-69790602D01*
X160833501Y-69730264D01*
X160833489Y-69730261D01*
X160787701Y-69721153D01*
X163599500Y-69721153D01*
X163599500Y-69878846D01*
X163630261Y-70033489D01*
X163630264Y-70033501D01*
X163690602Y-70179172D01*
X163690609Y-70179185D01*
X163778210Y-70310288D01*
X163778213Y-70310292D01*
X163889707Y-70421786D01*
X163889711Y-70421789D01*
X164020814Y-70509390D01*
X164020827Y-70509397D01*
X164132810Y-70555781D01*
X164166503Y-70569737D01*
X164321153Y-70600499D01*
X164321156Y-70600500D01*
X164321158Y-70600500D01*
X164478844Y-70600500D01*
X164478845Y-70600499D01*
X164489179Y-70598443D01*
X164514287Y-70593450D01*
X164514292Y-70593449D01*
X164599800Y-70576439D01*
X164633497Y-70569737D01*
X164759334Y-70517614D01*
X164779172Y-70509397D01*
X164779172Y-70509396D01*
X164779179Y-70509394D01*
X164910289Y-70421789D01*
X165021789Y-70310289D01*
X165109394Y-70179179D01*
X165169737Y-70033497D01*
X165200500Y-69878842D01*
X165200500Y-69721158D01*
X165200500Y-69721155D01*
X165200499Y-69721153D01*
X165172066Y-69578211D01*
X165169737Y-69566503D01*
X165138298Y-69490602D01*
X165109397Y-69420827D01*
X165109390Y-69420814D01*
X165021789Y-69289711D01*
X165021786Y-69289707D01*
X164910292Y-69178213D01*
X164910288Y-69178210D01*
X164779185Y-69090609D01*
X164779172Y-69090602D01*
X164633501Y-69030264D01*
X164633489Y-69030261D01*
X164478845Y-68999500D01*
X164478842Y-68999500D01*
X164321158Y-68999500D01*
X164321155Y-68999500D01*
X164166510Y-69030261D01*
X164166498Y-69030264D01*
X164020827Y-69090602D01*
X164020814Y-69090609D01*
X163889711Y-69178210D01*
X163889707Y-69178213D01*
X163778213Y-69289707D01*
X163778210Y-69289711D01*
X163690609Y-69420814D01*
X163690602Y-69420827D01*
X163630264Y-69566498D01*
X163630261Y-69566510D01*
X163599500Y-69721153D01*
X160787701Y-69721153D01*
X160678845Y-69699500D01*
X160678842Y-69699500D01*
X160521158Y-69699500D01*
X160521155Y-69699500D01*
X160366510Y-69730261D01*
X160366498Y-69730264D01*
X160220827Y-69790602D01*
X160220814Y-69790609D01*
X160089711Y-69878210D01*
X160089707Y-69878213D01*
X159978213Y-69989707D01*
X159978210Y-69989711D01*
X159890609Y-70120814D01*
X159890602Y-70120827D01*
X159830264Y-70266498D01*
X159830261Y-70266510D01*
X159799500Y-70421153D01*
X159145662Y-70421153D01*
X159144738Y-70416507D01*
X159144735Y-70416498D01*
X159084397Y-70270827D01*
X159084390Y-70270814D01*
X158996789Y-70139711D01*
X158996786Y-70139707D01*
X158885292Y-70028213D01*
X158885288Y-70028210D01*
X158754185Y-69940609D01*
X158754172Y-69940602D01*
X158608501Y-69880264D01*
X158608489Y-69880261D01*
X158453845Y-69849500D01*
X158453842Y-69849500D01*
X158296158Y-69849500D01*
X158296155Y-69849500D01*
X158141510Y-69880261D01*
X158141498Y-69880264D01*
X157995827Y-69940602D01*
X157995814Y-69940609D01*
X157864711Y-70028210D01*
X157864707Y-70028213D01*
X157753213Y-70139707D01*
X157753210Y-70139711D01*
X157665609Y-70270814D01*
X157665602Y-70270827D01*
X157605264Y-70416498D01*
X157605261Y-70416510D01*
X157574500Y-70571153D01*
X157112719Y-70571153D01*
X157134895Y-70517614D01*
X157134895Y-70517613D01*
X157136217Y-70514421D01*
X157169737Y-70433497D01*
X157200500Y-70278842D01*
X157200500Y-70121158D01*
X157200500Y-70121155D01*
X157200499Y-70121153D01*
X157192365Y-70080261D01*
X157169737Y-69966503D01*
X157169735Y-69966498D01*
X157109397Y-69820827D01*
X157109390Y-69820814D01*
X157021789Y-69689711D01*
X157021786Y-69689707D01*
X156910292Y-69578213D01*
X156910288Y-69578210D01*
X156779185Y-69490609D01*
X156779172Y-69490602D01*
X156633501Y-69430264D01*
X156633489Y-69430261D01*
X156478845Y-69399500D01*
X156478842Y-69399500D01*
X156321158Y-69399500D01*
X156321155Y-69399500D01*
X156166510Y-69430261D01*
X156166498Y-69430264D01*
X156020827Y-69490602D01*
X156020814Y-69490609D01*
X155889711Y-69578210D01*
X155889707Y-69578213D01*
X155778213Y-69689707D01*
X155778210Y-69689711D01*
X155690609Y-69820814D01*
X155690602Y-69820827D01*
X155630264Y-69966498D01*
X155630261Y-69966510D01*
X155599500Y-70121153D01*
X152000500Y-70121153D01*
X152000500Y-68721153D01*
X156899500Y-68721153D01*
X156899500Y-68878846D01*
X156930261Y-69033489D01*
X156930264Y-69033501D01*
X156990602Y-69179172D01*
X156990609Y-69179185D01*
X157078210Y-69310288D01*
X157078213Y-69310292D01*
X157189707Y-69421786D01*
X157189711Y-69421789D01*
X157320814Y-69509390D01*
X157320827Y-69509397D01*
X157458683Y-69566498D01*
X157466503Y-69569737D01*
X157621153Y-69600499D01*
X157621156Y-69600500D01*
X157621158Y-69600500D01*
X157778844Y-69600500D01*
X157778845Y-69600499D01*
X157933497Y-69569737D01*
X158079179Y-69509394D01*
X158210289Y-69421789D01*
X158321789Y-69310289D01*
X158409394Y-69179179D01*
X158469737Y-69033497D01*
X158500500Y-68878842D01*
X158500500Y-68721158D01*
X158500500Y-68721155D01*
X158500499Y-68721153D01*
X158469738Y-68566510D01*
X158469737Y-68566503D01*
X158464629Y-68554172D01*
X158409397Y-68420827D01*
X158409390Y-68420814D01*
X158321789Y-68289711D01*
X158321786Y-68289707D01*
X158210292Y-68178213D01*
X158210288Y-68178210D01*
X158079185Y-68090609D01*
X158079172Y-68090602D01*
X157933501Y-68030264D01*
X157933489Y-68030261D01*
X157778845Y-67999500D01*
X157778842Y-67999500D01*
X157621158Y-67999500D01*
X157621155Y-67999500D01*
X157466510Y-68030261D01*
X157466498Y-68030264D01*
X157320827Y-68090602D01*
X157320814Y-68090609D01*
X157189711Y-68178210D01*
X157189707Y-68178213D01*
X157078213Y-68289707D01*
X157078210Y-68289711D01*
X156990609Y-68420814D01*
X156990602Y-68420827D01*
X156930264Y-68566498D01*
X156930261Y-68566510D01*
X156899500Y-68721153D01*
X152000500Y-68721153D01*
X152000500Y-64721153D01*
X174899500Y-64721153D01*
X174899500Y-64878846D01*
X174930261Y-65033489D01*
X174930264Y-65033501D01*
X174990602Y-65179172D01*
X174990609Y-65179185D01*
X175078210Y-65310288D01*
X175078213Y-65310292D01*
X175189707Y-65421786D01*
X175189711Y-65421789D01*
X175320814Y-65509390D01*
X175320827Y-65509397D01*
X175466498Y-65569735D01*
X175466503Y-65569737D01*
X175621153Y-65600499D01*
X175621156Y-65600500D01*
X175621158Y-65600500D01*
X175778844Y-65600500D01*
X175778845Y-65600499D01*
X175933497Y-65569737D01*
X176079179Y-65509394D01*
X176210289Y-65421789D01*
X176321789Y-65310289D01*
X176409394Y-65179179D01*
X176469737Y-65033497D01*
X176500500Y-64878842D01*
X176500500Y-64721158D01*
X176500500Y-64721155D01*
X176500499Y-64721153D01*
X176469738Y-64566510D01*
X176469737Y-64566503D01*
X176409794Y-64421786D01*
X176409397Y-64420827D01*
X176409390Y-64420814D01*
X176321789Y-64289711D01*
X176321786Y-64289707D01*
X176210292Y-64178213D01*
X176210288Y-64178210D01*
X176079185Y-64090609D01*
X176079172Y-64090602D01*
X175933501Y-64030264D01*
X175933489Y-64030261D01*
X175778845Y-63999500D01*
X175778842Y-63999500D01*
X175621158Y-63999500D01*
X175621155Y-63999500D01*
X175466510Y-64030261D01*
X175466498Y-64030264D01*
X175320827Y-64090602D01*
X175320814Y-64090609D01*
X175189711Y-64178210D01*
X175189707Y-64178213D01*
X175078213Y-64289707D01*
X175078210Y-64289711D01*
X174990609Y-64420814D01*
X174990602Y-64420827D01*
X174930264Y-64566498D01*
X174930261Y-64566510D01*
X174899500Y-64721153D01*
X152000500Y-64721153D01*
X152000500Y-64303439D01*
X152020185Y-64236400D01*
X152072989Y-64190645D01*
X152142147Y-64180701D01*
X152205703Y-64209726D01*
X152227602Y-64234548D01*
X152278210Y-64310288D01*
X152278213Y-64310292D01*
X152389707Y-64421786D01*
X152389711Y-64421789D01*
X152520814Y-64509390D01*
X152520827Y-64509397D01*
X152658683Y-64566498D01*
X152666503Y-64569737D01*
X152821153Y-64600499D01*
X152821156Y-64600500D01*
X152821158Y-64600500D01*
X152978844Y-64600500D01*
X152978845Y-64600499D01*
X152989179Y-64598443D01*
X153014287Y-64593450D01*
X153014292Y-64593449D01*
X153099800Y-64576439D01*
X153133497Y-64569737D01*
X153279179Y-64509394D01*
X153410289Y-64421789D01*
X153521789Y-64310289D01*
X153609394Y-64179179D01*
X153669737Y-64033497D01*
X153700500Y-63878842D01*
X153700500Y-63721158D01*
X153700500Y-63721155D01*
X153700499Y-63721153D01*
X153678447Y-63610292D01*
X153669737Y-63566503D01*
X153669735Y-63566498D01*
X153609397Y-63420827D01*
X153609390Y-63420814D01*
X153521789Y-63289711D01*
X153521786Y-63289707D01*
X153410292Y-63178213D01*
X153410288Y-63178210D01*
X153362312Y-63146153D01*
X162099500Y-63146153D01*
X162099500Y-63303846D01*
X162130261Y-63458489D01*
X162130264Y-63458501D01*
X162190602Y-63604172D01*
X162190609Y-63604185D01*
X162278210Y-63735288D01*
X162278213Y-63735292D01*
X162389707Y-63846786D01*
X162389711Y-63846789D01*
X162520814Y-63934390D01*
X162520827Y-63934397D01*
X162620060Y-63975500D01*
X162666503Y-63994737D01*
X162821153Y-64025499D01*
X162821156Y-64025500D01*
X162821158Y-64025500D01*
X162978844Y-64025500D01*
X162978845Y-64025499D01*
X163133497Y-63994737D01*
X163279179Y-63934394D01*
X163410289Y-63846789D01*
X163440170Y-63816907D01*
X163501491Y-63783423D01*
X163571183Y-63788407D01*
X163596742Y-63801487D01*
X163720814Y-63884390D01*
X163720827Y-63884397D01*
X163866498Y-63944735D01*
X163866503Y-63944737D01*
X164021153Y-63975499D01*
X164021156Y-63975500D01*
X164021158Y-63975500D01*
X164178844Y-63975500D01*
X164178845Y-63975499D01*
X164333497Y-63944737D01*
X164479179Y-63884394D01*
X164610289Y-63796789D01*
X164615097Y-63791981D01*
X164676418Y-63758492D01*
X164746110Y-63763473D01*
X164771670Y-63776552D01*
X164820821Y-63809394D01*
X164820823Y-63809395D01*
X164820827Y-63809397D01*
X164966498Y-63869735D01*
X164966503Y-63869737D01*
X165121153Y-63900499D01*
X165121156Y-63900500D01*
X165121158Y-63900500D01*
X165278844Y-63900500D01*
X165278845Y-63900499D01*
X165433497Y-63869737D01*
X165579179Y-63809394D01*
X165710289Y-63721789D01*
X165821789Y-63610289D01*
X165909394Y-63479179D01*
X165969737Y-63333497D01*
X165987111Y-63246153D01*
X170174500Y-63246153D01*
X170174500Y-63403846D01*
X170205261Y-63558489D01*
X170205264Y-63558501D01*
X170265602Y-63704172D01*
X170265609Y-63704185D01*
X170353210Y-63835288D01*
X170353213Y-63835292D01*
X170464707Y-63946786D01*
X170464711Y-63946789D01*
X170595814Y-64034390D01*
X170595827Y-64034397D01*
X170731520Y-64090602D01*
X170741503Y-64094737D01*
X170896153Y-64125499D01*
X170896156Y-64125500D01*
X170896158Y-64125500D01*
X171053844Y-64125500D01*
X171053845Y-64125499D01*
X171208497Y-64094737D01*
X171354179Y-64034394D01*
X171485289Y-63946789D01*
X171596789Y-63835289D01*
X171684394Y-63704179D01*
X171744737Y-63558497D01*
X171775500Y-63403842D01*
X171775500Y-63246158D01*
X171775500Y-63246155D01*
X171775499Y-63246153D01*
X171761984Y-63178210D01*
X171744737Y-63091503D01*
X171744367Y-63090609D01*
X171694993Y-62971409D01*
X171687524Y-62901940D01*
X171718799Y-62839461D01*
X171778888Y-62803809D01*
X171815066Y-62801059D01*
X171815066Y-62800500D01*
X171978844Y-62800500D01*
X171978845Y-62800499D01*
X172133497Y-62769737D01*
X172251592Y-62720821D01*
X172279172Y-62709397D01*
X172279172Y-62709396D01*
X172279179Y-62709394D01*
X172410289Y-62621789D01*
X172521789Y-62510289D01*
X172609394Y-62379179D01*
X172669737Y-62233497D01*
X172700500Y-62078842D01*
X172700500Y-61921158D01*
X172700500Y-61921155D01*
X172700499Y-61921153D01*
X172679325Y-61814707D01*
X172669737Y-61766503D01*
X172662676Y-61749456D01*
X172609397Y-61620827D01*
X172609390Y-61620814D01*
X172521789Y-61489711D01*
X172521786Y-61489707D01*
X172410292Y-61378213D01*
X172410288Y-61378210D01*
X172279185Y-61290609D01*
X172279172Y-61290602D01*
X172133501Y-61230264D01*
X172133489Y-61230261D01*
X171978845Y-61199500D01*
X171978842Y-61199500D01*
X171821158Y-61199500D01*
X171821155Y-61199500D01*
X171666510Y-61230261D01*
X171666498Y-61230264D01*
X171520827Y-61290602D01*
X171520814Y-61290609D01*
X171389711Y-61378210D01*
X171389707Y-61378213D01*
X171278213Y-61489707D01*
X171278210Y-61489711D01*
X171190609Y-61620814D01*
X171190602Y-61620827D01*
X171130264Y-61766498D01*
X171130261Y-61766510D01*
X171099500Y-61921153D01*
X171099500Y-62078846D01*
X171130261Y-62233489D01*
X171130264Y-62233501D01*
X171180006Y-62353590D01*
X171187475Y-62423059D01*
X171156199Y-62485538D01*
X171096110Y-62521190D01*
X171059934Y-62523942D01*
X171059934Y-62524500D01*
X170896155Y-62524500D01*
X170741510Y-62555261D01*
X170741498Y-62555264D01*
X170595827Y-62615602D01*
X170595814Y-62615609D01*
X170464711Y-62703210D01*
X170464707Y-62703213D01*
X170353213Y-62814707D01*
X170353210Y-62814711D01*
X170265609Y-62945814D01*
X170265602Y-62945827D01*
X170205264Y-63091498D01*
X170205261Y-63091510D01*
X170174500Y-63246153D01*
X165987111Y-63246153D01*
X166000500Y-63178842D01*
X166000500Y-63021158D01*
X166000500Y-63021155D01*
X166000499Y-63021153D01*
X165985706Y-62946786D01*
X165969737Y-62866503D01*
X165961170Y-62845821D01*
X165909397Y-62720827D01*
X165909390Y-62720814D01*
X165821789Y-62589711D01*
X165821786Y-62589707D01*
X165710292Y-62478213D01*
X165710288Y-62478210D01*
X165579185Y-62390609D01*
X165579172Y-62390602D01*
X165433501Y-62330264D01*
X165433489Y-62330261D01*
X165278845Y-62299500D01*
X165278842Y-62299500D01*
X165121158Y-62299500D01*
X165121155Y-62299500D01*
X164966510Y-62330261D01*
X164966498Y-62330264D01*
X164820827Y-62390602D01*
X164820814Y-62390609D01*
X164689711Y-62478210D01*
X164689704Y-62478215D01*
X164684892Y-62483028D01*
X164623567Y-62516510D01*
X164553876Y-62511521D01*
X164528325Y-62498444D01*
X164479185Y-62465609D01*
X164479172Y-62465602D01*
X164333501Y-62405264D01*
X164333489Y-62405261D01*
X164178845Y-62374500D01*
X164178842Y-62374500D01*
X164021158Y-62374500D01*
X164021155Y-62374500D01*
X163866510Y-62405261D01*
X163866498Y-62405264D01*
X163720827Y-62465602D01*
X163720814Y-62465609D01*
X163589711Y-62553210D01*
X163559828Y-62583093D01*
X163498504Y-62616577D01*
X163428813Y-62611591D01*
X163403257Y-62598512D01*
X163279185Y-62515609D01*
X163279172Y-62515602D01*
X163133501Y-62455264D01*
X163133489Y-62455261D01*
X162978845Y-62424500D01*
X162978842Y-62424500D01*
X162821158Y-62424500D01*
X162821155Y-62424500D01*
X162666510Y-62455261D01*
X162666498Y-62455264D01*
X162520827Y-62515602D01*
X162520814Y-62515609D01*
X162389711Y-62603210D01*
X162389707Y-62603213D01*
X162278213Y-62714707D01*
X162278210Y-62714711D01*
X162190609Y-62845814D01*
X162190602Y-62845827D01*
X162130264Y-62991498D01*
X162130261Y-62991510D01*
X162099500Y-63146153D01*
X153362312Y-63146153D01*
X153279185Y-63090609D01*
X153279172Y-63090602D01*
X153133501Y-63030264D01*
X153133489Y-63030261D01*
X152978845Y-62999500D01*
X152978842Y-62999500D01*
X152821158Y-62999500D01*
X152821155Y-62999500D01*
X152666510Y-63030261D01*
X152666498Y-63030264D01*
X152520827Y-63090602D01*
X152520814Y-63090609D01*
X152389711Y-63178210D01*
X152389707Y-63178213D01*
X152278213Y-63289707D01*
X152278210Y-63289711D01*
X152227602Y-63365451D01*
X152173989Y-63410256D01*
X152104664Y-63418963D01*
X152041637Y-63388808D01*
X152004918Y-63329365D01*
X152000500Y-63296560D01*
X152000500Y-60421153D01*
X159399500Y-60421153D01*
X159399500Y-60578846D01*
X159430261Y-60733489D01*
X159430264Y-60733501D01*
X159490602Y-60879172D01*
X159490609Y-60879185D01*
X159578210Y-61010288D01*
X159578213Y-61010292D01*
X159689707Y-61121786D01*
X159689711Y-61121789D01*
X159820814Y-61209390D01*
X159820827Y-61209397D01*
X159966498Y-61269735D01*
X159966503Y-61269737D01*
X160121153Y-61300499D01*
X160121156Y-61300500D01*
X160121158Y-61300500D01*
X160278844Y-61300500D01*
X160278845Y-61300499D01*
X160433497Y-61269737D01*
X160579179Y-61209394D01*
X160710289Y-61121789D01*
X160821789Y-61010289D01*
X160844598Y-60976153D01*
X178044500Y-60976153D01*
X178044500Y-61133846D01*
X178075261Y-61288489D01*
X178075264Y-61288501D01*
X178135602Y-61434172D01*
X178135609Y-61434185D01*
X178223210Y-61565288D01*
X178223213Y-61565292D01*
X178334709Y-61676788D01*
X178335440Y-61677388D01*
X178335720Y-61677799D01*
X178339018Y-61681097D01*
X178338392Y-61681722D01*
X178374779Y-61735131D01*
X178376654Y-61804975D01*
X178359885Y-61842136D01*
X178290608Y-61945816D01*
X178290602Y-61945827D01*
X178230264Y-62091498D01*
X178230261Y-62091510D01*
X178199500Y-62246153D01*
X178199500Y-62403846D01*
X178230261Y-62558489D01*
X178230264Y-62558501D01*
X178290602Y-62704172D01*
X178290609Y-62704185D01*
X178378210Y-62835288D01*
X178378213Y-62835292D01*
X178489707Y-62946786D01*
X178489711Y-62946789D01*
X178620814Y-63034390D01*
X178620827Y-63034397D01*
X178756520Y-63090602D01*
X178766503Y-63094737D01*
X178921153Y-63125499D01*
X178921156Y-63125500D01*
X178921158Y-63125500D01*
X179078844Y-63125500D01*
X179078845Y-63125499D01*
X179233497Y-63094737D01*
X179379179Y-63034394D01*
X179510289Y-62946789D01*
X179621789Y-62835289D01*
X179709394Y-62704179D01*
X179769737Y-62558497D01*
X179800500Y-62403842D01*
X179800500Y-62246158D01*
X179800500Y-62246155D01*
X179800499Y-62246153D01*
X179769738Y-62091510D01*
X179769737Y-62091503D01*
X179764493Y-62078842D01*
X179709397Y-61945827D01*
X179709390Y-61945814D01*
X179621789Y-61814711D01*
X179621786Y-61814707D01*
X179510292Y-61703213D01*
X179509557Y-61702610D01*
X179509274Y-61702195D01*
X179505982Y-61698903D01*
X179506606Y-61698278D01*
X179470220Y-61644866D01*
X179468346Y-61575021D01*
X179485115Y-61537862D01*
X179554394Y-61434179D01*
X179614737Y-61288497D01*
X179645500Y-61133842D01*
X179645500Y-60976158D01*
X179645500Y-60976155D01*
X179645499Y-60976153D01*
X179630585Y-60901175D01*
X179614737Y-60821503D01*
X179578281Y-60733489D01*
X179554397Y-60675827D01*
X179554390Y-60675814D01*
X179466789Y-60544711D01*
X179466786Y-60544707D01*
X179368826Y-60446747D01*
X179335341Y-60385424D01*
X179340325Y-60315732D01*
X179382197Y-60259799D01*
X179409046Y-60244509D01*
X179554179Y-60184394D01*
X179685289Y-60096789D01*
X179796789Y-59985289D01*
X179884394Y-59854179D01*
X179944737Y-59708497D01*
X179975500Y-59553842D01*
X179975500Y-59396158D01*
X179975500Y-59396155D01*
X179975499Y-59396153D01*
X179944738Y-59241510D01*
X179944737Y-59241503D01*
X179917398Y-59175500D01*
X179884397Y-59095827D01*
X179884390Y-59095814D01*
X179796789Y-58964711D01*
X179796786Y-58964707D01*
X179685292Y-58853213D01*
X179685288Y-58853210D01*
X179554185Y-58765609D01*
X179554172Y-58765602D01*
X179408501Y-58705264D01*
X179408489Y-58705261D01*
X179253845Y-58674500D01*
X179253842Y-58674500D01*
X179096158Y-58674500D01*
X179096155Y-58674500D01*
X178941510Y-58705261D01*
X178941498Y-58705264D01*
X178795827Y-58765602D01*
X178795814Y-58765609D01*
X178664711Y-58853210D01*
X178664707Y-58853213D01*
X178553213Y-58964707D01*
X178553210Y-58964711D01*
X178465609Y-59095814D01*
X178465602Y-59095827D01*
X178405264Y-59241498D01*
X178405261Y-59241510D01*
X178374500Y-59396153D01*
X178374500Y-59553846D01*
X178405261Y-59708489D01*
X178405264Y-59708501D01*
X178465602Y-59854172D01*
X178465609Y-59854185D01*
X178553210Y-59985288D01*
X178553213Y-59985292D01*
X178651173Y-60083252D01*
X178684658Y-60144575D01*
X178679674Y-60214267D01*
X178637802Y-60270200D01*
X178610944Y-60285494D01*
X178465827Y-60345602D01*
X178465814Y-60345609D01*
X178334711Y-60433210D01*
X178334707Y-60433213D01*
X178223213Y-60544707D01*
X178223210Y-60544711D01*
X178135609Y-60675814D01*
X178135602Y-60675827D01*
X178075264Y-60821498D01*
X178075261Y-60821510D01*
X178044500Y-60976153D01*
X160844598Y-60976153D01*
X160909394Y-60879179D01*
X160969737Y-60733497D01*
X161000500Y-60578842D01*
X161000500Y-60421158D01*
X161000500Y-60421155D01*
X161000499Y-60421153D01*
X160985472Y-60345609D01*
X160969737Y-60266503D01*
X160960625Y-60244504D01*
X160909397Y-60120827D01*
X160909390Y-60120814D01*
X160821789Y-59989711D01*
X160821786Y-59989707D01*
X160710292Y-59878213D01*
X160710288Y-59878210D01*
X160579185Y-59790609D01*
X160579172Y-59790602D01*
X160433501Y-59730264D01*
X160433489Y-59730261D01*
X160278845Y-59699500D01*
X160278842Y-59699500D01*
X160121158Y-59699500D01*
X160121155Y-59699500D01*
X159966510Y-59730261D01*
X159966498Y-59730264D01*
X159820827Y-59790602D01*
X159820814Y-59790609D01*
X159689711Y-59878210D01*
X159689707Y-59878213D01*
X159578213Y-59989707D01*
X159578210Y-59989711D01*
X159490609Y-60120814D01*
X159490602Y-60120827D01*
X159430264Y-60266498D01*
X159430261Y-60266510D01*
X159399500Y-60421153D01*
X152000500Y-60421153D01*
X152000500Y-58321153D01*
X165524500Y-58321153D01*
X165524500Y-58478846D01*
X165555261Y-58633489D01*
X165555264Y-58633501D01*
X165615602Y-58779172D01*
X165615609Y-58779185D01*
X165703210Y-58910288D01*
X165703213Y-58910292D01*
X165814707Y-59021786D01*
X165814711Y-59021789D01*
X165945814Y-59109390D01*
X165945827Y-59109397D01*
X166091498Y-59169735D01*
X166091503Y-59169737D01*
X166246153Y-59200499D01*
X166246156Y-59200500D01*
X166246158Y-59200500D01*
X166403844Y-59200500D01*
X166403845Y-59200499D01*
X166558497Y-59169737D01*
X166704179Y-59109394D01*
X166835289Y-59021789D01*
X166874818Y-58982260D01*
X166936141Y-58948774D01*
X167005832Y-58953758D01*
X167050181Y-58982259D01*
X167064708Y-58996786D01*
X167064712Y-58996790D01*
X167195814Y-59084390D01*
X167195827Y-59084397D01*
X167341498Y-59144735D01*
X167341503Y-59144737D01*
X167467176Y-59169735D01*
X167496153Y-59175499D01*
X167496156Y-59175500D01*
X167496158Y-59175500D01*
X167653844Y-59175500D01*
X167653845Y-59175499D01*
X167808497Y-59144737D01*
X167926592Y-59095821D01*
X167954172Y-59084397D01*
X167954172Y-59084396D01*
X167954179Y-59084394D01*
X168085289Y-58996789D01*
X168196789Y-58885289D01*
X168239644Y-58821153D01*
X173199500Y-58821153D01*
X173199500Y-58978846D01*
X173230261Y-59133489D01*
X173230264Y-59133501D01*
X173290602Y-59279172D01*
X173290609Y-59279185D01*
X173378210Y-59410288D01*
X173378213Y-59410292D01*
X173489707Y-59521786D01*
X173489711Y-59521789D01*
X173620814Y-59609390D01*
X173620827Y-59609397D01*
X173766498Y-59669735D01*
X173766503Y-59669737D01*
X173916131Y-59699500D01*
X173921153Y-59700499D01*
X173921156Y-59700500D01*
X173921158Y-59700500D01*
X174078844Y-59700500D01*
X174078845Y-59700499D01*
X174233497Y-59669737D01*
X174379179Y-59609394D01*
X174510289Y-59521789D01*
X174621789Y-59410289D01*
X174709394Y-59279179D01*
X174769737Y-59133497D01*
X174800500Y-58978842D01*
X174800500Y-58821158D01*
X174800500Y-58821155D01*
X174800499Y-58821153D01*
X174792148Y-58779172D01*
X174769737Y-58666503D01*
X174709794Y-58521786D01*
X174709397Y-58520827D01*
X174709390Y-58520814D01*
X174621789Y-58389711D01*
X174621786Y-58389707D01*
X174510292Y-58278213D01*
X174510288Y-58278210D01*
X174379185Y-58190609D01*
X174379172Y-58190602D01*
X174233501Y-58130264D01*
X174233489Y-58130261D01*
X174078845Y-58099500D01*
X174078842Y-58099500D01*
X173921158Y-58099500D01*
X173921155Y-58099500D01*
X173766510Y-58130261D01*
X173766498Y-58130264D01*
X173620827Y-58190602D01*
X173620814Y-58190609D01*
X173489711Y-58278210D01*
X173489707Y-58278213D01*
X173378213Y-58389707D01*
X173378210Y-58389711D01*
X173290609Y-58520814D01*
X173290602Y-58520827D01*
X173230264Y-58666498D01*
X173230261Y-58666510D01*
X173199500Y-58821153D01*
X168239644Y-58821153D01*
X168276759Y-58765606D01*
X168283439Y-58755609D01*
X168286532Y-58753024D01*
X168287976Y-58749261D01*
X168313119Y-58730804D01*
X168337051Y-58710804D01*
X168341983Y-58709616D01*
X168344300Y-58707916D01*
X168361820Y-58704840D01*
X168378857Y-58700738D01*
X168382690Y-58700500D01*
X168478842Y-58700500D01*
X168633497Y-58669737D01*
X168779179Y-58609394D01*
X168910289Y-58521789D01*
X169021789Y-58410289D01*
X169109394Y-58279179D01*
X169169737Y-58133497D01*
X169200500Y-57978842D01*
X169200500Y-57821158D01*
X169200500Y-57821155D01*
X169200499Y-57821153D01*
X169174531Y-57690606D01*
X169169737Y-57666503D01*
X169169367Y-57665609D01*
X169109397Y-57520827D01*
X169109390Y-57520814D01*
X169021789Y-57389711D01*
X169021786Y-57389707D01*
X168910292Y-57278213D01*
X168910288Y-57278210D01*
X168824897Y-57221153D01*
X169499500Y-57221153D01*
X169499500Y-57378846D01*
X169530261Y-57533489D01*
X169530264Y-57533501D01*
X169590602Y-57679172D01*
X169590609Y-57679185D01*
X169678210Y-57810288D01*
X169678213Y-57810292D01*
X169789707Y-57921786D01*
X169789711Y-57921789D01*
X169920814Y-58009390D01*
X169920827Y-58009397D01*
X170066498Y-58069735D01*
X170066503Y-58069737D01*
X170216131Y-58099500D01*
X170221153Y-58100499D01*
X170221156Y-58100500D01*
X170221158Y-58100500D01*
X170378844Y-58100500D01*
X170378845Y-58100499D01*
X170533497Y-58069737D01*
X170651592Y-58020821D01*
X170679172Y-58009397D01*
X170679172Y-58009396D01*
X170679179Y-58009394D01*
X170810289Y-57921789D01*
X170921789Y-57810289D01*
X171009394Y-57679179D01*
X171069737Y-57533497D01*
X171100500Y-57378842D01*
X171100500Y-57221158D01*
X171100500Y-57221155D01*
X171100499Y-57221153D01*
X171093166Y-57184286D01*
X171069737Y-57066503D01*
X171039066Y-56992456D01*
X171009397Y-56920827D01*
X171009390Y-56920814D01*
X170921789Y-56789711D01*
X170921786Y-56789707D01*
X170810292Y-56678213D01*
X170810288Y-56678210D01*
X170679185Y-56590609D01*
X170679174Y-56590603D01*
X170533501Y-56530264D01*
X170533489Y-56530261D01*
X170378845Y-56499500D01*
X170378842Y-56499500D01*
X170221158Y-56499500D01*
X170221155Y-56499500D01*
X170066510Y-56530261D01*
X170066498Y-56530264D01*
X169920827Y-56590602D01*
X169920814Y-56590609D01*
X169789711Y-56678210D01*
X169789707Y-56678213D01*
X169678213Y-56789707D01*
X169678210Y-56789711D01*
X169590609Y-56920814D01*
X169590602Y-56920827D01*
X169530264Y-57066498D01*
X169530261Y-57066510D01*
X169499500Y-57221153D01*
X168824897Y-57221153D01*
X168779185Y-57190609D01*
X168779172Y-57190602D01*
X168633501Y-57130264D01*
X168633489Y-57130261D01*
X168478845Y-57099500D01*
X168478842Y-57099500D01*
X168321158Y-57099500D01*
X168321155Y-57099500D01*
X168166510Y-57130261D01*
X168166498Y-57130264D01*
X168020827Y-57190602D01*
X168020814Y-57190609D01*
X167889711Y-57278210D01*
X167889707Y-57278213D01*
X167778213Y-57389707D01*
X167778207Y-57389715D01*
X167691562Y-57519390D01*
X167637950Y-57564196D01*
X167588460Y-57574500D01*
X167496155Y-57574500D01*
X167341510Y-57605261D01*
X167341498Y-57605264D01*
X167195827Y-57665602D01*
X167195814Y-57665609D01*
X167064711Y-57753210D01*
X167064706Y-57753214D01*
X167025179Y-57792741D01*
X166963856Y-57826226D01*
X166894164Y-57821240D01*
X166849817Y-57792739D01*
X166835289Y-57778211D01*
X166835288Y-57778210D01*
X166835287Y-57778209D01*
X166704185Y-57690609D01*
X166704172Y-57690602D01*
X166558501Y-57630264D01*
X166558489Y-57630261D01*
X166403845Y-57599500D01*
X166403842Y-57599500D01*
X166246158Y-57599500D01*
X166246155Y-57599500D01*
X166091510Y-57630261D01*
X166091498Y-57630264D01*
X165945827Y-57690602D01*
X165945814Y-57690609D01*
X165814711Y-57778210D01*
X165814707Y-57778213D01*
X165703213Y-57889707D01*
X165703210Y-57889711D01*
X165615609Y-58020814D01*
X165615602Y-58020827D01*
X165555264Y-58166498D01*
X165555261Y-58166510D01*
X165524500Y-58321153D01*
X152000500Y-58321153D01*
X152000500Y-56621153D01*
X163099500Y-56621153D01*
X163099500Y-56778846D01*
X163130261Y-56933489D01*
X163130264Y-56933501D01*
X163190602Y-57079172D01*
X163190609Y-57079185D01*
X163278210Y-57210288D01*
X163278213Y-57210292D01*
X163389707Y-57321786D01*
X163389711Y-57321789D01*
X163520814Y-57409390D01*
X163520827Y-57409397D01*
X163661991Y-57467868D01*
X163666503Y-57469737D01*
X163821153Y-57500499D01*
X163821156Y-57500500D01*
X163821158Y-57500500D01*
X163978844Y-57500500D01*
X163978845Y-57500499D01*
X164133497Y-57469737D01*
X164279179Y-57409394D01*
X164410289Y-57321789D01*
X164521789Y-57210289D01*
X164609394Y-57079179D01*
X164669737Y-56933497D01*
X164700500Y-56778842D01*
X164700500Y-56621158D01*
X164700500Y-56621155D01*
X164700499Y-56621153D01*
X164682419Y-56530261D01*
X164673148Y-56483653D01*
X175299500Y-56483653D01*
X175299500Y-56641346D01*
X175330261Y-56795989D01*
X175330264Y-56796001D01*
X175390602Y-56941672D01*
X175390609Y-56941685D01*
X175478210Y-57072788D01*
X175478213Y-57072792D01*
X175589707Y-57184286D01*
X175589711Y-57184289D01*
X175720814Y-57271890D01*
X175720827Y-57271897D01*
X175840934Y-57321646D01*
X175866503Y-57332237D01*
X175970468Y-57352917D01*
X176021153Y-57362999D01*
X176021156Y-57363000D01*
X176021158Y-57363000D01*
X176178844Y-57363000D01*
X176178845Y-57362999D01*
X176333497Y-57332237D01*
X176341025Y-57329118D01*
X176410491Y-57321646D01*
X176472972Y-57352917D01*
X176508628Y-57413004D01*
X176510100Y-57467868D01*
X176499569Y-57520814D01*
X176499500Y-57521159D01*
X176499500Y-57678846D01*
X176530261Y-57833489D01*
X176530264Y-57833501D01*
X176590602Y-57979172D01*
X176590609Y-57979185D01*
X176678210Y-58110288D01*
X176678213Y-58110292D01*
X176789707Y-58221786D01*
X176789711Y-58221789D01*
X176920814Y-58309390D01*
X176920827Y-58309397D01*
X177066498Y-58369735D01*
X177066503Y-58369737D01*
X177221153Y-58400499D01*
X177221156Y-58400500D01*
X177221158Y-58400500D01*
X177378844Y-58400500D01*
X177378845Y-58400499D01*
X177533497Y-58369737D01*
X177679179Y-58309394D01*
X177810289Y-58221789D01*
X177921789Y-58110289D01*
X178009394Y-57979179D01*
X178069737Y-57833497D01*
X178100500Y-57678842D01*
X178100500Y-57521158D01*
X178100500Y-57521155D01*
X178100499Y-57521153D01*
X178089900Y-57467868D01*
X178069737Y-57366503D01*
X178051157Y-57321646D01*
X178009397Y-57220827D01*
X178009390Y-57220814D01*
X177921789Y-57089711D01*
X177921786Y-57089707D01*
X177810292Y-56978213D01*
X177810288Y-56978210D01*
X177679185Y-56890609D01*
X177679172Y-56890602D01*
X177533501Y-56830264D01*
X177533489Y-56830261D01*
X177378845Y-56799500D01*
X177378842Y-56799500D01*
X177221158Y-56799500D01*
X177221155Y-56799500D01*
X177066510Y-56830261D01*
X177066494Y-56830265D01*
X177058966Y-56833384D01*
X176989497Y-56840851D01*
X176927018Y-56809574D01*
X176891368Y-56749484D01*
X176889900Y-56694629D01*
X176900500Y-56641343D01*
X176900500Y-56483655D01*
X176900499Y-56483653D01*
X176869738Y-56329010D01*
X176869737Y-56329003D01*
X176869735Y-56328998D01*
X176809397Y-56183327D01*
X176809390Y-56183314D01*
X176721789Y-56052211D01*
X176721786Y-56052207D01*
X176610292Y-55940713D01*
X176610288Y-55940710D01*
X176479185Y-55853109D01*
X176479172Y-55853102D01*
X176333501Y-55792764D01*
X176333489Y-55792761D01*
X176178845Y-55762000D01*
X176178842Y-55762000D01*
X176021158Y-55762000D01*
X176021155Y-55762000D01*
X175866510Y-55792761D01*
X175866498Y-55792764D01*
X175720827Y-55853102D01*
X175720814Y-55853109D01*
X175589711Y-55940710D01*
X175589707Y-55940713D01*
X175478213Y-56052207D01*
X175478210Y-56052211D01*
X175390609Y-56183314D01*
X175390602Y-56183327D01*
X175330264Y-56328998D01*
X175330261Y-56329010D01*
X175299500Y-56483653D01*
X164673148Y-56483653D01*
X164669737Y-56466503D01*
X164612786Y-56329010D01*
X164609397Y-56320827D01*
X164609390Y-56320814D01*
X164521789Y-56189711D01*
X164521786Y-56189707D01*
X164410292Y-56078213D01*
X164410288Y-56078210D01*
X164279185Y-55990609D01*
X164279172Y-55990602D01*
X164133501Y-55930264D01*
X164133489Y-55930261D01*
X163978845Y-55899500D01*
X163978842Y-55899500D01*
X163821158Y-55899500D01*
X163821155Y-55899500D01*
X163666510Y-55930261D01*
X163666498Y-55930264D01*
X163520827Y-55990602D01*
X163520814Y-55990609D01*
X163389711Y-56078210D01*
X163389707Y-56078213D01*
X163278213Y-56189707D01*
X163278210Y-56189711D01*
X163190609Y-56320814D01*
X163190602Y-56320827D01*
X163130264Y-56466498D01*
X163130261Y-56466510D01*
X163099500Y-56621153D01*
X152000500Y-56621153D01*
X152000500Y-52824500D01*
X152020185Y-52757461D01*
X152072989Y-52711706D01*
X152124500Y-52700500D01*
X156162532Y-52700500D01*
X156162534Y-52700500D01*
X156334938Y-52670100D01*
X156499445Y-52610224D01*
X156651055Y-52522692D01*
X156773753Y-52419737D01*
X156785156Y-52410169D01*
X156785156Y-52410168D01*
X156785163Y-52410163D01*
X156816685Y-52372594D01*
X156874851Y-52333894D01*
X156944712Y-52332784D01*
X156980559Y-52349196D01*
X156995821Y-52359394D01*
X156995824Y-52359395D01*
X156995827Y-52359397D01*
X157141498Y-52419735D01*
X157141503Y-52419737D01*
X157206147Y-52432595D01*
X157296849Y-52450638D01*
X157313605Y-52459402D01*
X157332085Y-52463423D01*
X157357123Y-52482167D01*
X157358760Y-52483023D01*
X157360339Y-52484574D01*
X157459211Y-52583446D01*
X157492696Y-52644769D01*
X157487712Y-52714461D01*
X157445840Y-52770394D01*
X157380376Y-52794811D01*
X157347340Y-52792745D01*
X157266342Y-52776634D01*
X157108658Y-52776634D01*
X157108655Y-52776634D01*
X156954010Y-52807395D01*
X156953998Y-52807398D01*
X156808327Y-52867736D01*
X156808314Y-52867743D01*
X156677211Y-52955344D01*
X156677207Y-52955347D01*
X156565713Y-53066841D01*
X156565710Y-53066845D01*
X156478109Y-53197948D01*
X156478102Y-53197961D01*
X156417764Y-53343632D01*
X156417761Y-53343644D01*
X156387000Y-53498287D01*
X156387000Y-53655980D01*
X156417761Y-53810623D01*
X156417764Y-53810635D01*
X156478102Y-53956306D01*
X156478109Y-53956319D01*
X156565710Y-54087422D01*
X156565713Y-54087426D01*
X156677207Y-54198920D01*
X156677211Y-54198923D01*
X156808314Y-54286524D01*
X156808327Y-54286531D01*
X156953998Y-54346869D01*
X156954003Y-54346871D01*
X157108653Y-54377633D01*
X157108656Y-54377634D01*
X157108658Y-54377634D01*
X157266344Y-54377634D01*
X157266345Y-54377633D01*
X157420997Y-54346871D01*
X157566679Y-54286528D01*
X157697789Y-54198923D01*
X157809289Y-54087423D01*
X157896894Y-53956313D01*
X157957237Y-53810631D01*
X157988000Y-53655976D01*
X157988000Y-53498292D01*
X157988000Y-53498289D01*
X157971889Y-53417296D01*
X157974906Y-53383567D01*
X157977324Y-53349770D01*
X157978013Y-53348848D01*
X157978116Y-53347704D01*
X157998891Y-53320960D01*
X158019196Y-53293837D01*
X158020273Y-53293435D01*
X158020979Y-53292527D01*
X158052918Y-53281258D01*
X158084660Y-53269420D01*
X158085783Y-53269664D01*
X158086868Y-53269282D01*
X158119816Y-53277067D01*
X158152933Y-53284272D01*
X158154146Y-53285180D01*
X158154865Y-53285350D01*
X158181187Y-53305423D01*
X158208206Y-53332442D01*
X158240299Y-53388028D01*
X158265421Y-53481782D01*
X158265423Y-53481787D01*
X158278986Y-53505277D01*
X158278987Y-53505279D01*
X158344475Y-53618709D01*
X158344481Y-53618717D01*
X158463349Y-53737585D01*
X158463355Y-53737590D01*
X158584162Y-53858397D01*
X158617647Y-53919720D01*
X158612663Y-53989412D01*
X158584162Y-54033759D01*
X158528213Y-54089707D01*
X158528210Y-54089711D01*
X158440609Y-54220814D01*
X158440602Y-54220827D01*
X158380264Y-54366498D01*
X158380261Y-54366510D01*
X158349500Y-54521153D01*
X158349500Y-54678846D01*
X158380261Y-54833489D01*
X158380264Y-54833501D01*
X158440602Y-54979172D01*
X158440609Y-54979185D01*
X158528210Y-55110288D01*
X158528213Y-55110292D01*
X158639707Y-55221786D01*
X158639711Y-55221789D01*
X158770814Y-55309390D01*
X158770827Y-55309397D01*
X158916498Y-55369735D01*
X158916503Y-55369737D01*
X159071153Y-55400499D01*
X159071156Y-55400500D01*
X159071158Y-55400500D01*
X159228844Y-55400500D01*
X159228845Y-55400499D01*
X159383497Y-55369737D01*
X159529179Y-55309394D01*
X159660289Y-55221789D01*
X159771789Y-55110289D01*
X159859394Y-54979179D01*
X159919737Y-54833497D01*
X159931312Y-54775308D01*
X159946024Y-54747181D01*
X159959216Y-54718297D01*
X159962105Y-54716439D01*
X159963697Y-54713398D01*
X159991282Y-54697689D01*
X160017994Y-54680523D01*
X160022587Y-54679862D01*
X160024413Y-54678823D01*
X160052929Y-54675500D01*
X160088331Y-54675500D01*
X160088347Y-54675501D01*
X160095943Y-54675501D01*
X160254054Y-54675501D01*
X160254057Y-54675501D01*
X160406785Y-54634577D01*
X160456904Y-54605639D01*
X160543716Y-54555520D01*
X160655520Y-54443716D01*
X160655520Y-54443714D01*
X160665728Y-54433507D01*
X160665729Y-54433504D01*
X161264665Y-53834570D01*
X161325984Y-53801088D01*
X161328151Y-53800637D01*
X161328840Y-53800500D01*
X161328842Y-53800500D01*
X161483497Y-53769737D01*
X161629179Y-53709394D01*
X161760289Y-53621789D01*
X161871789Y-53510289D01*
X161959394Y-53379179D01*
X162019737Y-53233497D01*
X162023117Y-53216500D01*
X162055499Y-53154590D01*
X162116213Y-53120013D01*
X162185983Y-53123750D01*
X162242657Y-53164613D01*
X162259296Y-53193235D01*
X162315604Y-53329176D01*
X162315609Y-53329185D01*
X162403210Y-53460288D01*
X162403213Y-53460292D01*
X162514707Y-53571786D01*
X162514711Y-53571789D01*
X162645814Y-53659390D01*
X162645827Y-53659397D01*
X162791498Y-53719735D01*
X162791503Y-53719737D01*
X162946153Y-53750499D01*
X162946156Y-53750500D01*
X162946158Y-53750500D01*
X163103844Y-53750500D01*
X163103845Y-53750499D01*
X163258497Y-53719737D01*
X163404179Y-53659394D01*
X163535289Y-53571789D01*
X163646789Y-53460289D01*
X163734394Y-53329179D01*
X163794737Y-53183497D01*
X163825500Y-53028842D01*
X163825500Y-52871158D01*
X163825500Y-52871155D01*
X163825499Y-52871153D01*
X163817311Y-52829988D01*
X163794737Y-52716503D01*
X163791791Y-52709390D01*
X163734863Y-52571952D01*
X163727394Y-52502483D01*
X163758669Y-52440004D01*
X163818759Y-52404352D01*
X163849424Y-52400500D01*
X163878844Y-52400500D01*
X163878845Y-52400499D01*
X164033497Y-52369737D01*
X164177021Y-52310288D01*
X164179172Y-52309397D01*
X164179172Y-52309396D01*
X164179179Y-52309394D01*
X164310289Y-52221789D01*
X164368664Y-52163413D01*
X164429985Y-52129930D01*
X164499677Y-52134914D01*
X164555611Y-52176785D01*
X164559447Y-52182206D01*
X164578212Y-52210291D01*
X164689707Y-52321786D01*
X164689711Y-52321789D01*
X164820814Y-52409390D01*
X164820827Y-52409397D01*
X164966498Y-52469735D01*
X164966503Y-52469737D01*
X165108258Y-52497934D01*
X165121153Y-52500499D01*
X165121156Y-52500500D01*
X165121158Y-52500500D01*
X165278844Y-52500500D01*
X165278845Y-52500499D01*
X165433497Y-52469737D01*
X165577320Y-52410164D01*
X165579172Y-52409397D01*
X165579172Y-52409396D01*
X165579179Y-52409394D01*
X165710289Y-52321789D01*
X165821789Y-52210289D01*
X165888803Y-52109996D01*
X165896898Y-52097881D01*
X165950510Y-52053076D01*
X166019835Y-52044369D01*
X166082863Y-52074523D01*
X166103102Y-52097881D01*
X166178210Y-52210288D01*
X166178213Y-52210292D01*
X166289707Y-52321786D01*
X166289711Y-52321789D01*
X166420814Y-52409390D01*
X166420827Y-52409397D01*
X166566498Y-52469735D01*
X166566503Y-52469737D01*
X166708258Y-52497934D01*
X166721153Y-52500499D01*
X166721156Y-52500500D01*
X166721158Y-52500500D01*
X166878844Y-52500500D01*
X166878845Y-52500499D01*
X167033497Y-52469737D01*
X167177320Y-52410164D01*
X167179172Y-52409397D01*
X167179172Y-52409396D01*
X167179179Y-52409394D01*
X167310289Y-52321789D01*
X167359366Y-52272712D01*
X167426097Y-52205982D01*
X167427414Y-52207299D01*
X167477949Y-52172859D01*
X167547793Y-52170970D01*
X167607571Y-52207142D01*
X167619189Y-52221957D01*
X167678210Y-52310288D01*
X167678213Y-52310292D01*
X167789707Y-52421786D01*
X167789711Y-52421789D01*
X167920814Y-52509390D01*
X167920827Y-52509397D01*
X168053560Y-52564376D01*
X168066503Y-52569737D01*
X168215935Y-52599461D01*
X168221153Y-52600499D01*
X168221156Y-52600500D01*
X168221158Y-52600500D01*
X168378844Y-52600500D01*
X168378845Y-52600499D01*
X168533497Y-52569737D01*
X168647079Y-52522690D01*
X168679172Y-52509397D01*
X168679172Y-52509396D01*
X168679179Y-52509394D01*
X168810289Y-52421789D01*
X168921789Y-52310289D01*
X168929145Y-52299279D01*
X168946898Y-52272712D01*
X169000510Y-52227906D01*
X169069835Y-52219199D01*
X169132862Y-52249353D01*
X169153102Y-52272712D01*
X169178207Y-52310284D01*
X169178213Y-52310292D01*
X169289707Y-52421786D01*
X169289711Y-52421789D01*
X169420814Y-52509390D01*
X169420827Y-52509397D01*
X169553560Y-52564376D01*
X169566503Y-52569737D01*
X169715935Y-52599461D01*
X169721153Y-52600499D01*
X169721156Y-52600500D01*
X169721158Y-52600500D01*
X169878844Y-52600500D01*
X169878845Y-52600499D01*
X170033497Y-52569737D01*
X170147079Y-52522690D01*
X170179172Y-52509397D01*
X170179172Y-52509396D01*
X170179179Y-52509394D01*
X170310289Y-52421789D01*
X170359848Y-52372230D01*
X170412319Y-52319760D01*
X170473642Y-52286275D01*
X170543334Y-52291259D01*
X170587681Y-52319760D01*
X170689707Y-52421786D01*
X170689711Y-52421789D01*
X170820814Y-52509390D01*
X170820827Y-52509397D01*
X170953560Y-52564376D01*
X170966503Y-52569737D01*
X171115935Y-52599461D01*
X171121153Y-52600499D01*
X171121156Y-52600500D01*
X171121158Y-52600500D01*
X171278844Y-52600500D01*
X171278845Y-52600499D01*
X171433497Y-52569737D01*
X171547079Y-52522690D01*
X171579172Y-52509397D01*
X171579172Y-52509396D01*
X171579179Y-52509394D01*
X171710289Y-52421789D01*
X171821789Y-52310289D01*
X171909394Y-52179179D01*
X171969737Y-52033497D01*
X172000500Y-51878842D01*
X172000500Y-51721158D01*
X172000500Y-51721155D01*
X172000499Y-51721153D01*
X171992618Y-51681535D01*
X171969737Y-51566503D01*
X171937929Y-51489711D01*
X171909397Y-51420827D01*
X171909390Y-51420814D01*
X171821789Y-51289711D01*
X171821786Y-51289707D01*
X171710292Y-51178213D01*
X171710288Y-51178210D01*
X171579185Y-51090609D01*
X171579172Y-51090602D01*
X171433501Y-51030264D01*
X171433489Y-51030261D01*
X171278845Y-50999500D01*
X171278842Y-50999500D01*
X171121158Y-50999500D01*
X171121155Y-50999500D01*
X170966510Y-51030261D01*
X170966498Y-51030264D01*
X170820827Y-51090602D01*
X170820814Y-51090609D01*
X170689711Y-51178210D01*
X170689707Y-51178213D01*
X170587681Y-51280240D01*
X170526358Y-51313725D01*
X170456666Y-51308741D01*
X170412319Y-51280240D01*
X170310292Y-51178213D01*
X170310288Y-51178210D01*
X170179185Y-51090609D01*
X170179172Y-51090602D01*
X170033501Y-51030264D01*
X170033489Y-51030261D01*
X169878845Y-50999500D01*
X169878842Y-50999500D01*
X169721158Y-50999500D01*
X169721155Y-50999500D01*
X169566510Y-51030261D01*
X169566498Y-51030264D01*
X169420827Y-51090602D01*
X169420814Y-51090609D01*
X169289711Y-51178210D01*
X169289707Y-51178213D01*
X169178213Y-51289707D01*
X169153102Y-51327289D01*
X169099489Y-51372093D01*
X169030164Y-51380800D01*
X168967137Y-51350645D01*
X168946898Y-51327289D01*
X168924667Y-51294018D01*
X168921789Y-51289711D01*
X168921788Y-51289710D01*
X168921786Y-51289707D01*
X168810292Y-51178213D01*
X168810288Y-51178210D01*
X168679185Y-51090609D01*
X168679172Y-51090602D01*
X168533501Y-51030264D01*
X168533489Y-51030261D01*
X168378845Y-50999500D01*
X168378842Y-50999500D01*
X168221158Y-50999500D01*
X168221155Y-50999500D01*
X168066510Y-51030261D01*
X168066498Y-51030264D01*
X167920827Y-51090602D01*
X167920814Y-51090609D01*
X167789711Y-51178210D01*
X167789707Y-51178213D01*
X167673903Y-51294018D01*
X167672591Y-51292706D01*
X167622004Y-51327155D01*
X167552159Y-51329017D01*
X167492396Y-51292822D01*
X167480810Y-51278042D01*
X167421789Y-51189710D01*
X167310292Y-51078213D01*
X167310288Y-51078210D01*
X167179185Y-50990609D01*
X167179172Y-50990602D01*
X167033501Y-50930264D01*
X167033489Y-50930261D01*
X166878845Y-50899500D01*
X166878842Y-50899500D01*
X166721158Y-50899500D01*
X166721155Y-50899500D01*
X166566510Y-50930261D01*
X166566498Y-50930264D01*
X166420827Y-50990602D01*
X166420814Y-50990609D01*
X166289711Y-51078210D01*
X166289707Y-51078213D01*
X166178213Y-51189707D01*
X166178210Y-51189711D01*
X166103102Y-51302118D01*
X166049490Y-51346923D01*
X165980165Y-51355630D01*
X165917137Y-51325475D01*
X165896898Y-51302118D01*
X165821789Y-51189711D01*
X165821786Y-51189707D01*
X165710292Y-51078213D01*
X165710288Y-51078210D01*
X165579185Y-50990609D01*
X165579172Y-50990602D01*
X165433501Y-50930264D01*
X165433489Y-50930261D01*
X165278845Y-50899500D01*
X165278842Y-50899500D01*
X165121158Y-50899500D01*
X165121155Y-50899500D01*
X164966510Y-50930261D01*
X164966498Y-50930264D01*
X164820827Y-50990602D01*
X164820814Y-50990609D01*
X164689711Y-51078210D01*
X164631336Y-51136585D01*
X164570012Y-51170069D01*
X164500321Y-51165084D01*
X164444387Y-51123213D01*
X164440552Y-51117792D01*
X164421790Y-51089712D01*
X164421786Y-51089707D01*
X164310292Y-50978213D01*
X164310288Y-50978210D01*
X164179185Y-50890609D01*
X164179172Y-50890602D01*
X164033501Y-50830264D01*
X164033489Y-50830261D01*
X163878845Y-50799500D01*
X163878842Y-50799500D01*
X163721158Y-50799500D01*
X163721155Y-50799500D01*
X163566510Y-50830261D01*
X163566498Y-50830264D01*
X163420827Y-50890602D01*
X163420814Y-50890609D01*
X163289711Y-50978210D01*
X163289707Y-50978213D01*
X163178213Y-51089707D01*
X163178210Y-51089711D01*
X163090609Y-51220814D01*
X163090602Y-51220827D01*
X163030264Y-51366498D01*
X163030261Y-51366510D01*
X162999500Y-51521153D01*
X162999500Y-51678846D01*
X163030261Y-51833489D01*
X163030264Y-51833501D01*
X163090137Y-51978048D01*
X163097606Y-52047517D01*
X163066331Y-52109996D01*
X163006241Y-52145648D01*
X162975576Y-52149500D01*
X162946155Y-52149500D01*
X162791510Y-52180261D01*
X162791498Y-52180264D01*
X162645827Y-52240602D01*
X162645814Y-52240609D01*
X162514711Y-52328210D01*
X162514707Y-52328213D01*
X162403213Y-52439707D01*
X162403210Y-52439711D01*
X162315609Y-52570814D01*
X162315602Y-52570827D01*
X162255264Y-52716498D01*
X162255261Y-52716508D01*
X162251881Y-52733503D01*
X162219496Y-52795414D01*
X162158780Y-52829988D01*
X162089010Y-52826247D01*
X162032338Y-52785381D01*
X162015703Y-52756763D01*
X161959397Y-52620827D01*
X161959390Y-52620814D01*
X161871789Y-52489711D01*
X161871786Y-52489707D01*
X161823043Y-52440964D01*
X161789558Y-52379641D01*
X161794542Y-52309949D01*
X161805295Y-52288010D01*
X161864348Y-52192637D01*
X161938024Y-52002456D01*
X161975500Y-51801976D01*
X161975500Y-51700000D01*
X161975500Y-51634108D01*
X161975500Y-51634107D01*
X161975500Y-49524000D01*
X161995185Y-49456961D01*
X162047989Y-49411206D01*
X162099500Y-49400000D01*
X175800500Y-49400000D01*
X175867539Y-49419685D01*
G37*
%TD.AperFunction*%
%TD*%
M02*
