%TF.GenerationSoftware,KiCad,Pcbnew,10.0.4*%
%TF.CreationDate,2026-09-22T22:30:39+02:00*%
%TF.ProjectId,dongle,646f6e67-6c65-42e6-9b69-6361645f7063,rev?*%
%TF.SameCoordinates,Original*%
%TF.FileFunction,Copper,L2,Inr*%
%TF.FilePolarity,Positive*%
%FSLAX46Y46*%
G04 Gerber Fmt 4.6, Leading zero omitted, Abs format (unit mm)*
G04 Created by KiCad (PCBNEW 10.0.4) date 2026-09-22 22:30:39*
%MOMM*%
%LPD*%
G01*
G04 APERTURE LIST*
%TA.AperFunction,ViaPad*%
%ADD10C,0.600000*%
%TD*%
G04 APERTURE END LIST*
D10*
%TO.N,GND*%
X163800000Y-51600000D03*
X176100000Y-56562500D03*
X172200000Y-74100000D03*
X160200000Y-60500000D03*
X170300000Y-57300000D03*
X165200000Y-51700000D03*
X152900000Y-63800000D03*
X171925000Y-82025000D03*
X155000000Y-78700000D03*
X166800000Y-51700000D03*
X168300000Y-51800000D03*
X165200000Y-63100000D03*
X164400000Y-69800000D03*
X159900000Y-53400000D03*
X156200000Y-76000000D03*
X160600000Y-70500000D03*
X174060717Y-51717690D03*
X179050000Y-76075000D03*
X175700000Y-64800000D03*
X157187500Y-53577134D03*
X179175000Y-59475000D03*
X156400000Y-70200000D03*
X171900000Y-62000000D03*
X169800000Y-51800000D03*
X170975000Y-63325000D03*
X163900000Y-56700000D03*
X171200000Y-51800000D03*
%TO.N,+3.3V*%
X178500000Y-53637500D03*
X155000000Y-76400000D03*
X176100000Y-53637500D03*
X175150000Y-51575000D03*
X173750000Y-63200000D03*
X174429280Y-52427735D03*
X168875000Y-72062500D03*
X165500000Y-61500000D03*
X156959947Y-52810179D03*
X169700000Y-63300000D03*
X160787500Y-56512500D03*
X170025000Y-72062500D03*
%TO.N,/SCK*%
X175900000Y-70800000D03*
X168900000Y-76900000D03*
X158375000Y-70650000D03*
%TO.N,Net-(J2-CONFIG_3)*%
X161250000Y-53000000D03*
X157375000Y-51650000D03*
%TO.N,Net-(J2-~{FULL_CARD_POWER_OFF})*%
X174000000Y-58900000D03*
%TO.N,Net-(J2-~{W_DISABLE1})*%
X159150000Y-54600000D03*
%TO.N,Net-(J2-CONFIG_0)*%
X163025000Y-52950000D03*
%TO.N,Net-(J2-CONFIG_1)*%
X173250000Y-52000000D03*
%TO.N,Net-(J2-CONFIG_2)*%
X175716250Y-52178464D03*
%TO.N,/RX*%
X162900000Y-63225000D03*
X164500000Y-78300000D03*
%TO.N,/CSN_1*%
X164800000Y-76100000D03*
X168105637Y-75094363D03*
%TO.N,/IO0*%
X154400000Y-81100000D03*
X168400000Y-57900000D03*
X177300000Y-57600000D03*
%TO.N,/TX*%
X165300000Y-78275000D03*
X164100000Y-63175000D03*
%TO.N,/IRQ_2*%
X176600000Y-82300000D03*
X168425000Y-81075000D03*
%TO.N,/CSN_2*%
X169675000Y-80975000D03*
X175000000Y-82100000D03*
%TO.N,Net-(U3-CE)*%
X173540000Y-70800000D03*
%TO.N,Net-(U3-IRQ)*%
X179950000Y-73375000D03*
%TO.N,Net-(U2-IRQ)*%
X162300000Y-76292157D03*
%TO.N,Net-(U3-~{CSN})*%
X174419102Y-70714401D03*
%TO.N,/D-_CH340*%
X167575000Y-58375000D03*
X178845000Y-61055000D03*
%TO.N,/D+_CH340*%
X179000000Y-62325000D03*
X166325000Y-58400000D03*
%TO.N,Net-(D1-A)*%
X180500000Y-68175000D03*
X180500000Y-67275000D03*
%TO.N,Net-(U2-~{CSN})*%
X157700000Y-68800000D03*
%TO.N,Net-(U2-CE)*%
X158796128Y-76058872D03*
%TO.N,/MISO*%
X167800000Y-77900000D03*
X160325735Y-75325735D03*
X179217321Y-70593263D03*
%TO.N,/MOSI*%
X168144773Y-77178103D03*
X159650000Y-73500000D03*
X177350000Y-70850000D03*
%TD*%
%TA.AperFunction,Conductor*%
%TO.N,GND*%
G36*
X159717539Y-49419685D02*
G01*
X159763294Y-49472489D01*
X159774500Y-49524000D01*
X159774500Y-51634107D01*
X159774500Y-51634108D01*
X159774500Y-51700000D01*
X159774500Y-51801976D01*
X159811976Y-52002456D01*
X159822331Y-52029185D01*
X159885651Y-52192635D01*
X159885655Y-52192642D01*
X159993017Y-52366039D01*
X159993019Y-52366041D01*
X160130418Y-52516762D01*
X160130421Y-52516764D01*
X160293179Y-52639673D01*
X160401524Y-52693622D01*
X160452759Y-52741123D01*
X160470181Y-52808786D01*
X160467868Y-52828812D01*
X160449500Y-52921153D01*
X160449500Y-53078846D01*
X160480261Y-53233489D01*
X160480264Y-53233501D01*
X160540602Y-53379172D01*
X160540609Y-53379185D01*
X160628210Y-53510288D01*
X160628213Y-53510292D01*
X160739707Y-53621786D01*
X160739711Y-53621789D01*
X160870814Y-53709390D01*
X160870827Y-53709397D01*
X160970060Y-53750500D01*
X161016503Y-53769737D01*
X161166131Y-53799500D01*
X161171153Y-53800499D01*
X161171156Y-53800500D01*
X161171158Y-53800500D01*
X161328844Y-53800500D01*
X161328845Y-53800499D01*
X161483497Y-53769737D01*
X161629179Y-53709394D01*
X161760289Y-53621789D01*
X161871789Y-53510289D01*
X161959394Y-53379179D01*
X162019737Y-53233497D01*
X162023117Y-53216500D01*
X162055499Y-53154590D01*
X162116213Y-53120013D01*
X162185983Y-53123750D01*
X162242657Y-53164613D01*
X162259296Y-53193235D01*
X162315604Y-53329176D01*
X162315609Y-53329185D01*
X162403210Y-53460288D01*
X162403213Y-53460292D01*
X162514707Y-53571786D01*
X162514711Y-53571789D01*
X162645814Y-53659390D01*
X162645827Y-53659397D01*
X162783316Y-53716346D01*
X162791503Y-53719737D01*
X162946153Y-53750499D01*
X162946156Y-53750500D01*
X162946158Y-53750500D01*
X163103844Y-53750500D01*
X163103845Y-53750499D01*
X163258497Y-53719737D01*
X163404179Y-53659394D01*
X163535289Y-53571789D01*
X163646789Y-53460289D01*
X163734394Y-53329179D01*
X163794737Y-53183497D01*
X163825500Y-53028842D01*
X163825500Y-52871158D01*
X163825500Y-52871155D01*
X163825499Y-52871153D01*
X163819729Y-52842147D01*
X163794737Y-52716503D01*
X163788534Y-52701527D01*
X163734397Y-52570827D01*
X163734390Y-52570814D01*
X163646789Y-52439711D01*
X163646786Y-52439707D01*
X163535292Y-52328213D01*
X163535288Y-52328210D01*
X163404185Y-52240609D01*
X163404172Y-52240602D01*
X163258501Y-52180264D01*
X163258489Y-52180261D01*
X163103845Y-52149500D01*
X163103842Y-52149500D01*
X162946158Y-52149500D01*
X162946155Y-52149500D01*
X162791510Y-52180261D01*
X162791498Y-52180264D01*
X162645827Y-52240602D01*
X162645814Y-52240609D01*
X162514711Y-52328210D01*
X162514707Y-52328213D01*
X162403213Y-52439707D01*
X162403210Y-52439711D01*
X162315609Y-52570814D01*
X162315602Y-52570827D01*
X162255264Y-52716498D01*
X162255261Y-52716508D01*
X162251881Y-52733503D01*
X162219496Y-52795414D01*
X162158780Y-52829988D01*
X162089010Y-52826247D01*
X162032338Y-52785381D01*
X162015703Y-52756763D01*
X161959397Y-52620827D01*
X161959390Y-52620814D01*
X161871789Y-52489711D01*
X161871786Y-52489707D01*
X161823043Y-52440964D01*
X161789558Y-52379641D01*
X161794542Y-52309949D01*
X161805295Y-52288010D01*
X161864348Y-52192637D01*
X161938024Y-52002456D01*
X161975500Y-51801976D01*
X161975500Y-51700000D01*
X161975500Y-51634108D01*
X161975500Y-51634107D01*
X161975500Y-49524000D01*
X161995185Y-49456961D01*
X162047989Y-49411206D01*
X162099500Y-49400000D01*
X175800500Y-49400000D01*
X175867539Y-49419685D01*
X175913294Y-49472489D01*
X175924500Y-49524000D01*
X175924500Y-50918059D01*
X175904815Y-50985098D01*
X175852011Y-51030853D01*
X175782853Y-51040797D01*
X175719297Y-51011772D01*
X175712819Y-51005740D01*
X175660292Y-50953213D01*
X175660288Y-50953210D01*
X175529185Y-50865609D01*
X175529172Y-50865602D01*
X175383501Y-50805264D01*
X175383489Y-50805261D01*
X175228845Y-50774500D01*
X175228842Y-50774500D01*
X175071158Y-50774500D01*
X175071155Y-50774500D01*
X174916510Y-50805261D01*
X174916498Y-50805264D01*
X174770827Y-50865602D01*
X174770814Y-50865609D01*
X174639711Y-50953210D01*
X174639707Y-50953213D01*
X174528213Y-51064707D01*
X174528210Y-51064711D01*
X174440609Y-51195814D01*
X174440602Y-51195827D01*
X174380264Y-51341498D01*
X174380261Y-51341510D01*
X174349500Y-51496153D01*
X174349500Y-51525657D01*
X174342467Y-51549607D01*
X174339521Y-51574392D01*
X174332794Y-51582550D01*
X174329815Y-51592696D01*
X174310953Y-51609039D01*
X174295073Y-51628300D01*
X174282807Y-51633428D01*
X174277011Y-51638451D01*
X174263336Y-51643743D01*
X174256607Y-51645899D01*
X174195783Y-51657998D01*
X174116997Y-51690631D01*
X174112100Y-51692201D01*
X174082090Y-51692936D01*
X174052246Y-51696144D01*
X174047528Y-51693782D01*
X174042252Y-51693912D01*
X174016607Y-51678304D01*
X173989767Y-51664869D01*
X173986280Y-51659847D01*
X173982567Y-51657587D01*
X173977540Y-51647257D01*
X173962739Y-51625937D01*
X173962264Y-51626191D01*
X173960084Y-51622113D01*
X173959699Y-51621558D01*
X173959396Y-51620827D01*
X173959394Y-51620821D01*
X173959392Y-51620818D01*
X173959390Y-51620814D01*
X173871789Y-51489711D01*
X173871786Y-51489707D01*
X173760292Y-51378213D01*
X173760288Y-51378210D01*
X173629185Y-51290609D01*
X173629172Y-51290602D01*
X173483501Y-51230264D01*
X173483489Y-51230261D01*
X173328845Y-51199500D01*
X173328842Y-51199500D01*
X173171158Y-51199500D01*
X173171155Y-51199500D01*
X173016510Y-51230261D01*
X173016498Y-51230264D01*
X172870827Y-51290602D01*
X172870814Y-51290609D01*
X172739711Y-51378210D01*
X172739707Y-51378213D01*
X172628213Y-51489707D01*
X172628210Y-51489711D01*
X172540609Y-51620814D01*
X172540602Y-51620827D01*
X172480264Y-51766498D01*
X172480261Y-51766510D01*
X172449500Y-51921153D01*
X172449500Y-52078846D01*
X172480261Y-52233489D01*
X172480264Y-52233501D01*
X172540602Y-52379172D01*
X172540609Y-52379185D01*
X172628210Y-52510288D01*
X172628213Y-52510292D01*
X172739707Y-52621786D01*
X172739711Y-52621789D01*
X172870814Y-52709390D01*
X172870827Y-52709397D01*
X172999910Y-52762864D01*
X173016503Y-52769737D01*
X173145589Y-52795414D01*
X173171153Y-52800499D01*
X173171156Y-52800500D01*
X173171158Y-52800500D01*
X173328844Y-52800500D01*
X173328845Y-52800499D01*
X173483497Y-52769737D01*
X173557563Y-52739057D01*
X173627031Y-52731589D01*
X173689511Y-52762864D01*
X173716542Y-52801797D01*
X173717016Y-52801544D01*
X173719188Y-52805609D01*
X173719576Y-52806167D01*
X173719882Y-52806907D01*
X173719889Y-52806920D01*
X173807490Y-52938023D01*
X173807493Y-52938027D01*
X173918987Y-53049521D01*
X173918991Y-53049524D01*
X174050094Y-53137125D01*
X174050107Y-53137132D01*
X174176177Y-53189351D01*
X174195783Y-53197472D01*
X174291453Y-53216502D01*
X174350433Y-53228234D01*
X174350436Y-53228235D01*
X174350438Y-53228235D01*
X174508124Y-53228235D01*
X174508125Y-53228234D01*
X174662777Y-53197472D01*
X174808459Y-53137129D01*
X174939569Y-53049524D01*
X175051069Y-52938024D01*
X175093629Y-52874327D01*
X175095386Y-52872859D01*
X175096149Y-52870698D01*
X175122052Y-52850572D01*
X175147240Y-52829523D01*
X175149515Y-52829237D01*
X175151324Y-52827832D01*
X175184007Y-52824905D01*
X175216565Y-52820816D01*
X175219343Y-52821740D01*
X175220915Y-52821600D01*
X175229068Y-52824976D01*
X175254199Y-52833340D01*
X175260091Y-52836421D01*
X175337071Y-52887858D01*
X175439779Y-52930400D01*
X175444682Y-52932965D01*
X175466000Y-52953533D01*
X175489070Y-52972123D01*
X175490868Y-52977525D01*
X175494964Y-52981477D01*
X175501778Y-53010305D01*
X175511135Y-53038417D01*
X175509727Y-53043932D01*
X175511037Y-53049473D01*
X175501181Y-53077413D01*
X175493856Y-53106117D01*
X175488728Y-53112720D01*
X175487796Y-53115365D01*
X175484972Y-53117558D01*
X175481501Y-53122029D01*
X175482076Y-53122501D01*
X175478210Y-53127211D01*
X175390609Y-53258314D01*
X175390602Y-53258327D01*
X175330264Y-53403998D01*
X175330261Y-53404010D01*
X175299500Y-53558653D01*
X175299500Y-53716346D01*
X175330261Y-53870989D01*
X175330264Y-53871001D01*
X175390602Y-54016672D01*
X175390609Y-54016685D01*
X175478210Y-54147788D01*
X175478213Y-54147792D01*
X175589707Y-54259286D01*
X175589711Y-54259289D01*
X175720814Y-54346890D01*
X175720827Y-54346897D01*
X175866498Y-54407235D01*
X175866503Y-54407237D01*
X176021153Y-54437999D01*
X176021156Y-54438000D01*
X176021158Y-54438000D01*
X176178844Y-54438000D01*
X176178845Y-54437999D01*
X176333497Y-54407237D01*
X176479179Y-54346894D01*
X176610289Y-54259289D01*
X176721789Y-54147789D01*
X176809394Y-54016679D01*
X176869737Y-53870997D01*
X176900500Y-53716342D01*
X176900500Y-53558658D01*
X176900500Y-53558655D01*
X176900499Y-53558653D01*
X176890879Y-53510289D01*
X176869737Y-53404003D01*
X176838743Y-53329176D01*
X176809397Y-53258327D01*
X176809390Y-53258314D01*
X176721789Y-53127211D01*
X176721786Y-53127207D01*
X176610292Y-53015713D01*
X176610288Y-53015710D01*
X176479185Y-52928109D01*
X176479176Y-52928104D01*
X176381582Y-52887680D01*
X176327179Y-52843839D01*
X176305114Y-52777545D01*
X176322393Y-52709846D01*
X176327790Y-52701527D01*
X176333886Y-52692905D01*
X176338039Y-52688753D01*
X176358906Y-52657522D01*
X176359828Y-52656219D01*
X176385981Y-52635511D01*
X176411580Y-52614117D01*
X176413270Y-52613904D01*
X176414606Y-52612847D01*
X176447799Y-52609566D01*
X176480905Y-52605407D01*
X176483374Y-52606050D01*
X176484137Y-52605975D01*
X176485229Y-52606533D01*
X176503473Y-52611286D01*
X176665062Y-52670100D01*
X176837466Y-52700500D01*
X176859108Y-52700500D01*
X178052683Y-52700500D01*
X178119722Y-52720185D01*
X178165477Y-52772989D01*
X178175421Y-52842147D01*
X178146396Y-52905703D01*
X178121574Y-52927602D01*
X177989711Y-53015710D01*
X177989707Y-53015713D01*
X177878213Y-53127207D01*
X177878210Y-53127211D01*
X177790609Y-53258314D01*
X177790602Y-53258327D01*
X177730264Y-53403998D01*
X177730261Y-53404010D01*
X177699500Y-53558653D01*
X177699500Y-53716346D01*
X177730261Y-53870989D01*
X177730264Y-53871001D01*
X177790602Y-54016672D01*
X177790609Y-54016685D01*
X177878210Y-54147788D01*
X177878213Y-54147792D01*
X177989707Y-54259286D01*
X177989711Y-54259289D01*
X178120814Y-54346890D01*
X178120827Y-54346897D01*
X178266498Y-54407235D01*
X178266503Y-54407237D01*
X178421153Y-54437999D01*
X178421156Y-54438000D01*
X178421158Y-54438000D01*
X178578844Y-54438000D01*
X178578845Y-54437999D01*
X178733497Y-54407237D01*
X178879179Y-54346894D01*
X179010289Y-54259289D01*
X179121789Y-54147789D01*
X179209394Y-54016679D01*
X179269737Y-53870997D01*
X179300500Y-53716342D01*
X179300500Y-53558658D01*
X179300500Y-53558655D01*
X179300499Y-53558653D01*
X179290879Y-53510289D01*
X179269737Y-53404003D01*
X179238743Y-53329176D01*
X179209397Y-53258327D01*
X179209390Y-53258314D01*
X179121789Y-53127211D01*
X179121786Y-53127207D01*
X179010292Y-53015713D01*
X179010288Y-53015710D01*
X178878426Y-52927602D01*
X178833621Y-52873990D01*
X178824914Y-52804665D01*
X178855069Y-52741637D01*
X178914512Y-52704918D01*
X178947317Y-52700500D01*
X180875500Y-52700500D01*
X180942539Y-52720185D01*
X180988294Y-52772989D01*
X180999500Y-52824500D01*
X180999500Y-66429865D01*
X180979815Y-66496904D01*
X180927011Y-66542659D01*
X180857853Y-66552603D01*
X180828048Y-66544427D01*
X180823780Y-66542659D01*
X180733497Y-66505263D01*
X180733494Y-66505262D01*
X180733491Y-66505261D01*
X180578845Y-66474500D01*
X180578842Y-66474500D01*
X180421158Y-66474500D01*
X180421155Y-66474500D01*
X180266510Y-66505261D01*
X180266498Y-66505264D01*
X180120827Y-66565602D01*
X180120814Y-66565609D01*
X179989711Y-66653210D01*
X179989707Y-66653213D01*
X179878213Y-66764707D01*
X179878210Y-66764711D01*
X179790609Y-66895814D01*
X179790602Y-66895827D01*
X179730264Y-67041498D01*
X179730261Y-67041510D01*
X179699500Y-67196153D01*
X179699500Y-67353846D01*
X179730261Y-67508489D01*
X179730264Y-67508501D01*
X179790604Y-67654177D01*
X179790605Y-67654179D01*
X179791899Y-67656115D01*
X179792264Y-67657282D01*
X179793476Y-67659549D01*
X179793045Y-67659778D01*
X179812773Y-67722794D01*
X179794285Y-67790173D01*
X179791899Y-67793885D01*
X179790605Y-67795820D01*
X179790604Y-67795822D01*
X179730264Y-67941498D01*
X179730261Y-67941510D01*
X179699500Y-68096153D01*
X179699500Y-68253846D01*
X179730261Y-68408489D01*
X179730264Y-68408501D01*
X179790602Y-68554172D01*
X179790609Y-68554185D01*
X179878210Y-68685288D01*
X179878213Y-68685292D01*
X179989707Y-68796786D01*
X179989711Y-68796789D01*
X180120814Y-68884390D01*
X180120827Y-68884397D01*
X180229425Y-68929379D01*
X180266503Y-68944737D01*
X180421153Y-68975499D01*
X180421156Y-68975500D01*
X180421158Y-68975500D01*
X180578844Y-68975500D01*
X180578845Y-68975499D01*
X180733497Y-68944737D01*
X180828048Y-68905572D01*
X180897517Y-68898104D01*
X180959996Y-68929379D01*
X180995648Y-68989468D01*
X180999500Y-69020134D01*
X180999500Y-83476000D01*
X180979815Y-83543039D01*
X180927011Y-83588794D01*
X180875500Y-83600000D01*
X152124500Y-83600000D01*
X152057461Y-83580315D01*
X152011706Y-83527511D01*
X152000500Y-83476000D01*
X152000500Y-82021153D01*
X174199500Y-82021153D01*
X174199500Y-82178846D01*
X174230261Y-82333489D01*
X174230264Y-82333501D01*
X174290602Y-82479172D01*
X174290609Y-82479185D01*
X174378210Y-82610288D01*
X174378213Y-82610292D01*
X174489707Y-82721786D01*
X174489711Y-82721789D01*
X174620814Y-82809390D01*
X174620827Y-82809397D01*
X174766498Y-82869735D01*
X174766503Y-82869737D01*
X174921153Y-82900499D01*
X174921156Y-82900500D01*
X174921158Y-82900500D01*
X175078844Y-82900500D01*
X175078845Y-82900499D01*
X175233497Y-82869737D01*
X175379179Y-82809394D01*
X175510289Y-82721789D01*
X175621789Y-82610289D01*
X175641234Y-82581188D01*
X175694846Y-82536383D01*
X175764171Y-82527676D01*
X175827198Y-82557830D01*
X175858897Y-82602627D01*
X175890602Y-82679172D01*
X175890609Y-82679185D01*
X175978210Y-82810288D01*
X175978213Y-82810292D01*
X176089707Y-82921786D01*
X176089711Y-82921789D01*
X176220814Y-83009390D01*
X176220827Y-83009397D01*
X176366498Y-83069735D01*
X176366503Y-83069737D01*
X176521153Y-83100499D01*
X176521156Y-83100500D01*
X176521158Y-83100500D01*
X176678844Y-83100500D01*
X176678845Y-83100499D01*
X176833497Y-83069737D01*
X176979179Y-83009394D01*
X177110289Y-82921789D01*
X177221789Y-82810289D01*
X177309394Y-82679179D01*
X177369737Y-82533497D01*
X177400500Y-82378842D01*
X177400500Y-82221158D01*
X177400500Y-82221155D01*
X177400499Y-82221153D01*
X177369737Y-82066503D01*
X177350953Y-82021153D01*
X177309397Y-81920827D01*
X177309390Y-81920814D01*
X177221789Y-81789711D01*
X177221786Y-81789707D01*
X177110292Y-81678213D01*
X177110288Y-81678210D01*
X176979185Y-81590609D01*
X176979172Y-81590602D01*
X176833501Y-81530264D01*
X176833489Y-81530261D01*
X176678845Y-81499500D01*
X176678842Y-81499500D01*
X176521158Y-81499500D01*
X176521155Y-81499500D01*
X176366510Y-81530261D01*
X176366498Y-81530264D01*
X176220827Y-81590602D01*
X176220814Y-81590609D01*
X176089711Y-81678210D01*
X176089707Y-81678213D01*
X175978213Y-81789707D01*
X175978209Y-81789712D01*
X175958763Y-81818814D01*
X175905149Y-81863618D01*
X175835824Y-81872323D01*
X175772797Y-81842166D01*
X175741102Y-81797373D01*
X175709394Y-81720821D01*
X175709390Y-81720814D01*
X175621789Y-81589711D01*
X175621786Y-81589707D01*
X175510292Y-81478213D01*
X175510288Y-81478210D01*
X175379185Y-81390609D01*
X175379172Y-81390602D01*
X175233501Y-81330264D01*
X175233489Y-81330261D01*
X175078845Y-81299500D01*
X175078842Y-81299500D01*
X174921158Y-81299500D01*
X174921155Y-81299500D01*
X174766510Y-81330261D01*
X174766498Y-81330264D01*
X174620827Y-81390602D01*
X174620814Y-81390609D01*
X174489711Y-81478210D01*
X174489707Y-81478213D01*
X174378213Y-81589707D01*
X174378210Y-81589711D01*
X174290609Y-81720814D01*
X174290602Y-81720827D01*
X174230264Y-81866498D01*
X174230261Y-81866510D01*
X174199500Y-82021153D01*
X152000500Y-82021153D01*
X152000500Y-81021153D01*
X153599500Y-81021153D01*
X153599500Y-81178846D01*
X153630261Y-81333489D01*
X153630264Y-81333501D01*
X153690602Y-81479172D01*
X153690609Y-81479185D01*
X153778210Y-81610288D01*
X153778213Y-81610292D01*
X153889707Y-81721786D01*
X153889711Y-81721789D01*
X154020814Y-81809390D01*
X154020827Y-81809397D01*
X154151730Y-81863618D01*
X154166503Y-81869737D01*
X154321153Y-81900499D01*
X154321156Y-81900500D01*
X154321158Y-81900500D01*
X154478844Y-81900500D01*
X154478845Y-81900499D01*
X154489179Y-81898443D01*
X154514287Y-81893450D01*
X154514292Y-81893449D01*
X154620496Y-81872323D01*
X154633497Y-81869737D01*
X154779179Y-81809394D01*
X154910289Y-81721789D01*
X155021789Y-81610289D01*
X155109394Y-81479179D01*
X155169737Y-81333497D01*
X155200500Y-81178842D01*
X155200500Y-81021158D01*
X155200500Y-81021155D01*
X155200499Y-81021153D01*
X155199128Y-81014257D01*
X155195527Y-80996153D01*
X167624500Y-80996153D01*
X167624500Y-81153846D01*
X167655261Y-81308489D01*
X167655264Y-81308501D01*
X167715602Y-81454172D01*
X167715609Y-81454185D01*
X167803210Y-81585288D01*
X167803213Y-81585292D01*
X167914707Y-81696786D01*
X167914711Y-81696789D01*
X168045814Y-81784390D01*
X168045827Y-81784397D01*
X168185296Y-81842166D01*
X168191503Y-81844737D01*
X168300963Y-81866510D01*
X168346153Y-81875499D01*
X168346156Y-81875500D01*
X168346158Y-81875500D01*
X168503844Y-81875500D01*
X168503845Y-81875499D01*
X168658497Y-81844737D01*
X168804179Y-81784394D01*
X168935289Y-81696789D01*
X169015170Y-81616907D01*
X169076490Y-81583423D01*
X169146182Y-81588407D01*
X169171741Y-81601487D01*
X169295814Y-81684390D01*
X169295827Y-81684397D01*
X169386101Y-81721789D01*
X169441503Y-81744737D01*
X169596153Y-81775499D01*
X169596156Y-81775500D01*
X169596158Y-81775500D01*
X169753844Y-81775500D01*
X169753845Y-81775499D01*
X169908497Y-81744737D01*
X170054179Y-81684394D01*
X170185289Y-81596789D01*
X170296789Y-81485289D01*
X170384394Y-81354179D01*
X170444737Y-81208497D01*
X170475500Y-81053842D01*
X170475500Y-80896158D01*
X170475500Y-80896155D01*
X170475499Y-80896153D01*
X170444738Y-80741510D01*
X170444737Y-80741503D01*
X170436170Y-80720821D01*
X170384397Y-80595827D01*
X170384390Y-80595814D01*
X170296789Y-80464711D01*
X170296786Y-80464707D01*
X170185292Y-80353213D01*
X170185288Y-80353210D01*
X170054185Y-80265609D01*
X170054172Y-80265602D01*
X169908501Y-80205264D01*
X169908489Y-80205261D01*
X169753845Y-80174500D01*
X169753842Y-80174500D01*
X169596158Y-80174500D01*
X169596155Y-80174500D01*
X169441510Y-80205261D01*
X169441498Y-80205264D01*
X169295827Y-80265602D01*
X169295814Y-80265609D01*
X169164711Y-80353210D01*
X169084829Y-80433092D01*
X169023505Y-80466576D01*
X168953814Y-80461592D01*
X168928257Y-80448512D01*
X168804185Y-80365609D01*
X168804172Y-80365602D01*
X168658501Y-80305264D01*
X168658489Y-80305261D01*
X168503845Y-80274500D01*
X168503842Y-80274500D01*
X168346158Y-80274500D01*
X168346155Y-80274500D01*
X168191510Y-80305261D01*
X168191498Y-80305264D01*
X168045827Y-80365602D01*
X168045814Y-80365609D01*
X167914711Y-80453210D01*
X167914707Y-80453213D01*
X167803213Y-80564707D01*
X167803210Y-80564711D01*
X167715609Y-80695814D01*
X167715602Y-80695827D01*
X167655264Y-80841498D01*
X167655261Y-80841510D01*
X167624500Y-80996153D01*
X155195527Y-80996153D01*
X155169738Y-80866508D01*
X155169737Y-80866507D01*
X155169737Y-80866503D01*
X155117959Y-80741498D01*
X155109397Y-80720827D01*
X155109390Y-80720814D01*
X155021789Y-80589711D01*
X155021786Y-80589707D01*
X154910292Y-80478213D01*
X154910288Y-80478210D01*
X154779185Y-80390609D01*
X154779172Y-80390602D01*
X154633501Y-80330264D01*
X154633489Y-80330261D01*
X154478845Y-80299500D01*
X154478842Y-80299500D01*
X154321158Y-80299500D01*
X154321155Y-80299500D01*
X154166510Y-80330261D01*
X154166498Y-80330264D01*
X154020827Y-80390602D01*
X154020814Y-80390609D01*
X153889711Y-80478210D01*
X153889707Y-80478213D01*
X153778213Y-80589707D01*
X153778210Y-80589711D01*
X153690609Y-80720814D01*
X153690602Y-80720827D01*
X153630264Y-80866498D01*
X153630261Y-80866510D01*
X153599500Y-81021153D01*
X152000500Y-81021153D01*
X152000500Y-78221153D01*
X163699500Y-78221153D01*
X163699500Y-78378846D01*
X163730261Y-78533489D01*
X163730264Y-78533501D01*
X163790602Y-78679172D01*
X163790609Y-78679185D01*
X163878210Y-78810288D01*
X163878213Y-78810292D01*
X163989707Y-78921786D01*
X163989711Y-78921789D01*
X164120814Y-79009390D01*
X164120827Y-79009397D01*
X164266498Y-79069735D01*
X164266503Y-79069737D01*
X164421153Y-79100499D01*
X164421156Y-79100500D01*
X164421158Y-79100500D01*
X164578844Y-79100500D01*
X164578845Y-79100499D01*
X164733497Y-79069737D01*
X164879179Y-79009394D01*
X164879178Y-79009394D01*
X164882726Y-79007925D01*
X164952195Y-79000456D01*
X164977628Y-79007924D01*
X165066503Y-79044737D01*
X165192176Y-79069735D01*
X165221153Y-79075499D01*
X165221156Y-79075500D01*
X165221158Y-79075500D01*
X165378844Y-79075500D01*
X165378845Y-79075499D01*
X165533497Y-79044737D01*
X165679179Y-78984394D01*
X165810289Y-78896789D01*
X165921789Y-78785289D01*
X166009394Y-78654179D01*
X166069737Y-78508497D01*
X166100500Y-78353842D01*
X166100500Y-78196158D01*
X166100500Y-78196155D01*
X166100499Y-78196153D01*
X166069738Y-78041510D01*
X166069737Y-78041503D01*
X166019752Y-77920827D01*
X166009397Y-77895827D01*
X166009389Y-77895813D01*
X166001468Y-77883958D01*
X166001467Y-77883957D01*
X165959503Y-77821153D01*
X166999500Y-77821153D01*
X166999500Y-77978846D01*
X167030261Y-78133489D01*
X167030264Y-78133501D01*
X167090602Y-78279172D01*
X167090609Y-78279185D01*
X167178210Y-78410288D01*
X167178213Y-78410292D01*
X167289707Y-78521786D01*
X167289711Y-78521789D01*
X167420814Y-78609390D01*
X167420827Y-78609397D01*
X167566498Y-78669735D01*
X167566503Y-78669737D01*
X167721153Y-78700499D01*
X167721156Y-78700500D01*
X167721158Y-78700500D01*
X167878844Y-78700500D01*
X167878845Y-78700499D01*
X168033497Y-78669737D01*
X168179179Y-78609394D01*
X168310289Y-78521789D01*
X168421789Y-78410289D01*
X168509394Y-78279179D01*
X168569737Y-78133497D01*
X168600500Y-77978842D01*
X168600500Y-77902628D01*
X168620185Y-77835589D01*
X168638570Y-77813230D01*
X168646482Y-77805624D01*
X168655062Y-77799892D01*
X168719849Y-77735104D01*
X168720715Y-77734272D01*
X168750640Y-77718691D01*
X168780285Y-77702504D01*
X168781914Y-77702409D01*
X168782689Y-77702006D01*
X168785087Y-77702225D01*
X168818808Y-77700268D01*
X168821154Y-77700499D01*
X168821158Y-77700500D01*
X168821162Y-77700500D01*
X168978844Y-77700500D01*
X168978845Y-77700499D01*
X169133497Y-77669737D01*
X169279179Y-77609394D01*
X169410289Y-77521789D01*
X169521789Y-77410289D01*
X169609394Y-77279179D01*
X169669737Y-77133497D01*
X169700500Y-76978842D01*
X169700500Y-76821158D01*
X169700500Y-76821155D01*
X169700499Y-76821153D01*
X169698159Y-76809390D01*
X169669737Y-76666503D01*
X169646452Y-76610288D01*
X169609397Y-76520827D01*
X169609390Y-76520814D01*
X169521789Y-76389711D01*
X169521786Y-76389707D01*
X169410292Y-76278213D01*
X169410288Y-76278210D01*
X169279185Y-76190609D01*
X169279172Y-76190602D01*
X169133501Y-76130264D01*
X169133489Y-76130261D01*
X168978845Y-76099500D01*
X168978842Y-76099500D01*
X168821158Y-76099500D01*
X168821155Y-76099500D01*
X168666510Y-76130261D01*
X168666498Y-76130264D01*
X168520827Y-76190602D01*
X168520814Y-76190609D01*
X168389714Y-76278208D01*
X168325806Y-76342115D01*
X168264482Y-76375599D01*
X168225976Y-76377835D01*
X168223620Y-76377603D01*
X168223615Y-76377603D01*
X168065931Y-76377603D01*
X168065928Y-76377603D01*
X167911283Y-76408364D01*
X167911271Y-76408367D01*
X167765600Y-76468705D01*
X167765587Y-76468712D01*
X167634484Y-76556313D01*
X167634480Y-76556316D01*
X167522986Y-76667810D01*
X167522983Y-76667814D01*
X167435382Y-76798917D01*
X167435375Y-76798930D01*
X167375037Y-76944601D01*
X167375034Y-76944613D01*
X167344273Y-77099256D01*
X167344273Y-77175474D01*
X167324588Y-77242513D01*
X167293917Y-77273739D01*
X167294417Y-77274349D01*
X167289705Y-77278215D01*
X167178213Y-77389707D01*
X167178210Y-77389711D01*
X167090609Y-77520814D01*
X167090602Y-77520827D01*
X167030264Y-77666498D01*
X167030261Y-77666510D01*
X166999500Y-77821153D01*
X165959503Y-77821153D01*
X165921789Y-77764711D01*
X165921786Y-77764707D01*
X165810292Y-77653213D01*
X165810288Y-77653210D01*
X165679185Y-77565609D01*
X165679172Y-77565602D01*
X165533501Y-77505264D01*
X165533489Y-77505261D01*
X165378845Y-77474500D01*
X165378842Y-77474500D01*
X165221158Y-77474500D01*
X165221155Y-77474500D01*
X165066510Y-77505261D01*
X165066498Y-77505264D01*
X164917274Y-77567075D01*
X164847805Y-77574544D01*
X164822371Y-77567075D01*
X164733497Y-77530263D01*
X164733489Y-77530261D01*
X164578845Y-77499500D01*
X164578842Y-77499500D01*
X164421158Y-77499500D01*
X164421155Y-77499500D01*
X164266510Y-77530261D01*
X164266498Y-77530264D01*
X164120827Y-77590602D01*
X164120814Y-77590609D01*
X163989711Y-77678210D01*
X163989707Y-77678213D01*
X163878213Y-77789707D01*
X163878210Y-77789711D01*
X163790609Y-77920814D01*
X163790602Y-77920827D01*
X163730264Y-78066498D01*
X163730261Y-78066510D01*
X163699500Y-78221153D01*
X152000500Y-78221153D01*
X152000500Y-76321153D01*
X154199500Y-76321153D01*
X154199500Y-76478846D01*
X154230261Y-76633489D01*
X154230264Y-76633501D01*
X154290602Y-76779172D01*
X154290609Y-76779185D01*
X154378210Y-76910288D01*
X154378213Y-76910292D01*
X154489707Y-77021786D01*
X154489711Y-77021789D01*
X154620814Y-77109390D01*
X154620827Y-77109397D01*
X154766498Y-77169735D01*
X154766503Y-77169737D01*
X154921153Y-77200499D01*
X154921156Y-77200500D01*
X154921158Y-77200500D01*
X155078844Y-77200500D01*
X155078845Y-77200499D01*
X155233497Y-77169737D01*
X155379179Y-77109394D01*
X155510289Y-77021789D01*
X155621789Y-76910289D01*
X155709394Y-76779179D01*
X155769737Y-76633497D01*
X155800500Y-76478842D01*
X155800500Y-76321158D01*
X155800500Y-76321155D01*
X155800499Y-76321153D01*
X155791957Y-76278208D01*
X155769737Y-76166503D01*
X155757812Y-76137714D01*
X155709630Y-76021390D01*
X155709628Y-76021386D01*
X155709394Y-76020821D01*
X155709392Y-76020818D01*
X155709390Y-76020814D01*
X155682135Y-75980025D01*
X157995628Y-75980025D01*
X157995628Y-76137718D01*
X158026389Y-76292361D01*
X158026392Y-76292373D01*
X158086730Y-76438044D01*
X158086737Y-76438057D01*
X158174338Y-76569160D01*
X158174341Y-76569164D01*
X158285835Y-76680658D01*
X158285839Y-76680661D01*
X158416942Y-76768262D01*
X158416955Y-76768269D01*
X158562626Y-76828607D01*
X158562631Y-76828609D01*
X158717281Y-76859371D01*
X158717284Y-76859372D01*
X158717286Y-76859372D01*
X158874972Y-76859372D01*
X158874973Y-76859371D01*
X159029625Y-76828609D01*
X159148946Y-76779185D01*
X159175300Y-76768269D01*
X159175300Y-76768268D01*
X159175307Y-76768266D01*
X159306417Y-76680661D01*
X159417917Y-76569161D01*
X159505522Y-76438051D01*
X159565865Y-76292369D01*
X159581591Y-76213310D01*
X161499500Y-76213310D01*
X161499500Y-76371003D01*
X161530261Y-76525646D01*
X161530264Y-76525658D01*
X161590602Y-76671329D01*
X161590609Y-76671342D01*
X161678210Y-76802445D01*
X161678213Y-76802449D01*
X161789707Y-76913943D01*
X161789711Y-76913946D01*
X161920814Y-77001547D01*
X161920827Y-77001554D01*
X162066498Y-77061892D01*
X162066503Y-77061894D01*
X162221153Y-77092656D01*
X162221156Y-77092657D01*
X162221158Y-77092657D01*
X162378844Y-77092657D01*
X162378845Y-77092656D01*
X162533497Y-77061894D01*
X162679179Y-77001551D01*
X162810289Y-76913946D01*
X162921789Y-76802446D01*
X163009394Y-76671336D01*
X163069737Y-76525654D01*
X163100500Y-76370999D01*
X163100500Y-76213315D01*
X163100500Y-76213312D01*
X163100499Y-76213310D01*
X163083979Y-76130261D01*
X163069737Y-76058660D01*
X163069735Y-76058655D01*
X163054201Y-76021153D01*
X163999500Y-76021153D01*
X163999500Y-76178846D01*
X164030261Y-76333489D01*
X164030264Y-76333501D01*
X164090602Y-76479172D01*
X164090609Y-76479185D01*
X164178210Y-76610288D01*
X164178213Y-76610292D01*
X164289707Y-76721786D01*
X164289711Y-76721789D01*
X164420814Y-76809390D01*
X164420827Y-76809397D01*
X164541477Y-76859371D01*
X164566503Y-76869737D01*
X164721153Y-76900499D01*
X164721156Y-76900500D01*
X164721158Y-76900500D01*
X164878844Y-76900500D01*
X164878845Y-76900499D01*
X165033497Y-76869737D01*
X165179179Y-76809394D01*
X165310289Y-76721789D01*
X165421789Y-76610289D01*
X165509394Y-76479179D01*
X165513733Y-76468705D01*
X165538726Y-76408364D01*
X165569737Y-76333497D01*
X165600500Y-76178842D01*
X165600500Y-76021158D01*
X165600500Y-76021155D01*
X165600499Y-76021153D01*
X165585853Y-75947524D01*
X165569737Y-75866503D01*
X165552704Y-75825382D01*
X165509397Y-75720827D01*
X165509390Y-75720814D01*
X165421789Y-75589711D01*
X165421786Y-75589707D01*
X165310292Y-75478213D01*
X165310288Y-75478210D01*
X165179185Y-75390609D01*
X165179172Y-75390602D01*
X165033501Y-75330264D01*
X165033489Y-75330261D01*
X164878845Y-75299500D01*
X164878842Y-75299500D01*
X164721158Y-75299500D01*
X164721155Y-75299500D01*
X164566510Y-75330261D01*
X164566498Y-75330264D01*
X164420827Y-75390602D01*
X164420814Y-75390609D01*
X164289711Y-75478210D01*
X164289707Y-75478213D01*
X164178213Y-75589707D01*
X164178210Y-75589711D01*
X164090609Y-75720814D01*
X164090602Y-75720827D01*
X164030264Y-75866498D01*
X164030261Y-75866510D01*
X163999500Y-76021153D01*
X163054201Y-76021153D01*
X163009397Y-75912984D01*
X163009390Y-75912971D01*
X162921789Y-75781868D01*
X162921786Y-75781864D01*
X162810292Y-75670370D01*
X162810288Y-75670367D01*
X162679185Y-75582766D01*
X162679172Y-75582759D01*
X162533501Y-75522421D01*
X162533489Y-75522418D01*
X162378845Y-75491657D01*
X162378842Y-75491657D01*
X162221158Y-75491657D01*
X162221155Y-75491657D01*
X162066510Y-75522418D01*
X162066498Y-75522421D01*
X161920827Y-75582759D01*
X161920814Y-75582766D01*
X161789711Y-75670367D01*
X161789707Y-75670370D01*
X161678213Y-75781864D01*
X161678210Y-75781868D01*
X161590609Y-75912971D01*
X161590602Y-75912984D01*
X161530264Y-76058655D01*
X161530261Y-76058667D01*
X161499500Y-76213310D01*
X159581591Y-76213310D01*
X159596628Y-76137714D01*
X159596628Y-76028069D01*
X159616313Y-75961030D01*
X159669117Y-75915275D01*
X159738275Y-75905331D01*
X159801831Y-75934356D01*
X159808309Y-75940388D01*
X159815442Y-75947521D01*
X159815446Y-75947524D01*
X159946549Y-76035125D01*
X159946562Y-76035132D01*
X160092233Y-76095470D01*
X160092238Y-76095472D01*
X160246888Y-76126234D01*
X160246891Y-76126235D01*
X160246893Y-76126235D01*
X160404579Y-76126235D01*
X160404580Y-76126234D01*
X160559232Y-76095472D01*
X160704914Y-76035129D01*
X160836024Y-75947524D01*
X160947524Y-75836024D01*
X161035129Y-75704914D01*
X161095472Y-75559232D01*
X161126235Y-75404577D01*
X161126235Y-75246893D01*
X161126235Y-75246890D01*
X161126234Y-75246888D01*
X161095473Y-75092245D01*
X161095472Y-75092238D01*
X161063693Y-75015516D01*
X167305137Y-75015516D01*
X167305137Y-75173209D01*
X167335898Y-75327852D01*
X167335901Y-75327864D01*
X167396239Y-75473535D01*
X167396246Y-75473548D01*
X167483847Y-75604651D01*
X167483850Y-75604655D01*
X167595344Y-75716149D01*
X167595348Y-75716152D01*
X167726451Y-75803753D01*
X167726464Y-75803760D01*
X167804365Y-75836027D01*
X167872140Y-75864100D01*
X168026790Y-75894862D01*
X168026793Y-75894863D01*
X168026795Y-75894863D01*
X168184481Y-75894863D01*
X168184482Y-75894862D01*
X168339134Y-75864100D01*
X168484816Y-75803757D01*
X168615926Y-75716152D01*
X168727426Y-75604652D01*
X168815031Y-75473542D01*
X168875374Y-75327860D01*
X168906137Y-75173205D01*
X168906137Y-75015521D01*
X168906137Y-75015518D01*
X168906136Y-75015516D01*
X168892419Y-74946556D01*
X168875374Y-74860866D01*
X168856559Y-74815442D01*
X168815034Y-74715190D01*
X168815027Y-74715177D01*
X168727426Y-74584074D01*
X168727423Y-74584070D01*
X168615929Y-74472576D01*
X168615925Y-74472573D01*
X168484822Y-74384972D01*
X168484809Y-74384965D01*
X168339138Y-74324627D01*
X168339126Y-74324624D01*
X168184482Y-74293863D01*
X168184479Y-74293863D01*
X168026795Y-74293863D01*
X168026792Y-74293863D01*
X167872147Y-74324624D01*
X167872135Y-74324627D01*
X167726464Y-74384965D01*
X167726451Y-74384972D01*
X167595348Y-74472573D01*
X167595344Y-74472576D01*
X167483850Y-74584070D01*
X167483847Y-74584074D01*
X167396246Y-74715177D01*
X167396239Y-74715190D01*
X167335901Y-74860861D01*
X167335898Y-74860873D01*
X167305137Y-75015516D01*
X161063693Y-75015516D01*
X161035132Y-74946562D01*
X161035125Y-74946549D01*
X160947524Y-74815446D01*
X160947521Y-74815442D01*
X160836027Y-74703948D01*
X160836023Y-74703945D01*
X160704920Y-74616344D01*
X160704907Y-74616337D01*
X160559236Y-74555999D01*
X160559224Y-74555996D01*
X160404580Y-74525235D01*
X160404577Y-74525235D01*
X160246893Y-74525235D01*
X160246890Y-74525235D01*
X160092245Y-74555996D01*
X160092233Y-74555999D01*
X159946562Y-74616337D01*
X159946549Y-74616344D01*
X159815446Y-74703945D01*
X159815442Y-74703948D01*
X159703948Y-74815442D01*
X159703945Y-74815446D01*
X159616344Y-74946549D01*
X159616337Y-74946562D01*
X159555999Y-75092233D01*
X159555996Y-75092245D01*
X159525235Y-75246888D01*
X159525235Y-75356538D01*
X159505550Y-75423577D01*
X159452746Y-75469332D01*
X159383588Y-75479276D01*
X159320032Y-75450251D01*
X159313554Y-75444219D01*
X159306420Y-75437085D01*
X159306416Y-75437082D01*
X159175313Y-75349481D01*
X159175300Y-75349474D01*
X159029629Y-75289136D01*
X159029617Y-75289133D01*
X158874973Y-75258372D01*
X158874970Y-75258372D01*
X158717286Y-75258372D01*
X158717283Y-75258372D01*
X158562638Y-75289133D01*
X158562626Y-75289136D01*
X158416955Y-75349474D01*
X158416942Y-75349481D01*
X158285839Y-75437082D01*
X158285835Y-75437085D01*
X158174341Y-75548579D01*
X158174338Y-75548583D01*
X158086737Y-75679686D01*
X158086730Y-75679699D01*
X158026392Y-75825370D01*
X158026389Y-75825382D01*
X157995628Y-75980025D01*
X155682135Y-75980025D01*
X155621789Y-75889711D01*
X155621786Y-75889707D01*
X155510292Y-75778213D01*
X155510288Y-75778210D01*
X155379185Y-75690609D01*
X155379172Y-75690602D01*
X155233501Y-75630264D01*
X155233489Y-75630261D01*
X155078845Y-75599500D01*
X155078842Y-75599500D01*
X154921158Y-75599500D01*
X154921155Y-75599500D01*
X154766510Y-75630261D01*
X154766498Y-75630264D01*
X154620827Y-75690602D01*
X154620814Y-75690609D01*
X154489711Y-75778210D01*
X154489707Y-75778213D01*
X154378213Y-75889707D01*
X154378210Y-75889711D01*
X154290609Y-76020814D01*
X154290602Y-76020827D01*
X154230264Y-76166498D01*
X154230261Y-76166510D01*
X154199500Y-76321153D01*
X152000500Y-76321153D01*
X152000500Y-73421153D01*
X158849500Y-73421153D01*
X158849500Y-73578846D01*
X158880261Y-73733489D01*
X158880264Y-73733501D01*
X158940602Y-73879172D01*
X158940609Y-73879185D01*
X159028210Y-74010288D01*
X159028213Y-74010292D01*
X159139707Y-74121786D01*
X159139711Y-74121789D01*
X159270814Y-74209390D01*
X159270827Y-74209397D01*
X159416498Y-74269735D01*
X159416503Y-74269737D01*
X159537792Y-74293863D01*
X159571153Y-74300499D01*
X159571156Y-74300500D01*
X159571158Y-74300500D01*
X159728844Y-74300500D01*
X159728845Y-74300499D01*
X159883497Y-74269737D01*
X160029179Y-74209394D01*
X160160289Y-74121789D01*
X160271789Y-74010289D01*
X160359394Y-73879179D01*
X160419737Y-73733497D01*
X160450500Y-73578842D01*
X160450500Y-73421158D01*
X160450500Y-73421155D01*
X160429236Y-73314258D01*
X160425635Y-73296153D01*
X179149500Y-73296153D01*
X179149500Y-73453846D01*
X179180261Y-73608489D01*
X179180264Y-73608501D01*
X179240602Y-73754172D01*
X179240609Y-73754185D01*
X179328210Y-73885288D01*
X179328213Y-73885292D01*
X179439707Y-73996786D01*
X179439711Y-73996789D01*
X179570814Y-74084390D01*
X179570827Y-74084397D01*
X179661101Y-74121789D01*
X179716503Y-74144737D01*
X179871153Y-74175499D01*
X179871156Y-74175500D01*
X179871158Y-74175500D01*
X180028844Y-74175500D01*
X180028845Y-74175499D01*
X180183497Y-74144737D01*
X180329179Y-74084394D01*
X180460289Y-73996789D01*
X180571789Y-73885289D01*
X180659394Y-73754179D01*
X180719737Y-73608497D01*
X180750500Y-73453842D01*
X180750500Y-73296158D01*
X180750500Y-73296155D01*
X180750499Y-73296153D01*
X180719738Y-73141510D01*
X180719737Y-73141503D01*
X180711170Y-73120821D01*
X180659397Y-72995827D01*
X180659390Y-72995814D01*
X180571789Y-72864711D01*
X180571786Y-72864707D01*
X180460292Y-72753213D01*
X180460288Y-72753210D01*
X180329185Y-72665609D01*
X180329172Y-72665602D01*
X180183501Y-72605264D01*
X180183489Y-72605261D01*
X180028845Y-72574500D01*
X180028842Y-72574500D01*
X179871158Y-72574500D01*
X179871155Y-72574500D01*
X179716510Y-72605261D01*
X179716498Y-72605264D01*
X179570827Y-72665602D01*
X179570814Y-72665609D01*
X179439711Y-72753210D01*
X179439707Y-72753213D01*
X179328213Y-72864707D01*
X179328210Y-72864711D01*
X179240609Y-72995814D01*
X179240602Y-72995827D01*
X179180264Y-73141498D01*
X179180261Y-73141510D01*
X179149500Y-73296153D01*
X160425635Y-73296153D01*
X160419737Y-73266503D01*
X160367959Y-73141498D01*
X160359397Y-73120827D01*
X160359390Y-73120814D01*
X160271789Y-72989711D01*
X160271786Y-72989707D01*
X160160292Y-72878213D01*
X160160288Y-72878210D01*
X160029185Y-72790609D01*
X160029172Y-72790602D01*
X159883501Y-72730264D01*
X159883489Y-72730261D01*
X159728845Y-72699500D01*
X159728842Y-72699500D01*
X159571158Y-72699500D01*
X159571155Y-72699500D01*
X159416510Y-72730261D01*
X159416498Y-72730264D01*
X159270827Y-72790602D01*
X159270814Y-72790609D01*
X159139711Y-72878210D01*
X159139707Y-72878213D01*
X159028213Y-72989707D01*
X159028210Y-72989711D01*
X158940609Y-73120814D01*
X158940602Y-73120827D01*
X158880264Y-73266498D01*
X158880261Y-73266510D01*
X158849500Y-73421153D01*
X152000500Y-73421153D01*
X152000500Y-71983653D01*
X168074500Y-71983653D01*
X168074500Y-72141346D01*
X168105261Y-72295989D01*
X168105264Y-72296001D01*
X168165602Y-72441672D01*
X168165609Y-72441685D01*
X168253210Y-72572788D01*
X168253213Y-72572792D01*
X168364707Y-72684286D01*
X168364711Y-72684289D01*
X168495814Y-72771890D01*
X168495827Y-72771897D01*
X168641498Y-72832235D01*
X168641503Y-72832237D01*
X168796153Y-72862999D01*
X168796156Y-72863000D01*
X168796158Y-72863000D01*
X168953844Y-72863000D01*
X168953845Y-72862999D01*
X169108497Y-72832237D01*
X169254179Y-72771894D01*
X169381109Y-72687082D01*
X169447786Y-72666204D01*
X169515166Y-72684688D01*
X169518891Y-72687082D01*
X169645814Y-72771890D01*
X169645827Y-72771897D01*
X169791498Y-72832235D01*
X169791503Y-72832237D01*
X169946153Y-72862999D01*
X169946156Y-72863000D01*
X169946158Y-72863000D01*
X170103844Y-72863000D01*
X170103845Y-72862999D01*
X170258497Y-72832237D01*
X170404179Y-72771894D01*
X170535289Y-72684289D01*
X170646789Y-72572789D01*
X170734394Y-72441679D01*
X170794737Y-72295997D01*
X170825500Y-72141342D01*
X170825500Y-71983658D01*
X170825500Y-71983655D01*
X170825499Y-71983653D01*
X170794738Y-71829010D01*
X170794737Y-71829003D01*
X170794735Y-71828998D01*
X170734397Y-71683327D01*
X170734390Y-71683314D01*
X170646789Y-71552211D01*
X170646786Y-71552207D01*
X170535292Y-71440713D01*
X170535288Y-71440710D01*
X170404185Y-71353109D01*
X170404172Y-71353102D01*
X170258501Y-71292764D01*
X170258489Y-71292761D01*
X170103845Y-71262000D01*
X170103842Y-71262000D01*
X169946158Y-71262000D01*
X169946155Y-71262000D01*
X169791510Y-71292761D01*
X169791498Y-71292764D01*
X169645827Y-71353102D01*
X169645814Y-71353109D01*
X169518891Y-71437917D01*
X169452213Y-71458795D01*
X169384833Y-71440310D01*
X169381109Y-71437917D01*
X169254185Y-71353109D01*
X169254172Y-71353102D01*
X169108501Y-71292764D01*
X169108489Y-71292761D01*
X168953845Y-71262000D01*
X168953842Y-71262000D01*
X168796158Y-71262000D01*
X168796155Y-71262000D01*
X168641510Y-71292761D01*
X168641498Y-71292764D01*
X168495827Y-71353102D01*
X168495814Y-71353109D01*
X168364711Y-71440710D01*
X168364707Y-71440713D01*
X168253213Y-71552207D01*
X168253210Y-71552211D01*
X168165609Y-71683314D01*
X168165602Y-71683327D01*
X168105264Y-71828998D01*
X168105261Y-71829010D01*
X168074500Y-71983653D01*
X152000500Y-71983653D01*
X152000500Y-70571153D01*
X157574500Y-70571153D01*
X157574500Y-70728846D01*
X157605261Y-70883489D01*
X157605264Y-70883501D01*
X157665602Y-71029172D01*
X157665609Y-71029185D01*
X157753210Y-71160288D01*
X157753213Y-71160292D01*
X157864707Y-71271786D01*
X157864711Y-71271789D01*
X157995814Y-71359390D01*
X157995827Y-71359397D01*
X158141498Y-71419735D01*
X158141503Y-71419737D01*
X158244930Y-71440310D01*
X158296153Y-71450499D01*
X158296156Y-71450500D01*
X158296158Y-71450500D01*
X158453844Y-71450500D01*
X158453845Y-71450499D01*
X158608497Y-71419737D01*
X158752011Y-71360292D01*
X158754172Y-71359397D01*
X158754172Y-71359396D01*
X158754179Y-71359394D01*
X158885289Y-71271789D01*
X158996789Y-71160289D01*
X159084394Y-71029179D01*
X159144737Y-70883497D01*
X159175500Y-70728842D01*
X159175500Y-70721153D01*
X172739500Y-70721153D01*
X172739500Y-70878846D01*
X172770261Y-71033489D01*
X172770264Y-71033501D01*
X172830602Y-71179172D01*
X172830609Y-71179185D01*
X172918210Y-71310288D01*
X172918213Y-71310292D01*
X173029707Y-71421786D01*
X173029711Y-71421789D01*
X173160814Y-71509390D01*
X173160827Y-71509397D01*
X173306498Y-71569735D01*
X173306503Y-71569737D01*
X173461153Y-71600499D01*
X173461156Y-71600500D01*
X173461158Y-71600500D01*
X173618844Y-71600500D01*
X173618845Y-71600499D01*
X173773497Y-71569737D01*
X173919179Y-71509394D01*
X173989360Y-71462499D01*
X174056036Y-71441622D01*
X174105701Y-71451040D01*
X174185605Y-71484138D01*
X174312555Y-71509390D01*
X174340255Y-71514900D01*
X174340258Y-71514901D01*
X174340260Y-71514901D01*
X174497946Y-71514901D01*
X174497947Y-71514900D01*
X174652599Y-71484138D01*
X174765268Y-71437468D01*
X174798274Y-71423798D01*
X174798274Y-71423797D01*
X174798281Y-71423795D01*
X174929391Y-71336190D01*
X175040891Y-71224690D01*
X175040893Y-71224686D01*
X175042027Y-71223553D01*
X175103350Y-71190068D01*
X175173042Y-71195052D01*
X175228976Y-71236923D01*
X175232811Y-71242344D01*
X175278207Y-71310284D01*
X175278213Y-71310292D01*
X175389707Y-71421786D01*
X175389711Y-71421789D01*
X175520814Y-71509390D01*
X175520827Y-71509397D01*
X175666498Y-71569735D01*
X175666503Y-71569737D01*
X175821153Y-71600499D01*
X175821156Y-71600500D01*
X175821158Y-71600500D01*
X175978844Y-71600500D01*
X175978845Y-71600499D01*
X176133497Y-71569737D01*
X176279179Y-71509394D01*
X176410289Y-71421789D01*
X176518664Y-71313413D01*
X176579985Y-71279930D01*
X176649677Y-71284914D01*
X176705611Y-71326785D01*
X176709438Y-71332193D01*
X176720497Y-71348745D01*
X176728212Y-71360291D01*
X176839707Y-71471786D01*
X176839711Y-71471789D01*
X176970814Y-71559390D01*
X176970827Y-71559397D01*
X177070060Y-71600500D01*
X177116503Y-71619737D01*
X177271153Y-71650499D01*
X177271156Y-71650500D01*
X177271158Y-71650500D01*
X177428844Y-71650500D01*
X177428845Y-71650499D01*
X177583497Y-71619737D01*
X177729179Y-71559394D01*
X177860289Y-71471789D01*
X177971789Y-71360289D01*
X178059394Y-71229179D01*
X178119737Y-71083497D01*
X178150500Y-70928842D01*
X178150500Y-70771158D01*
X178150500Y-70771155D01*
X178150499Y-70771153D01*
X178119737Y-70616503D01*
X178100955Y-70571158D01*
X178094586Y-70555781D01*
X178077452Y-70514416D01*
X178416821Y-70514416D01*
X178416821Y-70672109D01*
X178447582Y-70826752D01*
X178447585Y-70826764D01*
X178507923Y-70972435D01*
X178507930Y-70972448D01*
X178595531Y-71103551D01*
X178595534Y-71103555D01*
X178707028Y-71215049D01*
X178707032Y-71215052D01*
X178838135Y-71302653D01*
X178838148Y-71302660D01*
X178977279Y-71360289D01*
X178983824Y-71363000D01*
X179138474Y-71393762D01*
X179138477Y-71393763D01*
X179138479Y-71393763D01*
X179296165Y-71393763D01*
X179296166Y-71393762D01*
X179450818Y-71363000D01*
X179596500Y-71302657D01*
X179727610Y-71215052D01*
X179839110Y-71103552D01*
X179926715Y-70972442D01*
X179987058Y-70826760D01*
X180017821Y-70672105D01*
X180017821Y-70514421D01*
X180017821Y-70514418D01*
X180017820Y-70514416D01*
X180009147Y-70470814D01*
X179987058Y-70359766D01*
X179972381Y-70324332D01*
X179926718Y-70214090D01*
X179926711Y-70214077D01*
X179839110Y-70082974D01*
X179839107Y-70082970D01*
X179727613Y-69971476D01*
X179727609Y-69971473D01*
X179596506Y-69883872D01*
X179596493Y-69883865D01*
X179450822Y-69823527D01*
X179450810Y-69823524D01*
X179296166Y-69792763D01*
X179296163Y-69792763D01*
X179138479Y-69792763D01*
X179138476Y-69792763D01*
X178983831Y-69823524D01*
X178983819Y-69823527D01*
X178838148Y-69883865D01*
X178838135Y-69883872D01*
X178707032Y-69971473D01*
X178707028Y-69971476D01*
X178595534Y-70082970D01*
X178595531Y-70082974D01*
X178507930Y-70214077D01*
X178507923Y-70214090D01*
X178447585Y-70359761D01*
X178447582Y-70359773D01*
X178416821Y-70514416D01*
X178077452Y-70514416D01*
X178059395Y-70470823D01*
X178059390Y-70470814D01*
X177971789Y-70339711D01*
X177971786Y-70339707D01*
X177860292Y-70228213D01*
X177860288Y-70228210D01*
X177729185Y-70140609D01*
X177729172Y-70140602D01*
X177583501Y-70080264D01*
X177583489Y-70080261D01*
X177428845Y-70049500D01*
X177428842Y-70049500D01*
X177271158Y-70049500D01*
X177271155Y-70049500D01*
X177116510Y-70080261D01*
X177116498Y-70080264D01*
X176970827Y-70140602D01*
X176970814Y-70140609D01*
X176839711Y-70228210D01*
X176731336Y-70336585D01*
X176670013Y-70370069D01*
X176600321Y-70365085D01*
X176544388Y-70323213D01*
X176540552Y-70317792D01*
X176521790Y-70289712D01*
X176521786Y-70289707D01*
X176410292Y-70178213D01*
X176410288Y-70178210D01*
X176279185Y-70090609D01*
X176279172Y-70090602D01*
X176133501Y-70030264D01*
X176133489Y-70030261D01*
X175978845Y-69999500D01*
X175978842Y-69999500D01*
X175821158Y-69999500D01*
X175821155Y-69999500D01*
X175666510Y-70030261D01*
X175666498Y-70030264D01*
X175520827Y-70090602D01*
X175520814Y-70090609D01*
X175389711Y-70178210D01*
X175277073Y-70290848D01*
X175215750Y-70324332D01*
X175146058Y-70319348D01*
X175090125Y-70277476D01*
X175086302Y-70272075D01*
X175040891Y-70204112D01*
X175040889Y-70204109D01*
X174929394Y-70092614D01*
X174929390Y-70092611D01*
X174798287Y-70005010D01*
X174798274Y-70005003D01*
X174652603Y-69944665D01*
X174652591Y-69944662D01*
X174497947Y-69913901D01*
X174497944Y-69913901D01*
X174340260Y-69913901D01*
X174340257Y-69913901D01*
X174185612Y-69944662D01*
X174185600Y-69944665D01*
X174039929Y-70005003D01*
X174039918Y-70005009D01*
X173969740Y-70051901D01*
X173903063Y-70072778D01*
X173853399Y-70063359D01*
X173773497Y-70030263D01*
X173773489Y-70030261D01*
X173618845Y-69999500D01*
X173618842Y-69999500D01*
X173461158Y-69999500D01*
X173461155Y-69999500D01*
X173306510Y-70030261D01*
X173306498Y-70030264D01*
X173160827Y-70090602D01*
X173160814Y-70090609D01*
X173029711Y-70178210D01*
X173029707Y-70178213D01*
X172918213Y-70289707D01*
X172918210Y-70289711D01*
X172830609Y-70420814D01*
X172830602Y-70420827D01*
X172770264Y-70566498D01*
X172770261Y-70566510D01*
X172739500Y-70721153D01*
X159175500Y-70721153D01*
X159175500Y-70571158D01*
X159175500Y-70571155D01*
X159175499Y-70571153D01*
X159164214Y-70514421D01*
X159144737Y-70416503D01*
X159112929Y-70339711D01*
X159084397Y-70270827D01*
X159084390Y-70270814D01*
X158996789Y-70139711D01*
X158996786Y-70139707D01*
X158885292Y-70028213D01*
X158885288Y-70028210D01*
X158754185Y-69940609D01*
X158754172Y-69940602D01*
X158608501Y-69880264D01*
X158608489Y-69880261D01*
X158453845Y-69849500D01*
X158453842Y-69849500D01*
X158296158Y-69849500D01*
X158296155Y-69849500D01*
X158141510Y-69880261D01*
X158141498Y-69880264D01*
X157995827Y-69940602D01*
X157995814Y-69940609D01*
X157864711Y-70028210D01*
X157864707Y-70028213D01*
X157753213Y-70139707D01*
X157753210Y-70139711D01*
X157665609Y-70270814D01*
X157665602Y-70270827D01*
X157605264Y-70416498D01*
X157605261Y-70416510D01*
X157574500Y-70571153D01*
X152000500Y-70571153D01*
X152000500Y-68721153D01*
X156899500Y-68721153D01*
X156899500Y-68878846D01*
X156930261Y-69033489D01*
X156930264Y-69033501D01*
X156990602Y-69179172D01*
X156990609Y-69179185D01*
X157078210Y-69310288D01*
X157078213Y-69310292D01*
X157189707Y-69421786D01*
X157189711Y-69421789D01*
X157320814Y-69509390D01*
X157320827Y-69509397D01*
X157466498Y-69569735D01*
X157466503Y-69569737D01*
X157621153Y-69600499D01*
X157621156Y-69600500D01*
X157621158Y-69600500D01*
X157778844Y-69600500D01*
X157778845Y-69600499D01*
X157933497Y-69569737D01*
X158079179Y-69509394D01*
X158210289Y-69421789D01*
X158321789Y-69310289D01*
X158409394Y-69179179D01*
X158469737Y-69033497D01*
X158500500Y-68878842D01*
X158500500Y-68721158D01*
X158500500Y-68721155D01*
X158500499Y-68721153D01*
X158469738Y-68566510D01*
X158469737Y-68566503D01*
X158464629Y-68554172D01*
X158409397Y-68420827D01*
X158409390Y-68420814D01*
X158321789Y-68289711D01*
X158321786Y-68289707D01*
X158210292Y-68178213D01*
X158210288Y-68178210D01*
X158079185Y-68090609D01*
X158079172Y-68090602D01*
X157933501Y-68030264D01*
X157933489Y-68030261D01*
X157778845Y-67999500D01*
X157778842Y-67999500D01*
X157621158Y-67999500D01*
X157621155Y-67999500D01*
X157466510Y-68030261D01*
X157466498Y-68030264D01*
X157320827Y-68090602D01*
X157320814Y-68090609D01*
X157189711Y-68178210D01*
X157189707Y-68178213D01*
X157078213Y-68289707D01*
X157078210Y-68289711D01*
X156990609Y-68420814D01*
X156990602Y-68420827D01*
X156930264Y-68566498D01*
X156930261Y-68566510D01*
X156899500Y-68721153D01*
X152000500Y-68721153D01*
X152000500Y-63146153D01*
X162099500Y-63146153D01*
X162099500Y-63303846D01*
X162130261Y-63458489D01*
X162130264Y-63458501D01*
X162190602Y-63604172D01*
X162190609Y-63604185D01*
X162278210Y-63735288D01*
X162278213Y-63735292D01*
X162389707Y-63846786D01*
X162389711Y-63846789D01*
X162520814Y-63934390D01*
X162520827Y-63934397D01*
X162620060Y-63975500D01*
X162666503Y-63994737D01*
X162821153Y-64025499D01*
X162821156Y-64025500D01*
X162821158Y-64025500D01*
X162978844Y-64025500D01*
X162978845Y-64025499D01*
X163133497Y-63994737D01*
X163279179Y-63934394D01*
X163410289Y-63846789D01*
X163440170Y-63816907D01*
X163501491Y-63783423D01*
X163571183Y-63788407D01*
X163596742Y-63801487D01*
X163720814Y-63884390D01*
X163720827Y-63884397D01*
X163866498Y-63944735D01*
X163866503Y-63944737D01*
X163992176Y-63969735D01*
X164021153Y-63975499D01*
X164021156Y-63975500D01*
X164021158Y-63975500D01*
X164178844Y-63975500D01*
X164178845Y-63975499D01*
X164333497Y-63944737D01*
X164479179Y-63884394D01*
X164610289Y-63796789D01*
X164721789Y-63685289D01*
X164809394Y-63554179D01*
X164869737Y-63408497D01*
X164900500Y-63253842D01*
X164900500Y-63221153D01*
X168899500Y-63221153D01*
X168899500Y-63378846D01*
X168930261Y-63533489D01*
X168930264Y-63533501D01*
X168990602Y-63679172D01*
X168990609Y-63679185D01*
X169078210Y-63810288D01*
X169078213Y-63810292D01*
X169189707Y-63921786D01*
X169189711Y-63921789D01*
X169320814Y-64009390D01*
X169320827Y-64009397D01*
X169466498Y-64069735D01*
X169466503Y-64069737D01*
X169621153Y-64100499D01*
X169621156Y-64100500D01*
X169621158Y-64100500D01*
X169778844Y-64100500D01*
X169778845Y-64100499D01*
X169933497Y-64069737D01*
X170079179Y-64009394D01*
X170210289Y-63921789D01*
X170321789Y-63810289D01*
X170409394Y-63679179D01*
X170469737Y-63533497D01*
X170500500Y-63378842D01*
X170500500Y-63221158D01*
X170500500Y-63221155D01*
X170484209Y-63139258D01*
X170484209Y-63139257D01*
X170480608Y-63121153D01*
X172949500Y-63121153D01*
X172949500Y-63278846D01*
X172980261Y-63433489D01*
X172980264Y-63433501D01*
X173040602Y-63579172D01*
X173040609Y-63579185D01*
X173128210Y-63710288D01*
X173128213Y-63710292D01*
X173239707Y-63821786D01*
X173239711Y-63821789D01*
X173370814Y-63909390D01*
X173370827Y-63909397D01*
X173516498Y-63969735D01*
X173516503Y-63969737D01*
X173642176Y-63994735D01*
X173671153Y-64000499D01*
X173671156Y-64000500D01*
X173671158Y-64000500D01*
X173828844Y-64000500D01*
X173828845Y-64000499D01*
X173983497Y-63969737D01*
X174129179Y-63909394D01*
X174260289Y-63821789D01*
X174371789Y-63710289D01*
X174459394Y-63579179D01*
X174519737Y-63433497D01*
X174550500Y-63278842D01*
X174550500Y-63121158D01*
X174550500Y-63121155D01*
X174550499Y-63121153D01*
X174545527Y-63096158D01*
X174519737Y-62966503D01*
X174469752Y-62845827D01*
X174459397Y-62820827D01*
X174459390Y-62820814D01*
X174371789Y-62689711D01*
X174371786Y-62689707D01*
X174260292Y-62578213D01*
X174260288Y-62578210D01*
X174129185Y-62490609D01*
X174129172Y-62490602D01*
X173983501Y-62430264D01*
X173983489Y-62430261D01*
X173828845Y-62399500D01*
X173828842Y-62399500D01*
X173671158Y-62399500D01*
X173671155Y-62399500D01*
X173516510Y-62430261D01*
X173516498Y-62430264D01*
X173370827Y-62490602D01*
X173370814Y-62490609D01*
X173239711Y-62578210D01*
X173239707Y-62578213D01*
X173128213Y-62689707D01*
X173128210Y-62689711D01*
X173040609Y-62820814D01*
X173040602Y-62820827D01*
X172980264Y-62966498D01*
X172980261Y-62966510D01*
X172949500Y-63121153D01*
X170480608Y-63121153D01*
X170469738Y-63066510D01*
X170469737Y-63066503D01*
X170469735Y-63066498D01*
X170409397Y-62920827D01*
X170409390Y-62920814D01*
X170321789Y-62789711D01*
X170321786Y-62789707D01*
X170210292Y-62678213D01*
X170210288Y-62678210D01*
X170079185Y-62590609D01*
X170079172Y-62590602D01*
X169933501Y-62530264D01*
X169933489Y-62530261D01*
X169778845Y-62499500D01*
X169778842Y-62499500D01*
X169621158Y-62499500D01*
X169621155Y-62499500D01*
X169466510Y-62530261D01*
X169466498Y-62530264D01*
X169320827Y-62590602D01*
X169320814Y-62590609D01*
X169189711Y-62678210D01*
X169189707Y-62678213D01*
X169078213Y-62789707D01*
X169078210Y-62789711D01*
X168990609Y-62920814D01*
X168990602Y-62920827D01*
X168930264Y-63066498D01*
X168930261Y-63066510D01*
X168899500Y-63221153D01*
X164900500Y-63221153D01*
X164900500Y-63096158D01*
X164900500Y-63096155D01*
X164900499Y-63096153D01*
X164879684Y-62991510D01*
X164869737Y-62941503D01*
X164861170Y-62920821D01*
X164809397Y-62795827D01*
X164809390Y-62795814D01*
X164721789Y-62664711D01*
X164721786Y-62664707D01*
X164610292Y-62553213D01*
X164610288Y-62553210D01*
X164479185Y-62465609D01*
X164479172Y-62465602D01*
X164333501Y-62405264D01*
X164333489Y-62405261D01*
X164178845Y-62374500D01*
X164178842Y-62374500D01*
X164021158Y-62374500D01*
X164021155Y-62374500D01*
X163866510Y-62405261D01*
X163866498Y-62405264D01*
X163720827Y-62465602D01*
X163720814Y-62465609D01*
X163589711Y-62553210D01*
X163559828Y-62583093D01*
X163498504Y-62616577D01*
X163428813Y-62611591D01*
X163403257Y-62598512D01*
X163279185Y-62515609D01*
X163279172Y-62515602D01*
X163133501Y-62455264D01*
X163133489Y-62455261D01*
X162978845Y-62424500D01*
X162978842Y-62424500D01*
X162821158Y-62424500D01*
X162821155Y-62424500D01*
X162666510Y-62455261D01*
X162666498Y-62455264D01*
X162520827Y-62515602D01*
X162520814Y-62515609D01*
X162389711Y-62603210D01*
X162389707Y-62603213D01*
X162278213Y-62714707D01*
X162278210Y-62714711D01*
X162190609Y-62845814D01*
X162190602Y-62845827D01*
X162130264Y-62991498D01*
X162130261Y-62991510D01*
X162099500Y-63146153D01*
X152000500Y-63146153D01*
X152000500Y-61421153D01*
X164699500Y-61421153D01*
X164699500Y-61578846D01*
X164730261Y-61733489D01*
X164730264Y-61733501D01*
X164790602Y-61879172D01*
X164790609Y-61879185D01*
X164878210Y-62010288D01*
X164878213Y-62010292D01*
X164989707Y-62121786D01*
X164989711Y-62121789D01*
X165120814Y-62209390D01*
X165120827Y-62209397D01*
X165266498Y-62269735D01*
X165266503Y-62269737D01*
X165421153Y-62300499D01*
X165421156Y-62300500D01*
X165421158Y-62300500D01*
X165578844Y-62300500D01*
X165578845Y-62300499D01*
X165733497Y-62269737D01*
X165879179Y-62209394D01*
X166010289Y-62121789D01*
X166121789Y-62010289D01*
X166209394Y-61879179D01*
X166269737Y-61733497D01*
X166300500Y-61578842D01*
X166300500Y-61421158D01*
X166300500Y-61421155D01*
X166300499Y-61421153D01*
X166269737Y-61266503D01*
X166269735Y-61266498D01*
X166209397Y-61120827D01*
X166209390Y-61120814D01*
X166154695Y-61038957D01*
X166121789Y-60989711D01*
X166121786Y-60989707D01*
X166108232Y-60976153D01*
X178044500Y-60976153D01*
X178044500Y-61133846D01*
X178075261Y-61288489D01*
X178075264Y-61288501D01*
X178135602Y-61434172D01*
X178135609Y-61434185D01*
X178223210Y-61565288D01*
X178223213Y-61565292D01*
X178334709Y-61676788D01*
X178335440Y-61677388D01*
X178335720Y-61677799D01*
X178339018Y-61681097D01*
X178338392Y-61681722D01*
X178374779Y-61735131D01*
X178376654Y-61804975D01*
X178359885Y-61842136D01*
X178290608Y-61945816D01*
X178290602Y-61945827D01*
X178230264Y-62091498D01*
X178230261Y-62091510D01*
X178199500Y-62246153D01*
X178199500Y-62403846D01*
X178230261Y-62558489D01*
X178230264Y-62558501D01*
X178290602Y-62704172D01*
X178290609Y-62704185D01*
X178378210Y-62835288D01*
X178378213Y-62835292D01*
X178489707Y-62946786D01*
X178489711Y-62946789D01*
X178620814Y-63034390D01*
X178620827Y-63034397D01*
X178698356Y-63066510D01*
X178766503Y-63094737D01*
X178921153Y-63125499D01*
X178921156Y-63125500D01*
X178921158Y-63125500D01*
X179078844Y-63125500D01*
X179078845Y-63125499D01*
X179233497Y-63094737D01*
X179379179Y-63034394D01*
X179510289Y-62946789D01*
X179621789Y-62835289D01*
X179709394Y-62704179D01*
X179715389Y-62689707D01*
X179725744Y-62664707D01*
X179769737Y-62558497D01*
X179800500Y-62403842D01*
X179800500Y-62246158D01*
X179800500Y-62246155D01*
X179800499Y-62246153D01*
X179775761Y-62121789D01*
X179769737Y-62091503D01*
X179736099Y-62010292D01*
X179709397Y-61945827D01*
X179709390Y-61945814D01*
X179621789Y-61814711D01*
X179621786Y-61814707D01*
X179510292Y-61703213D01*
X179509557Y-61702610D01*
X179509274Y-61702195D01*
X179505982Y-61698903D01*
X179506606Y-61698278D01*
X179470220Y-61644866D01*
X179468346Y-61575021D01*
X179485115Y-61537862D01*
X179554394Y-61434179D01*
X179614737Y-61288497D01*
X179645500Y-61133842D01*
X179645500Y-60976158D01*
X179645500Y-60976155D01*
X179645499Y-60976153D01*
X179614738Y-60821510D01*
X179614737Y-60821503D01*
X179614735Y-60821498D01*
X179554397Y-60675827D01*
X179554390Y-60675814D01*
X179466789Y-60544711D01*
X179466786Y-60544707D01*
X179355292Y-60433213D01*
X179355288Y-60433210D01*
X179224185Y-60345609D01*
X179224172Y-60345602D01*
X179078501Y-60285264D01*
X179078489Y-60285261D01*
X178923845Y-60254500D01*
X178923842Y-60254500D01*
X178766158Y-60254500D01*
X178766155Y-60254500D01*
X178611510Y-60285261D01*
X178611498Y-60285264D01*
X178465827Y-60345602D01*
X178465814Y-60345609D01*
X178334711Y-60433210D01*
X178334707Y-60433213D01*
X178223213Y-60544707D01*
X178223210Y-60544711D01*
X178135609Y-60675814D01*
X178135602Y-60675827D01*
X178075264Y-60821498D01*
X178075261Y-60821510D01*
X178044500Y-60976153D01*
X166108232Y-60976153D01*
X166010292Y-60878213D01*
X166010288Y-60878210D01*
X165879185Y-60790609D01*
X165879172Y-60790602D01*
X165733501Y-60730264D01*
X165733489Y-60730261D01*
X165578845Y-60699500D01*
X165578842Y-60699500D01*
X165421158Y-60699500D01*
X165421155Y-60699500D01*
X165266510Y-60730261D01*
X165266498Y-60730264D01*
X165120827Y-60790602D01*
X165120814Y-60790609D01*
X164989711Y-60878210D01*
X164989707Y-60878213D01*
X164878213Y-60989707D01*
X164878210Y-60989711D01*
X164790609Y-61120814D01*
X164790602Y-61120827D01*
X164730264Y-61266498D01*
X164730261Y-61266510D01*
X164699500Y-61421153D01*
X152000500Y-61421153D01*
X152000500Y-58321153D01*
X165524500Y-58321153D01*
X165524500Y-58478846D01*
X165555261Y-58633489D01*
X165555264Y-58633501D01*
X165615602Y-58779172D01*
X165615609Y-58779185D01*
X165703210Y-58910288D01*
X165703213Y-58910292D01*
X165814707Y-59021786D01*
X165814711Y-59021789D01*
X165945814Y-59109390D01*
X165945827Y-59109397D01*
X166091498Y-59169735D01*
X166091503Y-59169737D01*
X166246153Y-59200499D01*
X166246156Y-59200500D01*
X166246158Y-59200500D01*
X166403844Y-59200500D01*
X166403845Y-59200499D01*
X166558497Y-59169737D01*
X166704179Y-59109394D01*
X166835289Y-59021789D01*
X166874818Y-58982260D01*
X166936141Y-58948774D01*
X167005832Y-58953758D01*
X167050181Y-58982259D01*
X167064708Y-58996786D01*
X167064712Y-58996790D01*
X167195814Y-59084390D01*
X167195827Y-59084397D01*
X167341498Y-59144735D01*
X167341503Y-59144737D01*
X167467176Y-59169735D01*
X167496153Y-59175499D01*
X167496156Y-59175500D01*
X167496158Y-59175500D01*
X167653844Y-59175500D01*
X167653845Y-59175499D01*
X167808497Y-59144737D01*
X167954179Y-59084394D01*
X168085289Y-58996789D01*
X168196789Y-58885289D01*
X168239644Y-58821153D01*
X173199500Y-58821153D01*
X173199500Y-58978846D01*
X173230261Y-59133489D01*
X173230264Y-59133501D01*
X173290602Y-59279172D01*
X173290609Y-59279185D01*
X173378210Y-59410288D01*
X173378213Y-59410292D01*
X173489707Y-59521786D01*
X173489711Y-59521789D01*
X173620814Y-59609390D01*
X173620827Y-59609397D01*
X173766498Y-59669735D01*
X173766503Y-59669737D01*
X173921153Y-59700499D01*
X173921156Y-59700500D01*
X173921158Y-59700500D01*
X174078844Y-59700500D01*
X174078845Y-59700499D01*
X174233497Y-59669737D01*
X174379179Y-59609394D01*
X174510289Y-59521789D01*
X174621789Y-59410289D01*
X174709394Y-59279179D01*
X174769737Y-59133497D01*
X174800500Y-58978842D01*
X174800500Y-58821158D01*
X174800500Y-58821155D01*
X174800499Y-58821153D01*
X174778549Y-58710804D01*
X174769737Y-58666503D01*
X174709794Y-58521786D01*
X174709397Y-58520827D01*
X174709390Y-58520814D01*
X174621789Y-58389711D01*
X174621786Y-58389707D01*
X174510292Y-58278213D01*
X174510288Y-58278210D01*
X174379185Y-58190609D01*
X174379172Y-58190602D01*
X174233501Y-58130264D01*
X174233489Y-58130261D01*
X174078845Y-58099500D01*
X174078842Y-58099500D01*
X173921158Y-58099500D01*
X173921155Y-58099500D01*
X173766510Y-58130261D01*
X173766498Y-58130264D01*
X173620827Y-58190602D01*
X173620814Y-58190609D01*
X173489711Y-58278210D01*
X173489707Y-58278213D01*
X173378213Y-58389707D01*
X173378210Y-58389711D01*
X173290609Y-58520814D01*
X173290602Y-58520827D01*
X173230264Y-58666498D01*
X173230261Y-58666510D01*
X173199500Y-58821153D01*
X168239644Y-58821153D01*
X168283439Y-58755609D01*
X168286532Y-58753024D01*
X168287976Y-58749261D01*
X168313119Y-58730804D01*
X168337051Y-58710804D01*
X168341983Y-58709616D01*
X168344300Y-58707916D01*
X168361820Y-58704840D01*
X168378857Y-58700738D01*
X168382690Y-58700500D01*
X168478842Y-58700500D01*
X168633497Y-58669737D01*
X168779179Y-58609394D01*
X168910289Y-58521789D01*
X169021789Y-58410289D01*
X169109394Y-58279179D01*
X169169737Y-58133497D01*
X169200500Y-57978842D01*
X169200500Y-57821158D01*
X169200500Y-57821155D01*
X169200499Y-57821153D01*
X169174531Y-57690606D01*
X169169737Y-57666503D01*
X169169367Y-57665609D01*
X169126666Y-57562518D01*
X169109532Y-57521153D01*
X176499500Y-57521153D01*
X176499500Y-57678846D01*
X176530261Y-57833489D01*
X176530264Y-57833501D01*
X176590602Y-57979172D01*
X176590609Y-57979185D01*
X176678210Y-58110288D01*
X176678213Y-58110292D01*
X176789707Y-58221786D01*
X176789711Y-58221789D01*
X176920814Y-58309390D01*
X176920827Y-58309397D01*
X177066498Y-58369735D01*
X177066503Y-58369737D01*
X177221153Y-58400499D01*
X177221156Y-58400500D01*
X177221158Y-58400500D01*
X177378844Y-58400500D01*
X177378845Y-58400499D01*
X177533497Y-58369737D01*
X177679179Y-58309394D01*
X177810289Y-58221789D01*
X177921789Y-58110289D01*
X178009394Y-57979179D01*
X178069737Y-57833497D01*
X178100500Y-57678842D01*
X178100500Y-57521158D01*
X178100500Y-57521155D01*
X178100499Y-57521153D01*
X178074353Y-57389711D01*
X178069737Y-57366503D01*
X178034833Y-57282237D01*
X178009397Y-57220827D01*
X178009390Y-57220814D01*
X177921789Y-57089711D01*
X177921786Y-57089707D01*
X177810292Y-56978213D01*
X177810288Y-56978210D01*
X177679185Y-56890609D01*
X177679172Y-56890602D01*
X177533501Y-56830264D01*
X177533489Y-56830261D01*
X177378845Y-56799500D01*
X177378842Y-56799500D01*
X177221158Y-56799500D01*
X177221155Y-56799500D01*
X177066510Y-56830261D01*
X177066498Y-56830264D01*
X176920827Y-56890602D01*
X176920814Y-56890609D01*
X176789711Y-56978210D01*
X176789707Y-56978213D01*
X176678213Y-57089707D01*
X176678210Y-57089711D01*
X176590609Y-57220814D01*
X176590602Y-57220827D01*
X176530264Y-57366498D01*
X176530261Y-57366510D01*
X176499500Y-57521153D01*
X169109532Y-57521153D01*
X169109395Y-57520823D01*
X169109390Y-57520814D01*
X169021789Y-57389711D01*
X169021786Y-57389707D01*
X168910292Y-57278213D01*
X168910288Y-57278210D01*
X168779185Y-57190609D01*
X168779172Y-57190602D01*
X168633501Y-57130264D01*
X168633489Y-57130261D01*
X168478845Y-57099500D01*
X168478842Y-57099500D01*
X168321158Y-57099500D01*
X168321155Y-57099500D01*
X168166510Y-57130261D01*
X168166498Y-57130264D01*
X168020827Y-57190602D01*
X168020814Y-57190609D01*
X167889711Y-57278210D01*
X167889707Y-57278213D01*
X167778213Y-57389707D01*
X167778207Y-57389715D01*
X167691562Y-57519390D01*
X167637950Y-57564196D01*
X167588460Y-57574500D01*
X167496155Y-57574500D01*
X167341510Y-57605261D01*
X167341498Y-57605264D01*
X167195827Y-57665602D01*
X167195814Y-57665609D01*
X167064711Y-57753210D01*
X167064706Y-57753214D01*
X167025179Y-57792741D01*
X166963856Y-57826226D01*
X166894164Y-57821240D01*
X166849817Y-57792739D01*
X166835289Y-57778211D01*
X166835288Y-57778210D01*
X166835287Y-57778209D01*
X166704185Y-57690609D01*
X166704172Y-57690602D01*
X166558501Y-57630264D01*
X166558489Y-57630261D01*
X166403845Y-57599500D01*
X166403842Y-57599500D01*
X166246158Y-57599500D01*
X166246155Y-57599500D01*
X166091510Y-57630261D01*
X166091498Y-57630264D01*
X165945827Y-57690602D01*
X165945814Y-57690609D01*
X165814711Y-57778210D01*
X165814707Y-57778213D01*
X165703213Y-57889707D01*
X165703210Y-57889711D01*
X165615609Y-58020814D01*
X165615602Y-58020827D01*
X165555264Y-58166498D01*
X165555261Y-58166510D01*
X165524500Y-58321153D01*
X152000500Y-58321153D01*
X152000500Y-56433653D01*
X159987000Y-56433653D01*
X159987000Y-56591346D01*
X160017761Y-56745989D01*
X160017764Y-56746001D01*
X160078102Y-56891672D01*
X160078109Y-56891685D01*
X160165710Y-57022788D01*
X160165713Y-57022792D01*
X160277207Y-57134286D01*
X160277211Y-57134289D01*
X160408314Y-57221890D01*
X160408327Y-57221897D01*
X160544281Y-57278210D01*
X160554003Y-57282237D01*
X160708653Y-57312999D01*
X160708656Y-57313000D01*
X160708658Y-57313000D01*
X160866344Y-57313000D01*
X160866345Y-57312999D01*
X161020997Y-57282237D01*
X161166679Y-57221894D01*
X161297789Y-57134289D01*
X161409289Y-57022789D01*
X161496894Y-56891679D01*
X161497339Y-56890606D01*
X161522334Y-56830261D01*
X161557237Y-56745997D01*
X161588000Y-56591342D01*
X161588000Y-56433658D01*
X161588000Y-56433655D01*
X161587999Y-56433653D01*
X161557238Y-56279010D01*
X161557237Y-56279003D01*
X161557235Y-56278998D01*
X161496897Y-56133327D01*
X161496890Y-56133314D01*
X161409289Y-56002211D01*
X161409286Y-56002207D01*
X161297792Y-55890713D01*
X161297788Y-55890710D01*
X161166685Y-55803109D01*
X161166672Y-55803102D01*
X161021001Y-55742764D01*
X161020989Y-55742761D01*
X160866345Y-55712000D01*
X160866342Y-55712000D01*
X160708658Y-55712000D01*
X160708655Y-55712000D01*
X160554010Y-55742761D01*
X160553998Y-55742764D01*
X160408327Y-55803102D01*
X160408314Y-55803109D01*
X160277211Y-55890710D01*
X160277207Y-55890713D01*
X160165713Y-56002207D01*
X160165710Y-56002211D01*
X160078109Y-56133314D01*
X160078102Y-56133327D01*
X160017764Y-56278998D01*
X160017761Y-56279010D01*
X159987000Y-56433653D01*
X152000500Y-56433653D01*
X152000500Y-54521153D01*
X158349500Y-54521153D01*
X158349500Y-54678846D01*
X158380261Y-54833489D01*
X158380264Y-54833501D01*
X158440602Y-54979172D01*
X158440609Y-54979185D01*
X158528210Y-55110288D01*
X158528213Y-55110292D01*
X158639707Y-55221786D01*
X158639711Y-55221789D01*
X158770814Y-55309390D01*
X158770827Y-55309397D01*
X158916498Y-55369735D01*
X158916503Y-55369737D01*
X159071153Y-55400499D01*
X159071156Y-55400500D01*
X159071158Y-55400500D01*
X159228844Y-55400500D01*
X159228845Y-55400499D01*
X159383497Y-55369737D01*
X159529179Y-55309394D01*
X159660289Y-55221789D01*
X159771789Y-55110289D01*
X159859394Y-54979179D01*
X159919737Y-54833497D01*
X159950500Y-54678842D01*
X159950500Y-54521158D01*
X159950500Y-54521155D01*
X159950499Y-54521153D01*
X159933959Y-54438000D01*
X159919737Y-54366503D01*
X159875327Y-54259286D01*
X159859397Y-54220827D01*
X159859390Y-54220814D01*
X159771789Y-54089711D01*
X159771786Y-54089707D01*
X159660292Y-53978213D01*
X159660288Y-53978210D01*
X159529185Y-53890609D01*
X159529172Y-53890602D01*
X159383501Y-53830264D01*
X159383489Y-53830261D01*
X159228845Y-53799500D01*
X159228842Y-53799500D01*
X159071158Y-53799500D01*
X159071155Y-53799500D01*
X158916510Y-53830261D01*
X158916498Y-53830264D01*
X158770827Y-53890602D01*
X158770814Y-53890609D01*
X158639711Y-53978210D01*
X158639707Y-53978213D01*
X158528213Y-54089707D01*
X158528210Y-54089711D01*
X158440609Y-54220814D01*
X158440602Y-54220827D01*
X158380264Y-54366498D01*
X158380261Y-54366510D01*
X158349500Y-54521153D01*
X152000500Y-54521153D01*
X152000500Y-52824500D01*
X152020185Y-52757461D01*
X152072989Y-52711706D01*
X152124500Y-52700500D01*
X156035447Y-52700500D01*
X156102486Y-52720185D01*
X156148241Y-52772989D01*
X156159447Y-52824500D01*
X156159447Y-52889025D01*
X156190208Y-53043668D01*
X156190211Y-53043680D01*
X156250549Y-53189351D01*
X156250556Y-53189364D01*
X156338157Y-53320467D01*
X156338160Y-53320471D01*
X156449654Y-53431965D01*
X156449658Y-53431968D01*
X156580761Y-53519569D01*
X156580774Y-53519576D01*
X156726445Y-53579914D01*
X156726450Y-53579916D01*
X156881100Y-53610678D01*
X156881103Y-53610679D01*
X156881105Y-53610679D01*
X157038791Y-53610679D01*
X157038792Y-53610678D01*
X157193444Y-53579916D01*
X157339126Y-53519573D01*
X157470236Y-53431968D01*
X157581736Y-53320468D01*
X157669341Y-53189358D01*
X157729684Y-53043676D01*
X157760447Y-52889021D01*
X157760447Y-52731337D01*
X157760447Y-52731334D01*
X157760446Y-52731332D01*
X157754202Y-52699943D01*
X157729684Y-52576682D01*
X157724587Y-52564376D01*
X157703444Y-52513332D01*
X157695975Y-52443863D01*
X157727250Y-52381384D01*
X157749115Y-52362778D01*
X157861020Y-52288005D01*
X157885289Y-52271789D01*
X157996789Y-52160289D01*
X158084394Y-52029179D01*
X158144737Y-51883497D01*
X158175500Y-51728842D01*
X158175500Y-51571158D01*
X158175500Y-51571155D01*
X158175499Y-51571153D01*
X158144738Y-51416510D01*
X158144737Y-51416503D01*
X158128876Y-51378210D01*
X158084397Y-51270827D01*
X158084390Y-51270814D01*
X157996789Y-51139711D01*
X157996786Y-51139707D01*
X157885292Y-51028213D01*
X157885288Y-51028210D01*
X157754185Y-50940609D01*
X157754172Y-50940602D01*
X157608501Y-50880264D01*
X157608489Y-50880261D01*
X157453845Y-50849500D01*
X157453842Y-50849500D01*
X157296158Y-50849500D01*
X157296155Y-50849500D01*
X157223691Y-50863914D01*
X157154100Y-50857687D01*
X157098922Y-50814824D01*
X157075678Y-50748934D01*
X157075500Y-50742297D01*
X157075500Y-49524000D01*
X157095185Y-49456961D01*
X157147989Y-49411206D01*
X157199500Y-49400000D01*
X159650500Y-49400000D01*
X159717539Y-49419685D01*
G37*
%TD.AperFunction*%
%TD*%
M02*
