%TF.GenerationSoftware,KiCad,Pcbnew,10.0.4*%
%TF.CreationDate,2026-09-22T22:30:39+02:00*%
%TF.ProjectId,dongle,646f6e67-6c65-42e6-9b69-6361645f7063,rev?*%
%TF.SameCoordinates,Original*%
%TF.FileFunction,Paste,Top*%
%TF.FilePolarity,Positive*%
%FSLAX46Y46*%
G04 Gerber Fmt 4.6, Leading zero omitted, Abs format (unit mm)*
G04 Created by KiCad (PCBNEW 10.0.4) date 2026-09-22 22:30:39*
%MOMM*%
%LPD*%
G01*
G04 APERTURE LIST*
G04 Aperture macros list*
%AMRoundRect*
0 Rectangle with rounded corners*
0 $1 Rounding radius*
0 $2 $3 $4 $5 $6 $7 $8 $9 X,Y pos of 4 corners*
0 Add a 4 corners polygon primitive as box body*
4,1,4,$2,$3,$4,$5,$6,$7,$8,$9,$2,$3,0*
0 Add four circle primitives for the rounded corners*
1,1,$1+$1,$2,$3*
1,1,$1+$1,$4,$5*
1,1,$1+$1,$6,$7*
1,1,$1+$1,$8,$9*
0 Add four rect primitives between the rounded corners*
20,1,$1+$1,$2,$3,$4,$5,0*
20,1,$1+$1,$4,$5,$6,$7,0*
20,1,$1+$1,$6,$7,$8,$9,0*
20,1,$1+$1,$8,$9,$2,$3,0*%
G04 Aperture macros list end*
%ADD10RoundRect,0.250000X0.312500X0.625000X-0.312500X0.625000X-0.312500X-0.625000X0.312500X-0.625000X0*%
%ADD11RoundRect,0.250000X0.625000X-0.312500X0.625000X0.312500X-0.625000X0.312500X-0.625000X-0.312500X0*%
%ADD12RoundRect,0.200000X0.200000X0.275000X-0.200000X0.275000X-0.200000X-0.275000X0.200000X-0.275000X0*%
%ADD13RoundRect,0.200000X-0.275000X0.200000X-0.275000X-0.200000X0.275000X-0.200000X0.275000X0.200000X0*%
%ADD14RoundRect,0.225000X0.225000X0.250000X-0.225000X0.250000X-0.225000X-0.250000X0.225000X-0.250000X0*%
%ADD15R,0.900000X1.500000*%
%ADD16R,1.500000X0.900000*%
%ADD17R,0.900000X0.900000*%
%ADD18RoundRect,0.200000X0.275000X-0.200000X0.275000X0.200000X-0.275000X0.200000X-0.275000X-0.200000X0*%
%ADD19RoundRect,0.200000X-0.200000X-0.275000X0.200000X-0.275000X0.200000X0.275000X-0.200000X0.275000X0*%
%ADD20RoundRect,0.225000X0.250000X-0.225000X0.250000X0.225000X-0.250000X0.225000X-0.250000X-0.225000X0*%
%ADD21RoundRect,0.250000X-0.520000X0.520000X-0.520000X-0.520000X0.520000X-0.520000X0.520000X0.520000X0*%
%ADD22C,1.540000*%
%ADD23RoundRect,0.087500X-0.087500X0.425000X-0.087500X-0.425000X0.087500X-0.425000X0.087500X0.425000X0*%
%ADD24RoundRect,0.150000X0.150000X-0.825000X0.150000X0.825000X-0.150000X0.825000X-0.150000X-0.825000X0*%
G04 APERTURE END LIST*
D10*
%TO.C,C12*%
X176662500Y-64800000D03*
X173737500Y-64800000D03*
%TD*%
D11*
%TO.C,C9*%
X177300000Y-56562500D03*
X177300000Y-53637500D03*
%TD*%
D12*
%TO.C,R22*%
X177425000Y-60000000D03*
X175775000Y-60000000D03*
%TD*%
D13*
%TO.C,R16*%
X175200000Y-68375000D03*
X175200000Y-70025000D03*
%TD*%
D12*
%TO.C,R1*%
X161325000Y-62000000D03*
X159675000Y-62000000D03*
%TD*%
D14*
%TO.C,C4*%
X171075000Y-62000000D03*
X169525000Y-62000000D03*
%TD*%
D15*
%TO.C,U7*%
X170920000Y-64700000D03*
X169650000Y-64700000D03*
X168380000Y-64700000D03*
X167110000Y-64700000D03*
X165840000Y-64700000D03*
X164570000Y-64700000D03*
X163300000Y-64700000D03*
X162030000Y-64700000D03*
X160760000Y-64700000D03*
X159490000Y-64700000D03*
X158220000Y-64700000D03*
X156950000Y-64700000D03*
X155680000Y-64700000D03*
X154410000Y-64700000D03*
D16*
X153160000Y-66465000D03*
X153160000Y-67735000D03*
X153160000Y-69005000D03*
X153160000Y-70275000D03*
X153160000Y-71545000D03*
X153160000Y-72815000D03*
X153160000Y-74085000D03*
X153160000Y-75355000D03*
X153160000Y-76625000D03*
X153160000Y-77895000D03*
X153160000Y-79165000D03*
X153160000Y-80435000D03*
D15*
X154410000Y-82200000D03*
X155680000Y-82200000D03*
X156950000Y-82200000D03*
X158220000Y-82200000D03*
X159490000Y-82200000D03*
X160760000Y-82200000D03*
X162030000Y-82200000D03*
X163300000Y-82200000D03*
X164570000Y-82200000D03*
X165840000Y-82200000D03*
X167110000Y-82200000D03*
X168380000Y-82200000D03*
X169650000Y-82200000D03*
X170920000Y-82200000D03*
D17*
X164600000Y-70550000D03*
X163200000Y-70550000D03*
X161800000Y-70550000D03*
X164600000Y-71950000D03*
X163200000Y-71950000D03*
X161800000Y-71950000D03*
X164600000Y-73350000D03*
X163200000Y-73350000D03*
X161800000Y-73350000D03*
%TD*%
D13*
%TO.C,R4*%
X173600000Y-68375000D03*
X173600000Y-70025000D03*
%TD*%
D18*
%TO.C,R5*%
X176700000Y-80725000D03*
X176700000Y-79075000D03*
%TD*%
D13*
%TO.C,R8*%
X176900000Y-74375000D03*
X176900000Y-76025000D03*
%TD*%
D19*
%TO.C,R2*%
X162875000Y-62000000D03*
X164525000Y-62000000D03*
%TD*%
D18*
%TO.C,R3*%
X175200000Y-80725000D03*
X175200000Y-79075000D03*
%TD*%
D20*
%TO.C,C5*%
X159300000Y-60300000D03*
X159300000Y-58750000D03*
%TD*%
D21*
%TO.C,J1*%
X180300000Y-58515000D03*
D22*
X180300000Y-61055000D03*
X180300000Y-63595000D03*
X180300000Y-66135000D03*
%TD*%
D14*
%TO.C,C1*%
X167975000Y-62000000D03*
X166425000Y-62000000D03*
%TD*%
D13*
%TO.C,R19*%
X178300000Y-63675000D03*
X178300000Y-65325000D03*
%TD*%
D11*
%TO.C,C10*%
X174900000Y-56562500D03*
X174900000Y-53637500D03*
%TD*%
D12*
%TO.C,R18*%
X177425000Y-58500000D03*
X175775000Y-58500000D03*
%TD*%
D14*
%TO.C,C7*%
X177375000Y-62000000D03*
X175825000Y-62000000D03*
%TD*%
D13*
%TO.C,R6*%
X173700000Y-74375000D03*
X173700000Y-76025000D03*
%TD*%
%TO.C,R7*%
X173700000Y-79075000D03*
X173700000Y-80725000D03*
%TD*%
D23*
%TO.C,Q1*%
X173050000Y-56562500D03*
X172400000Y-56562500D03*
X171750000Y-56562500D03*
X171750000Y-58237500D03*
X172400000Y-58237500D03*
X173050000Y-58237500D03*
%TD*%
D24*
%TO.C,U4*%
X161180000Y-59850000D03*
X162450000Y-59850000D03*
X163720000Y-59850000D03*
X164990000Y-59850000D03*
X166260000Y-59850000D03*
X167530000Y-59850000D03*
X168800000Y-59850000D03*
X170070000Y-59850000D03*
X170070000Y-54900000D03*
X168800000Y-54900000D03*
X167530000Y-54900000D03*
X166260000Y-54900000D03*
X164990000Y-54900000D03*
X163720000Y-54900000D03*
X162450000Y-54900000D03*
X161180000Y-54900000D03*
%TD*%
D18*
%TO.C,R20*%
X175300000Y-76025000D03*
X175300000Y-74375000D03*
%TD*%
D13*
%TO.C,R17*%
X178400000Y-68375000D03*
X178400000Y-70025000D03*
%TD*%
%TO.C,R15*%
X176800000Y-68375000D03*
X176800000Y-70025000D03*
%TD*%
D19*
%TO.C,R23*%
X172775000Y-60000000D03*
X174425000Y-60000000D03*
%TD*%
D13*
%TO.C,R21*%
X159300000Y-55650000D03*
X159300000Y-57300000D03*
%TD*%
D11*
%TO.C,C8*%
X179700000Y-56562500D03*
X179700000Y-53637500D03*
%TD*%
M02*
