M48
; DRILL file KiCad 10.0.0 date 2026-04-15T22:29:28
; FORMAT={-:-/ absolute / metric / decimal}
; #@! TF.CreationDate,2026-04-15T22:29:28+02:00
; #@! TF.GenerationSoftware,Kicad,Pcbnew,10.0.0
; #@! TF.FileFunction,Plated,1,4,PTH
FMAT,2
METRIC
; #@! TA.AperFunction,Plated,PTH,ViaDrill
T1C0.300
%
G90
G05
T1
X152.6Y-53.2
X152.9Y-63.8
X153.627Y-54.9
X154.4Y-58.4
X154.4Y-82.1
X154.6Y-70.2
X154.9Y-56.5
X155.0Y-76.4
X155.0Y-78.7
X155.8Y-67.2
X156.0Y-58.4
X156.2Y-76.0
X156.4Y-56.617
X156.8Y-80.5
X157.0Y-64.8
X157.375Y-50.8
X157.4Y-67.2
X158.0Y-74.1
X158.38Y-72.1
X159.3Y-78.1
X159.65Y-72.1
X159.9Y-53.4
X159.9Y-55.7
X160.3Y-67.2
X160.5Y-73.8
X162.0Y-68.6
X162.4Y-61.5
X163.8Y-51.6
X164.0Y-61.7
X164.9Y-76.1
X165.0Y-74.75
X165.1Y-61.7
X165.2Y-51.7
X165.2Y-63.1
X165.5Y-70.5
X166.2Y-73.3
X166.3Y-74.75
X166.8Y-51.7
X167.1Y-64.7
X167.6Y-57.4
X168.0Y-73.0
X168.3Y-51.8
X168.4Y-80.5
X169.2Y-74.8
X169.6Y-82.2
X169.7Y-63.3
X169.713Y-67.122
X169.8Y-51.8
X169.8Y-57.4
X170.4Y-76.5
X170.9Y-81.3
X171.2Y-51.8
X171.2Y-67.1
X171.7Y-59.4
X171.8Y-70.0
X172.3Y-67.4
X172.8Y-78.3
X172.8Y-82.7
X173.5Y-74.8
X174.0Y-58.9
X174.5Y-64.4
X174.5Y-65.6
X174.86Y-51.76
X174.9Y-76.4
X175.0Y-56.1
X175.2Y-65.0
X175.4Y-66.5
X175.5Y-51.7
X176.08Y-72.062
X176.2Y-78.3
X176.7Y-75.1
X176.8Y-53.2
X176.8Y-63.2
X177.4Y-72.0
X177.9Y-59.3
X178.62Y-72.062
X180.6Y-53.2
X180.6Y-56.2
X180.6Y-59.3
X180.6Y-63.1
X180.7Y-74.4
X180.7Y-82.7
M30
