%TF.GenerationSoftware,KiCad,Pcbnew,10.0.0*%
%TF.CreationDate,2026-04-15T22:29:23+02:00*%
%TF.ProjectId,dongle,646f6e67-6c65-42e6-9b69-6361645f7063,rev?*%
%TF.SameCoordinates,Original*%
%TF.FileFunction,Legend,Top*%
%TF.FilePolarity,Positive*%
%FSLAX46Y46*%
G04 Gerber Fmt 4.6, Leading zero omitted, Abs format (unit mm)*
G04 Created by KiCad (PCBNEW 10.0.0) date 2026-04-15 22:29:23*
%MOMM*%
%LPD*%
G01*
G04 APERTURE LIST*
%ADD10C,0.300000*%
%ADD11C,0.150000*%
%ADD12C,0.100000*%
%ADD13C,0.120000*%
%ADD14C,0.000000*%
G04 APERTURE END LIST*
D10*
X156759774Y-89199171D02*
X156259774Y-87699171D01*
X156259774Y-87699171D02*
X155759774Y-89199171D01*
X154474060Y-87699171D02*
X155331203Y-87699171D01*
X154902632Y-87699171D02*
X154902632Y-89199171D01*
X154902632Y-89199171D02*
X155045489Y-88984885D01*
X155045489Y-88984885D02*
X155188346Y-88842028D01*
X155188346Y-88842028D02*
X155331203Y-88770600D01*
X153831204Y-87842028D02*
X153759775Y-87770600D01*
X153759775Y-87770600D02*
X153831204Y-87699171D01*
X153831204Y-87699171D02*
X153902632Y-87770600D01*
X153902632Y-87770600D02*
X153831204Y-87842028D01*
X153831204Y-87842028D02*
X153831204Y-87699171D01*
X152831203Y-89199171D02*
X152688346Y-89199171D01*
X152688346Y-89199171D02*
X152545489Y-89127742D01*
X152545489Y-89127742D02*
X152474061Y-89056314D01*
X152474061Y-89056314D02*
X152402632Y-88913457D01*
X152402632Y-88913457D02*
X152331203Y-88627742D01*
X152331203Y-88627742D02*
X152331203Y-88270600D01*
X152331203Y-88270600D02*
X152402632Y-87984885D01*
X152402632Y-87984885D02*
X152474061Y-87842028D01*
X152474061Y-87842028D02*
X152545489Y-87770600D01*
X152545489Y-87770600D02*
X152688346Y-87699171D01*
X152688346Y-87699171D02*
X152831203Y-87699171D01*
X152831203Y-87699171D02*
X152974061Y-87770600D01*
X152974061Y-87770600D02*
X153045489Y-87842028D01*
X153045489Y-87842028D02*
X153116918Y-87984885D01*
X153116918Y-87984885D02*
X153188346Y-88270600D01*
X153188346Y-88270600D02*
X153188346Y-88627742D01*
X153188346Y-88627742D02*
X153116918Y-88913457D01*
X153116918Y-88913457D02*
X153045489Y-89056314D01*
X153045489Y-89056314D02*
X152974061Y-89127742D01*
X152974061Y-89127742D02*
X152831203Y-89199171D01*
X179945489Y-81399171D02*
X179945489Y-82899171D01*
X179945489Y-82899171D02*
X179445489Y-81827742D01*
X179445489Y-81827742D02*
X178945489Y-82899171D01*
X178945489Y-82899171D02*
X178945489Y-81399171D01*
X177588346Y-81399171D02*
X177588346Y-82184885D01*
X177588346Y-82184885D02*
X177659774Y-82327742D01*
X177659774Y-82327742D02*
X177802631Y-82399171D01*
X177802631Y-82399171D02*
X178088346Y-82399171D01*
X178088346Y-82399171D02*
X178231203Y-82327742D01*
X177588346Y-81470600D02*
X177731203Y-81399171D01*
X177731203Y-81399171D02*
X178088346Y-81399171D01*
X178088346Y-81399171D02*
X178231203Y-81470600D01*
X178231203Y-81470600D02*
X178302631Y-81613457D01*
X178302631Y-81613457D02*
X178302631Y-81756314D01*
X178302631Y-81756314D02*
X178231203Y-81899171D01*
X178231203Y-81899171D02*
X178088346Y-81970600D01*
X178088346Y-81970600D02*
X177731203Y-81970600D01*
X177731203Y-81970600D02*
X177588346Y-82042028D01*
X176302631Y-81470600D02*
X176445488Y-81399171D01*
X176445488Y-81399171D02*
X176731203Y-81399171D01*
X176731203Y-81399171D02*
X176874060Y-81470600D01*
X176874060Y-81470600D02*
X176945488Y-81613457D01*
X176945488Y-81613457D02*
X176945488Y-82184885D01*
X176945488Y-82184885D02*
X176874060Y-82327742D01*
X176874060Y-82327742D02*
X176731203Y-82399171D01*
X176731203Y-82399171D02*
X176445488Y-82399171D01*
X176445488Y-82399171D02*
X176302631Y-82327742D01*
X176302631Y-82327742D02*
X176231203Y-82184885D01*
X176231203Y-82184885D02*
X176231203Y-82042028D01*
X176231203Y-82042028D02*
X176945488Y-81899171D01*
D11*
X174157142Y-59654819D02*
X173823809Y-59178628D01*
X173585714Y-59654819D02*
X173585714Y-58654819D01*
X173585714Y-58654819D02*
X173966666Y-58654819D01*
X173966666Y-58654819D02*
X174061904Y-58702438D01*
X174061904Y-58702438D02*
X174109523Y-58750057D01*
X174109523Y-58750057D02*
X174157142Y-58845295D01*
X174157142Y-58845295D02*
X174157142Y-58988152D01*
X174157142Y-58988152D02*
X174109523Y-59083390D01*
X174109523Y-59083390D02*
X174061904Y-59131009D01*
X174061904Y-59131009D02*
X173966666Y-59178628D01*
X173966666Y-59178628D02*
X173585714Y-59178628D01*
X174538095Y-58750057D02*
X174585714Y-58702438D01*
X174585714Y-58702438D02*
X174680952Y-58654819D01*
X174680952Y-58654819D02*
X174919047Y-58654819D01*
X174919047Y-58654819D02*
X175014285Y-58702438D01*
X175014285Y-58702438D02*
X175061904Y-58750057D01*
X175061904Y-58750057D02*
X175109523Y-58845295D01*
X175109523Y-58845295D02*
X175109523Y-58940533D01*
X175109523Y-58940533D02*
X175061904Y-59083390D01*
X175061904Y-59083390D02*
X174490476Y-59654819D01*
X174490476Y-59654819D02*
X175109523Y-59654819D01*
X175442857Y-58654819D02*
X176061904Y-58654819D01*
X176061904Y-58654819D02*
X175728571Y-59035771D01*
X175728571Y-59035771D02*
X175871428Y-59035771D01*
X175871428Y-59035771D02*
X175966666Y-59083390D01*
X175966666Y-59083390D02*
X176014285Y-59131009D01*
X176014285Y-59131009D02*
X176061904Y-59226247D01*
X176061904Y-59226247D02*
X176061904Y-59464342D01*
X176061904Y-59464342D02*
X176014285Y-59559580D01*
X176014285Y-59559580D02*
X175966666Y-59607200D01*
X175966666Y-59607200D02*
X175871428Y-59654819D01*
X175871428Y-59654819D02*
X175585714Y-59654819D01*
X175585714Y-59654819D02*
X175490476Y-59607200D01*
X175490476Y-59607200D02*
X175442857Y-59559580D01*
X178757142Y-60954819D02*
X178423809Y-60478628D01*
X178185714Y-60954819D02*
X178185714Y-59954819D01*
X178185714Y-59954819D02*
X178566666Y-59954819D01*
X178566666Y-59954819D02*
X178661904Y-60002438D01*
X178661904Y-60002438D02*
X178709523Y-60050057D01*
X178709523Y-60050057D02*
X178757142Y-60145295D01*
X178757142Y-60145295D02*
X178757142Y-60288152D01*
X178757142Y-60288152D02*
X178709523Y-60383390D01*
X178709523Y-60383390D02*
X178661904Y-60431009D01*
X178661904Y-60431009D02*
X178566666Y-60478628D01*
X178566666Y-60478628D02*
X178185714Y-60478628D01*
X179138095Y-60050057D02*
X179185714Y-60002438D01*
X179185714Y-60002438D02*
X179280952Y-59954819D01*
X179280952Y-59954819D02*
X179519047Y-59954819D01*
X179519047Y-59954819D02*
X179614285Y-60002438D01*
X179614285Y-60002438D02*
X179661904Y-60050057D01*
X179661904Y-60050057D02*
X179709523Y-60145295D01*
X179709523Y-60145295D02*
X179709523Y-60240533D01*
X179709523Y-60240533D02*
X179661904Y-60383390D01*
X179661904Y-60383390D02*
X179090476Y-60954819D01*
X179090476Y-60954819D02*
X179709523Y-60954819D01*
X180090476Y-60050057D02*
X180138095Y-60002438D01*
X180138095Y-60002438D02*
X180233333Y-59954819D01*
X180233333Y-59954819D02*
X180471428Y-59954819D01*
X180471428Y-59954819D02*
X180566666Y-60002438D01*
X180566666Y-60002438D02*
X180614285Y-60050057D01*
X180614285Y-60050057D02*
X180661904Y-60145295D01*
X180661904Y-60145295D02*
X180661904Y-60240533D01*
X180661904Y-60240533D02*
X180614285Y-60383390D01*
X180614285Y-60383390D02*
X180042857Y-60954819D01*
X180042857Y-60954819D02*
X180661904Y-60954819D01*
X176433333Y-63789580D02*
X176385714Y-63837200D01*
X176385714Y-63837200D02*
X176242857Y-63884819D01*
X176242857Y-63884819D02*
X176147619Y-63884819D01*
X176147619Y-63884819D02*
X176004762Y-63837200D01*
X176004762Y-63837200D02*
X175909524Y-63741961D01*
X175909524Y-63741961D02*
X175861905Y-63646723D01*
X175861905Y-63646723D02*
X175814286Y-63456247D01*
X175814286Y-63456247D02*
X175814286Y-63313390D01*
X175814286Y-63313390D02*
X175861905Y-63122914D01*
X175861905Y-63122914D02*
X175909524Y-63027676D01*
X175909524Y-63027676D02*
X176004762Y-62932438D01*
X176004762Y-62932438D02*
X176147619Y-62884819D01*
X176147619Y-62884819D02*
X176242857Y-62884819D01*
X176242857Y-62884819D02*
X176385714Y-62932438D01*
X176385714Y-62932438D02*
X176433333Y-62980057D01*
X176766667Y-62884819D02*
X177433333Y-62884819D01*
X177433333Y-62884819D02*
X177004762Y-63884819D01*
X180454819Y-66742857D02*
X179978628Y-67076190D01*
X180454819Y-67314285D02*
X179454819Y-67314285D01*
X179454819Y-67314285D02*
X179454819Y-66933333D01*
X179454819Y-66933333D02*
X179502438Y-66838095D01*
X179502438Y-66838095D02*
X179550057Y-66790476D01*
X179550057Y-66790476D02*
X179645295Y-66742857D01*
X179645295Y-66742857D02*
X179788152Y-66742857D01*
X179788152Y-66742857D02*
X179883390Y-66790476D01*
X179883390Y-66790476D02*
X179931009Y-66838095D01*
X179931009Y-66838095D02*
X179978628Y-66933333D01*
X179978628Y-66933333D02*
X179978628Y-67314285D01*
X180454819Y-65790476D02*
X180454819Y-66361904D01*
X180454819Y-66076190D02*
X179454819Y-66076190D01*
X179454819Y-66076190D02*
X179597676Y-66171428D01*
X179597676Y-66171428D02*
X179692914Y-66266666D01*
X179692914Y-66266666D02*
X179740533Y-66361904D01*
X179454819Y-64933333D02*
X179454819Y-65123809D01*
X179454819Y-65123809D02*
X179502438Y-65219047D01*
X179502438Y-65219047D02*
X179550057Y-65266666D01*
X179550057Y-65266666D02*
X179692914Y-65361904D01*
X179692914Y-65361904D02*
X179883390Y-65409523D01*
X179883390Y-65409523D02*
X180264342Y-65409523D01*
X180264342Y-65409523D02*
X180359580Y-65361904D01*
X180359580Y-65361904D02*
X180407200Y-65314285D01*
X180407200Y-65314285D02*
X180454819Y-65219047D01*
X180454819Y-65219047D02*
X180454819Y-65028571D01*
X180454819Y-65028571D02*
X180407200Y-64933333D01*
X180407200Y-64933333D02*
X180359580Y-64885714D01*
X180359580Y-64885714D02*
X180264342Y-64838095D01*
X180264342Y-64838095D02*
X180026247Y-64838095D01*
X180026247Y-64838095D02*
X179931009Y-64885714D01*
X179931009Y-64885714D02*
X179883390Y-64933333D01*
X179883390Y-64933333D02*
X179835771Y-65028571D01*
X179835771Y-65028571D02*
X179835771Y-65219047D01*
X179835771Y-65219047D02*
X179883390Y-65314285D01*
X179883390Y-65314285D02*
X179931009Y-65361904D01*
X179931009Y-65361904D02*
X180026247Y-65409523D01*
X166166666Y-90354819D02*
X166166666Y-91069104D01*
X166166666Y-91069104D02*
X166119047Y-91211961D01*
X166119047Y-91211961D02*
X166023809Y-91307200D01*
X166023809Y-91307200D02*
X165880952Y-91354819D01*
X165880952Y-91354819D02*
X165785714Y-91354819D01*
X166595238Y-90450057D02*
X166642857Y-90402438D01*
X166642857Y-90402438D02*
X166738095Y-90354819D01*
X166738095Y-90354819D02*
X166976190Y-90354819D01*
X166976190Y-90354819D02*
X167071428Y-90402438D01*
X167071428Y-90402438D02*
X167119047Y-90450057D01*
X167119047Y-90450057D02*
X167166666Y-90545295D01*
X167166666Y-90545295D02*
X167166666Y-90640533D01*
X167166666Y-90640533D02*
X167119047Y-90783390D01*
X167119047Y-90783390D02*
X166547619Y-91354819D01*
X166547619Y-91354819D02*
X167166666Y-91354819D01*
D12*
X159746428Y-52133609D02*
X159889285Y-52181228D01*
X159889285Y-52181228D02*
X159936904Y-52228847D01*
X159936904Y-52228847D02*
X159984523Y-52324085D01*
X159984523Y-52324085D02*
X159984523Y-52466942D01*
X159984523Y-52466942D02*
X159936904Y-52562180D01*
X159936904Y-52562180D02*
X159889285Y-52609800D01*
X159889285Y-52609800D02*
X159794047Y-52657419D01*
X159794047Y-52657419D02*
X159413095Y-52657419D01*
X159413095Y-52657419D02*
X159413095Y-51657419D01*
X159413095Y-51657419D02*
X159746428Y-51657419D01*
X159746428Y-51657419D02*
X159841666Y-51705038D01*
X159841666Y-51705038D02*
X159889285Y-51752657D01*
X159889285Y-51752657D02*
X159936904Y-51847895D01*
X159936904Y-51847895D02*
X159936904Y-51943133D01*
X159936904Y-51943133D02*
X159889285Y-52038371D01*
X159889285Y-52038371D02*
X159841666Y-52085990D01*
X159841666Y-52085990D02*
X159746428Y-52133609D01*
X159746428Y-52133609D02*
X159413095Y-52133609D01*
D11*
X171033333Y-63659580D02*
X170985714Y-63707200D01*
X170985714Y-63707200D02*
X170842857Y-63754819D01*
X170842857Y-63754819D02*
X170747619Y-63754819D01*
X170747619Y-63754819D02*
X170604762Y-63707200D01*
X170604762Y-63707200D02*
X170509524Y-63611961D01*
X170509524Y-63611961D02*
X170461905Y-63516723D01*
X170461905Y-63516723D02*
X170414286Y-63326247D01*
X170414286Y-63326247D02*
X170414286Y-63183390D01*
X170414286Y-63183390D02*
X170461905Y-62992914D01*
X170461905Y-62992914D02*
X170509524Y-62897676D01*
X170509524Y-62897676D02*
X170604762Y-62802438D01*
X170604762Y-62802438D02*
X170747619Y-62754819D01*
X170747619Y-62754819D02*
X170842857Y-62754819D01*
X170842857Y-62754819D02*
X170985714Y-62802438D01*
X170985714Y-62802438D02*
X171033333Y-62850057D01*
X171890476Y-63088152D02*
X171890476Y-63754819D01*
X171652381Y-62707200D02*
X171414286Y-63421485D01*
X171414286Y-63421485D02*
X172033333Y-63421485D01*
X154854819Y-79711904D02*
X155664342Y-79711904D01*
X155664342Y-79711904D02*
X155759580Y-79664285D01*
X155759580Y-79664285D02*
X155807200Y-79616666D01*
X155807200Y-79616666D02*
X155854819Y-79521428D01*
X155854819Y-79521428D02*
X155854819Y-79330952D01*
X155854819Y-79330952D02*
X155807200Y-79235714D01*
X155807200Y-79235714D02*
X155759580Y-79188095D01*
X155759580Y-79188095D02*
X155664342Y-79140476D01*
X155664342Y-79140476D02*
X154854819Y-79140476D01*
X154854819Y-78759523D02*
X154854819Y-78092857D01*
X154854819Y-78092857D02*
X155854819Y-78521428D01*
X153259580Y-62566666D02*
X153307200Y-62614285D01*
X153307200Y-62614285D02*
X153354819Y-62757142D01*
X153354819Y-62757142D02*
X153354819Y-62852380D01*
X153354819Y-62852380D02*
X153307200Y-62995237D01*
X153307200Y-62995237D02*
X153211961Y-63090475D01*
X153211961Y-63090475D02*
X153116723Y-63138094D01*
X153116723Y-63138094D02*
X152926247Y-63185713D01*
X152926247Y-63185713D02*
X152783390Y-63185713D01*
X152783390Y-63185713D02*
X152592914Y-63138094D01*
X152592914Y-63138094D02*
X152497676Y-63090475D01*
X152497676Y-63090475D02*
X152402438Y-62995237D01*
X152402438Y-62995237D02*
X152354819Y-62852380D01*
X152354819Y-62852380D02*
X152354819Y-62757142D01*
X152354819Y-62757142D02*
X152402438Y-62614285D01*
X152402438Y-62614285D02*
X152450057Y-62566666D01*
X152354819Y-61661904D02*
X152354819Y-62138094D01*
X152354819Y-62138094D02*
X152831009Y-62185713D01*
X152831009Y-62185713D02*
X152783390Y-62138094D01*
X152783390Y-62138094D02*
X152735771Y-62042856D01*
X152735771Y-62042856D02*
X152735771Y-61804761D01*
X152735771Y-61804761D02*
X152783390Y-61709523D01*
X152783390Y-61709523D02*
X152831009Y-61661904D01*
X152831009Y-61661904D02*
X152926247Y-61614285D01*
X152926247Y-61614285D02*
X153164342Y-61614285D01*
X153164342Y-61614285D02*
X153259580Y-61661904D01*
X153259580Y-61661904D02*
X153307200Y-61709523D01*
X153307200Y-61709523D02*
X153354819Y-61804761D01*
X153354819Y-61804761D02*
X153354819Y-62042856D01*
X153354819Y-62042856D02*
X153307200Y-62138094D01*
X153307200Y-62138094D02*
X153259580Y-62185713D01*
X164833333Y-63259580D02*
X164785714Y-63307200D01*
X164785714Y-63307200D02*
X164642857Y-63354819D01*
X164642857Y-63354819D02*
X164547619Y-63354819D01*
X164547619Y-63354819D02*
X164404762Y-63307200D01*
X164404762Y-63307200D02*
X164309524Y-63211961D01*
X164309524Y-63211961D02*
X164261905Y-63116723D01*
X164261905Y-63116723D02*
X164214286Y-62926247D01*
X164214286Y-62926247D02*
X164214286Y-62783390D01*
X164214286Y-62783390D02*
X164261905Y-62592914D01*
X164261905Y-62592914D02*
X164309524Y-62497676D01*
X164309524Y-62497676D02*
X164404762Y-62402438D01*
X164404762Y-62402438D02*
X164547619Y-62354819D01*
X164547619Y-62354819D02*
X164642857Y-62354819D01*
X164642857Y-62354819D02*
X164785714Y-62402438D01*
X164785714Y-62402438D02*
X164833333Y-62450057D01*
X165785714Y-63354819D02*
X165214286Y-63354819D01*
X165500000Y-63354819D02*
X165500000Y-62354819D01*
X165500000Y-62354819D02*
X165404762Y-62497676D01*
X165404762Y-62497676D02*
X165309524Y-62592914D01*
X165309524Y-62592914D02*
X165214286Y-62640533D01*
X174254819Y-66742857D02*
X173778628Y-67076190D01*
X174254819Y-67314285D02*
X173254819Y-67314285D01*
X173254819Y-67314285D02*
X173254819Y-66933333D01*
X173254819Y-66933333D02*
X173302438Y-66838095D01*
X173302438Y-66838095D02*
X173350057Y-66790476D01*
X173350057Y-66790476D02*
X173445295Y-66742857D01*
X173445295Y-66742857D02*
X173588152Y-66742857D01*
X173588152Y-66742857D02*
X173683390Y-66790476D01*
X173683390Y-66790476D02*
X173731009Y-66838095D01*
X173731009Y-66838095D02*
X173778628Y-66933333D01*
X173778628Y-66933333D02*
X173778628Y-67314285D01*
X174254819Y-65790476D02*
X174254819Y-66361904D01*
X174254819Y-66076190D02*
X173254819Y-66076190D01*
X173254819Y-66076190D02*
X173397676Y-66171428D01*
X173397676Y-66171428D02*
X173492914Y-66266666D01*
X173492914Y-66266666D02*
X173540533Y-66361904D01*
X174254819Y-65314285D02*
X174254819Y-65123809D01*
X174254819Y-65123809D02*
X174207200Y-65028571D01*
X174207200Y-65028571D02*
X174159580Y-64980952D01*
X174159580Y-64980952D02*
X174016723Y-64885714D01*
X174016723Y-64885714D02*
X173826247Y-64838095D01*
X173826247Y-64838095D02*
X173445295Y-64838095D01*
X173445295Y-64838095D02*
X173350057Y-64885714D01*
X173350057Y-64885714D02*
X173302438Y-64933333D01*
X173302438Y-64933333D02*
X173254819Y-65028571D01*
X173254819Y-65028571D02*
X173254819Y-65219047D01*
X173254819Y-65219047D02*
X173302438Y-65314285D01*
X173302438Y-65314285D02*
X173350057Y-65361904D01*
X173350057Y-65361904D02*
X173445295Y-65409523D01*
X173445295Y-65409523D02*
X173683390Y-65409523D01*
X173683390Y-65409523D02*
X173778628Y-65361904D01*
X173778628Y-65361904D02*
X173826247Y-65314285D01*
X173826247Y-65314285D02*
X173873866Y-65219047D01*
X173873866Y-65219047D02*
X173873866Y-65028571D01*
X173873866Y-65028571D02*
X173826247Y-64933333D01*
X173826247Y-64933333D02*
X173778628Y-64885714D01*
X173778628Y-64885714D02*
X173683390Y-64838095D01*
X173408333Y-63959580D02*
X173360714Y-64007200D01*
X173360714Y-64007200D02*
X173217857Y-64054819D01*
X173217857Y-64054819D02*
X173122619Y-64054819D01*
X173122619Y-64054819D02*
X172979762Y-64007200D01*
X172979762Y-64007200D02*
X172884524Y-63911961D01*
X172884524Y-63911961D02*
X172836905Y-63816723D01*
X172836905Y-63816723D02*
X172789286Y-63626247D01*
X172789286Y-63626247D02*
X172789286Y-63483390D01*
X172789286Y-63483390D02*
X172836905Y-63292914D01*
X172836905Y-63292914D02*
X172884524Y-63197676D01*
X172884524Y-63197676D02*
X172979762Y-63102438D01*
X172979762Y-63102438D02*
X173122619Y-63054819D01*
X173122619Y-63054819D02*
X173217857Y-63054819D01*
X173217857Y-63054819D02*
X173360714Y-63102438D01*
X173360714Y-63102438D02*
X173408333Y-63150057D01*
X174265476Y-63054819D02*
X174075000Y-63054819D01*
X174075000Y-63054819D02*
X173979762Y-63102438D01*
X173979762Y-63102438D02*
X173932143Y-63150057D01*
X173932143Y-63150057D02*
X173836905Y-63292914D01*
X173836905Y-63292914D02*
X173789286Y-63483390D01*
X173789286Y-63483390D02*
X173789286Y-63864342D01*
X173789286Y-63864342D02*
X173836905Y-63959580D01*
X173836905Y-63959580D02*
X173884524Y-64007200D01*
X173884524Y-64007200D02*
X173979762Y-64054819D01*
X173979762Y-64054819D02*
X174170238Y-64054819D01*
X174170238Y-64054819D02*
X174265476Y-64007200D01*
X174265476Y-64007200D02*
X174313095Y-63959580D01*
X174313095Y-63959580D02*
X174360714Y-63864342D01*
X174360714Y-63864342D02*
X174360714Y-63626247D01*
X174360714Y-63626247D02*
X174313095Y-63531009D01*
X174313095Y-63531009D02*
X174265476Y-63483390D01*
X174265476Y-63483390D02*
X174170238Y-63435771D01*
X174170238Y-63435771D02*
X173979762Y-63435771D01*
X173979762Y-63435771D02*
X173884524Y-63483390D01*
X173884524Y-63483390D02*
X173836905Y-63531009D01*
X173836905Y-63531009D02*
X173789286Y-63626247D01*
X174750057Y-57495238D02*
X174702438Y-57590476D01*
X174702438Y-57590476D02*
X174607200Y-57685714D01*
X174607200Y-57685714D02*
X174464342Y-57828571D01*
X174464342Y-57828571D02*
X174416723Y-57923809D01*
X174416723Y-57923809D02*
X174416723Y-58019047D01*
X174654819Y-57971428D02*
X174607200Y-58066666D01*
X174607200Y-58066666D02*
X174511961Y-58161904D01*
X174511961Y-58161904D02*
X174321485Y-58209523D01*
X174321485Y-58209523D02*
X173988152Y-58209523D01*
X173988152Y-58209523D02*
X173797676Y-58161904D01*
X173797676Y-58161904D02*
X173702438Y-58066666D01*
X173702438Y-58066666D02*
X173654819Y-57971428D01*
X173654819Y-57971428D02*
X173654819Y-57780952D01*
X173654819Y-57780952D02*
X173702438Y-57685714D01*
X173702438Y-57685714D02*
X173797676Y-57590476D01*
X173797676Y-57590476D02*
X173988152Y-57542857D01*
X173988152Y-57542857D02*
X174321485Y-57542857D01*
X174321485Y-57542857D02*
X174511961Y-57590476D01*
X174511961Y-57590476D02*
X174607200Y-57685714D01*
X174607200Y-57685714D02*
X174654819Y-57780952D01*
X174654819Y-57780952D02*
X174654819Y-57971428D01*
X174654819Y-56590476D02*
X174654819Y-57161904D01*
X174654819Y-56876190D02*
X173654819Y-56876190D01*
X173654819Y-56876190D02*
X173797676Y-56971428D01*
X173797676Y-56971428D02*
X173892914Y-57066666D01*
X173892914Y-57066666D02*
X173940533Y-57161904D01*
X162754819Y-53261904D02*
X163564342Y-53261904D01*
X163564342Y-53261904D02*
X163659580Y-53214285D01*
X163659580Y-53214285D02*
X163707200Y-53166666D01*
X163707200Y-53166666D02*
X163754819Y-53071428D01*
X163754819Y-53071428D02*
X163754819Y-52880952D01*
X163754819Y-52880952D02*
X163707200Y-52785714D01*
X163707200Y-52785714D02*
X163659580Y-52738095D01*
X163659580Y-52738095D02*
X163564342Y-52690476D01*
X163564342Y-52690476D02*
X162754819Y-52690476D01*
X163088152Y-51785714D02*
X163754819Y-51785714D01*
X162707200Y-52023809D02*
X163421485Y-52261904D01*
X163421485Y-52261904D02*
X163421485Y-51642857D01*
X155838095Y-61454819D02*
X155838095Y-62264342D01*
X155838095Y-62264342D02*
X155885714Y-62359580D01*
X155885714Y-62359580D02*
X155933333Y-62407200D01*
X155933333Y-62407200D02*
X156028571Y-62454819D01*
X156028571Y-62454819D02*
X156219047Y-62454819D01*
X156219047Y-62454819D02*
X156314285Y-62407200D01*
X156314285Y-62407200D02*
X156361904Y-62359580D01*
X156361904Y-62359580D02*
X156409523Y-62264342D01*
X156409523Y-62264342D02*
X156409523Y-61454819D01*
X157314285Y-61454819D02*
X157123809Y-61454819D01*
X157123809Y-61454819D02*
X157028571Y-61502438D01*
X157028571Y-61502438D02*
X156980952Y-61550057D01*
X156980952Y-61550057D02*
X156885714Y-61692914D01*
X156885714Y-61692914D02*
X156838095Y-61883390D01*
X156838095Y-61883390D02*
X156838095Y-62264342D01*
X156838095Y-62264342D02*
X156885714Y-62359580D01*
X156885714Y-62359580D02*
X156933333Y-62407200D01*
X156933333Y-62407200D02*
X157028571Y-62454819D01*
X157028571Y-62454819D02*
X157219047Y-62454819D01*
X157219047Y-62454819D02*
X157314285Y-62407200D01*
X157314285Y-62407200D02*
X157361904Y-62359580D01*
X157361904Y-62359580D02*
X157409523Y-62264342D01*
X157409523Y-62264342D02*
X157409523Y-62026247D01*
X157409523Y-62026247D02*
X157361904Y-61931009D01*
X157361904Y-61931009D02*
X157314285Y-61883390D01*
X157314285Y-61883390D02*
X157219047Y-61835771D01*
X157219047Y-61835771D02*
X157028571Y-61835771D01*
X157028571Y-61835771D02*
X156933333Y-61883390D01*
X156933333Y-61883390D02*
X156885714Y-61931009D01*
X156885714Y-61931009D02*
X156838095Y-62026247D01*
X175854819Y-66842857D02*
X175378628Y-67176190D01*
X175854819Y-67414285D02*
X174854819Y-67414285D01*
X174854819Y-67414285D02*
X174854819Y-67033333D01*
X174854819Y-67033333D02*
X174902438Y-66938095D01*
X174902438Y-66938095D02*
X174950057Y-66890476D01*
X174950057Y-66890476D02*
X175045295Y-66842857D01*
X175045295Y-66842857D02*
X175188152Y-66842857D01*
X175188152Y-66842857D02*
X175283390Y-66890476D01*
X175283390Y-66890476D02*
X175331009Y-66938095D01*
X175331009Y-66938095D02*
X175378628Y-67033333D01*
X175378628Y-67033333D02*
X175378628Y-67414285D01*
X174950057Y-66461904D02*
X174902438Y-66414285D01*
X174902438Y-66414285D02*
X174854819Y-66319047D01*
X174854819Y-66319047D02*
X174854819Y-66080952D01*
X174854819Y-66080952D02*
X174902438Y-65985714D01*
X174902438Y-65985714D02*
X174950057Y-65938095D01*
X174950057Y-65938095D02*
X175045295Y-65890476D01*
X175045295Y-65890476D02*
X175140533Y-65890476D01*
X175140533Y-65890476D02*
X175283390Y-65938095D01*
X175283390Y-65938095D02*
X175854819Y-66509523D01*
X175854819Y-66509523D02*
X175854819Y-65890476D01*
X174854819Y-65271428D02*
X174854819Y-65176190D01*
X174854819Y-65176190D02*
X174902438Y-65080952D01*
X174902438Y-65080952D02*
X174950057Y-65033333D01*
X174950057Y-65033333D02*
X175045295Y-64985714D01*
X175045295Y-64985714D02*
X175235771Y-64938095D01*
X175235771Y-64938095D02*
X175473866Y-64938095D01*
X175473866Y-64938095D02*
X175664342Y-64985714D01*
X175664342Y-64985714D02*
X175759580Y-65033333D01*
X175759580Y-65033333D02*
X175807200Y-65080952D01*
X175807200Y-65080952D02*
X175854819Y-65176190D01*
X175854819Y-65176190D02*
X175854819Y-65271428D01*
X175854819Y-65271428D02*
X175807200Y-65366666D01*
X175807200Y-65366666D02*
X175759580Y-65414285D01*
X175759580Y-65414285D02*
X175664342Y-65461904D01*
X175664342Y-65461904D02*
X175473866Y-65509523D01*
X175473866Y-65509523D02*
X175235771Y-65509523D01*
X175235771Y-65509523D02*
X175045295Y-65461904D01*
X175045295Y-65461904D02*
X174950057Y-65414285D01*
X174950057Y-65414285D02*
X174902438Y-65366666D01*
X174902438Y-65366666D02*
X174854819Y-65271428D01*
X177454819Y-66842857D02*
X176978628Y-67176190D01*
X177454819Y-67414285D02*
X176454819Y-67414285D01*
X176454819Y-67414285D02*
X176454819Y-67033333D01*
X176454819Y-67033333D02*
X176502438Y-66938095D01*
X176502438Y-66938095D02*
X176550057Y-66890476D01*
X176550057Y-66890476D02*
X176645295Y-66842857D01*
X176645295Y-66842857D02*
X176788152Y-66842857D01*
X176788152Y-66842857D02*
X176883390Y-66890476D01*
X176883390Y-66890476D02*
X176931009Y-66938095D01*
X176931009Y-66938095D02*
X176978628Y-67033333D01*
X176978628Y-67033333D02*
X176978628Y-67414285D01*
X177454819Y-65890476D02*
X177454819Y-66461904D01*
X177454819Y-66176190D02*
X176454819Y-66176190D01*
X176454819Y-66176190D02*
X176597676Y-66271428D01*
X176597676Y-66271428D02*
X176692914Y-66366666D01*
X176692914Y-66366666D02*
X176740533Y-66461904D01*
X176454819Y-65557142D02*
X176454819Y-64890476D01*
X176454819Y-64890476D02*
X177454819Y-65319047D01*
X179054819Y-66742857D02*
X178578628Y-67076190D01*
X179054819Y-67314285D02*
X178054819Y-67314285D01*
X178054819Y-67314285D02*
X178054819Y-66933333D01*
X178054819Y-66933333D02*
X178102438Y-66838095D01*
X178102438Y-66838095D02*
X178150057Y-66790476D01*
X178150057Y-66790476D02*
X178245295Y-66742857D01*
X178245295Y-66742857D02*
X178388152Y-66742857D01*
X178388152Y-66742857D02*
X178483390Y-66790476D01*
X178483390Y-66790476D02*
X178531009Y-66838095D01*
X178531009Y-66838095D02*
X178578628Y-66933333D01*
X178578628Y-66933333D02*
X178578628Y-67314285D01*
X179054819Y-65790476D02*
X179054819Y-66361904D01*
X179054819Y-66076190D02*
X178054819Y-66076190D01*
X178054819Y-66076190D02*
X178197676Y-66171428D01*
X178197676Y-66171428D02*
X178292914Y-66266666D01*
X178292914Y-66266666D02*
X178340533Y-66361904D01*
X178054819Y-64885714D02*
X178054819Y-65361904D01*
X178054819Y-65361904D02*
X178531009Y-65409523D01*
X178531009Y-65409523D02*
X178483390Y-65361904D01*
X178483390Y-65361904D02*
X178435771Y-65266666D01*
X178435771Y-65266666D02*
X178435771Y-65028571D01*
X178435771Y-65028571D02*
X178483390Y-64933333D01*
X178483390Y-64933333D02*
X178531009Y-64885714D01*
X178531009Y-64885714D02*
X178626247Y-64838095D01*
X178626247Y-64838095D02*
X178864342Y-64838095D01*
X178864342Y-64838095D02*
X178959580Y-64885714D01*
X178959580Y-64885714D02*
X179007200Y-64933333D01*
X179007200Y-64933333D02*
X179054819Y-65028571D01*
X179054819Y-65028571D02*
X179054819Y-65266666D01*
X179054819Y-65266666D02*
X179007200Y-65361904D01*
X179007200Y-65361904D02*
X178959580Y-65409523D01*
X153354819Y-54542857D02*
X152878628Y-54876190D01*
X153354819Y-55114285D02*
X152354819Y-55114285D01*
X152354819Y-55114285D02*
X152354819Y-54733333D01*
X152354819Y-54733333D02*
X152402438Y-54638095D01*
X152402438Y-54638095D02*
X152450057Y-54590476D01*
X152450057Y-54590476D02*
X152545295Y-54542857D01*
X152545295Y-54542857D02*
X152688152Y-54542857D01*
X152688152Y-54542857D02*
X152783390Y-54590476D01*
X152783390Y-54590476D02*
X152831009Y-54638095D01*
X152831009Y-54638095D02*
X152878628Y-54733333D01*
X152878628Y-54733333D02*
X152878628Y-55114285D01*
X152450057Y-54161904D02*
X152402438Y-54114285D01*
X152402438Y-54114285D02*
X152354819Y-54019047D01*
X152354819Y-54019047D02*
X152354819Y-53780952D01*
X152354819Y-53780952D02*
X152402438Y-53685714D01*
X152402438Y-53685714D02*
X152450057Y-53638095D01*
X152450057Y-53638095D02*
X152545295Y-53590476D01*
X152545295Y-53590476D02*
X152640533Y-53590476D01*
X152640533Y-53590476D02*
X152783390Y-53638095D01*
X152783390Y-53638095D02*
X153354819Y-54209523D01*
X153354819Y-54209523D02*
X153354819Y-53590476D01*
X153354819Y-52638095D02*
X153354819Y-53209523D01*
X153354819Y-52923809D02*
X152354819Y-52923809D01*
X152354819Y-52923809D02*
X152497676Y-53019047D01*
X152497676Y-53019047D02*
X152592914Y-53114285D01*
X152592914Y-53114285D02*
X152640533Y-53209523D01*
%TO.C,R23*%
D13*
X173387742Y-59977500D02*
X173862258Y-59977500D01*
X173387742Y-61022500D02*
X173862258Y-61022500D01*
%TO.C,R22*%
X176837258Y-61022500D02*
X176362742Y-61022500D01*
X176837258Y-59977500D02*
X176362742Y-59977500D01*
%TO.C,C7*%
X176740580Y-62510000D02*
X176459420Y-62510000D01*
X176740580Y-61490000D02*
X176459420Y-61490000D01*
%TO.C,R16*%
X179477500Y-68862742D02*
X179477500Y-69337258D01*
X180522500Y-68862742D02*
X180522500Y-69337258D01*
%TO.C,J2*%
X156850000Y-52200000D02*
X157250000Y-51400000D01*
X157250000Y-51400000D02*
X157650000Y-52200000D01*
X157650000Y-52200000D02*
X156850000Y-52200000D01*
%TO.C,C4*%
X170440580Y-61490000D02*
X170159420Y-61490000D01*
X170440580Y-62510000D02*
X170159420Y-62510000D01*
%TO.C,U7*%
X152760000Y-64300000D02*
X152760000Y-65300000D01*
X152760000Y-64300000D02*
X153760000Y-64300000D01*
X152760000Y-82600000D02*
X152760000Y-81600000D01*
X152910000Y-64450000D02*
X152910000Y-65750000D01*
X152910000Y-82450000D02*
X152910000Y-81100000D01*
X153660000Y-82450000D02*
X152910000Y-82450000D01*
X153660000Y-82600000D02*
X152760000Y-82600000D01*
X153760000Y-64450000D02*
X152910000Y-64450000D01*
X171610000Y-82600000D02*
X172260000Y-82600000D01*
X172110000Y-64450000D02*
X171610000Y-64450000D01*
X172110000Y-82450000D02*
X171610000Y-82450000D01*
X172110000Y-82450000D02*
X172110000Y-64450000D01*
X172260000Y-64250000D02*
X172260000Y-65350000D01*
X172260000Y-82600000D02*
X172260000Y-81600000D01*
%TO.C,C5*%
X152390000Y-60140580D02*
X152390000Y-59859420D01*
X153410000Y-60140580D02*
X153410000Y-59859420D01*
D14*
%TO.C,kibuzzard-69DE4944*%
G36*
X175925121Y-86801131D02*
G01*
X175881502Y-86878675D01*
X175811228Y-86931987D01*
X175710662Y-86951373D01*
X175608885Y-86930775D01*
X175541034Y-86876252D01*
X175502262Y-86799919D01*
X175490145Y-86711470D01*
X175945719Y-86711470D01*
X175925121Y-86801131D01*
G37*
G36*
X173377060Y-86275283D02*
G01*
X173454604Y-86306785D01*
X173454604Y-86931987D01*
X173389176Y-86938045D01*
X173316478Y-86941680D01*
X173208643Y-86917145D01*
X173132310Y-86843538D01*
X173086874Y-86731765D01*
X173071729Y-86592730D01*
X173084451Y-86453090D01*
X173122617Y-86349192D01*
X173187439Y-86284673D01*
X173280129Y-86263166D01*
X173377060Y-86275283D01*
G37*
G36*
X173454604Y-85027302D02*
G01*
X174554766Y-85027302D01*
X175628271Y-85027302D01*
X176692084Y-85027302D01*
X177431179Y-85027302D01*
X178036995Y-85027302D01*
X178191147Y-85034875D01*
X178343813Y-85057521D01*
X178493525Y-85095022D01*
X178638841Y-85147017D01*
X178778360Y-85213004D01*
X178910739Y-85292349D01*
X179034704Y-85384288D01*
X179149060Y-85487935D01*
X179252707Y-85602291D01*
X179344646Y-85726256D01*
X179423991Y-85858635D01*
X179489979Y-85998155D01*
X179541973Y-86143470D01*
X179579474Y-86293182D01*
X179602120Y-86445849D01*
X179609693Y-86600000D01*
X179602120Y-86754151D01*
X179579474Y-86906818D01*
X179541973Y-87056530D01*
X179489979Y-87201845D01*
X179423991Y-87341365D01*
X179344646Y-87473744D01*
X179252707Y-87597709D01*
X179149060Y-87712065D01*
X179034704Y-87815712D01*
X178910739Y-87907651D01*
X178778360Y-87986996D01*
X178638841Y-88052983D01*
X178493525Y-88104978D01*
X178343813Y-88142479D01*
X178191147Y-88165125D01*
X178036995Y-88172698D01*
X177431179Y-88172698D01*
X172768821Y-88172698D01*
X172163005Y-88172698D01*
X172008854Y-88165125D01*
X171856187Y-88142479D01*
X171706475Y-88104978D01*
X171561159Y-88052983D01*
X171421640Y-87986996D01*
X171289261Y-87907651D01*
X171165296Y-87815712D01*
X171050940Y-87712065D01*
X170947293Y-87597709D01*
X170855354Y-87473744D01*
X170776009Y-87341365D01*
X170710021Y-87201845D01*
X170658027Y-87056530D01*
X170620526Y-86906818D01*
X170597880Y-86754151D01*
X170590426Y-86602423D01*
X172768821Y-86602423D01*
X172784437Y-86772321D01*
X172831287Y-86916909D01*
X172909370Y-87036187D01*
X173016801Y-87125040D01*
X173151696Y-87178352D01*
X173314055Y-87196123D01*
X173431280Y-87191882D01*
X173550323Y-87179160D01*
X173660885Y-87159774D01*
X173752666Y-87135541D01*
X173752666Y-86442488D01*
X174002262Y-86442488D01*
X174012561Y-86555473D01*
X174043457Y-86647254D01*
X174148869Y-86782956D01*
X174289418Y-86870194D01*
X174436026Y-86929564D01*
X174529322Y-86965913D01*
X174614136Y-87010743D01*
X174675929Y-87068901D01*
X174700162Y-87145234D01*
X174673775Y-87240819D01*
X174594615Y-87298169D01*
X174462682Y-87317286D01*
X174291842Y-87293053D01*
X174157351Y-87234895D01*
X174070113Y-87465105D01*
X174243376Y-87535380D01*
X174355149Y-87559006D01*
X174484491Y-87566882D01*
X174632983Y-87553689D01*
X174758589Y-87514109D01*
X174861309Y-87448142D01*
X174963994Y-87306381D01*
X174998223Y-87118578D01*
X174959451Y-86940468D01*
X174861309Y-86820517D01*
X174729241Y-86740549D01*
X174588691Y-86684814D01*
X174486914Y-86642407D01*
X174440872Y-86616963D01*
X175201777Y-86616963D01*
X175216317Y-86792380D01*
X175259935Y-86937372D01*
X175332633Y-87051939D01*
X175433333Y-87134733D01*
X175560959Y-87184410D01*
X175715509Y-87200969D01*
X175816074Y-87191276D01*
X175914216Y-87162197D01*
X176005695Y-87114035D01*
X176086268Y-87047092D01*
X176154120Y-86961369D01*
X176207431Y-86856866D01*
X176241963Y-86733885D01*
X176253473Y-86592730D01*
X176242569Y-86456422D01*
X176209855Y-86338288D01*
X176156846Y-86238025D01*
X176085057Y-86155331D01*
X175995396Y-86090509D01*
X175888772Y-86043861D01*
X175841282Y-86032956D01*
X176355250Y-86032956D01*
X176394628Y-86141095D01*
X176444911Y-86252262D01*
X176503978Y-86363732D01*
X176569709Y-86472779D01*
X176640893Y-86577282D01*
X176716317Y-86675121D01*
X176793255Y-86764176D01*
X176868982Y-86842326D01*
X176795376Y-86931381D01*
X176724798Y-87024071D01*
X176657855Y-87117670D01*
X176595153Y-87209451D01*
X176537904Y-87298506D01*
X176487318Y-87383926D01*
X176406139Y-87532956D01*
X176742973Y-87532956D01*
X176815670Y-87387561D01*
X176911389Y-87225202D01*
X177021648Y-87060420D01*
X177133118Y-86910178D01*
X177133118Y-87532956D01*
X177431179Y-87532956D01*
X177431179Y-86032956D01*
X177133118Y-86032956D01*
X177133118Y-86718740D01*
X177005897Y-86581826D01*
X176940771Y-86497617D01*
X176878675Y-86407351D01*
X176820820Y-86312843D01*
X176768417Y-86215913D01*
X176692084Y-86032956D01*
X176355250Y-86032956D01*
X175841282Y-86032956D01*
X175766095Y-86015691D01*
X175628271Y-86006300D01*
X175431987Y-86024475D01*
X175267205Y-86069305D01*
X175308401Y-86323748D01*
X175445315Y-86284976D01*
X175616155Y-86265590D01*
X175748223Y-86281644D01*
X175853635Y-86329806D01*
X175922698Y-86405836D01*
X175945719Y-86505493D01*
X175206624Y-86505493D01*
X175202989Y-86556381D01*
X175201777Y-86616963D01*
X174440872Y-86616963D01*
X174394830Y-86591519D01*
X174326979Y-86527302D01*
X174300323Y-86444911D01*
X174311228Y-86373425D01*
X174351212Y-86310420D01*
X174429968Y-86266801D01*
X174554766Y-86251050D01*
X174675626Y-86259532D01*
X174776494Y-86284976D01*
X174932795Y-86357674D01*
X175020032Y-86115347D01*
X174852827Y-86041438D01*
X174722577Y-86011450D01*
X174554766Y-86001454D01*
X174384733Y-86014243D01*
X174246204Y-86052612D01*
X174139176Y-86116559D01*
X174036490Y-86255594D01*
X174002262Y-86442488D01*
X173752666Y-86442488D01*
X173752666Y-85633118D01*
X173454604Y-85633118D01*
X173454604Y-86062036D01*
X173335258Y-86020234D01*
X173219548Y-86006300D01*
X173114742Y-86017205D01*
X173023263Y-86049919D01*
X172882714Y-86172294D01*
X172833643Y-86258926D01*
X172797900Y-86361309D01*
X172776090Y-86476716D01*
X172768821Y-86602423D01*
X170590426Y-86602423D01*
X170590307Y-86600000D01*
X170597880Y-86445849D01*
X170620526Y-86293182D01*
X170658027Y-86143470D01*
X170710021Y-85998155D01*
X170776009Y-85858635D01*
X170855354Y-85726256D01*
X170947293Y-85602291D01*
X171050940Y-85487935D01*
X171165296Y-85384288D01*
X171289261Y-85292349D01*
X171421640Y-85213004D01*
X171561159Y-85147017D01*
X171706475Y-85095022D01*
X171856187Y-85057521D01*
X172008854Y-85034875D01*
X172163005Y-85027302D01*
X172768821Y-85027302D01*
X173454604Y-85027302D01*
G37*
%TO.C,C1*%
D13*
X167340580Y-61490000D02*
X167059420Y-61490000D01*
X167340580Y-62510000D02*
X167059420Y-62510000D01*
%TO.C,R19*%
X173377500Y-68862742D02*
X173377500Y-69337258D01*
X174422500Y-68862742D02*
X174422500Y-69337258D01*
%TO.C,C6*%
X173715580Y-61490000D02*
X173434420Y-61490000D01*
X173715580Y-62510000D02*
X173434420Y-62510000D01*
%TO.C,Q1*%
X171290000Y-56665000D02*
X171315000Y-56665000D01*
X171290000Y-58135000D02*
X171290000Y-56665000D01*
X171315000Y-58135000D02*
X171290000Y-58135000D01*
X173485000Y-56665000D02*
X173510000Y-56665000D01*
X173510000Y-56665000D02*
X173510000Y-58135000D01*
X173510000Y-58135000D02*
X173485000Y-58135000D01*
X173680000Y-56360000D02*
X173490000Y-56220000D01*
X173680000Y-56080000D01*
X173680000Y-56360000D01*
G36*
X173680000Y-56360000D02*
G01*
X173490000Y-56220000D01*
X173680000Y-56080000D01*
X173680000Y-56360000D01*
G37*
%TO.C,U4*%
X160565000Y-55315000D02*
X160620000Y-55315000D01*
X160565000Y-59435000D02*
X160565000Y-55315000D01*
X160620000Y-59435000D02*
X160565000Y-59435000D01*
X170630000Y-55315000D02*
X170685000Y-55315000D01*
X170685000Y-55315000D02*
X170685000Y-59435000D01*
X170685000Y-59435000D02*
X170630000Y-59435000D01*
X160615000Y-59975000D02*
X160285000Y-60215000D01*
X160285000Y-59735000D01*
X160615000Y-59975000D01*
G36*
X160615000Y-59975000D02*
G01*
X160285000Y-60215000D01*
X160285000Y-59735000D01*
X160615000Y-59975000D01*
G37*
%TO.C,U6*%
X153917500Y-59460000D02*
X153917500Y-55340000D01*
X159282500Y-55340000D02*
X159282500Y-59460000D01*
X154610000Y-61440000D02*
X154130000Y-61440000D01*
X154370000Y-61110000D01*
X154610000Y-61440000D01*
G36*
X154610000Y-61440000D02*
G01*
X154130000Y-61440000D01*
X154370000Y-61110000D01*
X154610000Y-61440000D01*
G37*
%TO.C,R20*%
X174877500Y-69337258D02*
X174877500Y-68862742D01*
X175922500Y-69337258D02*
X175922500Y-68862742D01*
%TO.C,R17*%
X176477500Y-68862742D02*
X176477500Y-69337258D01*
X177522500Y-68862742D02*
X177522500Y-69337258D01*
%TO.C,R15*%
X177977500Y-68862742D02*
X177977500Y-69337258D01*
X179022500Y-68862742D02*
X179022500Y-69337258D01*
%TO.C,R21*%
X152377500Y-56462742D02*
X152377500Y-56937258D01*
X153422500Y-56462742D02*
X153422500Y-56937258D01*
%TD*%
M02*
