%TF.GenerationSoftware,KiCad,Pcbnew,10.0.0*%
%TF.CreationDate,2026-04-15T22:29:23+02:00*%
%TF.ProjectId,dongle,646f6e67-6c65-42e6-9b69-6361645f7063,rev?*%
%TF.SameCoordinates,Original*%
%TF.FileFunction,Soldermask,Top*%
%TF.FilePolarity,Negative*%
%FSLAX46Y46*%
G04 Gerber Fmt 4.6, Leading zero omitted, Abs format (unit mm)*
G04 Created by KiCad (PCBNEW 10.0.0) date 2026-04-15 22:29:23*
%MOMM*%
%LPD*%
G01*
G04 APERTURE LIST*
G04 Aperture macros list*
%AMRoundRect*
0 Rectangle with rounded corners*
0 $1 Rounding radius*
0 $2 $3 $4 $5 $6 $7 $8 $9 X,Y pos of 4 corners*
0 Add a 4 corners polygon primitive as box body*
4,1,4,$2,$3,$4,$5,$6,$7,$8,$9,$2,$3,0*
0 Add four circle primitives for the rounded corners*
1,1,$1+$1,$2,$3*
1,1,$1+$1,$4,$5*
1,1,$1+$1,$6,$7*
1,1,$1+$1,$8,$9*
0 Add four rect primitives between the rounded corners*
20,1,$1+$1,$2,$3,$4,$5,0*
20,1,$1+$1,$4,$5,$6,$7,0*
20,1,$1+$1,$6,$7,$8,$9,0*
20,1,$1+$1,$8,$9,$2,$3,0*%
G04 Aperture macros list end*
%ADD10RoundRect,0.200000X-0.200000X-0.275000X0.200000X-0.275000X0.200000X0.275000X-0.200000X0.275000X0*%
%ADD11RoundRect,0.200000X0.200000X0.275000X-0.200000X0.275000X-0.200000X-0.275000X0.200000X-0.275000X0*%
%ADD12RoundRect,0.225000X0.225000X0.250000X-0.225000X0.250000X-0.225000X-0.250000X0.225000X-0.250000X0*%
%ADD13RoundRect,0.200000X-0.275000X0.200000X-0.275000X-0.200000X0.275000X-0.200000X0.275000X0.200000X0*%
%ADD14RoundRect,0.070000X0.105000X0.680000X-0.105000X0.680000X-0.105000X-0.680000X0.105000X-0.680000X0*%
%ADD15R,0.900000X1.500000*%
%ADD16R,1.500000X0.900000*%
%ADD17R,0.900000X0.900000*%
%ADD18RoundRect,0.225000X0.250000X-0.225000X0.250000X0.225000X-0.250000X0.225000X-0.250000X-0.225000X0*%
%ADD19RoundRect,0.087500X-0.087500X0.425000X-0.087500X-0.425000X0.087500X-0.425000X0.087500X0.425000X0*%
%ADD20RoundRect,0.150000X0.150000X-0.825000X0.150000X0.825000X-0.150000X0.825000X-0.150000X-0.825000X0*%
%ADD21RoundRect,0.100000X0.100000X-0.712500X0.100000X0.712500X-0.100000X0.712500X-0.100000X-0.712500X0*%
%ADD22RoundRect,0.200000X0.275000X-0.200000X0.275000X0.200000X-0.275000X0.200000X-0.275000X-0.200000X0*%
G04 APERTURE END LIST*
D10*
%TO.C,R23*%
X172800000Y-60500000D03*
X174450000Y-60500000D03*
%TD*%
D11*
%TO.C,R22*%
X177425000Y-60500000D03*
X175775000Y-60500000D03*
%TD*%
D12*
%TO.C,C7*%
X177375000Y-62000000D03*
X175825000Y-62000000D03*
%TD*%
D13*
%TO.C,R16*%
X180000000Y-68275000D03*
X180000000Y-69925000D03*
%TD*%
D14*
%TO.C,J2*%
X157250000Y-49450000D03*
X157750000Y-49450000D03*
X158250000Y-49450000D03*
X158750000Y-49450000D03*
X159250000Y-49450000D03*
X159750000Y-49450000D03*
X162250000Y-49450000D03*
X162750000Y-49450000D03*
X163250000Y-49450000D03*
X163750000Y-49450000D03*
X164250000Y-49450000D03*
X164750000Y-49450000D03*
X165250000Y-49450000D03*
X165750000Y-49450000D03*
X166250000Y-49450000D03*
X166750000Y-49450000D03*
X167250000Y-49450000D03*
X167750000Y-49450000D03*
X168250000Y-49450000D03*
X168750000Y-49450000D03*
X169250000Y-49450000D03*
X169750000Y-49450000D03*
X170250000Y-49450000D03*
X170750000Y-49450000D03*
X171250000Y-49450000D03*
X171750000Y-49450000D03*
X172250000Y-49450000D03*
X172750000Y-49450000D03*
X173250000Y-49450000D03*
X173750000Y-49450000D03*
X174250000Y-49450000D03*
X174750000Y-49450000D03*
X175250000Y-49450000D03*
X175750000Y-49450000D03*
%TD*%
D12*
%TO.C,C4*%
X171075000Y-62000000D03*
X169525000Y-62000000D03*
%TD*%
D15*
%TO.C,U7*%
X170920000Y-64700000D03*
X169650000Y-64700000D03*
X168380000Y-64700000D03*
X167110000Y-64700000D03*
X165840000Y-64700000D03*
X164570000Y-64700000D03*
X163300000Y-64700000D03*
X162030000Y-64700000D03*
X160760000Y-64700000D03*
X159490000Y-64700000D03*
X158220000Y-64700000D03*
X156950000Y-64700000D03*
X155680000Y-64700000D03*
X154410000Y-64700000D03*
D16*
X153160000Y-66465000D03*
X153160000Y-67735000D03*
X153160000Y-69005000D03*
X153160000Y-70275000D03*
X153160000Y-71545000D03*
X153160000Y-72815000D03*
X153160000Y-74085000D03*
X153160000Y-75355000D03*
X153160000Y-76625000D03*
X153160000Y-77895000D03*
X153160000Y-79165000D03*
X153160000Y-80435000D03*
D15*
X154410000Y-82200000D03*
X155680000Y-82200000D03*
X156950000Y-82200000D03*
X158220000Y-82200000D03*
X159490000Y-82200000D03*
X160760000Y-82200000D03*
X162030000Y-82200000D03*
X163300000Y-82200000D03*
X164570000Y-82200000D03*
X165840000Y-82200000D03*
X167110000Y-82200000D03*
X168380000Y-82200000D03*
X169650000Y-82200000D03*
X170920000Y-82200000D03*
D17*
X164600000Y-70550000D03*
X163200000Y-70550000D03*
X161800000Y-70550000D03*
X164600000Y-71950000D03*
X163200000Y-71950000D03*
X161800000Y-71950000D03*
X164600000Y-73350000D03*
X163200000Y-73350000D03*
X161800000Y-73350000D03*
%TD*%
D18*
%TO.C,C5*%
X152900000Y-60775000D03*
X152900000Y-59225000D03*
%TD*%
D12*
%TO.C,C1*%
X167975000Y-62000000D03*
X166425000Y-62000000D03*
%TD*%
D13*
%TO.C,R19*%
X173900000Y-68275000D03*
X173900000Y-69925000D03*
%TD*%
D12*
%TO.C,C6*%
X174350000Y-62000000D03*
X172800000Y-62000000D03*
%TD*%
D19*
%TO.C,Q1*%
X173050000Y-56562500D03*
X172400000Y-56562500D03*
X171750000Y-56562500D03*
X171750000Y-58237500D03*
X172400000Y-58237500D03*
X173050000Y-58237500D03*
%TD*%
D20*
%TO.C,U4*%
X161180000Y-59850000D03*
X162450000Y-59850000D03*
X163720000Y-59850000D03*
X164990000Y-59850000D03*
X166260000Y-59850000D03*
X167530000Y-59850000D03*
X168800000Y-59850000D03*
X170070000Y-59850000D03*
X170070000Y-54900000D03*
X168800000Y-54900000D03*
X167530000Y-54900000D03*
X166260000Y-54900000D03*
X164990000Y-54900000D03*
X163720000Y-54900000D03*
X162450000Y-54900000D03*
X161180000Y-54900000D03*
%TD*%
D21*
%TO.C,U6*%
X154377500Y-60037500D03*
X155012500Y-60037500D03*
X155647500Y-60037500D03*
X156282500Y-60037500D03*
X156917500Y-60037500D03*
X157552500Y-60037500D03*
X158187500Y-60037500D03*
X158822500Y-60037500D03*
X158822500Y-54762500D03*
X158187500Y-54762500D03*
X157552500Y-54762500D03*
X156917500Y-54762500D03*
X156282500Y-54762500D03*
X155647500Y-54762500D03*
X155012500Y-54762500D03*
X154377500Y-54762500D03*
%TD*%
D22*
%TO.C,R20*%
X175400000Y-69925000D03*
X175400000Y-68275000D03*
%TD*%
D13*
%TO.C,R17*%
X177000000Y-68275000D03*
X177000000Y-69925000D03*
%TD*%
%TO.C,R15*%
X178500000Y-68275000D03*
X178500000Y-69925000D03*
%TD*%
%TO.C,R21*%
X152900000Y-55875000D03*
X152900000Y-57525000D03*
%TD*%
M02*
