%TF.GenerationSoftware,KiCad,Pcbnew,10.0.0*%
%TF.CreationDate,2026-04-15T22:29:23+02:00*%
%TF.ProjectId,dongle,646f6e67-6c65-42e6-9b69-6361645f7063,rev?*%
%TF.SameCoordinates,Original*%
%TF.FileFunction,Legend,Bot*%
%TF.FilePolarity,Positive*%
%FSLAX46Y46*%
G04 Gerber Fmt 4.6, Leading zero omitted, Abs format (unit mm)*
G04 Created by KiCad (PCBNEW 10.0.0) date 2026-04-15 22:29:23*
%MOMM*%
%LPD*%
G01*
G04 APERTURE LIST*
%ADD10C,0.150000*%
%ADD11C,0.120000*%
G04 APERTURE END LIST*
D10*
X159261904Y-80154819D02*
X159261904Y-80964342D01*
X159261904Y-80964342D02*
X159214285Y-81059580D01*
X159214285Y-81059580D02*
X159166666Y-81107200D01*
X159166666Y-81107200D02*
X159071428Y-81154819D01*
X159071428Y-81154819D02*
X158880952Y-81154819D01*
X158880952Y-81154819D02*
X158785714Y-81107200D01*
X158785714Y-81107200D02*
X158738095Y-81059580D01*
X158738095Y-81059580D02*
X158690476Y-80964342D01*
X158690476Y-80964342D02*
X158690476Y-80154819D01*
X158261904Y-80250057D02*
X158214285Y-80202438D01*
X158214285Y-80202438D02*
X158119047Y-80154819D01*
X158119047Y-80154819D02*
X157880952Y-80154819D01*
X157880952Y-80154819D02*
X157785714Y-80202438D01*
X157785714Y-80202438D02*
X157738095Y-80250057D01*
X157738095Y-80250057D02*
X157690476Y-80345295D01*
X157690476Y-80345295D02*
X157690476Y-80440533D01*
X157690476Y-80440533D02*
X157738095Y-80583390D01*
X157738095Y-80583390D02*
X158309523Y-81154819D01*
X158309523Y-81154819D02*
X157690476Y-81154819D01*
X162854819Y-65733333D02*
X162378628Y-65400000D01*
X162854819Y-65161905D02*
X161854819Y-65161905D01*
X161854819Y-65161905D02*
X161854819Y-65542857D01*
X161854819Y-65542857D02*
X161902438Y-65638095D01*
X161902438Y-65638095D02*
X161950057Y-65685714D01*
X161950057Y-65685714D02*
X162045295Y-65733333D01*
X162045295Y-65733333D02*
X162188152Y-65733333D01*
X162188152Y-65733333D02*
X162283390Y-65685714D01*
X162283390Y-65685714D02*
X162331009Y-65638095D01*
X162331009Y-65638095D02*
X162378628Y-65542857D01*
X162378628Y-65542857D02*
X162378628Y-65161905D01*
X162854819Y-66685714D02*
X162854819Y-66114286D01*
X162854819Y-66400000D02*
X161854819Y-66400000D01*
X161854819Y-66400000D02*
X161997676Y-66304762D01*
X161997676Y-66304762D02*
X162092914Y-66209524D01*
X162092914Y-66209524D02*
X162140533Y-66114286D01*
X173954819Y-66433333D02*
X173478628Y-66100000D01*
X173954819Y-65861905D02*
X172954819Y-65861905D01*
X172954819Y-65861905D02*
X172954819Y-66242857D01*
X172954819Y-66242857D02*
X173002438Y-66338095D01*
X173002438Y-66338095D02*
X173050057Y-66385714D01*
X173050057Y-66385714D02*
X173145295Y-66433333D01*
X173145295Y-66433333D02*
X173288152Y-66433333D01*
X173288152Y-66433333D02*
X173383390Y-66385714D01*
X173383390Y-66385714D02*
X173431009Y-66338095D01*
X173431009Y-66338095D02*
X173478628Y-66242857D01*
X173478628Y-66242857D02*
X173478628Y-65861905D01*
X173288152Y-67290476D02*
X173954819Y-67290476D01*
X172907200Y-67052381D02*
X173621485Y-66814286D01*
X173621485Y-66814286D02*
X173621485Y-67433333D01*
X168654819Y-80633333D02*
X168178628Y-80300000D01*
X168654819Y-80061905D02*
X167654819Y-80061905D01*
X167654819Y-80061905D02*
X167654819Y-80442857D01*
X167654819Y-80442857D02*
X167702438Y-80538095D01*
X167702438Y-80538095D02*
X167750057Y-80585714D01*
X167750057Y-80585714D02*
X167845295Y-80633333D01*
X167845295Y-80633333D02*
X167988152Y-80633333D01*
X167988152Y-80633333D02*
X168083390Y-80585714D01*
X168083390Y-80585714D02*
X168131009Y-80538095D01*
X168131009Y-80538095D02*
X168178628Y-80442857D01*
X168178628Y-80442857D02*
X168178628Y-80061905D01*
X167654819Y-81538095D02*
X167654819Y-81061905D01*
X167654819Y-81061905D02*
X168131009Y-81014286D01*
X168131009Y-81014286D02*
X168083390Y-81061905D01*
X168083390Y-81061905D02*
X168035771Y-81157143D01*
X168035771Y-81157143D02*
X168035771Y-81395238D01*
X168035771Y-81395238D02*
X168083390Y-81490476D01*
X168083390Y-81490476D02*
X168131009Y-81538095D01*
X168131009Y-81538095D02*
X168226247Y-81585714D01*
X168226247Y-81585714D02*
X168464342Y-81585714D01*
X168464342Y-81585714D02*
X168559580Y-81538095D01*
X168559580Y-81538095D02*
X168607200Y-81490476D01*
X168607200Y-81490476D02*
X168654819Y-81395238D01*
X168654819Y-81395238D02*
X168654819Y-81157143D01*
X168654819Y-81157143D02*
X168607200Y-81061905D01*
X168607200Y-81061905D02*
X168559580Y-81014286D01*
X159554819Y-66333333D02*
X159078628Y-66000000D01*
X159554819Y-65761905D02*
X158554819Y-65761905D01*
X158554819Y-65761905D02*
X158554819Y-66142857D01*
X158554819Y-66142857D02*
X158602438Y-66238095D01*
X158602438Y-66238095D02*
X158650057Y-66285714D01*
X158650057Y-66285714D02*
X158745295Y-66333333D01*
X158745295Y-66333333D02*
X158888152Y-66333333D01*
X158888152Y-66333333D02*
X158983390Y-66285714D01*
X158983390Y-66285714D02*
X159031009Y-66238095D01*
X159031009Y-66238095D02*
X159078628Y-66142857D01*
X159078628Y-66142857D02*
X159078628Y-65761905D01*
X158983390Y-66904762D02*
X158935771Y-66809524D01*
X158935771Y-66809524D02*
X158888152Y-66761905D01*
X158888152Y-66761905D02*
X158792914Y-66714286D01*
X158792914Y-66714286D02*
X158745295Y-66714286D01*
X158745295Y-66714286D02*
X158650057Y-66761905D01*
X158650057Y-66761905D02*
X158602438Y-66809524D01*
X158602438Y-66809524D02*
X158554819Y-66904762D01*
X158554819Y-66904762D02*
X158554819Y-67095238D01*
X158554819Y-67095238D02*
X158602438Y-67190476D01*
X158602438Y-67190476D02*
X158650057Y-67238095D01*
X158650057Y-67238095D02*
X158745295Y-67285714D01*
X158745295Y-67285714D02*
X158792914Y-67285714D01*
X158792914Y-67285714D02*
X158888152Y-67238095D01*
X158888152Y-67238095D02*
X158935771Y-67190476D01*
X158935771Y-67190476D02*
X158983390Y-67095238D01*
X158983390Y-67095238D02*
X158983390Y-66904762D01*
X158983390Y-66904762D02*
X159031009Y-66809524D01*
X159031009Y-66809524D02*
X159078628Y-66761905D01*
X159078628Y-66761905D02*
X159173866Y-66714286D01*
X159173866Y-66714286D02*
X159364342Y-66714286D01*
X159364342Y-66714286D02*
X159459580Y-66761905D01*
X159459580Y-66761905D02*
X159507200Y-66809524D01*
X159507200Y-66809524D02*
X159554819Y-66904762D01*
X159554819Y-66904762D02*
X159554819Y-67095238D01*
X159554819Y-67095238D02*
X159507200Y-67190476D01*
X159507200Y-67190476D02*
X159459580Y-67238095D01*
X159459580Y-67238095D02*
X159364342Y-67285714D01*
X159364342Y-67285714D02*
X159173866Y-67285714D01*
X159173866Y-67285714D02*
X159078628Y-67238095D01*
X159078628Y-67238095D02*
X159031009Y-67190476D01*
X159031009Y-67190476D02*
X158983390Y-67095238D01*
X176161904Y-78654819D02*
X176161904Y-79464342D01*
X176161904Y-79464342D02*
X176114285Y-79559580D01*
X176114285Y-79559580D02*
X176066666Y-79607200D01*
X176066666Y-79607200D02*
X175971428Y-79654819D01*
X175971428Y-79654819D02*
X175780952Y-79654819D01*
X175780952Y-79654819D02*
X175685714Y-79607200D01*
X175685714Y-79607200D02*
X175638095Y-79559580D01*
X175638095Y-79559580D02*
X175590476Y-79464342D01*
X175590476Y-79464342D02*
X175590476Y-78654819D01*
X175209523Y-78654819D02*
X174590476Y-78654819D01*
X174590476Y-78654819D02*
X174923809Y-79035771D01*
X174923809Y-79035771D02*
X174780952Y-79035771D01*
X174780952Y-79035771D02*
X174685714Y-79083390D01*
X174685714Y-79083390D02*
X174638095Y-79131009D01*
X174638095Y-79131009D02*
X174590476Y-79226247D01*
X174590476Y-79226247D02*
X174590476Y-79464342D01*
X174590476Y-79464342D02*
X174638095Y-79559580D01*
X174638095Y-79559580D02*
X174685714Y-79607200D01*
X174685714Y-79607200D02*
X174780952Y-79654819D01*
X174780952Y-79654819D02*
X175066666Y-79654819D01*
X175066666Y-79654819D02*
X175161904Y-79607200D01*
X175161904Y-79607200D02*
X175209523Y-79559580D01*
X164454819Y-65733333D02*
X163978628Y-65400000D01*
X164454819Y-65161905D02*
X163454819Y-65161905D01*
X163454819Y-65161905D02*
X163454819Y-65542857D01*
X163454819Y-65542857D02*
X163502438Y-65638095D01*
X163502438Y-65638095D02*
X163550057Y-65685714D01*
X163550057Y-65685714D02*
X163645295Y-65733333D01*
X163645295Y-65733333D02*
X163788152Y-65733333D01*
X163788152Y-65733333D02*
X163883390Y-65685714D01*
X163883390Y-65685714D02*
X163931009Y-65638095D01*
X163931009Y-65638095D02*
X163978628Y-65542857D01*
X163978628Y-65542857D02*
X163978628Y-65161905D01*
X163550057Y-66114286D02*
X163502438Y-66161905D01*
X163502438Y-66161905D02*
X163454819Y-66257143D01*
X163454819Y-66257143D02*
X163454819Y-66495238D01*
X163454819Y-66495238D02*
X163502438Y-66590476D01*
X163502438Y-66590476D02*
X163550057Y-66638095D01*
X163550057Y-66638095D02*
X163645295Y-66685714D01*
X163645295Y-66685714D02*
X163740533Y-66685714D01*
X163740533Y-66685714D02*
X163883390Y-66638095D01*
X163883390Y-66638095D02*
X164454819Y-66066667D01*
X164454819Y-66066667D02*
X164454819Y-66685714D01*
X166954819Y-80633333D02*
X166478628Y-80300000D01*
X166954819Y-80061905D02*
X165954819Y-80061905D01*
X165954819Y-80061905D02*
X165954819Y-80442857D01*
X165954819Y-80442857D02*
X166002438Y-80538095D01*
X166002438Y-80538095D02*
X166050057Y-80585714D01*
X166050057Y-80585714D02*
X166145295Y-80633333D01*
X166145295Y-80633333D02*
X166288152Y-80633333D01*
X166288152Y-80633333D02*
X166383390Y-80585714D01*
X166383390Y-80585714D02*
X166431009Y-80538095D01*
X166431009Y-80538095D02*
X166478628Y-80442857D01*
X166478628Y-80442857D02*
X166478628Y-80061905D01*
X165954819Y-80966667D02*
X165954819Y-81585714D01*
X165954819Y-81585714D02*
X166335771Y-81252381D01*
X166335771Y-81252381D02*
X166335771Y-81395238D01*
X166335771Y-81395238D02*
X166383390Y-81490476D01*
X166383390Y-81490476D02*
X166431009Y-81538095D01*
X166431009Y-81538095D02*
X166526247Y-81585714D01*
X166526247Y-81585714D02*
X166764342Y-81585714D01*
X166764342Y-81585714D02*
X166859580Y-81538095D01*
X166859580Y-81538095D02*
X166907200Y-81490476D01*
X166907200Y-81490476D02*
X166954819Y-81395238D01*
X166954819Y-81395238D02*
X166954819Y-81109524D01*
X166954819Y-81109524D02*
X166907200Y-81014286D01*
X166907200Y-81014286D02*
X166859580Y-80966667D01*
X165454819Y-80657142D02*
X164978628Y-80323809D01*
X165454819Y-80085714D02*
X164454819Y-80085714D01*
X164454819Y-80085714D02*
X164454819Y-80466666D01*
X164454819Y-80466666D02*
X164502438Y-80561904D01*
X164502438Y-80561904D02*
X164550057Y-80609523D01*
X164550057Y-80609523D02*
X164645295Y-80657142D01*
X164645295Y-80657142D02*
X164788152Y-80657142D01*
X164788152Y-80657142D02*
X164883390Y-80609523D01*
X164883390Y-80609523D02*
X164931009Y-80561904D01*
X164931009Y-80561904D02*
X164978628Y-80466666D01*
X164978628Y-80466666D02*
X164978628Y-80085714D01*
X165454819Y-81609523D02*
X165454819Y-81038095D01*
X165454819Y-81323809D02*
X164454819Y-81323809D01*
X164454819Y-81323809D02*
X164597676Y-81228571D01*
X164597676Y-81228571D02*
X164692914Y-81133333D01*
X164692914Y-81133333D02*
X164740533Y-81038095D01*
X164883390Y-82180952D02*
X164835771Y-82085714D01*
X164835771Y-82085714D02*
X164788152Y-82038095D01*
X164788152Y-82038095D02*
X164692914Y-81990476D01*
X164692914Y-81990476D02*
X164645295Y-81990476D01*
X164645295Y-81990476D02*
X164550057Y-82038095D01*
X164550057Y-82038095D02*
X164502438Y-82085714D01*
X164502438Y-82085714D02*
X164454819Y-82180952D01*
X164454819Y-82180952D02*
X164454819Y-82371428D01*
X164454819Y-82371428D02*
X164502438Y-82466666D01*
X164502438Y-82466666D02*
X164550057Y-82514285D01*
X164550057Y-82514285D02*
X164645295Y-82561904D01*
X164645295Y-82561904D02*
X164692914Y-82561904D01*
X164692914Y-82561904D02*
X164788152Y-82514285D01*
X164788152Y-82514285D02*
X164835771Y-82466666D01*
X164835771Y-82466666D02*
X164883390Y-82371428D01*
X164883390Y-82371428D02*
X164883390Y-82180952D01*
X164883390Y-82180952D02*
X164931009Y-82085714D01*
X164931009Y-82085714D02*
X164978628Y-82038095D01*
X164978628Y-82038095D02*
X165073866Y-81990476D01*
X165073866Y-81990476D02*
X165264342Y-81990476D01*
X165264342Y-81990476D02*
X165359580Y-82038095D01*
X165359580Y-82038095D02*
X165407200Y-82085714D01*
X165407200Y-82085714D02*
X165454819Y-82180952D01*
X165454819Y-82180952D02*
X165454819Y-82371428D01*
X165454819Y-82371428D02*
X165407200Y-82466666D01*
X165407200Y-82466666D02*
X165359580Y-82514285D01*
X165359580Y-82514285D02*
X165264342Y-82561904D01*
X165264342Y-82561904D02*
X165073866Y-82561904D01*
X165073866Y-82561904D02*
X164978628Y-82514285D01*
X164978628Y-82514285D02*
X164931009Y-82466666D01*
X164931009Y-82466666D02*
X164883390Y-82371428D01*
X157854819Y-66333333D02*
X157378628Y-66000000D01*
X157854819Y-65761905D02*
X156854819Y-65761905D01*
X156854819Y-65761905D02*
X156854819Y-66142857D01*
X156854819Y-66142857D02*
X156902438Y-66238095D01*
X156902438Y-66238095D02*
X156950057Y-66285714D01*
X156950057Y-66285714D02*
X157045295Y-66333333D01*
X157045295Y-66333333D02*
X157188152Y-66333333D01*
X157188152Y-66333333D02*
X157283390Y-66285714D01*
X157283390Y-66285714D02*
X157331009Y-66238095D01*
X157331009Y-66238095D02*
X157378628Y-66142857D01*
X157378628Y-66142857D02*
X157378628Y-65761905D01*
X156854819Y-67190476D02*
X156854819Y-67000000D01*
X156854819Y-67000000D02*
X156902438Y-66904762D01*
X156902438Y-66904762D02*
X156950057Y-66857143D01*
X156950057Y-66857143D02*
X157092914Y-66761905D01*
X157092914Y-66761905D02*
X157283390Y-66714286D01*
X157283390Y-66714286D02*
X157664342Y-66714286D01*
X157664342Y-66714286D02*
X157759580Y-66761905D01*
X157759580Y-66761905D02*
X157807200Y-66809524D01*
X157807200Y-66809524D02*
X157854819Y-66904762D01*
X157854819Y-66904762D02*
X157854819Y-67095238D01*
X157854819Y-67095238D02*
X157807200Y-67190476D01*
X157807200Y-67190476D02*
X157759580Y-67238095D01*
X157759580Y-67238095D02*
X157664342Y-67285714D01*
X157664342Y-67285714D02*
X157426247Y-67285714D01*
X157426247Y-67285714D02*
X157331009Y-67238095D01*
X157331009Y-67238095D02*
X157283390Y-67190476D01*
X157283390Y-67190476D02*
X157235771Y-67095238D01*
X157235771Y-67095238D02*
X157235771Y-66904762D01*
X157235771Y-66904762D02*
X157283390Y-66809524D01*
X157283390Y-66809524D02*
X157331009Y-66761905D01*
X157331009Y-66761905D02*
X157426247Y-66714286D01*
X156254819Y-66333333D02*
X155778628Y-66000000D01*
X156254819Y-65761905D02*
X155254819Y-65761905D01*
X155254819Y-65761905D02*
X155254819Y-66142857D01*
X155254819Y-66142857D02*
X155302438Y-66238095D01*
X155302438Y-66238095D02*
X155350057Y-66285714D01*
X155350057Y-66285714D02*
X155445295Y-66333333D01*
X155445295Y-66333333D02*
X155588152Y-66333333D01*
X155588152Y-66333333D02*
X155683390Y-66285714D01*
X155683390Y-66285714D02*
X155731009Y-66238095D01*
X155731009Y-66238095D02*
X155778628Y-66142857D01*
X155778628Y-66142857D02*
X155778628Y-65761905D01*
X155254819Y-66666667D02*
X155254819Y-67333333D01*
X155254819Y-67333333D02*
X156254819Y-66904762D01*
%TO.C,R1*%
D11*
X161877500Y-63262742D02*
X161877500Y-63737258D01*
X162922500Y-63262742D02*
X162922500Y-63737258D01*
%TO.C,R4*%
X172977500Y-68862742D02*
X172977500Y-69337258D01*
X174022500Y-68862742D02*
X174022500Y-69337258D01*
%TO.C,R5*%
X167777500Y-78537258D02*
X167777500Y-78062742D01*
X168822500Y-78537258D02*
X168822500Y-78062742D01*
%TO.C,R8*%
X158577500Y-68862742D02*
X158577500Y-69337258D01*
X159622500Y-68862742D02*
X159622500Y-69337258D01*
%TO.C,R2*%
X163477500Y-63262742D02*
X163477500Y-63737258D01*
X164522500Y-63262742D02*
X164522500Y-63737258D01*
%TO.C,R3*%
X165977500Y-78537258D02*
X165977500Y-78062742D01*
X167022500Y-78537258D02*
X167022500Y-78062742D01*
%TO.C,R18*%
X164377500Y-78537258D02*
X164377500Y-78062742D01*
X165422500Y-78537258D02*
X165422500Y-78062742D01*
%TO.C,R6*%
X156877500Y-68862742D02*
X156877500Y-69337258D01*
X157922500Y-68862742D02*
X157922500Y-69337258D01*
%TO.C,R7*%
X155277500Y-68862742D02*
X155277500Y-69337258D01*
X156322500Y-68862742D02*
X156322500Y-69337258D01*
%TD*%
M02*
