%TF.GenerationSoftware,KiCad,Pcbnew,10.0.0*%
%TF.CreationDate,2026-04-15T22:29:23+02:00*%
%TF.ProjectId,dongle,646f6e67-6c65-42e6-9b69-6361645f7063,rev?*%
%TF.SameCoordinates,Original*%
%TF.FileFunction,Soldermask,Bot*%
%TF.FilePolarity,Negative*%
%FSLAX46Y46*%
G04 Gerber Fmt 4.6, Leading zero omitted, Abs format (unit mm)*
G04 Created by KiCad (PCBNEW 10.0.0) date 2026-04-15 22:29:23*
%MOMM*%
%LPD*%
G01*
G04 APERTURE LIST*
G04 Aperture macros list*
%AMRoundRect*
0 Rectangle with rounded corners*
0 $1 Rounding radius*
0 $2 $3 $4 $5 $6 $7 $8 $9 X,Y pos of 4 corners*
0 Add a 4 corners polygon primitive as box body*
4,1,4,$2,$3,$4,$5,$6,$7,$8,$9,$2,$3,0*
0 Add four circle primitives for the rounded corners*
1,1,$1+$1,$2,$3*
1,1,$1+$1,$4,$5*
1,1,$1+$1,$6,$7*
1,1,$1+$1,$8,$9*
0 Add four rect primitives between the rounded corners*
20,1,$1+$1,$2,$3,$4,$5,0*
20,1,$1+$1,$4,$5,$6,$7,0*
20,1,$1+$1,$6,$7,$8,$9,0*
20,1,$1+$1,$8,$9,$2,$3,0*%
G04 Aperture macros list end*
%ADD10RoundRect,0.070000X0.105000X0.930000X-0.105000X0.930000X-0.105000X-0.930000X0.105000X-0.930000X0*%
%ADD11R,1.000000X2.000000*%
%ADD12RoundRect,0.200000X-0.275000X0.200000X-0.275000X-0.200000X0.275000X-0.200000X0.275000X0.200000X0*%
%ADD13RoundRect,0.200000X0.275000X-0.200000X0.275000X0.200000X-0.275000X0.200000X-0.275000X-0.200000X0*%
G04 APERTURE END LIST*
D10*
%TO.C,J2*%
X157500000Y-49700000D03*
X158000000Y-49700000D03*
X158500000Y-49700000D03*
X159000000Y-49700000D03*
X159500000Y-49700000D03*
X162000000Y-49700000D03*
X162500000Y-49700000D03*
X163000000Y-49700000D03*
X163500000Y-49700000D03*
X164000000Y-49700000D03*
X164500000Y-49700000D03*
X165000000Y-49700000D03*
X165500000Y-49700000D03*
X166000000Y-49700000D03*
X166500000Y-49700000D03*
X167000000Y-49700000D03*
X167500000Y-49700000D03*
X168000000Y-49700000D03*
X168500000Y-49700000D03*
X169000000Y-49700000D03*
X169500000Y-49700000D03*
X170000000Y-49700000D03*
X170500000Y-49700000D03*
X171000000Y-49700000D03*
X171500000Y-49700000D03*
X172000000Y-49700000D03*
X172500000Y-49700000D03*
X173000000Y-49700000D03*
X173500000Y-49700000D03*
X174000000Y-49700000D03*
X174500000Y-49700000D03*
X175000000Y-49700000D03*
X175500000Y-49700000D03*
%TD*%
D11*
%TO.C,U2*%
X154570000Y-72100000D03*
X153300000Y-72100000D03*
X155840000Y-72100000D03*
X157110000Y-72100000D03*
X158380000Y-72100000D03*
X159650000Y-72100000D03*
X160920000Y-72100000D03*
X162190000Y-72100000D03*
%TD*%
D12*
%TO.C,R1*%
X162400000Y-62675000D03*
X162400000Y-64325000D03*
%TD*%
%TO.C,R4*%
X173500000Y-68275000D03*
X173500000Y-69925000D03*
%TD*%
D13*
%TO.C,R5*%
X168300000Y-79125000D03*
X168300000Y-77475000D03*
%TD*%
D12*
%TO.C,R8*%
X159100000Y-68275000D03*
X159100000Y-69925000D03*
%TD*%
D11*
%TO.C,U3*%
X172270000Y-72062500D03*
X171000000Y-72062500D03*
X173540000Y-72062500D03*
X174810000Y-72062500D03*
X176080000Y-72062500D03*
X177350000Y-72062500D03*
X178620000Y-72062500D03*
X179890000Y-72062500D03*
%TD*%
D12*
%TO.C,R2*%
X164000000Y-62675000D03*
X164000000Y-64325000D03*
%TD*%
D13*
%TO.C,R3*%
X166500000Y-79125000D03*
X166500000Y-77475000D03*
%TD*%
%TO.C,R18*%
X164900000Y-79125000D03*
X164900000Y-77475000D03*
%TD*%
D12*
%TO.C,R6*%
X157400000Y-68275000D03*
X157400000Y-69925000D03*
%TD*%
%TO.C,R7*%
X155800000Y-68275000D03*
X155800000Y-69925000D03*
%TD*%
M02*
