%TF.GenerationSoftware,KiCad,Pcbnew,10.0.0*%
%TF.CreationDate,2026-04-15T22:29:22+02:00*%
%TF.ProjectId,dongle,646f6e67-6c65-42e6-9b69-6361645f7063,rev?*%
%TF.SameCoordinates,Original*%
%TF.FileFunction,Copper,L4,Bot*%
%TF.FilePolarity,Positive*%
%FSLAX46Y46*%
G04 Gerber Fmt 4.6, Leading zero omitted, Abs format (unit mm)*
G04 Created by KiCad (PCBNEW 10.0.0) date 2026-04-15 22:29:22*
%MOMM*%
%LPD*%
G01*
G04 APERTURE LIST*
G04 Aperture macros list*
%AMRoundRect*
0 Rectangle with rounded corners*
0 $1 Rounding radius*
0 $2 $3 $4 $5 $6 $7 $8 $9 X,Y pos of 4 corners*
0 Add a 4 corners polygon primitive as box body*
4,1,4,$2,$3,$4,$5,$6,$7,$8,$9,$2,$3,0*
0 Add four circle primitives for the rounded corners*
1,1,$1+$1,$2,$3*
1,1,$1+$1,$4,$5*
1,1,$1+$1,$6,$7*
1,1,$1+$1,$8,$9*
0 Add four rect primitives between the rounded corners*
20,1,$1+$1,$2,$3,$4,$5,0*
20,1,$1+$1,$4,$5,$6,$7,0*
20,1,$1+$1,$6,$7,$8,$9,0*
20,1,$1+$1,$8,$9,$2,$3,0*%
G04 Aperture macros list end*
%TA.AperFunction,ConnectorPad*%
%ADD10RoundRect,0.070000X0.105000X0.930000X-0.105000X0.930000X-0.105000X-0.930000X0.105000X-0.930000X0*%
%TD*%
%TA.AperFunction,SMDPad,CuDef*%
%ADD11R,1.000000X2.000000*%
%TD*%
%TA.AperFunction,SMDPad,CuDef*%
%ADD12RoundRect,0.200000X-0.275000X0.200000X-0.275000X-0.200000X0.275000X-0.200000X0.275000X0.200000X0*%
%TD*%
%TA.AperFunction,SMDPad,CuDef*%
%ADD13RoundRect,0.200000X0.275000X-0.200000X0.275000X0.200000X-0.275000X0.200000X-0.275000X-0.200000X0*%
%TD*%
%TA.AperFunction,ViaPad*%
%ADD14C,0.600000*%
%TD*%
%TA.AperFunction,Conductor*%
%ADD15C,0.300000*%
%TD*%
%TA.AperFunction,Conductor*%
%ADD16C,0.200000*%
%TD*%
G04 APERTURE END LIST*
D10*
%TO.P,J2,2,3.3V_2*%
%TO.N,+3.3V*%
X157500000Y-49700000D03*
%TO.P,J2,4,3.3V_4*%
X158000000Y-49700000D03*
%TO.P,J2,6,~{FULL_CARD_POWER_OFF}_6*%
%TO.N,Net-(J2-~{FULL_CARD_POWER_OFF})*%
X158500000Y-49700000D03*
%TO.P,J2,8,~{W_DISABLE1}_8*%
%TO.N,Net-(J2-~{W_DISABLE1})*%
X159000000Y-49700000D03*
%TO.P,J2,10,GPIO_9/DAS/~{DSS}/~{LED1}_10*%
%TO.N,unconnected-(J2-GPIO_9{slash}DAS{slash}~{DSS}{slash}~{LED1}-Pad10)*%
X159500000Y-49700000D03*
%TO.P,J2,20,GPIO_5_20*%
%TO.N,unconnected-(J2-GPIO_5-Pad20)*%
X162000000Y-49700000D03*
%TO.P,J2,22,GPIO_6_22*%
%TO.N,unconnected-(J2-GPIO_6-Pad22)*%
X162500000Y-49700000D03*
%TO.P,J2,24,GPIO_7_24*%
%TO.N,unconnected-(J2-GPIO_7-Pad24)*%
X163000000Y-49700000D03*
%TO.P,J2,26,GPIO_10_26*%
%TO.N,unconnected-(J2-GPIO_10-Pad26)*%
X163500000Y-49700000D03*
%TO.P,J2,28,GPIO_8_28*%
%TO.N,unconnected-(J2-GPIO_8-Pad28)*%
X164000000Y-49700000D03*
%TO.P,J2,30,UIM-RESET_30*%
%TO.N,unconnected-(J2-UIM-RESET-Pad30)*%
X164500000Y-49700000D03*
%TO.P,J2,32,UIM-CLK_32*%
%TO.N,unconnected-(J2-UIM-CLK-Pad32)*%
X165000000Y-49700000D03*
%TO.P,J2,34,UIM-DATA_34*%
%TO.N,unconnected-(J2-UIM-DATA-Pad34)*%
X165500000Y-49700000D03*
%TO.P,J2,36,UIM-PWR_36*%
%TO.N,unconnected-(J2-UIM-PWR-Pad36)*%
X166000000Y-49700000D03*
%TO.P,J2,38,DEVSLP_38*%
%TO.N,unconnected-(J2-DEVSLP-Pad38)*%
X166500000Y-49700000D03*
%TO.P,J2,40,GPIO_0_40*%
%TO.N,unconnected-(J2-GPIO_0-Pad40)*%
X167000000Y-49700000D03*
%TO.P,J2,42,GPIO_1_42*%
%TO.N,unconnected-(J2-GPIO_1-Pad42)*%
X167500000Y-49700000D03*
%TO.P,J2,44,GPIO_2_44*%
%TO.N,unconnected-(J2-GPIO_2-Pad44)*%
X168000000Y-49700000D03*
%TO.P,J2,46,GPIO_3_46*%
%TO.N,unconnected-(J2-GPIO_3-Pad46)*%
X168500000Y-49700000D03*
%TO.P,J2,48,GPIO_4_48*%
%TO.N,unconnected-(J2-GPIO_4-Pad48)*%
X169000000Y-49700000D03*
%TO.P,J2,50,~{PERST}_50*%
%TO.N,unconnected-(J2-~{PERST}-Pad50)*%
X169500000Y-49700000D03*
%TO.P,J2,52,~{CLKREQ}_52*%
%TO.N,unconnected-(J2-~{CLKREQ}-Pad52)*%
X170000000Y-49700000D03*
%TO.P,J2,54,~{PEWAKE}_54*%
%TO.N,unconnected-(J2-~{PEWAKE}-Pad54)*%
X170500000Y-49700000D03*
%TO.P,J2,56,NC_56*%
%TO.N,unconnected-(J2-NC-Pad56)*%
X171000000Y-49700000D03*
%TO.P,J2,58,NC_58*%
%TO.N,unconnected-(J2-NC-Pad58)*%
X171500000Y-49700000D03*
%TO.P,J2,60,COEX3_60*%
%TO.N,unconnected-(J2-COEX3-Pad60)*%
X172000000Y-49700000D03*
%TO.P,J2,62,COEX2_62*%
%TO.N,unconnected-(J2-COEX2-Pad62)*%
X172500000Y-49700000D03*
%TO.P,J2,64,COEX1_64*%
%TO.N,unconnected-(J2-COEX1-Pad64)*%
X173000000Y-49700000D03*
%TO.P,J2,66,SIM_DETECT_66*%
%TO.N,unconnected-(J2-SIM_DETECT-Pad66)*%
X173500000Y-49700000D03*
%TO.P,J2,68,SUSCLK_68*%
%TO.N,unconnected-(J2-SUSCLK-Pad68)*%
X174000000Y-49700000D03*
%TO.P,J2,70,3.3V_70*%
%TO.N,+3.3V*%
X174500000Y-49700000D03*
%TO.P,J2,72,3.3V_72*%
X175000000Y-49700000D03*
%TO.P,J2,74,3.3V_74*%
X175500000Y-49700000D03*
%TD*%
D11*
%TO.P,U2,1,GND_1*%
%TO.N,GND*%
X154570000Y-72100000D03*
%TO.P,U2,2,VCC_2*%
%TO.N,+3.3V*%
X153300000Y-72100000D03*
%TO.P,U2,3,CE_3*%
%TO.N,Net-(U2-CE)*%
X155840000Y-72100000D03*
%TO.P,U2,4,~{CSN}_4*%
%TO.N,Net-(U2-~{CSN})*%
X157110000Y-72100000D03*
%TO.P,U2,5,SCK_5*%
%TO.N,/SCK*%
X158380000Y-72100000D03*
%TO.P,U2,6,MOSI_6*%
%TO.N,/MOSI*%
X159650000Y-72100000D03*
%TO.P,U2,7,MISO_7*%
%TO.N,/MISO*%
X160920000Y-72100000D03*
%TO.P,U2,8,IRQ_8*%
%TO.N,Net-(U2-IRQ)*%
X162190000Y-72100000D03*
%TD*%
D12*
%TO.P,R1,1*%
%TO.N,Net-(U4-TXD)*%
X162400000Y-62675000D03*
%TO.P,R1,2*%
%TO.N,/RX*%
X162400000Y-64325000D03*
%TD*%
%TO.P,R4,1*%
%TO.N,/CE_2*%
X173500000Y-68275000D03*
%TO.P,R4,2*%
%TO.N,Net-(U3-CE)*%
X173500000Y-69925000D03*
%TD*%
D13*
%TO.P,R5,1*%
%TO.N,/IRQ_2*%
X168300000Y-79125000D03*
%TO.P,R5,2*%
%TO.N,Net-(U3-IRQ)*%
X168300000Y-77475000D03*
%TD*%
D12*
%TO.P,R8,1*%
%TO.N,/IRQ_1*%
X159100000Y-68275000D03*
%TO.P,R8,2*%
%TO.N,Net-(U2-IRQ)*%
X159100000Y-69925000D03*
%TD*%
D11*
%TO.P,U3,1,GND_1*%
%TO.N,GND*%
X172270000Y-72062500D03*
%TO.P,U3,2,VCC_2*%
%TO.N,+3.3V*%
X171000000Y-72062500D03*
%TO.P,U3,3,CE_3*%
%TO.N,Net-(U3-CE)*%
X173540000Y-72062500D03*
%TO.P,U3,4,~{CSN}_4*%
%TO.N,Net-(U3-~{CSN})*%
X174810000Y-72062500D03*
%TO.P,U3,5,SCK_5*%
%TO.N,/SCK*%
X176080000Y-72062500D03*
%TO.P,U3,6,MOSI_6*%
%TO.N,/MOSI*%
X177350000Y-72062500D03*
%TO.P,U3,7,MISO_7*%
%TO.N,/MISO*%
X178620000Y-72062500D03*
%TO.P,U3,8,IRQ_8*%
%TO.N,Net-(U3-IRQ)*%
X179890000Y-72062500D03*
%TD*%
D12*
%TO.P,R2,1*%
%TO.N,Net-(U4-RXD)*%
X164000000Y-62675000D03*
%TO.P,R2,2*%
%TO.N,/TX*%
X164000000Y-64325000D03*
%TD*%
D13*
%TO.P,R3,1*%
%TO.N,/CSN_2*%
X166500000Y-79125000D03*
%TO.P,R3,2*%
%TO.N,Net-(U3-~{CSN})*%
X166500000Y-77475000D03*
%TD*%
%TO.P,R18,1*%
%TO.N,/IO0*%
X164900000Y-79125000D03*
%TO.P,R18,2*%
%TO.N,+3.3V*%
X164900000Y-77475000D03*
%TD*%
D12*
%TO.P,R6,1*%
%TO.N,/CSN_1*%
X157400000Y-68275000D03*
%TO.P,R6,2*%
%TO.N,Net-(U2-~{CSN})*%
X157400000Y-69925000D03*
%TD*%
%TO.P,R7,1*%
%TO.N,/CE_1*%
X155800000Y-68275000D03*
%TO.P,R7,2*%
%TO.N,Net-(U2-CE)*%
X155800000Y-69925000D03*
%TD*%
D14*
%TO.N,GND*%
X152600000Y-53200000D03*
X167600000Y-57400000D03*
X169800000Y-57400000D03*
X174900000Y-76400000D03*
X176700000Y-75100000D03*
X170400000Y-76500000D03*
X162000000Y-68600000D03*
X160300000Y-67200000D03*
X170900000Y-81300000D03*
X158000000Y-74100000D03*
X168000000Y-73000000D03*
X166200000Y-73300000D03*
X165500000Y-70500000D03*
X159300000Y-78100000D03*
X180700000Y-74400000D03*
X176200000Y-78300000D03*
X172800000Y-78300000D03*
X172800000Y-82700000D03*
X180700000Y-82700000D03*
X177900000Y-59300000D03*
X159900000Y-55700000D03*
X154400000Y-58400000D03*
X156000000Y-58400000D03*
X175000000Y-56100000D03*
%TO.N,Net-(J2-~{FULL_CARD_POWER_OFF})*%
X174000000Y-58900000D03*
%TO.N,GND*%
X154600000Y-70200000D03*
X173500000Y-74800000D03*
X169200000Y-74800000D03*
X175400000Y-66500000D03*
X171200000Y-51800000D03*
X169800000Y-51800000D03*
X168300000Y-51800000D03*
X166800000Y-51700000D03*
X165200000Y-51700000D03*
X163800000Y-51600000D03*
X159900000Y-53400000D03*
X165200000Y-63100000D03*
%TO.N,+3.3V*%
X174859620Y-51759620D03*
X175500000Y-51700000D03*
%TO.N,GND*%
X176800000Y-63200000D03*
X180600000Y-63100000D03*
X180600000Y-59300000D03*
X180600000Y-56200000D03*
X176800000Y-53200000D03*
X180600000Y-53200000D03*
%TO.N,+3.3V*%
X156400000Y-56617500D03*
X155000000Y-76400000D03*
X171800000Y-70000000D03*
X165100000Y-61700000D03*
X164900000Y-76100000D03*
X157375000Y-50800000D03*
X169700000Y-63300000D03*
%TO.N,GND*%
X156800000Y-80500000D03*
X152900000Y-63800000D03*
X155000000Y-78700000D03*
X154900000Y-56500000D03*
X156200000Y-76000000D03*
%TO.N,Net-(J2-~{W_DISABLE1})*%
X153627500Y-54900000D03*
%TO.N,/CE_2*%
X167100000Y-64700000D03*
%TO.N,Net-(U7-GPIO5{slash}TOUCH5{slash}ADC1_CH4)*%
X175200000Y-65000000D03*
X171200000Y-67100000D03*
%TO.N,Net-(U7-GPIO6{slash}TOUCH6{slash}ADC1_CH5)*%
X169712795Y-67122459D03*
X174500000Y-64400000D03*
%TO.N,Net-(U7-GPIO7{slash}TOUCH7{slash}ADC1_CH6)*%
X172300000Y-67400000D03*
X174500000Y-65600000D03*
%TO.N,/IRQ_1*%
X157000000Y-64800000D03*
%TO.N,/CE_1*%
X155800000Y-67200000D03*
%TO.N,/CSN_1*%
X157400000Y-67200000D03*
%TO.N,/IO0*%
X154400000Y-82100000D03*
X171700000Y-59400000D03*
%TO.N,/RX*%
X165000000Y-74750000D03*
%TO.N,/TX*%
X166300000Y-74750000D03*
%TO.N,/IRQ_2*%
X168400000Y-80500000D03*
%TO.N,/CSN_2*%
X169600000Y-82200000D03*
%TO.N,Net-(U4-TXD)*%
X162400000Y-61500000D03*
%TO.N,Net-(U4-RXD)*%
X164000000Y-61700000D03*
%TO.N,/SCK*%
X176080000Y-72062500D03*
X158380000Y-72100000D03*
%TO.N,/MOSI*%
X159650000Y-72100000D03*
X177400000Y-72000000D03*
%TO.N,/MISO*%
X160500000Y-73800000D03*
X178620000Y-72062500D03*
%TD*%
%TO.N,+3.3V*%
D15*
X175000000Y-51619240D02*
X174859620Y-51759620D01*
X175000000Y-49700000D02*
X175000000Y-51619240D01*
%TO.N,Net-(J2-~{FULL_CARD_POWER_OFF})*%
D16*
X154100000Y-64700000D02*
X153600000Y-64200000D01*
X174000000Y-58900000D02*
X173600000Y-58500000D01*
X173600000Y-58500000D02*
X163900000Y-58500000D01*
X153600000Y-64200000D02*
X153600000Y-63300000D01*
X163900000Y-58500000D02*
X158500000Y-63900000D01*
X158500000Y-50900000D02*
X158500000Y-49700000D01*
X158500000Y-63900000D02*
X156500000Y-63900000D01*
X155700000Y-64700000D02*
X154100000Y-64700000D01*
X153027500Y-54372500D02*
X154300000Y-53100000D01*
X156500000Y-63900000D02*
X155700000Y-64700000D01*
X153600000Y-63300000D02*
X153027500Y-62727500D01*
X153027500Y-62727500D02*
X153027500Y-54372500D01*
X154300000Y-53100000D02*
X156300000Y-53100000D01*
X156300000Y-53100000D02*
X158500000Y-50900000D01*
%TO.N,Net-(J2-~{W_DISABLE1})*%
X154873832Y-54900000D02*
X153627500Y-54900000D01*
X156273832Y-53500000D02*
X154873832Y-54900000D01*
X156465685Y-53500000D02*
X156273832Y-53500000D01*
X159000000Y-50965686D02*
X156465685Y-53500000D01*
X159000000Y-49700000D02*
X159000000Y-50965686D01*
%TO.N,+3.3V*%
D15*
X157500000Y-50675000D02*
X157375000Y-50800000D01*
X157500000Y-49700000D02*
X157500000Y-50675000D01*
%TO.N,Net-(U7-GPIO7{slash}TOUCH7{slash}ADC1_CH6)*%
D16*
X172700000Y-67400000D02*
X174500000Y-65600000D01*
X172300000Y-67400000D02*
X172700000Y-67400000D01*
%TO.N,Net-(U7-GPIO5{slash}TOUCH5{slash}ADC1_CH4)*%
X173300000Y-65000000D02*
X175200000Y-65000000D01*
X171200000Y-67100000D02*
X173300000Y-65000000D01*
%TO.N,Net-(U7-GPIO6{slash}TOUCH6{slash}ADC1_CH5)*%
X169712795Y-67122459D02*
X172435254Y-64400000D01*
X172435254Y-64400000D02*
X174500000Y-64400000D01*
%TO.N,+3.3V*%
D15*
X175500000Y-49700000D02*
X174525000Y-49700000D01*
X175500000Y-49700000D02*
X175500000Y-51700000D01*
X171000000Y-72062500D02*
X171000000Y-70800000D01*
X171000000Y-70800000D02*
X171800000Y-70000000D01*
X153300000Y-74700000D02*
X155000000Y-76400000D01*
X157500000Y-49700000D02*
X157975000Y-49700000D01*
X153300000Y-72100000D02*
X153300000Y-74700000D01*
D16*
X164900000Y-77475000D02*
X164900000Y-76100000D01*
%TO.N,/CE_2*%
X167100000Y-66000000D02*
X167100000Y-64700000D01*
X169375000Y-68275000D02*
X167100000Y-66000000D01*
X173500000Y-68275000D02*
X169375000Y-68275000D01*
%TO.N,/IRQ_1*%
X159100000Y-68275000D02*
X159100000Y-66900000D01*
X159100000Y-66900000D02*
X157000000Y-64800000D01*
%TO.N,/CE_1*%
X155800000Y-67200000D02*
X155800000Y-68275000D01*
%TO.N,/CSN_1*%
X157400000Y-67200000D02*
X157400000Y-68275000D01*
%TO.N,/IO0*%
X164730761Y-75400000D02*
X165269239Y-75400000D01*
X169300000Y-73200000D02*
X169300000Y-69600000D01*
X170000000Y-61100000D02*
X171700000Y-59400000D01*
X165269239Y-75400000D02*
X165469239Y-75200000D01*
X166769239Y-75200000D02*
X167300000Y-75200000D01*
X166569239Y-75400000D02*
X166769239Y-75200000D01*
X166100000Y-63900000D02*
X168800000Y-61200000D01*
X166100000Y-66400000D02*
X166100000Y-63900000D01*
X165830761Y-75200000D02*
X166030761Y-75400000D01*
X154400000Y-81100000D02*
X154400000Y-82100000D01*
X156375000Y-79125000D02*
X160300000Y-75200000D01*
X168800000Y-61100000D02*
X170000000Y-61100000D01*
X160300000Y-75200000D02*
X164530761Y-75200000D01*
X168800000Y-61200000D02*
X168800000Y-61100000D01*
X164900000Y-79125000D02*
X156375000Y-79125000D01*
X166030761Y-75400000D02*
X166569239Y-75400000D01*
X167300000Y-75200000D02*
X169300000Y-73200000D01*
X156375000Y-79125000D02*
X154400000Y-81100000D01*
X169300000Y-69600000D02*
X166100000Y-66400000D01*
X164530761Y-75200000D02*
X164730761Y-75400000D01*
X165469239Y-75200000D02*
X165830761Y-75200000D01*
%TO.N,/RX*%
X165050000Y-74750000D02*
X165000000Y-74750000D01*
X165100000Y-74800000D02*
X165050000Y-74750000D01*
X165000000Y-74700000D02*
X165000000Y-74750000D01*
X162990000Y-64915000D02*
X162990000Y-72690000D01*
X162400000Y-64325000D02*
X162990000Y-64915000D01*
X162990000Y-72690000D02*
X165000000Y-74700000D01*
%TO.N,/TX*%
X164000000Y-72450000D02*
X166300000Y-74750000D01*
X164000000Y-64325000D02*
X164000000Y-72450000D01*
%TO.N,/IRQ_2*%
X168300000Y-79125000D02*
X168300000Y-80400000D01*
X168300000Y-80400000D02*
X168400000Y-80500000D01*
%TO.N,/CSN_2*%
X166500000Y-80800000D02*
X167900000Y-82200000D01*
X167900000Y-82200000D02*
X169600000Y-82200000D01*
X166500000Y-79125000D02*
X166500000Y-80800000D01*
%TO.N,Net-(U4-TXD)*%
X162400000Y-62675000D02*
X162400000Y-61500000D01*
%TO.N,Net-(U4-RXD)*%
X164000000Y-62675000D02*
X164000000Y-61700000D01*
%TO.N,Net-(U2-CE)*%
X155800000Y-70800000D02*
X155840000Y-70840000D01*
X155840000Y-70840000D02*
X155840000Y-72100000D01*
X155800000Y-69925000D02*
X155800000Y-70800000D01*
%TO.N,Net-(U2-~{CSN})*%
X157110000Y-70990000D02*
X157110000Y-72100000D01*
X157400000Y-69925000D02*
X157400000Y-70700000D01*
X157400000Y-70700000D02*
X157110000Y-70990000D01*
%TO.N,/MISO*%
X160920000Y-73380000D02*
X160500000Y-73800000D01*
X160920000Y-72100000D02*
X160920000Y-73380000D01*
%TO.N,Net-(U2-IRQ)*%
X161215000Y-69925000D02*
X162190000Y-70900000D01*
X159100000Y-69925000D02*
X161215000Y-69925000D01*
X162190000Y-70900000D02*
X162190000Y-72100000D01*
%TO.N,Net-(U3-CE)*%
X173500000Y-72022500D02*
X173540000Y-72062500D01*
X173500000Y-69925000D02*
X173500000Y-72022500D01*
%TO.N,Net-(U3-IRQ)*%
X168300000Y-77475000D02*
X175677500Y-77475000D01*
X179890000Y-73262500D02*
X179890000Y-72062500D01*
X175677500Y-77475000D02*
X179890000Y-73262500D01*
%TO.N,Net-(U3-~{CSN})*%
X167700000Y-75600000D02*
X174100000Y-75600000D01*
X174810000Y-74890000D02*
X174810000Y-72062500D01*
X166500000Y-76800000D02*
X167700000Y-75600000D01*
X174100000Y-75600000D02*
X174810000Y-74890000D01*
X166500000Y-77475000D02*
X166500000Y-76800000D01*
%TD*%
%TA.AperFunction,Conductor*%
%TO.N,GND*%
G36*
X153567999Y-52705521D02*
G01*
X153578852Y-52708707D01*
X153637633Y-52746477D01*
X153666662Y-52810031D01*
X153656723Y-52879190D01*
X153656722Y-52879192D01*
X153653537Y-52886167D01*
X153629939Y-52913402D01*
X153631758Y-52915215D01*
X152547051Y-54003696D01*
X152546983Y-54003778D01*
X152546979Y-54003783D01*
X152500924Y-54083556D01*
X152500922Y-54083560D01*
X152476085Y-54126575D01*
X152474114Y-54129144D01*
X152467687Y-54141152D01*
X152466890Y-54144566D01*
X152426999Y-54293443D01*
X152426999Y-54463900D01*
X152427000Y-54463951D01*
X152427000Y-62640830D01*
X152426999Y-62640848D01*
X152426999Y-62764460D01*
X152421100Y-62784546D01*
X152429301Y-62815149D01*
X152467922Y-62959283D01*
X152486737Y-62991872D01*
X152486738Y-62991873D01*
X152530812Y-63068212D01*
X152530812Y-63068213D01*
X152546977Y-63096212D01*
X152546985Y-63096222D01*
X152667814Y-63217051D01*
X152667859Y-63217094D01*
X152950573Y-63499808D01*
X152971723Y-63528060D01*
X152984331Y-63551149D01*
X152999500Y-63610578D01*
X152999500Y-64111590D01*
X152999499Y-64111664D01*
X152999499Y-64236960D01*
X152993601Y-64257045D01*
X153002593Y-64290608D01*
X153002594Y-64290608D01*
X153002594Y-64290609D01*
X153040423Y-64431785D01*
X153060468Y-64466503D01*
X153099809Y-64534645D01*
X153119479Y-64568715D01*
X153731287Y-65180523D01*
X153731969Y-65181014D01*
X153734475Y-65182363D01*
X153843288Y-65245185D01*
X153868216Y-65259577D01*
X154020943Y-65300501D01*
X154020945Y-65300501D01*
X154186654Y-65300501D01*
X154188558Y-65300501D01*
X154188621Y-65300500D01*
X155611380Y-65300500D01*
X155611443Y-65300501D01*
X155613347Y-65300501D01*
X155620943Y-65300501D01*
X155779054Y-65300501D01*
X155779057Y-65300501D01*
X155931785Y-65259577D01*
X155981904Y-65230639D01*
X156068716Y-65180520D01*
X156096048Y-65153186D01*
X156105915Y-65146524D01*
X156118597Y-65142484D01*
X156130861Y-65134911D01*
X156130482Y-65134041D01*
X156132890Y-65132993D01*
X156134243Y-65132823D01*
X156136197Y-65131617D01*
X156140851Y-65130070D01*
X156141464Y-65131916D01*
X156158484Y-65129779D01*
X156172490Y-65125319D01*
X156179338Y-65127161D01*
X156202215Y-65124290D01*
X156257472Y-65150726D01*
X156258633Y-65149176D01*
X156263075Y-65152501D01*
X156263079Y-65152505D01*
X156264362Y-65153465D01*
X156265431Y-65154618D01*
X156267185Y-65156194D01*
X156267040Y-65156354D01*
X156294667Y-65186161D01*
X156308504Y-65207906D01*
X156315330Y-65216183D01*
X156378211Y-65310290D01*
X156378212Y-65310291D01*
X156378217Y-65310297D01*
X156489701Y-65421781D01*
X156489707Y-65421786D01*
X156489711Y-65421789D01*
X156620814Y-65509390D01*
X156620827Y-65509397D01*
X156766498Y-65569735D01*
X156766503Y-65569737D01*
X156793474Y-65575101D01*
X156831099Y-65582586D01*
X156831123Y-65582590D01*
X156831147Y-65582595D01*
X156904364Y-65597159D01*
X156937644Y-65608901D01*
X156967021Y-65624268D01*
X156997227Y-65646462D01*
X157525976Y-66175211D01*
X157547125Y-66203461D01*
X157552546Y-66213388D01*
X157567400Y-66281661D01*
X157542986Y-66347126D01*
X157487054Y-66388999D01*
X157487050Y-66389001D01*
X157479862Y-66391682D01*
X157436528Y-66399500D01*
X157321153Y-66399500D01*
X157166527Y-66430257D01*
X157166496Y-66430264D01*
X157020833Y-66490598D01*
X157020824Y-66490603D01*
X157020807Y-66490613D01*
X156889708Y-66578211D01*
X156889707Y-66578212D01*
X156889701Y-66578217D01*
X156778217Y-66689701D01*
X156778215Y-66689704D01*
X156713006Y-66787295D01*
X156689417Y-66813555D01*
X156678769Y-66822453D01*
X156614704Y-66850336D01*
X156545741Y-66839160D01*
X156541015Y-66836899D01*
X156491428Y-66793932D01*
X156474574Y-66768709D01*
X156421789Y-66689711D01*
X156421786Y-66689707D01*
X156421781Y-66689701D01*
X156310297Y-66578217D01*
X156310291Y-66578212D01*
X156310290Y-66578211D01*
X156179191Y-66490613D01*
X156179190Y-66490612D01*
X156179185Y-66490609D01*
X156179172Y-66490602D01*
X156179165Y-66490598D01*
X156033502Y-66430264D01*
X156033471Y-66430257D01*
X155878847Y-66399500D01*
X155878845Y-66399500D01*
X155878842Y-66399500D01*
X155721158Y-66399500D01*
X155721155Y-66399500D01*
X155721153Y-66399500D01*
X155566527Y-66430257D01*
X155566496Y-66430264D01*
X155420833Y-66490598D01*
X155420824Y-66490603D01*
X155420807Y-66490613D01*
X155289708Y-66578211D01*
X155289707Y-66578212D01*
X155289701Y-66578217D01*
X155178217Y-66689701D01*
X155178212Y-66689707D01*
X155178211Y-66689708D01*
X155090613Y-66820807D01*
X155090600Y-66820829D01*
X155090599Y-66820831D01*
X155030264Y-66966496D01*
X155030257Y-66966527D01*
X154999500Y-67121150D01*
X154999500Y-67121153D01*
X154999500Y-67278846D01*
X154999500Y-67278848D01*
X154999499Y-67278848D01*
X155030257Y-67433471D01*
X155030261Y-67433489D01*
X155030263Y-67433497D01*
X155030265Y-67433502D01*
X155030266Y-67433505D01*
X155034374Y-67443422D01*
X155043103Y-67477625D01*
X155044773Y-67493164D01*
X155032366Y-67561919D01*
X155026271Y-67574095D01*
X155003071Y-67606269D01*
X154969531Y-67639811D01*
X154969529Y-67639813D01*
X154969527Y-67639815D01*
X154881522Y-67785392D01*
X154830911Y-67947811D01*
X154824500Y-68018377D01*
X154824500Y-68531620D01*
X154829747Y-68589361D01*
X154830913Y-68602192D01*
X154830913Y-68602194D01*
X154830914Y-68602196D01*
X154835643Y-68617374D01*
X154835647Y-68617390D01*
X154881520Y-68764603D01*
X154949999Y-68877881D01*
X154969528Y-68910186D01*
X154969529Y-68910187D01*
X154969530Y-68910188D01*
X155059056Y-68999714D01*
X155080207Y-69027970D01*
X155087698Y-69041690D01*
X155102549Y-69109948D01*
X155102420Y-69111754D01*
X155083049Y-69169960D01*
X155078869Y-69176464D01*
X155062237Y-69197104D01*
X155018126Y-69241215D01*
X154969531Y-69289810D01*
X154969530Y-69289811D01*
X154969529Y-69289811D01*
X154969529Y-69289812D01*
X154881522Y-69435392D01*
X154830911Y-69597811D01*
X154824500Y-69668377D01*
X154824500Y-70181620D01*
X154829747Y-70239367D01*
X154829748Y-70239372D01*
X154830913Y-70252192D01*
X154830913Y-70252194D01*
X154830914Y-70252196D01*
X154835641Y-70267366D01*
X154835643Y-70267375D01*
X154874588Y-70392356D01*
X154876095Y-70397597D01*
X154887951Y-70442512D01*
X154886029Y-70512356D01*
X154846651Y-70570072D01*
X154846649Y-70570074D01*
X154836257Y-70578588D01*
X154834771Y-70582857D01*
X154821589Y-70598411D01*
X154820000Y-70599999D01*
X154820000Y-73600000D01*
X155117828Y-73600000D01*
X155117836Y-73600000D01*
X155117847Y-73599999D01*
X155166395Y-73594779D01*
X155179652Y-73594068D01*
X155219810Y-73594068D01*
X155220036Y-73594091D01*
X155225867Y-73594091D01*
X155239125Y-73594802D01*
X155241231Y-73595028D01*
X155241232Y-73595028D01*
X155292127Y-73600500D01*
X156387872Y-73600499D01*
X156435759Y-73595351D01*
X156435759Y-73595357D01*
X156435783Y-73595348D01*
X156438684Y-73595036D01*
X156451897Y-73594330D01*
X156455310Y-73594329D01*
X156455311Y-73594330D01*
X156494688Y-73594329D01*
X156494688Y-73594328D01*
X156498080Y-73594328D01*
X156511326Y-73595038D01*
X156562127Y-73600500D01*
X157657872Y-73600499D01*
X157705759Y-73595351D01*
X157705759Y-73595357D01*
X157705783Y-73595348D01*
X157708684Y-73595036D01*
X157721897Y-73594330D01*
X157725310Y-73594329D01*
X157725311Y-73594330D01*
X157764688Y-73594329D01*
X157764688Y-73594328D01*
X157768080Y-73594328D01*
X157781326Y-73595038D01*
X157832127Y-73600500D01*
X158927872Y-73600499D01*
X158975759Y-73595351D01*
X158975759Y-73595357D01*
X158975783Y-73595348D01*
X158978684Y-73595036D01*
X158991897Y-73594330D01*
X158995310Y-73594329D01*
X158995311Y-73594330D01*
X159034688Y-73594329D01*
X159034688Y-73594328D01*
X159038080Y-73594328D01*
X159051326Y-73595038D01*
X159102127Y-73600500D01*
X159557673Y-73600499D01*
X159592606Y-73605521D01*
X159607603Y-73609925D01*
X159666355Y-73647670D01*
X159667542Y-73649039D01*
X159695019Y-73703903D01*
X159696664Y-73711462D01*
X159699500Y-73737830D01*
X159699500Y-73878846D01*
X159699500Y-73878848D01*
X159699499Y-73878848D01*
X159730257Y-74033471D01*
X159730264Y-74033502D01*
X159790598Y-74179165D01*
X159790603Y-74179174D01*
X159790613Y-74179191D01*
X159878211Y-74310290D01*
X159878212Y-74310291D01*
X159878217Y-74310297D01*
X159989703Y-74421783D01*
X159989706Y-74421785D01*
X159989708Y-74421787D01*
X159989711Y-74421789D01*
X160021013Y-74442704D01*
X160021014Y-74442705D01*
X160047267Y-74466288D01*
X160056170Y-74476940D01*
X160063282Y-74493282D01*
X160065817Y-74496315D01*
X160066309Y-74500238D01*
X160084052Y-74541005D01*
X160072885Y-74609948D01*
X160071261Y-74613344D01*
X160037468Y-74656183D01*
X160036529Y-74656944D01*
X160020454Y-74667996D01*
X159931296Y-74719470D01*
X159931286Y-74719477D01*
X159931280Y-74719482D01*
X159931273Y-74719488D01*
X153919481Y-80731281D01*
X153919479Y-80731283D01*
X153915602Y-80737999D01*
X153908192Y-80750835D01*
X153897869Y-80768716D01*
X153840423Y-80868215D01*
X153799499Y-81020943D01*
X153799499Y-81020945D01*
X153799499Y-81191400D01*
X153799500Y-81191451D01*
X153799500Y-81502404D01*
X153794476Y-81537341D01*
X153785136Y-81569148D01*
X153769262Y-81603102D01*
X153690613Y-81720807D01*
X153690603Y-81720824D01*
X153690598Y-81720833D01*
X153630264Y-81866496D01*
X153630257Y-81866527D01*
X153599500Y-82021150D01*
X153599500Y-82021153D01*
X153599500Y-82178846D01*
X153599500Y-82178848D01*
X153599499Y-82178848D01*
X153630257Y-82333471D01*
X153630264Y-82333502D01*
X153690598Y-82479165D01*
X153690603Y-82479174D01*
X153690613Y-82479191D01*
X153778211Y-82610290D01*
X153778212Y-82610291D01*
X153778217Y-82610297D01*
X153889701Y-82721781D01*
X153889707Y-82721786D01*
X153889711Y-82721789D01*
X154020814Y-82809390D01*
X154020827Y-82809397D01*
X154166498Y-82869735D01*
X154166503Y-82869737D01*
X154321153Y-82900499D01*
X154321156Y-82900500D01*
X154321158Y-82900500D01*
X154478844Y-82900500D01*
X154478845Y-82900499D01*
X154633497Y-82869737D01*
X154779179Y-82809394D01*
X154910289Y-82721789D01*
X155021789Y-82610289D01*
X155109394Y-82479179D01*
X155169737Y-82333497D01*
X155200500Y-82178842D01*
X155200500Y-82021158D01*
X155200500Y-82021155D01*
X155200500Y-82020973D01*
X155200065Y-82018972D01*
X155170395Y-81869815D01*
X155169983Y-81867403D01*
X155169737Y-81866504D01*
X155150812Y-81820813D01*
X155109402Y-81720840D01*
X155109399Y-81720833D01*
X155109397Y-81720827D01*
X155109390Y-81720814D01*
X155088601Y-81689701D01*
X155031304Y-81603949D01*
X155016071Y-81572111D01*
X155006165Y-81540474D01*
X155000500Y-81503422D01*
X155000500Y-81417926D01*
X155005522Y-81382993D01*
X155006940Y-81378165D01*
X155012934Y-81357748D01*
X155044228Y-81305006D01*
X156574812Y-79774423D01*
X156603062Y-79753275D01*
X156626154Y-79740667D01*
X156685579Y-79725500D01*
X163965650Y-79725500D01*
X164000582Y-79730521D01*
X164025826Y-79737934D01*
X164078572Y-79769230D01*
X164189811Y-79880469D01*
X164189813Y-79880470D01*
X164189815Y-79880472D01*
X164189823Y-79880476D01*
X164191154Y-79881436D01*
X164194056Y-79883035D01*
X164335394Y-79968478D01*
X164497804Y-80019086D01*
X164568384Y-80025500D01*
X164568387Y-80025500D01*
X165231613Y-80025500D01*
X165231616Y-80025500D01*
X165302196Y-80019086D01*
X165464606Y-79968478D01*
X165610185Y-79880472D01*
X165610186Y-79880470D01*
X165616604Y-79876591D01*
X165616670Y-79876701D01*
X165623228Y-79872382D01*
X165641684Y-79862303D01*
X165709947Y-79847449D01*
X165714261Y-79847757D01*
X165779726Y-79872169D01*
X165784524Y-79876326D01*
X165789809Y-79880466D01*
X165789815Y-79880472D01*
X165826507Y-79902653D01*
X165857137Y-79928814D01*
X165857325Y-79929037D01*
X165865153Y-79938447D01*
X165866549Y-79939971D01*
X165868181Y-79941906D01*
X165875004Y-79957387D01*
X165894191Y-79993831D01*
X165896291Y-80002881D01*
X165899500Y-80030910D01*
X165899500Y-80711590D01*
X165899499Y-80711664D01*
X165899499Y-80836935D01*
X165893606Y-80857001D01*
X165899498Y-80879054D01*
X165899533Y-80879185D01*
X165910050Y-80918434D01*
X165940423Y-81031787D01*
X165940425Y-81031790D01*
X165966217Y-81076462D01*
X165966217Y-81076465D01*
X165966219Y-81076465D01*
X166019476Y-81168711D01*
X166019477Y-81168712D01*
X166019482Y-81168718D01*
X166019488Y-81168725D01*
X166140314Y-81289551D01*
X166140359Y-81289594D01*
X167414085Y-82563320D01*
X167414106Y-82563342D01*
X167415149Y-82564385D01*
X167419479Y-82568715D01*
X167419480Y-82568716D01*
X167531284Y-82680520D01*
X167602765Y-82721789D01*
X167668215Y-82759577D01*
X167820943Y-82800501D01*
X167820946Y-82800501D01*
X167986653Y-82800501D01*
X167988557Y-82800501D01*
X167988620Y-82800500D01*
X169002404Y-82800500D01*
X169037336Y-82805521D01*
X169069150Y-82814863D01*
X169103098Y-82830735D01*
X169220814Y-82909390D01*
X169220827Y-82909397D01*
X169366498Y-82969735D01*
X169366503Y-82969737D01*
X169521153Y-83000499D01*
X169521156Y-83000500D01*
X169521158Y-83000500D01*
X169678844Y-83000500D01*
X169678845Y-83000499D01*
X169833497Y-82969737D01*
X169979179Y-82909394D01*
X170110289Y-82821789D01*
X170221789Y-82710289D01*
X170309394Y-82579179D01*
X170369737Y-82433497D01*
X170400500Y-82278842D01*
X170400500Y-82121158D01*
X170400500Y-82121155D01*
X170400500Y-82120971D01*
X170400064Y-82118966D01*
X170369739Y-81966510D01*
X170369736Y-81966501D01*
X170328314Y-81866498D01*
X170328313Y-81866496D01*
X170309399Y-81820833D01*
X170309397Y-81820827D01*
X170309390Y-81820814D01*
X170221789Y-81689711D01*
X170221786Y-81689707D01*
X170221781Y-81689701D01*
X170110297Y-81578217D01*
X170110291Y-81578212D01*
X170110290Y-81578211D01*
X169979191Y-81490613D01*
X169979190Y-81490612D01*
X169979185Y-81490609D01*
X169979172Y-81490602D01*
X169979165Y-81490598D01*
X169833502Y-81430264D01*
X169833471Y-81430257D01*
X169678847Y-81399500D01*
X169678845Y-81399500D01*
X169678842Y-81399500D01*
X169521158Y-81399500D01*
X169521155Y-81399500D01*
X169521153Y-81399500D01*
X169366527Y-81430257D01*
X169366496Y-81430264D01*
X169220833Y-81490598D01*
X169220824Y-81490603D01*
X169220797Y-81490619D01*
X169103949Y-81568695D01*
X169072115Y-81583927D01*
X169040478Y-81593834D01*
X169003422Y-81599500D01*
X168217927Y-81599500D01*
X168182991Y-81594477D01*
X168157749Y-81587065D01*
X168105004Y-81555769D01*
X168026640Y-81477405D01*
X168007121Y-81441658D01*
X167990429Y-81414641D01*
X167991078Y-81378165D01*
X167991001Y-81376759D01*
X167991123Y-81375590D01*
X167991672Y-81344782D01*
X168030486Y-81286685D01*
X168094548Y-81258796D01*
X168129837Y-81259424D01*
X168134893Y-81260243D01*
X168162523Y-81268088D01*
X168166503Y-81269737D01*
X168166509Y-81269738D01*
X168166512Y-81269739D01*
X168265865Y-81289501D01*
X168313513Y-81298979D01*
X168316247Y-81299703D01*
X168321155Y-81300500D01*
X168478844Y-81300500D01*
X168482964Y-81300500D01*
X168490814Y-81298118D01*
X168633497Y-81269737D01*
X168779179Y-81209394D01*
X168910289Y-81121789D01*
X169021789Y-81010289D01*
X169109394Y-80879179D01*
X169169737Y-80733497D01*
X169200500Y-80578842D01*
X169200500Y-80421158D01*
X169200500Y-80421155D01*
X169200500Y-80420973D01*
X169200065Y-80418972D01*
X169170398Y-80269830D01*
X169169983Y-80267403D01*
X169169737Y-80266504D01*
X169114611Y-80133417D01*
X169109939Y-80122136D01*
X169109397Y-80120827D01*
X169109390Y-80120814D01*
X169039197Y-80015763D01*
X169038629Y-80014880D01*
X169038113Y-80013124D01*
X169024594Y-79984866D01*
X169019923Y-79969946D01*
X169019566Y-79950011D01*
X169018930Y-79947844D01*
X169019493Y-79945922D01*
X169018675Y-79900101D01*
X169020618Y-79893017D01*
X169052521Y-79838135D01*
X169130472Y-79760185D01*
X169218478Y-79614606D01*
X169269086Y-79452196D01*
X169275500Y-79381616D01*
X169275500Y-78868384D01*
X169269086Y-78797804D01*
X169218478Y-78635394D01*
X169130472Y-78489815D01*
X169130470Y-78489813D01*
X169130469Y-78489811D01*
X169040946Y-78400288D01*
X169019794Y-78372032D01*
X169012302Y-78358311D01*
X168997450Y-78290051D01*
X168997579Y-78288242D01*
X169016945Y-78230047D01*
X169021138Y-78223523D01*
X169037759Y-78202898D01*
X169116234Y-78124423D01*
X169144484Y-78103275D01*
X169167576Y-78090667D01*
X169227001Y-78075500D01*
X175588880Y-78075500D01*
X175588943Y-78075501D01*
X175590847Y-78075501D01*
X175598443Y-78075501D01*
X175756554Y-78075501D01*
X175756557Y-78075501D01*
X175909285Y-78034577D01*
X175959404Y-78005639D01*
X176046216Y-77955520D01*
X176158020Y-77843716D01*
X176158020Y-77843714D01*
X176168228Y-77833507D01*
X176168228Y-77833505D01*
X176168733Y-77833001D01*
X176171955Y-77829777D01*
X176178431Y-77823301D01*
X176178434Y-77823300D01*
X176178437Y-77823295D01*
X180370520Y-73631216D01*
X180370520Y-73631214D01*
X180375466Y-73624770D01*
X180376193Y-73625328D01*
X180389454Y-73608461D01*
X180405631Y-73593037D01*
X180455564Y-73564010D01*
X180459711Y-73562766D01*
X180482096Y-73558245D01*
X180497483Y-73556591D01*
X180531788Y-73543796D01*
X180632331Y-73506296D01*
X180747546Y-73420046D01*
X180765551Y-73395992D01*
X180790513Y-73371033D01*
X180799566Y-73364257D01*
X180865032Y-73339844D01*
X180933304Y-73354701D01*
X180982702Y-73404103D01*
X180984333Y-73407090D01*
X180999500Y-73466516D01*
X180999500Y-83458170D01*
X180994475Y-83493114D01*
X180990070Y-83508112D01*
X180952327Y-83566855D01*
X180950958Y-83568042D01*
X180896097Y-83595518D01*
X180888539Y-83597163D01*
X180862168Y-83600000D01*
X152142330Y-83600000D01*
X152107389Y-83594975D01*
X152092390Y-83590570D01*
X152033644Y-83552827D01*
X152032457Y-83551458D01*
X152004977Y-83496583D01*
X152003332Y-83489021D01*
X152000500Y-83462668D01*
X152000500Y-71143545D01*
X152250793Y-71143545D01*
X152299376Y-73146385D01*
X152299659Y-73149806D01*
X152299885Y-73151454D01*
X152305907Y-73207482D01*
X152333690Y-73281971D01*
X152356202Y-73342328D01*
X152356206Y-73342335D01*
X152384400Y-73379997D01*
X152442450Y-73457542D01*
X152442452Y-73457544D01*
X152442455Y-73457547D01*
X152557665Y-73543794D01*
X152561209Y-73546447D01*
X152565234Y-73549460D01*
X152583832Y-73559187D01*
X152595617Y-73568009D01*
X152637487Y-73623934D01*
X152640923Y-73633144D01*
X152641679Y-73635169D01*
X152649500Y-73678511D01*
X152649500Y-74719703D01*
X152644237Y-74737623D01*
X152672370Y-74879047D01*
X152674498Y-74889740D01*
X152674499Y-74889747D01*
X152723529Y-75008117D01*
X152723539Y-75008135D01*
X152794722Y-75114668D01*
X152794724Y-75114671D01*
X152794726Y-75114673D01*
X152794727Y-75114674D01*
X153485575Y-75805522D01*
X154170376Y-76490322D01*
X154191526Y-76518575D01*
X154207413Y-76547669D01*
X154220199Y-76582905D01*
X154230257Y-76633471D01*
X154230264Y-76633502D01*
X154290598Y-76779165D01*
X154290603Y-76779174D01*
X154290613Y-76779191D01*
X154378211Y-76910290D01*
X154378212Y-76910291D01*
X154378217Y-76910297D01*
X154489701Y-77021781D01*
X154489707Y-77021786D01*
X154489711Y-77021789D01*
X154620814Y-77109390D01*
X154620827Y-77109397D01*
X154766498Y-77169735D01*
X154766503Y-77169737D01*
X154921153Y-77200499D01*
X154921156Y-77200500D01*
X154921158Y-77200500D01*
X155078844Y-77200500D01*
X155078845Y-77200499D01*
X155233497Y-77169737D01*
X155379179Y-77109394D01*
X155510289Y-77021789D01*
X155621789Y-76910289D01*
X155709394Y-76779179D01*
X155769737Y-76633497D01*
X155800500Y-76478842D01*
X155800500Y-76321158D01*
X155800500Y-76321155D01*
X155800500Y-76320971D01*
X155800070Y-76318993D01*
X155776500Y-76200501D01*
X155769737Y-76166503D01*
X155766868Y-76159576D01*
X155759649Y-76142147D01*
X155709400Y-76020833D01*
X155709395Y-76020824D01*
X155709390Y-76020814D01*
X155621789Y-75889711D01*
X155621786Y-75889707D01*
X155621781Y-75889701D01*
X155510297Y-75778217D01*
X155510291Y-75778212D01*
X155510290Y-75778211D01*
X155379191Y-75690613D01*
X155379190Y-75690612D01*
X155379185Y-75690609D01*
X155379172Y-75690602D01*
X155379165Y-75690598D01*
X155233502Y-75630264D01*
X155233471Y-75630257D01*
X155183907Y-75620398D01*
X155150624Y-75608656D01*
X155121247Y-75593289D01*
X155091041Y-75571095D01*
X153999426Y-74479480D01*
X153978274Y-74451224D01*
X153965667Y-74428135D01*
X153950500Y-74368710D01*
X153950500Y-73741829D01*
X153955523Y-73706893D01*
X153956130Y-73704828D01*
X153959927Y-73691894D01*
X153997672Y-73633144D01*
X153999041Y-73631957D01*
X154053920Y-73604477D01*
X154061479Y-73602833D01*
X154087832Y-73600000D01*
X154320000Y-73600000D01*
X154320000Y-70600000D01*
X154022157Y-70600000D01*
X154022152Y-70600000D01*
X153973568Y-70605225D01*
X153960307Y-70605936D01*
X153920865Y-70605935D01*
X153915281Y-70605935D01*
X153915280Y-70605935D01*
X153914370Y-70605935D01*
X153901116Y-70605224D01*
X153896465Y-70604724D01*
X153855579Y-70600327D01*
X153850743Y-70599500D01*
X153847881Y-70599500D01*
X153847873Y-70599500D01*
X153847864Y-70599500D01*
X152752129Y-70599500D01*
X152752123Y-70599500D01*
X152750192Y-70599659D01*
X152748545Y-70599885D01*
X152698870Y-70605225D01*
X152692516Y-70605908D01*
X152629207Y-70629521D01*
X152557666Y-70656204D01*
X152557665Y-70656205D01*
X152442456Y-70742450D01*
X152442450Y-70742456D01*
X152356205Y-70857665D01*
X152356203Y-70857668D01*
X152305907Y-70992516D01*
X152299501Y-71052116D01*
X152299500Y-71052139D01*
X152299457Y-71053776D01*
X152297184Y-71060823D01*
X152298238Y-71068152D01*
X152286606Y-71093622D01*
X152278011Y-71120273D01*
X152272288Y-71124972D01*
X152269213Y-71131708D01*
X152250793Y-71143545D01*
X152000500Y-71143545D01*
X152000500Y-52842329D01*
X152005523Y-52807393D01*
X152008926Y-52795806D01*
X152009927Y-52792394D01*
X152047672Y-52733644D01*
X152049041Y-52732457D01*
X152103920Y-52704977D01*
X152111479Y-52703333D01*
X152137832Y-52700500D01*
X153533072Y-52700500D01*
X153567999Y-52705521D01*
G37*
%TD.AperFunction*%
%TA.AperFunction,Conductor*%
G36*
X164009399Y-75805521D02*
G01*
X164022718Y-75809432D01*
X164081496Y-75847206D01*
X164110521Y-75910760D01*
X164112088Y-75921657D01*
X164110968Y-75963499D01*
X164099500Y-76021150D01*
X164099500Y-76021153D01*
X164099500Y-76178846D01*
X164099500Y-76178848D01*
X164099499Y-76178848D01*
X164130257Y-76333471D01*
X164130264Y-76333502D01*
X164190598Y-76479165D01*
X164190602Y-76479172D01*
X164190608Y-76479184D01*
X164190610Y-76479186D01*
X164222778Y-76527329D01*
X164238010Y-76559167D01*
X164242681Y-76574085D01*
X164243958Y-76643831D01*
X164243876Y-76644131D01*
X164211524Y-76699538D01*
X164202204Y-76708769D01*
X164191088Y-76718535D01*
X164189824Y-76719518D01*
X164189819Y-76719522D01*
X164069531Y-76839809D01*
X163981522Y-76985392D01*
X163930911Y-77147811D01*
X163924500Y-77218377D01*
X163924500Y-77731621D01*
X163930911Y-77802187D01*
X163940513Y-77833001D01*
X163981522Y-77964606D01*
X164069530Y-78110188D01*
X164159056Y-78199714D01*
X164180207Y-78227970D01*
X164187698Y-78241690D01*
X164202549Y-78309948D01*
X164202420Y-78311754D01*
X164183052Y-78369956D01*
X164181719Y-78372032D01*
X164178871Y-78376463D01*
X164162235Y-78397106D01*
X164083768Y-78475573D01*
X164055517Y-78496722D01*
X164032429Y-78509330D01*
X163972999Y-78524500D01*
X158141927Y-78524500D01*
X158106992Y-78519477D01*
X158096138Y-78516290D01*
X158037360Y-78478516D01*
X158008335Y-78414960D01*
X158018275Y-78345811D01*
X158021465Y-78338824D01*
X158046574Y-78302660D01*
X160499811Y-75849423D01*
X160528061Y-75828275D01*
X160551153Y-75815667D01*
X160610578Y-75800500D01*
X163974467Y-75800500D01*
X164009399Y-75805521D01*
G37*
%TD.AperFunction*%
%TA.AperFunction,Conductor*%
G36*
X178012513Y-73556589D02*
G01*
X178012517Y-73556591D01*
X178072127Y-73563000D01*
X178423074Y-73562999D01*
X178457997Y-73568018D01*
X178468853Y-73571206D01*
X178527631Y-73608975D01*
X178556661Y-73672528D01*
X178546722Y-73741687D01*
X178546717Y-73741699D01*
X178543530Y-73748677D01*
X178518418Y-73784843D01*
X175477691Y-76825573D01*
X175449440Y-76846722D01*
X175426352Y-76859330D01*
X175366922Y-76874500D01*
X169234350Y-76874500D01*
X169199414Y-76869477D01*
X169174172Y-76862065D01*
X169121428Y-76830770D01*
X169010188Y-76719530D01*
X168946239Y-76680871D01*
X168908925Y-76658314D01*
X168908923Y-76658313D01*
X168899145Y-76652402D01*
X168864606Y-76631522D01*
X168708360Y-76582835D01*
X168705034Y-76581583D01*
X168700859Y-76580597D01*
X168696590Y-76580404D01*
X168691021Y-76579898D01*
X168652778Y-76576423D01*
X168652777Y-76576422D01*
X168633538Y-76574674D01*
X168631616Y-76574500D01*
X168631615Y-76574500D01*
X167968386Y-76574500D01*
X167968384Y-76574500D01*
X167947234Y-76576422D01*
X167933093Y-76577707D01*
X167933092Y-76577707D01*
X167909216Y-76579876D01*
X167908982Y-76579898D01*
X167899794Y-76580389D01*
X167870723Y-76580865D01*
X167803370Y-76562281D01*
X167756757Y-76510233D01*
X167745683Y-76441247D01*
X167766258Y-76387001D01*
X167768368Y-76383909D01*
X167783111Y-76366122D01*
X167899811Y-76249422D01*
X167928066Y-76228272D01*
X167951154Y-76215666D01*
X168010577Y-76200500D01*
X174011380Y-76200500D01*
X174011443Y-76200501D01*
X174013347Y-76200501D01*
X174020943Y-76200501D01*
X174179054Y-76200501D01*
X174179057Y-76200501D01*
X174331785Y-76159577D01*
X174381904Y-76130639D01*
X174468716Y-76080520D01*
X174580520Y-75968716D01*
X174580520Y-75968714D01*
X174590728Y-75958507D01*
X174590728Y-75958505D01*
X174591233Y-75958001D01*
X174594413Y-75954819D01*
X174600931Y-75948301D01*
X174600934Y-75948300D01*
X174600937Y-75948295D01*
X175290520Y-75258716D01*
X175369577Y-75121784D01*
X175410501Y-74969057D01*
X175410501Y-74810942D01*
X175410501Y-74803347D01*
X175410501Y-74801663D01*
X175410500Y-74801589D01*
X175410500Y-73704828D01*
X175415523Y-73669892D01*
X175419927Y-73654894D01*
X175457661Y-73596152D01*
X175458585Y-73595351D01*
X175459034Y-73594961D01*
X175513925Y-73567474D01*
X175521483Y-73565829D01*
X175547827Y-73562999D01*
X176627870Y-73562999D01*
X176627872Y-73562999D01*
X176675759Y-73557851D01*
X176675759Y-73557857D01*
X176675783Y-73557848D01*
X176678684Y-73557536D01*
X176691897Y-73556830D01*
X176695310Y-73556829D01*
X176695311Y-73556830D01*
X176734688Y-73556829D01*
X176734688Y-73556828D01*
X176738080Y-73556828D01*
X176751326Y-73557538D01*
X176802127Y-73563000D01*
X177897872Y-73562999D01*
X177945759Y-73557851D01*
X177945759Y-73557859D01*
X177945788Y-73557847D01*
X177948122Y-73557596D01*
X177948682Y-73557537D01*
X177961903Y-73556830D01*
X177969437Y-73556830D01*
X177969441Y-73556830D01*
X177969444Y-73556828D01*
X177970126Y-73556712D01*
X177973814Y-73556830D01*
X177979974Y-73556830D01*
X177979974Y-73557027D01*
X178004583Y-73557814D01*
X178004804Y-73555761D01*
X178012513Y-73556589D01*
G37*
%TD.AperFunction*%
%TA.AperFunction,Conductor*%
G36*
X172585030Y-70464422D02*
G01*
X172589015Y-70466328D01*
X172631750Y-70499998D01*
X172631763Y-70500014D01*
X172641642Y-70514057D01*
X172669218Y-70559673D01*
X172678304Y-70577950D01*
X172683768Y-70591672D01*
X172690280Y-70661238D01*
X172658149Y-70723281D01*
X172633885Y-70737230D01*
X172618410Y-70753093D01*
X172614742Y-70770202D01*
X172609745Y-70787362D01*
X172603576Y-70803977D01*
X172598033Y-70816138D01*
X172598042Y-70816142D01*
X172596203Y-70820166D01*
X172545907Y-70955016D01*
X172541877Y-70992516D01*
X172541877Y-70992517D01*
X172539501Y-71014623D01*
X172539501Y-71014629D01*
X172539500Y-71014639D01*
X172539500Y-73110376D01*
X172539659Y-73112306D01*
X172539885Y-73113954D01*
X172545907Y-73169982D01*
X172573690Y-73244471D01*
X172596202Y-73304828D01*
X172596206Y-73304835D01*
X172639086Y-73362116D01*
X172682450Y-73420042D01*
X172682452Y-73420044D01*
X172682455Y-73420047D01*
X172797664Y-73506293D01*
X172797671Y-73506297D01*
X172932517Y-73556591D01*
X172932516Y-73556591D01*
X172939444Y-73557335D01*
X172992127Y-73563000D01*
X174067670Y-73562999D01*
X174102604Y-73568022D01*
X174117603Y-73572426D01*
X174176381Y-73610200D01*
X174176390Y-73610210D01*
X174177576Y-73611579D01*
X174205018Y-73666401D01*
X174206663Y-73673959D01*
X174209500Y-73700330D01*
X174209500Y-74572072D01*
X174204476Y-74607009D01*
X174197064Y-74632250D01*
X174165769Y-74684994D01*
X173900191Y-74950573D01*
X173871940Y-74971722D01*
X173848852Y-74984330D01*
X173789422Y-74999500D01*
X168666927Y-74999500D01*
X168631992Y-74994477D01*
X168621138Y-74991290D01*
X168562360Y-74953516D01*
X168533335Y-74889960D01*
X168543275Y-74820811D01*
X168546465Y-74813824D01*
X168571574Y-74777660D01*
X168832732Y-74516503D01*
X169651272Y-73697960D01*
X169651279Y-73697956D01*
X169668715Y-73680520D01*
X169668716Y-73680520D01*
X169780520Y-73568716D01*
X169843831Y-73459057D01*
X169859577Y-73431785D01*
X169869241Y-73395714D01*
X169872463Y-73388015D01*
X169878970Y-73379997D01*
X169889310Y-73359317D01*
X169892232Y-73355595D01*
X169892234Y-73355590D01*
X169893957Y-73353396D01*
X169909660Y-73342190D01*
X169916497Y-73333768D01*
X169925709Y-73330737D01*
X169950831Y-73312812D01*
X170020619Y-73309420D01*
X170068156Y-73332485D01*
X170069788Y-73333768D01*
X170076602Y-73339127D01*
X170099210Y-73362280D01*
X170142455Y-73420047D01*
X170257664Y-73506293D01*
X170257671Y-73506297D01*
X170392517Y-73556591D01*
X170392516Y-73556591D01*
X170399444Y-73557335D01*
X170452127Y-73563000D01*
X171547872Y-73562999D01*
X171607483Y-73556591D01*
X171742331Y-73506296D01*
X171857546Y-73420046D01*
X171943796Y-73304831D01*
X171994091Y-73169983D01*
X172000500Y-73110373D01*
X172000499Y-71014628D01*
X171994091Y-70955017D01*
X171987549Y-70937478D01*
X171980046Y-70902990D01*
X171978931Y-70887398D01*
X171993781Y-70819131D01*
X171995219Y-70816497D01*
X172035155Y-70772831D01*
X172039887Y-70769669D01*
X172061318Y-70758212D01*
X172179179Y-70709394D01*
X172310289Y-70621789D01*
X172421789Y-70510289D01*
X172421797Y-70510275D01*
X172424557Y-70506914D01*
X172440903Y-70490420D01*
X172452011Y-70481137D01*
X172516075Y-70453252D01*
X172585030Y-70464422D01*
G37*
%TD.AperFunction*%
%TA.AperFunction,Conductor*%
G36*
X170809399Y-59105521D02*
G01*
X170822718Y-59109432D01*
X170881496Y-59147206D01*
X170910522Y-59210761D01*
X170910522Y-59210762D01*
X170912089Y-59221660D01*
X170910968Y-59263500D01*
X170902839Y-59304365D01*
X170891097Y-59337647D01*
X170875731Y-59367023D01*
X170853538Y-59397225D01*
X169800191Y-60450573D01*
X169771940Y-60471722D01*
X169748852Y-60484330D01*
X169689422Y-60499500D01*
X168720943Y-60499500D01*
X168568218Y-60540422D01*
X168568211Y-60540424D01*
X168568210Y-60540425D01*
X168568200Y-60540430D01*
X168431298Y-60619470D01*
X168431294Y-60619472D01*
X168431290Y-60619475D01*
X168431282Y-60619481D01*
X168431278Y-60619484D01*
X168431276Y-60619485D01*
X168319485Y-60731276D01*
X168319484Y-60731278D01*
X168319481Y-60731281D01*
X168319481Y-60731282D01*
X168319475Y-60731290D01*
X168319472Y-60731294D01*
X168319470Y-60731298D01*
X168240430Y-60868200D01*
X168240428Y-60868205D01*
X168240419Y-60868225D01*
X168237824Y-60877909D01*
X168225438Y-60907808D01*
X168209671Y-60935116D01*
X168189966Y-60960795D01*
X165731286Y-63419477D01*
X165619479Y-63531284D01*
X165597401Y-63569526D01*
X165597400Y-63569527D01*
X165581479Y-63597104D01*
X165580096Y-63599500D01*
X165540423Y-63668215D01*
X165499499Y-63820943D01*
X165499499Y-63820945D01*
X165499499Y-63991400D01*
X165499500Y-63991451D01*
X165499500Y-66313330D01*
X165499499Y-66313348D01*
X165499499Y-66374767D01*
X165499499Y-66436961D01*
X165493601Y-66457046D01*
X165499498Y-66479054D01*
X165535166Y-66612168D01*
X165540425Y-66631792D01*
X165548579Y-66645915D01*
X165548584Y-66645922D01*
X165560535Y-66666621D01*
X165560559Y-66666664D01*
X165604791Y-66743275D01*
X165619475Y-66768709D01*
X165619481Y-66768717D01*
X165619485Y-66768722D01*
X165740314Y-66889551D01*
X165740359Y-66889594D01*
X168650573Y-69799808D01*
X168671723Y-69828060D01*
X168684331Y-69851149D01*
X168699500Y-69910578D01*
X168699500Y-72882072D01*
X168694476Y-72917009D01*
X168687064Y-72942250D01*
X168655769Y-72994994D01*
X167232467Y-74418295D01*
X167204214Y-74439446D01*
X167192032Y-74446098D01*
X167123759Y-74460950D01*
X167058296Y-74436534D01*
X167054098Y-74433392D01*
X167013850Y-74381579D01*
X167009395Y-74370823D01*
X167009390Y-74370814D01*
X166921789Y-74239711D01*
X166921786Y-74239707D01*
X166921781Y-74239701D01*
X166810297Y-74128217D01*
X166810291Y-74128212D01*
X166810290Y-74128211D01*
X166679191Y-74040613D01*
X166679190Y-74040612D01*
X166679185Y-74040609D01*
X166679172Y-74040602D01*
X166679165Y-74040598D01*
X166533523Y-73980272D01*
X166533509Y-73980267D01*
X166533501Y-73980264D01*
X166533491Y-73980261D01*
X166533486Y-73980260D01*
X166533483Y-73980259D01*
X166395636Y-73952839D01*
X166362354Y-73941098D01*
X166332980Y-73925733D01*
X166302773Y-73903538D01*
X164649426Y-72250191D01*
X164628274Y-72221935D01*
X164615667Y-72198846D01*
X164600500Y-72139421D01*
X164600500Y-65234544D01*
X164605523Y-65199609D01*
X164611013Y-65180912D01*
X164643517Y-65126974D01*
X164650179Y-65120492D01*
X164672491Y-65103257D01*
X164710185Y-65080472D01*
X164830472Y-64960185D01*
X164918478Y-64814606D01*
X164969086Y-64652196D01*
X164975500Y-64581616D01*
X164975500Y-64068384D01*
X164969086Y-63997804D01*
X164918478Y-63835394D01*
X164830472Y-63689815D01*
X164830470Y-63689813D01*
X164830469Y-63689811D01*
X164740946Y-63600288D01*
X164719794Y-63572032D01*
X164712302Y-63558311D01*
X164697450Y-63490051D01*
X164697579Y-63488242D01*
X164716949Y-63430041D01*
X164721133Y-63423530D01*
X164737763Y-63402895D01*
X164830469Y-63310189D01*
X164830469Y-63310188D01*
X164830472Y-63310185D01*
X164918478Y-63164606D01*
X164969086Y-63002196D01*
X164975500Y-62931616D01*
X164975500Y-62642329D01*
X164980523Y-62607393D01*
X164984927Y-62592395D01*
X165022672Y-62533644D01*
X165024041Y-62532457D01*
X165078920Y-62504977D01*
X165086479Y-62503333D01*
X165112832Y-62500500D01*
X165182964Y-62500500D01*
X165190814Y-62498118D01*
X165333497Y-62469737D01*
X165479179Y-62409394D01*
X165610289Y-62321789D01*
X165721789Y-62210289D01*
X165809394Y-62079179D01*
X165869737Y-61933497D01*
X165900500Y-61778842D01*
X165900500Y-61621158D01*
X165900500Y-61621157D01*
X165900500Y-61621155D01*
X165900500Y-61620973D01*
X165900065Y-61618972D01*
X165892417Y-61580524D01*
X165892417Y-61580523D01*
X165870177Y-61468716D01*
X165869737Y-61466503D01*
X165866427Y-61458511D01*
X165866425Y-61458506D01*
X165809400Y-61320833D01*
X165809395Y-61320824D01*
X165809390Y-61320814D01*
X165721789Y-61189711D01*
X165721786Y-61189707D01*
X165721781Y-61189701D01*
X165610297Y-61078217D01*
X165610291Y-61078212D01*
X165610290Y-61078211D01*
X165479191Y-60990613D01*
X165479186Y-60990610D01*
X165479185Y-60990609D01*
X165479172Y-60990602D01*
X165479165Y-60990598D01*
X165333502Y-60930264D01*
X165333471Y-60930257D01*
X165178847Y-60899500D01*
X165178845Y-60899500D01*
X165178842Y-60899500D01*
X165021158Y-60899500D01*
X165021155Y-60899500D01*
X165021153Y-60899500D01*
X164866527Y-60930257D01*
X164866496Y-60930264D01*
X164720833Y-60990598D01*
X164720824Y-60990603D01*
X164720812Y-60990610D01*
X164633713Y-61048808D01*
X164601873Y-61064041D01*
X164586954Y-61068712D01*
X164517103Y-61069959D01*
X164503975Y-61066358D01*
X164467885Y-61049877D01*
X164379191Y-60990613D01*
X164379186Y-60990610D01*
X164379185Y-60990609D01*
X164379172Y-60990602D01*
X164379165Y-60990598D01*
X164233502Y-60930264D01*
X164233471Y-60930257D01*
X164078847Y-60899500D01*
X164078845Y-60899500D01*
X164078842Y-60899500D01*
X163921158Y-60899500D01*
X163921155Y-60899500D01*
X163921153Y-60899500D01*
X163766527Y-60930257D01*
X163766496Y-60930264D01*
X163620833Y-60990598D01*
X163620824Y-60990603D01*
X163620807Y-60990613D01*
X163489708Y-61078211D01*
X163489707Y-61078212D01*
X163489701Y-61078217D01*
X163378218Y-61189700D01*
X163378208Y-61189713D01*
X163378202Y-61189721D01*
X163368667Y-61203991D01*
X163345083Y-61230245D01*
X163334633Y-61238978D01*
X163270569Y-61266863D01*
X163201599Y-61255685D01*
X163153896Y-61215454D01*
X163149126Y-61208713D01*
X163135786Y-61184539D01*
X163109395Y-61120824D01*
X163109394Y-61120821D01*
X163109390Y-61120814D01*
X163021789Y-60989711D01*
X163021786Y-60989707D01*
X163021781Y-60989701D01*
X162910297Y-60878217D01*
X162910291Y-60878212D01*
X162910290Y-60878211D01*
X162779182Y-60790607D01*
X162779180Y-60790606D01*
X162771504Y-60787426D01*
X162740434Y-60774557D01*
X162710082Y-60756547D01*
X162699273Y-60747836D01*
X162659428Y-60690443D01*
X162656935Y-60620629D01*
X162658232Y-60615545D01*
X162690696Y-60558536D01*
X164099811Y-59149423D01*
X164128061Y-59128275D01*
X164151153Y-59115667D01*
X164210578Y-59100500D01*
X170774467Y-59100500D01*
X170809399Y-59105521D01*
G37*
%TD.AperFunction*%
%TA.AperFunction,Conductor*%
G36*
X162273015Y-51189443D02*
G01*
X162273558Y-51189436D01*
X162273804Y-51189467D01*
X162357606Y-51200500D01*
X162357613Y-51200500D01*
X162642387Y-51200500D01*
X162642394Y-51200500D01*
X162725763Y-51189523D01*
X162741949Y-51188463D01*
X162758051Y-51188463D01*
X162774237Y-51189524D01*
X162856147Y-51200308D01*
X162857606Y-51200500D01*
X162857613Y-51200500D01*
X163142387Y-51200500D01*
X163142394Y-51200500D01*
X163225763Y-51189523D01*
X163241949Y-51188463D01*
X163258051Y-51188463D01*
X163274237Y-51189524D01*
X163356147Y-51200308D01*
X163357606Y-51200500D01*
X163357613Y-51200500D01*
X163642387Y-51200500D01*
X163642394Y-51200500D01*
X163725763Y-51189523D01*
X163741949Y-51188463D01*
X163758051Y-51188463D01*
X163774237Y-51189524D01*
X163856147Y-51200308D01*
X163857606Y-51200500D01*
X163857613Y-51200500D01*
X164142387Y-51200500D01*
X164142394Y-51200500D01*
X164225763Y-51189523D01*
X164241949Y-51188463D01*
X164258051Y-51188463D01*
X164274237Y-51189524D01*
X164356147Y-51200308D01*
X164357606Y-51200500D01*
X164357613Y-51200500D01*
X164642387Y-51200500D01*
X164642394Y-51200500D01*
X164725763Y-51189523D01*
X164741949Y-51188463D01*
X164758051Y-51188463D01*
X164774237Y-51189524D01*
X164856147Y-51200308D01*
X164857606Y-51200500D01*
X164857613Y-51200500D01*
X165142387Y-51200500D01*
X165142394Y-51200500D01*
X165225763Y-51189523D01*
X165241949Y-51188463D01*
X165258051Y-51188463D01*
X165274237Y-51189524D01*
X165356147Y-51200308D01*
X165357606Y-51200500D01*
X165357613Y-51200500D01*
X165642387Y-51200500D01*
X165642394Y-51200500D01*
X165725763Y-51189523D01*
X165741949Y-51188463D01*
X165758051Y-51188463D01*
X165774237Y-51189524D01*
X165856147Y-51200308D01*
X165857606Y-51200500D01*
X165857613Y-51200500D01*
X166142387Y-51200500D01*
X166142394Y-51200500D01*
X166225763Y-51189523D01*
X166241949Y-51188463D01*
X166258051Y-51188463D01*
X166274237Y-51189524D01*
X166356147Y-51200308D01*
X166357606Y-51200500D01*
X166357613Y-51200500D01*
X166642387Y-51200500D01*
X166642394Y-51200500D01*
X166725763Y-51189523D01*
X166741949Y-51188463D01*
X166758051Y-51188463D01*
X166774237Y-51189524D01*
X166856147Y-51200308D01*
X166857606Y-51200500D01*
X166857613Y-51200500D01*
X167142387Y-51200500D01*
X167142394Y-51200500D01*
X167225763Y-51189523D01*
X167241949Y-51188463D01*
X167258051Y-51188463D01*
X167274237Y-51189524D01*
X167356147Y-51200308D01*
X167357606Y-51200500D01*
X167357613Y-51200500D01*
X167642387Y-51200500D01*
X167642394Y-51200500D01*
X167725763Y-51189523D01*
X167741949Y-51188463D01*
X167758051Y-51188463D01*
X167774237Y-51189524D01*
X167856147Y-51200308D01*
X167857606Y-51200500D01*
X167857613Y-51200500D01*
X168142387Y-51200500D01*
X168142394Y-51200500D01*
X168225763Y-51189523D01*
X168241949Y-51188463D01*
X168258051Y-51188463D01*
X168274237Y-51189524D01*
X168356147Y-51200308D01*
X168357606Y-51200500D01*
X168357613Y-51200500D01*
X168642387Y-51200500D01*
X168642394Y-51200500D01*
X168725763Y-51189523D01*
X168741949Y-51188463D01*
X168758051Y-51188463D01*
X168774237Y-51189524D01*
X168856147Y-51200308D01*
X168857606Y-51200500D01*
X168857613Y-51200500D01*
X169142387Y-51200500D01*
X169142394Y-51200500D01*
X169225763Y-51189523D01*
X169241949Y-51188463D01*
X169258051Y-51188463D01*
X169274237Y-51189524D01*
X169356147Y-51200308D01*
X169357606Y-51200500D01*
X169357613Y-51200500D01*
X169642387Y-51200500D01*
X169642394Y-51200500D01*
X169725763Y-51189523D01*
X169741949Y-51188463D01*
X169758051Y-51188463D01*
X169774237Y-51189524D01*
X169856147Y-51200308D01*
X169857606Y-51200500D01*
X169857613Y-51200500D01*
X170142387Y-51200500D01*
X170142394Y-51200500D01*
X170225763Y-51189523D01*
X170241949Y-51188463D01*
X170258051Y-51188463D01*
X170274237Y-51189524D01*
X170356147Y-51200308D01*
X170357606Y-51200500D01*
X170357613Y-51200500D01*
X170642387Y-51200500D01*
X170642394Y-51200500D01*
X170725763Y-51189523D01*
X170741949Y-51188463D01*
X170758051Y-51188463D01*
X170774237Y-51189524D01*
X170856147Y-51200308D01*
X170857606Y-51200500D01*
X170857613Y-51200500D01*
X171142387Y-51200500D01*
X171142394Y-51200500D01*
X171225763Y-51189523D01*
X171241949Y-51188463D01*
X171258051Y-51188463D01*
X171274237Y-51189524D01*
X171356147Y-51200308D01*
X171357606Y-51200500D01*
X171357613Y-51200500D01*
X171642387Y-51200500D01*
X171642394Y-51200500D01*
X171725763Y-51189523D01*
X171741949Y-51188463D01*
X171758051Y-51188463D01*
X171774237Y-51189524D01*
X171856147Y-51200308D01*
X171857606Y-51200500D01*
X171857613Y-51200500D01*
X172142387Y-51200500D01*
X172142394Y-51200500D01*
X172225763Y-51189523D01*
X172241949Y-51188463D01*
X172258051Y-51188463D01*
X172274237Y-51189524D01*
X172356147Y-51200308D01*
X172357606Y-51200500D01*
X172357613Y-51200500D01*
X172642387Y-51200500D01*
X172642394Y-51200500D01*
X172725763Y-51189523D01*
X172741949Y-51188463D01*
X172758051Y-51188463D01*
X172774237Y-51189524D01*
X172856147Y-51200308D01*
X172857606Y-51200500D01*
X172857613Y-51200500D01*
X173142387Y-51200500D01*
X173142394Y-51200500D01*
X173225763Y-51189523D01*
X173241949Y-51188463D01*
X173258051Y-51188463D01*
X173274237Y-51189524D01*
X173356147Y-51200308D01*
X173357606Y-51200500D01*
X173357613Y-51200500D01*
X173642387Y-51200500D01*
X173642394Y-51200500D01*
X173725763Y-51189523D01*
X173741949Y-51188463D01*
X173758053Y-51188463D01*
X173774239Y-51189524D01*
X173857605Y-51200500D01*
X173857606Y-51200500D01*
X173861361Y-51200500D01*
X174021695Y-51200500D01*
X174056627Y-51205521D01*
X174069946Y-51209432D01*
X174128724Y-51247206D01*
X174157750Y-51310761D01*
X174157752Y-51310777D01*
X174158135Y-51313443D01*
X174153221Y-51369716D01*
X174149189Y-51382011D01*
X174145924Y-51390823D01*
X174089884Y-51526116D01*
X174089877Y-51526147D01*
X174059120Y-51680770D01*
X174059120Y-51680773D01*
X174059120Y-51838466D01*
X174059120Y-51838468D01*
X174059119Y-51838468D01*
X174089877Y-51993091D01*
X174089884Y-51993122D01*
X174150218Y-52138785D01*
X174150223Y-52138794D01*
X174150233Y-52138811D01*
X174237831Y-52269910D01*
X174237832Y-52269911D01*
X174237837Y-52269917D01*
X174349321Y-52381401D01*
X174349327Y-52381406D01*
X174349331Y-52381409D01*
X174480434Y-52469010D01*
X174480447Y-52469017D01*
X174480449Y-52469017D01*
X174480453Y-52469020D01*
X174600485Y-52518738D01*
X174600487Y-52518738D01*
X174610027Y-52522690D01*
X174626123Y-52529357D01*
X174774998Y-52558970D01*
X174776797Y-52559385D01*
X174777020Y-52559510D01*
X174780775Y-52560120D01*
X174938464Y-52560120D01*
X174942584Y-52560120D01*
X174950434Y-52557738D01*
X175093117Y-52529357D01*
X175195388Y-52486993D01*
X175229579Y-52478267D01*
X175262542Y-52474724D01*
X175299983Y-52476396D01*
X175389150Y-52494133D01*
X175421154Y-52500500D01*
X175578844Y-52500500D01*
X175582964Y-52500500D01*
X175590814Y-52498118D01*
X175733497Y-52469737D01*
X175846166Y-52423067D01*
X175872634Y-52412104D01*
X175875425Y-52411131D01*
X175876868Y-52410464D01*
X175881528Y-52408421D01*
X175890788Y-52404585D01*
X175899675Y-52395698D01*
X175986588Y-52337624D01*
X176018421Y-52322394D01*
X176033339Y-52317722D01*
X176103192Y-52316473D01*
X176108402Y-52317902D01*
X176156694Y-52343683D01*
X176157780Y-52344622D01*
X176171667Y-52358716D01*
X176214835Y-52410163D01*
X176298273Y-52480174D01*
X176348942Y-52522690D01*
X176348943Y-52522691D01*
X176348945Y-52522692D01*
X176500555Y-52610224D01*
X176665062Y-52670100D01*
X176837466Y-52700500D01*
X176859108Y-52700500D01*
X180857670Y-52700500D01*
X180892606Y-52705523D01*
X180907604Y-52709927D01*
X180966355Y-52747672D01*
X180967542Y-52749041D01*
X180995018Y-52803902D01*
X180996663Y-52811460D01*
X180999500Y-52837831D01*
X180999500Y-70651134D01*
X180994476Y-70686072D01*
X180991289Y-70696925D01*
X180953514Y-70755702D01*
X180889957Y-70784725D01*
X180820801Y-70774781D01*
X180817707Y-70773368D01*
X180769952Y-70734884D01*
X180766233Y-70729916D01*
X180766233Y-70729917D01*
X180754189Y-70713828D01*
X180749707Y-70706572D01*
X180747544Y-70704952D01*
X180632335Y-70618706D01*
X180632332Y-70618704D01*
X180632330Y-70618703D01*
X180632328Y-70618702D01*
X180497482Y-70568408D01*
X180497483Y-70568408D01*
X180437883Y-70562001D01*
X180437881Y-70562000D01*
X180437873Y-70562000D01*
X180437864Y-70562000D01*
X180436841Y-70562000D01*
X179342123Y-70562000D01*
X179340194Y-70562159D01*
X179338549Y-70562385D01*
X179308479Y-70565617D01*
X179291304Y-70567464D01*
X179278052Y-70568174D01*
X179231941Y-70568174D01*
X179218688Y-70567463D01*
X179201755Y-70565642D01*
X179175588Y-70562829D01*
X179170742Y-70562000D01*
X179167881Y-70562000D01*
X179167873Y-70562000D01*
X179167864Y-70562000D01*
X178072129Y-70562000D01*
X178072123Y-70562000D01*
X178070194Y-70562159D01*
X178068549Y-70562385D01*
X178038479Y-70565617D01*
X178021304Y-70567464D01*
X178008052Y-70568174D01*
X177961941Y-70568174D01*
X177948688Y-70567463D01*
X177931755Y-70565642D01*
X177905588Y-70562829D01*
X177900742Y-70562000D01*
X177897881Y-70562000D01*
X177897873Y-70562000D01*
X177897864Y-70562000D01*
X176802129Y-70562000D01*
X176802123Y-70562000D01*
X176800194Y-70562159D01*
X176798549Y-70562385D01*
X176768479Y-70565617D01*
X176751304Y-70567464D01*
X176738052Y-70568174D01*
X176691941Y-70568174D01*
X176678688Y-70567463D01*
X176661755Y-70565642D01*
X176635588Y-70562829D01*
X176630742Y-70562000D01*
X176627881Y-70562000D01*
X176627873Y-70562000D01*
X176627864Y-70562000D01*
X175532129Y-70562000D01*
X175532123Y-70562000D01*
X175530194Y-70562159D01*
X175528549Y-70562385D01*
X175498479Y-70565617D01*
X175481304Y-70567464D01*
X175468052Y-70568174D01*
X175421941Y-70568174D01*
X175408688Y-70567463D01*
X175391755Y-70565642D01*
X175365588Y-70562829D01*
X175360742Y-70562000D01*
X175357881Y-70562000D01*
X175357873Y-70562000D01*
X175357865Y-70562000D01*
X174558899Y-70562000D01*
X174523960Y-70556976D01*
X174510642Y-70553065D01*
X174451865Y-70515289D01*
X174422843Y-70451738D01*
X174421803Y-70444501D01*
X174426154Y-70389969D01*
X174469086Y-70252196D01*
X174475500Y-70181616D01*
X174475500Y-69668384D01*
X174469086Y-69597804D01*
X174418478Y-69435394D01*
X174330472Y-69289815D01*
X174330470Y-69289813D01*
X174330469Y-69289811D01*
X174240946Y-69200288D01*
X174219794Y-69172032D01*
X174212302Y-69158311D01*
X174197450Y-69090051D01*
X174197579Y-69088242D01*
X174216949Y-69030041D01*
X174221133Y-69023530D01*
X174237763Y-69002895D01*
X174330469Y-68910189D01*
X174330469Y-68910188D01*
X174330472Y-68910185D01*
X174418478Y-68764606D01*
X174469086Y-68602196D01*
X174475500Y-68531616D01*
X174475500Y-68018384D01*
X174469086Y-67947804D01*
X174418478Y-67785394D01*
X174330472Y-67639815D01*
X174330470Y-67639813D01*
X174330469Y-67639811D01*
X174210188Y-67519530D01*
X174182058Y-67502525D01*
X174175603Y-67498623D01*
X174064606Y-67431522D01*
X173902193Y-67380913D01*
X173888837Y-67379699D01*
X173885500Y-67379396D01*
X173885498Y-67379395D01*
X173877556Y-67378674D01*
X173843221Y-67370510D01*
X173832339Y-67366211D01*
X173777221Y-67323271D01*
X173754068Y-67257349D01*
X173769645Y-67190412D01*
X173774950Y-67180915D01*
X173795515Y-67153718D01*
X174502056Y-66447177D01*
X174530307Y-66426029D01*
X174559403Y-66410141D01*
X174594635Y-66397358D01*
X174636085Y-66389113D01*
X174733497Y-66369737D01*
X174879179Y-66309394D01*
X175010289Y-66221789D01*
X175121789Y-66110289D01*
X175209394Y-65979179D01*
X175251631Y-65877206D01*
X175269635Y-65846862D01*
X175282805Y-65830520D01*
X175330867Y-65794203D01*
X175337059Y-65791573D01*
X175361335Y-65784090D01*
X175433497Y-65769737D01*
X175579179Y-65709394D01*
X175710289Y-65621789D01*
X175821789Y-65510289D01*
X175909394Y-65379179D01*
X175969737Y-65233497D01*
X176000500Y-65078842D01*
X176000500Y-64921158D01*
X176000500Y-64921155D01*
X176000500Y-64920973D01*
X176000065Y-64918972D01*
X175979305Y-64814607D01*
X175979305Y-64814603D01*
X175969738Y-64766508D01*
X175969737Y-64766507D01*
X175969737Y-64766503D01*
X175963425Y-64751265D01*
X175909397Y-64620827D01*
X175909390Y-64620814D01*
X175821789Y-64489711D01*
X175821786Y-64489707D01*
X175821781Y-64489701D01*
X175710297Y-64378217D01*
X175710291Y-64378212D01*
X175710290Y-64378211D01*
X175579191Y-64290613D01*
X175579190Y-64290612D01*
X175579185Y-64290609D01*
X175579172Y-64290602D01*
X175579165Y-64290598D01*
X175433502Y-64230264D01*
X175433471Y-64230257D01*
X175366307Y-64216897D01*
X175333026Y-64205156D01*
X175314432Y-64195430D01*
X175269415Y-64155352D01*
X175265636Y-64149803D01*
X175253565Y-64127457D01*
X175209403Y-64020840D01*
X175209401Y-64020836D01*
X175209397Y-64020826D01*
X175209390Y-64020814D01*
X175121789Y-63889711D01*
X175121786Y-63889707D01*
X175121781Y-63889701D01*
X175010297Y-63778217D01*
X175010291Y-63778212D01*
X175010290Y-63778211D01*
X174879191Y-63690613D01*
X174879190Y-63690612D01*
X174879185Y-63690609D01*
X174879172Y-63690602D01*
X174879165Y-63690598D01*
X174733502Y-63630264D01*
X174733471Y-63630257D01*
X174578847Y-63599500D01*
X174578845Y-63599500D01*
X174578842Y-63599500D01*
X174421158Y-63599500D01*
X174421155Y-63599500D01*
X174421153Y-63599500D01*
X174266527Y-63630257D01*
X174266496Y-63630264D01*
X174120833Y-63690598D01*
X174120824Y-63690603D01*
X174120797Y-63690619D01*
X174003949Y-63768695D01*
X173972115Y-63783927D01*
X173940478Y-63793834D01*
X173903422Y-63799500D01*
X172356189Y-63799500D01*
X172250253Y-63827884D01*
X172250200Y-63827901D01*
X172203468Y-63840423D01*
X172203463Y-63840426D01*
X172191588Y-63847281D01*
X172191581Y-63847284D01*
X172066552Y-63919470D01*
X172066548Y-63919472D01*
X172066544Y-63919475D01*
X172066536Y-63919481D01*
X172066532Y-63919484D01*
X172066530Y-63919485D01*
X169710741Y-66275276D01*
X169682488Y-66296426D01*
X169653394Y-66312313D01*
X169618158Y-66325099D01*
X169479310Y-66352718D01*
X169479304Y-66352719D01*
X169479303Y-66352720D01*
X169479293Y-66352723D01*
X169479288Y-66352724D01*
X169479270Y-66352731D01*
X169333628Y-66413057D01*
X169333619Y-66413062D01*
X169333602Y-66413072D01*
X169202503Y-66500670D01*
X169202502Y-66500671D01*
X169202496Y-66500676D01*
X169091012Y-66612160D01*
X169091007Y-66612166D01*
X169003402Y-66743275D01*
X169003395Y-66743291D01*
X168990184Y-66775185D01*
X168972175Y-66805538D01*
X168963466Y-66816345D01*
X168906073Y-66856193D01*
X168836256Y-66858688D01*
X168831181Y-66857393D01*
X168774159Y-66824924D01*
X167749426Y-65800191D01*
X167728274Y-65771935D01*
X167715667Y-65748846D01*
X167700500Y-65689421D01*
X167700500Y-65297594D01*
X167705522Y-65262661D01*
X167714864Y-65230845D01*
X167730733Y-65196902D01*
X167806450Y-65083584D01*
X167808468Y-65080827D01*
X167809978Y-65078426D01*
X167811710Y-65073585D01*
X167869737Y-64933497D01*
X167900500Y-64778842D01*
X167900500Y-64621158D01*
X167900500Y-64621155D01*
X167900500Y-64621068D01*
X167900320Y-64620254D01*
X167869737Y-64466503D01*
X167866867Y-64459575D01*
X167809397Y-64320827D01*
X167809390Y-64320814D01*
X167721789Y-64189711D01*
X167721786Y-64189707D01*
X167721781Y-64189701D01*
X167610297Y-64078217D01*
X167610291Y-64078212D01*
X167610290Y-64078211D01*
X167479191Y-63990613D01*
X167479190Y-63990612D01*
X167479185Y-63990609D01*
X167479172Y-63990602D01*
X167479165Y-63990598D01*
X167333523Y-63930272D01*
X167333509Y-63930267D01*
X167333501Y-63930264D01*
X167333491Y-63930261D01*
X167333488Y-63930260D01*
X167333484Y-63930259D01*
X167232761Y-63910224D01*
X167199479Y-63898483D01*
X167187410Y-63892170D01*
X167137131Y-63843655D01*
X167121062Y-63775658D01*
X167139971Y-63716194D01*
X167144378Y-63709199D01*
X167161599Y-63687633D01*
X167470384Y-63378848D01*
X168899499Y-63378848D01*
X168930257Y-63533471D01*
X168930264Y-63533502D01*
X168990598Y-63679165D01*
X168990603Y-63679174D01*
X168990613Y-63679191D01*
X169078211Y-63810290D01*
X169078212Y-63810291D01*
X169078217Y-63810297D01*
X169189701Y-63921781D01*
X169189707Y-63921786D01*
X169189711Y-63921789D01*
X169320814Y-64009390D01*
X169320827Y-64009397D01*
X169320829Y-64009397D01*
X169320833Y-64009400D01*
X169432780Y-64055769D01*
X169463241Y-64068386D01*
X169466503Y-64069737D01*
X169614601Y-64099195D01*
X169615612Y-64099415D01*
X169616041Y-64099649D01*
X169616247Y-64099703D01*
X169621155Y-64100500D01*
X169778844Y-64100500D01*
X169782964Y-64100500D01*
X169790814Y-64098118D01*
X169933497Y-64069737D01*
X170051592Y-64020821D01*
X170079172Y-64009397D01*
X170079172Y-64009396D01*
X170079179Y-64009394D01*
X170079184Y-64009390D01*
X170081534Y-64008417D01*
X170081534Y-64008416D01*
X170081537Y-64008416D01*
X170090792Y-64004582D01*
X170099677Y-63995698D01*
X170197605Y-63930264D01*
X170210289Y-63921789D01*
X170321789Y-63810289D01*
X170409394Y-63679179D01*
X170469737Y-63533497D01*
X170500499Y-63378848D01*
X170500500Y-63378844D01*
X170500500Y-63220973D01*
X170500065Y-63218971D01*
X170481847Y-63127384D01*
X170470077Y-63068213D01*
X170469737Y-63066503D01*
X170443101Y-63002197D01*
X170409397Y-62920827D01*
X170409390Y-62920814D01*
X170321789Y-62789711D01*
X170321786Y-62789707D01*
X170321781Y-62789701D01*
X170210297Y-62678217D01*
X170210291Y-62678212D01*
X170210290Y-62678211D01*
X170079191Y-62590613D01*
X170079190Y-62590612D01*
X170079185Y-62590609D01*
X170079172Y-62590602D01*
X170079165Y-62590598D01*
X169933502Y-62530264D01*
X169933471Y-62530257D01*
X169778847Y-62499500D01*
X169778845Y-62499500D01*
X169778842Y-62499500D01*
X169621158Y-62499500D01*
X169621155Y-62499500D01*
X169621153Y-62499500D01*
X169466527Y-62530257D01*
X169466496Y-62530264D01*
X169320833Y-62590598D01*
X169320824Y-62590603D01*
X169320807Y-62590613D01*
X169189708Y-62678211D01*
X169189707Y-62678212D01*
X169189701Y-62678217D01*
X169078217Y-62789701D01*
X169078212Y-62789707D01*
X169078211Y-62789708D01*
X168990613Y-62920807D01*
X168990603Y-62920824D01*
X168990598Y-62920833D01*
X168930264Y-63066496D01*
X168930257Y-63066527D01*
X168899500Y-63221150D01*
X168899500Y-63378844D01*
X168899499Y-63378848D01*
X167470384Y-63378848D01*
X169099812Y-61749423D01*
X169128062Y-61728275D01*
X169151154Y-61715667D01*
X169210579Y-61700500D01*
X169911380Y-61700500D01*
X169911443Y-61700501D01*
X169913347Y-61700501D01*
X169920943Y-61700501D01*
X170079054Y-61700501D01*
X170079057Y-61700501D01*
X170231785Y-61659577D01*
X170298328Y-61621158D01*
X170298649Y-61620973D01*
X170368709Y-61580524D01*
X170368708Y-61580524D01*
X170368716Y-61580520D01*
X170480520Y-61468716D01*
X170480520Y-61468715D01*
X170497956Y-61451279D01*
X170497960Y-61451272D01*
X171702056Y-60247177D01*
X171730307Y-60226029D01*
X171759403Y-60210141D01*
X171794635Y-60197358D01*
X171836085Y-60189113D01*
X171933497Y-60169737D01*
X172079179Y-60109394D01*
X172210289Y-60021789D01*
X172321789Y-59910289D01*
X172409394Y-59779179D01*
X172469737Y-59633497D01*
X172500500Y-59478842D01*
X172500500Y-59321158D01*
X172500500Y-59321155D01*
X172500500Y-59320971D01*
X172500069Y-59318988D01*
X172489564Y-59266176D01*
X172487675Y-59230933D01*
X172488912Y-59217110D01*
X172514493Y-59152091D01*
X172571161Y-59111227D01*
X172581558Y-59107559D01*
X172622801Y-59100500D01*
X173115911Y-59100500D01*
X173150847Y-59105523D01*
X173165845Y-59109927D01*
X173224619Y-59147698D01*
X173233536Y-59157988D01*
X173254387Y-59191741D01*
X173290599Y-59279165D01*
X173290604Y-59279176D01*
X173290613Y-59279191D01*
X173378211Y-59410290D01*
X173378212Y-59410291D01*
X173378217Y-59410297D01*
X173489701Y-59521781D01*
X173489707Y-59521786D01*
X173489711Y-59521789D01*
X173620814Y-59609390D01*
X173620827Y-59609397D01*
X173766498Y-59669735D01*
X173766503Y-59669737D01*
X173921153Y-59700499D01*
X173921156Y-59700500D01*
X173921158Y-59700500D01*
X174078844Y-59700500D01*
X174078845Y-59700499D01*
X174233497Y-59669737D01*
X174379179Y-59609394D01*
X174510289Y-59521789D01*
X174621789Y-59410289D01*
X174709394Y-59279179D01*
X174769737Y-59133497D01*
X174800500Y-58978842D01*
X174800500Y-58821158D01*
X174800500Y-58821155D01*
X174800500Y-58820973D01*
X174800065Y-58818972D01*
X174770397Y-58669824D01*
X174769994Y-58667467D01*
X174769738Y-58666508D01*
X174769737Y-58666506D01*
X174769737Y-58666503D01*
X174769735Y-58666498D01*
X174709397Y-58520827D01*
X174709390Y-58520814D01*
X174621789Y-58389711D01*
X174621786Y-58389707D01*
X174621781Y-58389701D01*
X174510297Y-58278217D01*
X174510291Y-58278212D01*
X174510290Y-58278211D01*
X174379191Y-58190613D01*
X174379190Y-58190612D01*
X174379185Y-58190609D01*
X174379172Y-58190602D01*
X174379165Y-58190598D01*
X174233523Y-58130272D01*
X174233509Y-58130267D01*
X174233501Y-58130264D01*
X174233491Y-58130261D01*
X174233488Y-58130260D01*
X174233484Y-58130259D01*
X174091420Y-58102001D01*
X174065765Y-58093924D01*
X174046818Y-58085606D01*
X174008983Y-58059747D01*
X173968717Y-58019481D01*
X173968716Y-58019480D01*
X173881904Y-57969360D01*
X173881904Y-57969359D01*
X173881900Y-57969358D01*
X173831785Y-57940423D01*
X173679057Y-57899499D01*
X173679054Y-57899499D01*
X173511443Y-57899499D01*
X173511380Y-57899500D01*
X163820940Y-57899500D01*
X163674968Y-57938611D01*
X163674939Y-57938621D01*
X163668215Y-57940423D01*
X163668214Y-57940423D01*
X163668212Y-57940424D01*
X163668209Y-57940425D01*
X163665416Y-57942037D01*
X163665412Y-57942039D01*
X163639087Y-57957238D01*
X163618096Y-57969359D01*
X163618095Y-57969360D01*
X163574689Y-57994420D01*
X163574688Y-57994419D01*
X163531290Y-58019475D01*
X163531284Y-58019479D01*
X163531282Y-58019480D01*
X163531282Y-58019481D01*
X163472899Y-58077865D01*
X163419478Y-58131286D01*
X160839504Y-60711261D01*
X158300191Y-63250573D01*
X158271940Y-63271722D01*
X158248852Y-63284330D01*
X158189422Y-63299500D01*
X156588620Y-63299500D01*
X156588557Y-63299499D01*
X156586653Y-63299499D01*
X156579057Y-63299499D01*
X156420943Y-63299499D01*
X156313586Y-63328265D01*
X156313585Y-63328264D01*
X156268209Y-63340423D01*
X156254077Y-63348582D01*
X156254071Y-63348587D01*
X156218097Y-63369358D01*
X156218095Y-63369359D01*
X156201667Y-63378844D01*
X156201666Y-63378845D01*
X156131283Y-63419479D01*
X156050764Y-63499998D01*
X156050764Y-63500000D01*
X156019480Y-63531284D01*
X156019478Y-63531286D01*
X155737120Y-63813645D01*
X155500191Y-64050573D01*
X155471940Y-64071722D01*
X155448852Y-64084330D01*
X155389422Y-64099500D01*
X154417928Y-64099500D01*
X154382992Y-64094477D01*
X154357750Y-64087065D01*
X154305005Y-64055769D01*
X154249426Y-64000190D01*
X154228274Y-63971934D01*
X154215667Y-63948845D01*
X154200500Y-63889420D01*
X154200500Y-63220946D01*
X154200500Y-63220944D01*
X154197036Y-63208012D01*
X154197036Y-63208011D01*
X154159576Y-63068213D01*
X154159575Y-63068212D01*
X154158592Y-63066510D01*
X154121461Y-63002196D01*
X154080520Y-62931284D01*
X153968716Y-62819480D01*
X153968715Y-62819479D01*
X153964385Y-62815149D01*
X153963363Y-62814127D01*
X153963320Y-62814085D01*
X153676926Y-62527691D01*
X153655774Y-62499435D01*
X153643167Y-62476346D01*
X153628000Y-62416921D01*
X153628000Y-56696348D01*
X155599499Y-56696348D01*
X155630257Y-56850971D01*
X155630264Y-56851002D01*
X155690598Y-56996665D01*
X155690603Y-56996674D01*
X155690613Y-56996691D01*
X155778211Y-57127790D01*
X155778212Y-57127791D01*
X155778217Y-57127797D01*
X155889701Y-57239281D01*
X155889707Y-57239286D01*
X155889711Y-57239289D01*
X156020814Y-57326890D01*
X156020827Y-57326897D01*
X156166498Y-57387235D01*
X156166503Y-57387237D01*
X156321153Y-57417999D01*
X156321156Y-57418000D01*
X156321158Y-57418000D01*
X156478844Y-57418000D01*
X156478845Y-57417999D01*
X156633497Y-57387237D01*
X156779179Y-57326894D01*
X156910289Y-57239289D01*
X157021789Y-57127789D01*
X157109394Y-56996679D01*
X157169737Y-56850997D01*
X157200500Y-56696342D01*
X157200500Y-56538658D01*
X157200500Y-56538655D01*
X157200500Y-56538473D01*
X157200065Y-56536472D01*
X157170397Y-56387324D01*
X157169994Y-56384967D01*
X157169738Y-56384008D01*
X157169737Y-56384006D01*
X157169737Y-56384003D01*
X157169735Y-56383998D01*
X157109397Y-56238327D01*
X157109390Y-56238314D01*
X157021789Y-56107211D01*
X157021786Y-56107207D01*
X157021781Y-56107201D01*
X156910297Y-55995717D01*
X156910291Y-55995712D01*
X156910290Y-55995711D01*
X156779191Y-55908113D01*
X156779190Y-55908112D01*
X156779185Y-55908109D01*
X156779172Y-55908102D01*
X156779165Y-55908098D01*
X156633502Y-55847764D01*
X156633471Y-55847757D01*
X156478847Y-55817000D01*
X156478845Y-55817000D01*
X156478842Y-55817000D01*
X156321158Y-55817000D01*
X156321155Y-55817000D01*
X156321153Y-55817000D01*
X156166527Y-55847757D01*
X156166496Y-55847764D01*
X156020833Y-55908098D01*
X156020824Y-55908103D01*
X156020807Y-55908113D01*
X155889708Y-55995711D01*
X155889707Y-55995712D01*
X155889701Y-55995717D01*
X155778217Y-56107201D01*
X155778212Y-56107207D01*
X155778211Y-56107208D01*
X155690613Y-56238307D01*
X155690603Y-56238324D01*
X155690598Y-56238333D01*
X155630264Y-56383996D01*
X155630257Y-56384027D01*
X155599500Y-56538650D01*
X155599500Y-56538653D01*
X155599500Y-56696346D01*
X155599500Y-56696348D01*
X155599499Y-56696348D01*
X153628000Y-56696348D01*
X153628000Y-55835676D01*
X153633023Y-55800740D01*
X153637427Y-55785742D01*
X153675198Y-55726968D01*
X153680751Y-55722156D01*
X153737744Y-55694253D01*
X153743774Y-55693053D01*
X153743790Y-55693054D01*
X153743790Y-55693051D01*
X153802791Y-55681314D01*
X153860997Y-55669737D01*
X154006679Y-55609394D01*
X154006685Y-55609390D01*
X154123555Y-55531299D01*
X154155385Y-55516071D01*
X154175074Y-55509906D01*
X154187029Y-55506164D01*
X154224078Y-55500500D01*
X154785212Y-55500500D01*
X154785275Y-55500501D01*
X154787179Y-55500501D01*
X154794775Y-55500501D01*
X154952886Y-55500501D01*
X154952889Y-55500501D01*
X155105617Y-55459577D01*
X155155736Y-55430639D01*
X155242548Y-55380520D01*
X155354352Y-55268716D01*
X155354352Y-55268714D01*
X155364560Y-55258507D01*
X155364560Y-55258505D01*
X155365065Y-55258001D01*
X155368285Y-55254779D01*
X155374763Y-55248301D01*
X155374766Y-55248300D01*
X155374769Y-55248295D01*
X156481162Y-54141903D01*
X156502666Y-54124721D01*
X156522440Y-54112246D01*
X156556493Y-54097352D01*
X156697470Y-54059577D01*
X156747589Y-54030639D01*
X156834401Y-53980520D01*
X156946205Y-53868716D01*
X156946205Y-53868714D01*
X156956413Y-53858507D01*
X156956413Y-53858505D01*
X156956918Y-53858001D01*
X156960144Y-53854773D01*
X156966616Y-53848301D01*
X156966619Y-53848300D01*
X156966622Y-53848295D01*
X159351272Y-51463646D01*
X159351279Y-51463642D01*
X159368715Y-51446206D01*
X159368716Y-51446206D01*
X159480520Y-51334402D01*
X159513121Y-51277933D01*
X159534938Y-51250193D01*
X159548857Y-51236922D01*
X159604428Y-51206350D01*
X159607673Y-51205541D01*
X159671101Y-51206449D01*
X159679535Y-51208811D01*
X159681121Y-51209255D01*
X159680747Y-51210589D01*
X159736888Y-51242487D01*
X159767974Y-51298355D01*
X159770736Y-51309308D01*
X159774500Y-51339628D01*
X159774500Y-51634107D01*
X159774500Y-51634108D01*
X159774500Y-51700000D01*
X159774500Y-51801976D01*
X159811976Y-52002456D01*
X159811977Y-52002458D01*
X159848814Y-52097546D01*
X159848813Y-52097546D01*
X159885645Y-52192622D01*
X159885649Y-52192630D01*
X159885651Y-52192635D01*
X159885655Y-52192642D01*
X159993017Y-52366039D01*
X159993018Y-52366040D01*
X159993020Y-52366043D01*
X159993238Y-52366318D01*
X159993941Y-52367052D01*
X160130418Y-52516762D01*
X160147097Y-52529357D01*
X160155053Y-52535365D01*
X160293177Y-52639672D01*
X160293178Y-52639672D01*
X160293179Y-52639673D01*
X160354285Y-52670100D01*
X160435608Y-52710594D01*
X160472584Y-52729006D01*
X160475285Y-52730448D01*
X160475744Y-52730579D01*
X160475750Y-52730582D01*
X160671917Y-52786397D01*
X160874999Y-52805215D01*
X160875000Y-52805215D01*
X160875001Y-52805215D01*
X160976541Y-52795806D01*
X161078083Y-52786397D01*
X161274250Y-52730582D01*
X161456821Y-52639673D01*
X161619579Y-52516764D01*
X161620349Y-52515920D01*
X161634407Y-52500499D01*
X161636581Y-52498114D01*
X161652935Y-52480174D01*
X161756981Y-52366041D01*
X161864348Y-52192637D01*
X161938024Y-52002456D01*
X161975500Y-51801976D01*
X161975500Y-51700000D01*
X161975500Y-51634108D01*
X161975500Y-51634107D01*
X161975500Y-51342329D01*
X161980523Y-51307393D01*
X161984927Y-51292395D01*
X162022699Y-51233620D01*
X162025966Y-51230789D01*
X162089521Y-51201763D01*
X162107171Y-51200500D01*
X162142395Y-51200500D01*
X162225762Y-51189524D01*
X162241948Y-51188463D01*
X162242198Y-51188463D01*
X162258051Y-51188463D01*
X162273015Y-51189443D01*
G37*
%TD.AperFunction*%
%TA.AperFunction,Conductor*%
G36*
X161620574Y-61777096D02*
G01*
X161664417Y-61831498D01*
X161671887Y-61900967D01*
X161660742Y-61934456D01*
X161655564Y-61944801D01*
X161632360Y-61976980D01*
X161569533Y-62039806D01*
X161569532Y-62039807D01*
X161481522Y-62185392D01*
X161430911Y-62347811D01*
X161424500Y-62418377D01*
X161424500Y-62931620D01*
X161427014Y-62959283D01*
X161430913Y-63002192D01*
X161430913Y-63002194D01*
X161430914Y-63002196D01*
X161435643Y-63017374D01*
X161435647Y-63017390D01*
X161481520Y-63164603D01*
X161553897Y-63284330D01*
X161561355Y-63296666D01*
X161561356Y-63296668D01*
X161561355Y-63296668D01*
X161569526Y-63310184D01*
X161659053Y-63399711D01*
X161680205Y-63427967D01*
X161687697Y-63441688D01*
X161702549Y-63509948D01*
X161702420Y-63511754D01*
X161683049Y-63569960D01*
X161678869Y-63576464D01*
X161662237Y-63597104D01*
X161618126Y-63641215D01*
X161569531Y-63689810D01*
X161569530Y-63689811D01*
X161569529Y-63689811D01*
X161569529Y-63689812D01*
X161481522Y-63835392D01*
X161430911Y-63997811D01*
X161424500Y-64068377D01*
X161424500Y-64581620D01*
X161428093Y-64621155D01*
X161430913Y-64652192D01*
X161430913Y-64652194D01*
X161430914Y-64652196D01*
X161435643Y-64667374D01*
X161435647Y-64667390D01*
X161481520Y-64814603D01*
X161515402Y-64870651D01*
X161553394Y-64933497D01*
X161569530Y-64960188D01*
X161689811Y-65080469D01*
X161689813Y-65080470D01*
X161689815Y-65080472D01*
X161689822Y-65080476D01*
X161691154Y-65081436D01*
X161694056Y-65083035D01*
X161835394Y-65168478D01*
X161997804Y-65219086D01*
X162068384Y-65225500D01*
X162247670Y-65225500D01*
X162282606Y-65230523D01*
X162297604Y-65234927D01*
X162356355Y-65272672D01*
X162357542Y-65274041D01*
X162385018Y-65328902D01*
X162386663Y-65336460D01*
X162389500Y-65362831D01*
X162389500Y-69933073D01*
X162384476Y-69968011D01*
X162381289Y-69978864D01*
X162343514Y-70037641D01*
X162279957Y-70066664D01*
X162210807Y-70056723D01*
X162203829Y-70053536D01*
X162167657Y-70028422D01*
X161706928Y-69567693D01*
X161706908Y-69567671D01*
X161583722Y-69444485D01*
X161583717Y-69444481D01*
X161583709Y-69444475D01*
X161583703Y-69444471D01*
X161583695Y-69444466D01*
X161475980Y-69382278D01*
X161468934Y-69378210D01*
X161453367Y-69369223D01*
X161453362Y-69369217D01*
X161453361Y-69369219D01*
X161446785Y-69365423D01*
X161294057Y-69324499D01*
X161294054Y-69324499D01*
X161126443Y-69324499D01*
X161126380Y-69324500D01*
X160034350Y-69324500D01*
X159999414Y-69319477D01*
X159974172Y-69312065D01*
X159921427Y-69280769D01*
X159840946Y-69200288D01*
X159819794Y-69172032D01*
X159812302Y-69158311D01*
X159797450Y-69090051D01*
X159797579Y-69088242D01*
X159816949Y-69030041D01*
X159821133Y-69023530D01*
X159837763Y-69002895D01*
X159930469Y-68910189D01*
X159930469Y-68910188D01*
X159930472Y-68910185D01*
X160018478Y-68764606D01*
X160069086Y-68602196D01*
X160075500Y-68531616D01*
X160075500Y-68018384D01*
X160069086Y-67947804D01*
X160018478Y-67785394D01*
X159930472Y-67639815D01*
X159930470Y-67639813D01*
X159930469Y-67639811D01*
X159810188Y-67519530D01*
X159810187Y-67519529D01*
X159775605Y-67498623D01*
X159748310Y-67476253D01*
X159735151Y-67461884D01*
X159705803Y-67406147D01*
X159703705Y-67397099D01*
X159700500Y-67369090D01*
X159700500Y-66820943D01*
X159700467Y-66820821D01*
X159686506Y-66768717D01*
X159673313Y-66719480D01*
X159659577Y-66668216D01*
X159627217Y-66612166D01*
X159580524Y-66531290D01*
X159580521Y-66531286D01*
X159580520Y-66531284D01*
X159468716Y-66419480D01*
X159468715Y-66419479D01*
X159464385Y-66415149D01*
X159463363Y-66414127D01*
X159463320Y-66414085D01*
X157847181Y-64797946D01*
X157826031Y-64769693D01*
X157810144Y-64740599D01*
X157797359Y-64705365D01*
X157789563Y-64666175D01*
X157787674Y-64630941D01*
X157788911Y-64617109D01*
X157814492Y-64552093D01*
X157871160Y-64511227D01*
X157881558Y-64507559D01*
X157922801Y-64500500D01*
X158411380Y-64500500D01*
X158411443Y-64500501D01*
X158413347Y-64500501D01*
X158420943Y-64500501D01*
X158579054Y-64500501D01*
X158579057Y-64500501D01*
X158731785Y-64459577D01*
X158798912Y-64420821D01*
X158868716Y-64380520D01*
X158980520Y-64268716D01*
X158980520Y-64268715D01*
X158997958Y-64251277D01*
X158997960Y-64251273D01*
X161452889Y-61796343D01*
X161475914Y-61783770D01*
X161486581Y-61772314D01*
X161505951Y-61767369D01*
X161514210Y-61762860D01*
X161521558Y-61763385D01*
X161554280Y-61755033D01*
X161620574Y-61777096D01*
G37*
%TD.AperFunction*%
%TD*%
M02*
