%TF.GenerationSoftware,KiCad,Pcbnew,10.0.0*%
%TF.CreationDate,2026-04-15T22:29:21+02:00*%
%TF.ProjectId,dongle,646f6e67-6c65-42e6-9b69-6361645f7063,rev?*%
%TF.SameCoordinates,Original*%
%TF.FileFunction,Copper,L3,Inr*%
%TF.FilePolarity,Positive*%
%FSLAX46Y46*%
G04 Gerber Fmt 4.6, Leading zero omitted, Abs format (unit mm)*
G04 Created by KiCad (PCBNEW 10.0.0) date 2026-04-15 22:29:21*
%MOMM*%
%LPD*%
G01*
G04 APERTURE LIST*
%TA.AperFunction,ViaPad*%
%ADD10C,0.600000*%
%TD*%
G04 APERTURE END LIST*
D10*
%TO.N,GND*%
X152600000Y-53200000D03*
X167600000Y-57400000D03*
X169800000Y-57400000D03*
X174900000Y-76400000D03*
X176700000Y-75100000D03*
X170400000Y-76500000D03*
X162000000Y-68600000D03*
X160300000Y-67200000D03*
X170900000Y-81300000D03*
X158000000Y-74100000D03*
X168000000Y-73000000D03*
X166200000Y-73300000D03*
X165500000Y-70500000D03*
X159300000Y-78100000D03*
X180700000Y-74400000D03*
X176200000Y-78300000D03*
X172800000Y-78300000D03*
X172800000Y-82700000D03*
X180700000Y-82700000D03*
X177900000Y-59300000D03*
X159900000Y-55700000D03*
X154400000Y-58400000D03*
X156000000Y-58400000D03*
X175000000Y-56100000D03*
%TO.N,Net-(J2-~{FULL_CARD_POWER_OFF})*%
X174000000Y-58900000D03*
%TO.N,GND*%
X154600000Y-70200000D03*
X173500000Y-74800000D03*
X169200000Y-74800000D03*
X175400000Y-66500000D03*
X171200000Y-51800000D03*
X169800000Y-51800000D03*
X168300000Y-51800000D03*
X166800000Y-51700000D03*
X165200000Y-51700000D03*
X163800000Y-51600000D03*
X159900000Y-53400000D03*
X165200000Y-63100000D03*
%TO.N,+3.3V*%
X174859620Y-51759620D03*
X175500000Y-51700000D03*
%TO.N,GND*%
X176800000Y-63200000D03*
X180600000Y-63100000D03*
X180600000Y-59300000D03*
X180600000Y-56200000D03*
X176800000Y-53200000D03*
X180600000Y-53200000D03*
%TO.N,+3.3V*%
X156400000Y-56617500D03*
X155000000Y-76400000D03*
X171800000Y-70000000D03*
X165100000Y-61700000D03*
X164900000Y-76100000D03*
X157375000Y-50800000D03*
X169700000Y-63300000D03*
%TO.N,GND*%
X156800000Y-80500000D03*
X152900000Y-63800000D03*
X155000000Y-78700000D03*
X154900000Y-56500000D03*
X156200000Y-76000000D03*
%TO.N,Net-(J2-~{W_DISABLE1})*%
X153627500Y-54900000D03*
%TO.N,/CE_2*%
X167100000Y-64700000D03*
%TO.N,Net-(U7-GPIO5{slash}TOUCH5{slash}ADC1_CH4)*%
X175200000Y-65000000D03*
X171200000Y-67100000D03*
%TO.N,Net-(U7-GPIO6{slash}TOUCH6{slash}ADC1_CH5)*%
X169712795Y-67122459D03*
X174500000Y-64400000D03*
%TO.N,Net-(U7-GPIO7{slash}TOUCH7{slash}ADC1_CH6)*%
X172300000Y-67400000D03*
X174500000Y-65600000D03*
%TO.N,/IRQ_1*%
X157000000Y-64800000D03*
%TO.N,/CE_1*%
X155800000Y-67200000D03*
%TO.N,/CSN_1*%
X157400000Y-67200000D03*
%TO.N,/IO0*%
X154400000Y-82100000D03*
X171700000Y-59400000D03*
%TO.N,/RX*%
X165000000Y-74750000D03*
%TO.N,/TX*%
X166300000Y-74750000D03*
%TO.N,/IRQ_2*%
X168400000Y-80500000D03*
%TO.N,/CSN_2*%
X169600000Y-82200000D03*
%TO.N,Net-(U4-TXD)*%
X162400000Y-61500000D03*
%TO.N,Net-(U4-RXD)*%
X164000000Y-61700000D03*
%TO.N,/SCK*%
X176080000Y-72062500D03*
X158380000Y-72100000D03*
%TO.N,/MOSI*%
X159650000Y-72100000D03*
X177400000Y-72000000D03*
%TO.N,/MISO*%
X160500000Y-73800000D03*
X178620000Y-72062500D03*
%TD*%
%TA.AperFunction,Conductor*%
%TO.N,+3.3V*%
G36*
X159667606Y-48705523D02*
G01*
X159682604Y-48709927D01*
X159741355Y-48747672D01*
X159742542Y-48749041D01*
X159762407Y-48792504D01*
X159765863Y-48791408D01*
X159768695Y-48800335D01*
X159770082Y-48809294D01*
X159771587Y-48812587D01*
X159771108Y-48815923D01*
X159774500Y-48837831D01*
X159774500Y-51634107D01*
X159774500Y-51634108D01*
X159774500Y-51700000D01*
X159774500Y-51801976D01*
X159811976Y-52002456D01*
X159822771Y-52030321D01*
X159854686Y-52112704D01*
X159885652Y-52192638D01*
X159885661Y-52192652D01*
X159993015Y-52366036D01*
X159993455Y-52366592D01*
X159994916Y-52368122D01*
X160004640Y-52378789D01*
X160024460Y-52407985D01*
X160025143Y-52409385D01*
X160029417Y-52418152D01*
X160041101Y-52487038D01*
X160013687Y-52551305D01*
X159955885Y-52590547D01*
X159946516Y-52593557D01*
X159908588Y-52599500D01*
X159821153Y-52599500D01*
X159666527Y-52630257D01*
X159666496Y-52630264D01*
X159520833Y-52690598D01*
X159520824Y-52690603D01*
X159520807Y-52690613D01*
X159389708Y-52778211D01*
X159389707Y-52778212D01*
X159389701Y-52778217D01*
X159278217Y-52889701D01*
X159278212Y-52889707D01*
X159278211Y-52889708D01*
X159190613Y-53020807D01*
X159190603Y-53020824D01*
X159190602Y-53020827D01*
X159190599Y-53020831D01*
X159130264Y-53166496D01*
X159130257Y-53166527D01*
X159099500Y-53321150D01*
X159099500Y-53321153D01*
X159099500Y-53478846D01*
X159099500Y-53478848D01*
X159099499Y-53478848D01*
X159130257Y-53633471D01*
X159130264Y-53633502D01*
X159190598Y-53779165D01*
X159190603Y-53779174D01*
X159190613Y-53779191D01*
X159278211Y-53910290D01*
X159278212Y-53910291D01*
X159278217Y-53910297D01*
X159389701Y-54021781D01*
X159389707Y-54021786D01*
X159389711Y-54021789D01*
X159520814Y-54109390D01*
X159520827Y-54109397D01*
X159666498Y-54169735D01*
X159666503Y-54169737D01*
X159821153Y-54200499D01*
X159821156Y-54200500D01*
X159821158Y-54200500D01*
X159978844Y-54200500D01*
X159978845Y-54200499D01*
X160133497Y-54169737D01*
X160279179Y-54109394D01*
X160410289Y-54021789D01*
X160521789Y-53910289D01*
X160609394Y-53779179D01*
X160669737Y-53633497D01*
X160700500Y-53478842D01*
X160700500Y-53321158D01*
X160700500Y-53321155D01*
X160700499Y-53321153D01*
X160669737Y-53166503D01*
X160650955Y-53121158D01*
X160609397Y-53020827D01*
X160609390Y-53020814D01*
X160592772Y-52995944D01*
X160577539Y-52964101D01*
X160573965Y-52952685D01*
X160572721Y-52882827D01*
X160609443Y-52823386D01*
X160670470Y-52793575D01*
X160680872Y-52791715D01*
X160714129Y-52790308D01*
X160834667Y-52801476D01*
X160834668Y-52801477D01*
X160838089Y-52801793D01*
X160874999Y-52805215D01*
X160875000Y-52805215D01*
X160875001Y-52805215D01*
X161052592Y-52788759D01*
X161078083Y-52786397D01*
X161274250Y-52730582D01*
X161456821Y-52639673D01*
X161619579Y-52516764D01*
X161634407Y-52500499D01*
X161636581Y-52498114D01*
X161662446Y-52469742D01*
X161662447Y-52469739D01*
X161662450Y-52469737D01*
X161756981Y-52366041D01*
X161864348Y-52192637D01*
X161938024Y-52002456D01*
X161975500Y-51801976D01*
X161975500Y-51700000D01*
X161975500Y-51678848D01*
X162999499Y-51678848D01*
X163030257Y-51833471D01*
X163030264Y-51833502D01*
X163090598Y-51979165D01*
X163090603Y-51979174D01*
X163090613Y-51979191D01*
X163178211Y-52110290D01*
X163178212Y-52110291D01*
X163178217Y-52110297D01*
X163289701Y-52221781D01*
X163289707Y-52221786D01*
X163289711Y-52221789D01*
X163420814Y-52309390D01*
X163420827Y-52309397D01*
X163420829Y-52309397D01*
X163420833Y-52309400D01*
X163557565Y-52366036D01*
X163557566Y-52366036D01*
X163562659Y-52368145D01*
X163566503Y-52369737D01*
X163566504Y-52369737D01*
X163566506Y-52369738D01*
X163678230Y-52391961D01*
X163713512Y-52398979D01*
X163716247Y-52399703D01*
X163721155Y-52400500D01*
X163878844Y-52400500D01*
X163882964Y-52400500D01*
X163890814Y-52398118D01*
X164033497Y-52369737D01*
X164177021Y-52310288D01*
X164179172Y-52309397D01*
X164179172Y-52309396D01*
X164179179Y-52309394D01*
X164179183Y-52309390D01*
X164181520Y-52308423D01*
X164181521Y-52308422D01*
X164181526Y-52308421D01*
X164190792Y-52304583D01*
X164199678Y-52295697D01*
X164310286Y-52221791D01*
X164310285Y-52221791D01*
X164310289Y-52221789D01*
X164356057Y-52176019D01*
X164384309Y-52154870D01*
X164396492Y-52148217D01*
X164464766Y-52133367D01*
X164530227Y-52157783D01*
X164539041Y-52164381D01*
X164567833Y-52194758D01*
X164576108Y-52207142D01*
X164578212Y-52210291D01*
X164689707Y-52321786D01*
X164689711Y-52321789D01*
X164820814Y-52409390D01*
X164820827Y-52409397D01*
X164930357Y-52454765D01*
X164966503Y-52469737D01*
X165079351Y-52492184D01*
X165113512Y-52498979D01*
X165116247Y-52499703D01*
X165121155Y-52500500D01*
X165278844Y-52500500D01*
X165282964Y-52500500D01*
X165290814Y-52498118D01*
X165433497Y-52469737D01*
X165549262Y-52421786D01*
X165579172Y-52409397D01*
X165579172Y-52409396D01*
X165579179Y-52409394D01*
X165579182Y-52409391D01*
X165581519Y-52408424D01*
X165581530Y-52408419D01*
X165590791Y-52404583D01*
X165599675Y-52395698D01*
X165710289Y-52321789D01*
X165821789Y-52210289D01*
X165886998Y-52112697D01*
X165910569Y-52086455D01*
X165921230Y-52077545D01*
X165985288Y-52049662D01*
X166054255Y-52060836D01*
X166054267Y-52060842D01*
X166058992Y-52063103D01*
X166108570Y-52106065D01*
X166120852Y-52124446D01*
X166178210Y-52210288D01*
X166178213Y-52210292D01*
X166178215Y-52210294D01*
X166178217Y-52210297D01*
X166289701Y-52321781D01*
X166289707Y-52321786D01*
X166289711Y-52321789D01*
X166420814Y-52409390D01*
X166420827Y-52409397D01*
X166530357Y-52454765D01*
X166566503Y-52469737D01*
X166679351Y-52492184D01*
X166713512Y-52498979D01*
X166716247Y-52499703D01*
X166721155Y-52500500D01*
X166878844Y-52500500D01*
X166882964Y-52500500D01*
X166890814Y-52498118D01*
X167033497Y-52469737D01*
X167149262Y-52421786D01*
X167179172Y-52409397D01*
X167179172Y-52409396D01*
X167179179Y-52409394D01*
X167179182Y-52409391D01*
X167181519Y-52408424D01*
X167181530Y-52408419D01*
X167190791Y-52404583D01*
X167199675Y-52395698D01*
X167310289Y-52321789D01*
X167359366Y-52272712D01*
X167410919Y-52221159D01*
X167428751Y-52206387D01*
X167446420Y-52194345D01*
X167512901Y-52172860D01*
X167580443Y-52190727D01*
X167586871Y-52194616D01*
X167625771Y-52231808D01*
X167678210Y-52310288D01*
X167678213Y-52310292D01*
X167678214Y-52310293D01*
X167678217Y-52310297D01*
X167789701Y-52421781D01*
X167789707Y-52421786D01*
X167789711Y-52421789D01*
X167920814Y-52509390D01*
X167920827Y-52509397D01*
X168066498Y-52569735D01*
X168066503Y-52569737D01*
X168215935Y-52599461D01*
X168221153Y-52600499D01*
X168221156Y-52600500D01*
X168221158Y-52600500D01*
X168378844Y-52600500D01*
X168378845Y-52600499D01*
X168533497Y-52569737D01*
X168679179Y-52509394D01*
X168810289Y-52421789D01*
X168866037Y-52366041D01*
X168921787Y-52310292D01*
X168921790Y-52310288D01*
X168929142Y-52299285D01*
X168929142Y-52299284D01*
X168934504Y-52291259D01*
X168936994Y-52287532D01*
X168960570Y-52261285D01*
X168971230Y-52252375D01*
X169035289Y-52224492D01*
X169104254Y-52235666D01*
X169108992Y-52237933D01*
X169158569Y-52280894D01*
X169178208Y-52310286D01*
X169178211Y-52310290D01*
X169178217Y-52310297D01*
X169289701Y-52421781D01*
X169289707Y-52421786D01*
X169289711Y-52421789D01*
X169420814Y-52509390D01*
X169420827Y-52509397D01*
X169566498Y-52569735D01*
X169566503Y-52569737D01*
X169715935Y-52599461D01*
X169721153Y-52600499D01*
X169721156Y-52600500D01*
X169721158Y-52600500D01*
X169878844Y-52600500D01*
X169878845Y-52600499D01*
X170033497Y-52569737D01*
X170179179Y-52509394D01*
X170310289Y-52421789D01*
X170340117Y-52391961D01*
X170399716Y-52332362D01*
X170399720Y-52332360D01*
X170427963Y-52311217D01*
X170441689Y-52303722D01*
X170459111Y-52299931D01*
X170461038Y-52298880D01*
X170463226Y-52299036D01*
X170509946Y-52288871D01*
X170511756Y-52289000D01*
X170569953Y-52308366D01*
X170576471Y-52312555D01*
X170597101Y-52329180D01*
X170689707Y-52421786D01*
X170689711Y-52421789D01*
X170820814Y-52509390D01*
X170820827Y-52509397D01*
X170966498Y-52569735D01*
X170966503Y-52569737D01*
X171115935Y-52599461D01*
X171121153Y-52600499D01*
X171121156Y-52600500D01*
X171121158Y-52600500D01*
X171278844Y-52600500D01*
X171278845Y-52600499D01*
X171433497Y-52569737D01*
X171579179Y-52509394D01*
X171710289Y-52421789D01*
X171821789Y-52310289D01*
X171909394Y-52179179D01*
X171915524Y-52164381D01*
X171937928Y-52110291D01*
X171969737Y-52033497D01*
X172000500Y-51878842D01*
X172000500Y-51721158D01*
X172000500Y-51721155D01*
X172000500Y-51720971D01*
X172000064Y-51718966D01*
X171996192Y-51699500D01*
X171983185Y-51634109D01*
X171969737Y-51566503D01*
X171928316Y-51466503D01*
X171909397Y-51420827D01*
X171909390Y-51420814D01*
X171821789Y-51289711D01*
X171821786Y-51289707D01*
X171821781Y-51289701D01*
X171710297Y-51178217D01*
X171710291Y-51178212D01*
X171710290Y-51178211D01*
X171579191Y-51090613D01*
X171579190Y-51090612D01*
X171579185Y-51090609D01*
X171579172Y-51090602D01*
X171579165Y-51090598D01*
X171433502Y-51030264D01*
X171433471Y-51030257D01*
X171278847Y-50999500D01*
X171278845Y-50999500D01*
X171278842Y-50999500D01*
X171121158Y-50999500D01*
X171121155Y-50999500D01*
X171121153Y-50999500D01*
X170966527Y-51030257D01*
X170966496Y-51030264D01*
X170820833Y-51090598D01*
X170820824Y-51090603D01*
X170820807Y-51090613D01*
X170689708Y-51178211D01*
X170689707Y-51178212D01*
X170689701Y-51178217D01*
X170600285Y-51267634D01*
X170572027Y-51288787D01*
X170558309Y-51296277D01*
X170490051Y-51311128D01*
X170488245Y-51310999D01*
X170430044Y-51291631D01*
X170423529Y-51287444D01*
X170402897Y-51270818D01*
X170310292Y-51178213D01*
X170310291Y-51178212D01*
X170310290Y-51178211D01*
X170179191Y-51090613D01*
X170179190Y-51090612D01*
X170179185Y-51090609D01*
X170179172Y-51090602D01*
X170179165Y-51090598D01*
X170033502Y-51030264D01*
X170033471Y-51030257D01*
X169878847Y-50999500D01*
X169878845Y-50999500D01*
X169878842Y-50999500D01*
X169721158Y-50999500D01*
X169721155Y-50999500D01*
X169721153Y-50999500D01*
X169566527Y-51030257D01*
X169566496Y-51030264D01*
X169420833Y-51090598D01*
X169420824Y-51090603D01*
X169420807Y-51090613D01*
X169289708Y-51178211D01*
X169289707Y-51178212D01*
X169289701Y-51178217D01*
X169178215Y-51289703D01*
X169163005Y-51312467D01*
X169139417Y-51338725D01*
X169128769Y-51347623D01*
X169064704Y-51375506D01*
X168995750Y-51364334D01*
X168991023Y-51362073D01*
X168941428Y-51319102D01*
X168924667Y-51294018D01*
X168921789Y-51289711D01*
X168921788Y-51289710D01*
X168921786Y-51289707D01*
X168921784Y-51289705D01*
X168921782Y-51289702D01*
X168810297Y-51178217D01*
X168810291Y-51178212D01*
X168810290Y-51178211D01*
X168679191Y-51090613D01*
X168679190Y-51090612D01*
X168679185Y-51090609D01*
X168679172Y-51090602D01*
X168679165Y-51090598D01*
X168533502Y-51030264D01*
X168533471Y-51030257D01*
X168378847Y-50999500D01*
X168378845Y-50999500D01*
X168378842Y-50999500D01*
X168221158Y-50999500D01*
X168221155Y-50999500D01*
X168221153Y-50999500D01*
X168066527Y-51030257D01*
X168066496Y-51030264D01*
X167920833Y-51090598D01*
X167920824Y-51090603D01*
X167920807Y-51090613D01*
X167789708Y-51178211D01*
X167789707Y-51178212D01*
X167789701Y-51178217D01*
X167689061Y-51278858D01*
X167671175Y-51293669D01*
X167653546Y-51305674D01*
X167587055Y-51327138D01*
X167519516Y-51309247D01*
X167513080Y-51305349D01*
X167474220Y-51268179D01*
X167421787Y-51189707D01*
X167310297Y-51078217D01*
X167310291Y-51078212D01*
X167310290Y-51078211D01*
X167179191Y-50990613D01*
X167179190Y-50990612D01*
X167179185Y-50990609D01*
X167179172Y-50990602D01*
X167179165Y-50990598D01*
X167033502Y-50930264D01*
X167033471Y-50930257D01*
X166878847Y-50899500D01*
X166878845Y-50899500D01*
X166878842Y-50899500D01*
X166721158Y-50899500D01*
X166721155Y-50899500D01*
X166721153Y-50899500D01*
X166566527Y-50930257D01*
X166566496Y-50930264D01*
X166420833Y-50990598D01*
X166420824Y-50990603D01*
X166420807Y-50990613D01*
X166289708Y-51078211D01*
X166289707Y-51078212D01*
X166289701Y-51078217D01*
X166178217Y-51189701D01*
X166178215Y-51189704D01*
X166113006Y-51287295D01*
X166089417Y-51313554D01*
X166088445Y-51314366D01*
X166078769Y-51322453D01*
X166014704Y-51350336D01*
X165945741Y-51339160D01*
X165941015Y-51336899D01*
X165891428Y-51293932D01*
X165890686Y-51292822D01*
X165821789Y-51189711D01*
X165821786Y-51189707D01*
X165821781Y-51189701D01*
X165710297Y-51078217D01*
X165710291Y-51078212D01*
X165710290Y-51078211D01*
X165579191Y-50990613D01*
X165579190Y-50990612D01*
X165579185Y-50990609D01*
X165579172Y-50990602D01*
X165579165Y-50990598D01*
X165433502Y-50930264D01*
X165433471Y-50930257D01*
X165278847Y-50899500D01*
X165278845Y-50899500D01*
X165278842Y-50899500D01*
X165121158Y-50899500D01*
X165121155Y-50899500D01*
X165121153Y-50899500D01*
X164966527Y-50930257D01*
X164966496Y-50930264D01*
X164820833Y-50990598D01*
X164820824Y-50990603D01*
X164820807Y-50990613D01*
X164689711Y-51078209D01*
X164689707Y-51078212D01*
X164643943Y-51123977D01*
X164615687Y-51145129D01*
X164603506Y-51151780D01*
X164535232Y-51166631D01*
X164469769Y-51142213D01*
X164469766Y-51142210D01*
X164460953Y-51135612D01*
X164432166Y-51105240D01*
X164422385Y-51090603D01*
X164421790Y-51089712D01*
X164421786Y-51089707D01*
X164421784Y-51089705D01*
X164421778Y-51089698D01*
X164310297Y-50978217D01*
X164310291Y-50978212D01*
X164310290Y-50978211D01*
X164179191Y-50890613D01*
X164179190Y-50890612D01*
X164179185Y-50890609D01*
X164179172Y-50890602D01*
X164179165Y-50890598D01*
X164033502Y-50830264D01*
X164033471Y-50830257D01*
X163878847Y-50799500D01*
X163878845Y-50799500D01*
X163878842Y-50799500D01*
X163721158Y-50799500D01*
X163721155Y-50799500D01*
X163721153Y-50799500D01*
X163566527Y-50830257D01*
X163566496Y-50830264D01*
X163420833Y-50890598D01*
X163420824Y-50890603D01*
X163420807Y-50890613D01*
X163289708Y-50978211D01*
X163289707Y-50978212D01*
X163289701Y-50978217D01*
X163178217Y-51089701D01*
X163178212Y-51089707D01*
X163178211Y-51089708D01*
X163090613Y-51220807D01*
X163090603Y-51220824D01*
X163090598Y-51220833D01*
X163030264Y-51366496D01*
X163030257Y-51366527D01*
X162999500Y-51521150D01*
X162999500Y-51521153D01*
X162999500Y-51678846D01*
X162999500Y-51678848D01*
X162999499Y-51678848D01*
X161975500Y-51678848D01*
X161975500Y-51634108D01*
X161975500Y-51634107D01*
X161975500Y-48842329D01*
X161980523Y-48807393D01*
X161984927Y-48792395D01*
X162022672Y-48733644D01*
X162024041Y-48732457D01*
X162078920Y-48704977D01*
X162086479Y-48703333D01*
X162112832Y-48700500D01*
X175782670Y-48700500D01*
X175817606Y-48705523D01*
X175832604Y-48709927D01*
X175891355Y-48747672D01*
X175892542Y-48749041D01*
X175920018Y-48803902D01*
X175921663Y-48811460D01*
X175924500Y-48837831D01*
X175924500Y-51787536D01*
X175950236Y-51933493D01*
X175950237Y-51933497D01*
X175954899Y-51959935D01*
X175954901Y-51959942D01*
X175961901Y-51979174D01*
X176000945Y-52086447D01*
X176005108Y-52097883D01*
X176014776Y-52124445D01*
X176014776Y-52124446D01*
X176064341Y-52210294D01*
X176102309Y-52276057D01*
X176131809Y-52311214D01*
X176214830Y-52410156D01*
X176214838Y-52410165D01*
X176229603Y-52422554D01*
X176253132Y-52448852D01*
X176261444Y-52461344D01*
X176282193Y-52528061D01*
X176265351Y-52592458D01*
X176259329Y-52602794D01*
X176239868Y-52628052D01*
X176178212Y-52689707D01*
X176178209Y-52689711D01*
X176090613Y-52820807D01*
X176090603Y-52820824D01*
X176090598Y-52820833D01*
X176030264Y-52966496D01*
X176030257Y-52966527D01*
X175999500Y-53121150D01*
X175999500Y-53121153D01*
X175999500Y-53278846D01*
X175999500Y-53278848D01*
X175999499Y-53278848D01*
X176030257Y-53433471D01*
X176030264Y-53433502D01*
X176090598Y-53579165D01*
X176090603Y-53579174D01*
X176090613Y-53579191D01*
X176178211Y-53710290D01*
X176178212Y-53710291D01*
X176178217Y-53710297D01*
X176289701Y-53821781D01*
X176289707Y-53821786D01*
X176289711Y-53821789D01*
X176420814Y-53909390D01*
X176420827Y-53909397D01*
X176566498Y-53969735D01*
X176566503Y-53969737D01*
X176696982Y-53995691D01*
X176713530Y-53998982D01*
X176716248Y-53999703D01*
X176721155Y-54000500D01*
X176878844Y-54000500D01*
X176882964Y-54000500D01*
X176890814Y-53998118D01*
X177033497Y-53969737D01*
X177177011Y-53910292D01*
X177179172Y-53909397D01*
X177179172Y-53909396D01*
X177179179Y-53909394D01*
X177310289Y-53821789D01*
X177421789Y-53710289D01*
X177509394Y-53579179D01*
X177569737Y-53433497D01*
X177600500Y-53278842D01*
X177600500Y-53121158D01*
X177600500Y-53121155D01*
X177600500Y-53120971D01*
X177600064Y-53118966D01*
X177580543Y-53020827D01*
X177575594Y-52995947D01*
X177569737Y-52966503D01*
X177537394Y-52888421D01*
X177528666Y-52854221D01*
X177527183Y-52840422D01*
X177539591Y-52771663D01*
X177587204Y-52720528D01*
X177591721Y-52717847D01*
X177654978Y-52700500D01*
X179737036Y-52700500D01*
X179771968Y-52705521D01*
X179785287Y-52709432D01*
X179844065Y-52747206D01*
X179873091Y-52810761D01*
X179873092Y-52810771D01*
X179873837Y-52815955D01*
X179865660Y-52881046D01*
X179862071Y-52889711D01*
X179830266Y-52966496D01*
X179830262Y-52966505D01*
X179830257Y-52966527D01*
X179799500Y-53121150D01*
X179799500Y-53121153D01*
X179799500Y-53278846D01*
X179799500Y-53278848D01*
X179799499Y-53278848D01*
X179830257Y-53433471D01*
X179830264Y-53433502D01*
X179890598Y-53579165D01*
X179890603Y-53579174D01*
X179890613Y-53579191D01*
X179978211Y-53710290D01*
X179978212Y-53710291D01*
X179978217Y-53710297D01*
X180089701Y-53821781D01*
X180089707Y-53821786D01*
X180089711Y-53821789D01*
X180220814Y-53909390D01*
X180220827Y-53909397D01*
X180366498Y-53969735D01*
X180366503Y-53969737D01*
X180496982Y-53995691D01*
X180513530Y-53998982D01*
X180516248Y-53999703D01*
X180521155Y-54000500D01*
X180678844Y-54000500D01*
X180682965Y-54000500D01*
X180690820Y-53998116D01*
X180809207Y-53974568D01*
X180819971Y-53972915D01*
X180840157Y-53970718D01*
X180840158Y-53970720D01*
X180859426Y-53968623D01*
X180928197Y-53980942D01*
X180979394Y-54028487D01*
X180982061Y-54032969D01*
X180999500Y-54096378D01*
X180999500Y-55295614D01*
X180994475Y-55330555D01*
X180990564Y-55343872D01*
X180952787Y-55402648D01*
X180889229Y-55431670D01*
X180883287Y-55432524D01*
X180833052Y-55429424D01*
X180813384Y-55424065D01*
X180810727Y-55424659D01*
X180794703Y-55422545D01*
X180678848Y-55399500D01*
X180678845Y-55399500D01*
X180678842Y-55399500D01*
X180521158Y-55399500D01*
X180521155Y-55399500D01*
X180521153Y-55399500D01*
X180366527Y-55430257D01*
X180366496Y-55430264D01*
X180220833Y-55490598D01*
X180220824Y-55490603D01*
X180220807Y-55490613D01*
X180089708Y-55578211D01*
X180089707Y-55578212D01*
X180089701Y-55578217D01*
X179978217Y-55689701D01*
X179978212Y-55689707D01*
X179978211Y-55689708D01*
X179890613Y-55820807D01*
X179890603Y-55820824D01*
X179890598Y-55820833D01*
X179830264Y-55966496D01*
X179830257Y-55966527D01*
X179799500Y-56121150D01*
X179799500Y-56121153D01*
X179799500Y-56278846D01*
X179799500Y-56278848D01*
X179799499Y-56278848D01*
X179830257Y-56433471D01*
X179830264Y-56433502D01*
X179890598Y-56579165D01*
X179890603Y-56579174D01*
X179890613Y-56579191D01*
X179978211Y-56710290D01*
X179978212Y-56710291D01*
X179978217Y-56710297D01*
X180089701Y-56821781D01*
X180089707Y-56821786D01*
X180089711Y-56821789D01*
X180220814Y-56909390D01*
X180220827Y-56909397D01*
X180366498Y-56969735D01*
X180366503Y-56969737D01*
X180496982Y-56995691D01*
X180513530Y-56998982D01*
X180516248Y-56999703D01*
X180521155Y-57000500D01*
X180678844Y-57000500D01*
X180682965Y-57000500D01*
X180690820Y-56998116D01*
X180809207Y-56974568D01*
X180819971Y-56972915D01*
X180840157Y-56970718D01*
X180840158Y-56970720D01*
X180859426Y-56968623D01*
X180928197Y-56980942D01*
X180979394Y-57028487D01*
X180982061Y-57032969D01*
X180999500Y-57096378D01*
X180999500Y-58395614D01*
X180994475Y-58430555D01*
X180990564Y-58443872D01*
X180952787Y-58502648D01*
X180889229Y-58531670D01*
X180883287Y-58532524D01*
X180833052Y-58529424D01*
X180813384Y-58524065D01*
X180810727Y-58524659D01*
X180794703Y-58522545D01*
X180678848Y-58499500D01*
X180678845Y-58499500D01*
X180678842Y-58499500D01*
X180521158Y-58499500D01*
X180521155Y-58499500D01*
X180521153Y-58499500D01*
X180366527Y-58530257D01*
X180366496Y-58530264D01*
X180220833Y-58590598D01*
X180220824Y-58590603D01*
X180220807Y-58590613D01*
X180089708Y-58678211D01*
X180089707Y-58678212D01*
X180089701Y-58678217D01*
X179978217Y-58789701D01*
X179978212Y-58789707D01*
X179978211Y-58789708D01*
X179890613Y-58920807D01*
X179890603Y-58920824D01*
X179890598Y-58920833D01*
X179830264Y-59066496D01*
X179830257Y-59066527D01*
X179799500Y-59221150D01*
X179799500Y-59221153D01*
X179799500Y-59378846D01*
X179799500Y-59378848D01*
X179799499Y-59378848D01*
X179830257Y-59533471D01*
X179830264Y-59533502D01*
X179890598Y-59679165D01*
X179890603Y-59679174D01*
X179890613Y-59679191D01*
X179978211Y-59810290D01*
X179978212Y-59810291D01*
X179978217Y-59810297D01*
X180089701Y-59921781D01*
X180089707Y-59921786D01*
X180089711Y-59921789D01*
X180220814Y-60009390D01*
X180220827Y-60009397D01*
X180366498Y-60069735D01*
X180366503Y-60069737D01*
X180496982Y-60095691D01*
X180513530Y-60098982D01*
X180516248Y-60099703D01*
X180521155Y-60100500D01*
X180678844Y-60100500D01*
X180682965Y-60100500D01*
X180690820Y-60098116D01*
X180809207Y-60074568D01*
X180819971Y-60072915D01*
X180840157Y-60070718D01*
X180840158Y-60070720D01*
X180859426Y-60068623D01*
X180928197Y-60080942D01*
X180979394Y-60128487D01*
X180982061Y-60132969D01*
X180999500Y-60196378D01*
X180999500Y-62195614D01*
X180994475Y-62230555D01*
X180990564Y-62243872D01*
X180952787Y-62302648D01*
X180889229Y-62331670D01*
X180883287Y-62332524D01*
X180833052Y-62329424D01*
X180813384Y-62324065D01*
X180810727Y-62324659D01*
X180794703Y-62322545D01*
X180678848Y-62299500D01*
X180678845Y-62299500D01*
X180678842Y-62299500D01*
X180521158Y-62299500D01*
X180521155Y-62299500D01*
X180521153Y-62299500D01*
X180366527Y-62330257D01*
X180366496Y-62330264D01*
X180220833Y-62390598D01*
X180220824Y-62390603D01*
X180220807Y-62390613D01*
X180089708Y-62478211D01*
X180089707Y-62478212D01*
X180089701Y-62478217D01*
X179978217Y-62589701D01*
X179978212Y-62589707D01*
X179978211Y-62589708D01*
X179890613Y-62720807D01*
X179890603Y-62720824D01*
X179890598Y-62720833D01*
X179830264Y-62866496D01*
X179830257Y-62866527D01*
X179799500Y-63021150D01*
X179799500Y-63021153D01*
X179799500Y-63178846D01*
X179799500Y-63178848D01*
X179799499Y-63178848D01*
X179830257Y-63333471D01*
X179830264Y-63333502D01*
X179890598Y-63479165D01*
X179890603Y-63479174D01*
X179890610Y-63479186D01*
X179978211Y-63610290D01*
X179978212Y-63610291D01*
X179978217Y-63610297D01*
X180089701Y-63721781D01*
X180089707Y-63721786D01*
X180089711Y-63721789D01*
X180220814Y-63809390D01*
X180220827Y-63809397D01*
X180366498Y-63869735D01*
X180366503Y-63869737D01*
X180496982Y-63895691D01*
X180513530Y-63898982D01*
X180516248Y-63899703D01*
X180521155Y-63900500D01*
X180678844Y-63900500D01*
X180682965Y-63900500D01*
X180690820Y-63898116D01*
X180809207Y-63874568D01*
X180819971Y-63872915D01*
X180840157Y-63870718D01*
X180840158Y-63870720D01*
X180859426Y-63868623D01*
X180928197Y-63880942D01*
X180979394Y-63928487D01*
X180982061Y-63932969D01*
X180999500Y-63996378D01*
X180999500Y-73474467D01*
X180994475Y-73509408D01*
X180990564Y-73522725D01*
X180952787Y-73581501D01*
X180889237Y-73610522D01*
X180878339Y-73612089D01*
X180836499Y-73610968D01*
X180778847Y-73599500D01*
X180778845Y-73599500D01*
X180778842Y-73599500D01*
X180621158Y-73599500D01*
X180621155Y-73599500D01*
X180621153Y-73599500D01*
X180466527Y-73630257D01*
X180466496Y-73630264D01*
X180320833Y-73690598D01*
X180320824Y-73690603D01*
X180320807Y-73690613D01*
X180189708Y-73778211D01*
X180189707Y-73778212D01*
X180189701Y-73778217D01*
X180078217Y-73889701D01*
X180078212Y-73889707D01*
X180078211Y-73889708D01*
X179990613Y-74020807D01*
X179990603Y-74020824D01*
X179990598Y-74020833D01*
X179930264Y-74166496D01*
X179930257Y-74166527D01*
X179899500Y-74321150D01*
X179899500Y-74321153D01*
X179899500Y-74478846D01*
X179899500Y-74478848D01*
X179899499Y-74478848D01*
X179930257Y-74633471D01*
X179930264Y-74633502D01*
X179990598Y-74779165D01*
X179990603Y-74779174D01*
X179990613Y-74779191D01*
X180078211Y-74910290D01*
X180078212Y-74910291D01*
X180078217Y-74910297D01*
X180189701Y-75021781D01*
X180189707Y-75021786D01*
X180189711Y-75021789D01*
X180320814Y-75109390D01*
X180320827Y-75109397D01*
X180466498Y-75169735D01*
X180466503Y-75169737D01*
X180616131Y-75199500D01*
X180621153Y-75200499D01*
X180621156Y-75200500D01*
X180621158Y-75200500D01*
X180778843Y-75200500D01*
X180794564Y-75197372D01*
X180833831Y-75189561D01*
X180869057Y-75187673D01*
X180882889Y-75188910D01*
X180947906Y-75214491D01*
X180988771Y-75271156D01*
X180992434Y-75281540D01*
X180999500Y-75322798D01*
X180999500Y-81774467D01*
X180994475Y-81809408D01*
X180990564Y-81822725D01*
X180952787Y-81881501D01*
X180889237Y-81910522D01*
X180878339Y-81912089D01*
X180836499Y-81910968D01*
X180778847Y-81899500D01*
X180778845Y-81899500D01*
X180778842Y-81899500D01*
X180621158Y-81899500D01*
X180621155Y-81899500D01*
X180621153Y-81899500D01*
X180466527Y-81930257D01*
X180466496Y-81930264D01*
X180320833Y-81990598D01*
X180320824Y-81990603D01*
X180320807Y-81990613D01*
X180189708Y-82078211D01*
X180189707Y-82078212D01*
X180189701Y-82078217D01*
X180078217Y-82189701D01*
X180078212Y-82189707D01*
X180078211Y-82189708D01*
X179990613Y-82320807D01*
X179990603Y-82320824D01*
X179990598Y-82320833D01*
X179930264Y-82466496D01*
X179930257Y-82466527D01*
X179899500Y-82621150D01*
X179899500Y-82621153D01*
X179899500Y-82778846D01*
X179899500Y-82778848D01*
X179899499Y-82778848D01*
X179930257Y-82933471D01*
X179930264Y-82933502D01*
X179990598Y-83079165D01*
X179990603Y-83079174D01*
X179990613Y-83079191D01*
X180078211Y-83210290D01*
X180078212Y-83210291D01*
X180078217Y-83210297D01*
X180189701Y-83321781D01*
X180189707Y-83321786D01*
X180189711Y-83321789D01*
X180251378Y-83362994D01*
X180291983Y-83407903D01*
X180297247Y-83417808D01*
X180297209Y-83417827D01*
X180303422Y-83425258D01*
X180312145Y-83494581D01*
X180282003Y-83557615D01*
X180254926Y-83580253D01*
X180252939Y-83581481D01*
X180187750Y-83600000D01*
X173320521Y-83600000D01*
X173285586Y-83594977D01*
X173274732Y-83591790D01*
X173215954Y-83554016D01*
X173186929Y-83490460D01*
X173196872Y-83421303D01*
X173197853Y-83419156D01*
X173241742Y-83367590D01*
X173270813Y-83348165D01*
X173310289Y-83321789D01*
X173421789Y-83210289D01*
X173509394Y-83079179D01*
X173569737Y-82933497D01*
X173600500Y-82778842D01*
X173600500Y-82621158D01*
X173600500Y-82621155D01*
X173600500Y-82620972D01*
X173600065Y-82618972D01*
X173592152Y-82579191D01*
X173592148Y-82579172D01*
X173569737Y-82466503D01*
X173556062Y-82433489D01*
X173509397Y-82320827D01*
X173509390Y-82320814D01*
X173421789Y-82189711D01*
X173421786Y-82189707D01*
X173421781Y-82189701D01*
X173310297Y-82078217D01*
X173310291Y-82078212D01*
X173310290Y-82078211D01*
X173179191Y-81990613D01*
X173179190Y-81990612D01*
X173179185Y-81990609D01*
X173179172Y-81990602D01*
X173179165Y-81990598D01*
X173033502Y-81930264D01*
X173033471Y-81930257D01*
X172878847Y-81899500D01*
X172878845Y-81899500D01*
X172878842Y-81899500D01*
X172721158Y-81899500D01*
X172721155Y-81899500D01*
X172721153Y-81899500D01*
X172566527Y-81930257D01*
X172566496Y-81930264D01*
X172420833Y-81990598D01*
X172420824Y-81990603D01*
X172420807Y-81990613D01*
X172289708Y-82078211D01*
X172289707Y-82078212D01*
X172289701Y-82078217D01*
X172178217Y-82189701D01*
X172178212Y-82189707D01*
X172178211Y-82189708D01*
X172090613Y-82320807D01*
X172090603Y-82320824D01*
X172090598Y-82320833D01*
X172030264Y-82466496D01*
X172030257Y-82466527D01*
X171999500Y-82621150D01*
X171999500Y-82621153D01*
X171999500Y-82778846D01*
X171999500Y-82778848D01*
X171999499Y-82778848D01*
X172030257Y-82933471D01*
X172030264Y-82933502D01*
X172090598Y-83079165D01*
X172090603Y-83079174D01*
X172090613Y-83079191D01*
X172178211Y-83210290D01*
X172178212Y-83210291D01*
X172178217Y-83210297D01*
X172289701Y-83321781D01*
X172289707Y-83321786D01*
X172289711Y-83321789D01*
X172351378Y-83362994D01*
X172391983Y-83407903D01*
X172397247Y-83417808D01*
X172397209Y-83417827D01*
X172403422Y-83425258D01*
X172412145Y-83494581D01*
X172382003Y-83557615D01*
X172354926Y-83580253D01*
X172352939Y-83581481D01*
X172287750Y-83600000D01*
X152142330Y-83600000D01*
X152107389Y-83594975D01*
X152092390Y-83590570D01*
X152033644Y-83552827D01*
X152032457Y-83551458D01*
X152004977Y-83496583D01*
X152003332Y-83489021D01*
X152000500Y-83462668D01*
X152000500Y-82178848D01*
X153599499Y-82178848D01*
X153630257Y-82333471D01*
X153630264Y-82333502D01*
X153690598Y-82479165D01*
X153690603Y-82479174D01*
X153690613Y-82479191D01*
X153778211Y-82610290D01*
X153778212Y-82610291D01*
X153778217Y-82610297D01*
X153889701Y-82721781D01*
X153889707Y-82721786D01*
X153889711Y-82721789D01*
X154020814Y-82809390D01*
X154020827Y-82809397D01*
X154166498Y-82869735D01*
X154166503Y-82869737D01*
X154321153Y-82900499D01*
X154321156Y-82900500D01*
X154321158Y-82900500D01*
X154478844Y-82900500D01*
X154478845Y-82900499D01*
X154633497Y-82869737D01*
X154779179Y-82809394D01*
X154910289Y-82721789D01*
X155021789Y-82610289D01*
X155109394Y-82479179D01*
X155169737Y-82333497D01*
X155180607Y-82278848D01*
X168799499Y-82278848D01*
X168830257Y-82433471D01*
X168830261Y-82433488D01*
X168830263Y-82433500D01*
X168890598Y-82579165D01*
X168890601Y-82579170D01*
X168890602Y-82579172D01*
X168890609Y-82579185D01*
X168890612Y-82579190D01*
X168890613Y-82579191D01*
X168978211Y-82710290D01*
X168978212Y-82710291D01*
X168978217Y-82710297D01*
X169089701Y-82821781D01*
X169089707Y-82821786D01*
X169089711Y-82821789D01*
X169220814Y-82909390D01*
X169220827Y-82909397D01*
X169366498Y-82969735D01*
X169366503Y-82969737D01*
X169521153Y-83000499D01*
X169521156Y-83000500D01*
X169521158Y-83000500D01*
X169678844Y-83000500D01*
X169678845Y-83000499D01*
X169833497Y-82969737D01*
X169979179Y-82909394D01*
X170110289Y-82821789D01*
X170221789Y-82710289D01*
X170309394Y-82579179D01*
X170309395Y-82579175D01*
X170309398Y-82579171D01*
X170356063Y-82466510D01*
X170369737Y-82433497D01*
X170400500Y-82278842D01*
X170400500Y-82162963D01*
X170405522Y-82128030D01*
X170409433Y-82114711D01*
X170447206Y-82055934D01*
X170510758Y-82026909D01*
X170515955Y-82026162D01*
X170581046Y-82034339D01*
X170666503Y-82069737D01*
X170821153Y-82100499D01*
X170821156Y-82100500D01*
X170821158Y-82100500D01*
X170978844Y-82100500D01*
X170978845Y-82100499D01*
X171133497Y-82069737D01*
X171279179Y-82009394D01*
X171343334Y-81966527D01*
X171410291Y-81921788D01*
X171410292Y-81921786D01*
X171521786Y-81810292D01*
X171521789Y-81810289D01*
X171609394Y-81679179D01*
X171669737Y-81533497D01*
X171700500Y-81378842D01*
X171700500Y-81221158D01*
X171700500Y-81221155D01*
X171700500Y-81220973D01*
X171700065Y-81218971D01*
X171680734Y-81121788D01*
X171680733Y-81121787D01*
X171669737Y-81066503D01*
X171646454Y-81010292D01*
X171646452Y-81010287D01*
X171609402Y-80920840D01*
X171609399Y-80920833D01*
X171609397Y-80920827D01*
X171609390Y-80920814D01*
X171521789Y-80789711D01*
X171521786Y-80789707D01*
X171521781Y-80789701D01*
X171410297Y-80678217D01*
X171410291Y-80678212D01*
X171410290Y-80678211D01*
X171279191Y-80590613D01*
X171279190Y-80590612D01*
X171279185Y-80590609D01*
X171279172Y-80590602D01*
X171279165Y-80590598D01*
X171133502Y-80530264D01*
X171133471Y-80530257D01*
X170978847Y-80499500D01*
X170978845Y-80499500D01*
X170978842Y-80499500D01*
X170821158Y-80499500D01*
X170821155Y-80499500D01*
X170821153Y-80499500D01*
X170666527Y-80530257D01*
X170666496Y-80530264D01*
X170520833Y-80590598D01*
X170520824Y-80590603D01*
X170520807Y-80590613D01*
X170389708Y-80678211D01*
X170389707Y-80678212D01*
X170389701Y-80678217D01*
X170278217Y-80789701D01*
X170278212Y-80789707D01*
X170278211Y-80789708D01*
X170190613Y-80920807D01*
X170190603Y-80920824D01*
X170190598Y-80920833D01*
X170130264Y-81066496D01*
X170130257Y-81066527D01*
X170099500Y-81221150D01*
X170099500Y-81337035D01*
X170094475Y-81371976D01*
X170090564Y-81385293D01*
X170052787Y-81444069D01*
X169989229Y-81473091D01*
X169989225Y-81473091D01*
X169984040Y-81473836D01*
X169918953Y-81465659D01*
X169833492Y-81430261D01*
X169833493Y-81430261D01*
X169833478Y-81430257D01*
X169678848Y-81399500D01*
X169678845Y-81399500D01*
X169678842Y-81399500D01*
X169521158Y-81399500D01*
X169521155Y-81399500D01*
X169521153Y-81399500D01*
X169366527Y-81430257D01*
X169366496Y-81430264D01*
X169220833Y-81490598D01*
X169220824Y-81490603D01*
X169220807Y-81490613D01*
X169089708Y-81578211D01*
X169089707Y-81578212D01*
X169089701Y-81578217D01*
X168978217Y-81689701D01*
X168978212Y-81689707D01*
X168978211Y-81689708D01*
X168890613Y-81820807D01*
X168890603Y-81820824D01*
X168890598Y-81820833D01*
X168830264Y-81966496D01*
X168830257Y-81966527D01*
X168799500Y-82121150D01*
X168799500Y-82121153D01*
X168799500Y-82278846D01*
X168799500Y-82278848D01*
X168799499Y-82278848D01*
X155180607Y-82278848D01*
X155200500Y-82178842D01*
X155200500Y-82021158D01*
X155200500Y-82021155D01*
X155200499Y-82021153D01*
X155182419Y-81930261D01*
X155180734Y-81921788D01*
X155180733Y-81921787D01*
X155169737Y-81866503D01*
X155139000Y-81792297D01*
X155109397Y-81720827D01*
X155109390Y-81720814D01*
X155021789Y-81589711D01*
X155021786Y-81589707D01*
X155021781Y-81589701D01*
X154910297Y-81478217D01*
X154910291Y-81478212D01*
X154910290Y-81478211D01*
X154779191Y-81390613D01*
X154779190Y-81390612D01*
X154779185Y-81390609D01*
X154779172Y-81390602D01*
X154779165Y-81390598D01*
X154633502Y-81330264D01*
X154633471Y-81330257D01*
X154478847Y-81299500D01*
X154478845Y-81299500D01*
X154478842Y-81299500D01*
X154321158Y-81299500D01*
X154321155Y-81299500D01*
X154321153Y-81299500D01*
X154166527Y-81330257D01*
X154166496Y-81330264D01*
X154020833Y-81390598D01*
X154020824Y-81390603D01*
X154020807Y-81390613D01*
X153889708Y-81478211D01*
X153889707Y-81478212D01*
X153889701Y-81478217D01*
X153778217Y-81589701D01*
X153778212Y-81589707D01*
X153778211Y-81589708D01*
X153690613Y-81720807D01*
X153690603Y-81720824D01*
X153690598Y-81720833D01*
X153630264Y-81866496D01*
X153630257Y-81866527D01*
X153599500Y-82021150D01*
X153599500Y-82021153D01*
X153599500Y-82178846D01*
X153599500Y-82178848D01*
X153599499Y-82178848D01*
X152000500Y-82178848D01*
X152000500Y-80578848D01*
X155999499Y-80578848D01*
X156030257Y-80733471D01*
X156030264Y-80733502D01*
X156090598Y-80879165D01*
X156090603Y-80879174D01*
X156090613Y-80879191D01*
X156178209Y-81010287D01*
X156178212Y-81010291D01*
X156178217Y-81010297D01*
X156289701Y-81121781D01*
X156289707Y-81121786D01*
X156289708Y-81121787D01*
X156289711Y-81121789D01*
X156420814Y-81209390D01*
X156420827Y-81209397D01*
X156566498Y-81269735D01*
X156566503Y-81269737D01*
X156716131Y-81299500D01*
X156721153Y-81300499D01*
X156721156Y-81300500D01*
X156721158Y-81300500D01*
X156878844Y-81300500D01*
X156878845Y-81300499D01*
X157033497Y-81269737D01*
X157179179Y-81209394D01*
X157179192Y-81209385D01*
X157310291Y-81121788D01*
X157310292Y-81121786D01*
X157421791Y-81010287D01*
X157509390Y-80879185D01*
X157509390Y-80879184D01*
X157509394Y-80879179D01*
X157569737Y-80733497D01*
X157600499Y-80578848D01*
X167599499Y-80578848D01*
X167630257Y-80733471D01*
X167630264Y-80733502D01*
X167690598Y-80879165D01*
X167690603Y-80879174D01*
X167690613Y-80879191D01*
X167778209Y-81010287D01*
X167778212Y-81010291D01*
X167778217Y-81010297D01*
X167889701Y-81121781D01*
X167889707Y-81121786D01*
X167889708Y-81121787D01*
X167889711Y-81121789D01*
X168020814Y-81209390D01*
X168020827Y-81209397D01*
X168166498Y-81269735D01*
X168166503Y-81269737D01*
X168316131Y-81299500D01*
X168321153Y-81300499D01*
X168321156Y-81300500D01*
X168321158Y-81300500D01*
X168478844Y-81300500D01*
X168478845Y-81300499D01*
X168633497Y-81269737D01*
X168779179Y-81209394D01*
X168779192Y-81209385D01*
X168910291Y-81121788D01*
X168910292Y-81121786D01*
X169021791Y-81010287D01*
X169109390Y-80879185D01*
X169109390Y-80879184D01*
X169109394Y-80879179D01*
X169169737Y-80733497D01*
X169200500Y-80578842D01*
X169200500Y-80421158D01*
X169200500Y-80421155D01*
X169200500Y-80420973D01*
X169200065Y-80418972D01*
X169170397Y-80269824D01*
X169169994Y-80267467D01*
X169169738Y-80266508D01*
X169169737Y-80266506D01*
X169169737Y-80266503D01*
X169169735Y-80266498D01*
X169109397Y-80120827D01*
X169109390Y-80120814D01*
X169021789Y-79989711D01*
X169021786Y-79989707D01*
X169021781Y-79989701D01*
X168910297Y-79878217D01*
X168910291Y-79878212D01*
X168910290Y-79878211D01*
X168779191Y-79790613D01*
X168779190Y-79790612D01*
X168779185Y-79790609D01*
X168779172Y-79790602D01*
X168779165Y-79790598D01*
X168633502Y-79730264D01*
X168633471Y-79730257D01*
X168478847Y-79699500D01*
X168478845Y-79699500D01*
X168478842Y-79699500D01*
X168321158Y-79699500D01*
X168321155Y-79699500D01*
X168321153Y-79699500D01*
X168166527Y-79730257D01*
X168166496Y-79730264D01*
X168020833Y-79790598D01*
X168020824Y-79790603D01*
X168020807Y-79790613D01*
X167889708Y-79878211D01*
X167889707Y-79878212D01*
X167889701Y-79878217D01*
X167778217Y-79989701D01*
X167778212Y-79989707D01*
X167778211Y-79989708D01*
X167690613Y-80120807D01*
X167690603Y-80120824D01*
X167690598Y-80120833D01*
X167630264Y-80266496D01*
X167630257Y-80266527D01*
X167599500Y-80421150D01*
X167599500Y-80421153D01*
X167599500Y-80578846D01*
X167599500Y-80578848D01*
X167599499Y-80578848D01*
X157600499Y-80578848D01*
X157600500Y-80578842D01*
X157600500Y-80421158D01*
X157600500Y-80421155D01*
X157600499Y-80421153D01*
X157570395Y-80269816D01*
X157569994Y-80267467D01*
X157569738Y-80266508D01*
X157569737Y-80266506D01*
X157569737Y-80266503D01*
X157569735Y-80266498D01*
X157509397Y-80120827D01*
X157509390Y-80120814D01*
X157421789Y-79989711D01*
X157421786Y-79989707D01*
X157421781Y-79989701D01*
X157310297Y-79878217D01*
X157310291Y-79878212D01*
X157310290Y-79878211D01*
X157179191Y-79790613D01*
X157179190Y-79790612D01*
X157179185Y-79790609D01*
X157179172Y-79790602D01*
X157179165Y-79790598D01*
X157033502Y-79730264D01*
X157033471Y-79730257D01*
X156878847Y-79699500D01*
X156878845Y-79699500D01*
X156878842Y-79699500D01*
X156721158Y-79699500D01*
X156721155Y-79699500D01*
X156721153Y-79699500D01*
X156566527Y-79730257D01*
X156566496Y-79730264D01*
X156420833Y-79790598D01*
X156420824Y-79790603D01*
X156420807Y-79790613D01*
X156289708Y-79878211D01*
X156289707Y-79878212D01*
X156289701Y-79878217D01*
X156178217Y-79989701D01*
X156178212Y-79989707D01*
X156178211Y-79989708D01*
X156090613Y-80120807D01*
X156090603Y-80120824D01*
X156090598Y-80120833D01*
X156030264Y-80266496D01*
X156030257Y-80266527D01*
X155999500Y-80421150D01*
X155999500Y-80421153D01*
X155999500Y-80578846D01*
X155999500Y-80578848D01*
X155999499Y-80578848D01*
X152000500Y-80578848D01*
X152000500Y-78778848D01*
X154199499Y-78778848D01*
X154230257Y-78933471D01*
X154230264Y-78933502D01*
X154290598Y-79079165D01*
X154290603Y-79079174D01*
X154290613Y-79079191D01*
X154378211Y-79210290D01*
X154378212Y-79210291D01*
X154378217Y-79210297D01*
X154489701Y-79321781D01*
X154489707Y-79321786D01*
X154489711Y-79321789D01*
X154620814Y-79409390D01*
X154620827Y-79409397D01*
X154766498Y-79469735D01*
X154766503Y-79469737D01*
X154921153Y-79500499D01*
X154921156Y-79500500D01*
X154921158Y-79500500D01*
X155078844Y-79500500D01*
X155078845Y-79500499D01*
X155233497Y-79469737D01*
X155379179Y-79409394D01*
X155510289Y-79321789D01*
X155621789Y-79210289D01*
X155709394Y-79079179D01*
X155769737Y-78933497D01*
X155800500Y-78778842D01*
X155800500Y-78621158D01*
X155800500Y-78621155D01*
X155800500Y-78620973D01*
X155800065Y-78618972D01*
X155798339Y-78610297D01*
X155783061Y-78533489D01*
X155769737Y-78466503D01*
X155733427Y-78378842D01*
X155709397Y-78320827D01*
X155709390Y-78320814D01*
X155621789Y-78189711D01*
X155621786Y-78189707D01*
X155621781Y-78189701D01*
X155610928Y-78178848D01*
X158499499Y-78178848D01*
X158530257Y-78333471D01*
X158530264Y-78333502D01*
X158590598Y-78479165D01*
X158590603Y-78479174D01*
X158590613Y-78479191D01*
X158678211Y-78610290D01*
X158678212Y-78610291D01*
X158678217Y-78610297D01*
X158789701Y-78721781D01*
X158789707Y-78721786D01*
X158789711Y-78721789D01*
X158920814Y-78809390D01*
X158920827Y-78809397D01*
X159066498Y-78869735D01*
X159066503Y-78869737D01*
X159221153Y-78900499D01*
X159221156Y-78900500D01*
X159221158Y-78900500D01*
X159378844Y-78900500D01*
X159378845Y-78900499D01*
X159533497Y-78869737D01*
X159677011Y-78810292D01*
X159679172Y-78809397D01*
X159679172Y-78809396D01*
X159679179Y-78809394D01*
X159810289Y-78721789D01*
X159921789Y-78610289D01*
X160009394Y-78479179D01*
X160069737Y-78333497D01*
X160092083Y-78221158D01*
X160092085Y-78221150D01*
X171999500Y-78221150D01*
X171999500Y-78378848D01*
X172030257Y-78533471D01*
X172030261Y-78533489D01*
X172030263Y-78533500D01*
X172090598Y-78679165D01*
X172090603Y-78679174D01*
X172090613Y-78679191D01*
X172178211Y-78810290D01*
X172178212Y-78810291D01*
X172178217Y-78810297D01*
X172289701Y-78921781D01*
X172289707Y-78921786D01*
X172289711Y-78921789D01*
X172420814Y-79009390D01*
X172420827Y-79009397D01*
X172566498Y-79069735D01*
X172566503Y-79069737D01*
X172721153Y-79100499D01*
X172721156Y-79100500D01*
X172721158Y-79100500D01*
X172878844Y-79100500D01*
X172878845Y-79100499D01*
X173033497Y-79069737D01*
X173179179Y-79009394D01*
X173310289Y-78921789D01*
X173421789Y-78810289D01*
X173509394Y-78679179D01*
X173569737Y-78533497D01*
X173569739Y-78533489D01*
X173569740Y-78533487D01*
X173600499Y-78378846D01*
X173600500Y-78378841D01*
X173600500Y-78223636D01*
X173600500Y-78221158D01*
X173600500Y-78221155D01*
X173600499Y-78221153D01*
X173600498Y-78221150D01*
X175399500Y-78221150D01*
X175399500Y-78378848D01*
X175430257Y-78533471D01*
X175430261Y-78533489D01*
X175430263Y-78533500D01*
X175490598Y-78679165D01*
X175490603Y-78679174D01*
X175490613Y-78679191D01*
X175578211Y-78810290D01*
X175578212Y-78810291D01*
X175578217Y-78810297D01*
X175689701Y-78921781D01*
X175689707Y-78921786D01*
X175689711Y-78921789D01*
X175820814Y-79009390D01*
X175820827Y-79009397D01*
X175966498Y-79069735D01*
X175966503Y-79069737D01*
X176121153Y-79100499D01*
X176121156Y-79100500D01*
X176121158Y-79100500D01*
X176278844Y-79100500D01*
X176278845Y-79100499D01*
X176433497Y-79069737D01*
X176579179Y-79009394D01*
X176710289Y-78921789D01*
X176821789Y-78810289D01*
X176909394Y-78679179D01*
X176969737Y-78533497D01*
X176969739Y-78533489D01*
X176969740Y-78533487D01*
X177000499Y-78378846D01*
X177000500Y-78378841D01*
X177000500Y-78220971D01*
X177000064Y-78218966D01*
X176994244Y-78189707D01*
X176969738Y-78066505D01*
X176969736Y-78066501D01*
X176950955Y-78021159D01*
X176950955Y-78021158D01*
X176909399Y-77920831D01*
X176909397Y-77920827D01*
X176909395Y-77920824D01*
X176909390Y-77920814D01*
X176821789Y-77789711D01*
X176821786Y-77789707D01*
X176821781Y-77789701D01*
X176710297Y-77678217D01*
X176710291Y-77678212D01*
X176710290Y-77678211D01*
X176579191Y-77590613D01*
X176579190Y-77590612D01*
X176579185Y-77590609D01*
X176579172Y-77590602D01*
X176579165Y-77590598D01*
X176433502Y-77530264D01*
X176433471Y-77530257D01*
X176278847Y-77499500D01*
X176278845Y-77499500D01*
X176278842Y-77499500D01*
X176121158Y-77499500D01*
X176121155Y-77499500D01*
X176121153Y-77499500D01*
X175966527Y-77530257D01*
X175966496Y-77530264D01*
X175820833Y-77590598D01*
X175820824Y-77590603D01*
X175820807Y-77590613D01*
X175689708Y-77678211D01*
X175689707Y-77678212D01*
X175689701Y-77678217D01*
X175578217Y-77789701D01*
X175578212Y-77789707D01*
X175578211Y-77789708D01*
X175490613Y-77920807D01*
X175490603Y-77920824D01*
X175490602Y-77920827D01*
X175490599Y-77920831D01*
X175430264Y-78066496D01*
X175430257Y-78066527D01*
X175399500Y-78221150D01*
X173600498Y-78221150D01*
X173594244Y-78189707D01*
X173592083Y-78178843D01*
X173569738Y-78066505D01*
X173569736Y-78066501D01*
X173550955Y-78021159D01*
X173550955Y-78021158D01*
X173509399Y-77920831D01*
X173509397Y-77920827D01*
X173509395Y-77920824D01*
X173509390Y-77920814D01*
X173421789Y-77789711D01*
X173421786Y-77789707D01*
X173421781Y-77789701D01*
X173310297Y-77678217D01*
X173310291Y-77678212D01*
X173310290Y-77678211D01*
X173179191Y-77590613D01*
X173179190Y-77590612D01*
X173179185Y-77590609D01*
X173179172Y-77590602D01*
X173179165Y-77590598D01*
X173033502Y-77530264D01*
X173033471Y-77530257D01*
X172878847Y-77499500D01*
X172878845Y-77499500D01*
X172878842Y-77499500D01*
X172721158Y-77499500D01*
X172721155Y-77499500D01*
X172721153Y-77499500D01*
X172566527Y-77530257D01*
X172566496Y-77530264D01*
X172420833Y-77590598D01*
X172420824Y-77590603D01*
X172420807Y-77590613D01*
X172289708Y-77678211D01*
X172289707Y-77678212D01*
X172289701Y-77678217D01*
X172178217Y-77789701D01*
X172178212Y-77789707D01*
X172178211Y-77789708D01*
X172090613Y-77920807D01*
X172090603Y-77920824D01*
X172090602Y-77920827D01*
X172090599Y-77920831D01*
X172030264Y-78066496D01*
X172030257Y-78066527D01*
X171999500Y-78221150D01*
X160092085Y-78221150D01*
X160098107Y-78190875D01*
X160098107Y-78190874D01*
X160098109Y-78190865D01*
X160099295Y-78184904D01*
X160099296Y-78184904D01*
X160099297Y-78184889D01*
X160100500Y-78178844D01*
X160100500Y-78021155D01*
X160100500Y-78020971D01*
X160100064Y-78018966D01*
X160080543Y-77920827D01*
X160076301Y-77899500D01*
X160069737Y-77866503D01*
X160037929Y-77789711D01*
X160009397Y-77720827D01*
X160009390Y-77720814D01*
X159921789Y-77589711D01*
X159921786Y-77589707D01*
X159921781Y-77589701D01*
X159810297Y-77478217D01*
X159810291Y-77478212D01*
X159810290Y-77478211D01*
X159679191Y-77390613D01*
X159679190Y-77390612D01*
X159679185Y-77390609D01*
X159679172Y-77390602D01*
X159679165Y-77390598D01*
X159533502Y-77330264D01*
X159533471Y-77330257D01*
X159378847Y-77299500D01*
X159378845Y-77299500D01*
X159378842Y-77299500D01*
X159221158Y-77299500D01*
X159221155Y-77299500D01*
X159221153Y-77299500D01*
X159066527Y-77330257D01*
X159066496Y-77330264D01*
X158920833Y-77390598D01*
X158920824Y-77390603D01*
X158920807Y-77390613D01*
X158789708Y-77478211D01*
X158789707Y-77478212D01*
X158789701Y-77478217D01*
X158678217Y-77589701D01*
X158678212Y-77589707D01*
X158678211Y-77589708D01*
X158590613Y-77720807D01*
X158590603Y-77720824D01*
X158590598Y-77720833D01*
X158530264Y-77866496D01*
X158530257Y-77866527D01*
X158499500Y-78021150D01*
X158499500Y-78021153D01*
X158499500Y-78178846D01*
X158499500Y-78178848D01*
X158499499Y-78178848D01*
X155610928Y-78178848D01*
X155510297Y-78078217D01*
X155510291Y-78078212D01*
X155510290Y-78078211D01*
X155379191Y-77990613D01*
X155379190Y-77990612D01*
X155379185Y-77990609D01*
X155379172Y-77990602D01*
X155379165Y-77990598D01*
X155233502Y-77930264D01*
X155233471Y-77930257D01*
X155078847Y-77899500D01*
X155078845Y-77899500D01*
X155078842Y-77899500D01*
X154921158Y-77899500D01*
X154921155Y-77899500D01*
X154921153Y-77899500D01*
X154766527Y-77930257D01*
X154766496Y-77930264D01*
X154620833Y-77990598D01*
X154620824Y-77990603D01*
X154620807Y-77990613D01*
X154489708Y-78078211D01*
X154489707Y-78078212D01*
X154489701Y-78078217D01*
X154378217Y-78189701D01*
X154378212Y-78189707D01*
X154290613Y-78320807D01*
X154290603Y-78320824D01*
X154290598Y-78320833D01*
X154230264Y-78466496D01*
X154230257Y-78466527D01*
X154199500Y-78621150D01*
X154199500Y-78621153D01*
X154199500Y-78778846D01*
X154199500Y-78778848D01*
X154199499Y-78778848D01*
X152000500Y-78778848D01*
X152000500Y-75921150D01*
X155399500Y-75921150D01*
X155399500Y-76078848D01*
X155430257Y-76233471D01*
X155430264Y-76233502D01*
X155490598Y-76379165D01*
X155490603Y-76379174D01*
X155490613Y-76379191D01*
X155578211Y-76510290D01*
X155578212Y-76510291D01*
X155578217Y-76510297D01*
X155689701Y-76621781D01*
X155689707Y-76621786D01*
X155689711Y-76621789D01*
X155820814Y-76709390D01*
X155820827Y-76709397D01*
X155966498Y-76769735D01*
X155966503Y-76769737D01*
X156121153Y-76800499D01*
X156121156Y-76800500D01*
X156121158Y-76800500D01*
X156278844Y-76800500D01*
X156278845Y-76800499D01*
X156433497Y-76769737D01*
X156579179Y-76709394D01*
X156710289Y-76621789D01*
X156753230Y-76578848D01*
X169599499Y-76578848D01*
X169630257Y-76733471D01*
X169630264Y-76733502D01*
X169690598Y-76879165D01*
X169690603Y-76879174D01*
X169690613Y-76879191D01*
X169778211Y-77010290D01*
X169778212Y-77010291D01*
X169778217Y-77010297D01*
X169889701Y-77121781D01*
X169889707Y-77121786D01*
X169889711Y-77121789D01*
X170020814Y-77209390D01*
X170020827Y-77209397D01*
X170166498Y-77269735D01*
X170166503Y-77269737D01*
X170316131Y-77299500D01*
X170321153Y-77300499D01*
X170321156Y-77300500D01*
X170321158Y-77300500D01*
X170478844Y-77300500D01*
X170478845Y-77300499D01*
X170633497Y-77269737D01*
X170779179Y-77209394D01*
X170910289Y-77121789D01*
X171021789Y-77010289D01*
X171109394Y-76879179D01*
X171169737Y-76733497D01*
X171200500Y-76578842D01*
X171200500Y-76478848D01*
X174099499Y-76478848D01*
X174130257Y-76633471D01*
X174130264Y-76633502D01*
X174190598Y-76779165D01*
X174190603Y-76779174D01*
X174190613Y-76779191D01*
X174278211Y-76910290D01*
X174278212Y-76910291D01*
X174278217Y-76910297D01*
X174389701Y-77021781D01*
X174389707Y-77021786D01*
X174389711Y-77021789D01*
X174520814Y-77109390D01*
X174520827Y-77109397D01*
X174666498Y-77169735D01*
X174666503Y-77169737D01*
X174821153Y-77200499D01*
X174821156Y-77200500D01*
X174821158Y-77200500D01*
X174978844Y-77200500D01*
X174978845Y-77200499D01*
X175133497Y-77169737D01*
X175279179Y-77109394D01*
X175410289Y-77021789D01*
X175521789Y-76910289D01*
X175609394Y-76779179D01*
X175669737Y-76633497D01*
X175700500Y-76478842D01*
X175700500Y-76321158D01*
X175700500Y-76321155D01*
X175700500Y-76320973D01*
X175700065Y-76318972D01*
X175690290Y-76269831D01*
X175670395Y-76169815D01*
X175669983Y-76167403D01*
X175669737Y-76166504D01*
X175650817Y-76120827D01*
X175633427Y-76078842D01*
X175609397Y-76020827D01*
X175609390Y-76020814D01*
X175521789Y-75889711D01*
X175521786Y-75889707D01*
X175521781Y-75889701D01*
X175410297Y-75778217D01*
X175410291Y-75778212D01*
X175410290Y-75778211D01*
X175279191Y-75690613D01*
X175279190Y-75690612D01*
X175279185Y-75690609D01*
X175279172Y-75690602D01*
X175279165Y-75690598D01*
X175133502Y-75630264D01*
X175133471Y-75630257D01*
X174978847Y-75599500D01*
X174978845Y-75599500D01*
X174978842Y-75599500D01*
X174821158Y-75599500D01*
X174821155Y-75599500D01*
X174821153Y-75599500D01*
X174666527Y-75630257D01*
X174666496Y-75630264D01*
X174520833Y-75690598D01*
X174520824Y-75690603D01*
X174520807Y-75690613D01*
X174389708Y-75778211D01*
X174389707Y-75778212D01*
X174389701Y-75778217D01*
X174278217Y-75889701D01*
X174278212Y-75889707D01*
X174278211Y-75889708D01*
X174190613Y-76020807D01*
X174190603Y-76020824D01*
X174190598Y-76020833D01*
X174130264Y-76166496D01*
X174130257Y-76166527D01*
X174099500Y-76321150D01*
X174099500Y-76321153D01*
X174099500Y-76478846D01*
X174099500Y-76478848D01*
X174099499Y-76478848D01*
X171200500Y-76478848D01*
X171200500Y-76421158D01*
X171200500Y-76421155D01*
X171184810Y-76342280D01*
X171184209Y-76339255D01*
X171184207Y-76339246D01*
X171184207Y-76339245D01*
X171178904Y-76312590D01*
X171170394Y-76269808D01*
X171169983Y-76267400D01*
X171169737Y-76266504D01*
X171156067Y-76233502D01*
X171128314Y-76166498D01*
X171109397Y-76120827D01*
X171109390Y-76120814D01*
X171021789Y-75989711D01*
X171021786Y-75989707D01*
X171021781Y-75989701D01*
X170910297Y-75878217D01*
X170910291Y-75878212D01*
X170910290Y-75878211D01*
X170779191Y-75790613D01*
X170779190Y-75790612D01*
X170779185Y-75790609D01*
X170779172Y-75790602D01*
X170779165Y-75790598D01*
X170633502Y-75730264D01*
X170633471Y-75730257D01*
X170478847Y-75699500D01*
X170478845Y-75699500D01*
X170478842Y-75699500D01*
X170321158Y-75699500D01*
X170321155Y-75699500D01*
X170321153Y-75699500D01*
X170166527Y-75730257D01*
X170166496Y-75730264D01*
X170020833Y-75790598D01*
X170020824Y-75790603D01*
X170020807Y-75790613D01*
X169889708Y-75878211D01*
X169889707Y-75878212D01*
X169889701Y-75878217D01*
X169778217Y-75989701D01*
X169778212Y-75989707D01*
X169778211Y-75989708D01*
X169690613Y-76120807D01*
X169690603Y-76120824D01*
X169690598Y-76120833D01*
X169630264Y-76266496D01*
X169630257Y-76266527D01*
X169599500Y-76421150D01*
X169599500Y-76421153D01*
X169599500Y-76578846D01*
X169599500Y-76578848D01*
X169599499Y-76578848D01*
X156753230Y-76578848D01*
X156821789Y-76510289D01*
X156909394Y-76379179D01*
X156909400Y-76379165D01*
X156914187Y-76367609D01*
X156956065Y-76266504D01*
X156969737Y-76233497D01*
X157000500Y-76078842D01*
X157000500Y-75921158D01*
X157000500Y-75921155D01*
X157000500Y-75920973D01*
X157000065Y-75918971D01*
X156978269Y-75809396D01*
X156978268Y-75809395D01*
X156969737Y-75766503D01*
X156969735Y-75766498D01*
X156909397Y-75620827D01*
X156909390Y-75620814D01*
X156821789Y-75489711D01*
X156821786Y-75489707D01*
X156821781Y-75489701D01*
X156710297Y-75378217D01*
X156710291Y-75378212D01*
X156710290Y-75378211D01*
X156579191Y-75290613D01*
X156579190Y-75290612D01*
X156579185Y-75290609D01*
X156579172Y-75290602D01*
X156579165Y-75290598D01*
X156433502Y-75230264D01*
X156433471Y-75230257D01*
X156278847Y-75199500D01*
X156278845Y-75199500D01*
X156278842Y-75199500D01*
X156121158Y-75199500D01*
X156121155Y-75199500D01*
X156121153Y-75199500D01*
X155966527Y-75230257D01*
X155966496Y-75230264D01*
X155820833Y-75290598D01*
X155820824Y-75290603D01*
X155820807Y-75290613D01*
X155689708Y-75378211D01*
X155689707Y-75378212D01*
X155689701Y-75378217D01*
X155578217Y-75489701D01*
X155578212Y-75489707D01*
X155578211Y-75489708D01*
X155490613Y-75620807D01*
X155490603Y-75620824D01*
X155490598Y-75620833D01*
X155430264Y-75766496D01*
X155430257Y-75766527D01*
X155399500Y-75921150D01*
X152000500Y-75921150D01*
X152000500Y-74178848D01*
X157199499Y-74178848D01*
X157230257Y-74333471D01*
X157230264Y-74333502D01*
X157290598Y-74479165D01*
X157290603Y-74479174D01*
X157290613Y-74479191D01*
X157378211Y-74610290D01*
X157378217Y-74610297D01*
X157489701Y-74721781D01*
X157489707Y-74721786D01*
X157489711Y-74721789D01*
X157620814Y-74809390D01*
X157620827Y-74809397D01*
X157620829Y-74809397D01*
X157620833Y-74809400D01*
X157758678Y-74866497D01*
X157766495Y-74869734D01*
X157766506Y-74869738D01*
X157823286Y-74881032D01*
X157921153Y-74900499D01*
X157921156Y-74900500D01*
X157921158Y-74900500D01*
X158078844Y-74900500D01*
X158078845Y-74900499D01*
X158233497Y-74869737D01*
X158332213Y-74828848D01*
X164199499Y-74828848D01*
X164230257Y-74983471D01*
X164230264Y-74983502D01*
X164290598Y-75129165D01*
X164290603Y-75129174D01*
X164290613Y-75129191D01*
X164378211Y-75260290D01*
X164378212Y-75260291D01*
X164378217Y-75260297D01*
X164489701Y-75371781D01*
X164489707Y-75371786D01*
X164489711Y-75371789D01*
X164620814Y-75459390D01*
X164620827Y-75459397D01*
X164766498Y-75519735D01*
X164766503Y-75519737D01*
X164921153Y-75550499D01*
X164921156Y-75550500D01*
X164921158Y-75550500D01*
X165078844Y-75550500D01*
X165078845Y-75550499D01*
X165233497Y-75519737D01*
X165379179Y-75459394D01*
X165510289Y-75371789D01*
X165510292Y-75371786D01*
X165549714Y-75332364D01*
X165577964Y-75311216D01*
X165591688Y-75303722D01*
X165659946Y-75288871D01*
X165661756Y-75289000D01*
X165719953Y-75308366D01*
X165726471Y-75312555D01*
X165747107Y-75329186D01*
X165789702Y-75371782D01*
X165789707Y-75371786D01*
X165789711Y-75371789D01*
X165920814Y-75459390D01*
X165920827Y-75459397D01*
X166066498Y-75519735D01*
X166066503Y-75519737D01*
X166221153Y-75550499D01*
X166221156Y-75550500D01*
X166221158Y-75550500D01*
X166378844Y-75550500D01*
X166378845Y-75550499D01*
X166533497Y-75519737D01*
X166679179Y-75459394D01*
X166810289Y-75371789D01*
X166921789Y-75260289D01*
X167009394Y-75129179D01*
X167069737Y-74983497D01*
X167090553Y-74878848D01*
X168399499Y-74878848D01*
X168430257Y-75033471D01*
X168430264Y-75033502D01*
X168490598Y-75179165D01*
X168490603Y-75179174D01*
X168490613Y-75179191D01*
X168578211Y-75310290D01*
X168578212Y-75310291D01*
X168578217Y-75310297D01*
X168689701Y-75421781D01*
X168689707Y-75421786D01*
X168689711Y-75421789D01*
X168820814Y-75509390D01*
X168820827Y-75509397D01*
X168920060Y-75550500D01*
X168966503Y-75569737D01*
X168966505Y-75569737D01*
X168966510Y-75569739D01*
X169054795Y-75587299D01*
X169116131Y-75599500D01*
X169121153Y-75600499D01*
X169121156Y-75600500D01*
X169121158Y-75600500D01*
X169278844Y-75600500D01*
X169278845Y-75600499D01*
X169433497Y-75569737D01*
X169579179Y-75509394D01*
X169710289Y-75421789D01*
X169821789Y-75310289D01*
X169909394Y-75179179D01*
X169969737Y-75033497D01*
X170000499Y-74878848D01*
X172699499Y-74878848D01*
X172730257Y-75033471D01*
X172730264Y-75033502D01*
X172790598Y-75179165D01*
X172790603Y-75179174D01*
X172790613Y-75179191D01*
X172878211Y-75310290D01*
X172878212Y-75310291D01*
X172878217Y-75310297D01*
X172989701Y-75421781D01*
X172989707Y-75421786D01*
X172989711Y-75421789D01*
X173120814Y-75509390D01*
X173120827Y-75509397D01*
X173220060Y-75550500D01*
X173266503Y-75569737D01*
X173266505Y-75569737D01*
X173266510Y-75569739D01*
X173354795Y-75587299D01*
X173416131Y-75599500D01*
X173421153Y-75600499D01*
X173421156Y-75600500D01*
X173421158Y-75600500D01*
X173578844Y-75600500D01*
X173578845Y-75600499D01*
X173733497Y-75569737D01*
X173879179Y-75509394D01*
X174010289Y-75421789D01*
X174121789Y-75310289D01*
X174209394Y-75179179D01*
X174209531Y-75178848D01*
X175899499Y-75178848D01*
X175930257Y-75333471D01*
X175930264Y-75333502D01*
X175990598Y-75479165D01*
X175990603Y-75479174D01*
X175990613Y-75479191D01*
X176078211Y-75610290D01*
X176078212Y-75610291D01*
X176078217Y-75610297D01*
X176189701Y-75721781D01*
X176189707Y-75721786D01*
X176189711Y-75721789D01*
X176320814Y-75809390D01*
X176320827Y-75809397D01*
X176466498Y-75869735D01*
X176466503Y-75869737D01*
X176621153Y-75900499D01*
X176621156Y-75900500D01*
X176621158Y-75900500D01*
X176778844Y-75900500D01*
X176778845Y-75900499D01*
X176933497Y-75869737D01*
X177079179Y-75809394D01*
X177210289Y-75721789D01*
X177321789Y-75610289D01*
X177409394Y-75479179D01*
X177469737Y-75333497D01*
X177500500Y-75178842D01*
X177500500Y-75021158D01*
X177500500Y-75021155D01*
X177500500Y-75020971D01*
X177500064Y-75018966D01*
X177494476Y-74990873D01*
X177476499Y-74900499D01*
X177469737Y-74866503D01*
X177454138Y-74828844D01*
X177454137Y-74828842D01*
X177430942Y-74772843D01*
X177409397Y-74720827D01*
X177409390Y-74720814D01*
X177321789Y-74589711D01*
X177321786Y-74589707D01*
X177321781Y-74589701D01*
X177210297Y-74478217D01*
X177210291Y-74478212D01*
X177210290Y-74478211D01*
X177079191Y-74390613D01*
X177079190Y-74390612D01*
X177079185Y-74390609D01*
X177079172Y-74390602D01*
X177079165Y-74390598D01*
X176933502Y-74330264D01*
X176933471Y-74330257D01*
X176778847Y-74299500D01*
X176778845Y-74299500D01*
X176778842Y-74299500D01*
X176621158Y-74299500D01*
X176621155Y-74299500D01*
X176621153Y-74299500D01*
X176466527Y-74330257D01*
X176466496Y-74330264D01*
X176320833Y-74390598D01*
X176320824Y-74390603D01*
X176320807Y-74390613D01*
X176189708Y-74478211D01*
X176189707Y-74478212D01*
X176189701Y-74478217D01*
X176078217Y-74589701D01*
X176078212Y-74589707D01*
X176078211Y-74589708D01*
X175990613Y-74720807D01*
X175990603Y-74720824D01*
X175990598Y-74720833D01*
X175930264Y-74866496D01*
X175930257Y-74866527D01*
X175899500Y-75021150D01*
X175899500Y-75021153D01*
X175899500Y-75178846D01*
X175899500Y-75178848D01*
X175899499Y-75178848D01*
X174209531Y-75178848D01*
X174269737Y-75033497D01*
X174269737Y-75033494D01*
X174269739Y-75033490D01*
X174272066Y-75021792D01*
X174272067Y-75021787D01*
X174278211Y-74990905D01*
X174278216Y-74990876D01*
X174279403Y-74984907D01*
X174279406Y-74984889D01*
X174279685Y-74983489D01*
X174300066Y-74881021D01*
X174300500Y-74879025D01*
X174300500Y-74720973D01*
X174300065Y-74718971D01*
X174278447Y-74610291D01*
X174278446Y-74610290D01*
X174269737Y-74566503D01*
X174269735Y-74566498D01*
X174209397Y-74420827D01*
X174209390Y-74420814D01*
X174121789Y-74289711D01*
X174121786Y-74289707D01*
X174121781Y-74289701D01*
X174010297Y-74178217D01*
X174010291Y-74178212D01*
X174010290Y-74178211D01*
X173879191Y-74090613D01*
X173879190Y-74090612D01*
X173879185Y-74090609D01*
X173879172Y-74090602D01*
X173879165Y-74090598D01*
X173733502Y-74030264D01*
X173733471Y-74030257D01*
X173578847Y-73999500D01*
X173578845Y-73999500D01*
X173578842Y-73999500D01*
X173421158Y-73999500D01*
X173421155Y-73999500D01*
X173421153Y-73999500D01*
X173266527Y-74030257D01*
X173266496Y-74030264D01*
X173120833Y-74090598D01*
X173120824Y-74090603D01*
X173120807Y-74090613D01*
X172989708Y-74178211D01*
X172989707Y-74178212D01*
X172989701Y-74178217D01*
X172878217Y-74289701D01*
X172878212Y-74289707D01*
X172878211Y-74289708D01*
X172790613Y-74420807D01*
X172790603Y-74420824D01*
X172790598Y-74420833D01*
X172730264Y-74566496D01*
X172730257Y-74566527D01*
X172699500Y-74721150D01*
X172699500Y-74721153D01*
X172699500Y-74878846D01*
X172699500Y-74878848D01*
X172699499Y-74878848D01*
X170000499Y-74878848D01*
X170000500Y-74878842D01*
X170000500Y-74721158D01*
X170000500Y-74721155D01*
X170000499Y-74721153D01*
X169978447Y-74610292D01*
X169969737Y-74566503D01*
X169969735Y-74566498D01*
X169909397Y-74420827D01*
X169909390Y-74420814D01*
X169821789Y-74289711D01*
X169821786Y-74289707D01*
X169821781Y-74289701D01*
X169710297Y-74178217D01*
X169710291Y-74178212D01*
X169710290Y-74178211D01*
X169579191Y-74090613D01*
X169579190Y-74090612D01*
X169579185Y-74090609D01*
X169579172Y-74090602D01*
X169579165Y-74090598D01*
X169433502Y-74030264D01*
X169433471Y-74030257D01*
X169278847Y-73999500D01*
X169278845Y-73999500D01*
X169278842Y-73999500D01*
X169121158Y-73999500D01*
X169121155Y-73999500D01*
X169121153Y-73999500D01*
X168966527Y-74030257D01*
X168966496Y-74030264D01*
X168820833Y-74090598D01*
X168820824Y-74090603D01*
X168820807Y-74090613D01*
X168689708Y-74178211D01*
X168689707Y-74178212D01*
X168689701Y-74178217D01*
X168578217Y-74289701D01*
X168578212Y-74289707D01*
X168578211Y-74289708D01*
X168490613Y-74420807D01*
X168490603Y-74420824D01*
X168490598Y-74420833D01*
X168430264Y-74566496D01*
X168430257Y-74566527D01*
X168399500Y-74721150D01*
X168399500Y-74721153D01*
X168399500Y-74878846D01*
X168399500Y-74878848D01*
X168399499Y-74878848D01*
X167090553Y-74878848D01*
X167100500Y-74828842D01*
X167100500Y-74671158D01*
X167100500Y-74671155D01*
X167100499Y-74671153D01*
X167086445Y-74600499D01*
X167069738Y-74516507D01*
X167069737Y-74516506D01*
X167069737Y-74516503D01*
X167066791Y-74509390D01*
X167030110Y-74420833D01*
X167009400Y-74370833D01*
X167009395Y-74370824D01*
X167009390Y-74370814D01*
X166921789Y-74239711D01*
X166921786Y-74239707D01*
X166921781Y-74239701D01*
X166810296Y-74128216D01*
X166810290Y-74128212D01*
X166767053Y-74099321D01*
X166740797Y-74075735D01*
X166731898Y-74065086D01*
X166704014Y-74001021D01*
X166715190Y-73932058D01*
X166719942Y-73922125D01*
X166744116Y-73887960D01*
X166821789Y-73810289D01*
X166909394Y-73679179D01*
X166969737Y-73533497D01*
X167000500Y-73378842D01*
X167000500Y-73320019D01*
X167011977Y-73280932D01*
X167019282Y-73250024D01*
X167045534Y-73224693D01*
X167046476Y-73223643D01*
X167047391Y-73222901D01*
X167069562Y-73201510D01*
X167138090Y-73187881D01*
X167203107Y-73213464D01*
X167227614Y-73238863D01*
X167230610Y-73243018D01*
X167244591Y-73268090D01*
X167290596Y-73379158D01*
X167290604Y-73379176D01*
X167290613Y-73379191D01*
X167378211Y-73510290D01*
X167378212Y-73510291D01*
X167378217Y-73510297D01*
X167489701Y-73621781D01*
X167489707Y-73621786D01*
X167489708Y-73621787D01*
X167489711Y-73621789D01*
X167620814Y-73709390D01*
X167620827Y-73709397D01*
X167766498Y-73769735D01*
X167766503Y-73769737D01*
X167921153Y-73800499D01*
X167921156Y-73800500D01*
X167921158Y-73800500D01*
X168078844Y-73800500D01*
X168078845Y-73800499D01*
X168233497Y-73769737D01*
X168351592Y-73720821D01*
X168379172Y-73709397D01*
X168379172Y-73709396D01*
X168379179Y-73709394D01*
X168379184Y-73709390D01*
X168381534Y-73708417D01*
X168381534Y-73708416D01*
X168381537Y-73708416D01*
X168390792Y-73704582D01*
X168399677Y-73695698D01*
X168497605Y-73630264D01*
X168510289Y-73621789D01*
X168621789Y-73510289D01*
X168709394Y-73379179D01*
X168769737Y-73233497D01*
X168800500Y-73078842D01*
X168800500Y-72921158D01*
X168800500Y-72921155D01*
X168800500Y-72920973D01*
X168800065Y-72918972D01*
X168796390Y-72900499D01*
X168790271Y-72869735D01*
X168788145Y-72859049D01*
X168774353Y-72789711D01*
X168769737Y-72766503D01*
X168746080Y-72709390D01*
X168739782Y-72694186D01*
X168723084Y-72653871D01*
X168709397Y-72620827D01*
X168709390Y-72620814D01*
X168621789Y-72489711D01*
X168621786Y-72489707D01*
X168621781Y-72489701D01*
X168510297Y-72378217D01*
X168510291Y-72378212D01*
X168510290Y-72378211D01*
X168379191Y-72290613D01*
X168379190Y-72290612D01*
X168379185Y-72290609D01*
X168379172Y-72290602D01*
X168379165Y-72290598D01*
X168233502Y-72230264D01*
X168233471Y-72230257D01*
X168078847Y-72199500D01*
X168078845Y-72199500D01*
X168078842Y-72199500D01*
X167921158Y-72199500D01*
X167921155Y-72199500D01*
X167921153Y-72199500D01*
X167766527Y-72230257D01*
X167766496Y-72230264D01*
X167620833Y-72290598D01*
X167620824Y-72290603D01*
X167620807Y-72290613D01*
X167489708Y-72378211D01*
X167489707Y-72378212D01*
X167489701Y-72378217D01*
X167378217Y-72489701D01*
X167378212Y-72489707D01*
X167378211Y-72489708D01*
X167290613Y-72620807D01*
X167290603Y-72620824D01*
X167290598Y-72620833D01*
X167230264Y-72766496D01*
X167230257Y-72766527D01*
X167199500Y-72921150D01*
X167199500Y-72979979D01*
X167188021Y-73019071D01*
X167180724Y-73049962D01*
X167154470Y-73075298D01*
X167153526Y-73076353D01*
X167152609Y-73077094D01*
X167130449Y-73098482D01*
X167061923Y-73112118D01*
X166996903Y-73086542D01*
X166972394Y-73061146D01*
X166969398Y-73056992D01*
X166955412Y-73031919D01*
X166909397Y-72920827D01*
X166909390Y-72920814D01*
X166821789Y-72789711D01*
X166821786Y-72789707D01*
X166821781Y-72789701D01*
X166710297Y-72678217D01*
X166710291Y-72678212D01*
X166710290Y-72678211D01*
X166579191Y-72590613D01*
X166579190Y-72590612D01*
X166579185Y-72590609D01*
X166579172Y-72590602D01*
X166579165Y-72590598D01*
X166433502Y-72530264D01*
X166433471Y-72530257D01*
X166278847Y-72499500D01*
X166278845Y-72499500D01*
X166278842Y-72499500D01*
X166121158Y-72499500D01*
X166121155Y-72499500D01*
X166121153Y-72499500D01*
X165966527Y-72530257D01*
X165966496Y-72530264D01*
X165820833Y-72590598D01*
X165820824Y-72590603D01*
X165820807Y-72590613D01*
X165689708Y-72678211D01*
X165689707Y-72678212D01*
X165689701Y-72678217D01*
X165578217Y-72789701D01*
X165578212Y-72789707D01*
X165578211Y-72789708D01*
X165490613Y-72920807D01*
X165490603Y-72920824D01*
X165490598Y-72920833D01*
X165430264Y-73066496D01*
X165430257Y-73066527D01*
X165399500Y-73221150D01*
X165399500Y-73221153D01*
X165399500Y-73378846D01*
X165399500Y-73378848D01*
X165399499Y-73378848D01*
X165430257Y-73533471D01*
X165430264Y-73533502D01*
X165490598Y-73679165D01*
X165490603Y-73679174D01*
X165490613Y-73679191D01*
X165578211Y-73810290D01*
X165578217Y-73810297D01*
X165689701Y-73921781D01*
X165689706Y-73921785D01*
X165689707Y-73921786D01*
X165689711Y-73921789D01*
X165719339Y-73941586D01*
X165732945Y-73950678D01*
X165759199Y-73974262D01*
X165768097Y-73984909D01*
X165795983Y-74048972D01*
X165784807Y-74117942D01*
X165784806Y-74117944D01*
X165780053Y-74127878D01*
X165755886Y-74162033D01*
X165750293Y-74167627D01*
X165722031Y-74188786D01*
X165708314Y-74196276D01*
X165640043Y-74211128D01*
X165638239Y-74210999D01*
X165580044Y-74191630D01*
X165573532Y-74187445D01*
X165552889Y-74170810D01*
X165510296Y-74128216D01*
X165510291Y-74128212D01*
X165510290Y-74128211D01*
X165379191Y-74040613D01*
X165379190Y-74040612D01*
X165379185Y-74040609D01*
X165379172Y-74040602D01*
X165379165Y-74040598D01*
X165233502Y-73980264D01*
X165233471Y-73980257D01*
X165078847Y-73949500D01*
X165078845Y-73949500D01*
X165078842Y-73949500D01*
X164921158Y-73949500D01*
X164921155Y-73949500D01*
X164921153Y-73949500D01*
X164766527Y-73980257D01*
X164766496Y-73980264D01*
X164620833Y-74040598D01*
X164620824Y-74040603D01*
X164620807Y-74040613D01*
X164489708Y-74128211D01*
X164489707Y-74128212D01*
X164489701Y-74128217D01*
X164378217Y-74239701D01*
X164378212Y-74239707D01*
X164378211Y-74239708D01*
X164290613Y-74370807D01*
X164290603Y-74370824D01*
X164290598Y-74370833D01*
X164230264Y-74516496D01*
X164230257Y-74516527D01*
X164199500Y-74671150D01*
X164199500Y-74828844D01*
X164199499Y-74828848D01*
X158332213Y-74828848D01*
X158379179Y-74809394D01*
X158510289Y-74721789D01*
X158560928Y-74671150D01*
X158621788Y-74610291D01*
X158621789Y-74610289D01*
X158709394Y-74479179D01*
X158709793Y-74478217D01*
X158723067Y-74446166D01*
X158769737Y-74333497D01*
X158800500Y-74178842D01*
X158800500Y-74021158D01*
X158800500Y-74021155D01*
X158800500Y-74020973D01*
X158800065Y-74018971D01*
X158780734Y-73921788D01*
X158772193Y-73878848D01*
X159699499Y-73878848D01*
X159730257Y-74033471D01*
X159730264Y-74033502D01*
X159790598Y-74179165D01*
X159790603Y-74179174D01*
X159790613Y-74179191D01*
X159878211Y-74310290D01*
X159878212Y-74310291D01*
X159878217Y-74310297D01*
X159989701Y-74421781D01*
X159989707Y-74421786D01*
X159989711Y-74421789D01*
X160120814Y-74509390D01*
X160120827Y-74509397D01*
X160220070Y-74550504D01*
X160266503Y-74569737D01*
X160416838Y-74599640D01*
X160418529Y-74600074D01*
X160421155Y-74600500D01*
X160578844Y-74600500D01*
X160581551Y-74600500D01*
X160584105Y-74599647D01*
X160587424Y-74598792D01*
X160733497Y-74569737D01*
X160879179Y-74509394D01*
X161010289Y-74421789D01*
X161121789Y-74310289D01*
X161209394Y-74179179D01*
X161209793Y-74178217D01*
X161234759Y-74117942D01*
X161269737Y-74033497D01*
X161300500Y-73878842D01*
X161300500Y-73721158D01*
X161300500Y-73721155D01*
X161300500Y-73720973D01*
X161300065Y-73718971D01*
X161280734Y-73621788D01*
X161280733Y-73621787D01*
X161269737Y-73566503D01*
X161239000Y-73492297D01*
X161209397Y-73420827D01*
X161209390Y-73420814D01*
X161121789Y-73289711D01*
X161121786Y-73289707D01*
X161121781Y-73289701D01*
X161010297Y-73178217D01*
X161010291Y-73178212D01*
X161010290Y-73178211D01*
X160879191Y-73090613D01*
X160879190Y-73090612D01*
X160879185Y-73090609D01*
X160879172Y-73090602D01*
X160879165Y-73090598D01*
X160733502Y-73030264D01*
X160733471Y-73030257D01*
X160578847Y-72999500D01*
X160578845Y-72999500D01*
X160578842Y-72999500D01*
X160421158Y-72999500D01*
X160421155Y-72999500D01*
X160421153Y-72999500D01*
X160266527Y-73030257D01*
X160266496Y-73030264D01*
X160120833Y-73090598D01*
X160120824Y-73090603D01*
X160120807Y-73090613D01*
X159989708Y-73178211D01*
X159989707Y-73178212D01*
X159989701Y-73178217D01*
X159878217Y-73289701D01*
X159878212Y-73289707D01*
X159878211Y-73289708D01*
X159790613Y-73420807D01*
X159790603Y-73420824D01*
X159790598Y-73420833D01*
X159730264Y-73566496D01*
X159730257Y-73566527D01*
X159699500Y-73721150D01*
X159699500Y-73721153D01*
X159699500Y-73878846D01*
X159699500Y-73878848D01*
X159699499Y-73878848D01*
X158772193Y-73878848D01*
X158769738Y-73866508D01*
X158769737Y-73866507D01*
X158769737Y-73866503D01*
X158746453Y-73810289D01*
X158726666Y-73762518D01*
X158709395Y-73720823D01*
X158709390Y-73720814D01*
X158621789Y-73589711D01*
X158621786Y-73589707D01*
X158621781Y-73589701D01*
X158510297Y-73478217D01*
X158510291Y-73478212D01*
X158510290Y-73478211D01*
X158379191Y-73390613D01*
X158379190Y-73390612D01*
X158379185Y-73390609D01*
X158379172Y-73390602D01*
X158379165Y-73390598D01*
X158233502Y-73330264D01*
X158233471Y-73330257D01*
X158078847Y-73299500D01*
X158078845Y-73299500D01*
X158078842Y-73299500D01*
X157921158Y-73299500D01*
X157921155Y-73299500D01*
X157921153Y-73299500D01*
X157766527Y-73330257D01*
X157766496Y-73330264D01*
X157620833Y-73390598D01*
X157620824Y-73390603D01*
X157620807Y-73390613D01*
X157489708Y-73478211D01*
X157489707Y-73478212D01*
X157489701Y-73478217D01*
X157378217Y-73589701D01*
X157378212Y-73589707D01*
X157378211Y-73589708D01*
X157290613Y-73720807D01*
X157290604Y-73720823D01*
X157290599Y-73720831D01*
X157230264Y-73866496D01*
X157230257Y-73866527D01*
X157199500Y-74021150D01*
X157199500Y-74021153D01*
X157199500Y-74178846D01*
X157199500Y-74178848D01*
X157199499Y-74178848D01*
X152000500Y-74178848D01*
X152000500Y-72178848D01*
X157579499Y-72178848D01*
X157610257Y-72333471D01*
X157610264Y-72333502D01*
X157670598Y-72479165D01*
X157670603Y-72479174D01*
X157670613Y-72479191D01*
X157758211Y-72610290D01*
X157758212Y-72610291D01*
X157758217Y-72610297D01*
X157869701Y-72721781D01*
X157869707Y-72721786D01*
X157869711Y-72721789D01*
X158000814Y-72809390D01*
X158000827Y-72809397D01*
X158130236Y-72862999D01*
X158146503Y-72869737D01*
X158295376Y-72899349D01*
X158297197Y-72899770D01*
X158297416Y-72899893D01*
X158301155Y-72900500D01*
X158458844Y-72900500D01*
X158462964Y-72900500D01*
X158470814Y-72898118D01*
X158613497Y-72869737D01*
X158759179Y-72809394D01*
X158890289Y-72721789D01*
X158902688Y-72709390D01*
X158914715Y-72697362D01*
X158942961Y-72676218D01*
X158956692Y-72668720D01*
X159024946Y-72653871D01*
X159026756Y-72654000D01*
X159084953Y-72673366D01*
X159091471Y-72677555D01*
X159112102Y-72694181D01*
X159139707Y-72721786D01*
X159139711Y-72721789D01*
X159270814Y-72809390D01*
X159270827Y-72809397D01*
X159400236Y-72862999D01*
X159416503Y-72869737D01*
X159565376Y-72899349D01*
X159567197Y-72899770D01*
X159567416Y-72899893D01*
X159571155Y-72900500D01*
X159728844Y-72900500D01*
X159732964Y-72900500D01*
X159740814Y-72898118D01*
X159883497Y-72869737D01*
X160029179Y-72809394D01*
X160160289Y-72721789D01*
X160271789Y-72610289D01*
X160359394Y-72479179D01*
X160419737Y-72333497D01*
X160450500Y-72178842D01*
X160450500Y-72141348D01*
X175279499Y-72141348D01*
X175310257Y-72295971D01*
X175310264Y-72296002D01*
X175370598Y-72441665D01*
X175370603Y-72441674D01*
X175370613Y-72441691D01*
X175458211Y-72572790D01*
X175458212Y-72572791D01*
X175458217Y-72572797D01*
X175569701Y-72684281D01*
X175569707Y-72684286D01*
X175569711Y-72684289D01*
X175700814Y-72771890D01*
X175700827Y-72771897D01*
X175846498Y-72832235D01*
X175846503Y-72832237D01*
X176001153Y-72862999D01*
X176001156Y-72863000D01*
X176001158Y-72863000D01*
X176158844Y-72863000D01*
X176158845Y-72862999D01*
X176313497Y-72832237D01*
X176459179Y-72771894D01*
X176590289Y-72684289D01*
X176670966Y-72603610D01*
X176699221Y-72582461D01*
X176712939Y-72574971D01*
X176781205Y-72560121D01*
X176783010Y-72560250D01*
X176841197Y-72579613D01*
X176847707Y-72583796D01*
X176868359Y-72600438D01*
X176889699Y-72621779D01*
X176889706Y-72621785D01*
X176889707Y-72621786D01*
X176889711Y-72621789D01*
X177020814Y-72709390D01*
X177020827Y-72709397D01*
X177020833Y-72709400D01*
X177158678Y-72766497D01*
X177166495Y-72769734D01*
X177166506Y-72769738D01*
X177236795Y-72783719D01*
X177321153Y-72800499D01*
X177321156Y-72800500D01*
X177321158Y-72800500D01*
X177478844Y-72800500D01*
X177478845Y-72800499D01*
X177633497Y-72769737D01*
X177779179Y-72709394D01*
X177892936Y-72633383D01*
X177924763Y-72618156D01*
X177939685Y-72613483D01*
X178009538Y-72612236D01*
X178016434Y-72614127D01*
X178016639Y-72614184D01*
X178071501Y-72646081D01*
X178109701Y-72684281D01*
X178109707Y-72684286D01*
X178109711Y-72684289D01*
X178240814Y-72771890D01*
X178240827Y-72771897D01*
X178386498Y-72832235D01*
X178386503Y-72832237D01*
X178541153Y-72862999D01*
X178541156Y-72863000D01*
X178541158Y-72863000D01*
X178698844Y-72863000D01*
X178698845Y-72862999D01*
X178853497Y-72832237D01*
X178999179Y-72771894D01*
X179130289Y-72684289D01*
X179241789Y-72572789D01*
X179329394Y-72441679D01*
X179389737Y-72295997D01*
X179420500Y-72141342D01*
X179420500Y-71983658D01*
X179420500Y-71983655D01*
X179420500Y-71983471D01*
X179420064Y-71981466D01*
X179397201Y-71866527D01*
X179389737Y-71829003D01*
X179389735Y-71828998D01*
X179329397Y-71683327D01*
X179329390Y-71683314D01*
X179241789Y-71552211D01*
X179241786Y-71552207D01*
X179241781Y-71552201D01*
X179130297Y-71440717D01*
X179130291Y-71440712D01*
X179130290Y-71440711D01*
X178999191Y-71353113D01*
X178999190Y-71353112D01*
X178999185Y-71353109D01*
X178999172Y-71353102D01*
X178999165Y-71353098D01*
X178853502Y-71292764D01*
X178853471Y-71292757D01*
X178698847Y-71262000D01*
X178698845Y-71262000D01*
X178698842Y-71262000D01*
X178541158Y-71262000D01*
X178541155Y-71262000D01*
X178541153Y-71262000D01*
X178386527Y-71292757D01*
X178386496Y-71292764D01*
X178240832Y-71353098D01*
X178240822Y-71353103D01*
X178240814Y-71353108D01*
X178240813Y-71353108D01*
X178127070Y-71429110D01*
X178095231Y-71444343D01*
X178080313Y-71449014D01*
X178010454Y-71450260D01*
X178010450Y-71450259D01*
X178003365Y-71448315D01*
X177948494Y-71416415D01*
X177910296Y-71378216D01*
X177910291Y-71378212D01*
X177910290Y-71378211D01*
X177779191Y-71290613D01*
X177779190Y-71290612D01*
X177779185Y-71290609D01*
X177779172Y-71290602D01*
X177779165Y-71290598D01*
X177633502Y-71230264D01*
X177633471Y-71230257D01*
X177478847Y-71199500D01*
X177478845Y-71199500D01*
X177478842Y-71199500D01*
X177321158Y-71199500D01*
X177321155Y-71199500D01*
X177321153Y-71199500D01*
X177166527Y-71230257D01*
X177166496Y-71230264D01*
X177020833Y-71290598D01*
X177020824Y-71290603D01*
X177020807Y-71290613D01*
X176889708Y-71378211D01*
X176889707Y-71378212D01*
X176889701Y-71378217D01*
X176809035Y-71458884D01*
X176780777Y-71480037D01*
X176767059Y-71487527D01*
X176698801Y-71502378D01*
X176696995Y-71502249D01*
X176638794Y-71482881D01*
X176632279Y-71478694D01*
X176611641Y-71462062D01*
X176590296Y-71440716D01*
X176590291Y-71440712D01*
X176590290Y-71440711D01*
X176459191Y-71353113D01*
X176459190Y-71353112D01*
X176459185Y-71353109D01*
X176459172Y-71353102D01*
X176459165Y-71353098D01*
X176313502Y-71292764D01*
X176313471Y-71292757D01*
X176158847Y-71262000D01*
X176158845Y-71262000D01*
X176158842Y-71262000D01*
X176001158Y-71262000D01*
X176001155Y-71262000D01*
X176001153Y-71262000D01*
X175846527Y-71292757D01*
X175846496Y-71292764D01*
X175700833Y-71353098D01*
X175700824Y-71353103D01*
X175700807Y-71353113D01*
X175569708Y-71440711D01*
X175569707Y-71440712D01*
X175569701Y-71440717D01*
X175458217Y-71552201D01*
X175458212Y-71552207D01*
X175458211Y-71552208D01*
X175370613Y-71683307D01*
X175370603Y-71683324D01*
X175370598Y-71683333D01*
X175310264Y-71828996D01*
X175310264Y-71828997D01*
X175310264Y-71828998D01*
X175310261Y-71829010D01*
X175302804Y-71866498D01*
X175279500Y-71983650D01*
X175279500Y-71983653D01*
X175279500Y-72141346D01*
X175279500Y-72141348D01*
X175279499Y-72141348D01*
X160450500Y-72141348D01*
X160450500Y-72021158D01*
X160450499Y-72021153D01*
X160447829Y-72007729D01*
X160447828Y-72007717D01*
X160446643Y-72001762D01*
X160446643Y-72001759D01*
X160446641Y-72001753D01*
X160419498Y-71865301D01*
X160417416Y-71860900D01*
X160404202Y-71828998D01*
X160359397Y-71720827D01*
X160359390Y-71720814D01*
X160271789Y-71589711D01*
X160271786Y-71589707D01*
X160271781Y-71589701D01*
X160160297Y-71478217D01*
X160160291Y-71478212D01*
X160160290Y-71478211D01*
X160029191Y-71390613D01*
X160029190Y-71390612D01*
X160029185Y-71390609D01*
X160029172Y-71390602D01*
X160029165Y-71390598D01*
X159883502Y-71330264D01*
X159883471Y-71330257D01*
X159728847Y-71299500D01*
X159728845Y-71299500D01*
X159728842Y-71299500D01*
X159571158Y-71299500D01*
X159571155Y-71299500D01*
X159571153Y-71299500D01*
X159416527Y-71330257D01*
X159416496Y-71330264D01*
X159270833Y-71390598D01*
X159270824Y-71390603D01*
X159270807Y-71390613D01*
X159139715Y-71478207D01*
X159139710Y-71478210D01*
X159139701Y-71478218D01*
X159115287Y-71502633D01*
X159087029Y-71523786D01*
X159073309Y-71531277D01*
X159005051Y-71546128D01*
X159003245Y-71545999D01*
X158945044Y-71526631D01*
X158938529Y-71522444D01*
X158917896Y-71505817D01*
X158890292Y-71478213D01*
X158890291Y-71478212D01*
X158890290Y-71478211D01*
X158759191Y-71390613D01*
X158759190Y-71390612D01*
X158759185Y-71390609D01*
X158759172Y-71390602D01*
X158759165Y-71390598D01*
X158613502Y-71330264D01*
X158613471Y-71330257D01*
X158458847Y-71299500D01*
X158458845Y-71299500D01*
X158458842Y-71299500D01*
X158301158Y-71299500D01*
X158301155Y-71299500D01*
X158301153Y-71299500D01*
X158146527Y-71330257D01*
X158146496Y-71330264D01*
X158000833Y-71390598D01*
X158000824Y-71390603D01*
X158000807Y-71390613D01*
X157869708Y-71478211D01*
X157869707Y-71478212D01*
X157869701Y-71478217D01*
X157758217Y-71589701D01*
X157758212Y-71589707D01*
X157758211Y-71589708D01*
X157670613Y-71720807D01*
X157670603Y-71720824D01*
X157670598Y-71720833D01*
X157610264Y-71866496D01*
X157610257Y-71866527D01*
X157579500Y-72021150D01*
X157579500Y-72021153D01*
X157579500Y-72178846D01*
X157579500Y-72178848D01*
X157579499Y-72178848D01*
X152000500Y-72178848D01*
X152000500Y-70278848D01*
X153799499Y-70278848D01*
X153830257Y-70433471D01*
X153830264Y-70433502D01*
X153890598Y-70579165D01*
X153890603Y-70579174D01*
X153890613Y-70579191D01*
X153978211Y-70710290D01*
X153978212Y-70710291D01*
X153978217Y-70710297D01*
X154089701Y-70821781D01*
X154089707Y-70821786D01*
X154089711Y-70821789D01*
X154220814Y-70909390D01*
X154220827Y-70909397D01*
X154366498Y-70969735D01*
X154366503Y-70969737D01*
X154521153Y-71000499D01*
X154521156Y-71000500D01*
X154521158Y-71000500D01*
X154678844Y-71000500D01*
X154678845Y-71000499D01*
X154833497Y-70969737D01*
X154979179Y-70909394D01*
X155110289Y-70821789D01*
X155221789Y-70710289D01*
X155309394Y-70579179D01*
X155309531Y-70578848D01*
X164699499Y-70578848D01*
X164730257Y-70733471D01*
X164730264Y-70733502D01*
X164790598Y-70879165D01*
X164790603Y-70879174D01*
X164790613Y-70879191D01*
X164878211Y-71010290D01*
X164878212Y-71010291D01*
X164878217Y-71010297D01*
X164989701Y-71121781D01*
X164989707Y-71121786D01*
X164989711Y-71121789D01*
X165120814Y-71209390D01*
X165120827Y-71209397D01*
X165247824Y-71262000D01*
X165266503Y-71269737D01*
X165382252Y-71292761D01*
X165413528Y-71298982D01*
X165416252Y-71299704D01*
X165421155Y-71300500D01*
X165578844Y-71300500D01*
X165582964Y-71300500D01*
X165590814Y-71298118D01*
X165733497Y-71269737D01*
X165879179Y-71209394D01*
X166010289Y-71121789D01*
X166121789Y-71010289D01*
X166209394Y-70879179D01*
X166269737Y-70733497D01*
X166300500Y-70578842D01*
X166300500Y-70421158D01*
X166300500Y-70421155D01*
X166300500Y-70420973D01*
X166300065Y-70418972D01*
X166272192Y-70278846D01*
X166269737Y-70266503D01*
X166209545Y-70121185D01*
X166209543Y-70121167D01*
X166209539Y-70121169D01*
X166209399Y-70120832D01*
X166209397Y-70120827D01*
X166209390Y-70120814D01*
X166121789Y-69989711D01*
X166121786Y-69989707D01*
X166121781Y-69989701D01*
X166010297Y-69878217D01*
X166010291Y-69878212D01*
X166010290Y-69878211D01*
X165879191Y-69790613D01*
X165879190Y-69790612D01*
X165879185Y-69790609D01*
X165879172Y-69790602D01*
X165879165Y-69790598D01*
X165733502Y-69730264D01*
X165733471Y-69730257D01*
X165578847Y-69699500D01*
X165578845Y-69699500D01*
X165578842Y-69699500D01*
X165421158Y-69699500D01*
X165421155Y-69699500D01*
X165421153Y-69699500D01*
X165266527Y-69730257D01*
X165266496Y-69730264D01*
X165120833Y-69790598D01*
X165120824Y-69790603D01*
X165120807Y-69790613D01*
X164989708Y-69878211D01*
X164989707Y-69878212D01*
X164989701Y-69878217D01*
X164878217Y-69989701D01*
X164878212Y-69989707D01*
X164878211Y-69989708D01*
X164790613Y-70120807D01*
X164790603Y-70120824D01*
X164790598Y-70120833D01*
X164730264Y-70266496D01*
X164730257Y-70266527D01*
X164699500Y-70421150D01*
X164699500Y-70421151D01*
X164699500Y-70421153D01*
X164699500Y-70578846D01*
X164699500Y-70578848D01*
X164699499Y-70578848D01*
X155309531Y-70578848D01*
X155369737Y-70433497D01*
X155372192Y-70421153D01*
X155378216Y-70390874D01*
X155378216Y-70390873D01*
X155400066Y-70281021D01*
X155400500Y-70279025D01*
X155400500Y-70120973D01*
X155400065Y-70118972D01*
X155374353Y-69989711D01*
X155374352Y-69989708D01*
X155374351Y-69989701D01*
X155369737Y-69966503D01*
X155369735Y-69966498D01*
X155309397Y-69820827D01*
X155309390Y-69820814D01*
X155221789Y-69689711D01*
X155221786Y-69689707D01*
X155221781Y-69689701D01*
X155110297Y-69578217D01*
X155110291Y-69578212D01*
X155110290Y-69578211D01*
X154979191Y-69490613D01*
X154979190Y-69490612D01*
X154979185Y-69490609D01*
X154979172Y-69490602D01*
X154979165Y-69490598D01*
X154833502Y-69430264D01*
X154833471Y-69430257D01*
X154678847Y-69399500D01*
X154678845Y-69399500D01*
X154678842Y-69399500D01*
X154521158Y-69399500D01*
X154521155Y-69399500D01*
X154521153Y-69399500D01*
X154366527Y-69430257D01*
X154366496Y-69430264D01*
X154220833Y-69490598D01*
X154220824Y-69490603D01*
X154220807Y-69490613D01*
X154089708Y-69578211D01*
X154089707Y-69578212D01*
X154089701Y-69578217D01*
X153978217Y-69689701D01*
X153978212Y-69689707D01*
X153978211Y-69689708D01*
X153890613Y-69820807D01*
X153890603Y-69820824D01*
X153890598Y-69820833D01*
X153830264Y-69966496D01*
X153830257Y-69966527D01*
X153799500Y-70121150D01*
X153799500Y-70121153D01*
X153799500Y-70278846D01*
X153799500Y-70278848D01*
X153799499Y-70278848D01*
X152000500Y-70278848D01*
X152000500Y-68678848D01*
X161199499Y-68678848D01*
X161230257Y-68833471D01*
X161230264Y-68833502D01*
X161290598Y-68979165D01*
X161290603Y-68979174D01*
X161290613Y-68979191D01*
X161378211Y-69110290D01*
X161378212Y-69110291D01*
X161378217Y-69110297D01*
X161489701Y-69221781D01*
X161489707Y-69221786D01*
X161489711Y-69221789D01*
X161620814Y-69309390D01*
X161620827Y-69309397D01*
X161766498Y-69369735D01*
X161766503Y-69369737D01*
X161916131Y-69399500D01*
X161921153Y-69400499D01*
X161921156Y-69400500D01*
X161921158Y-69400500D01*
X162078844Y-69400500D01*
X162078845Y-69400499D01*
X162233497Y-69369737D01*
X162379179Y-69309394D01*
X162510289Y-69221789D01*
X162621789Y-69110289D01*
X162709394Y-68979179D01*
X162769737Y-68833497D01*
X162800500Y-68678842D01*
X162800500Y-68521158D01*
X162800500Y-68521155D01*
X162800500Y-68520973D01*
X162800065Y-68518972D01*
X162770397Y-68369824D01*
X162769994Y-68367467D01*
X162769738Y-68366508D01*
X162769737Y-68366506D01*
X162769737Y-68366503D01*
X162769735Y-68366498D01*
X162709397Y-68220827D01*
X162709390Y-68220814D01*
X162621789Y-68089711D01*
X162621786Y-68089707D01*
X162621781Y-68089701D01*
X162510297Y-67978217D01*
X162510291Y-67978212D01*
X162510290Y-67978211D01*
X162379191Y-67890613D01*
X162379190Y-67890612D01*
X162379185Y-67890609D01*
X162379172Y-67890602D01*
X162379165Y-67890598D01*
X162233502Y-67830264D01*
X162233471Y-67830257D01*
X162078847Y-67799500D01*
X162078845Y-67799500D01*
X162078842Y-67799500D01*
X161921158Y-67799500D01*
X161921155Y-67799500D01*
X161921153Y-67799500D01*
X161766527Y-67830257D01*
X161766496Y-67830264D01*
X161620833Y-67890598D01*
X161620824Y-67890603D01*
X161620807Y-67890613D01*
X161489708Y-67978211D01*
X161489707Y-67978212D01*
X161489701Y-67978217D01*
X161378217Y-68089701D01*
X161378212Y-68089707D01*
X161378211Y-68089708D01*
X161290613Y-68220807D01*
X161290603Y-68220824D01*
X161290598Y-68220833D01*
X161230264Y-68366496D01*
X161230257Y-68366527D01*
X161199500Y-68521150D01*
X161199500Y-68521153D01*
X161199500Y-68678846D01*
X161199500Y-68678848D01*
X161199499Y-68678848D01*
X152000500Y-68678848D01*
X152000500Y-67278848D01*
X154999499Y-67278848D01*
X155030257Y-67433471D01*
X155030264Y-67433502D01*
X155090598Y-67579165D01*
X155090603Y-67579174D01*
X155090613Y-67579191D01*
X155178211Y-67710290D01*
X155178212Y-67710291D01*
X155178217Y-67710297D01*
X155289701Y-67821781D01*
X155289707Y-67821786D01*
X155289711Y-67821789D01*
X155420814Y-67909390D01*
X155420827Y-67909397D01*
X155566498Y-67969735D01*
X155566503Y-67969737D01*
X155721153Y-68000499D01*
X155721156Y-68000500D01*
X155721158Y-68000500D01*
X155878844Y-68000500D01*
X155878845Y-68000499D01*
X156033497Y-67969737D01*
X156177021Y-67910288D01*
X156179172Y-67909397D01*
X156179172Y-67909396D01*
X156179179Y-67909394D01*
X156179183Y-67909390D01*
X156181520Y-67908423D01*
X156181521Y-67908422D01*
X156181526Y-67908421D01*
X156190792Y-67904583D01*
X156199678Y-67895697D01*
X156310289Y-67821789D01*
X156421787Y-67710291D01*
X156421788Y-67710290D01*
X156421789Y-67710289D01*
X156486998Y-67612697D01*
X156510569Y-67586455D01*
X156521230Y-67577545D01*
X156585288Y-67549662D01*
X156654255Y-67560836D01*
X156654267Y-67560842D01*
X156658992Y-67563103D01*
X156708570Y-67606065D01*
X156711391Y-67610287D01*
X156778210Y-67710288D01*
X156778213Y-67710292D01*
X156778215Y-67710294D01*
X156778217Y-67710297D01*
X156889701Y-67821781D01*
X156889707Y-67821786D01*
X156889711Y-67821789D01*
X157020814Y-67909390D01*
X157020827Y-67909397D01*
X157166498Y-67969735D01*
X157166503Y-67969737D01*
X157321153Y-68000499D01*
X157321156Y-68000500D01*
X157321158Y-68000500D01*
X157478844Y-68000500D01*
X157478845Y-68000499D01*
X157633497Y-67969737D01*
X157777021Y-67910288D01*
X157779172Y-67909397D01*
X157779172Y-67909396D01*
X157779179Y-67909394D01*
X157779183Y-67909390D01*
X157781520Y-67908423D01*
X157781521Y-67908422D01*
X157781526Y-67908421D01*
X157790792Y-67904583D01*
X157799678Y-67895697D01*
X157910289Y-67821789D01*
X158021786Y-67710292D01*
X158021788Y-67710290D01*
X158021789Y-67710289D01*
X158109394Y-67579179D01*
X158169737Y-67433497D01*
X158200499Y-67278848D01*
X159499499Y-67278848D01*
X159530257Y-67433471D01*
X159530264Y-67433502D01*
X159590598Y-67579165D01*
X159590603Y-67579174D01*
X159590613Y-67579191D01*
X159678211Y-67710290D01*
X159678212Y-67710291D01*
X159678217Y-67710297D01*
X159789701Y-67821781D01*
X159789707Y-67821786D01*
X159789711Y-67821789D01*
X159920814Y-67909390D01*
X159920827Y-67909397D01*
X160066498Y-67969735D01*
X160066503Y-67969737D01*
X160221153Y-68000499D01*
X160221156Y-68000500D01*
X160221158Y-68000500D01*
X160378844Y-68000500D01*
X160378845Y-68000499D01*
X160533497Y-67969737D01*
X160677021Y-67910288D01*
X160679172Y-67909397D01*
X160679172Y-67909396D01*
X160679179Y-67909394D01*
X160679183Y-67909390D01*
X160681520Y-67908423D01*
X160681521Y-67908422D01*
X160681526Y-67908421D01*
X160690792Y-67904583D01*
X160699678Y-67895697D01*
X160810289Y-67821789D01*
X160921786Y-67710292D01*
X160921788Y-67710290D01*
X160921789Y-67710289D01*
X161009394Y-67579179D01*
X161069737Y-67433497D01*
X161100500Y-67278842D01*
X161100500Y-67201307D01*
X168912294Y-67201307D01*
X168943052Y-67355930D01*
X168943059Y-67355961D01*
X169003393Y-67501624D01*
X169003398Y-67501633D01*
X169003408Y-67501650D01*
X169091006Y-67632749D01*
X169091007Y-67632750D01*
X169091012Y-67632756D01*
X169202496Y-67744240D01*
X169202502Y-67744245D01*
X169202506Y-67744248D01*
X169333609Y-67831849D01*
X169333622Y-67831856D01*
X169479293Y-67892194D01*
X169479298Y-67892196D01*
X169633948Y-67922958D01*
X169633951Y-67922959D01*
X169633953Y-67922959D01*
X169791639Y-67922959D01*
X169791640Y-67922958D01*
X169946292Y-67892196D01*
X170091974Y-67831853D01*
X170223084Y-67744248D01*
X170334584Y-67632748D01*
X170350891Y-67608340D01*
X170374474Y-67582085D01*
X170385130Y-67573179D01*
X170449194Y-67545296D01*
X170518147Y-67556466D01*
X170522876Y-67558729D01*
X170572473Y-67601703D01*
X170578208Y-67610287D01*
X170578213Y-67610293D01*
X170689701Y-67721781D01*
X170689707Y-67721786D01*
X170689711Y-67721789D01*
X170820814Y-67809390D01*
X170820827Y-67809397D01*
X170947549Y-67861886D01*
X170966503Y-67869737D01*
X171115536Y-67899381D01*
X171117496Y-67899839D01*
X171117662Y-67899933D01*
X171121155Y-67900500D01*
X171278844Y-67900500D01*
X171282964Y-67900500D01*
X171290814Y-67898118D01*
X171433497Y-67869737D01*
X171433502Y-67869734D01*
X171433505Y-67869734D01*
X171493451Y-67844903D01*
X171527649Y-67836174D01*
X171543190Y-67834503D01*
X171611938Y-67846902D01*
X171618512Y-67850193D01*
X171666117Y-67892190D01*
X171678203Y-67910279D01*
X171678211Y-67910290D01*
X171678217Y-67910297D01*
X171789701Y-68021781D01*
X171789707Y-68021786D01*
X171789711Y-68021789D01*
X171920814Y-68109390D01*
X171920827Y-68109397D01*
X172066498Y-68169735D01*
X172066503Y-68169737D01*
X172221153Y-68200499D01*
X172221156Y-68200500D01*
X172221158Y-68200500D01*
X172378844Y-68200500D01*
X172378845Y-68200499D01*
X172533497Y-68169737D01*
X172679179Y-68109394D01*
X172810289Y-68021789D01*
X172921789Y-67910289D01*
X173009394Y-67779179D01*
X173069737Y-67633497D01*
X173100500Y-67478842D01*
X173100500Y-67321158D01*
X173100500Y-67321155D01*
X173100499Y-67321153D01*
X173092583Y-67281355D01*
X173069737Y-67166503D01*
X173050955Y-67121158D01*
X173009397Y-67020827D01*
X173009390Y-67020814D01*
X172921789Y-66889711D01*
X172921786Y-66889707D01*
X172921781Y-66889701D01*
X172810297Y-66778217D01*
X172810291Y-66778212D01*
X172810290Y-66778211D01*
X172679191Y-66690613D01*
X172679190Y-66690612D01*
X172679185Y-66690609D01*
X172679172Y-66690602D01*
X172679165Y-66690598D01*
X172533502Y-66630264D01*
X172533471Y-66630257D01*
X172378847Y-66599500D01*
X172378845Y-66599500D01*
X172378842Y-66599500D01*
X172221158Y-66599500D01*
X172221155Y-66599500D01*
X172221152Y-66599500D01*
X172066516Y-66630258D01*
X172066499Y-66630263D01*
X172006543Y-66655097D01*
X171972341Y-66663825D01*
X171956800Y-66665495D01*
X171888050Y-66653090D01*
X171881481Y-66649802D01*
X171833879Y-66607805D01*
X171821789Y-66589710D01*
X171821782Y-66589702D01*
X171710297Y-66478217D01*
X171710291Y-66478212D01*
X171710290Y-66478211D01*
X171579191Y-66390613D01*
X171579190Y-66390612D01*
X171579185Y-66390609D01*
X171579172Y-66390602D01*
X171579165Y-66390598D01*
X171433502Y-66330264D01*
X171433471Y-66330257D01*
X171278847Y-66299500D01*
X171278845Y-66299500D01*
X171278842Y-66299500D01*
X171121158Y-66299500D01*
X171121155Y-66299500D01*
X171121153Y-66299500D01*
X170966527Y-66330257D01*
X170966496Y-66330264D01*
X170820833Y-66390598D01*
X170820824Y-66390603D01*
X170820807Y-66390613D01*
X170689708Y-66478211D01*
X170689707Y-66478212D01*
X170689701Y-66478217D01*
X170578225Y-66589693D01*
X170578210Y-66589710D01*
X170561897Y-66614123D01*
X170538312Y-66640378D01*
X170527666Y-66649275D01*
X170463603Y-66677160D01*
X170394644Y-66665989D01*
X170389917Y-66663728D01*
X170340320Y-66620755D01*
X170334583Y-66612169D01*
X170334581Y-66612166D01*
X170223087Y-66500672D01*
X170223086Y-66500671D01*
X170223085Y-66500670D01*
X170091986Y-66413072D01*
X170091985Y-66413071D01*
X170091980Y-66413068D01*
X170091967Y-66413061D01*
X170091960Y-66413057D01*
X169946297Y-66352723D01*
X169946266Y-66352716D01*
X169791642Y-66321959D01*
X169791640Y-66321959D01*
X169791637Y-66321959D01*
X169633953Y-66321959D01*
X169633950Y-66321959D01*
X169633948Y-66321959D01*
X169479322Y-66352716D01*
X169479291Y-66352723D01*
X169333628Y-66413057D01*
X169333619Y-66413062D01*
X169333602Y-66413072D01*
X169202503Y-66500670D01*
X169202502Y-66500671D01*
X169202496Y-66500676D01*
X169091012Y-66612160D01*
X169091007Y-66612166D01*
X169091006Y-66612167D01*
X169003408Y-66743266D01*
X169003398Y-66743283D01*
X169003393Y-66743292D01*
X168943059Y-66888955D01*
X168943052Y-66888986D01*
X168912295Y-67043609D01*
X168912295Y-67043612D01*
X168912295Y-67201305D01*
X168912295Y-67201307D01*
X168912294Y-67201307D01*
X161100500Y-67201307D01*
X161100500Y-67121158D01*
X161100500Y-67121155D01*
X161100500Y-67120969D01*
X161100069Y-67118987D01*
X161088676Y-67061711D01*
X161069498Y-66965301D01*
X161067411Y-66960888D01*
X161037929Y-66889712D01*
X161037929Y-66889711D01*
X161009397Y-66820827D01*
X161009390Y-66820814D01*
X160921789Y-66689711D01*
X160921786Y-66689707D01*
X160921781Y-66689701D01*
X160810297Y-66578217D01*
X160810291Y-66578212D01*
X160810290Y-66578211D01*
X160679191Y-66490613D01*
X160679190Y-66490612D01*
X160679185Y-66490609D01*
X160679172Y-66490602D01*
X160679165Y-66490598D01*
X160533502Y-66430264D01*
X160533471Y-66430257D01*
X160378847Y-66399500D01*
X160378845Y-66399500D01*
X160378842Y-66399500D01*
X160221158Y-66399500D01*
X160221155Y-66399500D01*
X160221153Y-66399500D01*
X160066527Y-66430257D01*
X160066496Y-66430264D01*
X159920833Y-66490598D01*
X159920824Y-66490603D01*
X159920807Y-66490613D01*
X159789708Y-66578211D01*
X159789707Y-66578212D01*
X159789701Y-66578217D01*
X159678217Y-66689701D01*
X159678212Y-66689707D01*
X159678211Y-66689708D01*
X159590613Y-66820807D01*
X159590603Y-66820824D01*
X159590598Y-66820833D01*
X159530264Y-66966496D01*
X159530257Y-66966527D01*
X159499500Y-67121150D01*
X159499500Y-67121153D01*
X159499500Y-67278846D01*
X159499500Y-67278848D01*
X159499499Y-67278848D01*
X158200499Y-67278848D01*
X158200500Y-67278842D01*
X158200500Y-67121158D01*
X158200500Y-67121155D01*
X158200499Y-67121153D01*
X158180543Y-67020827D01*
X158169737Y-66966503D01*
X158137929Y-66889711D01*
X158109397Y-66820827D01*
X158109390Y-66820814D01*
X158021789Y-66689711D01*
X158021786Y-66689707D01*
X158021781Y-66689701D01*
X157910297Y-66578217D01*
X157910291Y-66578212D01*
X157910290Y-66578211D01*
X157779191Y-66490613D01*
X157779190Y-66490612D01*
X157779185Y-66490609D01*
X157779172Y-66490602D01*
X157779165Y-66490598D01*
X157633502Y-66430264D01*
X157633471Y-66430257D01*
X157478847Y-66399500D01*
X157478845Y-66399500D01*
X157478842Y-66399500D01*
X157321158Y-66399500D01*
X157321155Y-66399500D01*
X157321153Y-66399500D01*
X157166527Y-66430257D01*
X157166496Y-66430264D01*
X157020833Y-66490598D01*
X157020824Y-66490603D01*
X157020807Y-66490613D01*
X156889708Y-66578211D01*
X156889707Y-66578212D01*
X156889701Y-66578217D01*
X156778217Y-66689701D01*
X156778215Y-66689704D01*
X156778213Y-66689707D01*
X156778210Y-66689711D01*
X156749792Y-66732240D01*
X156713006Y-66787295D01*
X156689417Y-66813555D01*
X156678769Y-66822453D01*
X156614704Y-66850336D01*
X156545741Y-66839160D01*
X156541015Y-66836899D01*
X156491428Y-66793932D01*
X156480927Y-66778217D01*
X156421789Y-66689711D01*
X156421786Y-66689707D01*
X156421781Y-66689701D01*
X156310297Y-66578217D01*
X156310291Y-66578212D01*
X156310290Y-66578211D01*
X156179191Y-66490613D01*
X156179190Y-66490612D01*
X156179185Y-66490609D01*
X156179172Y-66490602D01*
X156179165Y-66490598D01*
X156033502Y-66430264D01*
X156033471Y-66430257D01*
X155878847Y-66399500D01*
X155878845Y-66399500D01*
X155878842Y-66399500D01*
X155721158Y-66399500D01*
X155721155Y-66399500D01*
X155721153Y-66399500D01*
X155566527Y-66430257D01*
X155566496Y-66430264D01*
X155420833Y-66490598D01*
X155420824Y-66490603D01*
X155420807Y-66490613D01*
X155289708Y-66578211D01*
X155289707Y-66578212D01*
X155289701Y-66578217D01*
X155178217Y-66689701D01*
X155178212Y-66689707D01*
X155178211Y-66689708D01*
X155090613Y-66820807D01*
X155090603Y-66820824D01*
X155090598Y-66820833D01*
X155030264Y-66966496D01*
X155030257Y-66966527D01*
X154999500Y-67121150D01*
X154999500Y-67121153D01*
X154999500Y-67278846D01*
X154999500Y-67278848D01*
X154999499Y-67278848D01*
X152000500Y-67278848D01*
X152000500Y-64878848D01*
X156199499Y-64878848D01*
X156230257Y-65033471D01*
X156230264Y-65033502D01*
X156290598Y-65179165D01*
X156290603Y-65179174D01*
X156290613Y-65179191D01*
X156378211Y-65310290D01*
X156378212Y-65310291D01*
X156378217Y-65310297D01*
X156489701Y-65421781D01*
X156489707Y-65421786D01*
X156489711Y-65421789D01*
X156620814Y-65509390D01*
X156620827Y-65509397D01*
X156766498Y-65569735D01*
X156766503Y-65569737D01*
X156867155Y-65589758D01*
X156913512Y-65598979D01*
X156916247Y-65599703D01*
X156921155Y-65600500D01*
X157078844Y-65600500D01*
X157082964Y-65600500D01*
X157090814Y-65598118D01*
X157233497Y-65569737D01*
X157377018Y-65510289D01*
X157379172Y-65509397D01*
X157379172Y-65509396D01*
X157379179Y-65509394D01*
X157510289Y-65421789D01*
X157621789Y-65310289D01*
X157709394Y-65179179D01*
X157769737Y-65033497D01*
X157800500Y-64878842D01*
X157800500Y-64778848D01*
X166299499Y-64778848D01*
X166330257Y-64933471D01*
X166330264Y-64933502D01*
X166390598Y-65079165D01*
X166390603Y-65079174D01*
X166390613Y-65079191D01*
X166478211Y-65210290D01*
X166478212Y-65210291D01*
X166478217Y-65210297D01*
X166589701Y-65321781D01*
X166589707Y-65321786D01*
X166589711Y-65321789D01*
X166720814Y-65409390D01*
X166720827Y-65409397D01*
X166866498Y-65469735D01*
X166866503Y-65469737D01*
X167021153Y-65500499D01*
X167021156Y-65500500D01*
X167021158Y-65500500D01*
X167178844Y-65500500D01*
X167178845Y-65500499D01*
X167333497Y-65469737D01*
X167479179Y-65409394D01*
X167610289Y-65321789D01*
X167721789Y-65210289D01*
X167809394Y-65079179D01*
X167869737Y-64933497D01*
X167900500Y-64778842D01*
X167900500Y-64621158D01*
X167900500Y-64621155D01*
X167900500Y-64620973D01*
X167900065Y-64618971D01*
X167878269Y-64509396D01*
X167878268Y-64509395D01*
X167872192Y-64478848D01*
X173699499Y-64478848D01*
X173730257Y-64633471D01*
X173730264Y-64633502D01*
X173790598Y-64779165D01*
X173790603Y-64779174D01*
X173790613Y-64779191D01*
X173879148Y-64911692D01*
X173879092Y-64911729D01*
X173885692Y-64922305D01*
X173896275Y-64941686D01*
X173911127Y-65009959D01*
X173911127Y-65009963D01*
X173910998Y-65011766D01*
X173891630Y-65069956D01*
X173885699Y-65079185D01*
X173880586Y-65086542D01*
X173878215Y-65089702D01*
X173878211Y-65089708D01*
X173790613Y-65220807D01*
X173790603Y-65220824D01*
X173790598Y-65220833D01*
X173730264Y-65366496D01*
X173730257Y-65366527D01*
X173699500Y-65521150D01*
X173699500Y-65521153D01*
X173699500Y-65678846D01*
X173699500Y-65678848D01*
X173699499Y-65678848D01*
X173730257Y-65833471D01*
X173730264Y-65833502D01*
X173790598Y-65979165D01*
X173790603Y-65979174D01*
X173790613Y-65979191D01*
X173878211Y-66110290D01*
X173878212Y-66110291D01*
X173878217Y-66110297D01*
X173989701Y-66221781D01*
X173989707Y-66221786D01*
X173989711Y-66221789D01*
X174120814Y-66309390D01*
X174120827Y-66309397D01*
X174225427Y-66352723D01*
X174266503Y-66369737D01*
X174266505Y-66369737D01*
X174266510Y-66369739D01*
X174371453Y-66390613D01*
X174395368Y-66395370D01*
X174421153Y-66400499D01*
X174421156Y-66400500D01*
X174461205Y-66400500D01*
X174464741Y-66400702D01*
X174468566Y-66402066D01*
X174492606Y-66405523D01*
X174507604Y-66409927D01*
X174528830Y-66423563D01*
X174530549Y-66424177D01*
X174531299Y-66425150D01*
X174566355Y-66447672D01*
X174567542Y-66449041D01*
X174595018Y-66503902D01*
X174596663Y-66511460D01*
X174599500Y-66537831D01*
X174599500Y-66578846D01*
X174599500Y-66578848D01*
X174599499Y-66578848D01*
X174630257Y-66733471D01*
X174630264Y-66733502D01*
X174690598Y-66879165D01*
X174690603Y-66879174D01*
X174690613Y-66879191D01*
X174778211Y-67010290D01*
X174778212Y-67010291D01*
X174778217Y-67010297D01*
X174889701Y-67121781D01*
X174889707Y-67121786D01*
X174889711Y-67121789D01*
X175020814Y-67209390D01*
X175020827Y-67209397D01*
X175166498Y-67269735D01*
X175166503Y-67269737D01*
X175321153Y-67300499D01*
X175321156Y-67300500D01*
X175321158Y-67300500D01*
X175478844Y-67300500D01*
X175478845Y-67300499D01*
X175633497Y-67269737D01*
X175779179Y-67209394D01*
X175910289Y-67121789D01*
X176021789Y-67010289D01*
X176109394Y-66879179D01*
X176169737Y-66733497D01*
X176200500Y-66578842D01*
X176200500Y-66421158D01*
X176200500Y-66421155D01*
X176200500Y-66420973D01*
X176200065Y-66418971D01*
X176178269Y-66309396D01*
X176169738Y-66266508D01*
X176169737Y-66266507D01*
X176169737Y-66266503D01*
X176151215Y-66221786D01*
X176109397Y-66120827D01*
X176109390Y-66120814D01*
X176021789Y-65989711D01*
X176021786Y-65989707D01*
X176021781Y-65989701D01*
X175910294Y-65878214D01*
X175793382Y-65800095D01*
X175784474Y-65793550D01*
X175757865Y-65772110D01*
X175718013Y-65714720D01*
X175715512Y-65644905D01*
X175716807Y-65639829D01*
X175749276Y-65582800D01*
X175821789Y-65510289D01*
X175909394Y-65379179D01*
X175969737Y-65233497D01*
X176000500Y-65078842D01*
X176000500Y-64921158D01*
X176000500Y-64921155D01*
X176000499Y-64921153D01*
X175998338Y-64910288D01*
X175969737Y-64766503D01*
X175950955Y-64721158D01*
X175919496Y-64645208D01*
X175909400Y-64620833D01*
X175909395Y-64620824D01*
X175909390Y-64620814D01*
X175821789Y-64489711D01*
X175821786Y-64489707D01*
X175821781Y-64489701D01*
X175710297Y-64378217D01*
X175710291Y-64378212D01*
X175710290Y-64378211D01*
X175579191Y-64290613D01*
X175579190Y-64290612D01*
X175579185Y-64290609D01*
X175579172Y-64290602D01*
X175579165Y-64290598D01*
X175433502Y-64230264D01*
X175433471Y-64230257D01*
X175366307Y-64216897D01*
X175333026Y-64205156D01*
X175314432Y-64195430D01*
X175269415Y-64155352D01*
X175265636Y-64149803D01*
X175253565Y-64127457D01*
X175209403Y-64020840D01*
X175209397Y-64020827D01*
X175209397Y-64020826D01*
X175209390Y-64020814D01*
X175121789Y-63889711D01*
X175121786Y-63889707D01*
X175121781Y-63889701D01*
X175010297Y-63778217D01*
X175010291Y-63778212D01*
X175010290Y-63778211D01*
X174879191Y-63690613D01*
X174879190Y-63690612D01*
X174879185Y-63690609D01*
X174879172Y-63690602D01*
X174879165Y-63690598D01*
X174733502Y-63630264D01*
X174733471Y-63630257D01*
X174578847Y-63599500D01*
X174578845Y-63599500D01*
X174578842Y-63599500D01*
X174421158Y-63599500D01*
X174421155Y-63599500D01*
X174421153Y-63599500D01*
X174266527Y-63630257D01*
X174266496Y-63630264D01*
X174120833Y-63690598D01*
X174120824Y-63690603D01*
X174120807Y-63690613D01*
X173989708Y-63778211D01*
X173989707Y-63778212D01*
X173989701Y-63778217D01*
X173878217Y-63889701D01*
X173878212Y-63889707D01*
X173878211Y-63889708D01*
X173790613Y-64020807D01*
X173790603Y-64020824D01*
X173790598Y-64020833D01*
X173730264Y-64166496D01*
X173730257Y-64166527D01*
X173699500Y-64321150D01*
X173699500Y-64321153D01*
X173699500Y-64478846D01*
X173699500Y-64478848D01*
X173699499Y-64478848D01*
X167872192Y-64478848D01*
X167869737Y-64466503D01*
X167850820Y-64420833D01*
X167850812Y-64420813D01*
X167826666Y-64362518D01*
X167826664Y-64362514D01*
X167809579Y-64321268D01*
X167809395Y-64320823D01*
X167809390Y-64320814D01*
X167721789Y-64189711D01*
X167721786Y-64189707D01*
X167721781Y-64189701D01*
X167610297Y-64078217D01*
X167610291Y-64078212D01*
X167610290Y-64078211D01*
X167479191Y-63990613D01*
X167479190Y-63990612D01*
X167479185Y-63990609D01*
X167479172Y-63990602D01*
X167479165Y-63990598D01*
X167333502Y-63930264D01*
X167333471Y-63930257D01*
X167178847Y-63899500D01*
X167178845Y-63899500D01*
X167178842Y-63899500D01*
X167021158Y-63899500D01*
X167021155Y-63899500D01*
X167021153Y-63899500D01*
X166866527Y-63930257D01*
X166866496Y-63930264D01*
X166720833Y-63990598D01*
X166720824Y-63990603D01*
X166720807Y-63990613D01*
X166589708Y-64078211D01*
X166589707Y-64078212D01*
X166589701Y-64078217D01*
X166478217Y-64189701D01*
X166478212Y-64189707D01*
X166478211Y-64189708D01*
X166390613Y-64320807D01*
X166390603Y-64320824D01*
X166390598Y-64320833D01*
X166330264Y-64466496D01*
X166330257Y-64466527D01*
X166299500Y-64621150D01*
X166299500Y-64621153D01*
X166299500Y-64778846D01*
X166299500Y-64778848D01*
X166299499Y-64778848D01*
X157800500Y-64778848D01*
X157800500Y-64721158D01*
X157800500Y-64721155D01*
X157784810Y-64642280D01*
X157784209Y-64639255D01*
X157784207Y-64639246D01*
X157784207Y-64639245D01*
X157775097Y-64593450D01*
X157770394Y-64569808D01*
X157769983Y-64567400D01*
X157769737Y-64566504D01*
X157769734Y-64566497D01*
X157737929Y-64489711D01*
X157709397Y-64420827D01*
X157709390Y-64420814D01*
X157621789Y-64289711D01*
X157621786Y-64289707D01*
X157621781Y-64289701D01*
X157510297Y-64178217D01*
X157510291Y-64178212D01*
X157510290Y-64178211D01*
X157379191Y-64090613D01*
X157379190Y-64090612D01*
X157379185Y-64090609D01*
X157379172Y-64090602D01*
X157379165Y-64090598D01*
X157233502Y-64030264D01*
X157233471Y-64030257D01*
X157078847Y-63999500D01*
X157078845Y-63999500D01*
X157078842Y-63999500D01*
X156921158Y-63999500D01*
X156921155Y-63999500D01*
X156921153Y-63999500D01*
X156766527Y-64030257D01*
X156766496Y-64030264D01*
X156620833Y-64090598D01*
X156620824Y-64090603D01*
X156620807Y-64090613D01*
X156489708Y-64178211D01*
X156489707Y-64178212D01*
X156489701Y-64178217D01*
X156378217Y-64289701D01*
X156378212Y-64289707D01*
X156378211Y-64289708D01*
X156290613Y-64420807D01*
X156290610Y-64420813D01*
X156290598Y-64420833D01*
X156230264Y-64566496D01*
X156230257Y-64566527D01*
X156199500Y-64721150D01*
X156199500Y-64721153D01*
X156199500Y-64878846D01*
X156199500Y-64878848D01*
X156199499Y-64878848D01*
X152000500Y-64878848D01*
X152000500Y-64321268D01*
X152015261Y-64262592D01*
X152020570Y-64252708D01*
X152020617Y-64252733D01*
X152023356Y-64243398D01*
X152076151Y-64197632D01*
X152145307Y-64187673D01*
X152179170Y-64197608D01*
X152181299Y-64198581D01*
X152232910Y-64242492D01*
X152278210Y-64310288D01*
X152278213Y-64310292D01*
X152278215Y-64310294D01*
X152278217Y-64310297D01*
X152389701Y-64421781D01*
X152389707Y-64421786D01*
X152389711Y-64421789D01*
X152520814Y-64509390D01*
X152520827Y-64509397D01*
X152520829Y-64509397D01*
X152520833Y-64509400D01*
X152658678Y-64566497D01*
X152666495Y-64569734D01*
X152666506Y-64569738D01*
X152736795Y-64583719D01*
X152821153Y-64600499D01*
X152821156Y-64600500D01*
X152821158Y-64600500D01*
X152978844Y-64600500D01*
X152978845Y-64600499D01*
X152989179Y-64598443D01*
X153014287Y-64593450D01*
X153014292Y-64593449D01*
X153099800Y-64576439D01*
X153133497Y-64569737D01*
X153279179Y-64509394D01*
X153410289Y-64421789D01*
X153521789Y-64310289D01*
X153609394Y-64179179D01*
X153609793Y-64178217D01*
X153646079Y-64090613D01*
X153669737Y-64033497D01*
X153700500Y-63878842D01*
X153700500Y-63721158D01*
X153700500Y-63721155D01*
X153700500Y-63720973D01*
X153700065Y-63718971D01*
X153678447Y-63610291D01*
X153669737Y-63566503D01*
X153633569Y-63479185D01*
X153609397Y-63420827D01*
X153609390Y-63420814D01*
X153521789Y-63289711D01*
X153521786Y-63289707D01*
X153521781Y-63289701D01*
X153410928Y-63178848D01*
X164399499Y-63178848D01*
X164430257Y-63333471D01*
X164430264Y-63333502D01*
X164490598Y-63479165D01*
X164490603Y-63479174D01*
X164490610Y-63479186D01*
X164578211Y-63610290D01*
X164578212Y-63610291D01*
X164578217Y-63610297D01*
X164689701Y-63721781D01*
X164689707Y-63721786D01*
X164689711Y-63721789D01*
X164820814Y-63809390D01*
X164820827Y-63809397D01*
X164966498Y-63869735D01*
X164966503Y-63869737D01*
X165096982Y-63895691D01*
X165113530Y-63898982D01*
X165116248Y-63899703D01*
X165121155Y-63900500D01*
X165278844Y-63900500D01*
X165282964Y-63900500D01*
X165290814Y-63898118D01*
X165433497Y-63869737D01*
X165579179Y-63809394D01*
X165710289Y-63721789D01*
X165741480Y-63690598D01*
X165821788Y-63610291D01*
X165821789Y-63610289D01*
X165909394Y-63479179D01*
X165969737Y-63333497D01*
X165980607Y-63278848D01*
X175999499Y-63278848D01*
X176030257Y-63433471D01*
X176030264Y-63433502D01*
X176090598Y-63579165D01*
X176090603Y-63579174D01*
X176090613Y-63579191D01*
X176178211Y-63710290D01*
X176178212Y-63710291D01*
X176178217Y-63710297D01*
X176289701Y-63821781D01*
X176289707Y-63821786D01*
X176289711Y-63821789D01*
X176420814Y-63909390D01*
X176420827Y-63909397D01*
X176566498Y-63969735D01*
X176566503Y-63969737D01*
X176716131Y-63999500D01*
X176721153Y-64000499D01*
X176721156Y-64000500D01*
X176721158Y-64000500D01*
X176878844Y-64000500D01*
X176878845Y-64000499D01*
X177033497Y-63969737D01*
X177179179Y-63909394D01*
X177310289Y-63821789D01*
X177421789Y-63710289D01*
X177509394Y-63579179D01*
X177569737Y-63433497D01*
X177600500Y-63278842D01*
X177600500Y-63121158D01*
X177600500Y-63121155D01*
X177600500Y-63120973D01*
X177600065Y-63118972D01*
X177582419Y-63030261D01*
X177582419Y-63030260D01*
X177576300Y-62999500D01*
X177569737Y-62966503D01*
X177528314Y-62866498D01*
X177509397Y-62820827D01*
X177509390Y-62820814D01*
X177421789Y-62689711D01*
X177421786Y-62689707D01*
X177421781Y-62689701D01*
X177310297Y-62578217D01*
X177310291Y-62578212D01*
X177310290Y-62578211D01*
X177179191Y-62490613D01*
X177179190Y-62490612D01*
X177179185Y-62490609D01*
X177179172Y-62490602D01*
X177179165Y-62490598D01*
X177033502Y-62430264D01*
X177033471Y-62430257D01*
X176878847Y-62399500D01*
X176878845Y-62399500D01*
X176878842Y-62399500D01*
X176721158Y-62399500D01*
X176721155Y-62399500D01*
X176721153Y-62399500D01*
X176566527Y-62430257D01*
X176566496Y-62430264D01*
X176420833Y-62490598D01*
X176420824Y-62490603D01*
X176420807Y-62490613D01*
X176289708Y-62578211D01*
X176289707Y-62578212D01*
X176289701Y-62578217D01*
X176178217Y-62689701D01*
X176178212Y-62689707D01*
X176178211Y-62689708D01*
X176090613Y-62820807D01*
X176090610Y-62820813D01*
X176090598Y-62820833D01*
X176030264Y-62966496D01*
X176030257Y-62966527D01*
X175999500Y-63121150D01*
X175999500Y-63121153D01*
X175999500Y-63278846D01*
X175999500Y-63278848D01*
X175999499Y-63278848D01*
X165980607Y-63278848D01*
X166000500Y-63178842D01*
X166000500Y-63021158D01*
X166000500Y-63021155D01*
X166000499Y-63021153D01*
X165970395Y-62869815D01*
X165969983Y-62867403D01*
X165969737Y-62866504D01*
X165950812Y-62820813D01*
X165909402Y-62720840D01*
X165909399Y-62720833D01*
X165909397Y-62720827D01*
X165909390Y-62720814D01*
X165821789Y-62589711D01*
X165821786Y-62589707D01*
X165821781Y-62589701D01*
X165710297Y-62478217D01*
X165710291Y-62478212D01*
X165710290Y-62478211D01*
X165579191Y-62390613D01*
X165579190Y-62390612D01*
X165579185Y-62390609D01*
X165579172Y-62390602D01*
X165579165Y-62390598D01*
X165433502Y-62330264D01*
X165433471Y-62330257D01*
X165278847Y-62299500D01*
X165278845Y-62299500D01*
X165278842Y-62299500D01*
X165121158Y-62299500D01*
X165121155Y-62299500D01*
X165121153Y-62299500D01*
X164966527Y-62330257D01*
X164966496Y-62330264D01*
X164820832Y-62390598D01*
X164820822Y-62390603D01*
X164820814Y-62390608D01*
X164820813Y-62390608D01*
X164730318Y-62451076D01*
X164730299Y-62451089D01*
X164724405Y-62455027D01*
X164662825Y-62474306D01*
X164639634Y-62527588D01*
X164634992Y-62532834D01*
X164633575Y-62534346D01*
X164578211Y-62589711D01*
X164577262Y-62591130D01*
X164577261Y-62591132D01*
X164569462Y-62602803D01*
X164569457Y-62602809D01*
X164490613Y-62720807D01*
X164490603Y-62720824D01*
X164490598Y-62720833D01*
X164430264Y-62866496D01*
X164430257Y-62866527D01*
X164399500Y-63021150D01*
X164399500Y-63021153D01*
X164399500Y-63178846D01*
X164399500Y-63178848D01*
X164399499Y-63178848D01*
X153410928Y-63178848D01*
X153410297Y-63178217D01*
X153410291Y-63178212D01*
X153410290Y-63178211D01*
X153279191Y-63090613D01*
X153279190Y-63090612D01*
X153279185Y-63090609D01*
X153279172Y-63090602D01*
X153279165Y-63090598D01*
X153133502Y-63030264D01*
X153133471Y-63030257D01*
X152978847Y-62999500D01*
X152978845Y-62999500D01*
X152978842Y-62999500D01*
X152821158Y-62999500D01*
X152821155Y-62999500D01*
X152821153Y-62999500D01*
X152666527Y-63030257D01*
X152666496Y-63030264D01*
X152520833Y-63090598D01*
X152520824Y-63090603D01*
X152520807Y-63090613D01*
X152389708Y-63178211D01*
X152389707Y-63178212D01*
X152389701Y-63178217D01*
X152278216Y-63289702D01*
X152237505Y-63350629D01*
X152192609Y-63391226D01*
X152182705Y-63396491D01*
X152182679Y-63396442D01*
X152175200Y-63402691D01*
X152105874Y-63411388D01*
X152042851Y-63381224D01*
X152020222Y-63354139D01*
X152018995Y-63352152D01*
X152000500Y-63287001D01*
X152000500Y-61578848D01*
X161599499Y-61578848D01*
X161630257Y-61733471D01*
X161630264Y-61733502D01*
X161690598Y-61879165D01*
X161690603Y-61879174D01*
X161690613Y-61879191D01*
X161778211Y-62010290D01*
X161778212Y-62010291D01*
X161778217Y-62010297D01*
X161889701Y-62121781D01*
X161889707Y-62121786D01*
X161889711Y-62121789D01*
X162020814Y-62209390D01*
X162020827Y-62209397D01*
X162166498Y-62269735D01*
X162166503Y-62269737D01*
X162316131Y-62299500D01*
X162321153Y-62300499D01*
X162321156Y-62300500D01*
X162321158Y-62300500D01*
X162478844Y-62300500D01*
X162478845Y-62300499D01*
X162633497Y-62269737D01*
X162746166Y-62223067D01*
X162772634Y-62212104D01*
X162775425Y-62211131D01*
X162776868Y-62210464D01*
X162781528Y-62208421D01*
X162790787Y-62204585D01*
X162799671Y-62195701D01*
X162910289Y-62121789D01*
X162952913Y-62079165D01*
X163021783Y-62010296D01*
X163021784Y-62010294D01*
X163021789Y-62010289D01*
X163031333Y-61996004D01*
X163054910Y-61969758D01*
X163065369Y-61961017D01*
X163129430Y-61933135D01*
X163198400Y-61944314D01*
X163246104Y-61984549D01*
X163250877Y-61991293D01*
X163264211Y-62015458D01*
X163290599Y-62079165D01*
X163290604Y-62079176D01*
X163290613Y-62079191D01*
X163378211Y-62210290D01*
X163378212Y-62210291D01*
X163378217Y-62210297D01*
X163489701Y-62321781D01*
X163489707Y-62321786D01*
X163489711Y-62321789D01*
X163620814Y-62409390D01*
X163620827Y-62409397D01*
X163718457Y-62449836D01*
X163766503Y-62469737D01*
X163766505Y-62469737D01*
X163766510Y-62469739D01*
X163850279Y-62486401D01*
X163921153Y-62500499D01*
X163921156Y-62500500D01*
X163921158Y-62500500D01*
X164078844Y-62500500D01*
X164078845Y-62500499D01*
X164233497Y-62469737D01*
X164379179Y-62409394D01*
X164379184Y-62409390D01*
X164379187Y-62409389D01*
X164419338Y-62382560D01*
X164475595Y-62344970D01*
X164537176Y-62325687D01*
X164560372Y-62272403D01*
X164567837Y-62264241D01*
X164621786Y-62210292D01*
X164621788Y-62210290D01*
X164621789Y-62210289D01*
X164709394Y-62079179D01*
X164769737Y-61933497D01*
X164800500Y-61778842D01*
X164800500Y-61621158D01*
X164800500Y-61621155D01*
X164800499Y-61621153D01*
X164769737Y-61466503D01*
X164750953Y-61421153D01*
X164726574Y-61362298D01*
X164709400Y-61320833D01*
X164709395Y-61320824D01*
X164709390Y-61320814D01*
X164621789Y-61189711D01*
X164621786Y-61189707D01*
X164621781Y-61189701D01*
X164510297Y-61078217D01*
X164510291Y-61078212D01*
X164510290Y-61078211D01*
X164379191Y-60990613D01*
X164379190Y-60990612D01*
X164379185Y-60990609D01*
X164379172Y-60990602D01*
X164379165Y-60990598D01*
X164233502Y-60930264D01*
X164233471Y-60930257D01*
X164078847Y-60899500D01*
X164078845Y-60899500D01*
X164078842Y-60899500D01*
X163921158Y-60899500D01*
X163921155Y-60899500D01*
X163921153Y-60899500D01*
X163766527Y-60930257D01*
X163766496Y-60930264D01*
X163620833Y-60990598D01*
X163620824Y-60990603D01*
X163620807Y-60990613D01*
X163489708Y-61078211D01*
X163489707Y-61078212D01*
X163489701Y-61078217D01*
X163378218Y-61189700D01*
X163378208Y-61189713D01*
X163378202Y-61189721D01*
X163368667Y-61203991D01*
X163345083Y-61230245D01*
X163334633Y-61238978D01*
X163270569Y-61266863D01*
X163201599Y-61255685D01*
X163153896Y-61215454D01*
X163149126Y-61208713D01*
X163135786Y-61184539D01*
X163109395Y-61120824D01*
X163109394Y-61120821D01*
X163109390Y-61120814D01*
X163021789Y-60989711D01*
X163021786Y-60989707D01*
X163021781Y-60989701D01*
X162910297Y-60878217D01*
X162910291Y-60878212D01*
X162910290Y-60878211D01*
X162779191Y-60790613D01*
X162779190Y-60790612D01*
X162779185Y-60790609D01*
X162779172Y-60790602D01*
X162779165Y-60790598D01*
X162633502Y-60730264D01*
X162633471Y-60730257D01*
X162478847Y-60699500D01*
X162478845Y-60699500D01*
X162478842Y-60699500D01*
X162321158Y-60699500D01*
X162321155Y-60699500D01*
X162321153Y-60699500D01*
X162166527Y-60730257D01*
X162166496Y-60730264D01*
X162020833Y-60790598D01*
X162020824Y-60790603D01*
X162020807Y-60790613D01*
X161889708Y-60878211D01*
X161889707Y-60878212D01*
X161889701Y-60878217D01*
X161778217Y-60989701D01*
X161778212Y-60989707D01*
X161778211Y-60989708D01*
X161690613Y-61120807D01*
X161690603Y-61120824D01*
X161690598Y-61120833D01*
X161630264Y-61266496D01*
X161630257Y-61266527D01*
X161599500Y-61421150D01*
X161599500Y-61421153D01*
X161599500Y-61578846D01*
X161599500Y-61578848D01*
X161599499Y-61578848D01*
X152000500Y-61578848D01*
X152000500Y-59478848D01*
X170899499Y-59478848D01*
X170930257Y-59633471D01*
X170930264Y-59633502D01*
X170990598Y-59779165D01*
X170990603Y-59779174D01*
X170990613Y-59779191D01*
X171078211Y-59910290D01*
X171078212Y-59910291D01*
X171078217Y-59910297D01*
X171189701Y-60021781D01*
X171189707Y-60021786D01*
X171189711Y-60021789D01*
X171320814Y-60109390D01*
X171320827Y-60109397D01*
X171466498Y-60169735D01*
X171466503Y-60169737D01*
X171621153Y-60200499D01*
X171621156Y-60200500D01*
X171621158Y-60200500D01*
X171778844Y-60200500D01*
X171778845Y-60200499D01*
X171933497Y-60169737D01*
X172079179Y-60109394D01*
X172210289Y-60021789D01*
X172321789Y-59910289D01*
X172409394Y-59779179D01*
X172469737Y-59633497D01*
X172500500Y-59478842D01*
X172500500Y-59321158D01*
X172500500Y-59321155D01*
X172500500Y-59320972D01*
X172500065Y-59318972D01*
X172492152Y-59279191D01*
X172492148Y-59279172D01*
X172469737Y-59166503D01*
X172409794Y-59021786D01*
X172409397Y-59020827D01*
X172409390Y-59020814D01*
X172321790Y-58889712D01*
X172321784Y-58889705D01*
X172253229Y-58821150D01*
X173199500Y-58821150D01*
X173199500Y-58978848D01*
X173230257Y-59133471D01*
X173230264Y-59133502D01*
X173290598Y-59279165D01*
X173290601Y-59279170D01*
X173290602Y-59279172D01*
X173290609Y-59279185D01*
X173290612Y-59279190D01*
X173290613Y-59279191D01*
X173378211Y-59410290D01*
X173378212Y-59410291D01*
X173378217Y-59410297D01*
X173489701Y-59521781D01*
X173489707Y-59521786D01*
X173489711Y-59521789D01*
X173620814Y-59609390D01*
X173620827Y-59609397D01*
X173766498Y-59669735D01*
X173766503Y-59669737D01*
X173921153Y-59700499D01*
X173921156Y-59700500D01*
X173921158Y-59700500D01*
X174078844Y-59700500D01*
X174078845Y-59700499D01*
X174233497Y-59669737D01*
X174379179Y-59609394D01*
X174510289Y-59521789D01*
X174621789Y-59410289D01*
X174642797Y-59378848D01*
X177099499Y-59378848D01*
X177130257Y-59533471D01*
X177130264Y-59533502D01*
X177190598Y-59679165D01*
X177190603Y-59679174D01*
X177190613Y-59679191D01*
X177278211Y-59810290D01*
X177278212Y-59810291D01*
X177278217Y-59810297D01*
X177389701Y-59921781D01*
X177389707Y-59921786D01*
X177389711Y-59921789D01*
X177520814Y-60009390D01*
X177520827Y-60009397D01*
X177666498Y-60069735D01*
X177666503Y-60069737D01*
X177796982Y-60095691D01*
X177813530Y-60098982D01*
X177816248Y-60099703D01*
X177821155Y-60100500D01*
X177978844Y-60100500D01*
X177982964Y-60100500D01*
X177990814Y-60098118D01*
X178133497Y-60069737D01*
X178279179Y-60009394D01*
X178410289Y-59921789D01*
X178521789Y-59810289D01*
X178609394Y-59679179D01*
X178669737Y-59533497D01*
X178700500Y-59378842D01*
X178700500Y-59221158D01*
X178700500Y-59221155D01*
X178700500Y-59220973D01*
X178700065Y-59218971D01*
X178678269Y-59109396D01*
X178675399Y-59094968D01*
X178669737Y-59066503D01*
X178633427Y-58978842D01*
X178609397Y-58920827D01*
X178609390Y-58920814D01*
X178521789Y-58789711D01*
X178521786Y-58789707D01*
X178521781Y-58789701D01*
X178410297Y-58678217D01*
X178410291Y-58678212D01*
X178410290Y-58678211D01*
X178279191Y-58590613D01*
X178279190Y-58590612D01*
X178279185Y-58590609D01*
X178279172Y-58590602D01*
X178279165Y-58590598D01*
X178133502Y-58530264D01*
X178133471Y-58530257D01*
X177978847Y-58499500D01*
X177978845Y-58499500D01*
X177978842Y-58499500D01*
X177821158Y-58499500D01*
X177821155Y-58499500D01*
X177821153Y-58499500D01*
X177666527Y-58530257D01*
X177666496Y-58530264D01*
X177520833Y-58590598D01*
X177520824Y-58590603D01*
X177520807Y-58590613D01*
X177389708Y-58678211D01*
X177389707Y-58678212D01*
X177389701Y-58678217D01*
X177278217Y-58789701D01*
X177278212Y-58789707D01*
X177278211Y-58789708D01*
X177190613Y-58920807D01*
X177190603Y-58920824D01*
X177190598Y-58920833D01*
X177130264Y-59066496D01*
X177130257Y-59066527D01*
X177099500Y-59221150D01*
X177099500Y-59221153D01*
X177099500Y-59378846D01*
X177099500Y-59378848D01*
X177099499Y-59378848D01*
X174642797Y-59378848D01*
X174709394Y-59279179D01*
X174709395Y-59279175D01*
X174709398Y-59279171D01*
X174744904Y-59193451D01*
X174754726Y-59169738D01*
X174755603Y-59167621D01*
X174755605Y-59167614D01*
X174769737Y-59133497D01*
X174800500Y-58978842D01*
X174800500Y-58821158D01*
X174800500Y-58821155D01*
X174800499Y-58821153D01*
X174791224Y-58774523D01*
X174769737Y-58666503D01*
X174756062Y-58633489D01*
X174709397Y-58520827D01*
X174709390Y-58520814D01*
X174621789Y-58389711D01*
X174621786Y-58389707D01*
X174621781Y-58389701D01*
X174510297Y-58278217D01*
X174510291Y-58278212D01*
X174510290Y-58278211D01*
X174379191Y-58190613D01*
X174379190Y-58190612D01*
X174379185Y-58190609D01*
X174379172Y-58190602D01*
X174379165Y-58190598D01*
X174233502Y-58130264D01*
X174233471Y-58130257D01*
X174078847Y-58099500D01*
X174078845Y-58099500D01*
X174078842Y-58099500D01*
X173921158Y-58099500D01*
X173921155Y-58099500D01*
X173921153Y-58099500D01*
X173766527Y-58130257D01*
X173766496Y-58130264D01*
X173620833Y-58190598D01*
X173620824Y-58190603D01*
X173620807Y-58190613D01*
X173489708Y-58278211D01*
X173489707Y-58278212D01*
X173489701Y-58278217D01*
X173378217Y-58389701D01*
X173378212Y-58389707D01*
X173378211Y-58389708D01*
X173290613Y-58520807D01*
X173290603Y-58520824D01*
X173290598Y-58520833D01*
X173230264Y-58666496D01*
X173230257Y-58666527D01*
X173199500Y-58821150D01*
X172253229Y-58821150D01*
X172210292Y-58778213D01*
X172210291Y-58778212D01*
X172210290Y-58778211D01*
X172079191Y-58690613D01*
X172079190Y-58690612D01*
X172079185Y-58690609D01*
X172079172Y-58690602D01*
X172079165Y-58690598D01*
X171933502Y-58630264D01*
X171933471Y-58630257D01*
X171778847Y-58599500D01*
X171778845Y-58599500D01*
X171778842Y-58599500D01*
X171621158Y-58599500D01*
X171621155Y-58599500D01*
X171621153Y-58599500D01*
X171466527Y-58630257D01*
X171466496Y-58630264D01*
X171320833Y-58690598D01*
X171320824Y-58690603D01*
X171320807Y-58690613D01*
X171189708Y-58778211D01*
X171189707Y-58778212D01*
X171189701Y-58778217D01*
X171078217Y-58889701D01*
X171078212Y-58889707D01*
X171078211Y-58889708D01*
X170990613Y-59020807D01*
X170990603Y-59020824D01*
X170990598Y-59020833D01*
X170930264Y-59166496D01*
X170930257Y-59166527D01*
X170899500Y-59321150D01*
X170899500Y-59321153D01*
X170899500Y-59478846D01*
X170899500Y-59478848D01*
X170899499Y-59478848D01*
X152000500Y-59478848D01*
X152000500Y-58478848D01*
X153599499Y-58478848D01*
X153630257Y-58633471D01*
X153630261Y-58633488D01*
X153630263Y-58633500D01*
X153690598Y-58779165D01*
X153690603Y-58779174D01*
X153690613Y-58779191D01*
X153778211Y-58910290D01*
X153778212Y-58910291D01*
X153778217Y-58910297D01*
X153889701Y-59021781D01*
X153889707Y-59021786D01*
X153889711Y-59021789D01*
X154020814Y-59109390D01*
X154020827Y-59109397D01*
X154020829Y-59109397D01*
X154020833Y-59109400D01*
X154079022Y-59133502D01*
X154161377Y-59167614D01*
X154161392Y-59167620D01*
X154161394Y-59167621D01*
X154166503Y-59169737D01*
X154166506Y-59169737D01*
X154166507Y-59169738D01*
X154200196Y-59176439D01*
X154321153Y-59200499D01*
X154321156Y-59200500D01*
X154321158Y-59200500D01*
X154478844Y-59200500D01*
X154478845Y-59200499D01*
X154633497Y-59169737D01*
X154779179Y-59109394D01*
X154910289Y-59021789D01*
X155021789Y-58910289D01*
X155074112Y-58831981D01*
X155086993Y-58812703D01*
X155110569Y-58786455D01*
X155121230Y-58777545D01*
X155185288Y-58749662D01*
X155254255Y-58760836D01*
X155254267Y-58760842D01*
X155258992Y-58763103D01*
X155308570Y-58806065D01*
X155325887Y-58831981D01*
X155378210Y-58910288D01*
X155378213Y-58910292D01*
X155378215Y-58910294D01*
X155378217Y-58910297D01*
X155489701Y-59021781D01*
X155489707Y-59021786D01*
X155489711Y-59021789D01*
X155620814Y-59109390D01*
X155620827Y-59109397D01*
X155620829Y-59109397D01*
X155620833Y-59109400D01*
X155679022Y-59133502D01*
X155761377Y-59167614D01*
X155761392Y-59167620D01*
X155761394Y-59167621D01*
X155766503Y-59169737D01*
X155766506Y-59169737D01*
X155766507Y-59169738D01*
X155800196Y-59176439D01*
X155921153Y-59200499D01*
X155921156Y-59200500D01*
X155921158Y-59200500D01*
X156078844Y-59200500D01*
X156078845Y-59200499D01*
X156089179Y-59198443D01*
X156114287Y-59193450D01*
X156114292Y-59193449D01*
X156199800Y-59176439D01*
X156233497Y-59169737D01*
X156238623Y-59167614D01*
X156266498Y-59156067D01*
X156379179Y-59109394D01*
X156510289Y-59021789D01*
X156621789Y-58910289D01*
X156709394Y-58779179D01*
X156709793Y-58778217D01*
X156746079Y-58690613D01*
X156769737Y-58633497D01*
X156770382Y-58630257D01*
X156790273Y-58530257D01*
X156800500Y-58478842D01*
X156800500Y-58321158D01*
X156800500Y-58321155D01*
X156800500Y-58320973D01*
X156800065Y-58318972D01*
X156791957Y-58278213D01*
X156774531Y-58190606D01*
X156769737Y-58166503D01*
X156769735Y-58166498D01*
X156709397Y-58020827D01*
X156709390Y-58020814D01*
X156621789Y-57889711D01*
X156621786Y-57889707D01*
X156621781Y-57889701D01*
X156510297Y-57778217D01*
X156510291Y-57778212D01*
X156510290Y-57778211D01*
X156379191Y-57690613D01*
X156379190Y-57690612D01*
X156379185Y-57690609D01*
X156379172Y-57690602D01*
X156379165Y-57690598D01*
X156233502Y-57630264D01*
X156233471Y-57630257D01*
X156078847Y-57599500D01*
X156078845Y-57599500D01*
X156078842Y-57599500D01*
X155921158Y-57599500D01*
X155921155Y-57599500D01*
X155921153Y-57599500D01*
X155766527Y-57630257D01*
X155766496Y-57630264D01*
X155620833Y-57690598D01*
X155620824Y-57690603D01*
X155620807Y-57690613D01*
X155489708Y-57778211D01*
X155489707Y-57778212D01*
X155489701Y-57778217D01*
X155378217Y-57889701D01*
X155378215Y-57889704D01*
X155313006Y-57987295D01*
X155289417Y-58013555D01*
X155278769Y-58022453D01*
X155214704Y-58050336D01*
X155145741Y-58039160D01*
X155141015Y-58036899D01*
X155091428Y-57993932D01*
X155021787Y-57889708D01*
X155021786Y-57889707D01*
X155021781Y-57889701D01*
X154910297Y-57778217D01*
X154910291Y-57778212D01*
X154910290Y-57778211D01*
X154779191Y-57690613D01*
X154779190Y-57690612D01*
X154779185Y-57690609D01*
X154779172Y-57690602D01*
X154779165Y-57690598D01*
X154633502Y-57630264D01*
X154633471Y-57630257D01*
X154478847Y-57599500D01*
X154478845Y-57599500D01*
X154478842Y-57599500D01*
X154321158Y-57599500D01*
X154321155Y-57599500D01*
X154321153Y-57599500D01*
X154166527Y-57630257D01*
X154166496Y-57630264D01*
X154020833Y-57690598D01*
X154020824Y-57690603D01*
X154020807Y-57690613D01*
X153889708Y-57778211D01*
X153889707Y-57778212D01*
X153889701Y-57778217D01*
X153778217Y-57889701D01*
X153778212Y-57889707D01*
X153778211Y-57889708D01*
X153690613Y-58020807D01*
X153690603Y-58020824D01*
X153690598Y-58020833D01*
X153630264Y-58166496D01*
X153630257Y-58166527D01*
X153599500Y-58321150D01*
X153599500Y-58321153D01*
X153599500Y-58478846D01*
X153599500Y-58478848D01*
X153599499Y-58478848D01*
X152000500Y-58478848D01*
X152000500Y-57478848D01*
X166799499Y-57478848D01*
X166830257Y-57633471D01*
X166830264Y-57633502D01*
X166890598Y-57779165D01*
X166890603Y-57779174D01*
X166890613Y-57779191D01*
X166978211Y-57910290D01*
X166978212Y-57910291D01*
X166978217Y-57910297D01*
X167089701Y-58021781D01*
X167089707Y-58021786D01*
X167089711Y-58021789D01*
X167220814Y-58109390D01*
X167220827Y-58109397D01*
X167220829Y-58109397D01*
X167220833Y-58109400D01*
X167358678Y-58166497D01*
X167366495Y-58169734D01*
X167366506Y-58169738D01*
X167436795Y-58183719D01*
X167521153Y-58200499D01*
X167521156Y-58200500D01*
X167521158Y-58200500D01*
X167678844Y-58200500D01*
X167678845Y-58200499D01*
X167833497Y-58169737D01*
X167979179Y-58109394D01*
X168110289Y-58021789D01*
X168221789Y-57910289D01*
X168309394Y-57779179D01*
X168309793Y-57778217D01*
X168346079Y-57690613D01*
X168369737Y-57633497D01*
X168400499Y-57478848D01*
X168999499Y-57478848D01*
X169030257Y-57633471D01*
X169030264Y-57633502D01*
X169090598Y-57779165D01*
X169090603Y-57779174D01*
X169090613Y-57779191D01*
X169178211Y-57910290D01*
X169178212Y-57910291D01*
X169178217Y-57910297D01*
X169289701Y-58021781D01*
X169289707Y-58021786D01*
X169289711Y-58021789D01*
X169420814Y-58109390D01*
X169420827Y-58109397D01*
X169420829Y-58109397D01*
X169420833Y-58109400D01*
X169558678Y-58166497D01*
X169566495Y-58169734D01*
X169566506Y-58169738D01*
X169636795Y-58183719D01*
X169721153Y-58200499D01*
X169721156Y-58200500D01*
X169721158Y-58200500D01*
X169878844Y-58200500D01*
X169878845Y-58200499D01*
X170033497Y-58169737D01*
X170179179Y-58109394D01*
X170310289Y-58021789D01*
X170421789Y-57910289D01*
X170509394Y-57779179D01*
X170509793Y-57778217D01*
X170546079Y-57690613D01*
X170569737Y-57633497D01*
X170600500Y-57478842D01*
X170600500Y-57321158D01*
X170600500Y-57321155D01*
X170600500Y-57320973D01*
X170600065Y-57318971D01*
X170578269Y-57209396D01*
X170575399Y-57194968D01*
X170569737Y-57166503D01*
X170536622Y-57086555D01*
X170509397Y-57020827D01*
X170509390Y-57020814D01*
X170421789Y-56889711D01*
X170421786Y-56889707D01*
X170421781Y-56889701D01*
X170310297Y-56778217D01*
X170310291Y-56778212D01*
X170310290Y-56778211D01*
X170179191Y-56690613D01*
X170179190Y-56690612D01*
X170179185Y-56690609D01*
X170179172Y-56690602D01*
X170179165Y-56690598D01*
X170033502Y-56630264D01*
X170033471Y-56630257D01*
X169878847Y-56599500D01*
X169878845Y-56599500D01*
X169878842Y-56599500D01*
X169721158Y-56599500D01*
X169721155Y-56599500D01*
X169721153Y-56599500D01*
X169566527Y-56630257D01*
X169566496Y-56630264D01*
X169420833Y-56690598D01*
X169420824Y-56690603D01*
X169420807Y-56690613D01*
X169289708Y-56778211D01*
X169289707Y-56778212D01*
X169289701Y-56778217D01*
X169178217Y-56889701D01*
X169178212Y-56889707D01*
X169178211Y-56889708D01*
X169090613Y-57020807D01*
X169090603Y-57020824D01*
X169090598Y-57020833D01*
X169030264Y-57166496D01*
X169030257Y-57166527D01*
X168999500Y-57321150D01*
X168999500Y-57321153D01*
X168999500Y-57478846D01*
X168999500Y-57478848D01*
X168999499Y-57478848D01*
X168400499Y-57478848D01*
X168400500Y-57478842D01*
X168400500Y-57321158D01*
X168400500Y-57321155D01*
X168400499Y-57321153D01*
X168378269Y-57209397D01*
X168378268Y-57209394D01*
X168375399Y-57194968D01*
X168369737Y-57166503D01*
X168336622Y-57086555D01*
X168309397Y-57020827D01*
X168309390Y-57020814D01*
X168221789Y-56889711D01*
X168221786Y-56889707D01*
X168221781Y-56889701D01*
X168110297Y-56778217D01*
X168110291Y-56778212D01*
X168110290Y-56778211D01*
X167979191Y-56690613D01*
X167979190Y-56690612D01*
X167979185Y-56690609D01*
X167979172Y-56690602D01*
X167979165Y-56690598D01*
X167833502Y-56630264D01*
X167833471Y-56630257D01*
X167678847Y-56599500D01*
X167678845Y-56599500D01*
X167678842Y-56599500D01*
X167521158Y-56599500D01*
X167521155Y-56599500D01*
X167521153Y-56599500D01*
X167366527Y-56630257D01*
X167366496Y-56630264D01*
X167220833Y-56690598D01*
X167220824Y-56690603D01*
X167220807Y-56690613D01*
X167089708Y-56778211D01*
X167089707Y-56778212D01*
X167089701Y-56778217D01*
X166978217Y-56889701D01*
X166978212Y-56889707D01*
X166978211Y-56889708D01*
X166890613Y-57020807D01*
X166890603Y-57020824D01*
X166890598Y-57020833D01*
X166830264Y-57166496D01*
X166830257Y-57166527D01*
X166799500Y-57321150D01*
X166799500Y-57321153D01*
X166799500Y-57478846D01*
X166799500Y-57478848D01*
X166799499Y-57478848D01*
X152000500Y-57478848D01*
X152000500Y-56578848D01*
X154099499Y-56578848D01*
X154130257Y-56733471D01*
X154130264Y-56733502D01*
X154190598Y-56879165D01*
X154190603Y-56879174D01*
X154190613Y-56879191D01*
X154278211Y-57010290D01*
X154278212Y-57010291D01*
X154278217Y-57010297D01*
X154389701Y-57121781D01*
X154389707Y-57121786D01*
X154389711Y-57121789D01*
X154520814Y-57209390D01*
X154520827Y-57209397D01*
X154666498Y-57269735D01*
X154666503Y-57269737D01*
X154821153Y-57300499D01*
X154821156Y-57300500D01*
X154821158Y-57300500D01*
X154978844Y-57300500D01*
X154978845Y-57300499D01*
X155133497Y-57269737D01*
X155279179Y-57209394D01*
X155279181Y-57209392D01*
X155279184Y-57209391D01*
X155343380Y-57166496D01*
X155410289Y-57121789D01*
X155521789Y-57010289D01*
X155609394Y-56879179D01*
X155669737Y-56733497D01*
X155700500Y-56578842D01*
X155700500Y-56421158D01*
X155700500Y-56421155D01*
X155700500Y-56420973D01*
X155700065Y-56418971D01*
X155680734Y-56321788D01*
X155680733Y-56321787D01*
X155669737Y-56266503D01*
X155609532Y-56121153D01*
X155609397Y-56120827D01*
X155609390Y-56120814D01*
X155521789Y-55989711D01*
X155521786Y-55989707D01*
X155521781Y-55989701D01*
X155410297Y-55878217D01*
X155410291Y-55878212D01*
X155410285Y-55878208D01*
X155279191Y-55790613D01*
X155279190Y-55790612D01*
X155279185Y-55790609D01*
X155279172Y-55790602D01*
X155279165Y-55790598D01*
X155133501Y-55730264D01*
X155133489Y-55730261D01*
X155133483Y-55730259D01*
X155133471Y-55730257D01*
X154978847Y-55699500D01*
X154978845Y-55699500D01*
X154978842Y-55699500D01*
X154821158Y-55699500D01*
X154821155Y-55699500D01*
X154821153Y-55699500D01*
X154666527Y-55730257D01*
X154666496Y-55730264D01*
X154520833Y-55790598D01*
X154520824Y-55790603D01*
X154520807Y-55790613D01*
X154389714Y-55878208D01*
X154389707Y-55878212D01*
X154389701Y-55878217D01*
X154278217Y-55989701D01*
X154278212Y-55989707D01*
X154278211Y-55989708D01*
X154190613Y-56120807D01*
X154190603Y-56120824D01*
X154190598Y-56120833D01*
X154130264Y-56266496D01*
X154130257Y-56266527D01*
X154099500Y-56421150D01*
X154099500Y-56421153D01*
X154099500Y-56578846D01*
X154099500Y-56578848D01*
X154099499Y-56578848D01*
X152000500Y-56578848D01*
X152000500Y-54978848D01*
X152826999Y-54978848D01*
X152857757Y-55133471D01*
X152857764Y-55133502D01*
X152918098Y-55279165D01*
X152918103Y-55279174D01*
X152918113Y-55279191D01*
X153005711Y-55410290D01*
X153005712Y-55410291D01*
X153005717Y-55410297D01*
X153117201Y-55521781D01*
X153117207Y-55521786D01*
X153117208Y-55521787D01*
X153117211Y-55521789D01*
X153248314Y-55609390D01*
X153248327Y-55609397D01*
X153393998Y-55669735D01*
X153394003Y-55669737D01*
X153543631Y-55699500D01*
X153548653Y-55700499D01*
X153548656Y-55700500D01*
X153548658Y-55700500D01*
X153706344Y-55700500D01*
X153706345Y-55700499D01*
X153860997Y-55669737D01*
X153978297Y-55621150D01*
X159099500Y-55621150D01*
X159099500Y-55778848D01*
X159130257Y-55933471D01*
X159130264Y-55933502D01*
X159190598Y-56079165D01*
X159190603Y-56079174D01*
X159190613Y-56079191D01*
X159278211Y-56210290D01*
X159278212Y-56210291D01*
X159278217Y-56210297D01*
X159389701Y-56321781D01*
X159389707Y-56321786D01*
X159389708Y-56321787D01*
X159389711Y-56321789D01*
X159520814Y-56409390D01*
X159520827Y-56409397D01*
X159666498Y-56469735D01*
X159666503Y-56469737D01*
X159821153Y-56500499D01*
X159821156Y-56500500D01*
X159821158Y-56500500D01*
X159978844Y-56500500D01*
X159978845Y-56500499D01*
X160133497Y-56469737D01*
X160279179Y-56409394D01*
X160279192Y-56409385D01*
X160410291Y-56321788D01*
X160410292Y-56321786D01*
X160521786Y-56210292D01*
X160521788Y-56210290D01*
X160521789Y-56210289D01*
X160542797Y-56178848D01*
X174199499Y-56178848D01*
X174230257Y-56333471D01*
X174230264Y-56333502D01*
X174290598Y-56479165D01*
X174290603Y-56479174D01*
X174290613Y-56479191D01*
X174378211Y-56610290D01*
X174378212Y-56610291D01*
X174378217Y-56610297D01*
X174489701Y-56721781D01*
X174489707Y-56721786D01*
X174489711Y-56721789D01*
X174620814Y-56809390D01*
X174620827Y-56809397D01*
X174766498Y-56869735D01*
X174766503Y-56869737D01*
X174897605Y-56895815D01*
X174921153Y-56900499D01*
X174921156Y-56900500D01*
X174921158Y-56900500D01*
X175078844Y-56900500D01*
X175078845Y-56900499D01*
X175233497Y-56869737D01*
X175379179Y-56809394D01*
X175510289Y-56721789D01*
X175621789Y-56610289D01*
X175709394Y-56479179D01*
X175769737Y-56333497D01*
X175800500Y-56178842D01*
X175800500Y-56021158D01*
X175800500Y-56021155D01*
X175800500Y-56020971D01*
X175800064Y-56018966D01*
X175772066Y-55878210D01*
X175772065Y-55878208D01*
X175769737Y-55866503D01*
X175750820Y-55820833D01*
X175733427Y-55778842D01*
X175709397Y-55720827D01*
X175709390Y-55720814D01*
X175621789Y-55589711D01*
X175621786Y-55589707D01*
X175621781Y-55589701D01*
X175510297Y-55478217D01*
X175510291Y-55478212D01*
X175510290Y-55478211D01*
X175379191Y-55390613D01*
X175379190Y-55390612D01*
X175379185Y-55390609D01*
X175379172Y-55390602D01*
X175379165Y-55390598D01*
X175233502Y-55330264D01*
X175233471Y-55330257D01*
X175078847Y-55299500D01*
X175078845Y-55299500D01*
X175078842Y-55299500D01*
X174921158Y-55299500D01*
X174921155Y-55299500D01*
X174921153Y-55299500D01*
X174766527Y-55330257D01*
X174766496Y-55330264D01*
X174620833Y-55390598D01*
X174620824Y-55390603D01*
X174620807Y-55390613D01*
X174489708Y-55478211D01*
X174489707Y-55478212D01*
X174489701Y-55478217D01*
X174378217Y-55589701D01*
X174378212Y-55589707D01*
X174378211Y-55589708D01*
X174290613Y-55720807D01*
X174290603Y-55720824D01*
X174290598Y-55720833D01*
X174230264Y-55866496D01*
X174230257Y-55866527D01*
X174199500Y-56021150D01*
X174199500Y-56021153D01*
X174199500Y-56178846D01*
X174199500Y-56178848D01*
X174199499Y-56178848D01*
X160542797Y-56178848D01*
X160609394Y-56079179D01*
X160646453Y-55989711D01*
X160655603Y-55967621D01*
X160655610Y-55967605D01*
X160655610Y-55967604D01*
X160656956Y-55964355D01*
X160656965Y-55964331D01*
X160669735Y-55933502D01*
X160669735Y-55933501D01*
X160669737Y-55933497D01*
X160698159Y-55790613D01*
X160700500Y-55778843D01*
X160700500Y-55620973D01*
X160700065Y-55618971D01*
X160680734Y-55521788D01*
X160669738Y-55466508D01*
X160669736Y-55466500D01*
X160666891Y-55459632D01*
X160657178Y-55436182D01*
X160652159Y-55424065D01*
X160609400Y-55320833D01*
X160609395Y-55320824D01*
X160609390Y-55320814D01*
X160521789Y-55189711D01*
X160521786Y-55189707D01*
X160521781Y-55189701D01*
X160410297Y-55078217D01*
X160410291Y-55078212D01*
X160410290Y-55078211D01*
X160279191Y-54990613D01*
X160279190Y-54990612D01*
X160279185Y-54990609D01*
X160279172Y-54990602D01*
X160279165Y-54990598D01*
X160133502Y-54930264D01*
X160133471Y-54930257D01*
X159978847Y-54899500D01*
X159978845Y-54899500D01*
X159978842Y-54899500D01*
X159821158Y-54899500D01*
X159821155Y-54899500D01*
X159821153Y-54899500D01*
X159666527Y-54930257D01*
X159666496Y-54930264D01*
X159520833Y-54990598D01*
X159520824Y-54990603D01*
X159520807Y-54990613D01*
X159389708Y-55078211D01*
X159389707Y-55078212D01*
X159389701Y-55078217D01*
X159278217Y-55189701D01*
X159278212Y-55189707D01*
X159278211Y-55189708D01*
X159190613Y-55320807D01*
X159190603Y-55320824D01*
X159190598Y-55320833D01*
X159130264Y-55466496D01*
X159130257Y-55466527D01*
X159099500Y-55621150D01*
X153978297Y-55621150D01*
X154006679Y-55609394D01*
X154053349Y-55578210D01*
X154137791Y-55521788D01*
X154137792Y-55521786D01*
X154249286Y-55410292D01*
X154249288Y-55410290D01*
X154249289Y-55410289D01*
X154336894Y-55279179D01*
X154397237Y-55133497D01*
X154428000Y-54978842D01*
X154428000Y-54821158D01*
X154428000Y-54821155D01*
X154428000Y-54820973D01*
X154427565Y-54818972D01*
X154397897Y-54669824D01*
X154397494Y-54667467D01*
X154397238Y-54666508D01*
X154397237Y-54666506D01*
X154397237Y-54666503D01*
X154397235Y-54666498D01*
X154336897Y-54520827D01*
X154336890Y-54520814D01*
X154249289Y-54389711D01*
X154249286Y-54389707D01*
X154249281Y-54389701D01*
X154137797Y-54278217D01*
X154137791Y-54278212D01*
X154137790Y-54278211D01*
X154006691Y-54190613D01*
X154006690Y-54190612D01*
X154006685Y-54190609D01*
X154006672Y-54190602D01*
X154006665Y-54190598D01*
X153861002Y-54130264D01*
X153860971Y-54130257D01*
X153706347Y-54099500D01*
X153706345Y-54099500D01*
X153706342Y-54099500D01*
X153548658Y-54099500D01*
X153548655Y-54099500D01*
X153548653Y-54099500D01*
X153394027Y-54130257D01*
X153393996Y-54130264D01*
X153248333Y-54190598D01*
X153248324Y-54190603D01*
X153248307Y-54190613D01*
X153117208Y-54278211D01*
X153117207Y-54278212D01*
X153117201Y-54278217D01*
X153005717Y-54389701D01*
X153005712Y-54389707D01*
X153005711Y-54389708D01*
X152918113Y-54520807D01*
X152918103Y-54520824D01*
X152918098Y-54520833D01*
X152857764Y-54666496D01*
X152857757Y-54666527D01*
X152827000Y-54821150D01*
X152827000Y-54821153D01*
X152827000Y-54978846D01*
X152827000Y-54978848D01*
X152826999Y-54978848D01*
X152000500Y-54978848D01*
X152000500Y-54011997D01*
X152005521Y-53977069D01*
X152006254Y-53974571D01*
X152009358Y-53963999D01*
X152047128Y-53905222D01*
X152110682Y-53876193D01*
X152172705Y-53883139D01*
X152180424Y-53886098D01*
X152204944Y-53898786D01*
X152220801Y-53909382D01*
X152220804Y-53909384D01*
X152220812Y-53909389D01*
X152220827Y-53909397D01*
X152366498Y-53969735D01*
X152366503Y-53969737D01*
X152496982Y-53995691D01*
X152513530Y-53998982D01*
X152516248Y-53999703D01*
X152521155Y-54000500D01*
X152678844Y-54000500D01*
X152682964Y-54000500D01*
X152690814Y-53998118D01*
X152833497Y-53969737D01*
X152977011Y-53910292D01*
X152979172Y-53909397D01*
X152979172Y-53909396D01*
X152979179Y-53909394D01*
X153110289Y-53821789D01*
X153221789Y-53710289D01*
X153309394Y-53579179D01*
X153369737Y-53433497D01*
X153400500Y-53278842D01*
X153400500Y-53121158D01*
X153400500Y-53121155D01*
X153400500Y-53120971D01*
X153400064Y-53118966D01*
X153380543Y-53020827D01*
X153375594Y-52995947D01*
X153369737Y-52966503D01*
X153337394Y-52888421D01*
X153328666Y-52854221D01*
X153327183Y-52840422D01*
X153339591Y-52771663D01*
X153387204Y-52720528D01*
X153391721Y-52717847D01*
X153454978Y-52700500D01*
X156162532Y-52700500D01*
X156162534Y-52700500D01*
X156334938Y-52670100D01*
X156499445Y-52610224D01*
X156651055Y-52522692D01*
X156785163Y-52410163D01*
X156897692Y-52276055D01*
X156985224Y-52124445D01*
X157045100Y-51959938D01*
X157075500Y-51787534D01*
X157075500Y-51700001D01*
X157075500Y-51634109D01*
X157075500Y-51634108D01*
X157075500Y-48842329D01*
X157080523Y-48807393D01*
X157084927Y-48792395D01*
X157122672Y-48733644D01*
X157124041Y-48732457D01*
X157178920Y-48704977D01*
X157186479Y-48703333D01*
X157212832Y-48700500D01*
X159632670Y-48700500D01*
X159667606Y-48705523D01*
G37*
%TD.AperFunction*%
%TD*%
M02*
