%TF.GenerationSoftware,KiCad,Pcbnew,10.0.1*%
%TF.CreationDate,2026-05-27T14:23:08+02:00*%
%TF.ProjectId,dongle,646f6e67-6c65-42e6-9b69-6361645f7063,rev?*%
%TF.SameCoordinates,Original*%
%TF.FileFunction,Legend,Top*%
%TF.FilePolarity,Positive*%
%FSLAX46Y46*%
G04 Gerber Fmt 4.6, Leading zero omitted, Abs format (unit mm)*
G04 Created by KiCad (PCBNEW 10.0.1) date 2026-05-27 14:23:08*
%MOMM*%
%LPD*%
G01*
G04 APERTURE LIST*
%ADD10C,0.100000*%
%ADD11C,0.300000*%
%ADD12C,0.150000*%
%ADD13C,0.120000*%
%ADD14C,0.000000*%
G04 APERTURE END LIST*
D10*
X174500000Y-58135000D02*
X173510000Y-59500000D01*
D11*
X156445489Y-84199171D02*
X156445489Y-85699171D01*
X156445489Y-85699171D02*
X155945489Y-84627742D01*
X155945489Y-84627742D02*
X155445489Y-85699171D01*
X155445489Y-85699171D02*
X155445489Y-84199171D01*
X154088346Y-84199171D02*
X154088346Y-84984885D01*
X154088346Y-84984885D02*
X154159774Y-85127742D01*
X154159774Y-85127742D02*
X154302631Y-85199171D01*
X154302631Y-85199171D02*
X154588346Y-85199171D01*
X154588346Y-85199171D02*
X154731203Y-85127742D01*
X154088346Y-84270600D02*
X154231203Y-84199171D01*
X154231203Y-84199171D02*
X154588346Y-84199171D01*
X154588346Y-84199171D02*
X154731203Y-84270600D01*
X154731203Y-84270600D02*
X154802631Y-84413457D01*
X154802631Y-84413457D02*
X154802631Y-84556314D01*
X154802631Y-84556314D02*
X154731203Y-84699171D01*
X154731203Y-84699171D02*
X154588346Y-84770600D01*
X154588346Y-84770600D02*
X154231203Y-84770600D01*
X154231203Y-84770600D02*
X154088346Y-84842028D01*
X152802631Y-84270600D02*
X152945488Y-84199171D01*
X152945488Y-84199171D02*
X153231203Y-84199171D01*
X153231203Y-84199171D02*
X153374060Y-84270600D01*
X153374060Y-84270600D02*
X153445488Y-84413457D01*
X153445488Y-84413457D02*
X153445488Y-84984885D01*
X153445488Y-84984885D02*
X153374060Y-85127742D01*
X153374060Y-85127742D02*
X153231203Y-85199171D01*
X153231203Y-85199171D02*
X152945488Y-85199171D01*
X152945488Y-85199171D02*
X152802631Y-85127742D01*
X152802631Y-85127742D02*
X152731203Y-84984885D01*
X152731203Y-84984885D02*
X152731203Y-84842028D01*
X152731203Y-84842028D02*
X153445488Y-84699171D01*
X156759774Y-89199171D02*
X156259774Y-87699171D01*
X156259774Y-87699171D02*
X155759774Y-89199171D01*
X154474060Y-87699171D02*
X155331203Y-87699171D01*
X154902632Y-87699171D02*
X154902632Y-89199171D01*
X154902632Y-89199171D02*
X155045489Y-88984885D01*
X155045489Y-88984885D02*
X155188346Y-88842028D01*
X155188346Y-88842028D02*
X155331203Y-88770600D01*
X153831204Y-87842028D02*
X153759775Y-87770600D01*
X153759775Y-87770600D02*
X153831204Y-87699171D01*
X153831204Y-87699171D02*
X153902632Y-87770600D01*
X153902632Y-87770600D02*
X153831204Y-87842028D01*
X153831204Y-87842028D02*
X153831204Y-87699171D01*
X152831203Y-89199171D02*
X152688346Y-89199171D01*
X152688346Y-89199171D02*
X152545489Y-89127742D01*
X152545489Y-89127742D02*
X152474061Y-89056314D01*
X152474061Y-89056314D02*
X152402632Y-88913457D01*
X152402632Y-88913457D02*
X152331203Y-88627742D01*
X152331203Y-88627742D02*
X152331203Y-88270600D01*
X152331203Y-88270600D02*
X152402632Y-87984885D01*
X152402632Y-87984885D02*
X152474061Y-87842028D01*
X152474061Y-87842028D02*
X152545489Y-87770600D01*
X152545489Y-87770600D02*
X152688346Y-87699171D01*
X152688346Y-87699171D02*
X152831203Y-87699171D01*
X152831203Y-87699171D02*
X152974061Y-87770600D01*
X152974061Y-87770600D02*
X153045489Y-87842028D01*
X153045489Y-87842028D02*
X153116918Y-87984885D01*
X153116918Y-87984885D02*
X153188346Y-88270600D01*
X153188346Y-88270600D02*
X153188346Y-88627742D01*
X153188346Y-88627742D02*
X153116918Y-88913457D01*
X153116918Y-88913457D02*
X153045489Y-89056314D01*
X153045489Y-89056314D02*
X152974061Y-89127742D01*
X152974061Y-89127742D02*
X152831203Y-89199171D01*
D12*
X173429580Y-53142857D02*
X173477200Y-53190476D01*
X173477200Y-53190476D02*
X173524819Y-53333333D01*
X173524819Y-53333333D02*
X173524819Y-53428571D01*
X173524819Y-53428571D02*
X173477200Y-53571428D01*
X173477200Y-53571428D02*
X173381961Y-53666666D01*
X173381961Y-53666666D02*
X173286723Y-53714285D01*
X173286723Y-53714285D02*
X173096247Y-53761904D01*
X173096247Y-53761904D02*
X172953390Y-53761904D01*
X172953390Y-53761904D02*
X172762914Y-53714285D01*
X172762914Y-53714285D02*
X172667676Y-53666666D01*
X172667676Y-53666666D02*
X172572438Y-53571428D01*
X172572438Y-53571428D02*
X172524819Y-53428571D01*
X172524819Y-53428571D02*
X172524819Y-53333333D01*
X172524819Y-53333333D02*
X172572438Y-53190476D01*
X172572438Y-53190476D02*
X172620057Y-53142857D01*
X173524819Y-52190476D02*
X173524819Y-52761904D01*
X173524819Y-52476190D02*
X172524819Y-52476190D01*
X172524819Y-52476190D02*
X172667676Y-52571428D01*
X172667676Y-52571428D02*
X172762914Y-52666666D01*
X172762914Y-52666666D02*
X172810533Y-52761904D01*
X172524819Y-51571428D02*
X172524819Y-51476190D01*
X172524819Y-51476190D02*
X172572438Y-51380952D01*
X172572438Y-51380952D02*
X172620057Y-51333333D01*
X172620057Y-51333333D02*
X172715295Y-51285714D01*
X172715295Y-51285714D02*
X172905771Y-51238095D01*
X172905771Y-51238095D02*
X173143866Y-51238095D01*
X173143866Y-51238095D02*
X173334342Y-51285714D01*
X173334342Y-51285714D02*
X173429580Y-51333333D01*
X173429580Y-51333333D02*
X173477200Y-51380952D01*
X173477200Y-51380952D02*
X173524819Y-51476190D01*
X173524819Y-51476190D02*
X173524819Y-51571428D01*
X173524819Y-51571428D02*
X173477200Y-51666666D01*
X173477200Y-51666666D02*
X173429580Y-51714285D01*
X173429580Y-51714285D02*
X173334342Y-51761904D01*
X173334342Y-51761904D02*
X173143866Y-51809523D01*
X173143866Y-51809523D02*
X172905771Y-51809523D01*
X172905771Y-51809523D02*
X172715295Y-51761904D01*
X172715295Y-51761904D02*
X172620057Y-51714285D01*
X172620057Y-51714285D02*
X172572438Y-51666666D01*
X172572438Y-51666666D02*
X172524819Y-51571428D01*
X180059580Y-55266666D02*
X180107200Y-55314285D01*
X180107200Y-55314285D02*
X180154819Y-55457142D01*
X180154819Y-55457142D02*
X180154819Y-55552380D01*
X180154819Y-55552380D02*
X180107200Y-55695237D01*
X180107200Y-55695237D02*
X180011961Y-55790475D01*
X180011961Y-55790475D02*
X179916723Y-55838094D01*
X179916723Y-55838094D02*
X179726247Y-55885713D01*
X179726247Y-55885713D02*
X179583390Y-55885713D01*
X179583390Y-55885713D02*
X179392914Y-55838094D01*
X179392914Y-55838094D02*
X179297676Y-55790475D01*
X179297676Y-55790475D02*
X179202438Y-55695237D01*
X179202438Y-55695237D02*
X179154819Y-55552380D01*
X179154819Y-55552380D02*
X179154819Y-55457142D01*
X179154819Y-55457142D02*
X179202438Y-55314285D01*
X179202438Y-55314285D02*
X179250057Y-55266666D01*
X179583390Y-54695237D02*
X179535771Y-54790475D01*
X179535771Y-54790475D02*
X179488152Y-54838094D01*
X179488152Y-54838094D02*
X179392914Y-54885713D01*
X179392914Y-54885713D02*
X179345295Y-54885713D01*
X179345295Y-54885713D02*
X179250057Y-54838094D01*
X179250057Y-54838094D02*
X179202438Y-54790475D01*
X179202438Y-54790475D02*
X179154819Y-54695237D01*
X179154819Y-54695237D02*
X179154819Y-54504761D01*
X179154819Y-54504761D02*
X179202438Y-54409523D01*
X179202438Y-54409523D02*
X179250057Y-54361904D01*
X179250057Y-54361904D02*
X179345295Y-54314285D01*
X179345295Y-54314285D02*
X179392914Y-54314285D01*
X179392914Y-54314285D02*
X179488152Y-54361904D01*
X179488152Y-54361904D02*
X179535771Y-54409523D01*
X179535771Y-54409523D02*
X179583390Y-54504761D01*
X179583390Y-54504761D02*
X179583390Y-54695237D01*
X179583390Y-54695237D02*
X179631009Y-54790475D01*
X179631009Y-54790475D02*
X179678628Y-54838094D01*
X179678628Y-54838094D02*
X179773866Y-54885713D01*
X179773866Y-54885713D02*
X179964342Y-54885713D01*
X179964342Y-54885713D02*
X180059580Y-54838094D01*
X180059580Y-54838094D02*
X180107200Y-54790475D01*
X180107200Y-54790475D02*
X180154819Y-54695237D01*
X180154819Y-54695237D02*
X180154819Y-54504761D01*
X180154819Y-54504761D02*
X180107200Y-54409523D01*
X180107200Y-54409523D02*
X180059580Y-54361904D01*
X180059580Y-54361904D02*
X179964342Y-54314285D01*
X179964342Y-54314285D02*
X179773866Y-54314285D01*
X179773866Y-54314285D02*
X179678628Y-54361904D01*
X179678628Y-54361904D02*
X179631009Y-54409523D01*
X179631009Y-54409523D02*
X179583390Y-54504761D01*
X178957142Y-60954819D02*
X178623809Y-60478628D01*
X178385714Y-60954819D02*
X178385714Y-59954819D01*
X178385714Y-59954819D02*
X178766666Y-59954819D01*
X178766666Y-59954819D02*
X178861904Y-60002438D01*
X178861904Y-60002438D02*
X178909523Y-60050057D01*
X178909523Y-60050057D02*
X178957142Y-60145295D01*
X178957142Y-60145295D02*
X178957142Y-60288152D01*
X178957142Y-60288152D02*
X178909523Y-60383390D01*
X178909523Y-60383390D02*
X178861904Y-60431009D01*
X178861904Y-60431009D02*
X178766666Y-60478628D01*
X178766666Y-60478628D02*
X178385714Y-60478628D01*
X179338095Y-60050057D02*
X179385714Y-60002438D01*
X179385714Y-60002438D02*
X179480952Y-59954819D01*
X179480952Y-59954819D02*
X179719047Y-59954819D01*
X179719047Y-59954819D02*
X179814285Y-60002438D01*
X179814285Y-60002438D02*
X179861904Y-60050057D01*
X179861904Y-60050057D02*
X179909523Y-60145295D01*
X179909523Y-60145295D02*
X179909523Y-60240533D01*
X179909523Y-60240533D02*
X179861904Y-60383390D01*
X179861904Y-60383390D02*
X179290476Y-60954819D01*
X179290476Y-60954819D02*
X179909523Y-60954819D01*
X180290476Y-60050057D02*
X180338095Y-60002438D01*
X180338095Y-60002438D02*
X180433333Y-59954819D01*
X180433333Y-59954819D02*
X180671428Y-59954819D01*
X180671428Y-59954819D02*
X180766666Y-60002438D01*
X180766666Y-60002438D02*
X180814285Y-60050057D01*
X180814285Y-60050057D02*
X180861904Y-60145295D01*
X180861904Y-60145295D02*
X180861904Y-60240533D01*
X180861904Y-60240533D02*
X180814285Y-60383390D01*
X180814285Y-60383390D02*
X180242857Y-60954819D01*
X180242857Y-60954819D02*
X180861904Y-60954819D01*
X180454819Y-66742857D02*
X179978628Y-67076190D01*
X180454819Y-67314285D02*
X179454819Y-67314285D01*
X179454819Y-67314285D02*
X179454819Y-66933333D01*
X179454819Y-66933333D02*
X179502438Y-66838095D01*
X179502438Y-66838095D02*
X179550057Y-66790476D01*
X179550057Y-66790476D02*
X179645295Y-66742857D01*
X179645295Y-66742857D02*
X179788152Y-66742857D01*
X179788152Y-66742857D02*
X179883390Y-66790476D01*
X179883390Y-66790476D02*
X179931009Y-66838095D01*
X179931009Y-66838095D02*
X179978628Y-66933333D01*
X179978628Y-66933333D02*
X179978628Y-67314285D01*
X180454819Y-65790476D02*
X180454819Y-66361904D01*
X180454819Y-66076190D02*
X179454819Y-66076190D01*
X179454819Y-66076190D02*
X179597676Y-66171428D01*
X179597676Y-66171428D02*
X179692914Y-66266666D01*
X179692914Y-66266666D02*
X179740533Y-66361904D01*
X179454819Y-64933333D02*
X179454819Y-65123809D01*
X179454819Y-65123809D02*
X179502438Y-65219047D01*
X179502438Y-65219047D02*
X179550057Y-65266666D01*
X179550057Y-65266666D02*
X179692914Y-65361904D01*
X179692914Y-65361904D02*
X179883390Y-65409523D01*
X179883390Y-65409523D02*
X180264342Y-65409523D01*
X180264342Y-65409523D02*
X180359580Y-65361904D01*
X180359580Y-65361904D02*
X180407200Y-65314285D01*
X180407200Y-65314285D02*
X180454819Y-65219047D01*
X180454819Y-65219047D02*
X180454819Y-65028571D01*
X180454819Y-65028571D02*
X180407200Y-64933333D01*
X180407200Y-64933333D02*
X180359580Y-64885714D01*
X180359580Y-64885714D02*
X180264342Y-64838095D01*
X180264342Y-64838095D02*
X180026247Y-64838095D01*
X180026247Y-64838095D02*
X179931009Y-64885714D01*
X179931009Y-64885714D02*
X179883390Y-64933333D01*
X179883390Y-64933333D02*
X179835771Y-65028571D01*
X179835771Y-65028571D02*
X179835771Y-65219047D01*
X179835771Y-65219047D02*
X179883390Y-65314285D01*
X179883390Y-65314285D02*
X179931009Y-65361904D01*
X179931009Y-65361904D02*
X180026247Y-65409523D01*
X166166666Y-90354819D02*
X166166666Y-91069104D01*
X166166666Y-91069104D02*
X166119047Y-91211961D01*
X166119047Y-91211961D02*
X166023809Y-91307200D01*
X166023809Y-91307200D02*
X165880952Y-91354819D01*
X165880952Y-91354819D02*
X165785714Y-91354819D01*
X166595238Y-90450057D02*
X166642857Y-90402438D01*
X166642857Y-90402438D02*
X166738095Y-90354819D01*
X166738095Y-90354819D02*
X166976190Y-90354819D01*
X166976190Y-90354819D02*
X167071428Y-90402438D01*
X167071428Y-90402438D02*
X167119047Y-90450057D01*
X167119047Y-90450057D02*
X167166666Y-90545295D01*
X167166666Y-90545295D02*
X167166666Y-90640533D01*
X167166666Y-90640533D02*
X167119047Y-90783390D01*
X167119047Y-90783390D02*
X166547619Y-91354819D01*
X166547619Y-91354819D02*
X167166666Y-91354819D01*
D10*
X159746428Y-52133609D02*
X159889285Y-52181228D01*
X159889285Y-52181228D02*
X159936904Y-52228847D01*
X159936904Y-52228847D02*
X159984523Y-52324085D01*
X159984523Y-52324085D02*
X159984523Y-52466942D01*
X159984523Y-52466942D02*
X159936904Y-52562180D01*
X159936904Y-52562180D02*
X159889285Y-52609800D01*
X159889285Y-52609800D02*
X159794047Y-52657419D01*
X159794047Y-52657419D02*
X159413095Y-52657419D01*
X159413095Y-52657419D02*
X159413095Y-51657419D01*
X159413095Y-51657419D02*
X159746428Y-51657419D01*
X159746428Y-51657419D02*
X159841666Y-51705038D01*
X159841666Y-51705038D02*
X159889285Y-51752657D01*
X159889285Y-51752657D02*
X159936904Y-51847895D01*
X159936904Y-51847895D02*
X159936904Y-51943133D01*
X159936904Y-51943133D02*
X159889285Y-52038371D01*
X159889285Y-52038371D02*
X159841666Y-52085990D01*
X159841666Y-52085990D02*
X159746428Y-52133609D01*
X159746428Y-52133609D02*
X159413095Y-52133609D01*
D12*
X175754819Y-82466666D02*
X175278628Y-82799999D01*
X175754819Y-83038094D02*
X174754819Y-83038094D01*
X174754819Y-83038094D02*
X174754819Y-82657142D01*
X174754819Y-82657142D02*
X174802438Y-82561904D01*
X174802438Y-82561904D02*
X174850057Y-82514285D01*
X174850057Y-82514285D02*
X174945295Y-82466666D01*
X174945295Y-82466666D02*
X175088152Y-82466666D01*
X175088152Y-82466666D02*
X175183390Y-82514285D01*
X175183390Y-82514285D02*
X175231009Y-82561904D01*
X175231009Y-82561904D02*
X175278628Y-82657142D01*
X175278628Y-82657142D02*
X175278628Y-83038094D01*
X175754819Y-81514285D02*
X175754819Y-82085713D01*
X175754819Y-81799999D02*
X174754819Y-81799999D01*
X174754819Y-81799999D02*
X174897676Y-81895237D01*
X174897676Y-81895237D02*
X174992914Y-81990475D01*
X174992914Y-81990475D02*
X175040533Y-82085713D01*
X171033333Y-63659580D02*
X170985714Y-63707200D01*
X170985714Y-63707200D02*
X170842857Y-63754819D01*
X170842857Y-63754819D02*
X170747619Y-63754819D01*
X170747619Y-63754819D02*
X170604762Y-63707200D01*
X170604762Y-63707200D02*
X170509524Y-63611961D01*
X170509524Y-63611961D02*
X170461905Y-63516723D01*
X170461905Y-63516723D02*
X170414286Y-63326247D01*
X170414286Y-63326247D02*
X170414286Y-63183390D01*
X170414286Y-63183390D02*
X170461905Y-62992914D01*
X170461905Y-62992914D02*
X170509524Y-62897676D01*
X170509524Y-62897676D02*
X170604762Y-62802438D01*
X170604762Y-62802438D02*
X170747619Y-62754819D01*
X170747619Y-62754819D02*
X170842857Y-62754819D01*
X170842857Y-62754819D02*
X170985714Y-62802438D01*
X170985714Y-62802438D02*
X171033333Y-62850057D01*
X171890476Y-63088152D02*
X171890476Y-63754819D01*
X171652381Y-62707200D02*
X171414286Y-63421485D01*
X171414286Y-63421485D02*
X172033333Y-63421485D01*
X154854819Y-79711904D02*
X155664342Y-79711904D01*
X155664342Y-79711904D02*
X155759580Y-79664285D01*
X155759580Y-79664285D02*
X155807200Y-79616666D01*
X155807200Y-79616666D02*
X155854819Y-79521428D01*
X155854819Y-79521428D02*
X155854819Y-79330952D01*
X155854819Y-79330952D02*
X155807200Y-79235714D01*
X155807200Y-79235714D02*
X155759580Y-79188095D01*
X155759580Y-79188095D02*
X155664342Y-79140476D01*
X155664342Y-79140476D02*
X154854819Y-79140476D01*
X154854819Y-78759523D02*
X154854819Y-78092857D01*
X154854819Y-78092857D02*
X155854819Y-78521428D01*
X175954819Y-66766666D02*
X175478628Y-67099999D01*
X175954819Y-67338094D02*
X174954819Y-67338094D01*
X174954819Y-67338094D02*
X174954819Y-66957142D01*
X174954819Y-66957142D02*
X175002438Y-66861904D01*
X175002438Y-66861904D02*
X175050057Y-66814285D01*
X175050057Y-66814285D02*
X175145295Y-66766666D01*
X175145295Y-66766666D02*
X175288152Y-66766666D01*
X175288152Y-66766666D02*
X175383390Y-66814285D01*
X175383390Y-66814285D02*
X175431009Y-66861904D01*
X175431009Y-66861904D02*
X175478628Y-66957142D01*
X175478628Y-66957142D02*
X175478628Y-67338094D01*
X175288152Y-65909523D02*
X175954819Y-65909523D01*
X174907200Y-66147618D02*
X175621485Y-66385713D01*
X175621485Y-66385713D02*
X175621485Y-65766666D01*
X180454819Y-72866666D02*
X179978628Y-73199999D01*
X180454819Y-73438094D02*
X179454819Y-73438094D01*
X179454819Y-73438094D02*
X179454819Y-73057142D01*
X179454819Y-73057142D02*
X179502438Y-72961904D01*
X179502438Y-72961904D02*
X179550057Y-72914285D01*
X179550057Y-72914285D02*
X179645295Y-72866666D01*
X179645295Y-72866666D02*
X179788152Y-72866666D01*
X179788152Y-72866666D02*
X179883390Y-72914285D01*
X179883390Y-72914285D02*
X179931009Y-72961904D01*
X179931009Y-72961904D02*
X179978628Y-73057142D01*
X179978628Y-73057142D02*
X179978628Y-73438094D01*
X179454819Y-71961904D02*
X179454819Y-72438094D01*
X179454819Y-72438094D02*
X179931009Y-72485713D01*
X179931009Y-72485713D02*
X179883390Y-72438094D01*
X179883390Y-72438094D02*
X179835771Y-72342856D01*
X179835771Y-72342856D02*
X179835771Y-72104761D01*
X179835771Y-72104761D02*
X179883390Y-72009523D01*
X179883390Y-72009523D02*
X179931009Y-71961904D01*
X179931009Y-71961904D02*
X180026247Y-71914285D01*
X180026247Y-71914285D02*
X180264342Y-71914285D01*
X180264342Y-71914285D02*
X180359580Y-71961904D01*
X180359580Y-71961904D02*
X180407200Y-72009523D01*
X180407200Y-72009523D02*
X180454819Y-72104761D01*
X180454819Y-72104761D02*
X180454819Y-72342856D01*
X180454819Y-72342856D02*
X180407200Y-72438094D01*
X180407200Y-72438094D02*
X180359580Y-72485713D01*
X177354819Y-72766666D02*
X176878628Y-73099999D01*
X177354819Y-73338094D02*
X176354819Y-73338094D01*
X176354819Y-73338094D02*
X176354819Y-72957142D01*
X176354819Y-72957142D02*
X176402438Y-72861904D01*
X176402438Y-72861904D02*
X176450057Y-72814285D01*
X176450057Y-72814285D02*
X176545295Y-72766666D01*
X176545295Y-72766666D02*
X176688152Y-72766666D01*
X176688152Y-72766666D02*
X176783390Y-72814285D01*
X176783390Y-72814285D02*
X176831009Y-72861904D01*
X176831009Y-72861904D02*
X176878628Y-72957142D01*
X176878628Y-72957142D02*
X176878628Y-73338094D01*
X176783390Y-72195237D02*
X176735771Y-72290475D01*
X176735771Y-72290475D02*
X176688152Y-72338094D01*
X176688152Y-72338094D02*
X176592914Y-72385713D01*
X176592914Y-72385713D02*
X176545295Y-72385713D01*
X176545295Y-72385713D02*
X176450057Y-72338094D01*
X176450057Y-72338094D02*
X176402438Y-72290475D01*
X176402438Y-72290475D02*
X176354819Y-72195237D01*
X176354819Y-72195237D02*
X176354819Y-72004761D01*
X176354819Y-72004761D02*
X176402438Y-71909523D01*
X176402438Y-71909523D02*
X176450057Y-71861904D01*
X176450057Y-71861904D02*
X176545295Y-71814285D01*
X176545295Y-71814285D02*
X176592914Y-71814285D01*
X176592914Y-71814285D02*
X176688152Y-71861904D01*
X176688152Y-71861904D02*
X176735771Y-71909523D01*
X176735771Y-71909523D02*
X176783390Y-72004761D01*
X176783390Y-72004761D02*
X176783390Y-72195237D01*
X176783390Y-72195237D02*
X176831009Y-72290475D01*
X176831009Y-72290475D02*
X176878628Y-72338094D01*
X176878628Y-72338094D02*
X176973866Y-72385713D01*
X176973866Y-72385713D02*
X177164342Y-72385713D01*
X177164342Y-72385713D02*
X177259580Y-72338094D01*
X177259580Y-72338094D02*
X177307200Y-72290475D01*
X177307200Y-72290475D02*
X177354819Y-72195237D01*
X177354819Y-72195237D02*
X177354819Y-72004761D01*
X177354819Y-72004761D02*
X177307200Y-71909523D01*
X177307200Y-71909523D02*
X177259580Y-71861904D01*
X177259580Y-71861904D02*
X177164342Y-71814285D01*
X177164342Y-71814285D02*
X176973866Y-71814285D01*
X176973866Y-71814285D02*
X176878628Y-71861904D01*
X176878628Y-71861904D02*
X176831009Y-71909523D01*
X176831009Y-71909523D02*
X176783390Y-72004761D01*
X177354819Y-82466666D02*
X176878628Y-82799999D01*
X177354819Y-83038094D02*
X176354819Y-83038094D01*
X176354819Y-83038094D02*
X176354819Y-82657142D01*
X176354819Y-82657142D02*
X176402438Y-82561904D01*
X176402438Y-82561904D02*
X176450057Y-82514285D01*
X176450057Y-82514285D02*
X176545295Y-82466666D01*
X176545295Y-82466666D02*
X176688152Y-82466666D01*
X176688152Y-82466666D02*
X176783390Y-82514285D01*
X176783390Y-82514285D02*
X176831009Y-82561904D01*
X176831009Y-82561904D02*
X176878628Y-82657142D01*
X176878628Y-82657142D02*
X176878628Y-83038094D01*
X176450057Y-82085713D02*
X176402438Y-82038094D01*
X176402438Y-82038094D02*
X176354819Y-81942856D01*
X176354819Y-81942856D02*
X176354819Y-81704761D01*
X176354819Y-81704761D02*
X176402438Y-81609523D01*
X176402438Y-81609523D02*
X176450057Y-81561904D01*
X176450057Y-81561904D02*
X176545295Y-81514285D01*
X176545295Y-81514285D02*
X176640533Y-81514285D01*
X176640533Y-81514285D02*
X176783390Y-81561904D01*
X176783390Y-81561904D02*
X177354819Y-82133332D01*
X177354819Y-82133332D02*
X177354819Y-81514285D01*
X178954819Y-72866666D02*
X178478628Y-73199999D01*
X178954819Y-73438094D02*
X177954819Y-73438094D01*
X177954819Y-73438094D02*
X177954819Y-73057142D01*
X177954819Y-73057142D02*
X178002438Y-72961904D01*
X178002438Y-72961904D02*
X178050057Y-72914285D01*
X178050057Y-72914285D02*
X178145295Y-72866666D01*
X178145295Y-72866666D02*
X178288152Y-72866666D01*
X178288152Y-72866666D02*
X178383390Y-72914285D01*
X178383390Y-72914285D02*
X178431009Y-72961904D01*
X178431009Y-72961904D02*
X178478628Y-73057142D01*
X178478628Y-73057142D02*
X178478628Y-73438094D01*
X177954819Y-72533332D02*
X177954819Y-71914285D01*
X177954819Y-71914285D02*
X178335771Y-72247618D01*
X178335771Y-72247618D02*
X178335771Y-72104761D01*
X178335771Y-72104761D02*
X178383390Y-72009523D01*
X178383390Y-72009523D02*
X178431009Y-71961904D01*
X178431009Y-71961904D02*
X178526247Y-71914285D01*
X178526247Y-71914285D02*
X178764342Y-71914285D01*
X178764342Y-71914285D02*
X178859580Y-71961904D01*
X178859580Y-71961904D02*
X178907200Y-72009523D01*
X178907200Y-72009523D02*
X178954819Y-72104761D01*
X178954819Y-72104761D02*
X178954819Y-72390475D01*
X178954819Y-72390475D02*
X178907200Y-72485713D01*
X178907200Y-72485713D02*
X178859580Y-72533332D01*
X157733333Y-62659580D02*
X157685714Y-62707200D01*
X157685714Y-62707200D02*
X157542857Y-62754819D01*
X157542857Y-62754819D02*
X157447619Y-62754819D01*
X157447619Y-62754819D02*
X157304762Y-62707200D01*
X157304762Y-62707200D02*
X157209524Y-62611961D01*
X157209524Y-62611961D02*
X157161905Y-62516723D01*
X157161905Y-62516723D02*
X157114286Y-62326247D01*
X157114286Y-62326247D02*
X157114286Y-62183390D01*
X157114286Y-62183390D02*
X157161905Y-61992914D01*
X157161905Y-61992914D02*
X157209524Y-61897676D01*
X157209524Y-61897676D02*
X157304762Y-61802438D01*
X157304762Y-61802438D02*
X157447619Y-61754819D01*
X157447619Y-61754819D02*
X157542857Y-61754819D01*
X157542857Y-61754819D02*
X157685714Y-61802438D01*
X157685714Y-61802438D02*
X157733333Y-61850057D01*
X158638095Y-61754819D02*
X158161905Y-61754819D01*
X158161905Y-61754819D02*
X158114286Y-62231009D01*
X158114286Y-62231009D02*
X158161905Y-62183390D01*
X158161905Y-62183390D02*
X158257143Y-62135771D01*
X158257143Y-62135771D02*
X158495238Y-62135771D01*
X158495238Y-62135771D02*
X158590476Y-62183390D01*
X158590476Y-62183390D02*
X158638095Y-62231009D01*
X158638095Y-62231009D02*
X158685714Y-62326247D01*
X158685714Y-62326247D02*
X158685714Y-62564342D01*
X158685714Y-62564342D02*
X158638095Y-62659580D01*
X158638095Y-62659580D02*
X158590476Y-62707200D01*
X158590476Y-62707200D02*
X158495238Y-62754819D01*
X158495238Y-62754819D02*
X158257143Y-62754819D01*
X158257143Y-62754819D02*
X158161905Y-62707200D01*
X158161905Y-62707200D02*
X158114286Y-62659580D01*
X164833333Y-63259580D02*
X164785714Y-63307200D01*
X164785714Y-63307200D02*
X164642857Y-63354819D01*
X164642857Y-63354819D02*
X164547619Y-63354819D01*
X164547619Y-63354819D02*
X164404762Y-63307200D01*
X164404762Y-63307200D02*
X164309524Y-63211961D01*
X164309524Y-63211961D02*
X164261905Y-63116723D01*
X164261905Y-63116723D02*
X164214286Y-62926247D01*
X164214286Y-62926247D02*
X164214286Y-62783390D01*
X164214286Y-62783390D02*
X164261905Y-62592914D01*
X164261905Y-62592914D02*
X164309524Y-62497676D01*
X164309524Y-62497676D02*
X164404762Y-62402438D01*
X164404762Y-62402438D02*
X164547619Y-62354819D01*
X164547619Y-62354819D02*
X164642857Y-62354819D01*
X164642857Y-62354819D02*
X164785714Y-62402438D01*
X164785714Y-62402438D02*
X164833333Y-62450057D01*
X165785714Y-63354819D02*
X165214286Y-63354819D01*
X165500000Y-63354819D02*
X165500000Y-62354819D01*
X165500000Y-62354819D02*
X165404762Y-62497676D01*
X165404762Y-62497676D02*
X165309524Y-62592914D01*
X165309524Y-62592914D02*
X165214286Y-62640533D01*
X174254819Y-66742857D02*
X173778628Y-67076190D01*
X174254819Y-67314285D02*
X173254819Y-67314285D01*
X173254819Y-67314285D02*
X173254819Y-66933333D01*
X173254819Y-66933333D02*
X173302438Y-66838095D01*
X173302438Y-66838095D02*
X173350057Y-66790476D01*
X173350057Y-66790476D02*
X173445295Y-66742857D01*
X173445295Y-66742857D02*
X173588152Y-66742857D01*
X173588152Y-66742857D02*
X173683390Y-66790476D01*
X173683390Y-66790476D02*
X173731009Y-66838095D01*
X173731009Y-66838095D02*
X173778628Y-66933333D01*
X173778628Y-66933333D02*
X173778628Y-67314285D01*
X174254819Y-65790476D02*
X174254819Y-66361904D01*
X174254819Y-66076190D02*
X173254819Y-66076190D01*
X173254819Y-66076190D02*
X173397676Y-66171428D01*
X173397676Y-66171428D02*
X173492914Y-66266666D01*
X173492914Y-66266666D02*
X173540533Y-66361904D01*
X174254819Y-65314285D02*
X174254819Y-65123809D01*
X174254819Y-65123809D02*
X174207200Y-65028571D01*
X174207200Y-65028571D02*
X174159580Y-64980952D01*
X174159580Y-64980952D02*
X174016723Y-64885714D01*
X174016723Y-64885714D02*
X173826247Y-64838095D01*
X173826247Y-64838095D02*
X173445295Y-64838095D01*
X173445295Y-64838095D02*
X173350057Y-64885714D01*
X173350057Y-64885714D02*
X173302438Y-64933333D01*
X173302438Y-64933333D02*
X173254819Y-65028571D01*
X173254819Y-65028571D02*
X173254819Y-65219047D01*
X173254819Y-65219047D02*
X173302438Y-65314285D01*
X173302438Y-65314285D02*
X173350057Y-65361904D01*
X173350057Y-65361904D02*
X173445295Y-65409523D01*
X173445295Y-65409523D02*
X173683390Y-65409523D01*
X173683390Y-65409523D02*
X173778628Y-65361904D01*
X173778628Y-65361904D02*
X173826247Y-65314285D01*
X173826247Y-65314285D02*
X173873866Y-65219047D01*
X173873866Y-65219047D02*
X173873866Y-65028571D01*
X173873866Y-65028571D02*
X173826247Y-64933333D01*
X173826247Y-64933333D02*
X173778628Y-64885714D01*
X173778628Y-64885714D02*
X173683390Y-64838095D01*
X178957142Y-59454819D02*
X178623809Y-58978628D01*
X178385714Y-59454819D02*
X178385714Y-58454819D01*
X178385714Y-58454819D02*
X178766666Y-58454819D01*
X178766666Y-58454819D02*
X178861904Y-58502438D01*
X178861904Y-58502438D02*
X178909523Y-58550057D01*
X178909523Y-58550057D02*
X178957142Y-58645295D01*
X178957142Y-58645295D02*
X178957142Y-58788152D01*
X178957142Y-58788152D02*
X178909523Y-58883390D01*
X178909523Y-58883390D02*
X178861904Y-58931009D01*
X178861904Y-58931009D02*
X178766666Y-58978628D01*
X178766666Y-58978628D02*
X178385714Y-58978628D01*
X179909523Y-59454819D02*
X179338095Y-59454819D01*
X179623809Y-59454819D02*
X179623809Y-58454819D01*
X179623809Y-58454819D02*
X179528571Y-58597676D01*
X179528571Y-58597676D02*
X179433333Y-58692914D01*
X179433333Y-58692914D02*
X179338095Y-58740533D01*
X180480952Y-58883390D02*
X180385714Y-58835771D01*
X180385714Y-58835771D02*
X180338095Y-58788152D01*
X180338095Y-58788152D02*
X180290476Y-58692914D01*
X180290476Y-58692914D02*
X180290476Y-58645295D01*
X180290476Y-58645295D02*
X180338095Y-58550057D01*
X180338095Y-58550057D02*
X180385714Y-58502438D01*
X180385714Y-58502438D02*
X180480952Y-58454819D01*
X180480952Y-58454819D02*
X180671428Y-58454819D01*
X180671428Y-58454819D02*
X180766666Y-58502438D01*
X180766666Y-58502438D02*
X180814285Y-58550057D01*
X180814285Y-58550057D02*
X180861904Y-58645295D01*
X180861904Y-58645295D02*
X180861904Y-58692914D01*
X180861904Y-58692914D02*
X180814285Y-58788152D01*
X180814285Y-58788152D02*
X180766666Y-58835771D01*
X180766666Y-58835771D02*
X180671428Y-58883390D01*
X180671428Y-58883390D02*
X180480952Y-58883390D01*
X180480952Y-58883390D02*
X180385714Y-58931009D01*
X180385714Y-58931009D02*
X180338095Y-58978628D01*
X180338095Y-58978628D02*
X180290476Y-59073866D01*
X180290476Y-59073866D02*
X180290476Y-59264342D01*
X180290476Y-59264342D02*
X180338095Y-59359580D01*
X180338095Y-59359580D02*
X180385714Y-59407200D01*
X180385714Y-59407200D02*
X180480952Y-59454819D01*
X180480952Y-59454819D02*
X180671428Y-59454819D01*
X180671428Y-59454819D02*
X180766666Y-59407200D01*
X180766666Y-59407200D02*
X180814285Y-59359580D01*
X180814285Y-59359580D02*
X180861904Y-59264342D01*
X180861904Y-59264342D02*
X180861904Y-59073866D01*
X180861904Y-59073866D02*
X180814285Y-58978628D01*
X180814285Y-58978628D02*
X180766666Y-58931009D01*
X180766666Y-58931009D02*
X180671428Y-58883390D01*
X179033333Y-62359580D02*
X178985714Y-62407200D01*
X178985714Y-62407200D02*
X178842857Y-62454819D01*
X178842857Y-62454819D02*
X178747619Y-62454819D01*
X178747619Y-62454819D02*
X178604762Y-62407200D01*
X178604762Y-62407200D02*
X178509524Y-62311961D01*
X178509524Y-62311961D02*
X178461905Y-62216723D01*
X178461905Y-62216723D02*
X178414286Y-62026247D01*
X178414286Y-62026247D02*
X178414286Y-61883390D01*
X178414286Y-61883390D02*
X178461905Y-61692914D01*
X178461905Y-61692914D02*
X178509524Y-61597676D01*
X178509524Y-61597676D02*
X178604762Y-61502438D01*
X178604762Y-61502438D02*
X178747619Y-61454819D01*
X178747619Y-61454819D02*
X178842857Y-61454819D01*
X178842857Y-61454819D02*
X178985714Y-61502438D01*
X178985714Y-61502438D02*
X179033333Y-61550057D01*
X179366667Y-61454819D02*
X180033333Y-61454819D01*
X180033333Y-61454819D02*
X179604762Y-62454819D01*
X174154819Y-72766666D02*
X173678628Y-73099999D01*
X174154819Y-73338094D02*
X173154819Y-73338094D01*
X173154819Y-73338094D02*
X173154819Y-72957142D01*
X173154819Y-72957142D02*
X173202438Y-72861904D01*
X173202438Y-72861904D02*
X173250057Y-72814285D01*
X173250057Y-72814285D02*
X173345295Y-72766666D01*
X173345295Y-72766666D02*
X173488152Y-72766666D01*
X173488152Y-72766666D02*
X173583390Y-72814285D01*
X173583390Y-72814285D02*
X173631009Y-72861904D01*
X173631009Y-72861904D02*
X173678628Y-72957142D01*
X173678628Y-72957142D02*
X173678628Y-73338094D01*
X173154819Y-71909523D02*
X173154819Y-72099999D01*
X173154819Y-72099999D02*
X173202438Y-72195237D01*
X173202438Y-72195237D02*
X173250057Y-72242856D01*
X173250057Y-72242856D02*
X173392914Y-72338094D01*
X173392914Y-72338094D02*
X173583390Y-72385713D01*
X173583390Y-72385713D02*
X173964342Y-72385713D01*
X173964342Y-72385713D02*
X174059580Y-72338094D01*
X174059580Y-72338094D02*
X174107200Y-72290475D01*
X174107200Y-72290475D02*
X174154819Y-72195237D01*
X174154819Y-72195237D02*
X174154819Y-72004761D01*
X174154819Y-72004761D02*
X174107200Y-71909523D01*
X174107200Y-71909523D02*
X174059580Y-71861904D01*
X174059580Y-71861904D02*
X173964342Y-71814285D01*
X173964342Y-71814285D02*
X173726247Y-71814285D01*
X173726247Y-71814285D02*
X173631009Y-71861904D01*
X173631009Y-71861904D02*
X173583390Y-71909523D01*
X173583390Y-71909523D02*
X173535771Y-72004761D01*
X173535771Y-72004761D02*
X173535771Y-72195237D01*
X173535771Y-72195237D02*
X173583390Y-72290475D01*
X173583390Y-72290475D02*
X173631009Y-72338094D01*
X173631009Y-72338094D02*
X173726247Y-72385713D01*
X174154819Y-82466666D02*
X173678628Y-82799999D01*
X174154819Y-83038094D02*
X173154819Y-83038094D01*
X173154819Y-83038094D02*
X173154819Y-82657142D01*
X173154819Y-82657142D02*
X173202438Y-82561904D01*
X173202438Y-82561904D02*
X173250057Y-82514285D01*
X173250057Y-82514285D02*
X173345295Y-82466666D01*
X173345295Y-82466666D02*
X173488152Y-82466666D01*
X173488152Y-82466666D02*
X173583390Y-82514285D01*
X173583390Y-82514285D02*
X173631009Y-82561904D01*
X173631009Y-82561904D02*
X173678628Y-82657142D01*
X173678628Y-82657142D02*
X173678628Y-83038094D01*
X173154819Y-82133332D02*
X173154819Y-81466666D01*
X173154819Y-81466666D02*
X174154819Y-81895237D01*
X173408333Y-63959580D02*
X173360714Y-64007200D01*
X173360714Y-64007200D02*
X173217857Y-64054819D01*
X173217857Y-64054819D02*
X173122619Y-64054819D01*
X173122619Y-64054819D02*
X172979762Y-64007200D01*
X172979762Y-64007200D02*
X172884524Y-63911961D01*
X172884524Y-63911961D02*
X172836905Y-63816723D01*
X172836905Y-63816723D02*
X172789286Y-63626247D01*
X172789286Y-63626247D02*
X172789286Y-63483390D01*
X172789286Y-63483390D02*
X172836905Y-63292914D01*
X172836905Y-63292914D02*
X172884524Y-63197676D01*
X172884524Y-63197676D02*
X172979762Y-63102438D01*
X172979762Y-63102438D02*
X173122619Y-63054819D01*
X173122619Y-63054819D02*
X173217857Y-63054819D01*
X173217857Y-63054819D02*
X173360714Y-63102438D01*
X173360714Y-63102438D02*
X173408333Y-63150057D01*
X174265476Y-63054819D02*
X174075000Y-63054819D01*
X174075000Y-63054819D02*
X173979762Y-63102438D01*
X173979762Y-63102438D02*
X173932143Y-63150057D01*
X173932143Y-63150057D02*
X173836905Y-63292914D01*
X173836905Y-63292914D02*
X173789286Y-63483390D01*
X173789286Y-63483390D02*
X173789286Y-63864342D01*
X173789286Y-63864342D02*
X173836905Y-63959580D01*
X173836905Y-63959580D02*
X173884524Y-64007200D01*
X173884524Y-64007200D02*
X173979762Y-64054819D01*
X173979762Y-64054819D02*
X174170238Y-64054819D01*
X174170238Y-64054819D02*
X174265476Y-64007200D01*
X174265476Y-64007200D02*
X174313095Y-63959580D01*
X174313095Y-63959580D02*
X174360714Y-63864342D01*
X174360714Y-63864342D02*
X174360714Y-63626247D01*
X174360714Y-63626247D02*
X174313095Y-63531009D01*
X174313095Y-63531009D02*
X174265476Y-63483390D01*
X174265476Y-63483390D02*
X174170238Y-63435771D01*
X174170238Y-63435771D02*
X173979762Y-63435771D01*
X173979762Y-63435771D02*
X173884524Y-63483390D01*
X173884524Y-63483390D02*
X173836905Y-63531009D01*
X173836905Y-63531009D02*
X173789286Y-63626247D01*
X153033333Y-53754819D02*
X152700000Y-53278628D01*
X152461905Y-53754819D02*
X152461905Y-52754819D01*
X152461905Y-52754819D02*
X152842857Y-52754819D01*
X152842857Y-52754819D02*
X152938095Y-52802438D01*
X152938095Y-52802438D02*
X152985714Y-52850057D01*
X152985714Y-52850057D02*
X153033333Y-52945295D01*
X153033333Y-52945295D02*
X153033333Y-53088152D01*
X153033333Y-53088152D02*
X152985714Y-53183390D01*
X152985714Y-53183390D02*
X152938095Y-53231009D01*
X152938095Y-53231009D02*
X152842857Y-53278628D01*
X152842857Y-53278628D02*
X152461905Y-53278628D01*
X153509524Y-53754819D02*
X153700000Y-53754819D01*
X153700000Y-53754819D02*
X153795238Y-53707200D01*
X153795238Y-53707200D02*
X153842857Y-53659580D01*
X153842857Y-53659580D02*
X153938095Y-53516723D01*
X153938095Y-53516723D02*
X153985714Y-53326247D01*
X153985714Y-53326247D02*
X153985714Y-52945295D01*
X153985714Y-52945295D02*
X153938095Y-52850057D01*
X153938095Y-52850057D02*
X153890476Y-52802438D01*
X153890476Y-52802438D02*
X153795238Y-52754819D01*
X153795238Y-52754819D02*
X153604762Y-52754819D01*
X153604762Y-52754819D02*
X153509524Y-52802438D01*
X153509524Y-52802438D02*
X153461905Y-52850057D01*
X153461905Y-52850057D02*
X153414286Y-52945295D01*
X153414286Y-52945295D02*
X153414286Y-53183390D01*
X153414286Y-53183390D02*
X153461905Y-53278628D01*
X153461905Y-53278628D02*
X153509524Y-53326247D01*
X153509524Y-53326247D02*
X153604762Y-53373866D01*
X153604762Y-53373866D02*
X153795238Y-53373866D01*
X153795238Y-53373866D02*
X153890476Y-53326247D01*
X153890476Y-53326247D02*
X153938095Y-53278628D01*
X153938095Y-53278628D02*
X153985714Y-53183390D01*
X172850057Y-54895238D02*
X172802438Y-54990476D01*
X172802438Y-54990476D02*
X172707200Y-55085714D01*
X172707200Y-55085714D02*
X172564342Y-55228571D01*
X172564342Y-55228571D02*
X172516723Y-55323809D01*
X172516723Y-55323809D02*
X172516723Y-55419047D01*
X172754819Y-55371428D02*
X172707200Y-55466666D01*
X172707200Y-55466666D02*
X172611961Y-55561904D01*
X172611961Y-55561904D02*
X172421485Y-55609523D01*
X172421485Y-55609523D02*
X172088152Y-55609523D01*
X172088152Y-55609523D02*
X171897676Y-55561904D01*
X171897676Y-55561904D02*
X171802438Y-55466666D01*
X171802438Y-55466666D02*
X171754819Y-55371428D01*
X171754819Y-55371428D02*
X171754819Y-55180952D01*
X171754819Y-55180952D02*
X171802438Y-55085714D01*
X171802438Y-55085714D02*
X171897676Y-54990476D01*
X171897676Y-54990476D02*
X172088152Y-54942857D01*
X172088152Y-54942857D02*
X172421485Y-54942857D01*
X172421485Y-54942857D02*
X172611961Y-54990476D01*
X172611961Y-54990476D02*
X172707200Y-55085714D01*
X172707200Y-55085714D02*
X172754819Y-55180952D01*
X172754819Y-55180952D02*
X172754819Y-55371428D01*
X172754819Y-53990476D02*
X172754819Y-54561904D01*
X172754819Y-54276190D02*
X171754819Y-54276190D01*
X171754819Y-54276190D02*
X171897676Y-54371428D01*
X171897676Y-54371428D02*
X171992914Y-54466666D01*
X171992914Y-54466666D02*
X172040533Y-54561904D01*
X162754819Y-53261904D02*
X163564342Y-53261904D01*
X163564342Y-53261904D02*
X163659580Y-53214285D01*
X163659580Y-53214285D02*
X163707200Y-53166666D01*
X163707200Y-53166666D02*
X163754819Y-53071428D01*
X163754819Y-53071428D02*
X163754819Y-52880952D01*
X163754819Y-52880952D02*
X163707200Y-52785714D01*
X163707200Y-52785714D02*
X163659580Y-52738095D01*
X163659580Y-52738095D02*
X163564342Y-52690476D01*
X163564342Y-52690476D02*
X162754819Y-52690476D01*
X163088152Y-51785714D02*
X163754819Y-51785714D01*
X162707200Y-52023809D02*
X163421485Y-52261904D01*
X163421485Y-52261904D02*
X163421485Y-51642857D01*
X155838095Y-57042319D02*
X155838095Y-57851842D01*
X155838095Y-57851842D02*
X155885714Y-57947080D01*
X155885714Y-57947080D02*
X155933333Y-57994700D01*
X155933333Y-57994700D02*
X156028571Y-58042319D01*
X156028571Y-58042319D02*
X156219047Y-58042319D01*
X156219047Y-58042319D02*
X156314285Y-57994700D01*
X156314285Y-57994700D02*
X156361904Y-57947080D01*
X156361904Y-57947080D02*
X156409523Y-57851842D01*
X156409523Y-57851842D02*
X156409523Y-57042319D01*
X157314285Y-57042319D02*
X157123809Y-57042319D01*
X157123809Y-57042319D02*
X157028571Y-57089938D01*
X157028571Y-57089938D02*
X156980952Y-57137557D01*
X156980952Y-57137557D02*
X156885714Y-57280414D01*
X156885714Y-57280414D02*
X156838095Y-57470890D01*
X156838095Y-57470890D02*
X156838095Y-57851842D01*
X156838095Y-57851842D02*
X156885714Y-57947080D01*
X156885714Y-57947080D02*
X156933333Y-57994700D01*
X156933333Y-57994700D02*
X157028571Y-58042319D01*
X157028571Y-58042319D02*
X157219047Y-58042319D01*
X157219047Y-58042319D02*
X157314285Y-57994700D01*
X157314285Y-57994700D02*
X157361904Y-57947080D01*
X157361904Y-57947080D02*
X157409523Y-57851842D01*
X157409523Y-57851842D02*
X157409523Y-57613747D01*
X157409523Y-57613747D02*
X157361904Y-57518509D01*
X157361904Y-57518509D02*
X157314285Y-57470890D01*
X157314285Y-57470890D02*
X157219047Y-57423271D01*
X157219047Y-57423271D02*
X157028571Y-57423271D01*
X157028571Y-57423271D02*
X156933333Y-57470890D01*
X156933333Y-57470890D02*
X156885714Y-57518509D01*
X156885714Y-57518509D02*
X156838095Y-57613747D01*
X175754819Y-72942857D02*
X175278628Y-73276190D01*
X175754819Y-73514285D02*
X174754819Y-73514285D01*
X174754819Y-73514285D02*
X174754819Y-73133333D01*
X174754819Y-73133333D02*
X174802438Y-73038095D01*
X174802438Y-73038095D02*
X174850057Y-72990476D01*
X174850057Y-72990476D02*
X174945295Y-72942857D01*
X174945295Y-72942857D02*
X175088152Y-72942857D01*
X175088152Y-72942857D02*
X175183390Y-72990476D01*
X175183390Y-72990476D02*
X175231009Y-73038095D01*
X175231009Y-73038095D02*
X175278628Y-73133333D01*
X175278628Y-73133333D02*
X175278628Y-73514285D01*
X174850057Y-72561904D02*
X174802438Y-72514285D01*
X174802438Y-72514285D02*
X174754819Y-72419047D01*
X174754819Y-72419047D02*
X174754819Y-72180952D01*
X174754819Y-72180952D02*
X174802438Y-72085714D01*
X174802438Y-72085714D02*
X174850057Y-72038095D01*
X174850057Y-72038095D02*
X174945295Y-71990476D01*
X174945295Y-71990476D02*
X175040533Y-71990476D01*
X175040533Y-71990476D02*
X175183390Y-72038095D01*
X175183390Y-72038095D02*
X175754819Y-72609523D01*
X175754819Y-72609523D02*
X175754819Y-71990476D01*
X174754819Y-71371428D02*
X174754819Y-71276190D01*
X174754819Y-71276190D02*
X174802438Y-71180952D01*
X174802438Y-71180952D02*
X174850057Y-71133333D01*
X174850057Y-71133333D02*
X174945295Y-71085714D01*
X174945295Y-71085714D02*
X175135771Y-71038095D01*
X175135771Y-71038095D02*
X175373866Y-71038095D01*
X175373866Y-71038095D02*
X175564342Y-71085714D01*
X175564342Y-71085714D02*
X175659580Y-71133333D01*
X175659580Y-71133333D02*
X175707200Y-71180952D01*
X175707200Y-71180952D02*
X175754819Y-71276190D01*
X175754819Y-71276190D02*
X175754819Y-71371428D01*
X175754819Y-71371428D02*
X175707200Y-71466666D01*
X175707200Y-71466666D02*
X175659580Y-71514285D01*
X175659580Y-71514285D02*
X175564342Y-71561904D01*
X175564342Y-71561904D02*
X175373866Y-71609523D01*
X175373866Y-71609523D02*
X175135771Y-71609523D01*
X175135771Y-71609523D02*
X174945295Y-71561904D01*
X174945295Y-71561904D02*
X174850057Y-71514285D01*
X174850057Y-71514285D02*
X174802438Y-71466666D01*
X174802438Y-71466666D02*
X174754819Y-71371428D01*
X177454819Y-66842857D02*
X176978628Y-67176190D01*
X177454819Y-67414285D02*
X176454819Y-67414285D01*
X176454819Y-67414285D02*
X176454819Y-67033333D01*
X176454819Y-67033333D02*
X176502438Y-66938095D01*
X176502438Y-66938095D02*
X176550057Y-66890476D01*
X176550057Y-66890476D02*
X176645295Y-66842857D01*
X176645295Y-66842857D02*
X176788152Y-66842857D01*
X176788152Y-66842857D02*
X176883390Y-66890476D01*
X176883390Y-66890476D02*
X176931009Y-66938095D01*
X176931009Y-66938095D02*
X176978628Y-67033333D01*
X176978628Y-67033333D02*
X176978628Y-67414285D01*
X177454819Y-65890476D02*
X177454819Y-66461904D01*
X177454819Y-66176190D02*
X176454819Y-66176190D01*
X176454819Y-66176190D02*
X176597676Y-66271428D01*
X176597676Y-66271428D02*
X176692914Y-66366666D01*
X176692914Y-66366666D02*
X176740533Y-66461904D01*
X176454819Y-65557142D02*
X176454819Y-64890476D01*
X176454819Y-64890476D02*
X177454819Y-65319047D01*
X179054819Y-66742857D02*
X178578628Y-67076190D01*
X179054819Y-67314285D02*
X178054819Y-67314285D01*
X178054819Y-67314285D02*
X178054819Y-66933333D01*
X178054819Y-66933333D02*
X178102438Y-66838095D01*
X178102438Y-66838095D02*
X178150057Y-66790476D01*
X178150057Y-66790476D02*
X178245295Y-66742857D01*
X178245295Y-66742857D02*
X178388152Y-66742857D01*
X178388152Y-66742857D02*
X178483390Y-66790476D01*
X178483390Y-66790476D02*
X178531009Y-66838095D01*
X178531009Y-66838095D02*
X178578628Y-66933333D01*
X178578628Y-66933333D02*
X178578628Y-67314285D01*
X179054819Y-65790476D02*
X179054819Y-66361904D01*
X179054819Y-66076190D02*
X178054819Y-66076190D01*
X178054819Y-66076190D02*
X178197676Y-66171428D01*
X178197676Y-66171428D02*
X178292914Y-66266666D01*
X178292914Y-66266666D02*
X178340533Y-66361904D01*
X178054819Y-64885714D02*
X178054819Y-65361904D01*
X178054819Y-65361904D02*
X178531009Y-65409523D01*
X178531009Y-65409523D02*
X178483390Y-65361904D01*
X178483390Y-65361904D02*
X178435771Y-65266666D01*
X178435771Y-65266666D02*
X178435771Y-65028571D01*
X178435771Y-65028571D02*
X178483390Y-64933333D01*
X178483390Y-64933333D02*
X178531009Y-64885714D01*
X178531009Y-64885714D02*
X178626247Y-64838095D01*
X178626247Y-64838095D02*
X178864342Y-64838095D01*
X178864342Y-64838095D02*
X178959580Y-64885714D01*
X178959580Y-64885714D02*
X179007200Y-64933333D01*
X179007200Y-64933333D02*
X179054819Y-65028571D01*
X179054819Y-65028571D02*
X179054819Y-65266666D01*
X179054819Y-65266666D02*
X179007200Y-65361904D01*
X179007200Y-65361904D02*
X178959580Y-65409523D01*
X174657142Y-57654819D02*
X174323809Y-57178628D01*
X174085714Y-57654819D02*
X174085714Y-56654819D01*
X174085714Y-56654819D02*
X174466666Y-56654819D01*
X174466666Y-56654819D02*
X174561904Y-56702438D01*
X174561904Y-56702438D02*
X174609523Y-56750057D01*
X174609523Y-56750057D02*
X174657142Y-56845295D01*
X174657142Y-56845295D02*
X174657142Y-56988152D01*
X174657142Y-56988152D02*
X174609523Y-57083390D01*
X174609523Y-57083390D02*
X174561904Y-57131009D01*
X174561904Y-57131009D02*
X174466666Y-57178628D01*
X174466666Y-57178628D02*
X174085714Y-57178628D01*
X175038095Y-56750057D02*
X175085714Y-56702438D01*
X175085714Y-56702438D02*
X175180952Y-56654819D01*
X175180952Y-56654819D02*
X175419047Y-56654819D01*
X175419047Y-56654819D02*
X175514285Y-56702438D01*
X175514285Y-56702438D02*
X175561904Y-56750057D01*
X175561904Y-56750057D02*
X175609523Y-56845295D01*
X175609523Y-56845295D02*
X175609523Y-56940533D01*
X175609523Y-56940533D02*
X175561904Y-57083390D01*
X175561904Y-57083390D02*
X174990476Y-57654819D01*
X174990476Y-57654819D02*
X175609523Y-57654819D01*
X175942857Y-56654819D02*
X176561904Y-56654819D01*
X176561904Y-56654819D02*
X176228571Y-57035771D01*
X176228571Y-57035771D02*
X176371428Y-57035771D01*
X176371428Y-57035771D02*
X176466666Y-57083390D01*
X176466666Y-57083390D02*
X176514285Y-57131009D01*
X176514285Y-57131009D02*
X176561904Y-57226247D01*
X176561904Y-57226247D02*
X176561904Y-57464342D01*
X176561904Y-57464342D02*
X176514285Y-57559580D01*
X176514285Y-57559580D02*
X176466666Y-57607200D01*
X176466666Y-57607200D02*
X176371428Y-57654819D01*
X176371428Y-57654819D02*
X176085714Y-57654819D01*
X176085714Y-57654819D02*
X175990476Y-57607200D01*
X175990476Y-57607200D02*
X175942857Y-57559580D01*
X154757142Y-62654819D02*
X154423809Y-62178628D01*
X154185714Y-62654819D02*
X154185714Y-61654819D01*
X154185714Y-61654819D02*
X154566666Y-61654819D01*
X154566666Y-61654819D02*
X154661904Y-61702438D01*
X154661904Y-61702438D02*
X154709523Y-61750057D01*
X154709523Y-61750057D02*
X154757142Y-61845295D01*
X154757142Y-61845295D02*
X154757142Y-61988152D01*
X154757142Y-61988152D02*
X154709523Y-62083390D01*
X154709523Y-62083390D02*
X154661904Y-62131009D01*
X154661904Y-62131009D02*
X154566666Y-62178628D01*
X154566666Y-62178628D02*
X154185714Y-62178628D01*
X155138095Y-61750057D02*
X155185714Y-61702438D01*
X155185714Y-61702438D02*
X155280952Y-61654819D01*
X155280952Y-61654819D02*
X155519047Y-61654819D01*
X155519047Y-61654819D02*
X155614285Y-61702438D01*
X155614285Y-61702438D02*
X155661904Y-61750057D01*
X155661904Y-61750057D02*
X155709523Y-61845295D01*
X155709523Y-61845295D02*
X155709523Y-61940533D01*
X155709523Y-61940533D02*
X155661904Y-62083390D01*
X155661904Y-62083390D02*
X155090476Y-62654819D01*
X155090476Y-62654819D02*
X155709523Y-62654819D01*
X156661904Y-62654819D02*
X156090476Y-62654819D01*
X156376190Y-62654819D02*
X156376190Y-61654819D01*
X156376190Y-61654819D02*
X156280952Y-61797676D01*
X156280952Y-61797676D02*
X156185714Y-61892914D01*
X156185714Y-61892914D02*
X156090476Y-61940533D01*
X177759580Y-55266666D02*
X177807200Y-55314285D01*
X177807200Y-55314285D02*
X177854819Y-55457142D01*
X177854819Y-55457142D02*
X177854819Y-55552380D01*
X177854819Y-55552380D02*
X177807200Y-55695237D01*
X177807200Y-55695237D02*
X177711961Y-55790475D01*
X177711961Y-55790475D02*
X177616723Y-55838094D01*
X177616723Y-55838094D02*
X177426247Y-55885713D01*
X177426247Y-55885713D02*
X177283390Y-55885713D01*
X177283390Y-55885713D02*
X177092914Y-55838094D01*
X177092914Y-55838094D02*
X176997676Y-55790475D01*
X176997676Y-55790475D02*
X176902438Y-55695237D01*
X176902438Y-55695237D02*
X176854819Y-55552380D01*
X176854819Y-55552380D02*
X176854819Y-55457142D01*
X176854819Y-55457142D02*
X176902438Y-55314285D01*
X176902438Y-55314285D02*
X176950057Y-55266666D01*
X177854819Y-54790475D02*
X177854819Y-54599999D01*
X177854819Y-54599999D02*
X177807200Y-54504761D01*
X177807200Y-54504761D02*
X177759580Y-54457142D01*
X177759580Y-54457142D02*
X177616723Y-54361904D01*
X177616723Y-54361904D02*
X177426247Y-54314285D01*
X177426247Y-54314285D02*
X177045295Y-54314285D01*
X177045295Y-54314285D02*
X176950057Y-54361904D01*
X176950057Y-54361904D02*
X176902438Y-54409523D01*
X176902438Y-54409523D02*
X176854819Y-54504761D01*
X176854819Y-54504761D02*
X176854819Y-54695237D01*
X176854819Y-54695237D02*
X176902438Y-54790475D01*
X176902438Y-54790475D02*
X176950057Y-54838094D01*
X176950057Y-54838094D02*
X177045295Y-54885713D01*
X177045295Y-54885713D02*
X177283390Y-54885713D01*
X177283390Y-54885713D02*
X177378628Y-54838094D01*
X177378628Y-54838094D02*
X177426247Y-54790475D01*
X177426247Y-54790475D02*
X177473866Y-54695237D01*
X177473866Y-54695237D02*
X177473866Y-54504761D01*
X177473866Y-54504761D02*
X177426247Y-54409523D01*
X177426247Y-54409523D02*
X177378628Y-54361904D01*
X177378628Y-54361904D02*
X177283390Y-54314285D01*
%TO.C,C10*%
D13*
X173990000Y-55827064D02*
X173990000Y-54372936D01*
X175810000Y-55827064D02*
X175810000Y-54372936D01*
%TO.C,C8*%
X178790000Y-55827064D02*
X178790000Y-54372936D01*
X180610000Y-55827064D02*
X180610000Y-54372936D01*
%TO.C,R22*%
X176837258Y-59977500D02*
X176362742Y-59977500D01*
X176837258Y-61022500D02*
X176362742Y-61022500D01*
%TO.C,R16*%
X179477500Y-68862742D02*
X179477500Y-69337258D01*
X180522500Y-68862742D02*
X180522500Y-69337258D01*
%TO.C,J2*%
X156850000Y-52200000D02*
X157250000Y-51400000D01*
X157250000Y-51400000D02*
X157650000Y-52200000D01*
X157650000Y-52200000D02*
X156850000Y-52200000D01*
%TO.C,R1*%
X174777500Y-79662742D02*
X174777500Y-80137258D01*
X175822500Y-79662742D02*
X175822500Y-80137258D01*
%TO.C,C4*%
X170440580Y-61490000D02*
X170159420Y-61490000D01*
X170440580Y-62510000D02*
X170159420Y-62510000D01*
%TO.C,U7*%
X152760000Y-64300000D02*
X152760000Y-65300000D01*
X152760000Y-64300000D02*
X153760000Y-64300000D01*
X152760000Y-82600000D02*
X152760000Y-81600000D01*
X152910000Y-64450000D02*
X152910000Y-65750000D01*
X152910000Y-82450000D02*
X152910000Y-81100000D01*
X153660000Y-82450000D02*
X152910000Y-82450000D01*
X153660000Y-82600000D02*
X152760000Y-82600000D01*
X153760000Y-64450000D02*
X152910000Y-64450000D01*
X171610000Y-82600000D02*
X172260000Y-82600000D01*
X172110000Y-64450000D02*
X171610000Y-64450000D01*
X172110000Y-82450000D02*
X171610000Y-82450000D01*
X172110000Y-82450000D02*
X172110000Y-64450000D01*
X172260000Y-64250000D02*
X172260000Y-65350000D01*
X172260000Y-82600000D02*
X172260000Y-81600000D01*
%TO.C,R4*%
X174977500Y-68862742D02*
X174977500Y-69337258D01*
X176022500Y-68862742D02*
X176022500Y-69337258D01*
%TO.C,R5*%
X179577500Y-75437258D02*
X179577500Y-74962742D01*
X180622500Y-75437258D02*
X180622500Y-74962742D01*
%TO.C,R8*%
X176377500Y-74962742D02*
X176377500Y-75437258D01*
X177422500Y-74962742D02*
X177422500Y-75437258D01*
%TO.C,R2*%
X176377500Y-79662742D02*
X176377500Y-80137258D01*
X177422500Y-79662742D02*
X177422500Y-80137258D01*
%TO.C,R3*%
X177977500Y-75437258D02*
X177977500Y-74962742D01*
X179022500Y-75437258D02*
X179022500Y-74962742D01*
%TO.C,C5*%
X152390000Y-61640580D02*
X152390000Y-61359420D01*
X153410000Y-61640580D02*
X153410000Y-61359420D01*
D14*
%TO.C,kibuzzard-69DE4944*%
G36*
X175925121Y-86801131D02*
G01*
X175881502Y-86878675D01*
X175811228Y-86931987D01*
X175710662Y-86951373D01*
X175608885Y-86930775D01*
X175541034Y-86876252D01*
X175502262Y-86799919D01*
X175490145Y-86711470D01*
X175945719Y-86711470D01*
X175925121Y-86801131D01*
G37*
G36*
X173377060Y-86275283D02*
G01*
X173454604Y-86306785D01*
X173454604Y-86931987D01*
X173389176Y-86938045D01*
X173316478Y-86941680D01*
X173208643Y-86917145D01*
X173132310Y-86843538D01*
X173086874Y-86731765D01*
X173071729Y-86592730D01*
X173084451Y-86453090D01*
X173122617Y-86349192D01*
X173187439Y-86284673D01*
X173280129Y-86263166D01*
X173377060Y-86275283D01*
G37*
G36*
X173454604Y-85027302D02*
G01*
X174554766Y-85027302D01*
X175628271Y-85027302D01*
X176692084Y-85027302D01*
X177431179Y-85027302D01*
X178036995Y-85027302D01*
X178191147Y-85034875D01*
X178343813Y-85057521D01*
X178493525Y-85095022D01*
X178638841Y-85147017D01*
X178778360Y-85213004D01*
X178910739Y-85292349D01*
X179034704Y-85384288D01*
X179149060Y-85487935D01*
X179252707Y-85602291D01*
X179344646Y-85726256D01*
X179423991Y-85858635D01*
X179489979Y-85998155D01*
X179541973Y-86143470D01*
X179579474Y-86293182D01*
X179602120Y-86445849D01*
X179609693Y-86600000D01*
X179602120Y-86754151D01*
X179579474Y-86906818D01*
X179541973Y-87056530D01*
X179489979Y-87201845D01*
X179423991Y-87341365D01*
X179344646Y-87473744D01*
X179252707Y-87597709D01*
X179149060Y-87712065D01*
X179034704Y-87815712D01*
X178910739Y-87907651D01*
X178778360Y-87986996D01*
X178638841Y-88052983D01*
X178493525Y-88104978D01*
X178343813Y-88142479D01*
X178191147Y-88165125D01*
X178036995Y-88172698D01*
X177431179Y-88172698D01*
X172768821Y-88172698D01*
X172163005Y-88172698D01*
X172008854Y-88165125D01*
X171856187Y-88142479D01*
X171706475Y-88104978D01*
X171561159Y-88052983D01*
X171421640Y-87986996D01*
X171289261Y-87907651D01*
X171165296Y-87815712D01*
X171050940Y-87712065D01*
X170947293Y-87597709D01*
X170855354Y-87473744D01*
X170776009Y-87341365D01*
X170710021Y-87201845D01*
X170658027Y-87056530D01*
X170620526Y-86906818D01*
X170597880Y-86754151D01*
X170590426Y-86602423D01*
X172768821Y-86602423D01*
X172784437Y-86772321D01*
X172831287Y-86916909D01*
X172909370Y-87036187D01*
X173016801Y-87125040D01*
X173151696Y-87178352D01*
X173314055Y-87196123D01*
X173431280Y-87191882D01*
X173550323Y-87179160D01*
X173660885Y-87159774D01*
X173752666Y-87135541D01*
X173752666Y-86442488D01*
X174002262Y-86442488D01*
X174012561Y-86555473D01*
X174043457Y-86647254D01*
X174148869Y-86782956D01*
X174289418Y-86870194D01*
X174436026Y-86929564D01*
X174529322Y-86965913D01*
X174614136Y-87010743D01*
X174675929Y-87068901D01*
X174700162Y-87145234D01*
X174673775Y-87240819D01*
X174594615Y-87298169D01*
X174462682Y-87317286D01*
X174291842Y-87293053D01*
X174157351Y-87234895D01*
X174070113Y-87465105D01*
X174243376Y-87535380D01*
X174355149Y-87559006D01*
X174484491Y-87566882D01*
X174632983Y-87553689D01*
X174758589Y-87514109D01*
X174861309Y-87448142D01*
X174963994Y-87306381D01*
X174998223Y-87118578D01*
X174959451Y-86940468D01*
X174861309Y-86820517D01*
X174729241Y-86740549D01*
X174588691Y-86684814D01*
X174486914Y-86642407D01*
X174440872Y-86616963D01*
X175201777Y-86616963D01*
X175216317Y-86792380D01*
X175259935Y-86937372D01*
X175332633Y-87051939D01*
X175433333Y-87134733D01*
X175560959Y-87184410D01*
X175715509Y-87200969D01*
X175816074Y-87191276D01*
X175914216Y-87162197D01*
X176005695Y-87114035D01*
X176086268Y-87047092D01*
X176154120Y-86961369D01*
X176207431Y-86856866D01*
X176241963Y-86733885D01*
X176253473Y-86592730D01*
X176242569Y-86456422D01*
X176209855Y-86338288D01*
X176156846Y-86238025D01*
X176085057Y-86155331D01*
X175995396Y-86090509D01*
X175888772Y-86043861D01*
X175841282Y-86032956D01*
X176355250Y-86032956D01*
X176394628Y-86141095D01*
X176444911Y-86252262D01*
X176503978Y-86363732D01*
X176569709Y-86472779D01*
X176640893Y-86577282D01*
X176716317Y-86675121D01*
X176793255Y-86764176D01*
X176868982Y-86842326D01*
X176795376Y-86931381D01*
X176724798Y-87024071D01*
X176657855Y-87117670D01*
X176595153Y-87209451D01*
X176537904Y-87298506D01*
X176487318Y-87383926D01*
X176406139Y-87532956D01*
X176742973Y-87532956D01*
X176815670Y-87387561D01*
X176911389Y-87225202D01*
X177021648Y-87060420D01*
X177133118Y-86910178D01*
X177133118Y-87532956D01*
X177431179Y-87532956D01*
X177431179Y-86032956D01*
X177133118Y-86032956D01*
X177133118Y-86718740D01*
X177005897Y-86581826D01*
X176940771Y-86497617D01*
X176878675Y-86407351D01*
X176820820Y-86312843D01*
X176768417Y-86215913D01*
X176692084Y-86032956D01*
X176355250Y-86032956D01*
X175841282Y-86032956D01*
X175766095Y-86015691D01*
X175628271Y-86006300D01*
X175431987Y-86024475D01*
X175267205Y-86069305D01*
X175308401Y-86323748D01*
X175445315Y-86284976D01*
X175616155Y-86265590D01*
X175748223Y-86281644D01*
X175853635Y-86329806D01*
X175922698Y-86405836D01*
X175945719Y-86505493D01*
X175206624Y-86505493D01*
X175202989Y-86556381D01*
X175201777Y-86616963D01*
X174440872Y-86616963D01*
X174394830Y-86591519D01*
X174326979Y-86527302D01*
X174300323Y-86444911D01*
X174311228Y-86373425D01*
X174351212Y-86310420D01*
X174429968Y-86266801D01*
X174554766Y-86251050D01*
X174675626Y-86259532D01*
X174776494Y-86284976D01*
X174932795Y-86357674D01*
X175020032Y-86115347D01*
X174852827Y-86041438D01*
X174722577Y-86011450D01*
X174554766Y-86001454D01*
X174384733Y-86014243D01*
X174246204Y-86052612D01*
X174139176Y-86116559D01*
X174036490Y-86255594D01*
X174002262Y-86442488D01*
X173752666Y-86442488D01*
X173752666Y-85633118D01*
X173454604Y-85633118D01*
X173454604Y-86062036D01*
X173335258Y-86020234D01*
X173219548Y-86006300D01*
X173114742Y-86017205D01*
X173023263Y-86049919D01*
X172882714Y-86172294D01*
X172833643Y-86258926D01*
X172797900Y-86361309D01*
X172776090Y-86476716D01*
X172768821Y-86602423D01*
X170590426Y-86602423D01*
X170590307Y-86600000D01*
X170597880Y-86445849D01*
X170620526Y-86293182D01*
X170658027Y-86143470D01*
X170710021Y-85998155D01*
X170776009Y-85858635D01*
X170855354Y-85726256D01*
X170947293Y-85602291D01*
X171050940Y-85487935D01*
X171165296Y-85384288D01*
X171289261Y-85292349D01*
X171421640Y-85213004D01*
X171561159Y-85147017D01*
X171706475Y-85095022D01*
X171856187Y-85057521D01*
X172008854Y-85034875D01*
X172163005Y-85027302D01*
X172768821Y-85027302D01*
X173454604Y-85027302D01*
G37*
%TO.C,C1*%
D13*
X167340580Y-61490000D02*
X167059420Y-61490000D01*
X167340580Y-62510000D02*
X167059420Y-62510000D01*
%TO.C,R19*%
X173377500Y-68862742D02*
X173377500Y-69337258D01*
X174422500Y-68862742D02*
X174422500Y-69337258D01*
%TO.C,R18*%
X176837258Y-58377500D02*
X176362742Y-58377500D01*
X176837258Y-59422500D02*
X176362742Y-59422500D01*
%TO.C,C7*%
X176740580Y-61490000D02*
X176459420Y-61490000D01*
X176740580Y-62510000D02*
X176459420Y-62510000D01*
%TO.C,R6*%
X173177500Y-74962742D02*
X173177500Y-75437258D01*
X174222500Y-74962742D02*
X174222500Y-75437258D01*
%TO.C,R7*%
X173177500Y-79662742D02*
X173177500Y-80137258D01*
X174222500Y-79662742D02*
X174222500Y-80137258D01*
%TO.C,C6*%
X173715580Y-61490000D02*
X173434420Y-61490000D01*
X173715580Y-62510000D02*
X173434420Y-62510000D01*
%TO.C,R9*%
X152377500Y-55062742D02*
X152377500Y-55537258D01*
X153422500Y-55062742D02*
X153422500Y-55537258D01*
%TO.C,Q1*%
X171290000Y-56665000D02*
X171315000Y-56665000D01*
X171290000Y-58135000D02*
X171290000Y-56665000D01*
X171315000Y-58135000D02*
X171290000Y-58135000D01*
X173485000Y-56665000D02*
X173510000Y-56665000D01*
X173510000Y-56665000D02*
X173510000Y-58135000D01*
X173510000Y-58135000D02*
X173485000Y-58135000D01*
X173680000Y-56360000D02*
X173490000Y-56220000D01*
X173680000Y-56080000D01*
X173680000Y-56360000D01*
G36*
X173680000Y-56360000D02*
G01*
X173490000Y-56220000D01*
X173680000Y-56080000D01*
X173680000Y-56360000D01*
G37*
%TO.C,U4*%
X160565000Y-55315000D02*
X160620000Y-55315000D01*
X160565000Y-59435000D02*
X160565000Y-55315000D01*
X160620000Y-59435000D02*
X160565000Y-59435000D01*
X170630000Y-55315000D02*
X170685000Y-55315000D01*
X170685000Y-55315000D02*
X170685000Y-59435000D01*
X170685000Y-59435000D02*
X170630000Y-59435000D01*
X160615000Y-59975000D02*
X160285000Y-60215000D01*
X160285000Y-59735000D01*
X160615000Y-59975000D01*
G36*
X160615000Y-59975000D02*
G01*
X160285000Y-60215000D01*
X160285000Y-59735000D01*
X160615000Y-59975000D01*
G37*
%TO.C,U6*%
X153917500Y-59460000D02*
X153917500Y-55340000D01*
X159282500Y-55340000D02*
X159282500Y-59460000D01*
X154610000Y-61440000D02*
X154130000Y-61440000D01*
X154370000Y-61110000D01*
X154610000Y-61440000D01*
G36*
X154610000Y-61440000D02*
G01*
X154130000Y-61440000D01*
X154370000Y-61110000D01*
X154610000Y-61440000D01*
G37*
%TO.C,R20*%
X174777500Y-75437258D02*
X174777500Y-74962742D01*
X175822500Y-75437258D02*
X175822500Y-74962742D01*
%TO.C,R17*%
X176477500Y-68862742D02*
X176477500Y-69337258D01*
X177522500Y-68862742D02*
X177522500Y-69337258D01*
%TO.C,R15*%
X177977500Y-68862742D02*
X177977500Y-69337258D01*
X179022500Y-68862742D02*
X179022500Y-69337258D01*
%TO.C,R23*%
X173387742Y-59977500D02*
X173862258Y-59977500D01*
X173387742Y-61022500D02*
X173862258Y-61022500D01*
%TO.C,R21*%
X152377500Y-58262742D02*
X152377500Y-58737258D01*
X153422500Y-58262742D02*
X153422500Y-58737258D01*
%TO.C,C9*%
X176390000Y-55827064D02*
X176390000Y-54372936D01*
X178210000Y-55827064D02*
X178210000Y-54372936D01*
%TD*%
M02*
