%TF.GenerationSoftware,KiCad,Pcbnew,10.0.1*%
%TF.CreationDate,2026-05-27T14:23:09+02:00*%
%TF.ProjectId,dongle,646f6e67-6c65-42e6-9b69-6361645f7063,rev?*%
%TF.SameCoordinates,Original*%
%TF.FileFunction,Soldermask,Bot*%
%TF.FilePolarity,Negative*%
%FSLAX46Y46*%
G04 Gerber Fmt 4.6, Leading zero omitted, Abs format (unit mm)*
G04 Created by KiCad (PCBNEW 10.0.1) date 2026-05-27 14:23:09*
%MOMM*%
%LPD*%
G01*
G04 APERTURE LIST*
G04 Aperture macros list*
%AMRoundRect*
0 Rectangle with rounded corners*
0 $1 Rounding radius*
0 $2 $3 $4 $5 $6 $7 $8 $9 X,Y pos of 4 corners*
0 Add a 4 corners polygon primitive as box body*
4,1,4,$2,$3,$4,$5,$6,$7,$8,$9,$2,$3,0*
0 Add four circle primitives for the rounded corners*
1,1,$1+$1,$2,$3*
1,1,$1+$1,$4,$5*
1,1,$1+$1,$6,$7*
1,1,$1+$1,$8,$9*
0 Add four rect primitives between the rounded corners*
20,1,$1+$1,$2,$3,$4,$5,0*
20,1,$1+$1,$4,$5,$6,$7,0*
20,1,$1+$1,$6,$7,$8,$9,0*
20,1,$1+$1,$8,$9,$2,$3,0*%
G04 Aperture macros list end*
%ADD10RoundRect,0.250000X-0.312500X-0.625000X0.312500X-0.625000X0.312500X0.625000X-0.312500X0.625000X0*%
%ADD11RoundRect,0.250000X-0.625000X0.312500X-0.625000X-0.312500X0.625000X-0.312500X0.625000X0.312500X0*%
%ADD12RoundRect,0.070000X0.105000X0.930000X-0.105000X0.930000X-0.105000X-0.930000X0.105000X-0.930000X0*%
%ADD13R,1.000000X2.000000*%
G04 APERTURE END LIST*
D10*
%TO.C,C12*%
X167437500Y-69600000D03*
X170362500Y-69600000D03*
%TD*%
D11*
%TO.C,C11*%
X154600000Y-66337500D03*
X154600000Y-69262500D03*
%TD*%
D12*
%TO.C,J2*%
X157500000Y-49700000D03*
X158000000Y-49700000D03*
X158500000Y-49700000D03*
X159000000Y-49700000D03*
X159500000Y-49700000D03*
X162000000Y-49700000D03*
X162500000Y-49700000D03*
X163000000Y-49700000D03*
X163500000Y-49700000D03*
X164000000Y-49700000D03*
X164500000Y-49700000D03*
X165000000Y-49700000D03*
X165500000Y-49700000D03*
X166000000Y-49700000D03*
X166500000Y-49700000D03*
X167000000Y-49700000D03*
X167500000Y-49700000D03*
X168000000Y-49700000D03*
X168500000Y-49700000D03*
X169000000Y-49700000D03*
X169500000Y-49700000D03*
X170000000Y-49700000D03*
X170500000Y-49700000D03*
X171000000Y-49700000D03*
X171500000Y-49700000D03*
X172000000Y-49700000D03*
X172500000Y-49700000D03*
X173000000Y-49700000D03*
X173500000Y-49700000D03*
X174000000Y-49700000D03*
X174500000Y-49700000D03*
X175000000Y-49700000D03*
X175500000Y-49700000D03*
%TD*%
D13*
%TO.C,U2*%
X154570000Y-72100000D03*
X153300000Y-72100000D03*
X155840000Y-72100000D03*
X157110000Y-72100000D03*
X158380000Y-72100000D03*
X159650000Y-72100000D03*
X160920000Y-72100000D03*
X162190000Y-72100000D03*
%TD*%
%TO.C,U3*%
X172270000Y-72062500D03*
X171000000Y-72062500D03*
X173540000Y-72062500D03*
X174810000Y-72062500D03*
X176080000Y-72062500D03*
X177350000Y-72062500D03*
X178620000Y-72062500D03*
X179890000Y-72062500D03*
%TD*%
M02*
