M48
; DRILL file KiCad 10.0.1 date 2026-05-27T14:23:13
; FORMAT={-:-/ absolute / metric / decimal}
; #@! TF.CreationDate,2026-05-27T14:23:13+02:00
; #@! TF.GenerationSoftware,Kicad,Pcbnew,10.0.1
; #@! TF.FileFunction,Plated,1,4,PTH
FMAT,2
METRIC
; #@! TA.AperFunction,Plated,PTH,ViaDrill
T1C0.300
%
G90
G05
T1
X152.6Y-53.2
X152.9Y-63.8
X153.627Y-56.9
X154.4Y-82.1
X155.0Y-76.4
X155.0Y-78.7
X155.093Y-56.459
X156.0Y-58.4
X156.2Y-76.0
X156.4Y-56.617
X156.4Y-70.2
X157.375Y-50.8
X157.7Y-68.8
X158.38Y-72.1
X158.796Y-76.059
X159.65Y-72.1
X159.9Y-53.4
X159.9Y-55.7
X160.1Y-61.0
X160.326Y-75.326
X161.8Y-70.55
X162.3Y-76.292
X162.6Y-62.3
X163.8Y-51.6
X163.8Y-62.3
X164.6Y-70.55
X165.1Y-61.7
X165.2Y-51.7
X165.2Y-63.1
X165.5Y-77.3
X165.754Y-76.1
X166.3Y-77.7
X166.8Y-51.7
X167.1Y-64.7
X167.6Y-57.4
X167.8Y-77.9
X167.959Y-74.344
X168.145Y-77.178
X168.3Y-51.8
X168.38Y-82.2
X168.9Y-76.9
X169.6Y-82.2
X169.7Y-63.3
X169.713Y-67.122
X169.8Y-51.8
X169.8Y-57.4
X170.92Y-64.7
X170.92Y-82.2
X171.2Y-51.8
X171.2Y-67.1
X171.7Y-59.4
X171.8Y-70.0
X171.9Y-62.0
X172.2Y-74.1
X172.3Y-67.4
X173.5Y-71.0
X174.0Y-58.9
X174.5Y-64.4
X174.5Y-65.6
X174.81Y-72.062
X174.86Y-51.76
X175.2Y-65.0
X175.3Y-66.7
X175.5Y-51.7
X175.5Y-52.5
X176.08Y-71.02
X176.1Y-53.637
X176.8Y-63.2
X177.3Y-57.6
X177.35Y-71.1
X178.3Y-82.1
X178.5Y-53.637
X178.634Y-71.114
X178.9Y-82.7
X179.89Y-72.062
X180.6Y-59.3
X180.6Y-63.1
X180.7Y-82.7
M30
