%TF.GenerationSoftware,KiCad,Pcbnew,10.0.1*%
%TF.CreationDate,2026-05-27T14:23:07+02:00*%
%TF.ProjectId,dongle,646f6e67-6c65-42e6-9b69-6361645f7063,rev?*%
%TF.SameCoordinates,Original*%
%TF.FileFunction,Copper,L3,Inr*%
%TF.FilePolarity,Positive*%
%FSLAX46Y46*%
G04 Gerber Fmt 4.6, Leading zero omitted, Abs format (unit mm)*
G04 Created by KiCad (PCBNEW 10.0.1) date 2026-05-27 14:23:07*
%MOMM*%
%LPD*%
G01*
G04 APERTURE LIST*
%TA.AperFunction,ViaPad*%
%ADD10C,0.600000*%
%TD*%
G04 APERTURE END LIST*
D10*
%TO.N,+3.3V*%
X178500000Y-53637500D03*
X176100000Y-53637500D03*
%TO.N,Net-(U7-GPIO6{slash}TOUCH6{slash}ADC1_CH5)*%
X169712795Y-67122459D03*
X174500000Y-64400000D03*
%TO.N,/MISO*%
X167800000Y-77900000D03*
X160325735Y-75325735D03*
X178634265Y-71114265D03*
%TO.N,+3.3V*%
X156400000Y-56617500D03*
X155000000Y-76400000D03*
X171800000Y-70000000D03*
X175500000Y-51700000D03*
X174859620Y-51759620D03*
X165100000Y-61700000D03*
X157375000Y-50800000D03*
X169700000Y-63300000D03*
%TO.N,GND*%
X163800000Y-51600000D03*
X161800000Y-70550000D03*
X180700000Y-82700000D03*
X172200000Y-74100000D03*
X164600000Y-70550000D03*
X160100000Y-61000000D03*
X169800000Y-57400000D03*
X176800000Y-63200000D03*
X165200000Y-51700000D03*
X152900000Y-63800000D03*
X170920000Y-82200000D03*
X155000000Y-78700000D03*
X180600000Y-59300000D03*
X166800000Y-51700000D03*
X155092559Y-56458712D03*
X168300000Y-51800000D03*
X159900000Y-55700000D03*
X165200000Y-63100000D03*
X156000000Y-58400000D03*
X159900000Y-53400000D03*
X156200000Y-76000000D03*
X175500000Y-52500003D03*
X180600000Y-63100000D03*
X152600000Y-53200000D03*
X156400000Y-70200000D03*
X171900000Y-62000000D03*
X169800000Y-51800000D03*
X170920000Y-64700000D03*
X167600000Y-57400000D03*
X171200000Y-51800000D03*
%TO.N,Net-(J2-~{FULL_CARD_POWER_OFF})*%
X174000000Y-58900000D03*
%TO.N,Net-(J2-~{W_DISABLE1})*%
X153627500Y-56900000D03*
%TO.N,Net-(U4-TXD)*%
X165500000Y-77300000D03*
X162600000Y-62300000D03*
%TO.N,/CE_2*%
X175300000Y-66700000D03*
X167100000Y-64700000D03*
%TO.N,Net-(U7-GPIO5{slash}TOUCH5{slash}ADC1_CH4)*%
X175200000Y-65000000D03*
X171200000Y-67100000D03*
%TO.N,Net-(U7-GPIO7{slash}TOUCH7{slash}ADC1_CH6)*%
X172300000Y-67400000D03*
X174500000Y-65600000D03*
%TO.N,/CSN_1*%
X165754416Y-76100000D03*
X167958579Y-74344363D03*
%TO.N,/IO0*%
X154400000Y-82100000D03*
X171700000Y-59400000D03*
X177300000Y-57600000D03*
%TO.N,/IRQ_2*%
X178900000Y-82700000D03*
X168380000Y-82200000D03*
%TO.N,/CSN_2*%
X169600000Y-82200000D03*
X178300000Y-82100000D03*
%TO.N,Net-(U3-CE)*%
X173500000Y-71000000D03*
%TO.N,Net-(U3-IRQ)*%
X179890000Y-72062500D03*
%TO.N,Net-(U2-IRQ)*%
X162300000Y-76292157D03*
%TO.N,Net-(U4-RXD)*%
X163800000Y-62300000D03*
X166300000Y-77700000D03*
%TO.N,Net-(U3-~{CSN})*%
X174810000Y-72062500D03*
%TO.N,Net-(U2-~{CSN})*%
X157700000Y-68800000D03*
%TO.N,Net-(U2-CE)*%
X158796128Y-76058872D03*
%TO.N,/SCK*%
X176080000Y-71020000D03*
X168900000Y-76900000D03*
X158380000Y-72100000D03*
%TO.N,/MOSI*%
X168144773Y-77178103D03*
X159650000Y-72100000D03*
X177350000Y-71100000D03*
%TD*%
%TA.AperFunction,Conductor*%
%TO.N,+3.3V*%
G36*
X159717539Y-49419685D02*
G01*
X159763294Y-49472489D01*
X159774500Y-49524000D01*
X159774500Y-51634107D01*
X159774500Y-51634108D01*
X159774500Y-51700000D01*
X159774500Y-51801976D01*
X159811976Y-52002456D01*
X159822771Y-52030321D01*
X159885651Y-52192635D01*
X159885655Y-52192642D01*
X159993016Y-52366037D01*
X159993017Y-52366038D01*
X159993019Y-52366041D01*
X160016649Y-52391962D01*
X160047266Y-52454765D01*
X160039069Y-52524152D01*
X159994659Y-52578093D01*
X159928137Y-52599461D01*
X159925012Y-52599500D01*
X159821155Y-52599500D01*
X159666510Y-52630261D01*
X159666498Y-52630264D01*
X159520827Y-52690602D01*
X159520814Y-52690609D01*
X159389711Y-52778210D01*
X159389707Y-52778213D01*
X159278213Y-52889707D01*
X159278210Y-52889711D01*
X159190609Y-53020814D01*
X159190602Y-53020827D01*
X159130264Y-53166498D01*
X159130261Y-53166510D01*
X159099500Y-53321153D01*
X159099500Y-53478846D01*
X159130261Y-53633489D01*
X159130264Y-53633501D01*
X159190602Y-53779172D01*
X159190609Y-53779185D01*
X159278210Y-53910288D01*
X159278213Y-53910292D01*
X159389707Y-54021786D01*
X159389711Y-54021789D01*
X159520814Y-54109390D01*
X159520827Y-54109397D01*
X159666498Y-54169735D01*
X159666503Y-54169737D01*
X159821153Y-54200499D01*
X159821156Y-54200500D01*
X159821158Y-54200500D01*
X159978844Y-54200500D01*
X159978845Y-54200499D01*
X160133497Y-54169737D01*
X160279179Y-54109394D01*
X160410289Y-54021789D01*
X160521789Y-53910289D01*
X160609394Y-53779179D01*
X160669737Y-53633497D01*
X160700500Y-53478842D01*
X160700500Y-53321158D01*
X160700500Y-53321155D01*
X160700499Y-53321153D01*
X160696391Y-53300502D01*
X160669737Y-53166503D01*
X160650955Y-53121158D01*
X160609397Y-53020827D01*
X160609390Y-53020814D01*
X160582868Y-52981121D01*
X160561990Y-52914443D01*
X160580475Y-52847063D01*
X160632454Y-52800373D01*
X160697409Y-52788759D01*
X160834669Y-52801477D01*
X160874999Y-52805215D01*
X160875000Y-52805215D01*
X160875001Y-52805215D01*
X161052592Y-52788759D01*
X161078083Y-52786397D01*
X161274250Y-52730582D01*
X161456821Y-52639673D01*
X161619579Y-52516764D01*
X161634407Y-52500499D01*
X161662450Y-52469737D01*
X161756981Y-52366041D01*
X161864348Y-52192637D01*
X161938024Y-52002456D01*
X161975500Y-51801976D01*
X161975500Y-51700000D01*
X161975500Y-51634108D01*
X161975500Y-51634107D01*
X161975500Y-51521153D01*
X162999500Y-51521153D01*
X162999500Y-51678846D01*
X163030261Y-51833489D01*
X163030264Y-51833501D01*
X163090602Y-51979172D01*
X163090609Y-51979185D01*
X163178210Y-52110288D01*
X163178213Y-52110292D01*
X163289707Y-52221786D01*
X163289711Y-52221789D01*
X163420814Y-52309390D01*
X163420827Y-52309397D01*
X163557570Y-52366037D01*
X163566503Y-52369737D01*
X163678230Y-52391961D01*
X163721153Y-52400499D01*
X163721156Y-52400500D01*
X163721158Y-52400500D01*
X163878844Y-52400500D01*
X163878845Y-52400499D01*
X164033497Y-52369737D01*
X164177021Y-52310288D01*
X164179172Y-52309397D01*
X164179172Y-52309396D01*
X164179179Y-52309394D01*
X164310289Y-52221789D01*
X164368664Y-52163413D01*
X164429985Y-52129930D01*
X164499677Y-52134914D01*
X164555611Y-52176785D01*
X164559447Y-52182206D01*
X164578212Y-52210291D01*
X164689707Y-52321786D01*
X164689711Y-52321789D01*
X164820814Y-52409390D01*
X164820827Y-52409397D01*
X164930357Y-52454765D01*
X164966503Y-52469737D01*
X165121153Y-52500499D01*
X165121156Y-52500500D01*
X165121158Y-52500500D01*
X165278844Y-52500500D01*
X165278845Y-52500499D01*
X165433497Y-52469737D01*
X165550783Y-52421156D01*
X165579172Y-52409397D01*
X165579172Y-52409396D01*
X165579179Y-52409394D01*
X165710289Y-52321789D01*
X165821789Y-52210289D01*
X165896898Y-52097881D01*
X165950510Y-52053076D01*
X166019835Y-52044369D01*
X166082863Y-52074523D01*
X166103102Y-52097881D01*
X166178210Y-52210288D01*
X166178213Y-52210292D01*
X166289707Y-52321786D01*
X166289711Y-52321789D01*
X166420814Y-52409390D01*
X166420827Y-52409397D01*
X166530357Y-52454765D01*
X166566503Y-52469737D01*
X166721153Y-52500499D01*
X166721156Y-52500500D01*
X166721158Y-52500500D01*
X166878844Y-52500500D01*
X166878845Y-52500499D01*
X167033497Y-52469737D01*
X167150783Y-52421156D01*
X167179172Y-52409397D01*
X167179172Y-52409396D01*
X167179179Y-52409394D01*
X167310289Y-52321789D01*
X167365577Y-52266501D01*
X167426097Y-52205982D01*
X167427414Y-52207299D01*
X167477949Y-52172859D01*
X167547793Y-52170970D01*
X167607571Y-52207142D01*
X167619189Y-52221957D01*
X167678210Y-52310288D01*
X167678213Y-52310292D01*
X167789707Y-52421786D01*
X167789711Y-52421789D01*
X167920814Y-52509390D01*
X167920827Y-52509397D01*
X168066498Y-52569735D01*
X168066503Y-52569737D01*
X168215935Y-52599461D01*
X168221153Y-52600499D01*
X168221156Y-52600500D01*
X168221158Y-52600500D01*
X168378844Y-52600500D01*
X168378845Y-52600499D01*
X168533497Y-52569737D01*
X168679179Y-52509394D01*
X168810289Y-52421789D01*
X168921789Y-52310289D01*
X168929145Y-52299279D01*
X168946898Y-52272712D01*
X169000510Y-52227906D01*
X169069835Y-52219199D01*
X169132862Y-52249353D01*
X169153102Y-52272712D01*
X169178207Y-52310284D01*
X169178213Y-52310292D01*
X169289707Y-52421786D01*
X169289711Y-52421789D01*
X169420814Y-52509390D01*
X169420827Y-52509397D01*
X169566498Y-52569735D01*
X169566503Y-52569737D01*
X169715935Y-52599461D01*
X169721153Y-52600499D01*
X169721156Y-52600500D01*
X169721158Y-52600500D01*
X169878844Y-52600500D01*
X169878845Y-52600499D01*
X170033497Y-52569737D01*
X170179179Y-52509394D01*
X170310289Y-52421789D01*
X170340117Y-52391961D01*
X170412319Y-52319760D01*
X170473642Y-52286275D01*
X170543334Y-52291259D01*
X170587681Y-52319760D01*
X170689707Y-52421786D01*
X170689711Y-52421789D01*
X170820814Y-52509390D01*
X170820827Y-52509397D01*
X170966498Y-52569735D01*
X170966503Y-52569737D01*
X171115935Y-52599461D01*
X171121153Y-52600499D01*
X171121156Y-52600500D01*
X171121158Y-52600500D01*
X171278844Y-52600500D01*
X171278845Y-52600499D01*
X171433497Y-52569737D01*
X171579179Y-52509394D01*
X171710289Y-52421789D01*
X171821789Y-52310289D01*
X171909394Y-52179179D01*
X171969737Y-52033497D01*
X172000500Y-51878842D01*
X172000500Y-51721158D01*
X172000500Y-51721155D01*
X172000499Y-51721153D01*
X171996291Y-51700000D01*
X171969737Y-51566503D01*
X171928316Y-51466503D01*
X171909397Y-51420827D01*
X171909390Y-51420814D01*
X171821789Y-51289711D01*
X171821786Y-51289707D01*
X171710292Y-51178213D01*
X171710288Y-51178210D01*
X171579185Y-51090609D01*
X171579172Y-51090602D01*
X171433501Y-51030264D01*
X171433489Y-51030261D01*
X171278845Y-50999500D01*
X171278842Y-50999500D01*
X171121158Y-50999500D01*
X171121155Y-50999500D01*
X170966510Y-51030261D01*
X170966498Y-51030264D01*
X170820827Y-51090602D01*
X170820814Y-51090609D01*
X170689711Y-51178210D01*
X170689707Y-51178213D01*
X170587681Y-51280240D01*
X170526358Y-51313725D01*
X170456666Y-51308741D01*
X170412319Y-51280240D01*
X170310292Y-51178213D01*
X170310288Y-51178210D01*
X170179185Y-51090609D01*
X170179172Y-51090602D01*
X170033501Y-51030264D01*
X170033489Y-51030261D01*
X169878845Y-50999500D01*
X169878842Y-50999500D01*
X169721158Y-50999500D01*
X169721155Y-50999500D01*
X169566510Y-51030261D01*
X169566498Y-51030264D01*
X169420827Y-51090602D01*
X169420814Y-51090609D01*
X169289711Y-51178210D01*
X169289707Y-51178213D01*
X169178213Y-51289707D01*
X169153102Y-51327289D01*
X169099489Y-51372093D01*
X169030164Y-51380800D01*
X168967137Y-51350645D01*
X168946898Y-51327289D01*
X168924667Y-51294018D01*
X168921789Y-51289711D01*
X168921788Y-51289710D01*
X168921786Y-51289707D01*
X168810292Y-51178213D01*
X168810288Y-51178210D01*
X168679185Y-51090609D01*
X168679172Y-51090602D01*
X168533501Y-51030264D01*
X168533489Y-51030261D01*
X168378845Y-50999500D01*
X168378842Y-50999500D01*
X168221158Y-50999500D01*
X168221155Y-50999500D01*
X168066510Y-51030261D01*
X168066498Y-51030264D01*
X167920827Y-51090602D01*
X167920814Y-51090609D01*
X167789711Y-51178210D01*
X167789707Y-51178213D01*
X167673903Y-51294018D01*
X167672591Y-51292706D01*
X167622004Y-51327155D01*
X167552159Y-51329017D01*
X167492396Y-51292822D01*
X167480810Y-51278042D01*
X167421789Y-51189710D01*
X167310292Y-51078213D01*
X167310288Y-51078210D01*
X167179185Y-50990609D01*
X167179172Y-50990602D01*
X167033501Y-50930264D01*
X167033489Y-50930261D01*
X166878845Y-50899500D01*
X166878842Y-50899500D01*
X166721158Y-50899500D01*
X166721155Y-50899500D01*
X166566510Y-50930261D01*
X166566498Y-50930264D01*
X166420827Y-50990602D01*
X166420814Y-50990609D01*
X166289711Y-51078210D01*
X166289707Y-51078213D01*
X166178213Y-51189707D01*
X166178210Y-51189711D01*
X166103102Y-51302118D01*
X166049490Y-51346923D01*
X165980165Y-51355630D01*
X165917137Y-51325475D01*
X165896898Y-51302118D01*
X165821789Y-51189711D01*
X165821786Y-51189707D01*
X165710292Y-51078213D01*
X165710288Y-51078210D01*
X165579185Y-50990609D01*
X165579172Y-50990602D01*
X165433501Y-50930264D01*
X165433489Y-50930261D01*
X165278845Y-50899500D01*
X165278842Y-50899500D01*
X165121158Y-50899500D01*
X165121155Y-50899500D01*
X164966510Y-50930261D01*
X164966498Y-50930264D01*
X164820827Y-50990602D01*
X164820814Y-50990609D01*
X164689711Y-51078210D01*
X164631336Y-51136585D01*
X164570012Y-51170069D01*
X164500321Y-51165084D01*
X164444387Y-51123213D01*
X164440552Y-51117792D01*
X164421790Y-51089712D01*
X164421786Y-51089707D01*
X164310292Y-50978213D01*
X164310288Y-50978210D01*
X164179185Y-50890609D01*
X164179172Y-50890602D01*
X164033501Y-50830264D01*
X164033489Y-50830261D01*
X163878845Y-50799500D01*
X163878842Y-50799500D01*
X163721158Y-50799500D01*
X163721155Y-50799500D01*
X163566510Y-50830261D01*
X163566498Y-50830264D01*
X163420827Y-50890602D01*
X163420814Y-50890609D01*
X163289711Y-50978210D01*
X163289707Y-50978213D01*
X163178213Y-51089707D01*
X163178210Y-51089711D01*
X163090609Y-51220814D01*
X163090602Y-51220827D01*
X163030264Y-51366498D01*
X163030261Y-51366510D01*
X162999500Y-51521153D01*
X161975500Y-51521153D01*
X161975500Y-49524000D01*
X161995185Y-49456961D01*
X162047989Y-49411206D01*
X162099500Y-49400000D01*
X175800500Y-49400000D01*
X175867539Y-49419685D01*
X175913294Y-49472489D01*
X175924500Y-49524000D01*
X175924500Y-51623802D01*
X175904815Y-51690841D01*
X175852011Y-51736596D01*
X175782853Y-51746540D01*
X175753051Y-51738365D01*
X175741565Y-51733608D01*
X175733497Y-51730266D01*
X175733493Y-51730265D01*
X175733489Y-51730264D01*
X175578845Y-51699503D01*
X175578842Y-51699503D01*
X175421158Y-51699503D01*
X175421155Y-51699503D01*
X175266510Y-51730264D01*
X175266498Y-51730267D01*
X175120827Y-51790605D01*
X175120814Y-51790612D01*
X174989711Y-51878213D01*
X174989707Y-51878216D01*
X174878213Y-51989710D01*
X174878210Y-51989714D01*
X174790609Y-52120817D01*
X174790602Y-52120830D01*
X174730264Y-52266501D01*
X174730261Y-52266513D01*
X174699500Y-52421156D01*
X174699500Y-52578849D01*
X174730261Y-52733492D01*
X174730264Y-52733504D01*
X174790602Y-52879175D01*
X174790609Y-52879188D01*
X174878210Y-53010291D01*
X174878213Y-53010295D01*
X174989707Y-53121789D01*
X174989711Y-53121792D01*
X175120814Y-53209393D01*
X175120827Y-53209400D01*
X175266498Y-53269738D01*
X175266503Y-53269740D01*
X175421153Y-53300502D01*
X175421156Y-53300503D01*
X175421158Y-53300503D01*
X175578844Y-53300503D01*
X175578845Y-53300502D01*
X175733497Y-53269740D01*
X175879179Y-53209397D01*
X176010289Y-53121792D01*
X176121789Y-53010292D01*
X176209394Y-52879182D01*
X176269737Y-52733500D01*
X176281751Y-52673104D01*
X176314136Y-52611193D01*
X176374851Y-52576619D01*
X176444621Y-52580358D01*
X176465365Y-52589907D01*
X176500555Y-52610224D01*
X176665062Y-52670100D01*
X176837466Y-52700500D01*
X176859108Y-52700500D01*
X180875500Y-52700500D01*
X180942539Y-52720185D01*
X180988294Y-52772989D01*
X180999500Y-52824500D01*
X180999500Y-58413444D01*
X180979815Y-58480483D01*
X180927011Y-58526238D01*
X180857853Y-58536182D01*
X180839575Y-58531202D01*
X180839324Y-58532031D01*
X180833500Y-58530264D01*
X180833497Y-58530263D01*
X180833492Y-58530262D01*
X180833489Y-58530261D01*
X180678845Y-58499500D01*
X180678842Y-58499500D01*
X180521158Y-58499500D01*
X180521155Y-58499500D01*
X180366510Y-58530261D01*
X180366498Y-58530264D01*
X180220827Y-58590602D01*
X180220814Y-58590609D01*
X180089711Y-58678210D01*
X180089707Y-58678213D01*
X179978213Y-58789707D01*
X179978210Y-58789711D01*
X179890609Y-58920814D01*
X179890602Y-58920827D01*
X179830264Y-59066498D01*
X179830261Y-59066510D01*
X179799500Y-59221153D01*
X179799500Y-59378846D01*
X179830261Y-59533489D01*
X179830264Y-59533501D01*
X179890602Y-59679172D01*
X179890609Y-59679185D01*
X179978210Y-59810288D01*
X179978213Y-59810292D01*
X180089707Y-59921786D01*
X180089711Y-59921789D01*
X180220814Y-60009390D01*
X180220827Y-60009397D01*
X180366498Y-60069735D01*
X180366503Y-60069737D01*
X180496982Y-60095691D01*
X180521153Y-60100499D01*
X180521156Y-60100500D01*
X180521158Y-60100500D01*
X180678844Y-60100500D01*
X180678845Y-60100499D01*
X180833497Y-60069737D01*
X180833509Y-60069731D01*
X180839324Y-60067969D01*
X180840158Y-60070720D01*
X180897359Y-60064497D01*
X180959878Y-60095691D01*
X180995608Y-60155734D01*
X180999500Y-60186555D01*
X180999500Y-62213444D01*
X180979815Y-62280483D01*
X180927011Y-62326238D01*
X180857853Y-62336182D01*
X180839575Y-62331202D01*
X180839324Y-62332031D01*
X180833500Y-62330264D01*
X180833497Y-62330263D01*
X180833492Y-62330262D01*
X180833489Y-62330261D01*
X180678845Y-62299500D01*
X180678842Y-62299500D01*
X180521158Y-62299500D01*
X180521155Y-62299500D01*
X180366510Y-62330261D01*
X180366498Y-62330264D01*
X180220827Y-62390602D01*
X180220814Y-62390609D01*
X180089711Y-62478210D01*
X180089707Y-62478213D01*
X179978213Y-62589707D01*
X179978210Y-62589711D01*
X179890609Y-62720814D01*
X179890602Y-62720827D01*
X179830264Y-62866498D01*
X179830261Y-62866510D01*
X179799500Y-63021153D01*
X179799500Y-63178846D01*
X179830261Y-63333489D01*
X179830264Y-63333501D01*
X179890602Y-63479172D01*
X179890609Y-63479185D01*
X179978210Y-63610288D01*
X179978213Y-63610292D01*
X180089707Y-63721786D01*
X180089711Y-63721789D01*
X180220814Y-63809390D01*
X180220827Y-63809397D01*
X180366498Y-63869735D01*
X180366503Y-63869737D01*
X180496982Y-63895691D01*
X180521153Y-63900499D01*
X180521156Y-63900500D01*
X180521158Y-63900500D01*
X180678844Y-63900500D01*
X180678845Y-63900499D01*
X180833497Y-63869737D01*
X180833509Y-63869731D01*
X180839324Y-63867969D01*
X180840158Y-63870720D01*
X180897359Y-63864497D01*
X180959878Y-63895691D01*
X180995608Y-63955734D01*
X180999500Y-63986555D01*
X180999500Y-81792297D01*
X180979815Y-81859336D01*
X180927011Y-81905091D01*
X180857853Y-81915035D01*
X180851309Y-81913914D01*
X180778845Y-81899500D01*
X180778842Y-81899500D01*
X180621158Y-81899500D01*
X180621155Y-81899500D01*
X180466510Y-81930261D01*
X180466498Y-81930264D01*
X180320827Y-81990602D01*
X180320814Y-81990609D01*
X180189711Y-82078210D01*
X180189707Y-82078213D01*
X180078213Y-82189707D01*
X180078210Y-82189711D01*
X179990609Y-82320814D01*
X179990602Y-82320827D01*
X179930264Y-82466498D01*
X179930261Y-82466508D01*
X179921617Y-82509967D01*
X179889232Y-82571878D01*
X179828516Y-82606452D01*
X179758747Y-82602712D01*
X179702075Y-82561845D01*
X179678383Y-82509967D01*
X179669738Y-82466508D01*
X179669737Y-82466507D01*
X179669737Y-82466503D01*
X179656062Y-82433489D01*
X179609397Y-82320827D01*
X179609390Y-82320814D01*
X179521789Y-82189711D01*
X179521786Y-82189707D01*
X179410292Y-82078213D01*
X179410288Y-82078210D01*
X179279185Y-81990609D01*
X179279172Y-81990602D01*
X179135864Y-81931243D01*
X179081460Y-81887402D01*
X179068761Y-81864147D01*
X179009394Y-81720821D01*
X179009392Y-81720818D01*
X179009390Y-81720814D01*
X178921789Y-81589711D01*
X178921786Y-81589707D01*
X178810292Y-81478213D01*
X178810288Y-81478210D01*
X178679185Y-81390609D01*
X178679172Y-81390602D01*
X178533501Y-81330264D01*
X178533489Y-81330261D01*
X178378845Y-81299500D01*
X178378842Y-81299500D01*
X178221158Y-81299500D01*
X178221155Y-81299500D01*
X178066510Y-81330261D01*
X178066498Y-81330264D01*
X177920827Y-81390602D01*
X177920814Y-81390609D01*
X177789711Y-81478210D01*
X177789707Y-81478213D01*
X177678213Y-81589707D01*
X177678210Y-81589711D01*
X177590609Y-81720814D01*
X177590602Y-81720827D01*
X177530264Y-81866498D01*
X177530261Y-81866510D01*
X177499500Y-82021153D01*
X177499500Y-82178846D01*
X177530261Y-82333489D01*
X177530264Y-82333501D01*
X177590602Y-82479172D01*
X177590609Y-82479185D01*
X177678210Y-82610288D01*
X177678213Y-82610292D01*
X177789707Y-82721786D01*
X177789711Y-82721789D01*
X177920814Y-82809390D01*
X177920818Y-82809392D01*
X177920821Y-82809394D01*
X178064138Y-82868757D01*
X178118537Y-82912595D01*
X178131243Y-82935864D01*
X178190602Y-83079172D01*
X178190609Y-83079185D01*
X178278210Y-83210288D01*
X178278213Y-83210292D01*
X178389707Y-83321786D01*
X178389711Y-83321789D01*
X178466200Y-83372898D01*
X178511005Y-83426510D01*
X178519712Y-83495835D01*
X178489557Y-83558863D01*
X178430114Y-83595582D01*
X178397309Y-83600000D01*
X152124500Y-83600000D01*
X152057461Y-83580315D01*
X152011706Y-83527511D01*
X152000500Y-83476000D01*
X152000500Y-82021153D01*
X153599500Y-82021153D01*
X153599500Y-82178846D01*
X153630261Y-82333489D01*
X153630264Y-82333501D01*
X153690602Y-82479172D01*
X153690609Y-82479185D01*
X153778210Y-82610288D01*
X153778213Y-82610292D01*
X153889707Y-82721786D01*
X153889711Y-82721789D01*
X154020814Y-82809390D01*
X154020827Y-82809397D01*
X154135147Y-82856749D01*
X154166503Y-82869737D01*
X154321153Y-82900499D01*
X154321156Y-82900500D01*
X154321158Y-82900500D01*
X154478844Y-82900500D01*
X154478845Y-82900499D01*
X154633497Y-82869737D01*
X154779179Y-82809394D01*
X154910289Y-82721789D01*
X155021789Y-82610289D01*
X155109394Y-82479179D01*
X155114643Y-82466508D01*
X155169735Y-82333501D01*
X155169737Y-82333497D01*
X155200500Y-82178842D01*
X155200500Y-82121153D01*
X167579500Y-82121153D01*
X167579500Y-82278846D01*
X167610261Y-82433489D01*
X167610264Y-82433501D01*
X167670602Y-82579172D01*
X167670609Y-82579185D01*
X167758210Y-82710288D01*
X167758213Y-82710292D01*
X167869707Y-82821786D01*
X167869711Y-82821789D01*
X168000814Y-82909390D01*
X168000827Y-82909397D01*
X168146498Y-82969735D01*
X168146503Y-82969737D01*
X168301153Y-83000499D01*
X168301156Y-83000500D01*
X168301158Y-83000500D01*
X168458844Y-83000500D01*
X168458845Y-83000499D01*
X168613497Y-82969737D01*
X168759179Y-82909394D01*
X168890289Y-82821789D01*
X168902318Y-82809759D01*
X168963638Y-82776275D01*
X169033330Y-82781257D01*
X169077681Y-82809759D01*
X169089708Y-82821786D01*
X169089712Y-82821790D01*
X169220814Y-82909390D01*
X169220827Y-82909397D01*
X169366498Y-82969735D01*
X169366503Y-82969737D01*
X169521153Y-83000499D01*
X169521156Y-83000500D01*
X169521158Y-83000500D01*
X169678844Y-83000500D01*
X169678845Y-83000499D01*
X169833497Y-82969737D01*
X169979179Y-82909394D01*
X170110289Y-82821789D01*
X170138530Y-82793548D01*
X170172319Y-82759760D01*
X170233642Y-82726275D01*
X170303334Y-82731259D01*
X170347681Y-82759760D01*
X170409707Y-82821786D01*
X170409711Y-82821789D01*
X170540814Y-82909390D01*
X170540827Y-82909397D01*
X170686498Y-82969735D01*
X170686503Y-82969737D01*
X170841153Y-83000499D01*
X170841156Y-83000500D01*
X170841158Y-83000500D01*
X170998844Y-83000500D01*
X170998845Y-83000499D01*
X171153497Y-82969737D01*
X171299179Y-82909394D01*
X171430289Y-82821789D01*
X171541789Y-82710289D01*
X171629394Y-82579179D01*
X171689737Y-82433497D01*
X171720500Y-82278842D01*
X171720500Y-82121158D01*
X171720500Y-82121155D01*
X171720499Y-82121153D01*
X171711957Y-82078210D01*
X171689737Y-81966503D01*
X171675132Y-81931243D01*
X171629397Y-81820827D01*
X171629390Y-81820814D01*
X171541789Y-81689711D01*
X171541786Y-81689707D01*
X171430292Y-81578213D01*
X171430288Y-81578210D01*
X171299185Y-81490609D01*
X171299172Y-81490602D01*
X171153501Y-81430264D01*
X171153489Y-81430261D01*
X170998845Y-81399500D01*
X170998842Y-81399500D01*
X170841158Y-81399500D01*
X170841155Y-81399500D01*
X170686510Y-81430261D01*
X170686498Y-81430264D01*
X170540827Y-81490602D01*
X170540814Y-81490609D01*
X170409711Y-81578210D01*
X170409707Y-81578213D01*
X170347681Y-81640240D01*
X170286358Y-81673725D01*
X170216666Y-81668741D01*
X170172319Y-81640240D01*
X170110292Y-81578213D01*
X170110288Y-81578210D01*
X169979185Y-81490609D01*
X169979172Y-81490602D01*
X169833501Y-81430264D01*
X169833489Y-81430261D01*
X169678845Y-81399500D01*
X169678842Y-81399500D01*
X169521158Y-81399500D01*
X169521155Y-81399500D01*
X169366510Y-81430261D01*
X169366498Y-81430264D01*
X169220827Y-81490602D01*
X169220814Y-81490609D01*
X169089711Y-81578210D01*
X169089707Y-81578213D01*
X169077681Y-81590240D01*
X169016358Y-81623725D01*
X168946666Y-81618741D01*
X168902319Y-81590240D01*
X168890292Y-81578213D01*
X168890288Y-81578210D01*
X168759185Y-81490609D01*
X168759172Y-81490602D01*
X168613501Y-81430264D01*
X168613489Y-81430261D01*
X168458845Y-81399500D01*
X168458842Y-81399500D01*
X168301158Y-81399500D01*
X168301155Y-81399500D01*
X168146510Y-81430261D01*
X168146498Y-81430264D01*
X168000827Y-81490602D01*
X168000814Y-81490609D01*
X167869711Y-81578210D01*
X167869707Y-81578213D01*
X167758213Y-81689707D01*
X167758210Y-81689711D01*
X167670609Y-81820814D01*
X167670602Y-81820827D01*
X167610264Y-81966498D01*
X167610261Y-81966510D01*
X167579500Y-82121153D01*
X155200500Y-82121153D01*
X155200500Y-82021158D01*
X155200500Y-82021155D01*
X155200499Y-82021153D01*
X155187858Y-81957602D01*
X155169737Y-81866503D01*
X155120195Y-81746897D01*
X155109397Y-81720827D01*
X155109390Y-81720814D01*
X155021789Y-81589711D01*
X155021786Y-81589707D01*
X154910292Y-81478213D01*
X154910288Y-81478210D01*
X154779185Y-81390609D01*
X154779172Y-81390602D01*
X154633501Y-81330264D01*
X154633489Y-81330261D01*
X154478845Y-81299500D01*
X154478842Y-81299500D01*
X154321158Y-81299500D01*
X154321155Y-81299500D01*
X154166510Y-81330261D01*
X154166498Y-81330264D01*
X154020827Y-81390602D01*
X154020814Y-81390609D01*
X153889711Y-81478210D01*
X153889707Y-81478213D01*
X153778213Y-81589707D01*
X153778210Y-81589711D01*
X153690609Y-81720814D01*
X153690602Y-81720827D01*
X153630264Y-81866498D01*
X153630261Y-81866510D01*
X153599500Y-82021153D01*
X152000500Y-82021153D01*
X152000500Y-78621153D01*
X154199500Y-78621153D01*
X154199500Y-78778846D01*
X154230261Y-78933489D01*
X154230264Y-78933501D01*
X154290602Y-79079172D01*
X154290609Y-79079185D01*
X154378210Y-79210288D01*
X154378213Y-79210292D01*
X154489707Y-79321786D01*
X154489711Y-79321789D01*
X154620814Y-79409390D01*
X154620827Y-79409397D01*
X154766498Y-79469735D01*
X154766503Y-79469737D01*
X154921153Y-79500499D01*
X154921156Y-79500500D01*
X154921158Y-79500500D01*
X155078844Y-79500500D01*
X155078845Y-79500499D01*
X155233497Y-79469737D01*
X155379179Y-79409394D01*
X155510289Y-79321789D01*
X155621789Y-79210289D01*
X155709394Y-79079179D01*
X155769737Y-78933497D01*
X155800500Y-78778842D01*
X155800500Y-78621158D01*
X155800500Y-78621155D01*
X155800499Y-78621153D01*
X155780734Y-78521789D01*
X155769737Y-78466503D01*
X155746080Y-78409390D01*
X155709397Y-78320827D01*
X155709390Y-78320814D01*
X155621789Y-78189711D01*
X155621786Y-78189707D01*
X155510292Y-78078213D01*
X155510288Y-78078210D01*
X155379185Y-77990609D01*
X155379172Y-77990602D01*
X155233501Y-77930264D01*
X155233489Y-77930261D01*
X155078845Y-77899500D01*
X155078842Y-77899500D01*
X154921158Y-77899500D01*
X154921155Y-77899500D01*
X154766510Y-77930261D01*
X154766498Y-77930264D01*
X154620827Y-77990602D01*
X154620814Y-77990609D01*
X154489711Y-78078210D01*
X154489707Y-78078213D01*
X154378213Y-78189707D01*
X154378210Y-78189711D01*
X154290609Y-78320814D01*
X154290602Y-78320827D01*
X154230264Y-78466498D01*
X154230261Y-78466510D01*
X154199500Y-78621153D01*
X152000500Y-78621153D01*
X152000500Y-77221153D01*
X164699500Y-77221153D01*
X164699500Y-77378846D01*
X164730261Y-77533489D01*
X164730264Y-77533501D01*
X164790602Y-77679172D01*
X164790609Y-77679185D01*
X164878210Y-77810288D01*
X164878213Y-77810292D01*
X164989707Y-77921786D01*
X164989711Y-77921789D01*
X165120814Y-78009390D01*
X165120827Y-78009397D01*
X165266498Y-78069735D01*
X165266503Y-78069737D01*
X165421153Y-78100499D01*
X165421156Y-78100500D01*
X165538572Y-78100500D01*
X165605611Y-78120185D01*
X165641674Y-78155608D01*
X165678213Y-78210292D01*
X165789707Y-78321786D01*
X165789711Y-78321789D01*
X165920814Y-78409390D01*
X165920827Y-78409397D01*
X166058683Y-78466498D01*
X166066503Y-78469737D01*
X166221153Y-78500499D01*
X166221156Y-78500500D01*
X166221158Y-78500500D01*
X166378844Y-78500500D01*
X166378845Y-78500499D01*
X166533497Y-78469737D01*
X166679179Y-78409394D01*
X166810289Y-78321789D01*
X166889760Y-78242317D01*
X166951081Y-78208834D01*
X167020773Y-78213818D01*
X167076707Y-78255689D01*
X167087190Y-78274100D01*
X167087736Y-78273809D01*
X167090609Y-78279185D01*
X167178210Y-78410288D01*
X167178213Y-78410292D01*
X167289707Y-78521786D01*
X167289711Y-78521789D01*
X167420814Y-78609390D01*
X167420827Y-78609397D01*
X167566498Y-78669735D01*
X167566503Y-78669737D01*
X167721153Y-78700499D01*
X167721156Y-78700500D01*
X167721158Y-78700500D01*
X167878844Y-78700500D01*
X167878845Y-78700499D01*
X168033497Y-78669737D01*
X168179179Y-78609394D01*
X168310289Y-78521789D01*
X168421789Y-78410289D01*
X168509394Y-78279179D01*
X168569737Y-78133497D01*
X168600500Y-77978842D01*
X168600500Y-77902628D01*
X168620185Y-77835589D01*
X168638570Y-77813230D01*
X168646482Y-77805624D01*
X168655062Y-77799892D01*
X168719849Y-77735104D01*
X168720715Y-77734272D01*
X168750640Y-77718691D01*
X168780285Y-77702504D01*
X168781914Y-77702409D01*
X168782689Y-77702006D01*
X168785087Y-77702225D01*
X168818808Y-77700268D01*
X168821154Y-77700499D01*
X168821158Y-77700500D01*
X168821162Y-77700500D01*
X168978844Y-77700500D01*
X168978845Y-77700499D01*
X169133497Y-77669737D01*
X169279179Y-77609394D01*
X169410289Y-77521789D01*
X169521789Y-77410289D01*
X169609394Y-77279179D01*
X169669737Y-77133497D01*
X169700500Y-76978842D01*
X169700500Y-76821158D01*
X169700500Y-76821155D01*
X169700499Y-76821153D01*
X169698036Y-76808772D01*
X169669737Y-76666503D01*
X169669735Y-76666498D01*
X169609397Y-76520827D01*
X169609390Y-76520814D01*
X169521789Y-76389711D01*
X169521786Y-76389707D01*
X169410292Y-76278213D01*
X169410288Y-76278210D01*
X169279185Y-76190609D01*
X169279172Y-76190602D01*
X169133501Y-76130264D01*
X169133489Y-76130261D01*
X168978845Y-76099500D01*
X168978842Y-76099500D01*
X168821158Y-76099500D01*
X168821155Y-76099500D01*
X168666510Y-76130261D01*
X168666498Y-76130264D01*
X168520827Y-76190602D01*
X168520814Y-76190609D01*
X168389714Y-76278208D01*
X168325806Y-76342115D01*
X168264482Y-76375599D01*
X168225976Y-76377835D01*
X168223620Y-76377603D01*
X168223615Y-76377603D01*
X168065931Y-76377603D01*
X168065928Y-76377603D01*
X167911283Y-76408364D01*
X167911271Y-76408367D01*
X167765600Y-76468705D01*
X167765587Y-76468712D01*
X167634484Y-76556313D01*
X167634480Y-76556316D01*
X167522986Y-76667810D01*
X167522983Y-76667814D01*
X167435382Y-76798917D01*
X167435375Y-76798930D01*
X167375037Y-76944601D01*
X167375034Y-76944613D01*
X167344273Y-77099256D01*
X167344273Y-77175474D01*
X167324588Y-77242513D01*
X167306488Y-77264597D01*
X167298453Y-77272369D01*
X167289711Y-77278211D01*
X167209570Y-77358351D01*
X167208774Y-77359122D01*
X167178708Y-77374897D01*
X167148916Y-77391165D01*
X167147851Y-77391088D01*
X167146904Y-77391586D01*
X167113083Y-77388602D01*
X167079225Y-77386181D01*
X167078368Y-77385539D01*
X167077304Y-77385446D01*
X167050473Y-77364657D01*
X167023291Y-77344309D01*
X167022565Y-77343034D01*
X167022073Y-77342653D01*
X167021619Y-77341372D01*
X167012810Y-77325898D01*
X167012264Y-77326191D01*
X167009390Y-77320814D01*
X166921789Y-77189711D01*
X166921786Y-77189707D01*
X166810292Y-77078213D01*
X166810288Y-77078210D01*
X166679185Y-76990609D01*
X166679172Y-76990602D01*
X166533501Y-76930264D01*
X166533489Y-76930261D01*
X166378849Y-76899500D01*
X166374071Y-76899030D01*
X166309285Y-76872867D01*
X166268928Y-76815831D01*
X166265813Y-76746031D01*
X166298546Y-76687947D01*
X166376205Y-76610289D01*
X166463810Y-76479179D01*
X166468149Y-76468705D01*
X166493142Y-76408364D01*
X166524153Y-76333497D01*
X166554916Y-76178842D01*
X166554916Y-76021158D01*
X166554916Y-76021155D01*
X166554915Y-76021153D01*
X166540269Y-75947524D01*
X166524153Y-75866503D01*
X166507120Y-75825382D01*
X166463813Y-75720827D01*
X166463806Y-75720814D01*
X166376205Y-75589711D01*
X166376202Y-75589707D01*
X166264708Y-75478213D01*
X166264704Y-75478210D01*
X166133601Y-75390609D01*
X166133588Y-75390602D01*
X165987917Y-75330264D01*
X165987905Y-75330261D01*
X165833261Y-75299500D01*
X165833258Y-75299500D01*
X165675574Y-75299500D01*
X165675571Y-75299500D01*
X165520926Y-75330261D01*
X165520914Y-75330264D01*
X165375243Y-75390602D01*
X165375230Y-75390609D01*
X165244127Y-75478210D01*
X165244123Y-75478213D01*
X165132629Y-75589707D01*
X165132626Y-75589711D01*
X165045025Y-75720814D01*
X165045018Y-75720827D01*
X164984680Y-75866498D01*
X164984677Y-75866510D01*
X164953916Y-76021153D01*
X164953916Y-76178846D01*
X164984677Y-76333489D01*
X164984680Y-76333501D01*
X165045018Y-76479172D01*
X165045025Y-76479184D01*
X165050999Y-76488125D01*
X165071877Y-76554802D01*
X165053393Y-76622182D01*
X165016791Y-76660116D01*
X164989709Y-76678212D01*
X164989704Y-76678217D01*
X164878213Y-76789707D01*
X164878210Y-76789711D01*
X164790609Y-76920814D01*
X164790602Y-76920827D01*
X164730264Y-77066498D01*
X164730261Y-77066510D01*
X164699500Y-77221153D01*
X152000500Y-77221153D01*
X152000500Y-75921153D01*
X155399500Y-75921153D01*
X155399500Y-76078846D01*
X155430261Y-76233489D01*
X155430264Y-76233501D01*
X155490602Y-76379172D01*
X155490609Y-76379185D01*
X155578210Y-76510288D01*
X155578213Y-76510292D01*
X155689707Y-76621786D01*
X155689711Y-76621789D01*
X155820814Y-76709390D01*
X155820827Y-76709397D01*
X155962959Y-76768269D01*
X155966503Y-76769737D01*
X156113200Y-76798917D01*
X156121153Y-76800499D01*
X156121156Y-76800500D01*
X156121158Y-76800500D01*
X156278844Y-76800500D01*
X156278845Y-76800499D01*
X156433497Y-76769737D01*
X156579179Y-76709394D01*
X156710289Y-76621789D01*
X156821789Y-76510289D01*
X156909394Y-76379179D01*
X156969737Y-76233497D01*
X157000500Y-76078842D01*
X157000500Y-75980025D01*
X157995628Y-75980025D01*
X157995628Y-76137718D01*
X158026389Y-76292361D01*
X158026392Y-76292373D01*
X158086730Y-76438044D01*
X158086737Y-76438057D01*
X158174338Y-76569160D01*
X158174341Y-76569164D01*
X158285835Y-76680658D01*
X158285839Y-76680661D01*
X158416942Y-76768262D01*
X158416955Y-76768269D01*
X158562626Y-76828607D01*
X158562631Y-76828609D01*
X158717281Y-76859371D01*
X158717284Y-76859372D01*
X158717286Y-76859372D01*
X158874972Y-76859372D01*
X158874973Y-76859371D01*
X159029625Y-76828609D01*
X159171756Y-76769737D01*
X159175300Y-76768269D01*
X159175300Y-76768268D01*
X159175307Y-76768266D01*
X159306417Y-76680661D01*
X159417917Y-76569161D01*
X159505522Y-76438051D01*
X159565865Y-76292369D01*
X159581591Y-76213310D01*
X161499500Y-76213310D01*
X161499500Y-76371003D01*
X161530261Y-76525646D01*
X161530264Y-76525658D01*
X161590602Y-76671329D01*
X161590609Y-76671342D01*
X161678210Y-76802445D01*
X161678213Y-76802449D01*
X161789707Y-76913943D01*
X161789711Y-76913946D01*
X161920814Y-77001547D01*
X161920827Y-77001554D01*
X162066498Y-77061892D01*
X162066503Y-77061894D01*
X162221153Y-77092656D01*
X162221156Y-77092657D01*
X162221158Y-77092657D01*
X162378844Y-77092657D01*
X162378844Y-77092656D01*
X162533497Y-77061894D01*
X162679179Y-77001551D01*
X162810289Y-76913946D01*
X162921789Y-76802446D01*
X163009394Y-76671336D01*
X163014042Y-76660116D01*
X163042576Y-76591227D01*
X163069737Y-76525654D01*
X163100500Y-76370999D01*
X163100500Y-76213315D01*
X163100500Y-76213312D01*
X163100499Y-76213310D01*
X163083979Y-76130261D01*
X163069737Y-76058660D01*
X163069735Y-76058655D01*
X163009397Y-75912984D01*
X163009390Y-75912971D01*
X162921789Y-75781868D01*
X162921786Y-75781864D01*
X162810292Y-75670370D01*
X162810288Y-75670367D01*
X162679185Y-75582766D01*
X162679172Y-75582759D01*
X162533501Y-75522421D01*
X162533489Y-75522418D01*
X162378845Y-75491657D01*
X162378842Y-75491657D01*
X162221158Y-75491657D01*
X162221155Y-75491657D01*
X162066510Y-75522418D01*
X162066498Y-75522421D01*
X161920827Y-75582759D01*
X161920814Y-75582766D01*
X161789711Y-75670367D01*
X161789707Y-75670370D01*
X161678213Y-75781864D01*
X161678210Y-75781868D01*
X161590609Y-75912971D01*
X161590602Y-75912984D01*
X161530264Y-76058655D01*
X161530261Y-76058667D01*
X161499500Y-76213310D01*
X159581591Y-76213310D01*
X159596628Y-76137714D01*
X159596628Y-76028069D01*
X159616313Y-75961030D01*
X159669117Y-75915275D01*
X159738275Y-75905331D01*
X159801831Y-75934356D01*
X159808309Y-75940388D01*
X159815442Y-75947521D01*
X159815446Y-75947524D01*
X159946549Y-76035125D01*
X159946562Y-76035132D01*
X160092233Y-76095470D01*
X160092238Y-76095472D01*
X160246888Y-76126234D01*
X160246891Y-76126235D01*
X160246893Y-76126235D01*
X160404579Y-76126235D01*
X160404580Y-76126234D01*
X160559232Y-76095472D01*
X160704914Y-76035129D01*
X160836024Y-75947524D01*
X160947524Y-75836024D01*
X161035129Y-75704914D01*
X161095472Y-75559232D01*
X161126235Y-75404577D01*
X161126235Y-75246893D01*
X161126235Y-75246890D01*
X161126234Y-75246888D01*
X161105940Y-75144863D01*
X161095472Y-75092238D01*
X161043245Y-74966149D01*
X161035132Y-74946562D01*
X161035125Y-74946549D01*
X160947524Y-74815446D01*
X160947521Y-74815442D01*
X160836027Y-74703948D01*
X160836023Y-74703945D01*
X160704920Y-74616344D01*
X160704907Y-74616337D01*
X160559236Y-74555999D01*
X160559224Y-74555996D01*
X160404580Y-74525235D01*
X160404577Y-74525235D01*
X160246893Y-74525235D01*
X160246890Y-74525235D01*
X160092245Y-74555996D01*
X160092233Y-74555999D01*
X159946562Y-74616337D01*
X159946549Y-74616344D01*
X159815446Y-74703945D01*
X159815442Y-74703948D01*
X159703948Y-74815442D01*
X159703945Y-74815446D01*
X159616344Y-74946549D01*
X159616337Y-74946562D01*
X159555999Y-75092233D01*
X159555996Y-75092245D01*
X159525235Y-75246888D01*
X159525235Y-75356538D01*
X159505550Y-75423577D01*
X159452746Y-75469332D01*
X159383588Y-75479276D01*
X159320032Y-75450251D01*
X159313554Y-75444219D01*
X159306420Y-75437085D01*
X159306416Y-75437082D01*
X159175313Y-75349481D01*
X159175300Y-75349474D01*
X159029629Y-75289136D01*
X159029617Y-75289133D01*
X158874973Y-75258372D01*
X158874970Y-75258372D01*
X158717286Y-75258372D01*
X158717283Y-75258372D01*
X158562638Y-75289133D01*
X158562626Y-75289136D01*
X158416955Y-75349474D01*
X158416942Y-75349481D01*
X158285839Y-75437082D01*
X158285835Y-75437085D01*
X158174341Y-75548579D01*
X158174338Y-75548583D01*
X158086737Y-75679686D01*
X158086730Y-75679699D01*
X158026392Y-75825370D01*
X158026389Y-75825382D01*
X157995628Y-75980025D01*
X157000500Y-75980025D01*
X157000500Y-75921158D01*
X157000500Y-75921155D01*
X157000499Y-75921153D01*
X156983566Y-75836027D01*
X156969737Y-75766503D01*
X156944226Y-75704914D01*
X156909397Y-75620827D01*
X156909390Y-75620814D01*
X156821789Y-75489711D01*
X156821786Y-75489707D01*
X156710292Y-75378213D01*
X156710288Y-75378210D01*
X156579185Y-75290609D01*
X156579172Y-75290602D01*
X156433501Y-75230264D01*
X156433489Y-75230261D01*
X156278845Y-75199500D01*
X156278842Y-75199500D01*
X156121158Y-75199500D01*
X156121155Y-75199500D01*
X155966510Y-75230261D01*
X155966498Y-75230264D01*
X155820827Y-75290602D01*
X155820814Y-75290609D01*
X155689711Y-75378210D01*
X155689707Y-75378213D01*
X155578213Y-75489707D01*
X155578210Y-75489711D01*
X155490609Y-75620814D01*
X155490602Y-75620827D01*
X155430264Y-75766498D01*
X155430261Y-75766510D01*
X155399500Y-75921153D01*
X152000500Y-75921153D01*
X152000500Y-74265516D01*
X167158079Y-74265516D01*
X167158079Y-74423209D01*
X167188840Y-74577852D01*
X167188843Y-74577864D01*
X167249181Y-74723535D01*
X167249188Y-74723548D01*
X167336789Y-74854651D01*
X167336792Y-74854655D01*
X167448286Y-74966149D01*
X167448290Y-74966152D01*
X167579393Y-75053753D01*
X167579406Y-75053760D01*
X167725077Y-75114098D01*
X167725082Y-75114100D01*
X167879732Y-75144862D01*
X167879735Y-75144863D01*
X167879737Y-75144863D01*
X168037423Y-75144863D01*
X168037424Y-75144862D01*
X168192076Y-75114100D01*
X168337758Y-75053757D01*
X168468868Y-74966152D01*
X168580368Y-74854652D01*
X168667973Y-74723542D01*
X168728316Y-74577860D01*
X168759079Y-74423205D01*
X168759079Y-74265521D01*
X168759079Y-74265518D01*
X168759078Y-74265516D01*
X168728317Y-74110873D01*
X168728316Y-74110866D01*
X168691156Y-74021153D01*
X171399500Y-74021153D01*
X171399500Y-74178846D01*
X171430261Y-74333489D01*
X171430264Y-74333501D01*
X171490602Y-74479172D01*
X171490609Y-74479185D01*
X171578210Y-74610288D01*
X171578213Y-74610292D01*
X171689707Y-74721786D01*
X171689711Y-74721789D01*
X171820814Y-74809390D01*
X171820827Y-74809397D01*
X171966498Y-74869735D01*
X171966503Y-74869737D01*
X172121153Y-74900499D01*
X172121156Y-74900500D01*
X172121158Y-74900500D01*
X172278844Y-74900500D01*
X172278845Y-74900499D01*
X172433497Y-74869737D01*
X172579179Y-74809394D01*
X172710289Y-74721789D01*
X172821789Y-74610289D01*
X172909394Y-74479179D01*
X172969737Y-74333497D01*
X173000500Y-74178842D01*
X173000500Y-74021158D01*
X173000500Y-74021155D01*
X173000499Y-74021153D01*
X172989366Y-73965184D01*
X172969737Y-73866503D01*
X172910121Y-73722576D01*
X172909397Y-73720827D01*
X172909390Y-73720814D01*
X172821789Y-73589711D01*
X172821786Y-73589707D01*
X172710292Y-73478213D01*
X172710288Y-73478210D01*
X172579185Y-73390609D01*
X172579172Y-73390602D01*
X172433501Y-73330264D01*
X172433489Y-73330261D01*
X172278845Y-73299500D01*
X172278842Y-73299500D01*
X172121158Y-73299500D01*
X172121155Y-73299500D01*
X171966510Y-73330261D01*
X171966498Y-73330264D01*
X171820827Y-73390602D01*
X171820814Y-73390609D01*
X171689711Y-73478210D01*
X171689707Y-73478213D01*
X171578213Y-73589707D01*
X171578210Y-73589711D01*
X171490609Y-73720814D01*
X171490602Y-73720827D01*
X171430264Y-73866498D01*
X171430261Y-73866510D01*
X171399500Y-74021153D01*
X168691156Y-74021153D01*
X168667976Y-73965190D01*
X168667969Y-73965177D01*
X168580368Y-73834074D01*
X168580365Y-73834070D01*
X168468871Y-73722576D01*
X168468867Y-73722573D01*
X168337764Y-73634972D01*
X168337751Y-73634965D01*
X168192080Y-73574627D01*
X168192068Y-73574624D01*
X168037424Y-73543863D01*
X168037421Y-73543863D01*
X167879737Y-73543863D01*
X167879734Y-73543863D01*
X167725089Y-73574624D01*
X167725077Y-73574627D01*
X167579406Y-73634965D01*
X167579393Y-73634972D01*
X167448290Y-73722573D01*
X167448286Y-73722576D01*
X167336792Y-73834070D01*
X167336789Y-73834074D01*
X167249188Y-73965177D01*
X167249181Y-73965190D01*
X167188843Y-74110861D01*
X167188840Y-74110873D01*
X167158079Y-74265516D01*
X152000500Y-74265516D01*
X152000500Y-72021153D01*
X157579500Y-72021153D01*
X157579500Y-72178846D01*
X157610261Y-72333489D01*
X157610264Y-72333501D01*
X157670602Y-72479172D01*
X157670609Y-72479185D01*
X157758210Y-72610288D01*
X157758213Y-72610292D01*
X157869707Y-72721786D01*
X157869711Y-72721789D01*
X158000814Y-72809390D01*
X158000827Y-72809397D01*
X158130236Y-72862999D01*
X158146503Y-72869737D01*
X158301153Y-72900499D01*
X158301156Y-72900500D01*
X158301158Y-72900500D01*
X158458844Y-72900500D01*
X158458845Y-72900499D01*
X158613497Y-72869737D01*
X158759179Y-72809394D01*
X158890289Y-72721789D01*
X158890292Y-72721786D01*
X158927319Y-72684760D01*
X158988642Y-72651275D01*
X159058334Y-72656259D01*
X159102681Y-72684760D01*
X159139707Y-72721786D01*
X159139711Y-72721789D01*
X159270814Y-72809390D01*
X159270827Y-72809397D01*
X159400236Y-72862999D01*
X159416503Y-72869737D01*
X159571153Y-72900499D01*
X159571156Y-72900500D01*
X159571158Y-72900500D01*
X159728844Y-72900500D01*
X159728845Y-72900499D01*
X159883497Y-72869737D01*
X160029179Y-72809394D01*
X160160289Y-72721789D01*
X160271789Y-72610289D01*
X160359394Y-72479179D01*
X160419737Y-72333497D01*
X160450500Y-72178842D01*
X160450500Y-72021158D01*
X160450500Y-72021155D01*
X160450499Y-72021153D01*
X160426499Y-71900499D01*
X160419737Y-71866503D01*
X160392398Y-71800500D01*
X160359397Y-71720827D01*
X160359390Y-71720814D01*
X160271789Y-71589711D01*
X160271786Y-71589707D01*
X160160292Y-71478213D01*
X160160288Y-71478210D01*
X160029185Y-71390609D01*
X160029172Y-71390602D01*
X159883501Y-71330264D01*
X159883489Y-71330261D01*
X159728845Y-71299500D01*
X159728842Y-71299500D01*
X159571158Y-71299500D01*
X159571155Y-71299500D01*
X159416510Y-71330261D01*
X159416498Y-71330264D01*
X159270827Y-71390602D01*
X159270814Y-71390609D01*
X159139711Y-71478210D01*
X159139707Y-71478213D01*
X159102681Y-71515240D01*
X159041358Y-71548725D01*
X158971666Y-71543741D01*
X158927319Y-71515240D01*
X158890292Y-71478213D01*
X158890288Y-71478210D01*
X158759185Y-71390609D01*
X158759172Y-71390602D01*
X158613501Y-71330264D01*
X158613489Y-71330261D01*
X158458845Y-71299500D01*
X158458842Y-71299500D01*
X158301158Y-71299500D01*
X158301155Y-71299500D01*
X158146510Y-71330261D01*
X158146498Y-71330264D01*
X158000827Y-71390602D01*
X158000814Y-71390609D01*
X157869711Y-71478210D01*
X157869707Y-71478213D01*
X157758213Y-71589707D01*
X157758210Y-71589711D01*
X157670609Y-71720814D01*
X157670602Y-71720827D01*
X157610264Y-71866498D01*
X157610261Y-71866510D01*
X157579500Y-72021153D01*
X152000500Y-72021153D01*
X152000500Y-70121153D01*
X155599500Y-70121153D01*
X155599500Y-70278846D01*
X155630261Y-70433489D01*
X155630264Y-70433501D01*
X155690602Y-70579172D01*
X155690609Y-70579185D01*
X155778210Y-70710288D01*
X155778213Y-70710292D01*
X155889707Y-70821786D01*
X155889711Y-70821789D01*
X156020814Y-70909390D01*
X156020827Y-70909397D01*
X156166498Y-70969735D01*
X156166503Y-70969737D01*
X156321153Y-71000499D01*
X156321156Y-71000500D01*
X156321158Y-71000500D01*
X156478844Y-71000500D01*
X156478845Y-71000499D01*
X156633497Y-70969737D01*
X156779179Y-70909394D01*
X156910289Y-70821789D01*
X157021789Y-70710289D01*
X157109394Y-70579179D01*
X157154139Y-70471153D01*
X160999500Y-70471153D01*
X160999500Y-70628846D01*
X161030261Y-70783489D01*
X161030264Y-70783501D01*
X161090602Y-70929172D01*
X161090609Y-70929185D01*
X161178210Y-71060288D01*
X161178213Y-71060292D01*
X161289707Y-71171786D01*
X161289711Y-71171789D01*
X161420814Y-71259390D01*
X161420827Y-71259397D01*
X161566498Y-71319735D01*
X161566503Y-71319737D01*
X161654250Y-71337191D01*
X161721153Y-71350499D01*
X161721156Y-71350500D01*
X161721158Y-71350500D01*
X161878844Y-71350500D01*
X161878845Y-71350499D01*
X162033497Y-71319737D01*
X162179179Y-71259394D01*
X162310289Y-71171789D01*
X162421789Y-71060289D01*
X162509394Y-70929179D01*
X162512719Y-70921153D01*
X162569735Y-70783501D01*
X162569737Y-70783497D01*
X162600500Y-70628842D01*
X162600500Y-70471158D01*
X162600500Y-70471155D01*
X162600499Y-70471153D01*
X163799500Y-70471153D01*
X163799500Y-70628846D01*
X163830261Y-70783489D01*
X163830264Y-70783501D01*
X163890602Y-70929172D01*
X163890609Y-70929185D01*
X163978210Y-71060288D01*
X163978213Y-71060292D01*
X164089707Y-71171786D01*
X164089711Y-71171789D01*
X164220814Y-71259390D01*
X164220827Y-71259397D01*
X164366498Y-71319735D01*
X164366503Y-71319737D01*
X164454250Y-71337191D01*
X164521153Y-71350499D01*
X164521156Y-71350500D01*
X164521158Y-71350500D01*
X164678844Y-71350500D01*
X164678845Y-71350499D01*
X164833497Y-71319737D01*
X164979179Y-71259394D01*
X165110289Y-71171789D01*
X165221789Y-71060289D01*
X165309394Y-70929179D01*
X165309395Y-70929176D01*
X165309397Y-70929173D01*
X165312719Y-70921153D01*
X172699500Y-70921153D01*
X172699500Y-71078846D01*
X172730261Y-71233489D01*
X172730264Y-71233501D01*
X172790602Y-71379172D01*
X172790609Y-71379185D01*
X172878210Y-71510288D01*
X172878213Y-71510292D01*
X172989707Y-71621786D01*
X172989711Y-71621789D01*
X173120814Y-71709390D01*
X173120827Y-71709397D01*
X173266498Y-71769735D01*
X173266503Y-71769737D01*
X173421153Y-71800499D01*
X173421156Y-71800500D01*
X173421158Y-71800500D01*
X173578844Y-71800500D01*
X173578845Y-71800499D01*
X173733497Y-71769737D01*
X173849255Y-71721789D01*
X173866326Y-71714718D01*
X173935795Y-71707249D01*
X173998274Y-71738524D01*
X174033926Y-71798613D01*
X174035395Y-71853470D01*
X174009500Y-71983653D01*
X174009500Y-72141346D01*
X174040261Y-72295989D01*
X174040264Y-72296001D01*
X174100602Y-72441672D01*
X174100609Y-72441685D01*
X174188210Y-72572788D01*
X174188213Y-72572792D01*
X174299707Y-72684286D01*
X174299711Y-72684289D01*
X174430814Y-72771890D01*
X174430827Y-72771897D01*
X174576498Y-72832235D01*
X174576503Y-72832237D01*
X174731153Y-72862999D01*
X174731156Y-72863000D01*
X174731158Y-72863000D01*
X174888844Y-72863000D01*
X174888845Y-72862999D01*
X175043497Y-72832237D01*
X175189179Y-72771894D01*
X175320289Y-72684289D01*
X175431789Y-72572789D01*
X175519394Y-72441679D01*
X175579737Y-72295997D01*
X175610500Y-72141342D01*
X175610500Y-71983658D01*
X175610500Y-71983655D01*
X175592531Y-71893322D01*
X175598758Y-71823730D01*
X175641621Y-71768553D01*
X175707510Y-71745308D01*
X175761598Y-71754568D01*
X175846503Y-71789737D01*
X176001153Y-71820499D01*
X176001156Y-71820500D01*
X176001158Y-71820500D01*
X176158844Y-71820500D01*
X176158845Y-71820499D01*
X176313497Y-71789737D01*
X176443100Y-71736054D01*
X176459172Y-71729397D01*
X176459172Y-71729396D01*
X176459179Y-71729394D01*
X176590289Y-71641789D01*
X176590291Y-71641786D01*
X176594993Y-71637928D01*
X176596495Y-71639758D01*
X176648596Y-71611284D01*
X176718289Y-71616242D01*
X176762680Y-71644759D01*
X176839707Y-71721786D01*
X176839711Y-71721789D01*
X176970814Y-71809390D01*
X176970827Y-71809397D01*
X177082624Y-71855704D01*
X177116503Y-71869737D01*
X177235072Y-71893322D01*
X177271153Y-71900499D01*
X177271156Y-71900500D01*
X177271158Y-71900500D01*
X177428844Y-71900500D01*
X177428845Y-71900499D01*
X177583497Y-71869737D01*
X177729179Y-71809394D01*
X177860289Y-71721789D01*
X177897318Y-71684759D01*
X177958638Y-71651274D01*
X178028330Y-71656257D01*
X178072680Y-71684759D01*
X178123972Y-71736051D01*
X178123976Y-71736054D01*
X178255079Y-71823655D01*
X178255092Y-71823662D01*
X178358509Y-71866498D01*
X178400768Y-71884002D01*
X178555418Y-71914764D01*
X178555421Y-71914765D01*
X178555423Y-71914765D01*
X178713109Y-71914765D01*
X178713110Y-71914764D01*
X178867762Y-71884002D01*
X178918048Y-71863172D01*
X178987516Y-71855704D01*
X179049996Y-71886979D01*
X179085648Y-71947068D01*
X179089500Y-71977734D01*
X179089500Y-72141346D01*
X179120261Y-72295989D01*
X179120264Y-72296001D01*
X179180602Y-72441672D01*
X179180609Y-72441685D01*
X179268210Y-72572788D01*
X179268213Y-72572792D01*
X179379707Y-72684286D01*
X179379711Y-72684289D01*
X179510814Y-72771890D01*
X179510827Y-72771897D01*
X179656498Y-72832235D01*
X179656503Y-72832237D01*
X179811153Y-72862999D01*
X179811156Y-72863000D01*
X179811158Y-72863000D01*
X179968844Y-72863000D01*
X179968845Y-72862999D01*
X180123497Y-72832237D01*
X180269179Y-72771894D01*
X180400289Y-72684289D01*
X180511789Y-72572789D01*
X180599394Y-72441679D01*
X180659737Y-72295997D01*
X180690500Y-72141342D01*
X180690500Y-71983658D01*
X180690500Y-71983655D01*
X180690499Y-71983653D01*
X180673959Y-71900500D01*
X180659737Y-71829003D01*
X180657525Y-71823662D01*
X180599397Y-71683327D01*
X180599390Y-71683314D01*
X180511789Y-71552211D01*
X180511786Y-71552207D01*
X180400292Y-71440713D01*
X180400288Y-71440710D01*
X180269185Y-71353109D01*
X180269172Y-71353102D01*
X180123501Y-71292764D01*
X180123489Y-71292761D01*
X179968845Y-71262000D01*
X179968842Y-71262000D01*
X179811158Y-71262000D01*
X179811155Y-71262000D01*
X179656510Y-71292761D01*
X179656503Y-71292763D01*
X179606216Y-71313592D01*
X179536747Y-71321059D01*
X179474268Y-71289784D01*
X179438616Y-71229694D01*
X179434765Y-71199030D01*
X179434765Y-71035420D01*
X179434764Y-71035418D01*
X179413633Y-70929185D01*
X179404002Y-70880768D01*
X179404000Y-70880763D01*
X179343662Y-70735092D01*
X179343655Y-70735079D01*
X179256054Y-70603976D01*
X179256051Y-70603972D01*
X179144557Y-70492478D01*
X179144553Y-70492475D01*
X179013450Y-70404874D01*
X179013437Y-70404867D01*
X178867766Y-70344529D01*
X178867754Y-70344526D01*
X178713110Y-70313765D01*
X178713107Y-70313765D01*
X178555423Y-70313765D01*
X178555420Y-70313765D01*
X178400775Y-70344526D01*
X178400763Y-70344529D01*
X178255092Y-70404867D01*
X178255079Y-70404874D01*
X178123976Y-70492475D01*
X178123972Y-70492478D01*
X178086946Y-70529505D01*
X178025623Y-70562990D01*
X177955931Y-70558006D01*
X177911584Y-70529505D01*
X177860292Y-70478213D01*
X177860288Y-70478210D01*
X177729185Y-70390609D01*
X177729172Y-70390602D01*
X177583501Y-70330264D01*
X177583489Y-70330261D01*
X177428845Y-70299500D01*
X177428842Y-70299500D01*
X177271158Y-70299500D01*
X177271155Y-70299500D01*
X177116510Y-70330261D01*
X177116498Y-70330264D01*
X176970827Y-70390602D01*
X176970814Y-70390609D01*
X176839714Y-70478208D01*
X176835007Y-70482072D01*
X176833515Y-70480255D01*
X176781313Y-70508735D01*
X176711623Y-70503725D01*
X176667319Y-70475240D01*
X176590292Y-70398213D01*
X176590288Y-70398210D01*
X176459185Y-70310609D01*
X176459172Y-70310602D01*
X176313501Y-70250264D01*
X176313489Y-70250261D01*
X176158845Y-70219500D01*
X176158842Y-70219500D01*
X176001158Y-70219500D01*
X176001155Y-70219500D01*
X175846510Y-70250261D01*
X175846498Y-70250264D01*
X175700827Y-70310602D01*
X175700814Y-70310609D01*
X175569711Y-70398210D01*
X175569707Y-70398213D01*
X175458213Y-70509707D01*
X175458210Y-70509711D01*
X175370609Y-70640814D01*
X175370602Y-70640827D01*
X175310264Y-70786498D01*
X175310261Y-70786510D01*
X175279500Y-70941153D01*
X175279500Y-71098846D01*
X175297468Y-71189178D01*
X175291241Y-71258770D01*
X175248378Y-71313947D01*
X175182488Y-71337191D01*
X175128399Y-71327930D01*
X175043501Y-71292764D01*
X175043489Y-71292761D01*
X174888845Y-71262000D01*
X174888842Y-71262000D01*
X174731158Y-71262000D01*
X174731155Y-71262000D01*
X174576510Y-71292761D01*
X174576503Y-71292763D01*
X174443672Y-71347782D01*
X174374203Y-71355250D01*
X174311724Y-71323974D01*
X174276072Y-71263885D01*
X174274604Y-71209028D01*
X174300500Y-71078844D01*
X174300500Y-70921155D01*
X174300499Y-70921153D01*
X174280734Y-70821789D01*
X174269737Y-70766503D01*
X174217681Y-70640827D01*
X174209397Y-70620827D01*
X174209390Y-70620814D01*
X174121789Y-70489711D01*
X174121786Y-70489707D01*
X174010292Y-70378213D01*
X174010288Y-70378210D01*
X173879185Y-70290609D01*
X173879172Y-70290602D01*
X173733501Y-70230264D01*
X173733489Y-70230261D01*
X173578845Y-70199500D01*
X173578842Y-70199500D01*
X173421158Y-70199500D01*
X173421155Y-70199500D01*
X173266510Y-70230261D01*
X173266498Y-70230264D01*
X173120827Y-70290602D01*
X173120814Y-70290609D01*
X172989711Y-70378210D01*
X172989707Y-70378213D01*
X172878213Y-70489707D01*
X172878210Y-70489711D01*
X172790609Y-70620814D01*
X172790602Y-70620827D01*
X172730264Y-70766498D01*
X172730261Y-70766510D01*
X172699500Y-70921153D01*
X165312719Y-70921153D01*
X165334895Y-70867614D01*
X165334895Y-70867613D01*
X165369737Y-70783497D01*
X165400500Y-70628842D01*
X165400500Y-70471158D01*
X165400500Y-70471155D01*
X165400499Y-70471153D01*
X165369737Y-70316503D01*
X165362694Y-70299500D01*
X165309397Y-70170827D01*
X165309390Y-70170814D01*
X165221789Y-70039711D01*
X165221786Y-70039707D01*
X165110292Y-69928213D01*
X165110288Y-69928210D01*
X164979185Y-69840609D01*
X164979172Y-69840602D01*
X164833501Y-69780264D01*
X164833489Y-69780261D01*
X164678845Y-69749500D01*
X164678842Y-69749500D01*
X164521158Y-69749500D01*
X164521155Y-69749500D01*
X164366510Y-69780261D01*
X164366498Y-69780264D01*
X164220827Y-69840602D01*
X164220814Y-69840609D01*
X164089711Y-69928210D01*
X164089707Y-69928213D01*
X163978213Y-70039707D01*
X163978210Y-70039711D01*
X163890609Y-70170814D01*
X163890602Y-70170827D01*
X163830264Y-70316498D01*
X163830261Y-70316510D01*
X163799500Y-70471153D01*
X162600499Y-70471153D01*
X162569737Y-70316503D01*
X162562694Y-70299500D01*
X162509397Y-70170827D01*
X162509390Y-70170814D01*
X162421789Y-70039711D01*
X162421786Y-70039707D01*
X162310292Y-69928213D01*
X162310288Y-69928210D01*
X162179185Y-69840609D01*
X162179172Y-69840602D01*
X162033501Y-69780264D01*
X162033489Y-69780261D01*
X161878845Y-69749500D01*
X161878842Y-69749500D01*
X161721158Y-69749500D01*
X161721155Y-69749500D01*
X161566510Y-69780261D01*
X161566498Y-69780264D01*
X161420827Y-69840602D01*
X161420814Y-69840609D01*
X161289711Y-69928210D01*
X161289707Y-69928213D01*
X161178213Y-70039707D01*
X161178210Y-70039711D01*
X161090609Y-70170814D01*
X161090602Y-70170827D01*
X161030264Y-70316498D01*
X161030261Y-70316510D01*
X160999500Y-70471153D01*
X157154139Y-70471153D01*
X157169737Y-70433497D01*
X157200500Y-70278842D01*
X157200500Y-70121158D01*
X157200500Y-70121155D01*
X157200499Y-70121153D01*
X157169738Y-69966510D01*
X157169737Y-69966503D01*
X157153876Y-69928210D01*
X157109397Y-69820827D01*
X157109390Y-69820814D01*
X157021789Y-69689711D01*
X157021786Y-69689707D01*
X156910292Y-69578213D01*
X156910288Y-69578210D01*
X156779185Y-69490609D01*
X156779172Y-69490602D01*
X156633501Y-69430264D01*
X156633489Y-69430261D01*
X156478845Y-69399500D01*
X156478842Y-69399500D01*
X156321158Y-69399500D01*
X156321155Y-69399500D01*
X156166510Y-69430261D01*
X156166498Y-69430264D01*
X156020827Y-69490602D01*
X156020814Y-69490609D01*
X155889711Y-69578210D01*
X155889707Y-69578213D01*
X155778213Y-69689707D01*
X155778210Y-69689711D01*
X155690609Y-69820814D01*
X155690602Y-69820827D01*
X155630264Y-69966498D01*
X155630261Y-69966510D01*
X155599500Y-70121153D01*
X152000500Y-70121153D01*
X152000500Y-68721153D01*
X156899500Y-68721153D01*
X156899500Y-68878846D01*
X156930261Y-69033489D01*
X156930264Y-69033501D01*
X156990602Y-69179172D01*
X156990609Y-69179185D01*
X157078210Y-69310288D01*
X157078213Y-69310292D01*
X157189707Y-69421786D01*
X157189711Y-69421789D01*
X157320814Y-69509390D01*
X157320827Y-69509397D01*
X157466498Y-69569735D01*
X157466503Y-69569737D01*
X157621153Y-69600499D01*
X157621156Y-69600500D01*
X157621158Y-69600500D01*
X157778844Y-69600500D01*
X157778845Y-69600499D01*
X157933497Y-69569737D01*
X158079179Y-69509394D01*
X158210289Y-69421789D01*
X158321789Y-69310289D01*
X158409394Y-69179179D01*
X158469737Y-69033497D01*
X158500500Y-68878842D01*
X158500500Y-68721158D01*
X158500500Y-68721155D01*
X158500499Y-68721153D01*
X158469738Y-68566510D01*
X158469737Y-68566503D01*
X158469735Y-68566498D01*
X158409397Y-68420827D01*
X158409390Y-68420814D01*
X158321789Y-68289711D01*
X158321786Y-68289707D01*
X158210292Y-68178213D01*
X158210288Y-68178210D01*
X158079185Y-68090609D01*
X158079172Y-68090602D01*
X157933501Y-68030264D01*
X157933489Y-68030261D01*
X157778845Y-67999500D01*
X157778842Y-67999500D01*
X157621158Y-67999500D01*
X157621155Y-67999500D01*
X157466510Y-68030261D01*
X157466498Y-68030264D01*
X157320827Y-68090602D01*
X157320814Y-68090609D01*
X157189711Y-68178210D01*
X157189707Y-68178213D01*
X157078213Y-68289707D01*
X157078210Y-68289711D01*
X156990609Y-68420814D01*
X156990602Y-68420827D01*
X156930264Y-68566498D01*
X156930261Y-68566510D01*
X156899500Y-68721153D01*
X152000500Y-68721153D01*
X152000500Y-67043612D01*
X168912295Y-67043612D01*
X168912295Y-67201305D01*
X168943056Y-67355948D01*
X168943059Y-67355960D01*
X169003397Y-67501631D01*
X169003404Y-67501644D01*
X169091005Y-67632747D01*
X169091008Y-67632751D01*
X169202502Y-67744245D01*
X169202506Y-67744248D01*
X169333609Y-67831849D01*
X169333622Y-67831856D01*
X169479293Y-67892194D01*
X169479298Y-67892196D01*
X169633948Y-67922958D01*
X169633951Y-67922959D01*
X169633953Y-67922959D01*
X169791639Y-67922959D01*
X169791640Y-67922958D01*
X169946292Y-67892196D01*
X170091974Y-67831853D01*
X170223084Y-67744248D01*
X170334584Y-67632748D01*
X170360797Y-67593516D01*
X170414408Y-67548711D01*
X170483733Y-67540002D01*
X170546761Y-67570156D01*
X170567001Y-67593513D01*
X170578211Y-67610290D01*
X170689707Y-67721786D01*
X170689711Y-67721789D01*
X170820814Y-67809390D01*
X170820827Y-67809397D01*
X170947549Y-67861886D01*
X170966503Y-67869737D01*
X171121153Y-67900499D01*
X171121156Y-67900500D01*
X171121158Y-67900500D01*
X171278844Y-67900500D01*
X171278845Y-67900499D01*
X171433497Y-67869737D01*
X171509924Y-67838079D01*
X171579392Y-67830611D01*
X171641872Y-67861886D01*
X171660478Y-67883751D01*
X171678207Y-67910284D01*
X171678213Y-67910292D01*
X171789707Y-68021786D01*
X171789711Y-68021789D01*
X171920814Y-68109390D01*
X171920827Y-68109397D01*
X172066498Y-68169735D01*
X172066503Y-68169737D01*
X172221153Y-68200499D01*
X172221156Y-68200500D01*
X172221158Y-68200500D01*
X172378844Y-68200500D01*
X172378845Y-68200499D01*
X172533497Y-68169737D01*
X172679179Y-68109394D01*
X172810289Y-68021789D01*
X172921789Y-67910289D01*
X173009394Y-67779179D01*
X173069737Y-67633497D01*
X173100500Y-67478842D01*
X173100500Y-67321158D01*
X173100500Y-67321155D01*
X173100499Y-67321153D01*
X173078447Y-67210292D01*
X173069737Y-67166503D01*
X173033569Y-67079185D01*
X173009397Y-67020827D01*
X173009390Y-67020814D01*
X172921789Y-66889711D01*
X172921786Y-66889707D01*
X172810292Y-66778213D01*
X172810288Y-66778210D01*
X172679185Y-66690609D01*
X172679172Y-66690602D01*
X172533501Y-66630264D01*
X172533489Y-66630261D01*
X172378845Y-66599500D01*
X172378842Y-66599500D01*
X172221158Y-66599500D01*
X172221155Y-66599500D01*
X172066510Y-66630261D01*
X172066503Y-66630263D01*
X171990074Y-66661920D01*
X171920605Y-66669387D01*
X171858126Y-66638112D01*
X171839520Y-66616248D01*
X171836795Y-66612170D01*
X171821789Y-66589711D01*
X171821787Y-66589708D01*
X171710292Y-66478213D01*
X171710288Y-66478210D01*
X171579185Y-66390609D01*
X171579172Y-66390602D01*
X171433501Y-66330264D01*
X171433489Y-66330261D01*
X171278845Y-66299500D01*
X171278842Y-66299500D01*
X171121158Y-66299500D01*
X171121155Y-66299500D01*
X170966510Y-66330261D01*
X170966498Y-66330264D01*
X170820827Y-66390602D01*
X170820814Y-66390609D01*
X170689711Y-66478210D01*
X170689707Y-66478213D01*
X170578213Y-66589707D01*
X170578208Y-66589713D01*
X170551995Y-66628944D01*
X170498383Y-66673748D01*
X170429058Y-66682455D01*
X170366031Y-66652300D01*
X170345792Y-66628944D01*
X170334584Y-66612170D01*
X170334583Y-66612169D01*
X170334581Y-66612166D01*
X170223087Y-66500672D01*
X170223083Y-66500669D01*
X170091980Y-66413068D01*
X170091967Y-66413061D01*
X169946296Y-66352723D01*
X169946284Y-66352720D01*
X169791640Y-66321959D01*
X169791637Y-66321959D01*
X169633953Y-66321959D01*
X169633950Y-66321959D01*
X169479305Y-66352720D01*
X169479293Y-66352723D01*
X169333622Y-66413061D01*
X169333609Y-66413068D01*
X169202506Y-66500669D01*
X169202502Y-66500672D01*
X169091008Y-66612166D01*
X169091005Y-66612170D01*
X169003404Y-66743273D01*
X169003397Y-66743286D01*
X168943059Y-66888957D01*
X168943056Y-66888969D01*
X168912295Y-67043612D01*
X152000500Y-67043612D01*
X152000500Y-64621153D01*
X166299500Y-64621153D01*
X166299500Y-64778846D01*
X166330261Y-64933489D01*
X166330264Y-64933501D01*
X166390602Y-65079172D01*
X166390609Y-65079185D01*
X166478210Y-65210288D01*
X166478213Y-65210292D01*
X166589707Y-65321786D01*
X166589711Y-65321789D01*
X166720814Y-65409390D01*
X166720827Y-65409397D01*
X166866498Y-65469735D01*
X166866503Y-65469737D01*
X167021153Y-65500499D01*
X167021156Y-65500500D01*
X167021158Y-65500500D01*
X167178844Y-65500500D01*
X167178845Y-65500499D01*
X167333497Y-65469737D01*
X167479179Y-65409394D01*
X167610289Y-65321789D01*
X167721789Y-65210289D01*
X167809394Y-65079179D01*
X167869737Y-64933497D01*
X167900500Y-64778842D01*
X167900500Y-64621158D01*
X167900500Y-64621155D01*
X167900499Y-64621153D01*
X170119500Y-64621153D01*
X170119500Y-64778846D01*
X170150261Y-64933489D01*
X170150264Y-64933501D01*
X170210602Y-65079172D01*
X170210609Y-65079185D01*
X170298210Y-65210288D01*
X170298213Y-65210292D01*
X170409707Y-65321786D01*
X170409711Y-65321789D01*
X170540814Y-65409390D01*
X170540827Y-65409397D01*
X170686498Y-65469735D01*
X170686503Y-65469737D01*
X170841153Y-65500499D01*
X170841156Y-65500500D01*
X170841158Y-65500500D01*
X170998844Y-65500500D01*
X170998845Y-65500499D01*
X171153497Y-65469737D01*
X171299179Y-65409394D01*
X171430289Y-65321789D01*
X171541789Y-65210289D01*
X171629394Y-65079179D01*
X171689737Y-64933497D01*
X171720500Y-64778842D01*
X171720500Y-64621158D01*
X171720500Y-64621155D01*
X171720499Y-64621153D01*
X171698269Y-64509397D01*
X171689737Y-64466503D01*
X171671215Y-64421786D01*
X171646666Y-64362518D01*
X171629532Y-64321153D01*
X173699500Y-64321153D01*
X173699500Y-64478846D01*
X173730261Y-64633489D01*
X173730264Y-64633501D01*
X173790602Y-64779172D01*
X173790609Y-64779185D01*
X173878210Y-64910288D01*
X173878213Y-64910292D01*
X173880240Y-64912319D01*
X173880962Y-64913642D01*
X173882076Y-64914999D01*
X173881818Y-64915210D01*
X173913725Y-64973642D01*
X173908741Y-65043334D01*
X173882001Y-65084939D01*
X173882076Y-65085001D01*
X173881552Y-65085639D01*
X173880240Y-65087681D01*
X173878213Y-65089707D01*
X173878210Y-65089711D01*
X173790609Y-65220814D01*
X173790602Y-65220827D01*
X173730264Y-65366498D01*
X173730261Y-65366510D01*
X173699500Y-65521153D01*
X173699500Y-65678846D01*
X173730261Y-65833489D01*
X173730264Y-65833501D01*
X173790602Y-65979172D01*
X173790609Y-65979185D01*
X173878210Y-66110288D01*
X173878213Y-66110292D01*
X173989707Y-66221786D01*
X173989711Y-66221789D01*
X174120814Y-66309390D01*
X174120827Y-66309397D01*
X174225427Y-66352723D01*
X174266503Y-66369737D01*
X174371398Y-66390602D01*
X174417121Y-66399697D01*
X174479032Y-66432082D01*
X174513606Y-66492797D01*
X174514548Y-66545504D01*
X174499500Y-66621158D01*
X174499500Y-66778846D01*
X174530261Y-66933489D01*
X174530264Y-66933501D01*
X174590602Y-67079172D01*
X174590609Y-67079185D01*
X174678210Y-67210288D01*
X174678213Y-67210292D01*
X174789707Y-67321786D01*
X174789711Y-67321789D01*
X174920814Y-67409390D01*
X174920827Y-67409397D01*
X175066498Y-67469735D01*
X175066503Y-67469737D01*
X175221153Y-67500499D01*
X175221156Y-67500500D01*
X175221158Y-67500500D01*
X175378844Y-67500500D01*
X175378845Y-67500499D01*
X175533497Y-67469737D01*
X175679179Y-67409394D01*
X175810289Y-67321789D01*
X175921789Y-67210289D01*
X176009394Y-67079179D01*
X176069737Y-66933497D01*
X176100500Y-66778842D01*
X176100500Y-66621158D01*
X176100500Y-66621155D01*
X176100499Y-66621153D01*
X176085451Y-66545504D01*
X176069737Y-66466503D01*
X176069735Y-66466498D01*
X176009397Y-66320827D01*
X176009390Y-66320814D01*
X175921789Y-66189711D01*
X175921786Y-66189707D01*
X175810292Y-66078213D01*
X175810288Y-66078210D01*
X175679185Y-65990609D01*
X175679176Y-65990604D01*
X175566300Y-65943850D01*
X175511897Y-65900009D01*
X175489832Y-65833715D01*
X175507111Y-65766016D01*
X175558248Y-65718405D01*
X175566292Y-65714731D01*
X175579179Y-65709394D01*
X175710289Y-65621789D01*
X175821789Y-65510289D01*
X175909394Y-65379179D01*
X175969737Y-65233497D01*
X176000500Y-65078842D01*
X176000500Y-64921158D01*
X176000500Y-64921155D01*
X176000499Y-64921153D01*
X175998338Y-64910288D01*
X175969737Y-64766503D01*
X175969735Y-64766498D01*
X175909397Y-64620827D01*
X175909390Y-64620814D01*
X175821789Y-64489711D01*
X175821786Y-64489707D01*
X175710292Y-64378213D01*
X175710288Y-64378210D01*
X175579185Y-64290609D01*
X175579172Y-64290602D01*
X175433501Y-64230264D01*
X175433489Y-64230261D01*
X175348820Y-64213419D01*
X175286909Y-64181034D01*
X175258450Y-64139254D01*
X175209397Y-64020826D01*
X175209390Y-64020814D01*
X175121789Y-63889711D01*
X175121786Y-63889707D01*
X175010292Y-63778213D01*
X175010288Y-63778210D01*
X174879185Y-63690609D01*
X174879172Y-63690602D01*
X174733501Y-63630264D01*
X174733489Y-63630261D01*
X174578845Y-63599500D01*
X174578842Y-63599500D01*
X174421158Y-63599500D01*
X174421155Y-63599500D01*
X174266510Y-63630261D01*
X174266498Y-63630264D01*
X174120827Y-63690602D01*
X174120814Y-63690609D01*
X173989711Y-63778210D01*
X173989707Y-63778213D01*
X173878213Y-63889707D01*
X173878210Y-63889711D01*
X173790609Y-64020814D01*
X173790602Y-64020827D01*
X173730264Y-64166498D01*
X173730261Y-64166510D01*
X173699500Y-64321153D01*
X171629532Y-64321153D01*
X171629395Y-64320823D01*
X171629390Y-64320814D01*
X171541789Y-64189711D01*
X171541786Y-64189707D01*
X171430292Y-64078213D01*
X171430288Y-64078210D01*
X171299185Y-63990609D01*
X171299172Y-63990602D01*
X171153501Y-63930264D01*
X171153489Y-63930261D01*
X170998845Y-63899500D01*
X170998842Y-63899500D01*
X170841158Y-63899500D01*
X170841155Y-63899500D01*
X170686510Y-63930261D01*
X170686498Y-63930264D01*
X170540827Y-63990602D01*
X170540814Y-63990609D01*
X170409711Y-64078210D01*
X170409707Y-64078213D01*
X170298213Y-64189707D01*
X170298210Y-64189711D01*
X170210609Y-64320814D01*
X170210602Y-64320827D01*
X170150264Y-64466498D01*
X170150261Y-64466510D01*
X170119500Y-64621153D01*
X167900499Y-64621153D01*
X167878269Y-64509397D01*
X167869737Y-64466503D01*
X167851215Y-64421786D01*
X167809397Y-64320827D01*
X167809390Y-64320814D01*
X167721789Y-64189711D01*
X167721786Y-64189707D01*
X167610292Y-64078213D01*
X167610288Y-64078210D01*
X167479185Y-63990609D01*
X167479172Y-63990602D01*
X167333501Y-63930264D01*
X167333489Y-63930261D01*
X167178845Y-63899500D01*
X167178842Y-63899500D01*
X167021158Y-63899500D01*
X167021155Y-63899500D01*
X166866510Y-63930261D01*
X166866498Y-63930264D01*
X166720827Y-63990602D01*
X166720814Y-63990609D01*
X166589711Y-64078210D01*
X166589707Y-64078213D01*
X166478213Y-64189707D01*
X166478210Y-64189711D01*
X166390609Y-64320814D01*
X166390602Y-64320827D01*
X166330264Y-64466498D01*
X166330261Y-64466510D01*
X166299500Y-64621153D01*
X152000500Y-64621153D01*
X152000500Y-64303439D01*
X152020185Y-64236400D01*
X152072989Y-64190645D01*
X152142147Y-64180701D01*
X152205703Y-64209726D01*
X152227602Y-64234548D01*
X152278210Y-64310288D01*
X152278213Y-64310292D01*
X152389707Y-64421786D01*
X152389711Y-64421789D01*
X152520814Y-64509390D01*
X152520827Y-64509397D01*
X152666498Y-64569735D01*
X152666503Y-64569737D01*
X152821153Y-64600499D01*
X152821156Y-64600500D01*
X152821158Y-64600500D01*
X152978844Y-64600500D01*
X152978845Y-64600499D01*
X153133497Y-64569737D01*
X153279179Y-64509394D01*
X153410289Y-64421789D01*
X153521789Y-64310289D01*
X153609394Y-64179179D01*
X153669737Y-64033497D01*
X153700500Y-63878842D01*
X153700500Y-63721158D01*
X153700500Y-63721155D01*
X153700499Y-63721153D01*
X153678447Y-63610292D01*
X153669737Y-63566503D01*
X153633569Y-63479185D01*
X153609397Y-63420827D01*
X153609390Y-63420814D01*
X153521789Y-63289711D01*
X153521786Y-63289707D01*
X153410292Y-63178213D01*
X153410288Y-63178210D01*
X153279185Y-63090609D01*
X153279172Y-63090602D01*
X153133501Y-63030264D01*
X153133489Y-63030261D01*
X152978845Y-62999500D01*
X152978842Y-62999500D01*
X152821158Y-62999500D01*
X152821155Y-62999500D01*
X152666510Y-63030261D01*
X152666498Y-63030264D01*
X152520827Y-63090602D01*
X152520814Y-63090609D01*
X152389711Y-63178210D01*
X152389707Y-63178213D01*
X152278213Y-63289707D01*
X152278210Y-63289711D01*
X152227602Y-63365451D01*
X152173989Y-63410256D01*
X152104664Y-63418963D01*
X152041637Y-63388808D01*
X152004918Y-63329365D01*
X152000500Y-63296560D01*
X152000500Y-62221153D01*
X161799500Y-62221153D01*
X161799500Y-62378846D01*
X161830261Y-62533489D01*
X161830264Y-62533501D01*
X161890602Y-62679172D01*
X161890609Y-62679185D01*
X161978210Y-62810288D01*
X161978213Y-62810292D01*
X162089707Y-62921786D01*
X162089711Y-62921789D01*
X162220814Y-63009390D01*
X162220827Y-63009397D01*
X162296280Y-63040650D01*
X162366503Y-63069737D01*
X162521153Y-63100499D01*
X162521156Y-63100500D01*
X162521158Y-63100500D01*
X162678844Y-63100500D01*
X162678845Y-63100499D01*
X162833497Y-63069737D01*
X162979179Y-63009394D01*
X163110289Y-62921789D01*
X163112312Y-62919766D01*
X163113634Y-62919043D01*
X163114999Y-62917924D01*
X163115211Y-62918182D01*
X163173632Y-62886276D01*
X163243324Y-62891255D01*
X163284939Y-62917999D01*
X163285001Y-62917924D01*
X163285648Y-62918454D01*
X163287688Y-62919766D01*
X163289711Y-62921789D01*
X163420814Y-63009390D01*
X163420827Y-63009397D01*
X163496280Y-63040650D01*
X163566503Y-63069737D01*
X163721153Y-63100499D01*
X163721156Y-63100500D01*
X163721158Y-63100500D01*
X163878844Y-63100500D01*
X163878845Y-63100499D01*
X164033497Y-63069737D01*
X164179179Y-63009394D01*
X164179184Y-63009390D01*
X164179187Y-63009389D01*
X164206608Y-62991067D01*
X164273285Y-62970188D01*
X164340666Y-62988672D01*
X164387356Y-63040650D01*
X164399500Y-63094168D01*
X164399500Y-63178846D01*
X164430261Y-63333489D01*
X164430264Y-63333501D01*
X164490602Y-63479172D01*
X164490609Y-63479185D01*
X164578210Y-63610288D01*
X164578213Y-63610292D01*
X164689707Y-63721786D01*
X164689711Y-63721789D01*
X164820814Y-63809390D01*
X164820827Y-63809397D01*
X164966498Y-63869735D01*
X164966503Y-63869737D01*
X165096982Y-63895691D01*
X165121153Y-63900499D01*
X165121156Y-63900500D01*
X165121158Y-63900500D01*
X165278844Y-63900500D01*
X165278845Y-63900499D01*
X165433497Y-63869737D01*
X165579179Y-63809394D01*
X165710289Y-63721789D01*
X165821789Y-63610289D01*
X165909394Y-63479179D01*
X165969737Y-63333497D01*
X166000500Y-63178842D01*
X166000500Y-63121153D01*
X175999500Y-63121153D01*
X175999500Y-63278846D01*
X176030261Y-63433489D01*
X176030264Y-63433501D01*
X176090602Y-63579172D01*
X176090609Y-63579185D01*
X176178210Y-63710288D01*
X176178213Y-63710292D01*
X176289707Y-63821786D01*
X176289711Y-63821789D01*
X176420814Y-63909390D01*
X176420827Y-63909397D01*
X176566498Y-63969735D01*
X176566503Y-63969737D01*
X176721153Y-64000499D01*
X176721156Y-64000500D01*
X176721158Y-64000500D01*
X176878844Y-64000500D01*
X176878845Y-64000499D01*
X177033497Y-63969737D01*
X177179179Y-63909394D01*
X177310289Y-63821789D01*
X177421789Y-63710289D01*
X177509394Y-63579179D01*
X177569737Y-63433497D01*
X177600500Y-63278842D01*
X177600500Y-63121158D01*
X177600500Y-63121155D01*
X177600499Y-63121153D01*
X177582419Y-63030261D01*
X177569737Y-62966503D01*
X177549615Y-62917924D01*
X177509397Y-62820827D01*
X177509390Y-62820814D01*
X177421789Y-62689711D01*
X177421786Y-62689707D01*
X177310292Y-62578213D01*
X177310288Y-62578210D01*
X177179185Y-62490609D01*
X177179172Y-62490602D01*
X177033501Y-62430264D01*
X177033489Y-62430261D01*
X176878845Y-62399500D01*
X176878842Y-62399500D01*
X176721158Y-62399500D01*
X176721155Y-62399500D01*
X176566510Y-62430261D01*
X176566498Y-62430264D01*
X176420827Y-62490602D01*
X176420814Y-62490609D01*
X176289711Y-62578210D01*
X176289707Y-62578213D01*
X176178213Y-62689707D01*
X176178210Y-62689711D01*
X176090609Y-62820814D01*
X176090602Y-62820827D01*
X176030264Y-62966498D01*
X176030261Y-62966510D01*
X175999500Y-63121153D01*
X166000500Y-63121153D01*
X166000500Y-63021158D01*
X166000500Y-63021155D01*
X166000499Y-63021153D01*
X165980734Y-62921789D01*
X165969737Y-62866503D01*
X165942398Y-62800500D01*
X165909397Y-62720827D01*
X165909390Y-62720814D01*
X165821789Y-62589711D01*
X165821786Y-62589707D01*
X165710292Y-62478213D01*
X165710288Y-62478210D01*
X165579185Y-62390609D01*
X165579172Y-62390602D01*
X165433501Y-62330264D01*
X165433489Y-62330261D01*
X165278845Y-62299500D01*
X165278842Y-62299500D01*
X165121158Y-62299500D01*
X165121155Y-62299500D01*
X164966510Y-62330261D01*
X164966498Y-62330264D01*
X164820827Y-62390602D01*
X164820816Y-62390608D01*
X164793390Y-62408934D01*
X164726712Y-62429811D01*
X164659332Y-62411326D01*
X164612643Y-62359346D01*
X164600500Y-62305831D01*
X164600500Y-62221155D01*
X164600499Y-62221153D01*
X164572192Y-62078846D01*
X164569737Y-62066503D01*
X164569735Y-62066498D01*
X164526666Y-61962518D01*
X164509532Y-61921153D01*
X171099500Y-61921153D01*
X171099500Y-62078846D01*
X171130261Y-62233489D01*
X171130264Y-62233501D01*
X171190602Y-62379172D01*
X171190609Y-62379185D01*
X171278210Y-62510288D01*
X171278213Y-62510292D01*
X171389707Y-62621786D01*
X171389711Y-62621789D01*
X171520814Y-62709390D01*
X171520827Y-62709397D01*
X171666498Y-62769735D01*
X171666503Y-62769737D01*
X171821153Y-62800499D01*
X171821156Y-62800500D01*
X171821158Y-62800500D01*
X171978844Y-62800500D01*
X171978845Y-62800499D01*
X172133497Y-62769737D01*
X172251592Y-62720821D01*
X172279172Y-62709397D01*
X172279172Y-62709396D01*
X172279179Y-62709394D01*
X172410289Y-62621789D01*
X172521789Y-62510289D01*
X172609394Y-62379179D01*
X172669737Y-62233497D01*
X172700500Y-62078842D01*
X172700500Y-61921158D01*
X172700500Y-61921155D01*
X172700499Y-61921153D01*
X172674353Y-61789711D01*
X172669737Y-61766503D01*
X172646080Y-61709390D01*
X172609397Y-61620827D01*
X172609390Y-61620814D01*
X172521789Y-61489711D01*
X172521786Y-61489707D01*
X172410292Y-61378213D01*
X172410288Y-61378210D01*
X172279185Y-61290609D01*
X172279172Y-61290602D01*
X172133501Y-61230264D01*
X172133489Y-61230261D01*
X171978845Y-61199500D01*
X171978842Y-61199500D01*
X171821158Y-61199500D01*
X171821155Y-61199500D01*
X171666510Y-61230261D01*
X171666498Y-61230264D01*
X171520827Y-61290602D01*
X171520814Y-61290609D01*
X171389711Y-61378210D01*
X171389707Y-61378213D01*
X171278213Y-61489707D01*
X171278210Y-61489711D01*
X171190609Y-61620814D01*
X171190602Y-61620827D01*
X171130264Y-61766498D01*
X171130261Y-61766510D01*
X171099500Y-61921153D01*
X164509532Y-61921153D01*
X164509395Y-61920823D01*
X164509390Y-61920814D01*
X164421789Y-61789711D01*
X164421786Y-61789707D01*
X164310292Y-61678213D01*
X164310288Y-61678210D01*
X164179185Y-61590609D01*
X164179172Y-61590602D01*
X164033501Y-61530264D01*
X164033489Y-61530261D01*
X163878845Y-61499500D01*
X163878842Y-61499500D01*
X163721158Y-61499500D01*
X163721155Y-61499500D01*
X163566510Y-61530261D01*
X163566498Y-61530264D01*
X163420827Y-61590602D01*
X163420814Y-61590609D01*
X163289711Y-61678210D01*
X163289707Y-61678213D01*
X163287681Y-61680240D01*
X163286357Y-61680962D01*
X163285001Y-61682076D01*
X163284789Y-61681818D01*
X163226358Y-61713725D01*
X163156666Y-61708741D01*
X163115060Y-61682001D01*
X163114999Y-61682076D01*
X163114360Y-61681552D01*
X163112319Y-61680240D01*
X163110292Y-61678213D01*
X163110288Y-61678210D01*
X162979185Y-61590609D01*
X162979172Y-61590602D01*
X162833501Y-61530264D01*
X162833489Y-61530261D01*
X162678845Y-61499500D01*
X162678842Y-61499500D01*
X162521158Y-61499500D01*
X162521155Y-61499500D01*
X162366510Y-61530261D01*
X162366498Y-61530264D01*
X162220827Y-61590602D01*
X162220814Y-61590609D01*
X162089711Y-61678210D01*
X162089707Y-61678213D01*
X161978213Y-61789707D01*
X161978210Y-61789711D01*
X161890609Y-61920814D01*
X161890602Y-61920827D01*
X161830264Y-62066498D01*
X161830261Y-62066510D01*
X161799500Y-62221153D01*
X152000500Y-62221153D01*
X152000500Y-60921153D01*
X159299500Y-60921153D01*
X159299500Y-61078846D01*
X159330261Y-61233489D01*
X159330264Y-61233501D01*
X159390602Y-61379172D01*
X159390609Y-61379185D01*
X159478210Y-61510288D01*
X159478213Y-61510292D01*
X159589707Y-61621786D01*
X159589711Y-61621789D01*
X159720814Y-61709390D01*
X159720827Y-61709397D01*
X159858683Y-61766498D01*
X159866503Y-61769737D01*
X160021153Y-61800499D01*
X160021156Y-61800500D01*
X160021158Y-61800500D01*
X160178844Y-61800500D01*
X160178845Y-61800499D01*
X160333497Y-61769737D01*
X160479179Y-61709394D01*
X160610289Y-61621789D01*
X160721789Y-61510289D01*
X160809394Y-61379179D01*
X160869737Y-61233497D01*
X160900500Y-61078842D01*
X160900500Y-60921158D01*
X160900500Y-60921155D01*
X160900499Y-60921153D01*
X160869738Y-60766510D01*
X160869737Y-60766503D01*
X160869735Y-60766498D01*
X160809397Y-60620827D01*
X160809390Y-60620814D01*
X160721789Y-60489711D01*
X160721786Y-60489707D01*
X160610292Y-60378213D01*
X160610288Y-60378210D01*
X160479185Y-60290609D01*
X160479172Y-60290602D01*
X160333501Y-60230264D01*
X160333489Y-60230261D01*
X160178845Y-60199500D01*
X160178842Y-60199500D01*
X160021158Y-60199500D01*
X160021155Y-60199500D01*
X159866510Y-60230261D01*
X159866498Y-60230264D01*
X159720827Y-60290602D01*
X159720814Y-60290609D01*
X159589711Y-60378210D01*
X159589707Y-60378213D01*
X159478213Y-60489707D01*
X159478210Y-60489711D01*
X159390609Y-60620814D01*
X159390602Y-60620827D01*
X159330264Y-60766498D01*
X159330261Y-60766510D01*
X159299500Y-60921153D01*
X152000500Y-60921153D01*
X152000500Y-59321153D01*
X170899500Y-59321153D01*
X170899500Y-59478846D01*
X170930261Y-59633489D01*
X170930264Y-59633501D01*
X170990602Y-59779172D01*
X170990609Y-59779185D01*
X171078210Y-59910288D01*
X171078213Y-59910292D01*
X171189707Y-60021786D01*
X171189711Y-60021789D01*
X171320814Y-60109390D01*
X171320827Y-60109397D01*
X171466498Y-60169735D01*
X171466503Y-60169737D01*
X171616131Y-60199500D01*
X171621153Y-60200499D01*
X171621156Y-60200500D01*
X171621158Y-60200500D01*
X171778844Y-60200500D01*
X171778845Y-60200499D01*
X171933497Y-60169737D01*
X172079179Y-60109394D01*
X172210289Y-60021789D01*
X172321789Y-59910289D01*
X172409394Y-59779179D01*
X172469737Y-59633497D01*
X172500500Y-59478842D01*
X172500500Y-59321158D01*
X172500500Y-59321155D01*
X172500499Y-59321153D01*
X172492148Y-59279172D01*
X172469737Y-59166503D01*
X172409794Y-59021786D01*
X172409397Y-59020827D01*
X172409390Y-59020814D01*
X172321790Y-58889712D01*
X172321784Y-58889705D01*
X172253232Y-58821153D01*
X173199500Y-58821153D01*
X173199500Y-58978846D01*
X173230261Y-59133489D01*
X173230264Y-59133501D01*
X173290602Y-59279172D01*
X173290609Y-59279185D01*
X173378210Y-59410288D01*
X173378213Y-59410292D01*
X173489707Y-59521786D01*
X173489711Y-59521789D01*
X173620814Y-59609390D01*
X173620827Y-59609397D01*
X173766498Y-59669735D01*
X173766503Y-59669737D01*
X173921153Y-59700499D01*
X173921156Y-59700500D01*
X173921158Y-59700500D01*
X174078844Y-59700500D01*
X174078845Y-59700499D01*
X174233497Y-59669737D01*
X174379179Y-59609394D01*
X174510289Y-59521789D01*
X174621789Y-59410289D01*
X174709394Y-59279179D01*
X174769737Y-59133497D01*
X174800500Y-58978842D01*
X174800500Y-58821158D01*
X174800500Y-58821155D01*
X174800499Y-58821153D01*
X174774531Y-58690606D01*
X174769737Y-58666503D01*
X174756062Y-58633489D01*
X174709397Y-58520827D01*
X174709390Y-58520814D01*
X174621789Y-58389711D01*
X174621786Y-58389707D01*
X174510292Y-58278213D01*
X174510288Y-58278210D01*
X174379185Y-58190609D01*
X174379172Y-58190602D01*
X174233501Y-58130264D01*
X174233489Y-58130261D01*
X174078845Y-58099500D01*
X174078842Y-58099500D01*
X173921158Y-58099500D01*
X173921155Y-58099500D01*
X173766510Y-58130261D01*
X173766498Y-58130264D01*
X173620827Y-58190602D01*
X173620814Y-58190609D01*
X173489711Y-58278210D01*
X173489707Y-58278213D01*
X173378213Y-58389707D01*
X173378210Y-58389711D01*
X173290609Y-58520814D01*
X173290602Y-58520827D01*
X173230264Y-58666498D01*
X173230261Y-58666510D01*
X173199500Y-58821153D01*
X172253232Y-58821153D01*
X172210292Y-58778213D01*
X172210288Y-58778210D01*
X172079185Y-58690609D01*
X172079172Y-58690602D01*
X171933501Y-58630264D01*
X171933489Y-58630261D01*
X171778845Y-58599500D01*
X171778842Y-58599500D01*
X171621158Y-58599500D01*
X171621155Y-58599500D01*
X171466510Y-58630261D01*
X171466498Y-58630264D01*
X171320827Y-58690602D01*
X171320814Y-58690609D01*
X171189711Y-58778210D01*
X171189707Y-58778213D01*
X171078213Y-58889707D01*
X171078210Y-58889711D01*
X170990609Y-59020814D01*
X170990602Y-59020827D01*
X170930264Y-59166498D01*
X170930261Y-59166510D01*
X170899500Y-59321153D01*
X152000500Y-59321153D01*
X152000500Y-58321153D01*
X155199500Y-58321153D01*
X155199500Y-58478846D01*
X155230261Y-58633489D01*
X155230264Y-58633501D01*
X155290602Y-58779172D01*
X155290609Y-58779185D01*
X155378210Y-58910288D01*
X155378213Y-58910292D01*
X155489707Y-59021786D01*
X155489711Y-59021789D01*
X155620814Y-59109390D01*
X155620827Y-59109397D01*
X155758683Y-59166498D01*
X155766503Y-59169737D01*
X155921153Y-59200499D01*
X155921156Y-59200500D01*
X155921158Y-59200500D01*
X156078844Y-59200500D01*
X156078845Y-59200499D01*
X156089179Y-59198443D01*
X156114287Y-59193450D01*
X156114292Y-59193449D01*
X156199800Y-59176439D01*
X156233497Y-59169737D01*
X156379179Y-59109394D01*
X156510289Y-59021789D01*
X156621789Y-58910289D01*
X156709394Y-58779179D01*
X156769737Y-58633497D01*
X156800500Y-58478842D01*
X156800500Y-58321158D01*
X156800500Y-58321155D01*
X156800499Y-58321153D01*
X156780734Y-58221789D01*
X156769737Y-58166503D01*
X156769735Y-58166498D01*
X156709397Y-58020827D01*
X156709390Y-58020814D01*
X156621789Y-57889711D01*
X156621786Y-57889707D01*
X156510292Y-57778213D01*
X156510288Y-57778210D01*
X156379185Y-57690609D01*
X156379172Y-57690602D01*
X156233501Y-57630264D01*
X156233489Y-57630261D01*
X156078845Y-57599500D01*
X156078842Y-57599500D01*
X155921158Y-57599500D01*
X155921155Y-57599500D01*
X155766510Y-57630261D01*
X155766498Y-57630264D01*
X155620827Y-57690602D01*
X155620814Y-57690609D01*
X155489711Y-57778210D01*
X155489707Y-57778213D01*
X155378213Y-57889707D01*
X155378210Y-57889711D01*
X155290609Y-58020814D01*
X155290602Y-58020827D01*
X155230264Y-58166498D01*
X155230261Y-58166510D01*
X155199500Y-58321153D01*
X152000500Y-58321153D01*
X152000500Y-56821153D01*
X152827000Y-56821153D01*
X152827000Y-56978846D01*
X152857761Y-57133489D01*
X152857764Y-57133501D01*
X152918102Y-57279172D01*
X152918109Y-57279185D01*
X153005710Y-57410288D01*
X153005713Y-57410292D01*
X153117207Y-57521786D01*
X153117211Y-57521789D01*
X153248314Y-57609390D01*
X153248327Y-57609397D01*
X153393998Y-57669735D01*
X153394003Y-57669737D01*
X153548653Y-57700499D01*
X153548656Y-57700500D01*
X153548658Y-57700500D01*
X153706344Y-57700500D01*
X153706345Y-57700499D01*
X153860997Y-57669737D01*
X154006679Y-57609394D01*
X154137789Y-57521789D01*
X154249289Y-57410289D01*
X154308848Y-57321153D01*
X166799500Y-57321153D01*
X166799500Y-57478846D01*
X166830261Y-57633489D01*
X166830264Y-57633501D01*
X166890602Y-57779172D01*
X166890609Y-57779185D01*
X166978210Y-57910288D01*
X166978213Y-57910292D01*
X167089707Y-58021786D01*
X167089711Y-58021789D01*
X167220814Y-58109390D01*
X167220827Y-58109397D01*
X167358683Y-58166498D01*
X167366503Y-58169737D01*
X167521153Y-58200499D01*
X167521156Y-58200500D01*
X167521158Y-58200500D01*
X167678844Y-58200500D01*
X167678845Y-58200499D01*
X167833497Y-58169737D01*
X167979179Y-58109394D01*
X168110289Y-58021789D01*
X168221789Y-57910289D01*
X168309394Y-57779179D01*
X168369737Y-57633497D01*
X168400500Y-57478842D01*
X168400500Y-57321158D01*
X168400500Y-57321155D01*
X168400499Y-57321153D01*
X168999500Y-57321153D01*
X168999500Y-57478846D01*
X169030261Y-57633489D01*
X169030264Y-57633501D01*
X169090602Y-57779172D01*
X169090609Y-57779185D01*
X169178210Y-57910288D01*
X169178213Y-57910292D01*
X169289707Y-58021786D01*
X169289711Y-58021789D01*
X169420814Y-58109390D01*
X169420827Y-58109397D01*
X169558683Y-58166498D01*
X169566503Y-58169737D01*
X169721153Y-58200499D01*
X169721156Y-58200500D01*
X169721158Y-58200500D01*
X169878844Y-58200500D01*
X169878845Y-58200499D01*
X170033497Y-58169737D01*
X170179179Y-58109394D01*
X170310289Y-58021789D01*
X170421789Y-57910289D01*
X170509394Y-57779179D01*
X170569737Y-57633497D01*
X170584715Y-57558194D01*
X170592084Y-57521153D01*
X176499500Y-57521153D01*
X176499500Y-57678846D01*
X176530261Y-57833489D01*
X176530264Y-57833501D01*
X176590602Y-57979172D01*
X176590609Y-57979185D01*
X176678210Y-58110288D01*
X176678213Y-58110292D01*
X176789707Y-58221786D01*
X176789711Y-58221789D01*
X176920814Y-58309390D01*
X176920827Y-58309397D01*
X177066498Y-58369735D01*
X177066503Y-58369737D01*
X177221153Y-58400499D01*
X177221156Y-58400500D01*
X177221158Y-58400500D01*
X177378844Y-58400500D01*
X177378845Y-58400499D01*
X177533497Y-58369737D01*
X177679179Y-58309394D01*
X177810289Y-58221789D01*
X177921789Y-58110289D01*
X178009394Y-57979179D01*
X178069737Y-57833497D01*
X178100500Y-57678842D01*
X178100500Y-57521158D01*
X178100500Y-57521155D01*
X178100499Y-57521153D01*
X178094476Y-57490874D01*
X178069737Y-57366503D01*
X178050955Y-57321158D01*
X178009397Y-57220827D01*
X178009390Y-57220814D01*
X177921789Y-57089711D01*
X177921786Y-57089707D01*
X177810292Y-56978213D01*
X177810288Y-56978210D01*
X177679185Y-56890609D01*
X177679172Y-56890602D01*
X177533501Y-56830264D01*
X177533489Y-56830261D01*
X177378845Y-56799500D01*
X177378842Y-56799500D01*
X177221158Y-56799500D01*
X177221155Y-56799500D01*
X177066510Y-56830261D01*
X177066498Y-56830264D01*
X176920827Y-56890602D01*
X176920814Y-56890609D01*
X176789711Y-56978210D01*
X176789707Y-56978213D01*
X176678213Y-57089707D01*
X176678210Y-57089711D01*
X176590609Y-57220814D01*
X176590602Y-57220827D01*
X176530264Y-57366498D01*
X176530261Y-57366510D01*
X176499500Y-57521153D01*
X170592084Y-57521153D01*
X170598107Y-57490875D01*
X170598107Y-57490874D01*
X170600500Y-57478844D01*
X170600500Y-57321155D01*
X170600499Y-57321153D01*
X170582059Y-57228449D01*
X170569737Y-57166503D01*
X170537929Y-57089711D01*
X170509397Y-57020827D01*
X170509390Y-57020814D01*
X170421789Y-56889711D01*
X170421786Y-56889707D01*
X170310292Y-56778213D01*
X170310288Y-56778210D01*
X170179185Y-56690609D01*
X170179172Y-56690602D01*
X170033501Y-56630264D01*
X170033489Y-56630261D01*
X169878845Y-56599500D01*
X169878842Y-56599500D01*
X169721158Y-56599500D01*
X169721155Y-56599500D01*
X169566510Y-56630261D01*
X169566498Y-56630264D01*
X169420827Y-56690602D01*
X169420814Y-56690609D01*
X169289711Y-56778210D01*
X169289707Y-56778213D01*
X169178213Y-56889707D01*
X169178210Y-56889711D01*
X169090609Y-57020814D01*
X169090602Y-57020827D01*
X169030264Y-57166498D01*
X169030261Y-57166510D01*
X168999500Y-57321153D01*
X168400499Y-57321153D01*
X168382059Y-57228449D01*
X168369737Y-57166503D01*
X168337929Y-57089711D01*
X168309397Y-57020827D01*
X168309390Y-57020814D01*
X168221789Y-56889711D01*
X168221786Y-56889707D01*
X168110292Y-56778213D01*
X168110288Y-56778210D01*
X167979185Y-56690609D01*
X167979172Y-56690602D01*
X167833501Y-56630264D01*
X167833489Y-56630261D01*
X167678845Y-56599500D01*
X167678842Y-56599500D01*
X167521158Y-56599500D01*
X167521155Y-56599500D01*
X167366510Y-56630261D01*
X167366498Y-56630264D01*
X167220827Y-56690602D01*
X167220814Y-56690609D01*
X167089711Y-56778210D01*
X167089707Y-56778213D01*
X166978213Y-56889707D01*
X166978210Y-56889711D01*
X166890609Y-57020814D01*
X166890602Y-57020827D01*
X166830264Y-57166498D01*
X166830261Y-57166510D01*
X166799500Y-57321153D01*
X154308848Y-57321153D01*
X154336894Y-57279179D01*
X154396720Y-57134743D01*
X154440558Y-57080345D01*
X154506852Y-57058279D01*
X154574551Y-57075558D01*
X154580170Y-57079098D01*
X154713373Y-57168102D01*
X154713386Y-57168109D01*
X154859057Y-57228447D01*
X154859062Y-57228449D01*
X155013712Y-57259211D01*
X155013715Y-57259212D01*
X155013717Y-57259212D01*
X155171403Y-57259212D01*
X155171404Y-57259211D01*
X155326056Y-57228449D01*
X155362583Y-57213318D01*
X155393520Y-57200505D01*
X155471731Y-57168109D01*
X155471731Y-57168108D01*
X155471738Y-57168106D01*
X155602848Y-57080501D01*
X155714348Y-56969001D01*
X155801953Y-56837891D01*
X155805114Y-56830261D01*
X155862294Y-56692213D01*
X155862296Y-56692209D01*
X155893059Y-56537554D01*
X155893059Y-56379870D01*
X155893059Y-56379867D01*
X155893058Y-56379865D01*
X155881505Y-56321786D01*
X155862296Y-56225215D01*
X155856115Y-56210292D01*
X155801956Y-56079539D01*
X155801949Y-56079526D01*
X155714348Y-55948423D01*
X155714345Y-55948419D01*
X155602851Y-55836925D01*
X155602847Y-55836922D01*
X155471744Y-55749321D01*
X155471732Y-55749314D01*
X155424200Y-55729627D01*
X155326060Y-55688976D01*
X155326048Y-55688973D01*
X155171404Y-55658212D01*
X155171401Y-55658212D01*
X155013717Y-55658212D01*
X155013714Y-55658212D01*
X154859069Y-55688973D01*
X154859057Y-55688976D01*
X154713386Y-55749314D01*
X154713373Y-55749321D01*
X154582270Y-55836922D01*
X154582266Y-55836925D01*
X154470772Y-55948419D01*
X154470769Y-55948423D01*
X154383168Y-56079526D01*
X154383161Y-56079539D01*
X154323340Y-56223963D01*
X154279499Y-56278367D01*
X154213205Y-56300432D01*
X154145506Y-56283153D01*
X154139888Y-56279613D01*
X154006685Y-56190609D01*
X154006672Y-56190602D01*
X153861001Y-56130264D01*
X153860989Y-56130261D01*
X153706345Y-56099500D01*
X153706342Y-56099500D01*
X153548658Y-56099500D01*
X153548655Y-56099500D01*
X153394010Y-56130261D01*
X153393998Y-56130264D01*
X153248327Y-56190602D01*
X153248314Y-56190609D01*
X153117211Y-56278210D01*
X153117207Y-56278213D01*
X153005713Y-56389707D01*
X153005710Y-56389711D01*
X152918109Y-56520814D01*
X152918102Y-56520827D01*
X152857764Y-56666498D01*
X152857761Y-56666510D01*
X152827000Y-56821153D01*
X152000500Y-56821153D01*
X152000500Y-55621153D01*
X159099500Y-55621153D01*
X159099500Y-55778846D01*
X159130261Y-55933489D01*
X159130264Y-55933501D01*
X159190602Y-56079172D01*
X159190609Y-56079185D01*
X159278210Y-56210288D01*
X159278213Y-56210292D01*
X159389707Y-56321786D01*
X159389711Y-56321789D01*
X159520814Y-56409390D01*
X159520827Y-56409397D01*
X159627834Y-56453720D01*
X159666503Y-56469737D01*
X159821153Y-56500499D01*
X159821156Y-56500500D01*
X159821158Y-56500500D01*
X159978844Y-56500500D01*
X159978845Y-56500499D01*
X160133497Y-56469737D01*
X160279179Y-56409394D01*
X160410289Y-56321789D01*
X160521789Y-56210289D01*
X160609394Y-56079179D01*
X160669737Y-55933497D01*
X160700500Y-55778842D01*
X160700500Y-55621158D01*
X160700500Y-55621155D01*
X160700499Y-55621153D01*
X160669738Y-55466510D01*
X160669737Y-55466503D01*
X160669735Y-55466498D01*
X160609397Y-55320827D01*
X160609390Y-55320814D01*
X160521789Y-55189711D01*
X160521786Y-55189707D01*
X160410292Y-55078213D01*
X160410288Y-55078210D01*
X160279185Y-54990609D01*
X160279172Y-54990602D01*
X160133501Y-54930264D01*
X160133489Y-54930261D01*
X159978845Y-54899500D01*
X159978842Y-54899500D01*
X159821158Y-54899500D01*
X159821155Y-54899500D01*
X159666510Y-54930261D01*
X159666498Y-54930264D01*
X159520827Y-54990602D01*
X159520814Y-54990609D01*
X159389711Y-55078210D01*
X159389707Y-55078213D01*
X159278213Y-55189707D01*
X159278210Y-55189711D01*
X159190609Y-55320814D01*
X159190602Y-55320827D01*
X159130264Y-55466498D01*
X159130261Y-55466510D01*
X159099500Y-55621153D01*
X152000500Y-55621153D01*
X152000500Y-53994168D01*
X152020185Y-53927129D01*
X152072989Y-53881374D01*
X152142147Y-53871430D01*
X152193392Y-53891067D01*
X152220812Y-53909389D01*
X152220827Y-53909397D01*
X152366498Y-53969735D01*
X152366503Y-53969737D01*
X152521153Y-54000499D01*
X152521156Y-54000500D01*
X152521158Y-54000500D01*
X152678844Y-54000500D01*
X152678845Y-54000499D01*
X152833497Y-53969737D01*
X152979179Y-53909394D01*
X153110289Y-53821789D01*
X153221789Y-53710289D01*
X153309394Y-53579179D01*
X153369737Y-53433497D01*
X153400500Y-53278842D01*
X153400500Y-53121158D01*
X153400500Y-53121155D01*
X153400499Y-53121153D01*
X153380543Y-53020827D01*
X153369737Y-52966503D01*
X153330572Y-52871951D01*
X153323104Y-52802483D01*
X153354379Y-52740004D01*
X153414468Y-52704352D01*
X153445134Y-52700500D01*
X156162532Y-52700500D01*
X156162534Y-52700500D01*
X156334938Y-52670100D01*
X156499445Y-52610224D01*
X156651055Y-52522692D01*
X156785163Y-52410163D01*
X156897692Y-52276055D01*
X156985224Y-52124445D01*
X157045100Y-51959938D01*
X157075500Y-51787534D01*
X157075500Y-51700001D01*
X157075500Y-51634109D01*
X157075500Y-51634108D01*
X157075500Y-49524000D01*
X157095185Y-49456961D01*
X157147989Y-49411206D01*
X157199500Y-49400000D01*
X159650500Y-49400000D01*
X159717539Y-49419685D01*
G37*
%TD.AperFunction*%
%TD*%
M02*
