%TF.GenerationSoftware,KiCad,Pcbnew,10.0.1*%
%TF.CreationDate,2026-05-27T14:23:09+02:00*%
%TF.ProjectId,dongle,646f6e67-6c65-42e6-9b69-6361645f7063,rev?*%
%TF.SameCoordinates,Original*%
%TF.FileFunction,Legend,Bot*%
%TF.FilePolarity,Positive*%
%FSLAX46Y46*%
G04 Gerber Fmt 4.6, Leading zero omitted, Abs format (unit mm)*
G04 Created by KiCad (PCBNEW 10.0.1) date 2026-05-27 14:23:09*
%MOMM*%
%LPD*%
G01*
G04 APERTURE LIST*
%ADD10C,0.150000*%
%ADD11C,0.120000*%
%ADD12C,0.010000*%
G04 APERTURE END LIST*
D10*
X169542857Y-71789580D02*
X169590476Y-71837200D01*
X169590476Y-71837200D02*
X169733333Y-71884819D01*
X169733333Y-71884819D02*
X169828571Y-71884819D01*
X169828571Y-71884819D02*
X169971428Y-71837200D01*
X169971428Y-71837200D02*
X170066666Y-71741961D01*
X170066666Y-71741961D02*
X170114285Y-71646723D01*
X170114285Y-71646723D02*
X170161904Y-71456247D01*
X170161904Y-71456247D02*
X170161904Y-71313390D01*
X170161904Y-71313390D02*
X170114285Y-71122914D01*
X170114285Y-71122914D02*
X170066666Y-71027676D01*
X170066666Y-71027676D02*
X169971428Y-70932438D01*
X169971428Y-70932438D02*
X169828571Y-70884819D01*
X169828571Y-70884819D02*
X169733333Y-70884819D01*
X169733333Y-70884819D02*
X169590476Y-70932438D01*
X169590476Y-70932438D02*
X169542857Y-70980057D01*
X168590476Y-71884819D02*
X169161904Y-71884819D01*
X168876190Y-71884819D02*
X168876190Y-70884819D01*
X168876190Y-70884819D02*
X168971428Y-71027676D01*
X168971428Y-71027676D02*
X169066666Y-71122914D01*
X169066666Y-71122914D02*
X169161904Y-71170533D01*
X168209523Y-70980057D02*
X168161904Y-70932438D01*
X168161904Y-70932438D02*
X168066666Y-70884819D01*
X168066666Y-70884819D02*
X167828571Y-70884819D01*
X167828571Y-70884819D02*
X167733333Y-70932438D01*
X167733333Y-70932438D02*
X167685714Y-70980057D01*
X167685714Y-70980057D02*
X167638095Y-71075295D01*
X167638095Y-71075295D02*
X167638095Y-71170533D01*
X167638095Y-71170533D02*
X167685714Y-71313390D01*
X167685714Y-71313390D02*
X168257142Y-71884819D01*
X168257142Y-71884819D02*
X167638095Y-71884819D01*
X153129580Y-67157142D02*
X153177200Y-67109523D01*
X153177200Y-67109523D02*
X153224819Y-66966666D01*
X153224819Y-66966666D02*
X153224819Y-66871428D01*
X153224819Y-66871428D02*
X153177200Y-66728571D01*
X153177200Y-66728571D02*
X153081961Y-66633333D01*
X153081961Y-66633333D02*
X152986723Y-66585714D01*
X152986723Y-66585714D02*
X152796247Y-66538095D01*
X152796247Y-66538095D02*
X152653390Y-66538095D01*
X152653390Y-66538095D02*
X152462914Y-66585714D01*
X152462914Y-66585714D02*
X152367676Y-66633333D01*
X152367676Y-66633333D02*
X152272438Y-66728571D01*
X152272438Y-66728571D02*
X152224819Y-66871428D01*
X152224819Y-66871428D02*
X152224819Y-66966666D01*
X152224819Y-66966666D02*
X152272438Y-67109523D01*
X152272438Y-67109523D02*
X152320057Y-67157142D01*
X153224819Y-68109523D02*
X153224819Y-67538095D01*
X153224819Y-67823809D02*
X152224819Y-67823809D01*
X152224819Y-67823809D02*
X152367676Y-67728571D01*
X152367676Y-67728571D02*
X152462914Y-67633333D01*
X152462914Y-67633333D02*
X152510533Y-67538095D01*
X153224819Y-69061904D02*
X153224819Y-68490476D01*
X153224819Y-68776190D02*
X152224819Y-68776190D01*
X152224819Y-68776190D02*
X152367676Y-68680952D01*
X152367676Y-68680952D02*
X152462914Y-68585714D01*
X152462914Y-68585714D02*
X152510533Y-68490476D01*
X159261904Y-80154819D02*
X159261904Y-80964342D01*
X159261904Y-80964342D02*
X159214285Y-81059580D01*
X159214285Y-81059580D02*
X159166666Y-81107200D01*
X159166666Y-81107200D02*
X159071428Y-81154819D01*
X159071428Y-81154819D02*
X158880952Y-81154819D01*
X158880952Y-81154819D02*
X158785714Y-81107200D01*
X158785714Y-81107200D02*
X158738095Y-81059580D01*
X158738095Y-81059580D02*
X158690476Y-80964342D01*
X158690476Y-80964342D02*
X158690476Y-80154819D01*
X158261904Y-80250057D02*
X158214285Y-80202438D01*
X158214285Y-80202438D02*
X158119047Y-80154819D01*
X158119047Y-80154819D02*
X157880952Y-80154819D01*
X157880952Y-80154819D02*
X157785714Y-80202438D01*
X157785714Y-80202438D02*
X157738095Y-80250057D01*
X157738095Y-80250057D02*
X157690476Y-80345295D01*
X157690476Y-80345295D02*
X157690476Y-80440533D01*
X157690476Y-80440533D02*
X157738095Y-80583390D01*
X157738095Y-80583390D02*
X158309523Y-81154819D01*
X158309523Y-81154819D02*
X157690476Y-81154819D01*
X176161904Y-78654819D02*
X176161904Y-79464342D01*
X176161904Y-79464342D02*
X176114285Y-79559580D01*
X176114285Y-79559580D02*
X176066666Y-79607200D01*
X176066666Y-79607200D02*
X175971428Y-79654819D01*
X175971428Y-79654819D02*
X175780952Y-79654819D01*
X175780952Y-79654819D02*
X175685714Y-79607200D01*
X175685714Y-79607200D02*
X175638095Y-79559580D01*
X175638095Y-79559580D02*
X175590476Y-79464342D01*
X175590476Y-79464342D02*
X175590476Y-78654819D01*
X175209523Y-78654819D02*
X174590476Y-78654819D01*
X174590476Y-78654819D02*
X174923809Y-79035771D01*
X174923809Y-79035771D02*
X174780952Y-79035771D01*
X174780952Y-79035771D02*
X174685714Y-79083390D01*
X174685714Y-79083390D02*
X174638095Y-79131009D01*
X174638095Y-79131009D02*
X174590476Y-79226247D01*
X174590476Y-79226247D02*
X174590476Y-79464342D01*
X174590476Y-79464342D02*
X174638095Y-79559580D01*
X174638095Y-79559580D02*
X174685714Y-79607200D01*
X174685714Y-79607200D02*
X174780952Y-79654819D01*
X174780952Y-79654819D02*
X175066666Y-79654819D01*
X175066666Y-79654819D02*
X175161904Y-79607200D01*
X175161904Y-79607200D02*
X175209523Y-79559580D01*
%TO.C,C12*%
D11*
X168172936Y-70510000D02*
X169627064Y-70510000D01*
X168172936Y-68690000D02*
X169627064Y-68690000D01*
%TO.C,C11*%
X153690000Y-67072936D02*
X153690000Y-68527064D01*
X155510000Y-67072936D02*
X155510000Y-68527064D01*
D12*
%TO.C,REF\u002A\u002A*%
X170063572Y-56069411D02*
X170132100Y-56121650D01*
X170237743Y-56213624D01*
X170371306Y-56336287D01*
X170523593Y-56480591D01*
X170685409Y-56637491D01*
X170847558Y-56797939D01*
X171000846Y-56952890D01*
X171136076Y-57093295D01*
X171244054Y-57210109D01*
X171315584Y-57294285D01*
X171341471Y-57336775D01*
X171339978Y-57344859D01*
X171309168Y-57410662D01*
X171243349Y-57524508D01*
X171148883Y-57676114D01*
X171032129Y-57855196D01*
X170899448Y-58051471D01*
X170862237Y-58105610D01*
X170731573Y-58296118D01*
X170616480Y-58464540D01*
X170523665Y-58601022D01*
X170459836Y-58695708D01*
X170431700Y-58738743D01*
X170431008Y-58740587D01*
X170439312Y-58793236D01*
X170471021Y-58899892D01*
X170520993Y-59047152D01*
X170584083Y-59221615D01*
X170655146Y-59409879D01*
X170729039Y-59598541D01*
X170800617Y-59774200D01*
X170864737Y-59923453D01*
X170916255Y-60032900D01*
X170950026Y-60089139D01*
X170953409Y-60092630D01*
X170977589Y-60110294D01*
X171018426Y-60128108D01*
X171084052Y-60147896D01*
X171182598Y-60171487D01*
X171322195Y-60200707D01*
X171510976Y-60237382D01*
X171757071Y-60283338D01*
X172068613Y-60340403D01*
X172133229Y-60352414D01*
X172318335Y-60389541D01*
X172474043Y-60424718D01*
X172585599Y-60454452D01*
X172638245Y-60475250D01*
X172647052Y-60492602D01*
X172661737Y-60575953D01*
X172673374Y-60714132D01*
X172681953Y-60894191D01*
X172687468Y-61103185D01*
X172689907Y-61328165D01*
X172689264Y-61556186D01*
X172685528Y-61774300D01*
X172678691Y-61969562D01*
X172668744Y-62129023D01*
X172655678Y-62239739D01*
X172639485Y-62288760D01*
X172622952Y-62296003D01*
X172540705Y-62318831D01*
X172401681Y-62351119D01*
X172216974Y-62390460D01*
X171997679Y-62434447D01*
X171754891Y-62480674D01*
X171622325Y-62505371D01*
X171395112Y-62548199D01*
X171199540Y-62585702D01*
X171046069Y-62615840D01*
X170945158Y-62636575D01*
X170907267Y-62645870D01*
X170905843Y-62647786D01*
X170881712Y-62696463D01*
X170835709Y-62798440D01*
X170773585Y-62940186D01*
X170701089Y-63108172D01*
X170623970Y-63288868D01*
X170547980Y-63468742D01*
X170478867Y-63634266D01*
X170422382Y-63771908D01*
X170384274Y-63868140D01*
X170370294Y-63909430D01*
X170376461Y-63923958D01*
X170417501Y-63993091D01*
X170491945Y-64109458D01*
X170593811Y-64263927D01*
X170717118Y-64447367D01*
X170855882Y-64650648D01*
X170932013Y-64761975D01*
X171063396Y-64957155D01*
X171176041Y-65128450D01*
X171263941Y-65266519D01*
X171321087Y-65362021D01*
X171341471Y-65405612D01*
X171327307Y-65429258D01*
X171268060Y-65499911D01*
X171170863Y-65606838D01*
X171044637Y-65740978D01*
X170898305Y-65893270D01*
X170740789Y-66054653D01*
X170581012Y-66216066D01*
X170427895Y-66368450D01*
X170290361Y-66502743D01*
X170177332Y-66609885D01*
X170097731Y-66680814D01*
X170060480Y-66706471D01*
X170039802Y-66696495D01*
X169963874Y-66650230D01*
X169841343Y-66571493D01*
X169681043Y-66466055D01*
X169491802Y-66339684D01*
X169282453Y-66198151D01*
X168534916Y-65689832D01*
X167911796Y-65946702D01*
X167288676Y-66203573D01*
X167119803Y-67099360D01*
X166950929Y-67995147D01*
X165086424Y-67995147D01*
X164748676Y-66203573D01*
X164125556Y-65946702D01*
X163502436Y-65689832D01*
X162754900Y-66198151D01*
X162606946Y-66298362D01*
X162410805Y-66429900D01*
X162240989Y-66542247D01*
X162106317Y-66629637D01*
X162015610Y-66686301D01*
X161977685Y-66706471D01*
X161954393Y-66692127D01*
X161884770Y-66632023D01*
X161779406Y-66533387D01*
X161647229Y-66405276D01*
X161497167Y-66256746D01*
X161338148Y-66096854D01*
X161179099Y-65934658D01*
X161028948Y-65779215D01*
X160896623Y-65639581D01*
X160791052Y-65524814D01*
X160721163Y-65443970D01*
X160695882Y-65406107D01*
X160701763Y-65389840D01*
X160742483Y-65317276D01*
X160816842Y-65197854D01*
X160918812Y-65040937D01*
X161042364Y-64855884D01*
X161181471Y-64652059D01*
X161257811Y-64540895D01*
X161389133Y-64347365D01*
X161501721Y-64178467D01*
X161589573Y-64043361D01*
X161646687Y-63951204D01*
X161667059Y-63911158D01*
X161666724Y-63908939D01*
X161648754Y-63858174D01*
X161607527Y-63754512D01*
X161548790Y-63611493D01*
X161478290Y-63442660D01*
X161401773Y-63261553D01*
X161324987Y-63081714D01*
X161253679Y-62916685D01*
X161193594Y-62780007D01*
X161150481Y-62685221D01*
X161130085Y-62645870D01*
X161118018Y-62642379D01*
X161044698Y-62626635D01*
X160914022Y-62600554D01*
X160736451Y-62566175D01*
X160522445Y-62525535D01*
X160282462Y-62480674D01*
X160155979Y-62456889D01*
X159923826Y-62411507D01*
X159720844Y-62369597D01*
X159558127Y-62333564D01*
X159446770Y-62305816D01*
X159397868Y-62288760D01*
X159389084Y-62271852D01*
X159374513Y-62189238D01*
X159363065Y-62051642D01*
X159354731Y-61872009D01*
X159349502Y-61663286D01*
X159347370Y-61438421D01*
X159348326Y-61210360D01*
X159352360Y-60992050D01*
X159359464Y-60796437D01*
X159369630Y-60636468D01*
X159382847Y-60525090D01*
X159399108Y-60475250D01*
X159408976Y-60469628D01*
X159482568Y-60445515D01*
X159610231Y-60413611D01*
X159777206Y-60377409D01*
X159968740Y-60340403D01*
X160033365Y-60328618D01*
X160331842Y-60273805D01*
X160566418Y-60229753D01*
X160745226Y-60194636D01*
X160876396Y-60166626D01*
X160968059Y-60143899D01*
X161028348Y-60124626D01*
X161065394Y-60106981D01*
X161087327Y-60089139D01*
X161089877Y-60086144D01*
X161125745Y-60023712D01*
X161178822Y-59909473D01*
X161243963Y-59756829D01*
X161316025Y-59579182D01*
X161389863Y-59389934D01*
X161460333Y-59202486D01*
X161522291Y-59030242D01*
X161570593Y-58886602D01*
X161600095Y-58784968D01*
X161605653Y-58738743D01*
X161601936Y-58732745D01*
X161563467Y-58674742D01*
X161491121Y-58567757D01*
X161391607Y-58421647D01*
X161271632Y-58246267D01*
X161137904Y-58051471D01*
X161101203Y-57997876D01*
X160972146Y-57805633D01*
X160860613Y-57633705D01*
X160772969Y-57492287D01*
X160715580Y-57391575D01*
X160694812Y-57341766D01*
X160699287Y-57328671D01*
X160745935Y-57264144D01*
X160837968Y-57158773D01*
X160968795Y-57019649D01*
X161131828Y-56853865D01*
X161320474Y-56668512D01*
X161428301Y-56564765D01*
X161598791Y-56403182D01*
X161748015Y-56264780D01*
X161867958Y-56156846D01*
X161950609Y-56086666D01*
X161987954Y-56061527D01*
X162013612Y-56070846D01*
X162092607Y-56114929D01*
X162207327Y-56187024D01*
X162342807Y-56277999D01*
X162439133Y-56344388D01*
X162631443Y-56476227D01*
X162836660Y-56616246D01*
X163024103Y-56743481D01*
X163391295Y-56991845D01*
X163699526Y-56825187D01*
X163772105Y-56786720D01*
X163904095Y-56720923D01*
X164006166Y-56675496D01*
X164060717Y-56658559D01*
X164078569Y-56680310D01*
X164122901Y-56763129D01*
X164188379Y-56899674D01*
X164271362Y-57081279D01*
X164368206Y-57299279D01*
X164475267Y-57545007D01*
X164588903Y-57809799D01*
X164705468Y-58084988D01*
X164821321Y-58361910D01*
X164932817Y-58631899D01*
X165036314Y-58886290D01*
X165128166Y-59116416D01*
X165204733Y-59313612D01*
X165262369Y-59469214D01*
X165297431Y-59574554D01*
X165306276Y-59620969D01*
X165305677Y-59622325D01*
X165264478Y-59665232D01*
X165178302Y-59732432D01*
X165064942Y-59809992D01*
X165029160Y-59833675D01*
X164756899Y-60058357D01*
X164531571Y-60325968D01*
X164358510Y-60625370D01*
X164243051Y-60945423D01*
X164190530Y-61274988D01*
X164206281Y-61602925D01*
X164270085Y-61894601D01*
X164384646Y-62189132D01*
X164551653Y-62451892D01*
X164780840Y-62701494D01*
X164870893Y-62781232D01*
X165162014Y-62977691D01*
X165476503Y-63110002D01*
X165805246Y-63179349D01*
X166139130Y-63186917D01*
X166469041Y-63133888D01*
X166785865Y-63021449D01*
X167080491Y-62850782D01*
X167343802Y-62623073D01*
X167566688Y-62339505D01*
X167609540Y-62269281D01*
X167755192Y-61948312D01*
X167832547Y-61614078D01*
X167843630Y-61275235D01*
X167790469Y-60940439D01*
X167675087Y-60618347D01*
X167499512Y-60317614D01*
X167265768Y-60046897D01*
X166975881Y-59814853D01*
X166966467Y-59808600D01*
X166854308Y-59729562D01*
X166770245Y-59662364D01*
X166731851Y-59620969D01*
X166736695Y-59588515D01*
X166766816Y-59494020D01*
X166820225Y-59347561D01*
X166893280Y-59157805D01*
X166982339Y-58933420D01*
X167083760Y-58683073D01*
X167193901Y-58415432D01*
X167309120Y-58139164D01*
X167425775Y-57862937D01*
X167540224Y-57595419D01*
X167648824Y-57345276D01*
X167747935Y-57121176D01*
X167833913Y-56931787D01*
X167903118Y-56785776D01*
X167951906Y-56691811D01*
X167976636Y-56658559D01*
X167997202Y-56663063D01*
X168077996Y-56695429D01*
X168197404Y-56752178D01*
X168337826Y-56825187D01*
X168646058Y-56991845D01*
X169013250Y-56743481D01*
X169121733Y-56669937D01*
X169323512Y-56532524D01*
X169524678Y-56394890D01*
X169694546Y-56277999D01*
X169788295Y-56214296D01*
X169910142Y-56135151D01*
X170000487Y-56080971D01*
X170044614Y-56060882D01*
X170063572Y-56069411D01*
G36*
X170063572Y-56069411D02*
G01*
X170132100Y-56121650D01*
X170237743Y-56213624D01*
X170371306Y-56336287D01*
X170523593Y-56480591D01*
X170685409Y-56637491D01*
X170847558Y-56797939D01*
X171000846Y-56952890D01*
X171136076Y-57093295D01*
X171244054Y-57210109D01*
X171315584Y-57294285D01*
X171341471Y-57336775D01*
X171339978Y-57344859D01*
X171309168Y-57410662D01*
X171243349Y-57524508D01*
X171148883Y-57676114D01*
X171032129Y-57855196D01*
X170899448Y-58051471D01*
X170862237Y-58105610D01*
X170731573Y-58296118D01*
X170616480Y-58464540D01*
X170523665Y-58601022D01*
X170459836Y-58695708D01*
X170431700Y-58738743D01*
X170431008Y-58740587D01*
X170439312Y-58793236D01*
X170471021Y-58899892D01*
X170520993Y-59047152D01*
X170584083Y-59221615D01*
X170655146Y-59409879D01*
X170729039Y-59598541D01*
X170800617Y-59774200D01*
X170864737Y-59923453D01*
X170916255Y-60032900D01*
X170950026Y-60089139D01*
X170953409Y-60092630D01*
X170977589Y-60110294D01*
X171018426Y-60128108D01*
X171084052Y-60147896D01*
X171182598Y-60171487D01*
X171322195Y-60200707D01*
X171510976Y-60237382D01*
X171757071Y-60283338D01*
X172068613Y-60340403D01*
X172133229Y-60352414D01*
X172318335Y-60389541D01*
X172474043Y-60424718D01*
X172585599Y-60454452D01*
X172638245Y-60475250D01*
X172647052Y-60492602D01*
X172661737Y-60575953D01*
X172673374Y-60714132D01*
X172681953Y-60894191D01*
X172687468Y-61103185D01*
X172689907Y-61328165D01*
X172689264Y-61556186D01*
X172685528Y-61774300D01*
X172678691Y-61969562D01*
X172668744Y-62129023D01*
X172655678Y-62239739D01*
X172639485Y-62288760D01*
X172622952Y-62296003D01*
X172540705Y-62318831D01*
X172401681Y-62351119D01*
X172216974Y-62390460D01*
X171997679Y-62434447D01*
X171754891Y-62480674D01*
X171622325Y-62505371D01*
X171395112Y-62548199D01*
X171199540Y-62585702D01*
X171046069Y-62615840D01*
X170945158Y-62636575D01*
X170907267Y-62645870D01*
X170905843Y-62647786D01*
X170881712Y-62696463D01*
X170835709Y-62798440D01*
X170773585Y-62940186D01*
X170701089Y-63108172D01*
X170623970Y-63288868D01*
X170547980Y-63468742D01*
X170478867Y-63634266D01*
X170422382Y-63771908D01*
X170384274Y-63868140D01*
X170370294Y-63909430D01*
X170376461Y-63923958D01*
X170417501Y-63993091D01*
X170491945Y-64109458D01*
X170593811Y-64263927D01*
X170717118Y-64447367D01*
X170855882Y-64650648D01*
X170932013Y-64761975D01*
X171063396Y-64957155D01*
X171176041Y-65128450D01*
X171263941Y-65266519D01*
X171321087Y-65362021D01*
X171341471Y-65405612D01*
X171327307Y-65429258D01*
X171268060Y-65499911D01*
X171170863Y-65606838D01*
X171044637Y-65740978D01*
X170898305Y-65893270D01*
X170740789Y-66054653D01*
X170581012Y-66216066D01*
X170427895Y-66368450D01*
X170290361Y-66502743D01*
X170177332Y-66609885D01*
X170097731Y-66680814D01*
X170060480Y-66706471D01*
X170039802Y-66696495D01*
X169963874Y-66650230D01*
X169841343Y-66571493D01*
X169681043Y-66466055D01*
X169491802Y-66339684D01*
X169282453Y-66198151D01*
X168534916Y-65689832D01*
X167911796Y-65946702D01*
X167288676Y-66203573D01*
X167119803Y-67099360D01*
X166950929Y-67995147D01*
X165086424Y-67995147D01*
X164748676Y-66203573D01*
X164125556Y-65946702D01*
X163502436Y-65689832D01*
X162754900Y-66198151D01*
X162606946Y-66298362D01*
X162410805Y-66429900D01*
X162240989Y-66542247D01*
X162106317Y-66629637D01*
X162015610Y-66686301D01*
X161977685Y-66706471D01*
X161954393Y-66692127D01*
X161884770Y-66632023D01*
X161779406Y-66533387D01*
X161647229Y-66405276D01*
X161497167Y-66256746D01*
X161338148Y-66096854D01*
X161179099Y-65934658D01*
X161028948Y-65779215D01*
X160896623Y-65639581D01*
X160791052Y-65524814D01*
X160721163Y-65443970D01*
X160695882Y-65406107D01*
X160701763Y-65389840D01*
X160742483Y-65317276D01*
X160816842Y-65197854D01*
X160918812Y-65040937D01*
X161042364Y-64855884D01*
X161181471Y-64652059D01*
X161257811Y-64540895D01*
X161389133Y-64347365D01*
X161501721Y-64178467D01*
X161589573Y-64043361D01*
X161646687Y-63951204D01*
X161667059Y-63911158D01*
X161666724Y-63908939D01*
X161648754Y-63858174D01*
X161607527Y-63754512D01*
X161548790Y-63611493D01*
X161478290Y-63442660D01*
X161401773Y-63261553D01*
X161324987Y-63081714D01*
X161253679Y-62916685D01*
X161193594Y-62780007D01*
X161150481Y-62685221D01*
X161130085Y-62645870D01*
X161118018Y-62642379D01*
X161044698Y-62626635D01*
X160914022Y-62600554D01*
X160736451Y-62566175D01*
X160522445Y-62525535D01*
X160282462Y-62480674D01*
X160155979Y-62456889D01*
X159923826Y-62411507D01*
X159720844Y-62369597D01*
X159558127Y-62333564D01*
X159446770Y-62305816D01*
X159397868Y-62288760D01*
X159389084Y-62271852D01*
X159374513Y-62189238D01*
X159363065Y-62051642D01*
X159354731Y-61872009D01*
X159349502Y-61663286D01*
X159347370Y-61438421D01*
X159348326Y-61210360D01*
X159352360Y-60992050D01*
X159359464Y-60796437D01*
X159369630Y-60636468D01*
X159382847Y-60525090D01*
X159399108Y-60475250D01*
X159408976Y-60469628D01*
X159482568Y-60445515D01*
X159610231Y-60413611D01*
X159777206Y-60377409D01*
X159968740Y-60340403D01*
X160033365Y-60328618D01*
X160331842Y-60273805D01*
X160566418Y-60229753D01*
X160745226Y-60194636D01*
X160876396Y-60166626D01*
X160968059Y-60143899D01*
X161028348Y-60124626D01*
X161065394Y-60106981D01*
X161087327Y-60089139D01*
X161089877Y-60086144D01*
X161125745Y-60023712D01*
X161178822Y-59909473D01*
X161243963Y-59756829D01*
X161316025Y-59579182D01*
X161389863Y-59389934D01*
X161460333Y-59202486D01*
X161522291Y-59030242D01*
X161570593Y-58886602D01*
X161600095Y-58784968D01*
X161605653Y-58738743D01*
X161601936Y-58732745D01*
X161563467Y-58674742D01*
X161491121Y-58567757D01*
X161391607Y-58421647D01*
X161271632Y-58246267D01*
X161137904Y-58051471D01*
X161101203Y-57997876D01*
X160972146Y-57805633D01*
X160860613Y-57633705D01*
X160772969Y-57492287D01*
X160715580Y-57391575D01*
X160694812Y-57341766D01*
X160699287Y-57328671D01*
X160745935Y-57264144D01*
X160837968Y-57158773D01*
X160968795Y-57019649D01*
X161131828Y-56853865D01*
X161320474Y-56668512D01*
X161428301Y-56564765D01*
X161598791Y-56403182D01*
X161748015Y-56264780D01*
X161867958Y-56156846D01*
X161950609Y-56086666D01*
X161987954Y-56061527D01*
X162013612Y-56070846D01*
X162092607Y-56114929D01*
X162207327Y-56187024D01*
X162342807Y-56277999D01*
X162439133Y-56344388D01*
X162631443Y-56476227D01*
X162836660Y-56616246D01*
X163024103Y-56743481D01*
X163391295Y-56991845D01*
X163699526Y-56825187D01*
X163772105Y-56786720D01*
X163904095Y-56720923D01*
X164006166Y-56675496D01*
X164060717Y-56658559D01*
X164078569Y-56680310D01*
X164122901Y-56763129D01*
X164188379Y-56899674D01*
X164271362Y-57081279D01*
X164368206Y-57299279D01*
X164475267Y-57545007D01*
X164588903Y-57809799D01*
X164705468Y-58084988D01*
X164821321Y-58361910D01*
X164932817Y-58631899D01*
X165036314Y-58886290D01*
X165128166Y-59116416D01*
X165204733Y-59313612D01*
X165262369Y-59469214D01*
X165297431Y-59574554D01*
X165306276Y-59620969D01*
X165305677Y-59622325D01*
X165264478Y-59665232D01*
X165178302Y-59732432D01*
X165064942Y-59809992D01*
X165029160Y-59833675D01*
X164756899Y-60058357D01*
X164531571Y-60325968D01*
X164358510Y-60625370D01*
X164243051Y-60945423D01*
X164190530Y-61274988D01*
X164206281Y-61602925D01*
X164270085Y-61894601D01*
X164384646Y-62189132D01*
X164551653Y-62451892D01*
X164780840Y-62701494D01*
X164870893Y-62781232D01*
X165162014Y-62977691D01*
X165476503Y-63110002D01*
X165805246Y-63179349D01*
X166139130Y-63186917D01*
X166469041Y-63133888D01*
X166785865Y-63021449D01*
X167080491Y-62850782D01*
X167343802Y-62623073D01*
X167566688Y-62339505D01*
X167609540Y-62269281D01*
X167755192Y-61948312D01*
X167832547Y-61614078D01*
X167843630Y-61275235D01*
X167790469Y-60940439D01*
X167675087Y-60618347D01*
X167499512Y-60317614D01*
X167265768Y-60046897D01*
X166975881Y-59814853D01*
X166966467Y-59808600D01*
X166854308Y-59729562D01*
X166770245Y-59662364D01*
X166731851Y-59620969D01*
X166736695Y-59588515D01*
X166766816Y-59494020D01*
X166820225Y-59347561D01*
X166893280Y-59157805D01*
X166982339Y-58933420D01*
X167083760Y-58683073D01*
X167193901Y-58415432D01*
X167309120Y-58139164D01*
X167425775Y-57862937D01*
X167540224Y-57595419D01*
X167648824Y-57345276D01*
X167747935Y-57121176D01*
X167833913Y-56931787D01*
X167903118Y-56785776D01*
X167951906Y-56691811D01*
X167976636Y-56658559D01*
X167997202Y-56663063D01*
X168077996Y-56695429D01*
X168197404Y-56752178D01*
X168337826Y-56825187D01*
X168646058Y-56991845D01*
X169013250Y-56743481D01*
X169121733Y-56669937D01*
X169323512Y-56532524D01*
X169524678Y-56394890D01*
X169694546Y-56277999D01*
X169788295Y-56214296D01*
X169910142Y-56135151D01*
X170000487Y-56080971D01*
X170044614Y-56060882D01*
X170063572Y-56069411D01*
G37*
%TD*%
M02*
