%TF.GenerationSoftware,KiCad,Pcbnew,10.0.1*%
%TF.CreationDate,2026-05-27T14:23:07+02:00*%
%TF.ProjectId,dongle,646f6e67-6c65-42e6-9b69-6361645f7063,rev?*%
%TF.SameCoordinates,Original*%
%TF.FileFunction,Copper,L4,Bot*%
%TF.FilePolarity,Positive*%
%FSLAX46Y46*%
G04 Gerber Fmt 4.6, Leading zero omitted, Abs format (unit mm)*
G04 Created by KiCad (PCBNEW 10.0.1) date 2026-05-27 14:23:07*
%MOMM*%
%LPD*%
G01*
G04 APERTURE LIST*
G04 Aperture macros list*
%AMRoundRect*
0 Rectangle with rounded corners*
0 $1 Rounding radius*
0 $2 $3 $4 $5 $6 $7 $8 $9 X,Y pos of 4 corners*
0 Add a 4 corners polygon primitive as box body*
4,1,4,$2,$3,$4,$5,$6,$7,$8,$9,$2,$3,0*
0 Add four circle primitives for the rounded corners*
1,1,$1+$1,$2,$3*
1,1,$1+$1,$4,$5*
1,1,$1+$1,$6,$7*
1,1,$1+$1,$8,$9*
0 Add four rect primitives between the rounded corners*
20,1,$1+$1,$2,$3,$4,$5,0*
20,1,$1+$1,$4,$5,$6,$7,0*
20,1,$1+$1,$6,$7,$8,$9,0*
20,1,$1+$1,$8,$9,$2,$3,0*%
G04 Aperture macros list end*
%TA.AperFunction,SMDPad,CuDef*%
%ADD10RoundRect,0.250000X-0.312500X-0.625000X0.312500X-0.625000X0.312500X0.625000X-0.312500X0.625000X0*%
%TD*%
%TA.AperFunction,SMDPad,CuDef*%
%ADD11RoundRect,0.250000X-0.625000X0.312500X-0.625000X-0.312500X0.625000X-0.312500X0.625000X0.312500X0*%
%TD*%
%TA.AperFunction,ConnectorPad*%
%ADD12RoundRect,0.070000X0.105000X0.930000X-0.105000X0.930000X-0.105000X-0.930000X0.105000X-0.930000X0*%
%TD*%
%TA.AperFunction,SMDPad,CuDef*%
%ADD13R,1.000000X2.000000*%
%TD*%
%TA.AperFunction,ViaPad*%
%ADD14C,0.600000*%
%TD*%
%TA.AperFunction,Conductor*%
%ADD15C,1.000000*%
%TD*%
%TA.AperFunction,Conductor*%
%ADD16C,0.200000*%
%TD*%
%TA.AperFunction,Conductor*%
%ADD17C,0.300000*%
%TD*%
G04 APERTURE END LIST*
D10*
%TO.P,C12,1*%
%TO.N,GND*%
X167437500Y-69600000D03*
%TO.P,C12,2*%
%TO.N,+3.3V*%
X170362500Y-69600000D03*
%TD*%
D11*
%TO.P,C11,1*%
%TO.N,GND*%
X154600000Y-66337500D03*
%TO.P,C11,2*%
%TO.N,+3.3V*%
X154600000Y-69262500D03*
%TD*%
D12*
%TO.P,J2,2,3.3V_2*%
%TO.N,+3.3V*%
X157500000Y-49700000D03*
%TO.P,J2,4,3.3V_4*%
X158000000Y-49700000D03*
%TO.P,J2,6,~{FULL_CARD_POWER_OFF}_6*%
%TO.N,Net-(J2-~{FULL_CARD_POWER_OFF})*%
X158500000Y-49700000D03*
%TO.P,J2,8,~{W_DISABLE1}_8*%
%TO.N,Net-(J2-~{W_DISABLE1})*%
X159000000Y-49700000D03*
%TO.P,J2,10,GPIO_9/DAS/~{DSS}/~{LED1}_10*%
%TO.N,unconnected-(J2-GPIO_9{slash}DAS{slash}~{DSS}{slash}~{LED1}-Pad10)*%
X159500000Y-49700000D03*
%TO.P,J2,20,GPIO_5_20*%
%TO.N,unconnected-(J2-GPIO_5-Pad20)*%
X162000000Y-49700000D03*
%TO.P,J2,22,GPIO_6_22*%
%TO.N,unconnected-(J2-GPIO_6-Pad22)*%
X162500000Y-49700000D03*
%TO.P,J2,24,GPIO_7_24*%
%TO.N,unconnected-(J2-GPIO_7-Pad24)*%
X163000000Y-49700000D03*
%TO.P,J2,26,GPIO_10_26*%
%TO.N,unconnected-(J2-GPIO_10-Pad26)*%
X163500000Y-49700000D03*
%TO.P,J2,28,GPIO_8_28*%
%TO.N,unconnected-(J2-GPIO_8-Pad28)*%
X164000000Y-49700000D03*
%TO.P,J2,30,UIM-RESET_30*%
%TO.N,unconnected-(J2-UIM-RESET-Pad30)*%
X164500000Y-49700000D03*
%TO.P,J2,32,UIM-CLK_32*%
%TO.N,unconnected-(J2-UIM-CLK-Pad32)*%
X165000000Y-49700000D03*
%TO.P,J2,34,UIM-DATA_34*%
%TO.N,unconnected-(J2-UIM-DATA-Pad34)*%
X165500000Y-49700000D03*
%TO.P,J2,36,UIM-PWR_36*%
%TO.N,unconnected-(J2-UIM-PWR-Pad36)*%
X166000000Y-49700000D03*
%TO.P,J2,38,DEVSLP_38*%
%TO.N,unconnected-(J2-DEVSLP-Pad38)*%
X166500000Y-49700000D03*
%TO.P,J2,40,GPIO_0_40*%
%TO.N,unconnected-(J2-GPIO_0-Pad40)*%
X167000000Y-49700000D03*
%TO.P,J2,42,GPIO_1_42*%
%TO.N,unconnected-(J2-GPIO_1-Pad42)*%
X167500000Y-49700000D03*
%TO.P,J2,44,GPIO_2_44*%
%TO.N,unconnected-(J2-GPIO_2-Pad44)*%
X168000000Y-49700000D03*
%TO.P,J2,46,GPIO_3_46*%
%TO.N,unconnected-(J2-GPIO_3-Pad46)*%
X168500000Y-49700000D03*
%TO.P,J2,48,GPIO_4_48*%
%TO.N,unconnected-(J2-GPIO_4-Pad48)*%
X169000000Y-49700000D03*
%TO.P,J2,50,~{PERST}_50*%
%TO.N,unconnected-(J2-~{PERST}-Pad50)*%
X169500000Y-49700000D03*
%TO.P,J2,52,~{CLKREQ}_52*%
%TO.N,unconnected-(J2-~{CLKREQ}-Pad52)*%
X170000000Y-49700000D03*
%TO.P,J2,54,~{PEWAKE}_54*%
%TO.N,unconnected-(J2-~{PEWAKE}-Pad54)*%
X170500000Y-49700000D03*
%TO.P,J2,56,NC_56*%
%TO.N,unconnected-(J2-NC-Pad56)*%
X171000000Y-49700000D03*
%TO.P,J2,58,NC_58*%
%TO.N,unconnected-(J2-NC-Pad58)*%
X171500000Y-49700000D03*
%TO.P,J2,60,COEX3_60*%
%TO.N,unconnected-(J2-COEX3-Pad60)*%
X172000000Y-49700000D03*
%TO.P,J2,62,COEX2_62*%
%TO.N,unconnected-(J2-COEX2-Pad62)*%
X172500000Y-49700000D03*
%TO.P,J2,64,COEX1_64*%
%TO.N,unconnected-(J2-COEX1-Pad64)*%
X173000000Y-49700000D03*
%TO.P,J2,66,SIM_DETECT_66*%
%TO.N,unconnected-(J2-SIM_DETECT-Pad66)*%
X173500000Y-49700000D03*
%TO.P,J2,68,SUSCLK_68*%
%TO.N,unconnected-(J2-SUSCLK-Pad68)*%
X174000000Y-49700000D03*
%TO.P,J2,70,3.3V_70*%
%TO.N,+3.3V*%
X174500000Y-49700000D03*
%TO.P,J2,72,3.3V_72*%
X175000000Y-49700000D03*
%TO.P,J2,74,3.3V_74*%
X175500000Y-49700000D03*
%TD*%
D13*
%TO.P,U2,1,GND_1*%
%TO.N,GND*%
X154570000Y-72100000D03*
%TO.P,U2,2,VCC_2*%
%TO.N,+3.3V*%
X153300000Y-72100000D03*
%TO.P,U2,3,CE_3*%
%TO.N,Net-(U2-CE)*%
X155840000Y-72100000D03*
%TO.P,U2,4,~{CSN}_4*%
%TO.N,Net-(U2-~{CSN})*%
X157110000Y-72100000D03*
%TO.P,U2,5,SCK_5*%
%TO.N,/SCK*%
X158380000Y-72100000D03*
%TO.P,U2,6,MOSI_6*%
%TO.N,/MOSI*%
X159650000Y-72100000D03*
%TO.P,U2,7,MISO_7*%
%TO.N,/MISO*%
X160920000Y-72100000D03*
%TO.P,U2,8,IRQ_8*%
%TO.N,Net-(U2-IRQ)*%
X162190000Y-72100000D03*
%TD*%
%TO.P,U3,1,GND_1*%
%TO.N,GND*%
X172270000Y-72062500D03*
%TO.P,U3,2,VCC_2*%
%TO.N,+3.3V*%
X171000000Y-72062500D03*
%TO.P,U3,3,CE_3*%
%TO.N,Net-(U3-CE)*%
X173540000Y-72062500D03*
%TO.P,U3,4,~{CSN}_4*%
%TO.N,Net-(U3-~{CSN})*%
X174810000Y-72062500D03*
%TO.P,U3,5,SCK_5*%
%TO.N,/SCK*%
X176080000Y-72062500D03*
%TO.P,U3,6,MOSI_6*%
%TO.N,/MOSI*%
X177350000Y-72062500D03*
%TO.P,U3,7,MISO_7*%
%TO.N,/MISO*%
X178620000Y-72062500D03*
%TO.P,U3,8,IRQ_8*%
%TO.N,Net-(U3-IRQ)*%
X179890000Y-72062500D03*
%TD*%
D14*
%TO.N,+3.3V*%
X178500000Y-53637500D03*
X176100000Y-53637500D03*
%TO.N,Net-(U7-GPIO6{slash}TOUCH6{slash}ADC1_CH5)*%
X169712795Y-67122459D03*
X174500000Y-64400000D03*
%TO.N,/MISO*%
X167800000Y-77900000D03*
X160325735Y-75325735D03*
X178634265Y-71114265D03*
%TO.N,+3.3V*%
X156400000Y-56617500D03*
X155000000Y-76400000D03*
X171800000Y-70000000D03*
X175500000Y-51700000D03*
X174859620Y-51759620D03*
X165100000Y-61700000D03*
X157375000Y-50800000D03*
X169700000Y-63300000D03*
%TO.N,GND*%
X163800000Y-51600000D03*
X161800000Y-70550000D03*
X180700000Y-82700000D03*
X172200000Y-74100000D03*
X164600000Y-70550000D03*
X160100000Y-61000000D03*
X169800000Y-57400000D03*
X176800000Y-63200000D03*
X165200000Y-51700000D03*
X152900000Y-63800000D03*
X170920000Y-82200000D03*
X155000000Y-78700000D03*
X180600000Y-59300000D03*
X166800000Y-51700000D03*
X155092559Y-56458712D03*
X168300000Y-51800000D03*
X159900000Y-55700000D03*
X165200000Y-63100000D03*
X156000000Y-58400000D03*
X159900000Y-53400000D03*
X156200000Y-76000000D03*
X175500000Y-52500003D03*
X180600000Y-63100000D03*
X152600000Y-53200000D03*
X156400000Y-70200000D03*
X171900000Y-62000000D03*
X169800000Y-51800000D03*
X170920000Y-64700000D03*
X167600000Y-57400000D03*
X171200000Y-51800000D03*
%TO.N,Net-(J2-~{FULL_CARD_POWER_OFF})*%
X174000000Y-58900000D03*
%TO.N,Net-(J2-~{W_DISABLE1})*%
X153627500Y-56900000D03*
%TO.N,Net-(U4-TXD)*%
X165500000Y-77300000D03*
X162600000Y-62300000D03*
%TO.N,/CE_2*%
X175300000Y-66700000D03*
X167100000Y-64700000D03*
%TO.N,Net-(U7-GPIO5{slash}TOUCH5{slash}ADC1_CH4)*%
X175200000Y-65000000D03*
X171200000Y-67100000D03*
%TO.N,Net-(U7-GPIO7{slash}TOUCH7{slash}ADC1_CH6)*%
X172300000Y-67400000D03*
X174500000Y-65600000D03*
%TO.N,/CSN_1*%
X165754416Y-76100000D03*
X167958579Y-74344363D03*
%TO.N,/IO0*%
X154400000Y-82100000D03*
X171700000Y-59400000D03*
X177300000Y-57600000D03*
%TO.N,/IRQ_2*%
X178900000Y-82700000D03*
X168380000Y-82200000D03*
%TO.N,/CSN_2*%
X169600000Y-82200000D03*
X178300000Y-82100000D03*
%TO.N,Net-(U3-CE)*%
X173500000Y-71000000D03*
%TO.N,Net-(U3-IRQ)*%
X179890000Y-72062500D03*
%TO.N,Net-(U2-IRQ)*%
X162300000Y-76292157D03*
%TO.N,Net-(U4-RXD)*%
X163800000Y-62300000D03*
X166300000Y-77700000D03*
%TO.N,Net-(U3-~{CSN})*%
X174810000Y-72062500D03*
%TO.N,Net-(U2-~{CSN})*%
X157700000Y-68800000D03*
%TO.N,Net-(U2-CE)*%
X158796128Y-76058872D03*
%TO.N,/SCK*%
X176080000Y-71020000D03*
X168900000Y-76900000D03*
X158380000Y-72100000D03*
%TO.N,/MOSI*%
X168144773Y-77178103D03*
X159650000Y-72100000D03*
X177350000Y-71100000D03*
%TD*%
%TO.N,+3.3V*%
D15*
X170362500Y-69600000D02*
X170400000Y-69600000D01*
X170400000Y-69600000D02*
X171000000Y-70200000D01*
X171000000Y-70200000D02*
X171000000Y-72062500D01*
%TO.N,GND*%
X154600000Y-66337500D02*
X155837500Y-66337500D01*
X155837500Y-66337500D02*
X156400000Y-66900000D01*
X156400000Y-66900000D02*
X156400000Y-70200000D01*
%TO.N,+3.3V*%
X153437500Y-69262500D02*
X153300000Y-69400000D01*
X153300000Y-69400000D02*
X153300000Y-72100000D01*
X154600000Y-69262500D02*
X153437500Y-69262500D01*
%TO.N,/IO0*%
D16*
X171700000Y-59400000D02*
X171300000Y-59000000D01*
X171300000Y-59000000D02*
X163965686Y-59000000D01*
X163965686Y-59000000D02*
X158665685Y-64300000D01*
X158665685Y-64300000D02*
X156665686Y-64300000D01*
X156665686Y-64300000D02*
X155865685Y-65100000D01*
X155865685Y-65100000D02*
X152800000Y-65100000D01*
X152800000Y-65100000D02*
X152400000Y-65500000D01*
X152400000Y-65500000D02*
X152400000Y-80100000D01*
X152400000Y-80100000D02*
X154400000Y-82100000D01*
%TO.N,Net-(U7-GPIO6{slash}TOUCH6{slash}ADC1_CH5)*%
X169712795Y-67122459D02*
X172435254Y-64400000D01*
X172435254Y-64400000D02*
X174500000Y-64400000D01*
%TO.N,/MISO*%
X173478186Y-77700000D02*
X176789093Y-74389093D01*
X160660000Y-73640000D02*
X160920000Y-73380000D01*
X169864215Y-77800000D02*
X172673874Y-77799999D01*
X172673874Y-77799999D02*
X172773871Y-77700000D01*
X172773871Y-77700000D02*
X173478186Y-77700000D01*
X176789093Y-74389093D02*
X177493407Y-74389093D01*
X160660000Y-74991470D02*
X160660000Y-73640000D01*
X160325735Y-75325735D02*
X160660000Y-74991470D01*
X178620000Y-73262500D02*
X178620000Y-72062500D01*
X160920000Y-73380000D02*
X160920000Y-72100000D01*
X169764215Y-77900000D02*
X169864215Y-77800000D01*
X177493407Y-74389093D02*
X178620000Y-73262500D01*
X167800000Y-77900000D02*
X169764215Y-77900000D01*
%TO.N,+3.3V*%
D17*
X171000000Y-72062500D02*
X171000000Y-70800000D01*
X157500000Y-49700000D02*
X157500000Y-50675000D01*
X157500000Y-50675000D02*
X157375000Y-50800000D01*
X175500000Y-49700000D02*
X174525000Y-49700000D01*
X171000000Y-70800000D02*
X171800000Y-70000000D01*
X153300000Y-74700000D02*
X155000000Y-76400000D01*
X157500000Y-49700000D02*
X157975000Y-49700000D01*
X175500000Y-49700000D02*
X175500000Y-51700000D01*
X175000000Y-49700000D02*
X175000000Y-51619240D01*
X153300000Y-72100000D02*
X153300000Y-74700000D01*
X175000000Y-51619240D02*
X174859620Y-51759620D01*
%TO.N,GND*%
D16*
X172270000Y-72062500D02*
X172270000Y-74030000D01*
X172270000Y-74030000D02*
X172200000Y-74100000D01*
%TO.N,Net-(J2-~{FULL_CARD_POWER_OFF})*%
X158500000Y-63900000D02*
X156500000Y-63900000D01*
X154300000Y-53100000D02*
X156300000Y-53100000D01*
X155700000Y-64700000D02*
X154100000Y-64700000D01*
X153600000Y-63300000D02*
X153027500Y-62727500D01*
X154100000Y-64700000D02*
X153600000Y-64200000D01*
X173600000Y-58500000D02*
X163900000Y-58500000D01*
X153027500Y-62727500D02*
X153027500Y-54372500D01*
X158500000Y-50900000D02*
X158500000Y-49700000D01*
X156500000Y-63900000D02*
X155700000Y-64700000D01*
X153600000Y-64200000D02*
X153600000Y-63300000D01*
X174000000Y-58900000D02*
X173600000Y-58500000D01*
X156300000Y-53100000D02*
X158500000Y-50900000D01*
X163900000Y-58500000D02*
X158500000Y-63900000D01*
X153027500Y-54372500D02*
X154300000Y-53100000D01*
%TO.N,Net-(J2-~{W_DISABLE1})*%
X153627500Y-56900000D02*
X154000000Y-56527500D01*
X154600000Y-53500000D02*
X156465685Y-53500000D01*
X159000000Y-50965686D02*
X159000000Y-49700000D01*
X154000000Y-56527500D02*
X154000000Y-54100000D01*
X154000000Y-54100000D02*
X154600000Y-53500000D01*
X156465685Y-53500000D02*
X159000000Y-50965686D01*
%TO.N,Net-(U4-TXD)*%
X162600000Y-62631372D02*
X162600000Y-62300000D01*
X168700000Y-68731372D02*
X162600000Y-62631372D01*
X165775735Y-77024265D02*
X166127206Y-77024265D01*
X166127206Y-77024265D02*
X168700000Y-74451471D01*
X165500000Y-77300000D02*
X165775735Y-77024265D01*
X168700000Y-74451471D02*
X168700000Y-68731372D01*
%TO.N,/CE_2*%
X167100000Y-66000000D02*
X169375000Y-68275000D01*
X169375000Y-68275000D02*
X172925000Y-68275000D01*
X167100000Y-64700000D02*
X167100000Y-66000000D01*
X174500000Y-66700000D02*
X175300000Y-66700000D01*
X172925000Y-68275000D02*
X174500000Y-66700000D01*
%TO.N,Net-(U7-GPIO5{slash}TOUCH5{slash}ADC1_CH4)*%
X171200000Y-67100000D02*
X173300000Y-65000000D01*
X173300000Y-65000000D02*
X175200000Y-65000000D01*
%TO.N,Net-(U7-GPIO7{slash}TOUCH7{slash}ADC1_CH6)*%
X172300000Y-67400000D02*
X172700000Y-67400000D01*
X172700000Y-67400000D02*
X174500000Y-65600000D01*
%TO.N,/CSN_1*%
X165754416Y-76100000D02*
X165607843Y-75953427D01*
X165607843Y-75953427D02*
X166632358Y-75953427D01*
X167958579Y-74627206D02*
X167958579Y-74344363D01*
X166632358Y-75953427D02*
X167958579Y-74627206D01*
%TO.N,/IO0*%
X172100000Y-59800000D02*
X175100000Y-59800000D01*
X175100000Y-59800000D02*
X177300000Y-57600000D01*
X171700000Y-59400000D02*
X172100000Y-59800000D01*
%TO.N,/IRQ_2*%
X178900000Y-82700000D02*
X174500000Y-82700000D01*
X174500000Y-82700000D02*
X174400000Y-82800000D01*
X168980000Y-82800000D02*
X168380000Y-82200000D01*
X174400000Y-82800000D02*
X168980000Y-82800000D01*
%TO.N,/CSN_2*%
X173000000Y-81600000D02*
X170200000Y-81600000D01*
X170200000Y-81600000D02*
X169600000Y-82200000D01*
X178300000Y-82100000D02*
X173500000Y-82100000D01*
X173500000Y-82100000D02*
X173000000Y-81600000D01*
%TO.N,Net-(U3-CE)*%
X173500000Y-71000000D02*
X173500000Y-72022500D01*
X173500000Y-72022500D02*
X173540000Y-72062500D01*
%TO.N,Net-(U2-IRQ)*%
X162300000Y-76292157D02*
X162300000Y-75600000D01*
X162300000Y-75600000D02*
X162190000Y-75490000D01*
X162190000Y-75490000D02*
X162190000Y-72100000D01*
%TO.N,Net-(U4-RXD)*%
X166300000Y-77700000D02*
X169100000Y-74900000D01*
X169100000Y-68565686D02*
X163800000Y-63265686D01*
X163800000Y-63265686D02*
X163800000Y-62300000D01*
X169100000Y-74900000D02*
X169100000Y-68565686D01*
%TO.N,Net-(U2-~{CSN})*%
X157110000Y-70990000D02*
X157110000Y-72100000D01*
X157400000Y-70700000D02*
X157110000Y-70990000D01*
X157400000Y-69100000D02*
X157400000Y-70700000D01*
X157700000Y-68800000D02*
X157400000Y-69100000D01*
%TO.N,Net-(U2-CE)*%
X158796128Y-76058872D02*
X158458872Y-76058872D01*
X155840000Y-73440000D02*
X155840000Y-72100000D01*
X158458872Y-76058872D02*
X155840000Y-73440000D01*
%TO.N,/SCK*%
X169000000Y-77000000D02*
X172342500Y-77000000D01*
X172342500Y-77000000D02*
X176080000Y-73262500D01*
X176080000Y-73262500D02*
X176080000Y-72062500D01*
X168900000Y-76900000D02*
X169000000Y-77000000D01*
%TO.N,/MOSI*%
X172508186Y-77400000D02*
X172608185Y-77300000D01*
X177350000Y-73262500D02*
X177350000Y-72062500D01*
X169598529Y-77500000D02*
X169698529Y-77400000D01*
X168466670Y-77500000D02*
X169598529Y-77500000D01*
X172608185Y-77300000D02*
X173312500Y-77300000D01*
X173312500Y-77300000D02*
X177350000Y-73262500D01*
X169698529Y-77400000D02*
X172508186Y-77400000D01*
X168144773Y-77178103D02*
X168466670Y-77500000D01*
%TD*%
%TA.AperFunction,Conductor*%
%TO.N,GND*%
G36*
X161705398Y-62197638D02*
G01*
X161718834Y-62198599D01*
X161736560Y-62211869D01*
X161756703Y-62221068D01*
X161763985Y-62232399D01*
X161774767Y-62240471D01*
X161782504Y-62261216D01*
X161794477Y-62279846D01*
X161797628Y-62301764D01*
X161799184Y-62305935D01*
X161799500Y-62314781D01*
X161799500Y-62378846D01*
X161830261Y-62533489D01*
X161830264Y-62533501D01*
X161890602Y-62679172D01*
X161890609Y-62679185D01*
X161978209Y-62810287D01*
X161978210Y-62810288D01*
X161978211Y-62810289D01*
X162041646Y-62873724D01*
X162061349Y-62899402D01*
X162119477Y-63000084D01*
X162119481Y-63000089D01*
X162238349Y-63118957D01*
X162238355Y-63118962D01*
X167134907Y-68015514D01*
X167168392Y-68076837D01*
X167163408Y-68146529D01*
X167121536Y-68202462D01*
X167059828Y-68226553D01*
X166972302Y-68235494D01*
X166805880Y-68290641D01*
X166805875Y-68290643D01*
X166656654Y-68382684D01*
X166532684Y-68506654D01*
X166440643Y-68655875D01*
X166440641Y-68655880D01*
X166385494Y-68822302D01*
X166385493Y-68822309D01*
X166375000Y-68925013D01*
X166375000Y-69350000D01*
X167313500Y-69350000D01*
X167380539Y-69369685D01*
X167426294Y-69422489D01*
X167437500Y-69474000D01*
X167437500Y-69600000D01*
X167563500Y-69600000D01*
X167630539Y-69619685D01*
X167676294Y-69672489D01*
X167687500Y-69724000D01*
X167687500Y-70974999D01*
X167799972Y-70974999D01*
X167799986Y-70974998D01*
X167902697Y-70964505D01*
X167936496Y-70953306D01*
X168006324Y-70950904D01*
X168066366Y-70986636D01*
X168097559Y-71049156D01*
X168099500Y-71071012D01*
X168099500Y-73419863D01*
X168079815Y-73486902D01*
X168027011Y-73532657D01*
X167975500Y-73543863D01*
X167879734Y-73543863D01*
X167725089Y-73574624D01*
X167725077Y-73574627D01*
X167579406Y-73634965D01*
X167579393Y-73634972D01*
X167448290Y-73722573D01*
X167448286Y-73722576D01*
X167336792Y-73834070D01*
X167336789Y-73834074D01*
X167249188Y-73965177D01*
X167249181Y-73965190D01*
X167188843Y-74110861D01*
X167188840Y-74110873D01*
X167158079Y-74265516D01*
X167158079Y-74265521D01*
X167158079Y-74423205D01*
X167158079Y-74423207D01*
X167158078Y-74423207D01*
X167170908Y-74487702D01*
X167164681Y-74557294D01*
X167136972Y-74599575D01*
X166419942Y-75316608D01*
X166358619Y-75350093D01*
X166332261Y-75352927D01*
X166067294Y-75352927D01*
X166019842Y-75343488D01*
X165987917Y-75330264D01*
X165987905Y-75330261D01*
X165833261Y-75299500D01*
X165833258Y-75299500D01*
X165675574Y-75299500D01*
X165675571Y-75299500D01*
X165520926Y-75330261D01*
X165520914Y-75330264D01*
X165375244Y-75390602D01*
X165375233Y-75390608D01*
X165337681Y-75415700D01*
X165330810Y-75419973D01*
X165325957Y-75422776D01*
X165325938Y-75422787D01*
X165282532Y-75447847D01*
X165239128Y-75472906D01*
X165239125Y-75472908D01*
X165127324Y-75584709D01*
X165077869Y-75670368D01*
X165077863Y-75670378D01*
X165074397Y-75676380D01*
X165070119Y-75683259D01*
X165045027Y-75720812D01*
X165045018Y-75720828D01*
X164984680Y-75866498D01*
X164984677Y-75866510D01*
X164953916Y-76021153D01*
X164953916Y-76178846D01*
X164984677Y-76333489D01*
X164984680Y-76333501D01*
X165045018Y-76479172D01*
X165045025Y-76479184D01*
X165050999Y-76488125D01*
X165071877Y-76554802D01*
X165053393Y-76622182D01*
X165016791Y-76660116D01*
X164989709Y-76678212D01*
X164989704Y-76678217D01*
X164878213Y-76789707D01*
X164878210Y-76789711D01*
X164790609Y-76920814D01*
X164790602Y-76920827D01*
X164730264Y-77066498D01*
X164730261Y-77066510D01*
X164699500Y-77221153D01*
X164699500Y-77378846D01*
X164730261Y-77533489D01*
X164730264Y-77533501D01*
X164790602Y-77679172D01*
X164790609Y-77679185D01*
X164878210Y-77810288D01*
X164878213Y-77810292D01*
X164989707Y-77921786D01*
X164989711Y-77921789D01*
X165120814Y-78009390D01*
X165120827Y-78009397D01*
X165264031Y-78068713D01*
X165266503Y-78069737D01*
X165421153Y-78100499D01*
X165421156Y-78100500D01*
X165538572Y-78100500D01*
X165605611Y-78120185D01*
X165641674Y-78155608D01*
X165678213Y-78210292D01*
X165789707Y-78321786D01*
X165789711Y-78321789D01*
X165920814Y-78409390D01*
X165920827Y-78409397D01*
X166041972Y-78459576D01*
X166066503Y-78469737D01*
X166221153Y-78500499D01*
X166221156Y-78500500D01*
X166221158Y-78500500D01*
X166378844Y-78500500D01*
X166378845Y-78500499D01*
X166533497Y-78469737D01*
X166679179Y-78409394D01*
X166810289Y-78321789D01*
X166889760Y-78242317D01*
X166951081Y-78208834D01*
X167020773Y-78213818D01*
X167076707Y-78255689D01*
X167087190Y-78274100D01*
X167087736Y-78273809D01*
X167090609Y-78279185D01*
X167178210Y-78410288D01*
X167178213Y-78410292D01*
X167289707Y-78521786D01*
X167289711Y-78521789D01*
X167420814Y-78609390D01*
X167420827Y-78609397D01*
X167566498Y-78669735D01*
X167566503Y-78669737D01*
X167721153Y-78700499D01*
X167721156Y-78700500D01*
X167721158Y-78700500D01*
X167878844Y-78700500D01*
X167878845Y-78700499D01*
X168033497Y-78669737D01*
X168179179Y-78609394D01*
X168179185Y-78609390D01*
X168310875Y-78521398D01*
X168377553Y-78500520D01*
X168379766Y-78500500D01*
X169677546Y-78500500D01*
X169677562Y-78500501D01*
X169685158Y-78500501D01*
X169843269Y-78500501D01*
X169843272Y-78500501D01*
X169996000Y-78459577D01*
X170046119Y-78430639D01*
X170060676Y-78422234D01*
X170069557Y-78417108D01*
X170069622Y-78417092D01*
X170131550Y-78400499D01*
X172594819Y-78400499D01*
X172594823Y-78400500D01*
X172752937Y-78400499D01*
X172834783Y-78378566D01*
X172905658Y-78359576D01*
X172905662Y-78359573D01*
X172905664Y-78359573D01*
X172905667Y-78359570D01*
X172906339Y-78359391D01*
X172908425Y-78358283D01*
X172912102Y-78355856D01*
X172912701Y-78355510D01*
X172964678Y-78325501D01*
X172979219Y-78317106D01*
X172979331Y-78317078D01*
X173041208Y-78300500D01*
X173391517Y-78300500D01*
X173391533Y-78300501D01*
X173399129Y-78300501D01*
X173557240Y-78300501D01*
X173557243Y-78300501D01*
X173709971Y-78259577D01*
X173760090Y-78230639D01*
X173846902Y-78180520D01*
X173958706Y-78068716D01*
X173958706Y-78068714D01*
X173968914Y-78058507D01*
X173968915Y-78058504D01*
X177001510Y-75025912D01*
X177062833Y-74992427D01*
X177089191Y-74989593D01*
X177406738Y-74989593D01*
X177406754Y-74989594D01*
X177414350Y-74989594D01*
X177572461Y-74989594D01*
X177572464Y-74989594D01*
X177725192Y-74948670D01*
X177775311Y-74919732D01*
X177862123Y-74869613D01*
X177973927Y-74757809D01*
X177973927Y-74757807D01*
X177984135Y-74747600D01*
X177984137Y-74747597D01*
X178988713Y-73743021D01*
X178988716Y-73743020D01*
X179100520Y-73631216D01*
X179113649Y-73608474D01*
X179123336Y-73598107D01*
X179141690Y-73587260D01*
X179157120Y-73572547D01*
X179176353Y-73566775D01*
X179183487Y-73562559D01*
X179189633Y-73562789D01*
X179200690Y-73559471D01*
X179205732Y-73558929D01*
X179235198Y-73555762D01*
X179235312Y-73556830D01*
X179274688Y-73556829D01*
X179274803Y-73555761D01*
X179282514Y-73556589D01*
X179282517Y-73556591D01*
X179342127Y-73563000D01*
X180437872Y-73562999D01*
X180497483Y-73556591D01*
X180632331Y-73506296D01*
X180747546Y-73420046D01*
X180776234Y-73381722D01*
X180832167Y-73339853D01*
X180901859Y-73334869D01*
X180963182Y-73368354D01*
X180996666Y-73429677D01*
X180999500Y-73456035D01*
X180999500Y-83476000D01*
X180979815Y-83543039D01*
X180927011Y-83588794D01*
X180875500Y-83600000D01*
X179402691Y-83600000D01*
X179335652Y-83580315D01*
X179289897Y-83527511D01*
X179279953Y-83458353D01*
X179308978Y-83394797D01*
X179333800Y-83372898D01*
X179370813Y-83348165D01*
X179410289Y-83321789D01*
X179521789Y-83210289D01*
X179609394Y-83079179D01*
X179669737Y-82933497D01*
X179700500Y-82778842D01*
X179700500Y-82621158D01*
X179700500Y-82621155D01*
X179700499Y-82621153D01*
X179692148Y-82579172D01*
X179669737Y-82466503D01*
X179656062Y-82433489D01*
X179609397Y-82320827D01*
X179609390Y-82320814D01*
X179521789Y-82189711D01*
X179521786Y-82189707D01*
X179410292Y-82078213D01*
X179410288Y-82078210D01*
X179279185Y-81990609D01*
X179279172Y-81990602D01*
X179135864Y-81931243D01*
X179081460Y-81887402D01*
X179068761Y-81864147D01*
X179009394Y-81720821D01*
X179009392Y-81720818D01*
X179009390Y-81720814D01*
X178921789Y-81589711D01*
X178921786Y-81589707D01*
X178810292Y-81478213D01*
X178810288Y-81478210D01*
X178679185Y-81390609D01*
X178679172Y-81390602D01*
X178533501Y-81330264D01*
X178533489Y-81330261D01*
X178378845Y-81299500D01*
X178378842Y-81299500D01*
X178221158Y-81299500D01*
X178221155Y-81299500D01*
X178066510Y-81330261D01*
X178066498Y-81330264D01*
X177920827Y-81390602D01*
X177920814Y-81390609D01*
X177789125Y-81478602D01*
X177722447Y-81499480D01*
X177720234Y-81499500D01*
X173800098Y-81499500D01*
X173733059Y-81479815D01*
X173712417Y-81463181D01*
X173368717Y-81119481D01*
X173368716Y-81119480D01*
X173281904Y-81069360D01*
X173281904Y-81069359D01*
X173281900Y-81069358D01*
X173231785Y-81040423D01*
X173079057Y-80999499D01*
X172920943Y-80999499D01*
X172913347Y-80999499D01*
X172913331Y-80999500D01*
X170279057Y-80999500D01*
X170120943Y-80999500D01*
X169968215Y-81040423D01*
X169968214Y-81040423D01*
X169968212Y-81040424D01*
X169968209Y-81040425D01*
X169918096Y-81069359D01*
X169918095Y-81069360D01*
X169874689Y-81094420D01*
X169831285Y-81119479D01*
X169831282Y-81119481D01*
X169719480Y-81231283D01*
X169719480Y-81231284D01*
X169719478Y-81231286D01*
X169651403Y-81299361D01*
X169585337Y-81365427D01*
X169524014Y-81398911D01*
X169521848Y-81399362D01*
X169366508Y-81430261D01*
X169366498Y-81430264D01*
X169220827Y-81490602D01*
X169220814Y-81490609D01*
X169089711Y-81578210D01*
X169089707Y-81578213D01*
X169077681Y-81590240D01*
X169016358Y-81623725D01*
X168946666Y-81618741D01*
X168902319Y-81590240D01*
X168890292Y-81578213D01*
X168890288Y-81578210D01*
X168759185Y-81490609D01*
X168759172Y-81490602D01*
X168613501Y-81430264D01*
X168613489Y-81430261D01*
X168458845Y-81399500D01*
X168458842Y-81399500D01*
X168301158Y-81399500D01*
X168301155Y-81399500D01*
X168146510Y-81430261D01*
X168146498Y-81430264D01*
X168000827Y-81490602D01*
X168000814Y-81490609D01*
X167869711Y-81578210D01*
X167869707Y-81578213D01*
X167758213Y-81689707D01*
X167758210Y-81689711D01*
X167670609Y-81820814D01*
X167670602Y-81820827D01*
X167610264Y-81966498D01*
X167610261Y-81966510D01*
X167579500Y-82121153D01*
X167579500Y-82278846D01*
X167610261Y-82433489D01*
X167610264Y-82433501D01*
X167670602Y-82579172D01*
X167670609Y-82579185D01*
X167758210Y-82710288D01*
X167758213Y-82710292D01*
X167869707Y-82821786D01*
X167869711Y-82821789D01*
X168000814Y-82909390D01*
X168000827Y-82909397D01*
X168146498Y-82969735D01*
X168146503Y-82969737D01*
X168211147Y-82982595D01*
X168301849Y-83000638D01*
X168318605Y-83009402D01*
X168337085Y-83013423D01*
X168362123Y-83032167D01*
X168363760Y-83033023D01*
X168365339Y-83034574D01*
X168495139Y-83164374D01*
X168495149Y-83164385D01*
X168499479Y-83168715D01*
X168499480Y-83168716D01*
X168611284Y-83280520D01*
X168682765Y-83321789D01*
X168748215Y-83359577D01*
X168753593Y-83361018D01*
X168765364Y-83367541D01*
X168785166Y-83387592D01*
X168807111Y-83405275D01*
X168809389Y-83412121D01*
X168814459Y-83417254D01*
X168820276Y-83444825D01*
X168829179Y-83471569D01*
X168827394Y-83478560D01*
X168828884Y-83485619D01*
X168818872Y-83511957D01*
X168811903Y-83539269D01*
X168806622Y-83544186D01*
X168804059Y-83550929D01*
X168781394Y-83567675D01*
X168760768Y-83586881D01*
X168752878Y-83588745D01*
X168747865Y-83592450D01*
X168733138Y-83593410D01*
X168705258Y-83600000D01*
X152124500Y-83600000D01*
X152057461Y-83580315D01*
X152011706Y-83527511D01*
X152000500Y-83476000D01*
X152000500Y-80849097D01*
X152020185Y-80782058D01*
X152072989Y-80736303D01*
X152142147Y-80726359D01*
X152205703Y-80755384D01*
X152212181Y-80761416D01*
X153565425Y-82114660D01*
X153598910Y-82175983D01*
X153599361Y-82178149D01*
X153630261Y-82333491D01*
X153630264Y-82333501D01*
X153690602Y-82479172D01*
X153690609Y-82479185D01*
X153778210Y-82610288D01*
X153778213Y-82610292D01*
X153889707Y-82721786D01*
X153889711Y-82721789D01*
X154020814Y-82809390D01*
X154020827Y-82809397D01*
X154166498Y-82869735D01*
X154166503Y-82869737D01*
X154321153Y-82900499D01*
X154321156Y-82900500D01*
X154321158Y-82900500D01*
X154478844Y-82900500D01*
X154478845Y-82900499D01*
X154633497Y-82869737D01*
X154779179Y-82809394D01*
X154910289Y-82721789D01*
X155021789Y-82610289D01*
X155109394Y-82479179D01*
X155169737Y-82333497D01*
X155200500Y-82178842D01*
X155200500Y-82021158D01*
X155200500Y-82021155D01*
X155200499Y-82021153D01*
X155189627Y-81966498D01*
X155169737Y-81866503D01*
X155150812Y-81820814D01*
X155109397Y-81720827D01*
X155109390Y-81720814D01*
X155021789Y-81589711D01*
X155021786Y-81589707D01*
X154910292Y-81478213D01*
X154910288Y-81478210D01*
X154779185Y-81390609D01*
X154779172Y-81390602D01*
X154633501Y-81330264D01*
X154633491Y-81330261D01*
X154478149Y-81299361D01*
X154416238Y-81266976D01*
X154414660Y-81265425D01*
X153036819Y-79887584D01*
X153003334Y-79826261D01*
X153000500Y-79799903D01*
X153000500Y-75619808D01*
X153020185Y-75552769D01*
X153072989Y-75507014D01*
X153142147Y-75497070D01*
X153205703Y-75526095D01*
X153212181Y-75532127D01*
X154182984Y-76502930D01*
X154216469Y-76564253D01*
X154216920Y-76566420D01*
X154230261Y-76633489D01*
X154230264Y-76633501D01*
X154290602Y-76779172D01*
X154290609Y-76779185D01*
X154378210Y-76910288D01*
X154378213Y-76910292D01*
X154489707Y-77021786D01*
X154489711Y-77021789D01*
X154620814Y-77109390D01*
X154620827Y-77109397D01*
X154766498Y-77169735D01*
X154766503Y-77169737D01*
X154921153Y-77200499D01*
X154921156Y-77200500D01*
X154921158Y-77200500D01*
X155078844Y-77200500D01*
X155078845Y-77200499D01*
X155233497Y-77169737D01*
X155379179Y-77109394D01*
X155510289Y-77021789D01*
X155621789Y-76910289D01*
X155709394Y-76779179D01*
X155769737Y-76633497D01*
X155800500Y-76478842D01*
X155800500Y-76321158D01*
X155800500Y-76321155D01*
X155800499Y-76321153D01*
X155791957Y-76278209D01*
X155769737Y-76166503D01*
X155757812Y-76137714D01*
X155709397Y-76020827D01*
X155709390Y-76020814D01*
X155621789Y-75889711D01*
X155621786Y-75889707D01*
X155510292Y-75778213D01*
X155510288Y-75778210D01*
X155379185Y-75690609D01*
X155379172Y-75690602D01*
X155233501Y-75630264D01*
X155233489Y-75630261D01*
X155166420Y-75616920D01*
X155104509Y-75584535D01*
X155102930Y-75582984D01*
X153986819Y-74466873D01*
X153953334Y-74405550D01*
X153950500Y-74379192D01*
X153950500Y-73724000D01*
X153970185Y-73656961D01*
X154022989Y-73611206D01*
X154074500Y-73600000D01*
X154320000Y-73600000D01*
X154320000Y-70600000D01*
X154820000Y-70600000D01*
X154820000Y-73600000D01*
X155117828Y-73600000D01*
X155117841Y-73599999D01*
X155152729Y-73596248D01*
X155172450Y-73599805D01*
X155192443Y-73598392D01*
X155206133Y-73605881D01*
X155221489Y-73608652D01*
X155236156Y-73622307D01*
X155253739Y-73631927D01*
X155265647Y-73649763D01*
X155272627Y-73656262D01*
X155274867Y-73660199D01*
X155279689Y-73669048D01*
X155280423Y-73671785D01*
X155293170Y-73693863D01*
X155293938Y-73695194D01*
X155293951Y-73695217D01*
X155359475Y-73808709D01*
X155359481Y-73808717D01*
X155478349Y-73927585D01*
X155478355Y-73927590D01*
X157974011Y-76423246D01*
X157974021Y-76423257D01*
X157978351Y-76427587D01*
X157978352Y-76427588D01*
X158090156Y-76539392D01*
X158141717Y-76569160D01*
X158176967Y-76589511D01*
X158176968Y-76589512D01*
X158204762Y-76605559D01*
X158230439Y-76625261D01*
X158265294Y-76660116D01*
X158285840Y-76680662D01*
X158416942Y-76768262D01*
X158416955Y-76768269D01*
X158562626Y-76828607D01*
X158562631Y-76828609D01*
X158717281Y-76859371D01*
X158717284Y-76859372D01*
X158717286Y-76859372D01*
X158874972Y-76859372D01*
X158874973Y-76859371D01*
X159029625Y-76828609D01*
X159148946Y-76779185D01*
X159175300Y-76768269D01*
X159175300Y-76768268D01*
X159175307Y-76768266D01*
X159306417Y-76680661D01*
X159417917Y-76569161D01*
X159505522Y-76438051D01*
X159565865Y-76292369D01*
X159596628Y-76137714D01*
X159596628Y-76028069D01*
X159616313Y-75961030D01*
X159669117Y-75915275D01*
X159738275Y-75905331D01*
X159801831Y-75934356D01*
X159808309Y-75940388D01*
X159815442Y-75947521D01*
X159815446Y-75947524D01*
X159946549Y-76035125D01*
X159946562Y-76035132D01*
X160041271Y-76074361D01*
X160092238Y-76095472D01*
X160246888Y-76126234D01*
X160246891Y-76126235D01*
X160246893Y-76126235D01*
X160404579Y-76126235D01*
X160404580Y-76126234D01*
X160559232Y-76095472D01*
X160704914Y-76035129D01*
X160836024Y-75947524D01*
X160947524Y-75836024D01*
X161035129Y-75704914D01*
X161095472Y-75559232D01*
X161112643Y-75472907D01*
X161127424Y-75398603D01*
X161128733Y-75398863D01*
X161129175Y-75397486D01*
X161128841Y-75390459D01*
X161141959Y-75357693D01*
X161146705Y-75349474D01*
X161199302Y-75258372D01*
X161219577Y-75223255D01*
X161260500Y-75070527D01*
X161260500Y-74912413D01*
X161260500Y-73940098D01*
X161269144Y-73910657D01*
X161275668Y-73880671D01*
X161279422Y-73875655D01*
X161280185Y-73873059D01*
X161296819Y-73852417D01*
X161377819Y-73771417D01*
X161439142Y-73737932D01*
X161508834Y-73742916D01*
X161564767Y-73784788D01*
X161589184Y-73850252D01*
X161589500Y-73859098D01*
X161589500Y-75403330D01*
X161589499Y-75403348D01*
X161589499Y-75569054D01*
X161589498Y-75569054D01*
X161630423Y-75721786D01*
X161630424Y-75721787D01*
X161632629Y-75725606D01*
X161633509Y-75729236D01*
X161633534Y-75729295D01*
X161633524Y-75729298D01*
X161649102Y-75793506D01*
X161628345Y-75856495D01*
X161590611Y-75912969D01*
X161590602Y-75912985D01*
X161530264Y-76058655D01*
X161530261Y-76058667D01*
X161499500Y-76213310D01*
X161499500Y-76371003D01*
X161530261Y-76525646D01*
X161530264Y-76525658D01*
X161590602Y-76671329D01*
X161590609Y-76671342D01*
X161678210Y-76802445D01*
X161678213Y-76802449D01*
X161789707Y-76913943D01*
X161789711Y-76913946D01*
X161920814Y-77001547D01*
X161920827Y-77001554D01*
X162066498Y-77061892D01*
X162066503Y-77061894D01*
X162221153Y-77092656D01*
X162221156Y-77092657D01*
X162221158Y-77092657D01*
X162378844Y-77092657D01*
X162378845Y-77092656D01*
X162533497Y-77061894D01*
X162679179Y-77001551D01*
X162810289Y-76913946D01*
X162921789Y-76802446D01*
X163009394Y-76671336D01*
X163014042Y-76660116D01*
X163033258Y-76613722D01*
X163069737Y-76525654D01*
X163100500Y-76370999D01*
X163100500Y-76213315D01*
X163100500Y-76213312D01*
X163100499Y-76213310D01*
X163083979Y-76130261D01*
X163069737Y-76058660D01*
X163069735Y-76058655D01*
X163009397Y-75912984D01*
X163009390Y-75912971D01*
X162921398Y-75781282D01*
X162916117Y-75765075D01*
X162907050Y-75752158D01*
X162902081Y-75721993D01*
X162900604Y-75717458D01*
X162900500Y-75714914D01*
X162900500Y-75520943D01*
X162894699Y-75499295D01*
X162877035Y-75433371D01*
X162859577Y-75368216D01*
X162807112Y-75277343D01*
X162790500Y-75215344D01*
X162790500Y-73682790D01*
X162810185Y-73615751D01*
X162862989Y-73569996D01*
X162871146Y-73566616D01*
X162932331Y-73543796D01*
X163047546Y-73457546D01*
X163133796Y-73342331D01*
X163184091Y-73207483D01*
X163190500Y-73147873D01*
X163190499Y-71052128D01*
X163184091Y-70992517D01*
X163177557Y-70974999D01*
X163133797Y-70857671D01*
X163133793Y-70857664D01*
X163047547Y-70742455D01*
X163047544Y-70742452D01*
X162932335Y-70656206D01*
X162932328Y-70656202D01*
X162797482Y-70605908D01*
X162797483Y-70605908D01*
X162737883Y-70599501D01*
X162737881Y-70599500D01*
X162737873Y-70599500D01*
X162737864Y-70599500D01*
X161642129Y-70599500D01*
X161642123Y-70599501D01*
X161574804Y-70606738D01*
X161574690Y-70605674D01*
X161535310Y-70605674D01*
X161535196Y-70606738D01*
X161467883Y-70599501D01*
X161467881Y-70599500D01*
X161467873Y-70599500D01*
X161467864Y-70599500D01*
X160372129Y-70599500D01*
X160372123Y-70599501D01*
X160304804Y-70606738D01*
X160304690Y-70605674D01*
X160265310Y-70605674D01*
X160265196Y-70606738D01*
X160197883Y-70599501D01*
X160197881Y-70599500D01*
X160197873Y-70599500D01*
X160197864Y-70599500D01*
X159102129Y-70599500D01*
X159102123Y-70599501D01*
X159034804Y-70606738D01*
X159034690Y-70605674D01*
X158995310Y-70605674D01*
X158995196Y-70606738D01*
X158927883Y-70599501D01*
X158927881Y-70599500D01*
X158927873Y-70599500D01*
X158927865Y-70599500D01*
X158124500Y-70599500D01*
X158057461Y-70579815D01*
X158011706Y-70527011D01*
X158000500Y-70475500D01*
X158000500Y-70274986D01*
X166375001Y-70274986D01*
X166385494Y-70377697D01*
X166440641Y-70544119D01*
X166440643Y-70544124D01*
X166532684Y-70693345D01*
X166656654Y-70817315D01*
X166805875Y-70909356D01*
X166805880Y-70909358D01*
X166972302Y-70964505D01*
X166972309Y-70964506D01*
X167075019Y-70974999D01*
X167187499Y-70974999D01*
X167187500Y-70974998D01*
X167187500Y-69850000D01*
X166375001Y-69850000D01*
X166375001Y-70274986D01*
X158000500Y-70274986D01*
X158000500Y-69624837D01*
X158020185Y-69557798D01*
X158072989Y-69512043D01*
X158076986Y-69510302D01*
X158079179Y-69509394D01*
X158210289Y-69421789D01*
X158321789Y-69310289D01*
X158409394Y-69179179D01*
X158469737Y-69033497D01*
X158500500Y-68878842D01*
X158500500Y-68721158D01*
X158500500Y-68721155D01*
X158500499Y-68721153D01*
X158469738Y-68566510D01*
X158469737Y-68566503D01*
X158444947Y-68506654D01*
X158409397Y-68420827D01*
X158409390Y-68420814D01*
X158321789Y-68289711D01*
X158321786Y-68289707D01*
X158210292Y-68178213D01*
X158210288Y-68178210D01*
X158079185Y-68090609D01*
X158079172Y-68090602D01*
X157933501Y-68030264D01*
X157933489Y-68030261D01*
X157778845Y-67999500D01*
X157778842Y-67999500D01*
X157621158Y-67999500D01*
X157621155Y-67999500D01*
X157466510Y-68030261D01*
X157466498Y-68030264D01*
X157320827Y-68090602D01*
X157320814Y-68090609D01*
X157189711Y-68178210D01*
X157189707Y-68178213D01*
X157078213Y-68289707D01*
X157078210Y-68289711D01*
X156990609Y-68420814D01*
X156990602Y-68420827D01*
X156930264Y-68566498D01*
X156930261Y-68566510D01*
X156899500Y-68721153D01*
X156899500Y-68732664D01*
X156895350Y-68748152D01*
X156896005Y-68761895D01*
X156882889Y-68794661D01*
X156869362Y-68818092D01*
X156869359Y-68818096D01*
X156840425Y-68868209D01*
X156840424Y-68868210D01*
X156825209Y-68924992D01*
X156799499Y-69020943D01*
X156799499Y-69020945D01*
X156799499Y-69189046D01*
X156799500Y-69189059D01*
X156799500Y-70399901D01*
X156790855Y-70429341D01*
X156784332Y-70459328D01*
X156780577Y-70464343D01*
X156779815Y-70466940D01*
X156763181Y-70487582D01*
X156741284Y-70509479D01*
X156741283Y-70509481D01*
X156687579Y-70563183D01*
X156626255Y-70596667D01*
X156599902Y-70599500D01*
X156562131Y-70599500D01*
X156562123Y-70599501D01*
X156494804Y-70606738D01*
X156494690Y-70605674D01*
X156455310Y-70605674D01*
X156455196Y-70606738D01*
X156387883Y-70599501D01*
X156387881Y-70599500D01*
X156387873Y-70599500D01*
X156387864Y-70599500D01*
X155292129Y-70599500D01*
X155292125Y-70599501D01*
X155232510Y-70605909D01*
X155232412Y-70605933D01*
X155232294Y-70605933D01*
X155224806Y-70606738D01*
X155224719Y-70605933D01*
X155185226Y-70605935D01*
X155185087Y-70607231D01*
X155117844Y-70600000D01*
X154820000Y-70600000D01*
X154320000Y-70600000D01*
X154320000Y-70586017D01*
X154303334Y-70555496D01*
X154300500Y-70529138D01*
X154300500Y-70449499D01*
X154320185Y-70382460D01*
X154372989Y-70336705D01*
X154424500Y-70325499D01*
X155275002Y-70325499D01*
X155275008Y-70325499D01*
X155377797Y-70314999D01*
X155544334Y-70259814D01*
X155693656Y-70167712D01*
X155817712Y-70043656D01*
X155909814Y-69894334D01*
X155964999Y-69727797D01*
X155975500Y-69625009D01*
X155975499Y-68899992D01*
X155972252Y-68868210D01*
X155964999Y-68797203D01*
X155964998Y-68797200D01*
X155953299Y-68761895D01*
X155909814Y-68630666D01*
X155817712Y-68481344D01*
X155693656Y-68357288D01*
X155544334Y-68265186D01*
X155377797Y-68210001D01*
X155377795Y-68210000D01*
X155275010Y-68199500D01*
X153924998Y-68199500D01*
X153924981Y-68199501D01*
X153822203Y-68210000D01*
X153822200Y-68210001D01*
X153684275Y-68255706D01*
X153645271Y-68262000D01*
X153338954Y-68262000D01*
X153148691Y-68299846D01*
X153079100Y-68293619D01*
X153023922Y-68250756D01*
X153000678Y-68184866D01*
X153000500Y-68178229D01*
X153000500Y-66861956D01*
X153020185Y-66794917D01*
X153072989Y-66749162D01*
X153142147Y-66739218D01*
X153205703Y-66768243D01*
X153242206Y-66822952D01*
X153290641Y-66969119D01*
X153290643Y-66969124D01*
X153382684Y-67118345D01*
X153506654Y-67242315D01*
X153655875Y-67334356D01*
X153655880Y-67334358D01*
X153822302Y-67389505D01*
X153822309Y-67389506D01*
X153925019Y-67399999D01*
X154349999Y-67399999D01*
X154850000Y-67399999D01*
X155274972Y-67399999D01*
X155274986Y-67399998D01*
X155377697Y-67389505D01*
X155544119Y-67334358D01*
X155544124Y-67334356D01*
X155693345Y-67242315D01*
X155817315Y-67118345D01*
X155909356Y-66969124D01*
X155909358Y-66969119D01*
X155964505Y-66802697D01*
X155964506Y-66802690D01*
X155974999Y-66699986D01*
X155975000Y-66699973D01*
X155975000Y-66587500D01*
X154850000Y-66587500D01*
X154850000Y-67399999D01*
X154349999Y-67399999D01*
X154350000Y-67399998D01*
X154350000Y-66461500D01*
X154369685Y-66394461D01*
X154422489Y-66348706D01*
X154474000Y-66337500D01*
X154600000Y-66337500D01*
X154600000Y-66211500D01*
X154619685Y-66144461D01*
X154672489Y-66098706D01*
X154724000Y-66087500D01*
X155974999Y-66087500D01*
X155974999Y-65975028D01*
X155974998Y-65975013D01*
X155964505Y-65872301D01*
X155951949Y-65834410D01*
X155949546Y-65764581D01*
X155985276Y-65704539D01*
X156037556Y-65675630D01*
X156097469Y-65659577D01*
X156234401Y-65580520D01*
X156878102Y-64936819D01*
X156939425Y-64903334D01*
X156965783Y-64900500D01*
X158579016Y-64900500D01*
X158579032Y-64900501D01*
X158586628Y-64900501D01*
X158744739Y-64900501D01*
X158744742Y-64900501D01*
X158897470Y-64859577D01*
X158948243Y-64830263D01*
X159034401Y-64780520D01*
X159146205Y-64668716D01*
X159146205Y-64668714D01*
X159156409Y-64658511D01*
X159156412Y-64658506D01*
X161587820Y-62227098D01*
X161607255Y-62216487D01*
X161623989Y-62201987D01*
X161637320Y-62200070D01*
X161649142Y-62193615D01*
X161671228Y-62195194D01*
X161693147Y-62192043D01*
X161705398Y-62197638D01*
G37*
%TD.AperFunction*%
%TA.AperFunction,Conductor*%
G36*
X162242198Y-51188463D02*
G01*
X162266178Y-51188463D01*
X162357606Y-51200500D01*
X162357613Y-51200500D01*
X162642387Y-51200500D01*
X162642394Y-51200500D01*
X162733822Y-51188463D01*
X162766178Y-51188463D01*
X162857606Y-51200500D01*
X162857613Y-51200500D01*
X163142387Y-51200500D01*
X163142394Y-51200500D01*
X163233822Y-51188463D01*
X163266178Y-51188463D01*
X163357606Y-51200500D01*
X163357613Y-51200500D01*
X163642387Y-51200500D01*
X163642394Y-51200500D01*
X163733822Y-51188463D01*
X163766178Y-51188463D01*
X163857606Y-51200500D01*
X163857613Y-51200500D01*
X164142387Y-51200500D01*
X164142394Y-51200500D01*
X164233822Y-51188463D01*
X164266178Y-51188463D01*
X164357606Y-51200500D01*
X164357613Y-51200500D01*
X164642387Y-51200500D01*
X164642394Y-51200500D01*
X164733822Y-51188463D01*
X164766178Y-51188463D01*
X164857606Y-51200500D01*
X164857613Y-51200500D01*
X165142387Y-51200500D01*
X165142394Y-51200500D01*
X165233822Y-51188463D01*
X165266178Y-51188463D01*
X165357606Y-51200500D01*
X165357613Y-51200500D01*
X165642387Y-51200500D01*
X165642394Y-51200500D01*
X165733822Y-51188463D01*
X165766178Y-51188463D01*
X165857606Y-51200500D01*
X165857613Y-51200500D01*
X166142387Y-51200500D01*
X166142394Y-51200500D01*
X166233822Y-51188463D01*
X166266178Y-51188463D01*
X166357606Y-51200500D01*
X166357613Y-51200500D01*
X166642387Y-51200500D01*
X166642394Y-51200500D01*
X166733822Y-51188463D01*
X166766178Y-51188463D01*
X166857606Y-51200500D01*
X166857613Y-51200500D01*
X167142387Y-51200500D01*
X167142394Y-51200500D01*
X167233822Y-51188463D01*
X167266178Y-51188463D01*
X167357606Y-51200500D01*
X167357613Y-51200500D01*
X167642387Y-51200500D01*
X167642394Y-51200500D01*
X167733822Y-51188463D01*
X167766178Y-51188463D01*
X167857606Y-51200500D01*
X167857613Y-51200500D01*
X168142387Y-51200500D01*
X168142394Y-51200500D01*
X168233822Y-51188463D01*
X168266178Y-51188463D01*
X168357606Y-51200500D01*
X168357613Y-51200500D01*
X168642387Y-51200500D01*
X168642394Y-51200500D01*
X168733822Y-51188463D01*
X168766178Y-51188463D01*
X168857606Y-51200500D01*
X168857613Y-51200500D01*
X169142387Y-51200500D01*
X169142394Y-51200500D01*
X169233822Y-51188463D01*
X169266178Y-51188463D01*
X169357606Y-51200500D01*
X169357613Y-51200500D01*
X169642387Y-51200500D01*
X169642394Y-51200500D01*
X169733822Y-51188463D01*
X169766178Y-51188463D01*
X169857606Y-51200500D01*
X169857613Y-51200500D01*
X170142387Y-51200500D01*
X170142394Y-51200500D01*
X170233822Y-51188463D01*
X170266178Y-51188463D01*
X170357606Y-51200500D01*
X170357613Y-51200500D01*
X170642387Y-51200500D01*
X170642394Y-51200500D01*
X170733822Y-51188463D01*
X170766178Y-51188463D01*
X170857606Y-51200500D01*
X170857613Y-51200500D01*
X171142387Y-51200500D01*
X171142394Y-51200500D01*
X171233822Y-51188463D01*
X171266178Y-51188463D01*
X171357606Y-51200500D01*
X171357613Y-51200500D01*
X171642387Y-51200500D01*
X171642394Y-51200500D01*
X171733822Y-51188463D01*
X171766178Y-51188463D01*
X171857606Y-51200500D01*
X171857613Y-51200500D01*
X172142387Y-51200500D01*
X172142394Y-51200500D01*
X172233822Y-51188463D01*
X172266178Y-51188463D01*
X172357606Y-51200500D01*
X172357613Y-51200500D01*
X172642387Y-51200500D01*
X172642394Y-51200500D01*
X172733822Y-51188463D01*
X172766178Y-51188463D01*
X172857606Y-51200500D01*
X172857613Y-51200500D01*
X173142387Y-51200500D01*
X173142394Y-51200500D01*
X173233822Y-51188463D01*
X173266178Y-51188463D01*
X173357606Y-51200500D01*
X173357613Y-51200500D01*
X173642387Y-51200500D01*
X173642394Y-51200500D01*
X173733822Y-51188463D01*
X173766178Y-51188463D01*
X173857606Y-51200500D01*
X173857613Y-51200500D01*
X174039525Y-51200500D01*
X174106564Y-51220185D01*
X174152319Y-51272989D01*
X174162263Y-51342147D01*
X174151671Y-51374445D01*
X174152557Y-51374812D01*
X174089884Y-51526118D01*
X174089881Y-51526130D01*
X174059120Y-51680773D01*
X174059120Y-51838466D01*
X174089881Y-51993109D01*
X174089884Y-51993121D01*
X174150222Y-52138792D01*
X174150229Y-52138805D01*
X174237830Y-52269908D01*
X174237833Y-52269912D01*
X174349327Y-52381406D01*
X174349331Y-52381409D01*
X174480434Y-52469010D01*
X174480447Y-52469017D01*
X174610027Y-52522690D01*
X174626123Y-52529357D01*
X174780773Y-52560119D01*
X174780776Y-52560120D01*
X174780778Y-52560120D01*
X174938464Y-52560120D01*
X174938465Y-52560119D01*
X175093117Y-52529357D01*
X175211856Y-52480173D01*
X175281325Y-52472705D01*
X175283500Y-52473118D01*
X175421155Y-52500500D01*
X175421158Y-52500500D01*
X175578844Y-52500500D01*
X175578845Y-52500499D01*
X175733497Y-52469737D01*
X175846166Y-52423067D01*
X175879172Y-52409397D01*
X175879172Y-52409396D01*
X175879179Y-52409394D01*
X176001411Y-52327720D01*
X176068088Y-52306843D01*
X176135468Y-52325327D01*
X176165292Y-52351118D01*
X176214836Y-52410163D01*
X176348942Y-52522690D01*
X176348943Y-52522691D01*
X176348945Y-52522692D01*
X176500555Y-52610224D01*
X176665062Y-52670100D01*
X176837466Y-52700500D01*
X176859108Y-52700500D01*
X178052683Y-52700500D01*
X178119722Y-52720185D01*
X178165477Y-52772989D01*
X178175421Y-52842147D01*
X178146396Y-52905703D01*
X178121574Y-52927602D01*
X177989711Y-53015710D01*
X177989707Y-53015713D01*
X177878213Y-53127207D01*
X177878210Y-53127211D01*
X177790609Y-53258314D01*
X177790602Y-53258327D01*
X177730264Y-53403998D01*
X177730261Y-53404010D01*
X177699500Y-53558653D01*
X177699500Y-53716346D01*
X177730261Y-53870989D01*
X177730264Y-53871001D01*
X177790602Y-54016672D01*
X177790609Y-54016685D01*
X177878210Y-54147788D01*
X177878213Y-54147792D01*
X177989707Y-54259286D01*
X177989711Y-54259289D01*
X178120814Y-54346890D01*
X178120827Y-54346897D01*
X178249265Y-54400097D01*
X178266503Y-54407237D01*
X178421153Y-54437999D01*
X178421156Y-54438000D01*
X178421158Y-54438000D01*
X178578844Y-54438000D01*
X178578845Y-54437999D01*
X178733497Y-54407237D01*
X178846166Y-54360567D01*
X178879172Y-54346897D01*
X178879172Y-54346896D01*
X178879179Y-54346894D01*
X179010289Y-54259289D01*
X179121789Y-54147789D01*
X179209394Y-54016679D01*
X179269737Y-53870997D01*
X179300500Y-53716342D01*
X179300500Y-53558658D01*
X179300500Y-53558655D01*
X179300499Y-53558653D01*
X179269738Y-53404010D01*
X179269737Y-53404003D01*
X179269735Y-53403998D01*
X179209397Y-53258327D01*
X179209390Y-53258314D01*
X179121789Y-53127211D01*
X179121786Y-53127207D01*
X179010292Y-53015713D01*
X179010288Y-53015710D01*
X178878426Y-52927602D01*
X178833621Y-52873990D01*
X178824914Y-52804665D01*
X178855069Y-52741637D01*
X178914512Y-52704918D01*
X178947317Y-52700500D01*
X180875500Y-52700500D01*
X180942539Y-52720185D01*
X180988294Y-52772989D01*
X180999500Y-52824500D01*
X180999500Y-70668964D01*
X180979815Y-70736003D01*
X180927011Y-70781758D01*
X180857853Y-70791702D01*
X180794297Y-70762677D01*
X180776234Y-70743276D01*
X180750872Y-70709397D01*
X180747546Y-70704954D01*
X180747544Y-70704953D01*
X180747544Y-70704952D01*
X180632335Y-70618706D01*
X180632328Y-70618702D01*
X180497482Y-70568408D01*
X180497483Y-70568408D01*
X180437883Y-70562001D01*
X180437881Y-70562000D01*
X180437873Y-70562000D01*
X180437864Y-70562000D01*
X179342129Y-70562000D01*
X179342123Y-70562001D01*
X179285492Y-70568089D01*
X179216733Y-70555682D01*
X179184557Y-70532479D01*
X179144557Y-70492478D01*
X179144553Y-70492475D01*
X179013450Y-70404874D01*
X179013437Y-70404867D01*
X178867766Y-70344529D01*
X178867754Y-70344526D01*
X178713110Y-70313765D01*
X178713107Y-70313765D01*
X178555423Y-70313765D01*
X178555420Y-70313765D01*
X178400775Y-70344526D01*
X178400763Y-70344529D01*
X178255092Y-70404867D01*
X178255079Y-70404874D01*
X178123979Y-70492473D01*
X178123973Y-70492478D01*
X178086943Y-70529507D01*
X178025619Y-70562991D01*
X177955928Y-70558005D01*
X177911582Y-70529504D01*
X177860292Y-70478213D01*
X177860288Y-70478210D01*
X177729185Y-70390609D01*
X177729172Y-70390602D01*
X177583501Y-70330264D01*
X177583489Y-70330261D01*
X177428845Y-70299500D01*
X177428842Y-70299500D01*
X177271158Y-70299500D01*
X177271155Y-70299500D01*
X177116510Y-70330261D01*
X177116498Y-70330264D01*
X176970827Y-70390602D01*
X176970814Y-70390609D01*
X176839714Y-70478208D01*
X176835007Y-70482072D01*
X176833515Y-70480255D01*
X176781313Y-70508735D01*
X176711623Y-70503725D01*
X176667319Y-70475240D01*
X176590292Y-70398213D01*
X176590288Y-70398210D01*
X176459185Y-70310609D01*
X176459172Y-70310602D01*
X176313501Y-70250264D01*
X176313489Y-70250261D01*
X176158845Y-70219500D01*
X176158842Y-70219500D01*
X176001158Y-70219500D01*
X176001155Y-70219500D01*
X175846510Y-70250261D01*
X175846498Y-70250264D01*
X175700827Y-70310602D01*
X175700814Y-70310609D01*
X175569711Y-70398210D01*
X175569707Y-70398213D01*
X175458217Y-70509704D01*
X175454353Y-70514413D01*
X175452714Y-70513068D01*
X175406450Y-70551710D01*
X175356993Y-70562000D01*
X174262129Y-70562000D01*
X174262115Y-70562001D01*
X174250901Y-70563207D01*
X174182142Y-70550799D01*
X174134548Y-70508806D01*
X174121790Y-70489712D01*
X174121786Y-70489707D01*
X174010292Y-70378213D01*
X174010288Y-70378210D01*
X173879185Y-70290609D01*
X173879172Y-70290602D01*
X173733501Y-70230264D01*
X173733489Y-70230261D01*
X173578845Y-70199500D01*
X173578842Y-70199500D01*
X173421158Y-70199500D01*
X173421155Y-70199500D01*
X173266510Y-70230261D01*
X173266498Y-70230264D01*
X173120827Y-70290602D01*
X173120814Y-70290609D01*
X172989711Y-70378210D01*
X172989707Y-70378213D01*
X172878210Y-70489710D01*
X172798163Y-70609511D01*
X172769373Y-70639885D01*
X172730530Y-70668964D01*
X172682456Y-70704952D01*
X172682451Y-70704957D01*
X172596206Y-70820164D01*
X172596202Y-70820171D01*
X172545908Y-70955017D01*
X172539501Y-71014616D01*
X172539500Y-71014635D01*
X172539500Y-73110370D01*
X172539501Y-73110376D01*
X172545908Y-73169983D01*
X172596202Y-73304828D01*
X172596206Y-73304835D01*
X172682452Y-73420044D01*
X172682455Y-73420047D01*
X172797664Y-73506293D01*
X172797671Y-73506297D01*
X172932517Y-73556591D01*
X172932516Y-73556591D01*
X172939444Y-73557335D01*
X172992127Y-73563000D01*
X174087872Y-73562999D01*
X174135759Y-73557851D01*
X174155197Y-73555762D01*
X174155311Y-73556830D01*
X174194688Y-73556829D01*
X174194803Y-73555761D01*
X174202514Y-73556589D01*
X174202517Y-73556591D01*
X174262127Y-73563000D01*
X174630903Y-73562999D01*
X174697941Y-73582683D01*
X174743696Y-73635487D01*
X174753640Y-73704646D01*
X174724615Y-73768201D01*
X174718583Y-73774680D01*
X172130084Y-76363181D01*
X172068761Y-76396666D01*
X172042403Y-76399500D01*
X169582940Y-76399500D01*
X169515901Y-76379815D01*
X169495263Y-76363185D01*
X169410289Y-76278211D01*
X169410288Y-76278210D01*
X169410287Y-76278209D01*
X169279185Y-76190609D01*
X169279172Y-76190602D01*
X169133501Y-76130264D01*
X169133491Y-76130261D01*
X169015274Y-76106746D01*
X168953363Y-76074361D01*
X168918789Y-76013645D01*
X168922529Y-75943875D01*
X168951783Y-75897450D01*
X169458506Y-75390728D01*
X169458511Y-75390724D01*
X169468714Y-75380520D01*
X169468716Y-75380520D01*
X169580520Y-75268716D01*
X169652026Y-75144863D01*
X169659577Y-75131785D01*
X169700501Y-74979057D01*
X169700501Y-74820943D01*
X169700501Y-74813348D01*
X169700500Y-74813330D01*
X169700500Y-71071538D01*
X169708141Y-71045515D01*
X169712315Y-71018713D01*
X169717839Y-71012485D01*
X169720185Y-71004499D01*
X169740680Y-70986739D01*
X169758683Y-70966447D01*
X169766698Y-70964194D01*
X169772989Y-70958744D01*
X169799832Y-70954884D01*
X169825948Y-70947546D01*
X169837462Y-70949473D01*
X169842147Y-70948800D01*
X169860822Y-70952977D01*
X169862160Y-70953387D01*
X169897203Y-70964999D01*
X169901495Y-70965437D01*
X169911822Y-70968601D01*
X169936693Y-70984998D01*
X169962884Y-70999185D01*
X169965545Y-71004019D01*
X169970155Y-71007059D01*
X169982215Y-71034304D01*
X169996576Y-71060394D01*
X169997497Y-71068828D01*
X169998436Y-71070949D01*
X169998020Y-71073617D01*
X169999500Y-71087162D01*
X169999500Y-73110370D01*
X169999501Y-73110376D01*
X170005908Y-73169983D01*
X170056202Y-73304828D01*
X170056206Y-73304835D01*
X170142452Y-73420044D01*
X170142455Y-73420047D01*
X170257664Y-73506293D01*
X170257671Y-73506297D01*
X170392517Y-73556591D01*
X170392516Y-73556591D01*
X170399444Y-73557335D01*
X170452127Y-73563000D01*
X171547872Y-73562999D01*
X171607483Y-73556591D01*
X171742331Y-73506296D01*
X171857546Y-73420046D01*
X171943796Y-73304831D01*
X171994091Y-73169983D01*
X172000500Y-73110373D01*
X172000500Y-72101557D01*
X172000500Y-70866259D01*
X172020185Y-70799220D01*
X172072989Y-70753465D01*
X172077048Y-70751698D01*
X172179172Y-70709397D01*
X172179172Y-70709396D01*
X172179179Y-70709394D01*
X172310289Y-70621789D01*
X172421789Y-70510289D01*
X172509394Y-70379179D01*
X172569737Y-70233497D01*
X172600500Y-70078842D01*
X172600500Y-69921158D01*
X172600500Y-69921155D01*
X172600499Y-69921153D01*
X172569738Y-69766510D01*
X172569737Y-69766503D01*
X172552132Y-69724000D01*
X172509397Y-69620827D01*
X172509390Y-69620814D01*
X172421789Y-69489711D01*
X172421786Y-69489707D01*
X172310292Y-69378213D01*
X172310288Y-69378210D01*
X172179185Y-69290609D01*
X172179172Y-69290602D01*
X172033501Y-69230264D01*
X172033489Y-69230261D01*
X171878845Y-69199500D01*
X171878842Y-69199500D01*
X171721158Y-69199500D01*
X171721153Y-69199500D01*
X171573690Y-69228832D01*
X171504098Y-69222605D01*
X171448921Y-69179741D01*
X171425677Y-69113852D01*
X171425499Y-69107215D01*
X171425499Y-68999500D01*
X171445184Y-68932461D01*
X171497988Y-68886706D01*
X171549499Y-68875500D01*
X172838331Y-68875500D01*
X172838347Y-68875501D01*
X172845943Y-68875501D01*
X173004054Y-68875501D01*
X173004057Y-68875501D01*
X173156785Y-68834577D01*
X173236443Y-68788586D01*
X173293716Y-68755520D01*
X173405520Y-68643716D01*
X173405520Y-68643714D01*
X173415724Y-68633511D01*
X173415727Y-68633506D01*
X174680429Y-67368805D01*
X174741750Y-67335322D01*
X174811442Y-67340306D01*
X174836999Y-67353386D01*
X174920814Y-67409390D01*
X174920827Y-67409397D01*
X175066498Y-67469735D01*
X175066503Y-67469737D01*
X175221153Y-67500499D01*
X175221156Y-67500500D01*
X175221158Y-67500500D01*
X175378844Y-67500500D01*
X175378845Y-67500499D01*
X175533497Y-67469737D01*
X175679179Y-67409394D01*
X175810289Y-67321789D01*
X175921789Y-67210289D01*
X176009394Y-67079179D01*
X176069737Y-66933497D01*
X176100500Y-66778842D01*
X176100500Y-66621158D01*
X176100500Y-66621155D01*
X176100499Y-66621153D01*
X176093805Y-66587500D01*
X176069737Y-66466503D01*
X176047604Y-66413068D01*
X176009397Y-66320827D01*
X176009390Y-66320814D01*
X175921789Y-66189711D01*
X175921786Y-66189707D01*
X175810292Y-66078213D01*
X175810288Y-66078210D01*
X175679185Y-65990609D01*
X175679176Y-65990604D01*
X175566300Y-65943850D01*
X175511897Y-65900009D01*
X175489832Y-65833715D01*
X175507111Y-65766016D01*
X175558248Y-65718405D01*
X175566292Y-65714731D01*
X175579179Y-65709394D01*
X175710289Y-65621789D01*
X175821789Y-65510289D01*
X175909394Y-65379179D01*
X175969737Y-65233497D01*
X176000500Y-65078842D01*
X176000500Y-64921158D01*
X176000500Y-64921155D01*
X176000499Y-64921153D01*
X175988250Y-64859575D01*
X175969737Y-64766503D01*
X175963275Y-64750902D01*
X175909397Y-64620827D01*
X175909390Y-64620814D01*
X175821789Y-64489711D01*
X175821786Y-64489707D01*
X175710292Y-64378213D01*
X175710288Y-64378210D01*
X175579185Y-64290609D01*
X175579172Y-64290602D01*
X175433501Y-64230264D01*
X175433489Y-64230261D01*
X175348820Y-64213419D01*
X175286909Y-64181034D01*
X175258450Y-64139254D01*
X175209397Y-64020826D01*
X175209390Y-64020814D01*
X175121789Y-63889711D01*
X175121786Y-63889707D01*
X175010292Y-63778213D01*
X175010288Y-63778210D01*
X174879185Y-63690609D01*
X174879172Y-63690602D01*
X174733501Y-63630264D01*
X174733489Y-63630261D01*
X174578845Y-63599500D01*
X174578842Y-63599500D01*
X174421158Y-63599500D01*
X174421155Y-63599500D01*
X174266510Y-63630261D01*
X174266498Y-63630264D01*
X174120827Y-63690602D01*
X174120814Y-63690609D01*
X173989125Y-63778602D01*
X173922447Y-63799480D01*
X173920234Y-63799500D01*
X172356195Y-63799500D01*
X172315931Y-63810288D01*
X172315932Y-63810289D01*
X172203468Y-63840423D01*
X172203463Y-63840426D01*
X172066544Y-63919475D01*
X172066536Y-63919481D01*
X169698134Y-66287884D01*
X169636811Y-66321369D01*
X169634645Y-66321820D01*
X169479303Y-66352720D01*
X169479293Y-66352723D01*
X169333622Y-66413061D01*
X169333609Y-66413068D01*
X169202506Y-66500669D01*
X169202502Y-66500672D01*
X169091008Y-66612166D01*
X169091005Y-66612170D01*
X169003404Y-66743273D01*
X169003399Y-66743283D01*
X168983362Y-66791657D01*
X168939520Y-66846061D01*
X168873226Y-66868125D01*
X168805527Y-66850845D01*
X168781120Y-66831885D01*
X167736819Y-65787584D01*
X167703334Y-65726261D01*
X167700500Y-65699903D01*
X167700500Y-65279765D01*
X167720185Y-65212726D01*
X167721398Y-65210874D01*
X167809390Y-65079185D01*
X167809390Y-65079184D01*
X167809394Y-65079179D01*
X167869737Y-64933497D01*
X167900500Y-64778842D01*
X167900500Y-64621158D01*
X167900500Y-64621155D01*
X167900499Y-64621153D01*
X167884441Y-64540426D01*
X167869737Y-64466503D01*
X167869735Y-64466498D01*
X167809397Y-64320827D01*
X167809390Y-64320814D01*
X167721789Y-64189711D01*
X167721786Y-64189707D01*
X167610292Y-64078213D01*
X167610288Y-64078210D01*
X167479185Y-63990609D01*
X167479172Y-63990602D01*
X167333501Y-63930264D01*
X167333489Y-63930261D01*
X167178845Y-63899500D01*
X167178842Y-63899500D01*
X167021158Y-63899500D01*
X167021155Y-63899500D01*
X166866510Y-63930261D01*
X166866498Y-63930264D01*
X166720827Y-63990602D01*
X166720814Y-63990609D01*
X166589711Y-64078210D01*
X166589707Y-64078213D01*
X166478213Y-64189707D01*
X166478210Y-64189711D01*
X166390609Y-64320814D01*
X166390602Y-64320827D01*
X166330264Y-64466498D01*
X166330261Y-64466510D01*
X166299500Y-64621153D01*
X166298903Y-64627218D01*
X166296449Y-64626976D01*
X166279815Y-64683628D01*
X166227011Y-64729383D01*
X166157853Y-64739327D01*
X166094297Y-64710302D01*
X166087819Y-64704270D01*
X164604702Y-63221153D01*
X168899500Y-63221153D01*
X168899500Y-63378846D01*
X168930261Y-63533489D01*
X168930264Y-63533501D01*
X168990602Y-63679172D01*
X168990609Y-63679185D01*
X169078210Y-63810288D01*
X169078213Y-63810292D01*
X169189707Y-63921786D01*
X169189711Y-63921789D01*
X169320814Y-64009390D01*
X169320827Y-64009397D01*
X169373673Y-64031286D01*
X169466503Y-64069737D01*
X169616131Y-64099500D01*
X169621153Y-64100499D01*
X169621156Y-64100500D01*
X169621158Y-64100500D01*
X169778844Y-64100500D01*
X169778845Y-64100499D01*
X169933497Y-64069737D01*
X170051592Y-64020821D01*
X170079172Y-64009397D01*
X170079172Y-64009396D01*
X170079179Y-64009394D01*
X170210289Y-63921789D01*
X170321789Y-63810289D01*
X170409394Y-63679179D01*
X170469737Y-63533497D01*
X170500500Y-63378842D01*
X170500500Y-63221158D01*
X170500500Y-63221155D01*
X170500499Y-63221153D01*
X170480171Y-63118957D01*
X170469737Y-63066503D01*
X170446082Y-63009394D01*
X170409397Y-62920827D01*
X170409390Y-62920814D01*
X170321789Y-62789711D01*
X170321786Y-62789707D01*
X170210292Y-62678213D01*
X170210288Y-62678210D01*
X170079185Y-62590609D01*
X170079172Y-62590602D01*
X169933501Y-62530264D01*
X169933489Y-62530261D01*
X169778845Y-62499500D01*
X169778842Y-62499500D01*
X169621158Y-62499500D01*
X169621155Y-62499500D01*
X169466510Y-62530261D01*
X169466498Y-62530264D01*
X169320827Y-62590602D01*
X169320814Y-62590609D01*
X169189711Y-62678210D01*
X169189707Y-62678213D01*
X169078213Y-62789707D01*
X169078210Y-62789711D01*
X168990609Y-62920814D01*
X168990602Y-62920827D01*
X168930264Y-63066498D01*
X168930261Y-63066510D01*
X168899500Y-63221153D01*
X164604702Y-63221153D01*
X164436819Y-63053270D01*
X164422115Y-63026342D01*
X164405523Y-63000524D01*
X164404631Y-62994323D01*
X164403334Y-62991947D01*
X164400500Y-62965589D01*
X164400500Y-62879765D01*
X164420185Y-62812726D01*
X164421398Y-62810874D01*
X164509390Y-62679185D01*
X164509390Y-62679184D01*
X164509394Y-62679179D01*
X164569737Y-62533497D01*
X164574567Y-62509213D01*
X164606950Y-62447305D01*
X164667665Y-62412729D01*
X164737434Y-62416467D01*
X164743616Y-62418836D01*
X164866503Y-62469737D01*
X165016131Y-62499500D01*
X165021153Y-62500499D01*
X165021156Y-62500500D01*
X165021158Y-62500500D01*
X165178844Y-62500500D01*
X165178845Y-62500499D01*
X165333497Y-62469737D01*
X165479179Y-62409394D01*
X165610289Y-62321789D01*
X165721789Y-62210289D01*
X165809394Y-62079179D01*
X165869737Y-61933497D01*
X165900500Y-61778842D01*
X165900500Y-61621158D01*
X165900500Y-61621155D01*
X165900499Y-61621153D01*
X165882419Y-61530261D01*
X165869737Y-61466503D01*
X165824733Y-61357853D01*
X165809397Y-61320827D01*
X165809390Y-61320814D01*
X165721789Y-61189711D01*
X165721786Y-61189707D01*
X165610292Y-61078213D01*
X165610288Y-61078210D01*
X165479185Y-60990609D01*
X165479172Y-60990602D01*
X165333501Y-60930264D01*
X165333489Y-60930261D01*
X165178845Y-60899500D01*
X165178842Y-60899500D01*
X165021158Y-60899500D01*
X165021155Y-60899500D01*
X164866510Y-60930261D01*
X164866498Y-60930264D01*
X164720827Y-60990602D01*
X164720814Y-60990609D01*
X164589711Y-61078210D01*
X164589707Y-61078213D01*
X164478213Y-61189707D01*
X164478210Y-61189711D01*
X164390609Y-61320814D01*
X164390602Y-61320827D01*
X164330264Y-61466498D01*
X164330261Y-61466507D01*
X164325432Y-61490787D01*
X164293046Y-61552698D01*
X164232330Y-61587271D01*
X164162560Y-61583530D01*
X164156363Y-61581155D01*
X164033501Y-61530264D01*
X164033489Y-61530261D01*
X163878845Y-61499500D01*
X163878842Y-61499500D01*
X163721158Y-61499500D01*
X163721155Y-61499500D01*
X163566510Y-61530261D01*
X163566498Y-61530264D01*
X163420827Y-61590602D01*
X163420814Y-61590609D01*
X163289711Y-61678210D01*
X163289707Y-61678213D01*
X163287681Y-61680240D01*
X163286357Y-61680962D01*
X163285001Y-61682076D01*
X163284789Y-61681818D01*
X163226358Y-61713725D01*
X163156666Y-61708741D01*
X163115060Y-61682001D01*
X163114999Y-61682076D01*
X163114360Y-61681552D01*
X163112319Y-61680240D01*
X163110292Y-61678213D01*
X163110288Y-61678210D01*
X162979185Y-61590609D01*
X162979172Y-61590602D01*
X162833501Y-61530264D01*
X162833489Y-61530261D01*
X162678845Y-61499500D01*
X162678842Y-61499500D01*
X162614782Y-61499500D01*
X162547743Y-61479815D01*
X162501988Y-61427011D01*
X162492044Y-61357853D01*
X162521069Y-61294297D01*
X162527101Y-61287819D01*
X162736708Y-61078213D01*
X164178103Y-59636819D01*
X164239426Y-59603334D01*
X164265784Y-59600500D01*
X170833741Y-59600500D01*
X170900780Y-59620185D01*
X170946535Y-59672989D01*
X170948302Y-59677048D01*
X170990602Y-59779172D01*
X170990609Y-59779185D01*
X171078210Y-59910288D01*
X171078213Y-59910292D01*
X171189707Y-60021786D01*
X171189711Y-60021789D01*
X171320814Y-60109390D01*
X171320827Y-60109397D01*
X171439391Y-60158507D01*
X171466503Y-60169737D01*
X171621158Y-60200500D01*
X171621847Y-60200637D01*
X171683758Y-60233022D01*
X171685337Y-60234573D01*
X171731284Y-60280520D01*
X171731286Y-60280521D01*
X171731290Y-60280524D01*
X171868209Y-60359573D01*
X171868216Y-60359577D01*
X171980019Y-60389534D01*
X172020942Y-60400500D01*
X172020943Y-60400500D01*
X175013331Y-60400500D01*
X175013347Y-60400501D01*
X175020943Y-60400501D01*
X175179054Y-60400501D01*
X175179057Y-60400501D01*
X175331785Y-60359577D01*
X175381904Y-60330639D01*
X175468716Y-60280520D01*
X175580520Y-60168716D01*
X175580520Y-60168714D01*
X175590728Y-60158507D01*
X175590729Y-60158504D01*
X177314662Y-58434572D01*
X177375983Y-58401089D01*
X177378150Y-58400638D01*
X177436085Y-58389113D01*
X177533497Y-58369737D01*
X177679179Y-58309394D01*
X177810289Y-58221789D01*
X177921789Y-58110289D01*
X178009394Y-57979179D01*
X178069737Y-57833497D01*
X178100500Y-57678842D01*
X178100500Y-57521158D01*
X178100500Y-57521155D01*
X178100499Y-57521153D01*
X178078447Y-57410292D01*
X178069737Y-57366503D01*
X178033569Y-57279185D01*
X178009397Y-57220827D01*
X178009390Y-57220814D01*
X177921789Y-57089711D01*
X177921786Y-57089707D01*
X177810292Y-56978213D01*
X177810288Y-56978210D01*
X177679185Y-56890609D01*
X177679172Y-56890602D01*
X177533501Y-56830264D01*
X177533489Y-56830261D01*
X177378845Y-56799500D01*
X177378842Y-56799500D01*
X177221158Y-56799500D01*
X177221155Y-56799500D01*
X177066510Y-56830261D01*
X177066498Y-56830264D01*
X176920827Y-56890602D01*
X176920814Y-56890609D01*
X176789711Y-56978210D01*
X176789707Y-56978213D01*
X176678213Y-57089707D01*
X176678210Y-57089711D01*
X176590609Y-57220814D01*
X176590602Y-57220827D01*
X176530264Y-57366498D01*
X176530261Y-57366508D01*
X176499361Y-57521850D01*
X176466976Y-57583761D01*
X176465425Y-57585339D01*
X175012181Y-59038584D01*
X174950858Y-59072069D01*
X174881166Y-59067085D01*
X174825233Y-59025213D01*
X174800816Y-58959749D01*
X174800500Y-58950903D01*
X174800500Y-58821155D01*
X174800499Y-58821153D01*
X174769738Y-58666510D01*
X174769737Y-58666503D01*
X174769735Y-58666498D01*
X174709397Y-58520827D01*
X174709390Y-58520814D01*
X174621789Y-58389711D01*
X174621786Y-58389707D01*
X174510292Y-58278213D01*
X174510288Y-58278210D01*
X174379185Y-58190609D01*
X174379172Y-58190602D01*
X174233501Y-58130264D01*
X174233491Y-58130261D01*
X174078151Y-58099362D01*
X174029255Y-58077916D01*
X174021476Y-58072240D01*
X173968716Y-58019480D01*
X173880789Y-57968716D01*
X173875052Y-57965403D01*
X173875047Y-57965400D01*
X173850012Y-57950946D01*
X173831785Y-57940423D01*
X173679057Y-57899499D01*
X173520943Y-57899499D01*
X173513347Y-57899499D01*
X173513331Y-57899500D01*
X163820942Y-57899500D01*
X163668214Y-57940423D01*
X163619213Y-57968715D01*
X163619211Y-57968715D01*
X163531290Y-58019475D01*
X163531282Y-58019481D01*
X163419478Y-58131286D01*
X158287584Y-63263181D01*
X158226261Y-63296666D01*
X158199903Y-63299500D01*
X156586669Y-63299500D01*
X156586653Y-63299499D01*
X156579057Y-63299499D01*
X156420943Y-63299499D01*
X156313587Y-63328265D01*
X156268210Y-63340424D01*
X156268209Y-63340425D01*
X156218096Y-63369359D01*
X156218095Y-63369360D01*
X156201665Y-63378846D01*
X156131285Y-63419479D01*
X156131282Y-63419481D01*
X156038348Y-63512416D01*
X156019480Y-63531284D01*
X156019478Y-63531286D01*
X155740473Y-63810292D01*
X155487584Y-64063181D01*
X155426261Y-64096666D01*
X155399903Y-64099500D01*
X154400098Y-64099500D01*
X154370657Y-64090855D01*
X154340671Y-64084332D01*
X154335655Y-64080577D01*
X154333059Y-64079815D01*
X154312417Y-64063181D01*
X154236819Y-63987583D01*
X154203334Y-63926260D01*
X154200500Y-63899902D01*
X154200500Y-63220944D01*
X154197036Y-63208012D01*
X154197036Y-63208011D01*
X154183554Y-63157700D01*
X154159577Y-63068215D01*
X154135401Y-63026342D01*
X154125616Y-63009393D01*
X154125615Y-63009392D01*
X154080521Y-62931286D01*
X154080520Y-62931284D01*
X153968716Y-62819480D01*
X153968715Y-62819479D01*
X153964385Y-62815149D01*
X153964374Y-62815139D01*
X153664319Y-62515084D01*
X153630834Y-62453761D01*
X153628000Y-62427403D01*
X153628000Y-57817847D01*
X153647685Y-57750808D01*
X153700489Y-57705053D01*
X153727809Y-57696230D01*
X153743791Y-57693050D01*
X153860997Y-57669737D01*
X154006679Y-57609394D01*
X154137789Y-57521789D01*
X154249289Y-57410289D01*
X154336894Y-57279179D01*
X154397237Y-57133497D01*
X154428000Y-56978842D01*
X154428000Y-56978840D01*
X154428137Y-56978152D01*
X154460521Y-56916241D01*
X154461984Y-56914751D01*
X154480520Y-56896216D01*
X154559577Y-56759284D01*
X154600501Y-56606557D01*
X154600501Y-56538653D01*
X155599500Y-56538653D01*
X155599500Y-56696346D01*
X155630261Y-56850989D01*
X155630264Y-56851001D01*
X155690602Y-56996672D01*
X155690609Y-56996685D01*
X155778210Y-57127788D01*
X155778213Y-57127792D01*
X155889707Y-57239286D01*
X155889711Y-57239289D01*
X156020814Y-57326890D01*
X156020827Y-57326897D01*
X156116434Y-57366498D01*
X156166503Y-57387237D01*
X156282408Y-57410292D01*
X156321153Y-57417999D01*
X156321156Y-57418000D01*
X156321158Y-57418000D01*
X156478844Y-57418000D01*
X156478845Y-57417999D01*
X156633497Y-57387237D01*
X156779179Y-57326894D01*
X156910289Y-57239289D01*
X157021789Y-57127789D01*
X157109394Y-56996679D01*
X157169737Y-56850997D01*
X157200500Y-56696342D01*
X157200500Y-56538658D01*
X157200500Y-56538655D01*
X157200499Y-56538653D01*
X157182554Y-56448438D01*
X157169737Y-56384003D01*
X157169735Y-56383998D01*
X157109397Y-56238327D01*
X157109390Y-56238314D01*
X157021789Y-56107211D01*
X157021786Y-56107207D01*
X156910292Y-55995713D01*
X156910288Y-55995710D01*
X156779185Y-55908109D01*
X156779172Y-55908102D01*
X156633501Y-55847764D01*
X156633489Y-55847761D01*
X156478845Y-55817000D01*
X156478842Y-55817000D01*
X156321158Y-55817000D01*
X156321155Y-55817000D01*
X156166510Y-55847761D01*
X156166498Y-55847764D01*
X156020827Y-55908102D01*
X156020814Y-55908109D01*
X155889711Y-55995710D01*
X155889707Y-55995713D01*
X155778213Y-56107207D01*
X155778210Y-56107211D01*
X155690609Y-56238314D01*
X155690602Y-56238327D01*
X155630264Y-56383998D01*
X155630261Y-56384010D01*
X155599500Y-56538653D01*
X154600501Y-56538653D01*
X154600501Y-56448442D01*
X154600500Y-56448438D01*
X154600500Y-54400097D01*
X154620185Y-54333058D01*
X154636819Y-54312416D01*
X154812416Y-54136819D01*
X154873739Y-54103334D01*
X154900097Y-54100500D01*
X156379016Y-54100500D01*
X156379032Y-54100501D01*
X156386628Y-54100501D01*
X156544739Y-54100501D01*
X156544742Y-54100501D01*
X156697470Y-54059577D01*
X156747589Y-54030639D01*
X156834401Y-53980520D01*
X156946205Y-53868716D01*
X156946205Y-53868714D01*
X156956413Y-53858507D01*
X156956414Y-53858504D01*
X157256265Y-53558653D01*
X175299500Y-53558653D01*
X175299500Y-53716346D01*
X175330261Y-53870989D01*
X175330264Y-53871001D01*
X175390602Y-54016672D01*
X175390609Y-54016685D01*
X175478210Y-54147788D01*
X175478213Y-54147792D01*
X175589707Y-54259286D01*
X175589711Y-54259289D01*
X175720814Y-54346890D01*
X175720827Y-54346897D01*
X175849265Y-54400097D01*
X175866503Y-54407237D01*
X176021153Y-54437999D01*
X176021156Y-54438000D01*
X176021158Y-54438000D01*
X176178844Y-54438000D01*
X176178845Y-54437999D01*
X176333497Y-54407237D01*
X176446166Y-54360567D01*
X176479172Y-54346897D01*
X176479172Y-54346896D01*
X176479179Y-54346894D01*
X176610289Y-54259289D01*
X176721789Y-54147789D01*
X176809394Y-54016679D01*
X176869737Y-53870997D01*
X176900500Y-53716342D01*
X176900500Y-53558658D01*
X176900500Y-53558655D01*
X176900499Y-53558653D01*
X176869738Y-53404010D01*
X176869737Y-53404003D01*
X176869735Y-53403998D01*
X176809397Y-53258327D01*
X176809390Y-53258314D01*
X176721789Y-53127211D01*
X176721786Y-53127207D01*
X176610292Y-53015713D01*
X176610288Y-53015710D01*
X176479185Y-52928109D01*
X176479172Y-52928102D01*
X176333501Y-52867764D01*
X176333489Y-52867761D01*
X176178845Y-52837000D01*
X176178842Y-52837000D01*
X176021158Y-52837000D01*
X176021155Y-52837000D01*
X175866510Y-52867761D01*
X175866498Y-52867764D01*
X175720827Y-52928102D01*
X175720814Y-52928109D01*
X175589711Y-53015710D01*
X175589707Y-53015713D01*
X175478213Y-53127207D01*
X175478210Y-53127211D01*
X175390609Y-53258314D01*
X175390602Y-53258327D01*
X175330264Y-53403998D01*
X175330261Y-53404010D01*
X175299500Y-53558653D01*
X157256265Y-53558653D01*
X159358505Y-51456414D01*
X159358511Y-51456410D01*
X159368714Y-51446206D01*
X159368716Y-51446206D01*
X159480520Y-51334402D01*
X159522032Y-51262499D01*
X159530155Y-51254754D01*
X159534689Y-51244486D01*
X159554989Y-51231074D01*
X159572598Y-51214285D01*
X159585135Y-51211159D01*
X159592986Y-51205973D01*
X159625581Y-51201076D01*
X159627854Y-51200510D01*
X159628647Y-51200500D01*
X159642394Y-51200500D01*
X159643851Y-51200308D01*
X159648935Y-51200244D01*
X159679535Y-51208811D01*
X159710553Y-51215746D01*
X159712943Y-51218164D01*
X159716218Y-51219081D01*
X159737329Y-51242833D01*
X159759673Y-51265436D01*
X159760565Y-51268975D01*
X159762635Y-51271304D01*
X159765067Y-51286829D01*
X159774500Y-51324234D01*
X159774500Y-51634107D01*
X159774500Y-51634108D01*
X159774500Y-51700000D01*
X159774500Y-51801976D01*
X159811976Y-52002456D01*
X159848814Y-52097546D01*
X159885651Y-52192635D01*
X159885655Y-52192642D01*
X159993017Y-52366039D01*
X159993019Y-52366041D01*
X160130418Y-52516762D01*
X160147097Y-52529357D01*
X160293179Y-52639673D01*
X160354285Y-52670100D01*
X160475739Y-52730577D01*
X160475743Y-52730578D01*
X160475750Y-52730582D01*
X160671917Y-52786397D01*
X160874999Y-52805215D01*
X160875000Y-52805215D01*
X160875001Y-52805215D01*
X160976541Y-52795806D01*
X161078083Y-52786397D01*
X161274250Y-52730582D01*
X161456821Y-52639673D01*
X161619579Y-52516764D01*
X161634407Y-52500499D01*
X161652935Y-52480174D01*
X161756981Y-52366041D01*
X161864348Y-52192637D01*
X161938024Y-52002456D01*
X161975500Y-51801976D01*
X161975500Y-51700000D01*
X161975500Y-51634108D01*
X161975500Y-51634107D01*
X161975500Y-51324500D01*
X161976511Y-51321056D01*
X161975694Y-51317561D01*
X161986284Y-51287771D01*
X161995185Y-51257461D01*
X161997895Y-51255111D01*
X161999099Y-51251728D01*
X162024115Y-51232392D01*
X162047989Y-51211706D01*
X162052375Y-51210550D01*
X162054381Y-51209000D01*
X162067992Y-51206435D01*
X162088749Y-51200967D01*
X162094115Y-51200500D01*
X162142394Y-51200500D01*
X162236547Y-51188104D01*
X162239249Y-51187869D01*
X162242198Y-51188463D01*
G37*
%TD.AperFunction*%
%TA.AperFunction,Conductor*%
G36*
X153617941Y-52720185D02*
G01*
X153663696Y-52772989D01*
X153673640Y-52842147D01*
X153644615Y-52905703D01*
X153638583Y-52912181D01*
X152546981Y-54003782D01*
X152546979Y-54003785D01*
X152496861Y-54090594D01*
X152496859Y-54090596D01*
X152467925Y-54140709D01*
X152467924Y-54140710D01*
X152452044Y-54199972D01*
X152426999Y-54293443D01*
X152426999Y-54293445D01*
X152426999Y-54461546D01*
X152427000Y-54461559D01*
X152427000Y-62640830D01*
X152426999Y-62640848D01*
X152426999Y-62806554D01*
X152426998Y-62806554D01*
X152446615Y-62879765D01*
X152467923Y-62959285D01*
X152486738Y-62991873D01*
X152530813Y-63068214D01*
X152546979Y-63096214D01*
X152546981Y-63096217D01*
X152665849Y-63215085D01*
X152665855Y-63215090D01*
X152963181Y-63512416D01*
X152996666Y-63573739D01*
X152999500Y-63600097D01*
X152999500Y-64113330D01*
X152999499Y-64113348D01*
X152999499Y-64279054D01*
X152999498Y-64279054D01*
X153002594Y-64290606D01*
X153010691Y-64320827D01*
X153016742Y-64343406D01*
X153015079Y-64413256D01*
X152975917Y-64471119D01*
X152911688Y-64498623D01*
X152896967Y-64499500D01*
X152720941Y-64499500D01*
X152680800Y-64510255D01*
X152680801Y-64510256D01*
X152568214Y-64540423D01*
X152568209Y-64540426D01*
X152431290Y-64619475D01*
X152431282Y-64619481D01*
X152212181Y-64838583D01*
X152150858Y-64872068D01*
X152081166Y-64867084D01*
X152025233Y-64825212D01*
X152000816Y-64759748D01*
X152000500Y-64750902D01*
X152000500Y-52824500D01*
X152020185Y-52757461D01*
X152072989Y-52711706D01*
X152124500Y-52700500D01*
X153550902Y-52700500D01*
X153617941Y-52720185D01*
G37*
%TD.AperFunction*%
%TD*%
M02*
